<?xml version="1.0" encoding="UTF-8"?>
<svg width="24px" height="24px" viewBox="0 0 24 24" version="1.1" xmlns="http://www.w3.org/2000/svg" xmlns:xlink="http://www.w3.org/1999/xlink">
    <!-- Generator: Sketch 44.1 (41455) - http://www.bohemiancoding.com/sketch -->
    <title>Bold/SVG/add</title>
    <desc>Created with Sketch.</desc>
    <defs></defs>
    <g id="Bold-Outline" stroke="none" stroke-width="1" fill="none" fill-rule="evenodd">
        <g id="add" fill-rule="nonzero" fill="#000000">
            <path d="M11,11 L3,11 C2.44771525,11 2,11.4477153 2,12 C2,12.5522847 2.44771525,13 3,13 L11,13 L11,21 C11,21.5522847 11.4477153,22 12,22 C12.5522847,22 13,21.5522847 13,21 L13,13 L21,13 C21.5522847,13 22,12.5522847 22,12 C22,11.4477153 21.5522847,11 21,11 L13,11 L13,3 C13,2.44771525 12.5522847,2 12,2 C11.4477153,2 11,2.44771525 11,3 L11,11 Z" id="shape"></path>
        </g>
    </g>
</svg>