<?xml version="1.0" encoding="UTF-8"?>
<svg width="24px" height="24px" viewBox="0 0 24 24" version="1.1" xmlns="http://www.w3.org/2000/svg" xmlns:xlink="http://www.w3.org/1999/xlink">
    <!-- Generator: Sketch 44.1 (41455) - http://www.bohemiancoding.com/sketch -->
    <title>Bold/SVG/airplane-landing</title>
    <desc>Created with Sketch.</desc>
    <defs></defs>
    <g id="Bold-Outline" stroke="none" stroke-width="1" fill="none" fill-rule="evenodd">
        <g id="airplane-landing" fill-rule="nonzero" fill="#000000">
            <path d="M11.1867366,10.0384017 C11.2891146,10.7489798 10.6315909,11.3327423 9.93813782,11.1469321 L5.10850869,9.85283685 C4.85232923,9.78419377 4.63391058,9.61659524 4.50130233,9.38691103 L3.58708877,7.80344669 L2.65901895,11.2670504 L20.0456838,15.9257932 C20.5791499,16.068735 21.1274869,15.7521525 21.2704287,15.2186864 C21.4133705,14.6852203 21.096788,14.1368834 20.5633219,13.9939416 L14.767767,12.4410273 C14.4558201,12.3574414 14.2034431,12.1283496 14.0901443,11.8259247 L11.6138683,5.21607768 C11.3943938,4.63024128 10.9139755,4.18199513 10.3171009,4.00249582 L11.1867366,10.0384017 Z M15.7824878,10.6423686 L21.08096,12.0620899 C22.6813583,12.4909154 23.6311058,14.1359262 23.2022803,15.7363245 C22.7734549,17.3367228 21.128444,18.2864703 19.5280457,17.8576449 L2.14138086,13.1989021 C1.07444865,12.9130184 0.441283672,11.8163445 0.727167295,10.7494123 L1.65523712,7.2858086 C1.94112074,6.21887639 3.03779465,5.58571141 4.10472686,5.87159503 C4.61708577,6.00888119 5.05392309,6.34407825 5.31913958,6.80344669 L6.02624636,8.02819156 L8.99091171,8.82257125 L8.12113296,2.78567292 C8.01875493,2.07509475 8.67627867,1.49133231 9.36973175,1.67714251 L10.7762611,2.0540209 C12.0240483,2.38836449 13.0335566,3.30473165 13.4867517,4.51443116 L15.7824878,10.6423686 Z M3,22 C2.44771525,22 2,21.5522847 2,21 C2,20.4477153 2.44771525,20 3,20 L21,20 C21.5522847,20 22,20.4477153 22,21 C22,21.5522847 21.5522847,22 21,22 L3,22 Z" id="shape"></path>
        </g>
    </g>
</svg>