<?xml version="1.0" encoding="UTF-8"?>
<svg width="24px" height="24px" viewBox="0 0 24 24" version="1.1" xmlns="http://www.w3.org/2000/svg" xmlns:xlink="http://www.w3.org/1999/xlink">
    <!-- Generator: Sketch 44.1 (41455) - http://www.bohemiancoding.com/sketch -->
    <title>Bold/SVG/airplane</title>
    <desc>Created with Sketch.</desc>
    <defs></defs>
    <g id="Bold-Outline" stroke="none" stroke-width="1" fill="none" fill-rule="evenodd">
        <g id="airplane" fill-rule="nonzero" fill="#000000">
            <path d="M10.1,20.2 L15.2,13.4 C15.3888544,13.1481942 15.6852427,13 16,13 L21,13 C21.5522847,13 22,12.5522847 22,12 C22,11.4477153 21.5522847,11 21,11 L5,11 C4.78362979,11 4.57309617,10.9298221 4.4,10.8 L2,9 L2,13 L10,13 C10.6982062,13 11.1814857,13.6973726 10.9363292,14.3511234 L8.44300047,21 C9.12951461,21 9.72229124,20.7036117 10.1,20.2 Z M8.55699953,9 L6.06367082,2.35112344 C5.81851426,1.69737262 6.30179382,1 7,1 L8.5,1 C9.75902921,1 10.9445825,1.59277663 11.7,2.6 L16.5,9 L21,9 C22.6568542,9 24,10.3431458 24,12 C24,13.6568542 22.6568542,15 21,15 L16.5,15 L11.7,21.4 C10.9445825,22.4072234 9.75902921,23 8.5,23 L7,23 C6.30179382,23 5.81851426,22.3026274 6.06367082,21.6488766 L8.55699953,15 L2,15 C0.8954305,15 0,14.1045695 0,13 L0,9 C-6.66133815e-16,7.8954305 0.8954305,7 2,7 C2.43274043,7 2.85380766,7.14035574 3.2,7.4 L5.33333333,9 L8.55699953,9 Z M10.6930005,9 L14,9 L10.1,3.8 C9.72229124,3.29638831 9.12951461,3 8.5,3 L8.44300047,3 L10.6930005,9 Z" id="shape"></path>
        </g>
    </g>
</svg>