<?xml version="1.0" encoding="UTF-8"?>
<svg width="24px" height="24px" viewBox="0 0 24 24" version="1.1" xmlns="http://www.w3.org/2000/svg" xmlns:xlink="http://www.w3.org/1999/xlink">
    <!-- Generator: Sketch 44.1 (41455) - http://www.bohemiancoding.com/sketch -->
    <title>Bold/SVG/airplay</title>
    <desc>Created with Sketch.</desc>
    <defs></defs>
    <g id="Bold-Outline" stroke="none" stroke-width="1" fill="none" fill-rule="evenodd">
        <g id="airplay" fill-rule="nonzero" fill="#000000">
            <path d="M5.5,17 C6.05228475,17 6.5,17.4477153 6.5,18 C6.5,18.5522847 6.05228475,19 5.5,19 L5,19 C2.790861,19 1,17.209139 1,15 L1,7 C1,4.790861 2.790861,3 5,3 L19,3 C21.209139,3 23,4.790861 23,7 L23,15 C23,17.209139 21.209139,19 19,19 L18.5,19 C17.9477153,19 17.5,18.5522847 17.5,18 C17.5,17.4477153 17.9477153,17 18.5,17 L19,17 C20.1045695,17 21,16.1045695 21,15 L21,7 C21,5.8954305 20.1045695,5 19,5 L5,5 C3.8954305,5 3,5.8954305 3,7 L3,15 C3,16.1045695 3.8954305,17 5,17 L5.5,17 Z M8.20181714,18.8943561 L10.3228955,15.6971363 C10.9335258,14.7766992 12.1747011,14.5255511 13.0951382,15.1361814 C13.3151764,15.2821577 13.5041298,15.4702618 13.6510957,15.6896402 L15.7929771,18.88686 C16.4077473,19.8045372 16.1621928,21.0468312 15.2445156,21.6616014 C14.915201,21.8822159 14.5277579,22 14.1313757,22 L9.86841593,22 C8.76384643,22 7.86841593,21.1045695 7.86841593,20 C7.86841593,19.6066866 7.98438488,19.2221039 8.20181714,18.8943561 Z M9.86841593,20 L14.1313757,20 L11.9894943,16.8027802 L9.86841593,20 Z" id="shape"></path>
        </g>
    </g>
</svg>