<?xml version="1.0" encoding="UTF-8"?>
<svg width="24px" height="24px" viewBox="0 0 24 24" version="1.1" xmlns="http://www.w3.org/2000/svg" xmlns:xlink="http://www.w3.org/1999/xlink">
    <!-- Generator: Sketch 44.1 (41455) - http://www.bohemiancoding.com/sketch -->
    <title>Bold/SVG/album</title>
    <desc>Created with Sketch.</desc>
    <defs></defs>
    <g id="Bold-Outline" stroke="none" stroke-width="1" fill="none" fill-rule="evenodd">
        <g id="album" fill-rule="nonzero" fill="#000000">
            <path d="M9,12.1707057 L9,9 C9,7.34314575 10.3431458,6 12,6 L15.5,6 C17.1568542,6 18.5,7.34314575 18.5,9 L18.5,14.5116137 C18.5,14.5724475 18.4945679,14.6320126 18.4841624,14.6898504 C18.4946341,14.791807 18.5,14.8952769 18.5,15 C18.5,16.6568542 17.1568542,18 15.5,18 C13.8431458,18 12.5,16.6568542 12.5,15 C12.5,13.3431458 13.8431458,12 15.5,12 C15.8506354,12 16.1872211,12.0601542 16.5,12.1707057 L16.5,9 C16.5,8.44771525 16.0522847,8 15.5,8 L12,8 C11.4477153,8 11,8.44771525 11,9 L11,14.5415039 C11,14.5985351 10.9952258,14.6544512 10.9860553,14.7088743 C10.9952803,14.8046709 11,14.9017843 11,15 C11,16.6568542 9.65685425,18 8,18 C6.34314575,18 5,16.6568542 5,15 C5,13.3431458 6.34314575,12 8,12 C8.35063542,12 8.68722107,12.0601542 9,12.1707057 Z M6,2 L18,2 C20.209139,2 22,3.790861 22,6 L22,18 C22,20.209139 20.209139,22 18,22 L6,22 C3.790861,22 2,20.209139 2,18 L2,6 C2,3.790861 3.790861,2 6,2 Z M6,4 C4.8954305,4 4,4.8954305 4,6 L4,18 C4,19.1045695 4.8954305,20 6,20 L18,20 C19.1045695,20 20,19.1045695 20,18 L20,6 C20,4.8954305 19.1045695,4 18,4 L6,4 Z M8,16 C8.55228475,16 9,15.5522847 9,15 C9,14.4477153 8.55228475,14 8,14 C7.44771525,14 7,14.4477153 7,15 C7,15.5522847 7.44771525,16 8,16 Z M15.5,16 C16.0522847,16 16.5,15.5522847 16.5,15 C16.5,14.4477153 16.0522847,14 15.5,14 C14.9477153,14 14.5,14.4477153 14.5,15 C14.5,15.5522847 14.9477153,16 15.5,16 Z" id="shape"></path>
        </g>
    </g>
</svg>