<?xml version="1.0" encoding="UTF-8"?>
<svg width="24px" height="24px" viewBox="0 0 24 24" version="1.1" xmlns="http://www.w3.org/2000/svg" xmlns:xlink="http://www.w3.org/1999/xlink">
    <!-- Generator: Sketch 44.1 (41455) - http://www.bohemiancoding.com/sketch -->
    <title>Bold/SVG/alerm</title>
    <desc>Created with Sketch.</desc>
    <defs></defs>
    <g id="Bold-Outline" stroke="none" stroke-width="1" fill="none" fill-rule="evenodd">
        <g id="alerm" fill-rule="nonzero" fill="#000000">
            <path d="M21.2085235,9.09427204 C21.7181032,10.2941982 22,11.6141788 22,13 C22,15.6560669 20.9644912,18.0702777 19.2751598,19.8609463 L20.7071068,21.2928932 C21.0976311,21.6834175 21.0976311,22.3165825 20.7071068,22.7071068 C20.3165825,23.0976311 19.6834175,23.0976311 19.2928932,22.7071068 L17.7607602,21.1749738 C16.1322679,22.3246461 14.1450026,23 12,23 C9.85499737,23 7.86773211,22.3246461 6.23923981,21.1749738 L4.70710678,22.7071068 C4.31658249,23.0976311 3.68341751,23.0976311 3.29289322,22.7071068 C2.90236893,22.3165825 2.90236893,21.6834175 3.29289322,21.2928932 L4.72484018,19.8609463 C3.0355088,18.0702777 2,15.6560669 2,13 C2,11.6141788 2.28189681,10.2941982 2.79147649,9.09427204 C1.68368721,8.2591805 1,6.94088501 1,5.5 C1,3.01471863 3.01471863,1 5.5,1 C7.17372255,1 8.66806747,1.9217981 9.44332579,3.32980906 C10.2594082,3.11462185 11.1163184,3 12,3 C12.8836816,3 13.7405918,3.11462185 14.5566742,3.32980906 C15.3319325,1.9217981 16.8262774,1 18.5,1 C20.9852814,1 23,3.01471863 23,5.5 C23,6.94088501 22.3163128,8.2591805 21.2085235,9.09427204 Z M20.2247575,7.31040999 C20.7096076,6.84838208 21,6.20044989 21,5.5 C21,4.11928813 19.8807119,3 18.5,3 C17.6712917,3 16.921452,3.40696972 16.4632872,4.04885516 C17.9751879,4.80419407 19.2689419,5.93130963 20.2247575,7.31040999 Z M3.77524246,7.31040999 C4.73105807,5.93130963 6.02481215,4.80419407 7.53671282,4.04885516 C7.07854798,3.40696972 6.32870833,3 5.5,3 C4.11928813,3 3,4.11928813 3,5.5 C3,6.20044989 3.29039241,6.84838208 3.77524246,7.31040999 Z M12,21 C16.418278,21 20,17.418278 20,13 C20,8.581722 16.418278,5 12,5 C7.581722,5 4,8.581722 4,13 C4,17.418278 7.581722,21 12,21 Z M13,8 L13,12 L17,12 C17.5522847,12 18,12.4477153 18,13 C18,13.5522847 17.5522847,14 17,14 L12,14 C11.4477153,14 11,13.5522847 11,13 L11,8 C11,7.44771525 11.4477153,7 12,7 C12.5522847,7 13,7.44771525 13,8 Z" id="shape"></path>
        </g>
    </g>
</svg>