<?xml version="1.0" encoding="UTF-8"?>
<svg width="24px" height="24px" viewBox="0 0 24 24" version="1.1" xmlns="http://www.w3.org/2000/svg" xmlns:xlink="http://www.w3.org/1999/xlink">
    <!-- Generator: Sketch 44.1 (41455) - http://www.bohemiancoding.com/sketch -->
    <title>Bold/SVG/align-right</title>
    <desc>Created with Sketch.</desc>
    <defs></defs>
    <g id="Bold-Outline" stroke="none" stroke-width="1" fill="none" fill-rule="evenodd">
        <g id="align-right" fill-rule="nonzero" fill="#000000">
            <path d="M22,22 C22,22.5522847 21.5522847,23 21,23 C20.4477153,23 20,22.5522847 20,22 L20,2 C20,1.44771525 20.4477153,1 21,1 C21.5522847,1 22,1.44771525 22,2 L22,22 Z M4,4 L16,4 C17.1045695,4 18,4.8954305 18,6 L18,9 C18,10.1045695 17.1045695,11 16,11 L4,11 C2.8954305,11 2,10.1045695 2,9 L2,6 C2,4.8954305 2.8954305,4 4,4 Z M9,13 L16,13 C17.1045695,13 18,13.8954305 18,15 L18,18 C18,19.1045695 17.1045695,20 16,20 L9,20 C7.8954305,20 7,19.1045695 7,18 L7,15 C7,13.8954305 7.8954305,13 9,13 Z M4,6 L4,9 L16,9 L16,6 L4,6 Z M9,15 L9,18 L16,18 L16,15 L9,15 Z" id="Combined-Shape"></path>
        </g>
    </g>
</svg>