<?xml version="1.0" encoding="UTF-8"?>
<svg width="24px" height="24px" viewBox="0 0 24 24" version="1.1" xmlns="http://www.w3.org/2000/svg" xmlns:xlink="http://www.w3.org/1999/xlink">
    <!-- Generator: Sketch 44.1 (41455) - http://www.bohemiancoding.com/sketch -->
    <title>Bold/SVG/align-horizontally</title>
    <desc>Created with Sketch.</desc>
    <defs></defs>
    <g id="Bold-Outline" stroke="none" stroke-width="1" fill="none" fill-rule="evenodd">
        <g id="align-horizontally" fill-rule="nonzero" fill="#000000">
            <path d="M11,13 L11,11 L6,11 C4.8954305,11 4,10.1045695 4,9 L4,6 C4,4.8954305 4.8954305,4 6,4 L11,4 L11,2 C11,1.44771525 11.4477153,1 12,1 C12.5522847,1 13,1.44771525 13,2 L13,4 L18,4 C19.1045695,4 20,4.8954305 20,6 L20,9 C20,10.1045695 19.1045695,11 18,11 L13,11 L13,13 L15.5,13 C16.6045695,13 17.5,13.8954305 17.5,15 L17.5,18 C17.5,19.1045695 16.6045695,20 15.5,20 L13,20 L13,22 C13,22.5522847 12.5522847,23 12,23 C11.4477153,23 11,22.5522847 11,22 L11,20 L8.5,20 C7.3954305,20 6.5,19.1045695 6.5,18 L6.5,15 C6.5,13.8954305 7.3954305,13 8.5,13 L11,13 Z M6,6 L6,9 L18,9 L18,6 L6,6 Z M8.5,15 L8.5,18 L15.5,18 L15.5,15 L8.5,15 Z" id="Combined-Shape"></path>
        </g>
    </g>
</svg>