<?xml version="1.0" encoding="UTF-8"?>
<svg width="24px" height="24px" viewBox="0 0 24 24" version="1.1" xmlns="http://www.w3.org/2000/svg" xmlns:xlink="http://www.w3.org/1999/xlink">
    <!-- Generator: Sketch 44.1 (41455) - http://www.bohemiancoding.com/sketch -->
    <title>Bold/SVG/align-top</title>
    <desc>Created with Sketch.</desc>
    <defs></defs>
    <g id="Bold-Outline" stroke="none" stroke-width="1" fill="none" fill-rule="evenodd">
        <g id="align-top" fill-rule="nonzero" fill="#000000">
            <path d="M6,6 L9,6 C10.1045695,6 11,6.8954305 11,8 L11,20 C11,21.1045695 10.1045695,22 9,22 L6,22 C4.8954305,22 4,21.1045695 4,20 L4,8 C4,6.8954305 4.8954305,6 6,6 Z M15,6 L18,6 C19.1045695,6 20,6.8954305 20,8 L20,15 C20,16.1045695 19.1045695,17 18,17 L15,17 C13.8954305,17 13,16.1045695 13,15 L13,8 C13,6.8954305 13.8954305,6 15,6 Z M6,8 L6,20 L9,20 L9,8 L6,8 Z M15,8 L15,15 L18,15 L18,8 L15,8 Z M2,4 C1.44771525,4 1,3.55228475 1,3 C1,2.44771525 1.44771525,2 2,2 L22,2 C22.5522847,2 23,2.44771525 23,3 C23,3.55228475 22.5522847,4 22,4 L2,4 Z" id="Combined-Shape"></path>
        </g>
    </g>
</svg>