<?xml version="1.0" encoding="UTF-8"?>
<svg width="24px" height="24px" viewBox="0 0 24 24" version="1.1" xmlns="http://www.w3.org/2000/svg" xmlns:xlink="http://www.w3.org/1999/xlink">
    <!-- Generator: Sketch 44.1 (41455) - http://www.bohemiancoding.com/sketch -->
    <title>Bold/SVG/align-vertically</title>
    <desc>Created with Sketch.</desc>
    <defs></defs>
    <g id="Bold-Outline" stroke="none" stroke-width="1" fill="none" fill-rule="evenodd">
        <g id="align-vertically" fill-rule="nonzero" fill="#000000">
            <path d="M13,12.5 L11,12.5 L11,18 C11,19.1045695 10.1045695,20 9,20 L6,20 C4.8954305,20 4,19.1045695 4,18 L4,12.5 L2,12.5 C1.44771525,12.5 1,12.0522847 1,11.5 C1,10.9477153 1.44771525,10.5 2,10.5 L4,10.5 L4,6 C4,4.8954305 4.8954305,4 6,4 L9,4 C10.1045695,4 11,4.8954305 11,6 L11,10.5 L13,10.5 L13,8.5 C13,7.3954305 13.8954305,6.5 15,6.5 L18,6.5 C19.1045695,6.5 20,7.3954305 20,8.5 L20,10.5 L22,10.5 C22.5522847,10.5 23,10.9477153 23,11.5 C23,12.0522847 22.5522847,12.5 22,12.5 L20,12.5 L20,15.5 C20,16.6045695 19.1045695,17.5 18,17.5 L15,17.5 C13.8954305,17.5 13,16.6045695 13,15.5 L13,12.5 Z M9,6 L6,6 L6,18 L9,18 L9,6 Z M18,8.5 L15,8.5 L15,15.5 L18,15.5 L18,8.5 Z" id="Combined-Shape"></path>
        </g>
    </g>
</svg>