<?xml version="1.0" encoding="UTF-8"?>
<svg width="24px" height="24px" viewBox="0 0 24 24" version="1.1" xmlns="http://www.w3.org/2000/svg" xmlns:xlink="http://www.w3.org/1999/xlink">
    <!-- Generator: Sketch 44.1 (41455) - http://www.bohemiancoding.com/sketch -->
    <title>Bold/SVG/attachment-s</title>
    <desc>Created with Sketch.</desc>
    <defs></defs>
    <g id="Bold-Outline" stroke="none" stroke-width="1" fill="none" fill-rule="evenodd">
        <g id="attachment-s" fill-rule="nonzero" fill="#000000">
            <path d="M16.5,8 L16.5,17 C16.5,19.4852814 14.4852814,21.5 12,21.5 C9.51471863,21.5 7.5,19.4852814 7.5,17 L7.5,5.25 C7.5,3.73121694 8.73121694,2.5 10.25,2.5 C11.7687831,2.5 13,3.73121694 13,5.25 L13,17 C13,17.5522847 12.5522847,18 12,18 C11.4477153,18 11,17.5522847 11,17 L11,8.01464789 C11,7.46236314 10.5522847,7.01464789 10,7.01464789 C9.44771525,7.01464789 9,7.46236314 9,8.01464789 L9,17 C9,18.6568542 10.3431458,20 12,20 C13.6568542,20 15,18.6568542 15,17 L15,5.25 C15,2.62664744 12.8733526,0.5 10.25,0.5 C7.62664744,0.5 5.5,2.62664744 5.5,5.25 L5.5,17 C5.5,20.5898509 8.41014913,23.5 12,23.5 C15.5898509,23.5 18.5,20.5898509 18.5,17 L18.5,8 C18.5,7.44771525 18.0522847,7 17.5,7 C16.9477153,7 16.5,7.44771525 16.5,8 Z" id="shape" transform="translate(12.000000, 12.000000) rotate(-270.000000) translate(-12.000000, -12.000000) "></path>
        </g>
    </g>
</svg>