<?xml version="1.0" encoding="UTF-8"?>
<svg width="24px" height="24px" viewBox="0 0 24 24" version="1.1" xmlns="http://www.w3.org/2000/svg" xmlns:xlink="http://www.w3.org/1999/xlink">
    <!-- Generator: Sketch 44.1 (41455) - http://www.bohemiancoding.com/sketch -->
    <title>Bold/SVG/baseball</title>
    <desc>Created with Sketch.</desc>
    <defs></defs>
    <g id="Bold-Outline" stroke="none" stroke-width="1" fill="none" fill-rule="evenodd">
        <g id="baseball" fill-rule="nonzero" fill="#000000">
            <path d="M12.0002485,0.5 C11.8628899,0.5 11.7257046,0.509749465 11.5897265,0.529174904 C10.002651,0.755899976 8.89986906,2.22627586 9.12659413,3.81335137 L11.3134912,19.1216309 C11.4573199,20.1284316 11.2907059,21.1551533 10.8358797,22.0648057 L10.3946757,22.9472136 C10.3681567,23.0002517 10.3543505,23.0587356 10.3543505,23.118034 C10.3543505,23.328988 10.5253625,23.5 10.7363165,23.5 L13.2641806,23.5 C13.3234789,23.5 13.3819629,23.4861938 13.435001,23.4596748 C13.6236839,23.3653333 13.7001628,23.1358966 13.6058213,22.9472136 L13.1646174,22.0648057 C12.7097912,21.1551533 12.5431772,20.1284316 12.6870059,19.1216309 L14.8739029,3.81335137 C14.8933284,3.67737329 14.9030778,3.54018791 14.9030778,3.40282931 C14.9030778,1.79964095 13.6034369,0.5 12.0002485,0.5 Z M12.0002485,-1.5 C14.7080064,-1.5 16.9030778,0.69507145 16.9030778,3.40282931 C16.9030778,3.63482564 16.8866112,3.86652942 16.8538019,4.09619408 L14.6669049,19.4044736 C14.5806076,20.008554 14.680576,20.624587 14.9534718,21.1703785 L15.3946757,22.0527864 C15.9829957,23.2294264 15.5060681,24.6602092 14.3294281,25.2485292 C13.9986792,25.4139036 13.6339691,25.5 13.2641806,25.5 L10.7363165,25.5 C9.42079301,25.5 8.3543505,24.4335575 8.3543505,23.118034 C8.3543505,22.7482454 8.44044688,22.3835353 8.60582134,22.0527864 L9.04702531,21.1703785 C9.31992103,20.624587 9.41988943,20.008554 9.33359222,19.4044736 L7.14669515,4.09619408 C6.76376036,1.41565056 8.62634025,-1.06778929 11.3068838,-1.45072408 C11.5365484,-1.48353332 11.7682522,-1.5 12.0002485,-1.5 Z" id="shape" transform="translate(11.999936, 12.000000) rotate(-45.000000) translate(-11.999936, -12.000000) "></path>
        </g>
    </g>
</svg>