<?xml version="1.0" encoding="UTF-8"?>
<svg width="24px" height="24px" viewBox="0 0 24 24" version="1.1" xmlns="http://www.w3.org/2000/svg" xmlns:xlink="http://www.w3.org/1999/xlink">
    <!-- Generator: Sketch 44.1 (41455) - http://www.bohemiancoding.com/sketch -->
    <title>Bold/SVG/battery-charging</title>
    <desc>Created with Sketch.</desc>
    <defs></defs>
    <g id="Bold-Outline" stroke="none" stroke-width="1" fill="none" fill-rule="evenodd">
        <g id="battery-charging" fill-rule="nonzero" fill="#000000">
            <path d="M14.5,6 L17,6 C18.1045695,6 19,6.8954305 19,8 L19,16 C19,17.1045695 18.1045695,18 17,18 L15.5,18 C14.9477153,18 14.5,18.4477153 14.5,19 C14.5,19.5522847 14.9477153,20 15.5,20 L17,20 C19.209139,20 21,18.209139 21,16 L21,8 C21,5.790861 19.209139,4 17,4 L14.5,4 C13.9477153,4 13.5,4.44771525 13.5,5 C13.5,5.55228475 13.9477153,6 14.5,6 Z M6.5,18 C7.05228475,18 7.5,18.4477153 7.5,19 C7.5,19.5522847 7.05228475,20 6.5,20 L5,20 C2.790861,20 1,18.209139 1,16 L1,8 C1,5.88506349 2.64580054,4.13405184 4.74606076,4.00197158 C4.80871115,3.99803165 4.91039081,3.99773082 5.15768212,3.99851577 C5.23680443,3.99879461 5.23680443,3.99879461 5.31094457,3.99912731 C5.44589764,3.99979335 5.44589764,3.99979335 5.5,4 C6.05228475,4 6.5,4.44771525 6.5,5 C6.5,5.55228475 6.05228475,6 5.5,6 C5.43438272,5.99976495 5.43438272,5.99976495 5.30168188,5.99910586 C5.22860503,5.99877799 5.22860503,5.99877799 5.15133382,5.99850569 C5.00850425,5.99805233 4.86442985,5.99847858 4.87158793,5.99802842 C3.82469156,6.06386519 3,6.94127682 3,8 L3,16 C3,17.1045695 3.8954305,18 5,18 L6.5,18 Z M9.5,15 L5.5,15 C4.75661798,15 4.27312226,14.2176875 4.60557281,13.5527864 L9.60557281,3.5527864 C10.0386903,2.68655149 11.3271768,2.88029815 11.4863939,3.83560101 L12.3471271,9 L16.5,9 C17.2772945,9 17.7574076,9.84797124 17.3574929,10.5144958 L11.3574929,20.5144958 C10.8356795,21.3841848 9.5,21.014223 9.5,20 L9.5,15 Z M7.11803399,13 L10.5,13 C11.0522847,13 11.5,13.4477153 11.5,14 L11.5,16.3896827 L14.7338096,11 L11.5,11 C11.0111608,11 10.5939707,10.646587 10.5136061,10.164399 L10.0191632,7.19774162 L7.11803399,13 Z M22,10 C22,9.44771525 22.4477153,9 23,9 C23.5522847,9 24,9.44771525 24,10 L24,14 C24,14.5522847 23.5522847,15 23,15 C22.4477153,15 22,14.5522847 22,14 L22,10 Z" id="shape"></path>
        </g>
    </g>
</svg>