<?xml version="1.0" encoding="UTF-8"?>
<svg width="24px" height="24px" viewBox="0 0 24 24" version="1.1" xmlns="http://www.w3.org/2000/svg" xmlns:xlink="http://www.w3.org/1999/xlink">
    <!-- Generator: Sketch 44.1 (41455) - http://www.bohemiancoding.com/sketch -->
    <title>Bold/SVG/battery-low</title>
    <desc>Created with Sketch.</desc>
    <defs></defs>
    <g id="Bold-Outline" stroke="none" stroke-width="1" fill="none" fill-rule="evenodd">
        <g id="battery-low" fill-rule="nonzero" fill="#000000">
            <path d="M22,10 L22,14 C22,14.5522847 22.4477153,15 23,15 C23.5522847,15 24,14.5522847 24,14 L24,10 C24,9.44771525 23.5522847,9 23,9 C22.4477153,9 22,9.44771525 22,10 Z" id="shape"></path>
            <path d="M5,6 C3.8954305,6 3,6.8954305 3,8 L3,16 C3,17.1045695 3.8954305,18 5,18 L17,18 C18.1045695,18 19,17.1045695 19,16 L19,8 C19,6.8954305 18.1045695,6 17,6 L5,6 Z M5,4 L17,4 C19.209139,4 21,5.790861 21,8 L21,16 C21,18.209139 19.209139,20 17,20 L5,20 C2.790861,20 1,18.209139 1,16 L1,8 C1,5.790861 2.790861,4 5,4 Z" id="shape"></path>
            <path d="M7,5 L7,19 C7,19.5522847 7.44771525,20 8,20 C8.55228475,20 9,19.5522847 9,19 L9,5 C9,4.44771525 8.55228475,4 8,4 C7.44771525,4 7,4.44771525 7,5 Z" id="shape"></path>
        </g>
    </g>
</svg>