<?xml version="1.0" encoding="UTF-8"?>
<svg width="24px" height="24px" viewBox="0 0 24 24" version="1.1" xmlns="http://www.w3.org/2000/svg" xmlns:xlink="http://www.w3.org/1999/xlink">
    <!-- Generator: Sketch 44.1 (41455) - http://www.bohemiancoding.com/sketch -->
    <title>Bold/SVG/bluetooth</title>
    <desc>Created with Sketch.</desc>
    <defs></defs>
    <g id="Bold-Outline" stroke="none" stroke-width="1" fill="none" fill-rule="evenodd">
        <g id="bluetooth" fill-rule="nonzero" fill="#000000">
            <path d="M11,14.1350086 L6.6400739,17.7682434 C6.21579524,18.1218053 5.58523082,18.0644781 5.23166886,17.6401995 C4.87810691,17.2159208 4.93543412,16.5853564 5.35971279,16.2317944 L10.4378951,12.0000189 L5.35971279,7.76824338 C4.93543412,7.41468142 4.87810691,6.78411701 5.23166886,6.35983834 C5.58523082,5.93555967 6.21579524,5.87823245 6.6400739,6.23179441 L11,9.8650292 L11,3.17422064 C11,2.06965114 11.8954305,1.17422064 13,1.17422064 C13.4774225,1.17422064 13.9390965,1.34500496 14.3015827,1.65570743 L18.6814128,5.40984745 C19.5200645,6.12869176 19.6171875,7.39129172 18.8983432,8.22994341 C18.7932552,8.35254612 18.6737059,8.46197082 18.5423064,8.5558276 L13.7204651,12 L18.5423064,15.4441724 C19.4411316,16.0861904 19.6493149,17.3352906 19.007297,18.2341157 C18.9134402,18.3655152 18.8040155,18.4850645 18.6814128,18.5901525 L14.3015827,22.3442926 C13.4629311,23.0631369 12.2003311,22.9660138 11.4814868,22.1273621 C11.1707843,21.7648759 11,21.3032019 11,20.8257794 L11,14.1350086 Z M13,20.8257794 L17.37983,17.0716393 L13,13.9431893 L13,20.8257794 Z M17.37983,6.92836066 L13,3.17422064 L13,10.0568107 L17.37983,6.92836066 Z" id="shape"></path>
        </g>
    </g>
</svg>