<?xml version="1.0" encoding="UTF-8"?>
<svg width="24px" height="24px" viewBox="0 0 24 24" version="1.1" xmlns="http://www.w3.org/2000/svg" xmlns:xlink="http://www.w3.org/1999/xlink">
    <!-- Generator: Sketch 44.1 (41455) - http://www.bohemiancoding.com/sketch -->
    <title>Bold/SVG/book-2</title>
    <desc>Created with Sketch.</desc>
    <defs></defs>
    <g id="Bold-Outline" stroke="none" stroke-width="1" fill="none" fill-rule="evenodd">
        <g id="book-2" fill-rule="nonzero" fill="#000000">
            <path d="M19,15 L19,3 L7,3 C5.8954305,3 5,3.8954305 5,5 L5,15.5351288 C5.58834673,15.1947886 6.27142571,15 7,15 L19,15 Z M7,1 L19,1 C20.1045695,1 21,1.8954305 21,3 L21,21 C21,22.1045695 20.1045695,23 19,23 L7,23 C4.790861,23 3,21.209139 3,19 L3,5 C3,2.790861 4.790861,1 7,1 Z M7,17 C5.8954305,17 5,17.8954305 5,19 C5,20.1045695 5.8954305,21 7,21 L19,21 L19,17 L7,17 Z M8,7 C7.44771525,7 7,6.55228475 7,6 C7,5.44771525 7.44771525,5 8,5 L16,5 C16.5522847,5 17,5.44771525 17,6 C17,6.55228475 16.5522847,7 16,7 L8,7 Z" id="shape"></path>
        </g>
    </g>
</svg>