<?xml version="1.0" encoding="UTF-8"?>
<svg width="24px" height="24px" viewBox="0 0 24 24" version="1.1" xmlns="http://www.w3.org/2000/svg" xmlns:xlink="http://www.w3.org/1999/xlink">
    <!-- Generator: Sketch 44.1 (41455) - http://www.bohemiancoding.com/sketch -->
    <title>Bold/SVG/book-open</title>
    <desc>Created with Sketch.</desc>
    <defs></defs>
    <g id="Bold-Outline" stroke="none" stroke-width="1" fill="none" fill-rule="evenodd">
        <g id="book-open" fill-rule="nonzero" fill="#000000">
            <path d="M11,5.83457635 L4.35777088,4.62689833 C4.23972302,4.60543508 4.1199832,4.59463815 4,4.59463815 C2.8954305,4.59463815 2,5.49006865 2,6.59463815 L2,16.4962709 C2,17.4628432 2.69124773,18.2911051 3.64222912,18.4640108 L11,19.8017873 L11,5.83457635 Z M13,5.83457635 L13,19.8017873 L20.3577709,18.4640108 C21.3087523,18.2911051 22,17.4628432 22,16.4962709 L22,6.59463815 C22,6.47465495 21.9892031,6.35491514 21.9677398,6.23686727 C21.7701484,5.15011458 20.7289818,4.42930693 19.6422291,4.62689833 L13,5.83457635 Z M4.71554175,2.65915851 L11.6422291,3.91855621 C11.8788038,3.96156979 12.1211962,3.96156979 12.3577709,3.91855621 L19.2844582,2.65915851 C21.4579636,2.26397571 23.5402968,3.70559101 23.9354796,5.8790964 C23.9784061,6.11519212 24,6.35467175 24,6.59463815 L24,16.4962709 C24,18.4294155 22.6175045,20.0859392 20.7155418,20.4317506 L12.7155418,21.886296 C12.2423924,21.9723232 11.7576076,21.9723232 11.2844582,21.886296 L3.28445825,20.4317506 C1.38249546,20.0859392 -5.92118946e-16,18.4294155 0,16.4962709 L0,6.59463815 C-2.96059473e-16,4.38549915 1.790861,2.59463815 4,2.59463815 C4.2399664,2.59463815 4.47944603,2.61623202 4.71554175,2.65915851 Z" id="shape"></path>
        </g>
    </g>
</svg>