<?xml version="1.0" encoding="UTF-8"?>
<svg width="24px" height="24px" viewBox="0 0 24 24" version="1.1" xmlns="http://www.w3.org/2000/svg" xmlns:xlink="http://www.w3.org/1999/xlink">
    <!-- Generator: Sketch 44.1 (41455) - http://www.bohemiancoding.com/sketch -->
    <title>Bold/SVG/box</title>
    <desc>Created with Sketch.</desc>
    <defs></defs>
    <g id="Bold-Outline" stroke="none" stroke-width="1" fill="none" fill-rule="evenodd">
        <g id="box" fill-rule="nonzero" fill="#000000">
            <path d="M13,21.381966 L19.8944272,17.9347524 C20.5719952,17.5959684 21,16.9034422 21,16.145898 L21,7.85410197 C21,7.77887458 20.9957793,7.70428835 20.9875126,7.63062603 L13,11.6184164 L13,21.381966 Z M11,21.381966 L11,11.6168239 L3.01533767,7.60654663 C3.00519203,7.68801918 3,7.77066622 3,7.85410197 L3,16.145898 C3,16.9034422 3.42800475,17.5959684 4.10557281,17.9347524 L11,21.381966 Z M19.7700387,6.00305334 L12.8944272,2.56524758 C12.3313722,2.28372009 11.6686278,2.28372009 11.1055728,2.56524758 L4.25445308,5.99080745 L12.0012777,9.88163128 L19.7700387,6.00305334 Z M13.7888544,0.776393202 L20.7888544,4.2763932 C22.1439905,4.95396126 23,6.33901373 23,7.85410197 L23,16.145898 C23,17.6609863 22.1439905,19.0460387 20.7888544,19.7236068 L13.7888544,23.2236068 C12.6627444,23.7866618 11.3372556,23.7866618 10.2111456,23.2236068 L3.21114562,19.7236068 C1.8560095,19.0460387 1,17.6609863 1,16.145898 L1,7.85410197 C1,6.33901373 1.8560095,4.95396126 3.21114562,4.2763932 L10.2111456,0.776393202 C11.3372556,0.213338221 12.6627444,0.213338221 13.7888544,0.776393202 Z" id="Combined-Shape"></path>
        </g>
    </g>
</svg>