<?xml version="1.0" encoding="UTF-8"?>
<svg width="24px" height="24px" viewBox="0 0 24 24" version="1.1" xmlns="http://www.w3.org/2000/svg" xmlns:xlink="http://www.w3.org/1999/xlink">
    <!-- Generator: Sketch 44.1 (41455) - http://www.bohemiancoding.com/sketch -->
    <title>Bold/SVG/brush</title>
    <desc>Created with Sketch.</desc>
    <defs></defs>
    <g id="Bold-Outline" stroke="none" stroke-width="1" fill="none" fill-rule="evenodd">
        <g id="brush" fill-rule="nonzero" fill="#000000">
            <path d="M8,21 L11,21 L11,18 C11,17.4477153 11.4477153,17 12,17 C12.5522847,17 13,17.4477153 13,18 L13,21 L16,21 L16,18 C16,17.4477153 16.4477153,17 17,17 C17.5522847,17 18,17.4477153 18,18 L18,21 L19,21 C19.5522847,21 20,20.5522847 20,20 L20,15 L4,15 L4,20 C4,20.5522847 4.44771525,21 5,21 L6,21 L6,18 C6,17.4477153 6.44771525,17 7,17 C7.55228475,17 8,17.4477153 8,18 L8,21 Z M22,15 L22,20 C22,21.6568542 20.6568542,23 19,23 L5,23 C3.34314575,23 2,21.6568542 2,20 L2,15 C1.44771525,15 1,14.5522847 1,14 L1,12 C1,10.3431458 2.34314575,9 4,9 L9,9 L9,4 C9,2.34314575 10.3431458,1 12,1 C13.6568542,1 15,2.34314575 15,4 L15,9 L20,9 C21.6568542,9 23,10.3431458 23,12 L23,14 C23,14.5522847 22.5522847,15 22,15 Z M21,12 C21,11.4477153 20.5522847,11 20,11 L14,11 C13.4477153,11 13,10.5522847 13,10 L13,4 C13,3.44771525 12.5522847,3 12,3 C11.4477153,3 11,3.44771525 11,4 L11,10 C11,10.5522847 10.5522847,11 10,11 L4,11 C3.44771525,11 3,11.4477153 3,12 L3,13 L21,13 L21,12 Z" id="shape"></path>
        </g>
    </g>
</svg>