<?xml version="1.0" encoding="UTF-8"?>
<svg width="24px" height="24px" viewBox="0 0 24 24" version="1.1" xmlns="http://www.w3.org/2000/svg" xmlns:xlink="http://www.w3.org/1999/xlink">
    <!-- Generator: Sketch 44.1 (41455) - http://www.bohemiancoding.com/sketch -->
    <title>Bold/SVG/bug</title>
    <desc>Created with Sketch.</desc>
    <defs></defs>
    <g id="Bold-Outline" stroke="none" stroke-width="1" fill="none" fill-rule="evenodd">
        <g id="bug" fill-rule="nonzero" fill="#000000">
            <path d="M5.02807391,17.2698828 C4.68732858,16.4129494 4.5,15.4783511 4.5,14.5 L4.5,14 L2,14 C1.44771525,14 1,13.5522847 1,13 C1,12.4477153 1.44771525,12 2,12 L4.5,12 L4.5,11.5 C4.5,10.5216489 4.68732858,9.58705064 5.02807391,8.73011719 L2.68377223,7.9486833 C2.15982892,7.77403553 1.87666893,7.20771555 2.0513167,6.68377223 C2.22596447,6.15982892 2.79228445,5.87666893 3.31622777,6.0513167 L6.03225156,6.95665797 C6.75823257,6.00452989 7.70688678,5.23132395 8.8005204,4.71473396 L7.29289322,3.20710678 C6.90236893,2.81658249 6.90236893,2.18341751 7.29289322,1.79289322 C7.68341751,1.40236893 8.31658249,1.40236893 8.70710678,1.79289322 L10.8284271,3.91421356 C10.8774887,3.96327511 10.9203866,4.01616622 10.957121,4.07192469 C11.2979528,4.02450987 11.6461141,4 12,4 C12.3923351,4 12.7776342,4.03012513 13.1537102,4.08818845 C13.1926906,4.02643663 13.2390849,3.96802187 13.2928932,3.91421356 L15.4142136,1.79289322 C15.8047379,1.40236893 16.4379028,1.40236893 16.8284271,1.79289322 C17.2189514,2.18341751 17.2189514,2.81658249 16.8284271,3.20710678 L15.2814622,4.75407174 C16.3405417,5.27020732 17.2599689,6.02840119 17.9677484,6.95665797 L20.6837722,6.0513167 C21.2077156,5.87666893 21.7740355,6.15982892 21.9486833,6.68377223 C22.1233311,7.20771555 21.8401711,7.77403553 21.3162278,7.9486833 L18.9719261,8.73011719 C19.3126714,9.58705064 19.5,10.5216489 19.5,11.5 L19.5,12 L22,12 C22.5522847,12 23,12.4477153 23,13 C23,13.5522847 22.5522847,14 22,14 L19.5,14 L19.5,14.5 C19.5,15.4783511 19.3126714,16.4129494 18.9719261,17.2698828 L21.3162278,18.0513167 C21.8401711,18.2259645 22.1233311,18.7922844 21.9486833,19.3162278 C21.7740355,19.8401711 21.2077156,20.1233311 20.6837722,19.9486833 L17.9677484,19.043342 C16.59757,20.8403385 14.4342117,22 12,22 C9.56578826,22 7.40242997,20.8403385 6.03225156,19.043342 L3.31622777,19.9486833 C2.79228445,20.1233311 2.22596447,19.8401711 2.0513167,19.3162278 C1.87666893,18.7922844 2.15982892,18.2259645 2.68377223,18.0513167 L5.02807391,17.2698828 Z M12,6 C8.96243388,6 6.5,8.46243388 6.5,11.5 L6.5,14.5 C6.5,17.5375661 8.96243388,20 12,20 C15.0375661,20 17.5,17.5375661 17.5,14.5 L17.5,11.5 C17.5,8.46243388 15.0375661,6 12,6 Z M10,16 C9.44771525,16 9,15.5522847 9,15 C9,14.4477153 9.44771525,14 10,14 L14,14 C14.5522847,14 15,14.4477153 15,15 C15,15.5522847 14.5522847,16 14,16 L10,16 Z M10,12 C9.44771525,12 9,11.5522847 9,11 C9,10.4477153 9.44771525,10 10,10 L14,10 C14.5522847,10 15,10.4477153 15,11 C15,11.5522847 14.5522847,12 14,12 L10,12 Z" id="shape"></path>
        </g>
    </g>
</svg>