<?xml version="1.0" encoding="UTF-8"?>
<svg width="24px" height="24px" viewBox="0 0 24 24" version="1.1" xmlns="http://www.w3.org/2000/svg" xmlns:xlink="http://www.w3.org/1999/xlink">
    <!-- Generator: Sketch 44.1 (41455) - http://www.bohemiancoding.com/sketch -->
    <title>Bold/SVG/bus</title>
    <desc>Created with Sketch.</desc>
    <defs></defs>
    <g id="Bold-Outline" stroke="none" stroke-width="1" fill="none" fill-rule="evenodd">
        <g id="bus" fill-rule="nonzero" fill="#000000">
            <path d="M20.3292943,19 C19.9174579,20.1651924 18.8062188,21 17.5,21 C16.1937812,21 15.0825421,20.1651924 14.6707057,19 L9.32929429,19 C8.91745788,20.1651924 7.80621883,21 6.5,21 C5.19378117,21 4.08254212,20.1651924 3.67070571,19 L2,19 C0.8954305,19 6.66133815e-16,18.1045695 0,17 L5.55111512e-16,7 C3.88578059e-16,5.34314575 1.34314575,4 3,4 L18.763932,4 C19.9002482,4 20.9390376,4.64200713 21.4472136,5.65835921 L23.5777088,9.91934955 C23.8554196,10.4747713 24,11.0872236 24,11.7082039 L24,17 C24,18.1045695 23.1045695,19 22,19 L20.3292943,19 Z M20.3292943,17 L22,17 L22,14 L18,14 C16.3431458,14 15,12.6568542 15,11 L2,11 L2,17 L3.67070571,17 C4.08254212,15.8348076 5.19378117,15 6.5,15 C7.80621883,15 8.91745788,15.8348076 9.32929429,17 L14.6707057,17 C15.0825421,15.8348076 16.1937812,15 17.5,15 C18.8062188,15 19.9174579,15.8348076 20.3292943,17 Z M2,9 L5,9 L5,6 L3,6 C2.44771525,6 2,6.44771525 2,7 L2,9 Z M22,12 L22,11.7082039 C22,11.3977137 21.9277098,11.0914876 21.7888544,10.8137767 L19.6583592,6.5527864 C19.4889672,6.21400238 19.1427041,6 18.763932,6 L17,6 L17,11 C17,11.5522847 17.4477153,12 18,12 L22,12 Z M15,6 L12,6 L12,9 L15,9 L15,6 Z M10,6 L7,6 L7,9 L10,9 L10,6 Z M17.5,19 C18.0522847,19 18.5,18.5522847 18.5,18 C18.5,17.4477153 18.0522847,17 17.5,17 C16.9477153,17 16.5,17.4477153 16.5,18 C16.5,18.5522847 16.9477153,19 17.5,19 Z M6.5,19 C7.05228475,19 7.5,18.5522847 7.5,18 C7.5,17.4477153 7.05228475,17 6.5,17 C5.94771525,17 5.5,17.4477153 5.5,18 C5.5,18.5522847 5.94771525,19 6.5,19 Z" id="shape"></path>
        </g>
    </g>
</svg>