<?xml version="1.0" encoding="UTF-8"?>
<svg width="24px" height="24px" viewBox="0 0 24 24" version="1.1" xmlns="http://www.w3.org/2000/svg" xmlns:xlink="http://www.w3.org/1999/xlink">
    <!-- Generator: Sketch 44.1 (41455) - http://www.bohemiancoding.com/sketch -->
    <title>Bold/SVG/calender-add</title>
    <desc>Created with Sketch.</desc>
    <defs></defs>
    <g id="Bold-Outline" stroke="none" stroke-width="1" fill="none" fill-rule="evenodd">
        <g id="calender-add" fill-rule="nonzero" fill="#000000">
            <path d="M15,6 L9,6 L9,7 C9,7.55228475 8.55228475,8 8,8 C7.44771525,8 7,7.55228475 7,7 L7,6 L6,6 C4.8954305,6 4,6.8954305 4,8 L4,9 L20,9 L20,8 C20,6.8954305 19.1045695,6 18,6 L17,6 L17,7 C17,7.55228475 16.5522847,8 16,8 C15.4477153,8 15,7.55228475 15,7 L15,6 Z M17,4 L18,4 C20.209139,4 22,5.790861 22,8 L22,12 C22,12.5522847 21.5522847,13 21,13 C20.4477153,13 20,12.5522847 20,12 L20,11 L4,11 L4,18 C4,19.1045695 4.8954305,20 6,20 L13,20 C13.5522847,20 14,20.4477153 14,21 C14,21.5522847 13.5522847,22 13,22 L6,22 C3.790861,22 2,20.209139 2,18 L2,8 C2,5.790861 3.790861,4 6,4 L7,4 L7,3 C7,2.44771525 7.44771525,2 8,2 C8.55228475,2 9,2.44771525 9,3 L9,4 L15,4 L15,3 C15,2.44771525 15.4477153,2 16,2 C16.5522847,2 17,2.44771525 17,3 L17,4 Z M20,19 L20,21 C20,21.5522847 19.5522847,22 19,22 C18.4477153,22 18,21.5522847 18,21 L18,19 L16,19 C15.4477153,19 15,18.5522847 15,18 C15,17.4477153 15.4477153,17 16,17 L18,17 L18,15 C18,14.4477153 18.4477153,14 19,14 C19.5522847,14 20,14.4477153 20,15 L20,17 L22,17 C22.5522847,17 23,17.4477153 23,18 C23,18.5522847 22.5522847,19 22,19 L20,19 Z" id="shape"></path>
        </g>
    </g>
</svg>