<?xml version="1.0" encoding="UTF-8"?>
<svg width="24px" height="24px" viewBox="0 0 24 24" version="1.1" xmlns="http://www.w3.org/2000/svg" xmlns:xlink="http://www.w3.org/1999/xlink">
    <!-- Generator: Sketch 44.1 (41455) - http://www.bohemiancoding.com/sketch -->
    <title>Bold/SVG/camera-off</title>
    <desc>Created with Sketch.</desc>
    <defs></defs>
    <g id="Bold-Outline" stroke="none" stroke-width="1" fill="none" fill-rule="evenodd">
        <g id="camera-off" fill-rule="nonzero" fill="#000000">
            <path d="M20.2235995,5.19061406 C21.8342425,5.70755084 23,7.2176368 23,9 L23,18 C23,20.209139 21.209139,22 19,22 L5,22 C4.5331775,22 4.07721823,21.9195338 3.6485361,21.7656775 L2.80761184,22.6066017 C2.41708755,22.997126 1.78392257,22.997126 1.39339828,22.6066017 C1.00287399,22.2160774 1.00287399,21.5829124 1.39339828,21.1923882 L2.7164794,19.869307 C2.72637084,19.8589803 2.73645434,19.8488991 2.74672081,19.8390656 L7.99493054,14.5908559 C8.00341694,14.58205 8.01208904,14.5733763 8.02094607,14.5648404 L13.5648403,9.0209461 C13.5733763,9.01208904 13.58205,9.00341694 13.5908556,8.99493082 L20.4852814,2.10050506 C20.8758057,1.70998077 21.5089706,1.70998077 21.8994949,2.10050506 C22.2900192,2.49102936 22.2900192,3.12419433 21.8994949,3.51471863 L20.2235995,5.19061406 Z M5.41421356,20 L19,20 C20.1045695,20 21,19.1045695 21,18 L21,9 C21,7.8954305 20.1045695,7 19,7 L18.4142136,7 L15.7368345,9.6773791 C16.5371868,10.5767381 17,11.7498624 17,13 C17,15.7614237 14.7614237,18 12,18 C10.7498624,18 9.57673806,17.5371868 8.6773791,16.7368345 L5.41421356,20 Z M10.0955897,15.3186239 C10.6225257,15.7521008 11.2899642,16 12,16 C13.6568542,16 15,14.6568542 15,13 C15,12.2899642 14.7521008,11.6225257 14.3186239,11.0955897 L10.0955897,15.3186239 Z M7.27924078,5 L7.82339262,3.36754447 C8.09562072,2.55086019 8.8598984,2 9.72075922,2 L14.2792408,2 C14.7013307,2 15.1088249,2.13303829 15.4472006,2.37646377 C15.786568,2.62060269 16.0427392,2.96593999 16.1766074,3.36754447 C16.3512551,3.89148779 16.0680952,4.45780776 15.5441518,4.63245553 C15.0202085,4.8071033 14.4538886,4.52394332 14.2792408,4 L9.72075922,4 L8.9486833,6.31622777 C8.81256925,6.72456991 8.43043041,7 8,7 L5,7 C3.8954305,7 3,7.8954305 3,9 L3,16.5 C3,17.0522847 2.55228475,17.5 2,17.5 C1.44771525,17.5 1,17.0522847 1,16.5 L1,9 C1,6.790861 2.790861,5 5,5 L7.27924078,5 Z" id="shape"></path>
        </g>
    </g>
</svg>