<?xml version="1.0" encoding="UTF-8"?>
<svg width="24px" height="24px" viewBox="0 0 24 24" version="1.1" xmlns="http://www.w3.org/2000/svg" xmlns:xlink="http://www.w3.org/1999/xlink">
    <!-- Generator: Sketch 44.1 (41455) - http://www.bohemiancoding.com/sketch -->
    <title>Bold/SVG/camera-switch</title>
    <desc>Created with Sketch.</desc>
    <defs></defs>
    <g id="Bold-Outline" stroke="none" stroke-width="1" fill="none" fill-rule="evenodd">
        <g id="camera-switch" fill-rule="nonzero" fill="#000000">
            <path d="M5.41421356,19 L18,19 C19.1045695,19 20,18.1045695 20,17 L20,13 C20,12.4477153 20.4477153,12 21,12 C21.5522847,12 22,12.4477153 22,13 L22,17 C22,19.209139 20.209139,21 18,21 L5.41421356,21 L6.53553391,22.1213203 C6.9260582,22.5118446 6.9260582,23.1450096 6.53553391,23.5355339 C6.14500961,23.9260582 5.51184464,23.9260582 5.12132034,23.5355339 L3,21.4142136 C2.21895142,20.633165 2.21895142,19.366835 3,18.5857864 L5.12132034,16.4644661 C5.51184464,16.0739418 6.14500961,16.0739418 6.53553391,16.4644661 C6.9260582,16.8549904 6.9260582,17.4881554 6.53553391,17.8786797 L5.41421356,19 Z M18.5857864,5 L6,5 C4.8954305,5 4,5.8954305 4,7 L4,11 C4,11.5522847 3.55228475,12 3,12 C2.44771525,12 2,11.5522847 2,11 L2,7 C2,4.790861 3.790861,3 6,3 L18.5857864,3 L17.4644661,1.87867966 C17.0739418,1.48815536 17.0739418,0.854990386 17.4644661,0.464466094 C17.8549904,0.0739418023 18.4881554,0.0739418023 18.8786797,0.464466094 L21,2.58578644 C21.7810486,3.36683502 21.7810486,4.63316498 21,5.41421356 L18.8786797,7.53553391 C18.4881554,7.9260582 17.8549904,7.9260582 17.4644661,7.53553391 C17.0739418,7.14500961 17.0739418,6.51184464 17.4644661,6.12132034 L18.5857864,5 Z M12,16 C9.790861,16 8,14.209139 8,12 C8,9.790861 9.790861,8 12,8 C14.209139,8 16,9.790861 16,12 C16,14.209139 14.209139,16 12,16 Z M12,14 C13.1045695,14 14,13.1045695 14,12 C14,10.8954305 13.1045695,10 12,10 C10.8954305,10 10,10.8954305 10,12 C10,13.1045695 10.8954305,14 12,14 Z" id="shape"></path>
        </g>
    </g>
</svg>