<?xml version="1.0" encoding="UTF-8"?>
<svg width="24px" height="24px" viewBox="0 0 24 24" version="1.1" xmlns="http://www.w3.org/2000/svg" xmlns:xlink="http://www.w3.org/1999/xlink">
    <!-- Generator: Sketch 44.1 (41455) - http://www.bohemiancoding.com/sketch -->
    <title>Bold/SVG/checkbox</title>
    <desc>Created with Sketch.</desc>
    <defs></defs>
    <g id="Bold-Outline" stroke="none" stroke-width="1" fill="none" fill-rule="evenodd">
        <g id="checkbox" fill-rule="nonzero" fill="#000000">
            <path d="M20,13.25 C20,12.6977153 20.4477153,12.25 21,12.25 C21.5522847,12.25 22,12.6977153 22,13.25 L22,18 C22,20.209139 20.209139,22 18,22 L6,22 C3.790861,22 2,20.209139 2,18 L2,6 C2,3.790861 3.790861,2 6,2 L16.75,2 C17.3022847,2 17.75,2.44771525 17.75,3 C17.75,3.55228475 17.3022847,4 16.75,4 L6,4 C4.8954305,4 4,4.8954305 4,6 L4,18 C4,19.1045695 4.8954305,20 6,20 L18,20 C19.1045695,20 20,19.1045695 20,18 L20,13.25 Z M11.5961941,14.0104076 L20.2175144,5.3890873 C20.6080387,4.998563 21.2412037,4.998563 21.631728,5.3890873 C22.0222523,5.77961159 22.0222523,6.41277657 21.631728,6.80330086 L12.3033009,16.131728 C11.9127766,16.5222523 11.2796116,16.5222523 10.8890873,16.131728 L6.64644661,11.8890873 C6.25592232,11.498563 6.25592232,10.865398 6.64644661,10.4748737 C7.0369709,10.0843494 7.67013588,10.0843494 8.06066017,10.4748737 L11.5961941,14.0104076 Z" id="shape"></path>
        </g>
    </g>
</svg>