<?xml version="1.0" encoding="UTF-8"?>
<svg width="24px" height="24px" viewBox="0 0 24 24" version="1.1" xmlns="http://www.w3.org/2000/svg" xmlns:xlink="http://www.w3.org/1999/xlink">
    <!-- Generator: Sketch 44.1 (41455) - http://www.bohemiancoding.com/sketch -->
    <title>Bold/SVG/chevrons-left</title>
    <desc>Created with Sketch.</desc>
    <defs></defs>
    <g id="Bold-Outline" stroke="none" stroke-width="1" fill="none" fill-rule="evenodd">
        <g id="chevrons-left" fill-rule="nonzero" fill="#000000">
            <path d="M6.02101273,12.28777 C6.08351721,13.030316 6.42107152,13.7508664 7.02345298,14.283377 L14.3376811,20.74922 C14.7514649,21.1150087 15.3834333,21.0761009 15.749222,20.662317 C16.1150107,20.2485331 16.0761028,19.6165647 15.6623189,19.250776 L8.34809088,12.784933 C7.93430699,12.4191444 7.89539917,11.787176 8.26118783,11.3733921 C8.28714161,11.3440329 8.31479867,11.3162246 8.34401591,11.2901112 L15.6663939,4.74559789 C16.0781773,4.3775587 16.1136391,3.74538755 15.7455999,3.33360412 C15.3775607,2.92182069 14.7453895,2.88635898 14.3336061,3.25439818 L7.01122808,9.79891146 C6.92357634,9.87725185 6.84060517,9.96067663 6.76274382,10.0487542 C6.36283349,10.5011369 6.12416322,11.0404491 6.0424032,11.5963631 C6.01514034,11.7198126 6,11.8563701 6,12 C6,12.1000336 6.00734409,12.1966366 6.02101273,12.28777 L6.02101273,12.28777 Z" id="shape"></path>
        </g>
    </g>
</svg>