<?xml version="1.0" encoding="UTF-8"?>
<svg width="24px" height="24px" viewBox="0 0 24 24" version="1.1" xmlns="http://www.w3.org/2000/svg" xmlns:xlink="http://www.w3.org/1999/xlink">
    <!-- Generator: Sketch 44.1 (41455) - http://www.bohemiancoding.com/sketch -->
    <title>Bold/SVG/city</title>
    <desc>Created with Sketch.</desc>
    <defs></defs>
    <g id="Bold-Outline" stroke="none" stroke-width="1" fill="none" fill-rule="evenodd">
        <g id="city" fill-rule="nonzero" fill="#000000">
            <path d="M16,10.1707057 L16,9.00024414 C16,8.44782456 15.5521754,8 14.9997559,8 C14.4474711,8 13.9997559,7.55228475 13.9997559,7 L13.9997559,5 C13.9997559,4.44771525 13.5520406,4 12.9997559,4 L11,4 C10.4477153,4 10,4.44771525 10,5 L10,7 C10,7.55228475 9.55228475,8 9,8 C8.44771525,8 8,8.44771525 8,9 L8,13.1707057 C9.16519237,13.5825421 10,14.6937812 10,16 L10,22 L14,22 L14,13 C14,11.6937812 14.8348076,10.5825421 16,10.1707057 Z M18,10 L20,10 C21.6568542,10 23,11.3431458 23,13 L23,22 C23,23.1045695 22.1045695,24 21,24 L15.25,24 L8.75,24 L3,24 C1.8954305,24 1,23.1045695 1,22 L1,16 C1,14.3431458 2.34314575,13 4,13 L6,13 L6,9 C6,7.69378117 6.83480763,6.58254212 8,6.17070571 L8,5 C8,3.34314575 9.34314575,2 11,2 L11,1 C11,0.44771525 11.4477153,9.81054793e-16 12,0 C12.5522847,-9.81054793e-16 13,0.44771525 13,1 L13,2.00000001 C14.6567421,2.00013195 15.9997559,3.34322713 15.9997559,5 L15.9997559,6.17069084 C17.1650856,6.58253778 18,7.6938886 18,9.00024414 L18,10 Z M8,16 C8,15.4477153 7.55228475,15 7,15 L4,15 C3.44771525,15 3,15.4477153 3,16 L3,22 L8,22 L8,16 Z M4.5,21 C3.94771525,21 3.5,20.5522847 3.5,20 C3.5,19.4477153 3.94771525,19 4.5,19 L6.5,19 C7.05228475,19 7.5,19.4477153 7.5,20 C7.5,20.5522847 7.05228475,21 6.5,21 L4.5,21 Z M4.5,18 C3.94771525,18 3.5,17.5522847 3.5,17 C3.5,16.4477153 3.94771525,16 4.5,16 L6.5,16 C7.05228475,16 7.5,16.4477153 7.5,17 C7.5,17.5522847 7.05228475,18 6.5,18 L4.5,18 Z M16,22 L21,22 L21,13 C21,12.4477153 20.5522847,12 20,12 L17,12 C16.4477153,12 16,12.4477153 16,13 L16,22 Z M17.5,18 C16.9477153,18 16.5,17.5522847 16.5,17 C16.5,16.4477153 16.9477153,16 17.5,16 L19.5,16 C20.0522847,16 20.5,16.4477153 20.5,17 C20.5,17.5522847 20.0522847,18 19.5,18 L17.5,18 Z M17.5,21 C16.9477153,21 16.5,20.5522847 16.5,20 C16.5,19.4477153 16.9477153,19 17.5,19 L19.5,19 C20.0522847,19 20.5,19.4477153 20.5,20 C20.5,20.5522847 20.0522847,21 19.5,21 L17.5,21 Z M17.5,15 C16.9477153,15 16.5,14.5522847 16.5,14 C16.5,13.4477153 16.9477153,13 17.5,13 L19.5,13 C20.0522847,13 20.5,13.4477153 20.5,14 C20.5,14.5522847 20.0522847,15 19.5,15 L17.5,15 Z" id="Combined-Shape"></path>
        </g>
    </g>
</svg>