<?xml version="1.0" encoding="UTF-8"?>
<svg width="24px" height="24px" viewBox="0 0 24 24" version="1.1" xmlns="http://www.w3.org/2000/svg" xmlns:xlink="http://www.w3.org/1999/xlink">
    <!-- Generator: Sketch 44.1 (41455) - http://www.bohemiancoding.com/sketch -->
    <title>Bold/SVG/cloth</title>
    <desc>Created with Sketch.</desc>
    <defs></defs>
    <g id="Bold-Outline" stroke="none" stroke-width="1" fill="none" fill-rule="evenodd">
        <g id="cloth" fill-rule="nonzero" fill="#000000">
            <path d="M4.5,11.5 L4.5,9.5 C4.5,8.94771525 4.94771525,8.5 5.5,8.5 C6.05228475,8.5 6.5,8.94771525 6.5,9.5 L6.5,19.5 C6.5,20.0522847 6.94771525,20.5 7.5,20.5 L16.5,20.5 C17.0522847,20.5 17.5,20.0522847 17.5,19.5 L17.5,9.5 C17.5,8.94771525 17.9477153,8.5 18.5,8.5 C19.0522847,8.5 19.5,8.94771525 19.5,9.5 L19.5,11.5 L20,11.5 C20.5522847,11.5 21,11.0522847 21,10.5 L21,5.5 C21,4.3954305 20.1045695,3.5 19,3.5 L16.8999819,3.5 C16.4367116,5.78224032 14.4189579,7.5 12,7.5 C9.58104209,7.5 7.56328845,5.78224032 7.10001812,3.5 L5,3.5 C3.8954305,3.5 3,4.3954305 3,5.5 L3,10.5 C3,11.0522847 3.44771525,11.5 4,11.5 L4.5,11.5 Z M4.5,13.5 L4,13.5 C2.34314575,13.5 1,12.1568542 1,10.5 L1,5.5 C1,3.290861 2.790861,1.5 5,1.5 L8,1.5 C8.55228475,1.5 9,1.94771525 9,2.5 C9,4.15685425 10.3431458,5.5 12,5.5 C13.6568542,5.5 15,4.15685425 15,2.5 C15,1.94771525 15.4477153,1.5 16,1.5 L19,1.5 C21.209139,1.5 23,3.290861 23,5.5 L23,10.5 C23,12.1568542 21.6568542,13.5 20,13.5 L19.5,13.5 L19.5,19.5 C19.5,21.1568542 18.1568542,22.5 16.5,22.5 L7.5,22.5 C5.84314575,22.5 4.5,21.1568542 4.5,19.5 L4.5,13.5 Z" id="Combined-Shape"></path>
        </g>
    </g>
</svg>