<?xml version="1.0" encoding="UTF-8"?>
<svg width="24px" height="24px" viewBox="0 0 24 24" version="1.1" xmlns="http://www.w3.org/2000/svg" xmlns:xlink="http://www.w3.org/1999/xlink">
    <!-- Generator: Sketch 44.1 (41455) - http://www.bohemiancoding.com/sketch -->
    <title>Bold/SVG/cloud-off</title>
    <desc>Created with Sketch.</desc>
    <defs></defs>
    <g id="Bold-Outline" stroke="none" stroke-width="1" fill="none" fill-rule="evenodd">
        <g id="cloud-off" fill-rule="nonzero" fill="#000000">
            <path d="M17.5306955,7.88351811 C17.6658799,8.24662487 17.7727549,8.62032612 17.8501498,9.00184073 C17.9000242,9.00061435 17.9499771,9 18,9 C21.3137085,9 24,11.6862915 24,15 C24,18.3137085 21.3137085,21 18,21 L4.41421356,21 L3.51471863,21.8994949 C3.12419433,22.2900192 2.49102936,22.2900192 2.10050506,21.8994949 C1.70998077,21.5089706 1.70998077,20.8758057 2.10050506,20.4852814 L20.4852814,2.10050506 C20.8758057,1.70998077 21.5089706,1.70998077 21.8994949,2.10050506 C22.2900192,2.49102936 22.2900192,3.12419433 21.8994949,3.51471863 L17.5306955,7.88351811 Z M6.41421356,19 L18,19 C20.209139,19 22,17.209139 22,15 C22,12.790861 20.209139,11 18,11 C17.7247737,11 17.4537222,11.0276481 17.1893791,11.0819828 C16.5930682,11.204552 16.0265197,10.7703558 15.9898575,10.1626834 C15.9764431,9.9403416 15.9497697,9.72048998 15.91022,9.50399356 L6.41421356,19 Z M0,16 C0,13.9518978 1.24035225,12.1589024 3.05272954,11.3931862 C3.01769289,11.0983463 3,10.8002365 3,10.5 C3,6.35786438 6.35786438,3 10.5,3 C11.7019416,3 12.8653382,3.28374651 13.9133281,3.82019115 C14.4049484,4.07184154 14.5994824,4.67438149 14.3478321,5.1660018 C14.0961817,5.6576221 13.4936417,5.85215615 13.0020214,5.60050576 C12.2344954,5.20762487 11.3832072,5 10.5,5 C7.46243388,5 5,7.46243388 5,10.5 C5,10.956553 5.05541426,11.4049835 5.16384832,11.8388139 C5.301864,12.3909964 4.95182052,12.9468618 4.39421081,13.0609901 C3.01051024,13.344198 2,14.5687042 2,16 C2,16.3105975 2.04687542,16.6136802 2.13789359,16.9026502 C2.30381338,17.4294225 2.01128462,17.9909604 1.48451231,18.1568802 C0.95774,18.3228 0.396202099,18.0302712 0.230282304,17.5034989 C0.0782082887,17.020685 0,16.5150133 0,16 Z" id="shape"></path>
        </g>
    </g>
</svg>