<?xml version="1.0" encoding="UTF-8"?>
<svg width="24px" height="24px" viewBox="0 0 24 24" version="1.1" xmlns="http://www.w3.org/2000/svg" xmlns:xlink="http://www.w3.org/1999/xlink">
    <!-- Generator: Sketch 44.1 (41455) - http://www.bohemiancoding.com/sketch -->
    <title>Bold/SVG/code</title>
    <desc>Created with Sketch.</desc>
    <defs></defs>
    <g id="Bold-Outline" stroke="none" stroke-width="1" fill="none" fill-rule="evenodd">
        <g id="code" fill-rule="nonzero" fill="#000000">
            <path d="M6.70710678,7.75735931 L2.46446609,12 L6.70710678,16.2426407 C7.09763107,16.633165 7.09763107,17.26633 6.70710678,17.6568542 C6.31658249,18.0473785 5.68341751,18.0473785 5.29289322,17.6568542 L0.343145751,12.7071068 C-0.0473785412,12.3165825 -0.0473785412,11.6834175 0.343145751,11.2928932 L5.29289322,6.34314575 C5.68341751,5.95262146 6.31658249,5.95262146 6.70710678,6.34314575 C7.09763107,6.73367004 7.09763107,7.36683502 6.70710678,7.75735931 Z M17.2928932,16.2426407 L21.5355339,12 L17.2928932,7.75735931 C16.9023689,7.36683502 16.9023689,6.73367004 17.2928932,6.34314575 C17.6834175,5.95262146 18.3165825,5.95262146 18.7071068,6.34314575 L23.6568542,11.2928932 C24.0473785,11.6834175 24.0473785,12.3165825 23.6568542,12.7071068 L18.7071068,17.6568542 C18.3165825,18.0473785 17.6834175,18.0473785 17.2928932,17.6568542 C16.9023689,17.26633 16.9023689,16.633165 17.2928932,16.2426407 Z M13.0298575,3.75746437 C13.1638062,3.22166947 13.7067407,2.89590877 14.2425356,3.0298575 C14.7783305,3.16380623 15.1040912,3.70674072 14.9701425,4.24253563 L10.9701425,20.2425356 C10.8361938,20.7783305 10.2932593,21.1040912 9.75746437,20.9701425 C9.22166947,20.8361938 8.89590877,20.2932593 9.0298575,19.7574644 L13.0298575,3.75746437 Z" id="shape"></path>
        </g>
    </g>
</svg>