<?xml version="1.0" encoding="UTF-8"?>
<svg width="24px" height="24px" viewBox="0 0 24 24" version="1.1" xmlns="http://www.w3.org/2000/svg" xmlns:xlink="http://www.w3.org/1999/xlink">
    <!-- Generator: Sketch 44.1 (41455) - http://www.bohemiancoding.com/sketch -->
    <title>Bold/SVG/coffee</title>
    <desc>Created with Sketch.</desc>
    <defs></defs>
    <g id="Bold-Outline" stroke="none" stroke-width="1" fill="none" fill-rule="evenodd">
        <g id="coffee" fill-rule="nonzero" fill="#000000">
            <path d="M4,8.5 L4,18.5 C4,19.6045695 4.8954305,20.5 6,20.5 L15,20.5 C16.1045695,20.5 17,19.6045695 17,18.5 L17,8.5 L4,8.5 Z M19,9 L21,9 C22.0800505,9 23,9.81773288 23,10.8888889 L23,15.3333333 C23,17.3863289 21.18462,19 19,19 L18.9690531,19 C18.7230041,20.9731558 17.0398088,22.5 15,22.5 L6,22.5 C3.790861,22.5 2,20.709139 2,18.5 L2,8.5 C2,7.3954305 2.8954305,6.5 4,6.5 L17,6.5 C18.1045695,6.5 19,7.3954305 19,8.5 L19,9 Z M19,11 L19,17 C20.1290885,17 21,16.2258564 21,15.3333333 L21,11 L19,11 Z M11.2820996,1.80385416 C12.2102941,0.846653639 13.6460948,2.23894531 12.7179004,3.19614584 L10.7179004,5.25864584 C9.78970595,6.21584636 8.35390516,4.82355469 9.28209961,3.86635416 L11.2820996,1.80385416 Z M16.2820996,1.80385416 C17.2102941,0.846653639 18.6460948,2.23894531 17.7179004,3.19614584 L15.7179004,5.25864584 C14.7897059,6.21584636 13.3539052,4.82355469 14.2820996,3.86635416 L16.2820996,1.80385416 Z M6.28209961,1.80385416 C7.21029405,0.846653639 8.64609484,2.23894531 7.71790039,3.19614584 L5.71790039,5.25864584 C4.78970595,6.21584636 3.35390516,4.82355469 4.28209961,3.86635416 L6.28209961,1.80385416 Z" id="shape"></path>
        </g>
    </g>
</svg>