<?xml version="1.0" encoding="UTF-8"?>
<svg width="24px" height="24px" viewBox="0 0 24 24" version="1.1" xmlns="http://www.w3.org/2000/svg" xmlns:xlink="http://www.w3.org/1999/xlink">
    <!-- Generator: Sketch 44.1 (41455) - http://www.bohemiancoding.com/sketch -->
    <title>Bold/SVG/contact</title>
    <desc>Created with Sketch.</desc>
    <defs></defs>
    <g id="Bold-Outline" stroke="none" stroke-width="1" fill="none" fill-rule="evenodd">
        <g id="contact" fill-rule="nonzero" fill="#000000">
            <path d="M2,13 L1,13 C0.44771525,13 0,12.5522847 0,12 C0,11.4477153 0.44771525,11 1,11 L2,11 L2,8 L1,8 C0.44771525,8 0,7.55228475 0,7 C0,6.44771525 0.44771525,6 1,6 L2,6 L2,5 C2,2.790861 3.790861,1 6,1 L19,1 C21.209139,1 23,2.790861 23,5 L23,19 C23,21.209139 21.209139,23 19,23 L6,23 C3.790861,23 2,21.209139 2,19 L2,18 L1,18 C0.44771525,18 0,17.5522847 0,17 C0,16.4477153 0.44771525,16 1,16 L2,16 L2,13 Z M4,13 L4,16 L5,16 C5.55228475,16 6,16.4477153 6,17 C6,17.5522847 5.55228475,18 5,18 L4,18 L4,19 C4,20.1045695 4.8954305,21 6,21 L19,21 C20.1045695,21 21,20.1045695 21,19 L21,5 C21,3.8954305 20.1045695,3 19,3 L6,3 C4.8954305,3 4,3.8954305 4,5 L4,6 L5,6 C5.55228475,6 6,6.44771525 6,7 C6,7.55228475 5.55228475,8 5,8 L4,8 L4,11 L5,11 C5.55228475,11 6,11.4477153 6,12 C6,12.5522847 5.55228475,13 5,13 L4,13 Z M13.5,12.5 C11.290861,12.5 9.5,10.709139 9.5,8.5 C9.5,6.290861 11.290861,4.5 13.5,4.5 C15.709139,4.5 17.5,6.290861 17.5,8.5 C17.5,10.709139 15.709139,12.5 13.5,12.5 Z M13.5,10.5 C14.6045695,10.5 15.5,9.6045695 15.5,8.5 C15.5,7.3954305 14.6045695,6.5 13.5,6.5 C12.3954305,6.5 11.5,7.3954305 11.5,8.5 C11.5,9.6045695 12.3954305,10.5 13.5,10.5 Z M8,17.5 L8,16.5 C8,14.8431458 9.34314575,13.5 11,13.5 L16,13.5 C17.6568542,13.5 19,14.8431458 19,16.5 L19,17.5 C19,18.6045695 18.1045695,19.5 17,19.5 L10,19.5 C8.8954305,19.5 8,18.6045695 8,17.5 Z M10,17.5 L17,17.5 L17,16.5 C17,15.9477153 16.5522847,15.5 16,15.5 L11,15.5 C10.4477153,15.5 10,15.9477153 10,16.5 L10,17.5 Z" id="Combined-Shape"></path>
        </g>
    </g>
</svg>