<?xml version="1.0" encoding="UTF-8"?>
<svg width="24px" height="24px" viewBox="0 0 24 24" version="1.1" xmlns="http://www.w3.org/2000/svg" xmlns:xlink="http://www.w3.org/1999/xlink">
    <!-- Generator: Sketch 44.1 (41455) - http://www.bohemiancoding.com/sketch -->
    <title>Bold/SVG/copy</title>
    <desc>Created with Sketch.</desc>
    <defs></defs>
    <g id="Bold-Outline" stroke="none" stroke-width="1" fill="none" fill-rule="evenodd">
        <g id="copy" fill-rule="nonzero" fill="#000000">
            <path d="M10.5,3.5 C9.3954305,3.5 8.5,4.3954305 8.5,5.5 L8.5,13.5 C8.5,14.6045695 9.3954305,15.5 10.5,15.5 L18.5,15.5 C19.6045695,15.5 20.5,14.6045695 20.5,13.5 L20.5,5.5 C20.5,4.3954305 19.6045695,3.5 18.5,3.5 L10.5,3.5 Z M17.5,17.5 L17.5,18.5 C17.5,20.709139 15.709139,22.5 13.5,22.5 L5.5,22.5 C3.290861,22.5 1.5,20.709139 1.5,18.5 L1.5,10.5 C1.5,8.290861 3.290861,6.5 5.5,6.5 L6.5,6.5 L6.5,5.5 C6.5,3.290861 8.290861,1.5 10.5,1.5 L18.5,1.5 C20.709139,1.5 22.5,3.290861 22.5,5.5 L22.5,13.5 C22.5,15.709139 20.709139,17.5 18.5,17.5 L17.5,17.5 Z M15.5,17.5 L10.5,17.5 C8.290861,17.5 6.5,15.709139 6.5,13.5 L6.5,8.5 L5.5,8.5 C4.3954305,8.5 3.5,9.3954305 3.5,10.5 L3.5,18.5 C3.5,19.6045695 4.3954305,20.5 5.5,20.5 L13.5,20.5 C14.6045695,20.5 15.5,19.6045695 15.5,18.5 L15.5,17.5 Z" id="shape"></path>
        </g>
    </g>
</svg>