<?xml version="1.0" encoding="UTF-8"?>
<svg width="24px" height="24px" viewBox="0 0 24 24" version="1.1" xmlns="http://www.w3.org/2000/svg" xmlns:xlink="http://www.w3.org/1999/xlink">
    <!-- Generator: Sketch 44.1 (41455) - http://www.bohemiancoding.com/sketch -->
    <title>Bold/SVG/corner-down-right</title>
    <desc>Created with Sketch.</desc>
    <defs></defs>
    <g id="Bold-Outline" stroke="none" stroke-width="1" fill="none" fill-rule="evenodd">
        <g id="corner-down-right" fill-rule="nonzero" fill="#000000">
            <path d="M17.5355339,14 L8,14 C6.8954305,14 6,13.1045695 6,12 L6,4 C6,3.44771525 5.55228475,3 5,3 C4.44771525,3 4,3.44771525 4,4 L4,12 C4,14.209139 5.790861,16 8,16 L17.4350288,16 L14.2426407,19.1923882 C13.8521164,19.5829124 13.8521164,20.2160774 14.2426407,20.6066017 C14.633165,20.997126 15.26633,20.997126 15.6568542,20.6066017 L19.8994949,16.363961 C20.6805435,15.5829124 20.6805435,14.3165825 19.8994949,13.5355339 L15.6568542,9.29289322 C15.26633,8.90236893 14.633165,8.90236893 14.2426407,9.29289322 C13.8521164,9.68341751 13.8521164,10.3165825 14.2426407,10.7071068 L17.5355339,14 L17.5355339,14 Z" id="shape"></path>
        </g>
    </g>
</svg>