<?xml version="1.0" encoding="UTF-8"?>
<svg width="24px" height="24px" viewBox="0 0 24 24" version="1.1" xmlns="http://www.w3.org/2000/svg" xmlns:xlink="http://www.w3.org/1999/xlink">
    <!-- Generator: Sketch 44.1 (41455) - http://www.bohemiancoding.com/sketch -->
    <title>Bold/SVG/corner-down-left</title>
    <desc>Created with Sketch.</desc>
    <defs></defs>
    <g id="Bold-Outline" stroke="none" stroke-width="1" fill="none" fill-rule="evenodd">
        <g id="corner-down-left" fill-rule="nonzero" fill="#000000">
            <path d="M6.56497116,16 L16,16 C18.209139,16 20,14.209139 20,12 L20,4 C20,3.44771525 19.5522847,3 19,3 C18.4477153,3 18,3.44771525 18,4 L18,12 C18,13.1045695 17.1045695,14 16,14 L6.46446609,14 L9.75735931,10.7071068 C10.1478836,10.3165825 10.1478836,9.68341751 9.75735931,9.29289322 C9.36683502,8.90236893 8.73367004,8.90236893 8.34314575,9.29289322 L4.10050506,13.5355339 C3.31945648,14.3165825 3.31945648,15.5829124 4.10050506,16.363961 L8.34314575,20.6066017 C8.73367004,20.997126 9.36683502,20.997126 9.75735931,20.6066017 C10.1478836,20.2160774 10.1478836,19.5829124 9.75735931,19.1923882 L6.56497116,16 Z" id="shape"></path>
        </g>
    </g>
</svg>