<?xml version="1.0" encoding="UTF-8"?>
<svg width="24px" height="24px" viewBox="0 0 24 24" version="1.1" xmlns="http://www.w3.org/2000/svg" xmlns:xlink="http://www.w3.org/1999/xlink">
    <!-- Generator: Sketch 44.1 (41455) - http://www.bohemiancoding.com/sketch -->
    <title>Bold/SVG/countdown</title>
    <desc>Created with Sketch.</desc>
    <defs></defs>
    <g id="Bold-Outline" stroke="none" stroke-width="1" fill="none" fill-rule="evenodd">
        <g id="countdown" fill-rule="nonzero" fill="#000000">
            <path d="M11.4819568,10.0677432 C11.6471834,10.0235573 11.8208407,10 12,10 C13.1045695,10 14,10.8954305 14,12 C14,13.1045695 13.1045695,14 12,14 C10.8954305,14 10,13.1045695 10,12 C10,11.8208407 10.0235573,11.6471834 10.0677432,11.4819568 L6.79289322,8.20710678 C6.40236893,7.81658249 6.40236893,7.18341751 6.79289322,6.79289322 C7.18341751,6.40236893 7.81658249,6.40236893 8.20710678,6.79289322 L11.4819568,10.0677432 Z M21,12 C21,7.36744635 17.4999505,3.55237307 13,3.05492878 L13,6 C13,6.55228475 12.5522847,7 12,7 C11.4477153,7 11,6.55228475 11,6 L11,2 C11,1.44771525 11.4477153,1 12,1 C18.0751322,1 23,5.92486775 23,12 C23,18.0751322 18.0751322,23 12,23 C5.92486775,23 1,18.0751322 1,12 C1,9.04378087 2.17288754,6.27076328 4.22182541,4.22182541 C4.6123497,3.83130112 5.24551468,3.83130112 5.63603897,4.22182541 C6.02656326,4.6123497 6.02656326,5.24551468 5.63603897,5.63603897 C3.95845567,7.31362227 3,9.57966598 3,12 C3,16.9705627 7.02943725,21 12,21 C16.9705627,21 21,16.9705627 21,12 Z" id="shape"></path>
        </g>
    </g>
</svg>