<?xml version="1.0" encoding="UTF-8"?>
<svg width="24px" height="24px" viewBox="0 0 24 24" version="1.1" xmlns="http://www.w3.org/2000/svg" xmlns:xlink="http://www.w3.org/1999/xlink">
    <!-- Generator: Sketch 44.1 (41455) - http://www.bohemiancoding.com/sketch -->
    <title>Bold/SVG/disc</title>
    <desc>Created with Sketch.</desc>
    <defs></defs>
    <g id="Bold-Outline" stroke="none" stroke-width="1" fill="none" fill-rule="evenodd">
        <g id="disc" fill-rule="nonzero" fill="#000000">
            <path d="M12,23 C5.92486775,23 1,18.0751322 1,12 C1,5.92486775 5.92486775,1 12,1 C18.0751322,1 23,5.92486775 23,12 C23,18.0751322 18.0751322,23 12,23 Z M12,21 C16.9705627,21 21,16.9705627 21,12 C21,7.02943725 16.9705627,3 12,3 C7.02943725,3 3,7.02943725 3,12 C3,16.9705627 7.02943725,21 12,21 Z M12,16 C9.790861,16 8,14.209139 8,12 C8,9.790861 9.790861,8 12,8 C14.209139,8 16,9.790861 16,12 C16,14.209139 14.209139,16 12,16 Z M12,14 C13.1045695,14 14,13.1045695 14,12 C14,10.8954305 13.1045695,10 12,10 C10.8954305,10 10,10.8954305 10,12 C10,13.1045695 10.8954305,14 12,14 Z M18.9305544,9.12895013 C19.1421,9.63911374 18.9000222,10.2241746 18.3898586,10.4357202 C17.879695,10.6472658 17.2946341,10.405188 17.0830885,9.8950244 C16.8065454,9.22811273 16.3999857,8.6218111 15.8890873,8.1109127 C14.8636452,7.08547061 13.4794372,6.5 12,6.5 C11.4477153,6.5 11,6.05228475 11,5.5 C11,4.94771525 11.4477153,4.5 12,4.5 C14.0153223,4.5 15.9065042,5.29990248 17.3033009,6.69669914 C17.9990421,7.39244037 18.5531273,8.21874642 18.9305544,9.12895013 Z" id="shape"></path>
        </g>
    </g>
</svg>