<?xml version="1.0" encoding="UTF-8"?>
<svg width="24px" height="24px" viewBox="0 0 24 24" version="1.1" xmlns="http://www.w3.org/2000/svg" xmlns:xlink="http://www.w3.org/1999/xlink">
    <!-- Generator: Sketch 44.1 (41455) - http://www.bohemiancoding.com/sketch -->
    <title>Bold/SVG/dislike</title>
    <desc>Created with Sketch.</desc>
    <defs></defs>
    <g id="Bold-Outline" stroke="none" stroke-width="1" fill="none" fill-rule="evenodd">
        <g id="dislike" fill-rule="nonzero" fill="#000000">
            <path d="M15.8113179,14.8376661 L15.8113179,4 L6.25,4 C5.30264855,4 4.48525552,4.66465297 4.29203916,5.59209149 L3.04203916,11.5920915 C3.01408708,11.7262615 3,11.8629493 3,12 C3,13.1045695 3.8954305,14 5,14 L8.81058733,14 C9.91515683,14 10.8105873,14.8954305 10.8105873,16 L10.8105873,18.5 C10.8105873,19.3284271 11.4821602,20 12.3105873,20 L14.0899114,20 L15.8113179,14.8376661 Z M17.8113179,4 L17.8113179,14 L18.8105873,14 C19.9151568,14 20.8105873,13.1045695 20.8105873,12 L20.8105873,6 C20.8105873,4.8954305 19.9151568,4 18.8105873,4 L17.8113179,4 Z M17.5319938,16 L15.9872086,20.6326634 C15.7149166,21.4492414 14.9506915,22 14.0899114,22 L12.3105873,22 C10.3775907,22 8.81058733,20.4329966 8.81058733,18.5 L8.81058733,16 L5,16 C2.790861,16 1,14.209139 1,12 C1,11.7258985 1.02817416,11.452523 1.08407832,11.184183 L2.33407832,5.18418298 C2.72051104,3.32930594 4.3552971,2 6.25,2 L18.8105873,2 C21.0197263,2 22.8105873,3.790861 22.8105873,6 L22.8105873,12 C22.8105873,14.209139 21.0197263,16 18.8105873,16 L17.5319938,16 Z" id="shape"></path>
        </g>
    </g>
</svg>