<?xml version="1.0" encoding="UTF-8"?>
<svg width="24px" height="24px" viewBox="0 0 24 24" version="1.1" xmlns="http://www.w3.org/2000/svg" xmlns:xlink="http://www.w3.org/1999/xlink">
    <!-- Generator: Sketch 44.1 (41455) - http://www.bohemiancoding.com/sketch -->
    <title>Bold/SVG/diving</title>
    <desc>Created with Sketch.</desc>
    <defs></defs>
    <g id="Bold-Outline" stroke="none" stroke-width="1" fill="none" fill-rule="evenodd">
        <g id="diving" fill-rule="nonzero" fill="#000000">
            <path d="M21,13.7428379 C20.4209679,14.2210377 19.7423893,14.5829929 19,14.7929675 L19,16 C19,17.6568542 17.6568542,19 16,19 C14.6937812,19 13.5825421,18.1651924 13.1707057,17 L11.1000181,17 C11.5632884,19.2822403 13.5810421,21 16,21 C18.7614237,21 21,18.7614237 21,16 L21,13.7428379 Z M21,5.25671565 L21,4 C21,3.44771525 20.5522847,3 20,3 C19.4477153,3 19,3.44771525 19,4 L19,4.20698343 C19.7442897,4.41719396 20.4222583,4.77933189 21,5.25671565 Z M17,4 C17,2.34314575 18.3431458,1 20,1 C21.6568542,1 23,2.34314575 23,4 L23,16 C23,19.8659932 19.8659932,23 16,23 C12.1340068,23 9,19.8659932 9,16 C9,15.4477153 9.44771525,15 10,15 L14,15 C14.5522847,15 15,15.4477153 15,16 C15,16.5522847 15.4477153,17 16,17 C16.5522847,17 17,16.5522847 17,16 L17,14.9774934 C14.7181563,14.7711757 12.8188912,13.166574 12.2069834,11 L11.7930166,11 C11.1369194,13.3230347 9.00081625,15 6.5,15 C3.46243388,15 1,12.5375661 1,9.5 C1,6.77514519 2.99088984,4.48327706 5.63914963,4.06708779 C5.75108645,4.02376107 5.87276838,4 6,4 L17,4 Z M6.10987509,6.02140979 C4.34809258,6.21616497 3,7.7119721 3,9.5 C3,11.4329966 4.56700338,13 6.5,13 C8.2880279,13 9.78383503,11.6519074 9.97859021,9.89012491 C10.0346005,9.38344822 10.4627725,9 10.9725356,9 L13.0274644,9 C13.5372275,9 13.9653995,9.38344822 14.0214098,9.89012491 C14.216165,11.6519074 15.7119721,13 17.5,13 C19.4329966,13 21,11.4329966 21,9.5 C21,7.7119721 19.6519074,6.21616497 17.8901249,6.02140979 C17.8481614,6.01677096 17.8070431,6.00957933 17.7669179,6 L6.23308212,6 C6.19295693,6.00957933 6.15183864,6.01677096 6.10987509,6.02140979 Z" id="shape"></path>
        </g>
    </g>
</svg>