<?xml version="1.0" encoding="UTF-8"?>
<svg width="24px" height="24px" viewBox="0 0 24 24" version="1.1" xmlns="http://www.w3.org/2000/svg" xmlns:xlink="http://www.w3.org/1999/xlink">
    <!-- Generator: Sketch 44.1 (41455) - http://www.bohemiancoding.com/sketch -->
    <title>Bold/SVG/dog-angry</title>
    <desc>Created with Sketch.</desc>
    <defs></defs>
    <g id="Bold-Outline" stroke="none" stroke-width="1" fill="none" fill-rule="evenodd">
        <g id="dog-angry" fill-rule="nonzero" fill="#000000">
            <path d="M10.5313767,11.2495035 C10.510893,11.169748 10.5,11.0861461 10.5,11 C10.5,10.4477153 10.9477153,10 11.5,10 L12.5,10 C13.0522847,10 13.5,10.4477153 13.5,11 C13.5,11.0861461 13.489107,11.169748 13.4686233,11.2495035 C14.1909312,11.5040604 14.8289962,11.9445802 15.3052953,12.5301136 C15.5845037,12.8733557 15.8013088,13.2588886 15.9447251,13.6721364 C16.1257991,14.1938936 15.8496209,14.763651 15.3278636,14.9447251 C14.8061064,15.1257991 14.236349,14.8496209 14.0552749,14.3278636 C13.9891657,14.1373725 13.887458,13.9565112 13.7537849,13.7921815 C13.355248,13.3022442 12.7108641,13 12,13 C11.2891359,13 10.644752,13.3022442 10.2462151,13.7921815 C10.112542,13.9565112 10.0108343,14.1373725 9.94472507,14.3278636 C9.763651,14.8496209 9.19389365,15.1257991 8.6721364,14.9447251 C8.15037915,14.763651 7.87420086,14.1938936 8.05527493,13.6721364 C8.19869117,13.2588886 8.41549629,12.8733557 8.69470473,12.5301136 C9.17100375,11.9445802 9.80906877,11.5040604 10.5313767,11.2495035 Z M20.994478,13.378534 C20.8386565,18.6812581 17.3955773,22 12,22 C6.60442351,22 3.16134452,18.6812591 3.00552208,13.3785364 C2.64600073,13.3902316 2.28222573,13.3310651 1.93554783,13.1977274 C0.526322033,12.6557175 -0.176695338,11.0739284 0.365314584,9.6647026 L2.06839392,5.23669633 C2.81929483,3.28435396 4.94761762,2.24024242 6.95116789,2.8413075 L9.05553595,3.47261792 C9.96049676,3.16471309 10.9467136,3 12,3 C13.0532997,3 14.0395281,3.16471724 14.9444983,3.47262957 L17.0489052,2.8413075 C19.0524554,2.24024242 21.1807782,3.28435396 21.9316791,5.23669633 L23.6347585,9.6647026 C24.1767684,11.0739284 23.473751,12.6557175 22.0645252,13.1977274 C21.7178239,13.3310741 21.3540231,13.3902396 20.994478,13.378534 Z M20.8962277,11.3557555 C21.0428537,11.3943561 21.2003736,11.3872645 21.3465671,11.3310362 C21.7248478,11.1855436 21.9135598,10.7609415 21.7680672,10.3826608 L20.0649879,5.95465448 C19.6895375,4.9784833 18.6253761,4.45642753 17.6236009,4.75696007 L17.4190617,4.81832185 C19.3013986,6.307 20.5426308,8.61080997 20.8962277,11.3557555 Z M3.10376971,11.3557754 C3.45736444,8.61081134 4.69860563,6.30698721 6.58095843,4.81830597 L6.37647212,4.75696007 C5.37469698,4.45642753 4.31053559,4.9784833 3.93508513,5.95465448 L2.2320058,10.3826608 C2.08651322,10.7609415 2.27522528,11.1855436 2.65350599,11.3310362 C2.79967435,11.3872548 2.95716523,11.3943537 3.10376971,11.3557754 Z M12,20 C16.418278,20 19,17.418278 19,13 C19,8.32289135 16.1871677,5 12,5 C7.81283228,5 5,8.32289135 5,13 C5,17.418278 7.581722,20 12,20 Z M15.9472136,9.89442719 C15.4532351,10.1414164 14.8525621,9.94119209 14.6055728,9.4472136 C14.3585836,8.9532351 14.5588079,8.35256206 15.0527864,8.10557281 L16.0527864,7.60557281 C16.5467649,7.35858356 17.1474379,7.55880791 17.3944272,8.0527864 C17.6414164,8.5467649 17.4411921,9.14743794 16.9472136,9.39442719 L15.9472136,9.89442719 Z M7.0527864,9.39442719 C6.55880791,9.14743794 6.35858356,8.5467649 6.60557281,8.0527864 C6.85256206,7.55880791 7.4532351,7.35858356 7.9472136,7.60557281 L8.9472136,8.10557281 C9.44119209,8.35256206 9.64141644,8.9532351 9.39442719,9.4472136 C9.14743794,9.94119209 8.5467649,10.1414164 8.0527864,9.89442719 L7.0527864,9.39442719 Z" id="shape"></path>
        </g>
    </g>
</svg>