<?xml version="1.0" encoding="UTF-8"?>
<svg width="24px" height="24px" viewBox="0 0 24 24" version="1.1" xmlns="http://www.w3.org/2000/svg" xmlns:xlink="http://www.w3.org/1999/xlink">
    <!-- Generator: Sketch 44.1 (41455) - http://www.bohemiancoding.com/sketch -->
    <title>Bold/SVG/dog</title>
    <desc>Created with Sketch.</desc>
    <defs></defs>
    <g id="Bold-Outline" stroke="none" stroke-width="1" fill="none" fill-rule="evenodd">
        <g id="dog" fill-rule="nonzero" fill="#000000">
            <path d="M13.002513,11.8647593 L12.9914958,12.4959339 L13.5679986,12.931729 C14.0085694,13.2647692 14.6357051,13.1775983 14.9687453,12.7370275 C14.9842669,12.7161195 14.9842669,12.7161195 14.9990534,12.6946854 L15.1719678,12.4393195 C15.4816231,11.9820099 16.1033709,11.8623125 16.5606805,12.1719678 C17.0179901,12.4816231 17.1376875,13.1033709 16.8280322,13.5606805 L16.6551178,13.8160464 C16.6107583,13.8803488 16.6107583,13.8803488 16.5641935,13.9430727 C15.5650729,15.2647852 13.6836659,15.5262977 12.3619534,14.5271772 L11.9976319,14.2517761 L11.6246895,14.5314829 C11.5802878,14.5647841 11.5349706,14.5968468 11.48879,14.6276338 C10.110204,15.5466912 8.24759595,15.1741696 7.32853857,13.7955835 L7.16794971,13.5547002 C6.86159725,13.0951715 6.98577112,12.4743022 7.4452998,12.1679497 C7.90482849,11.8615972 8.52569784,11.9857711 8.83205029,12.4452998 L8.99263916,12.6861831 C9.29899162,13.1457118 9.91986096,13.2698857 10.3793897,12.9635332 C10.3947832,12.9532709 10.4098889,12.9425833 10.4246895,12.9314829 L10.9910023,12.5067482 L11.0021611,11.8674643 C10.702069,11.6948693 10.5,11.3710325 10.5,11 C10.5,10.4477153 10.9477153,10 11.5,10 L12.5,10 C13.0522847,10 13.5,10.4477153 13.5,11 C13.5,11.3691029 13.3000273,11.6914997 13.002513,11.8647593 Z M20.994478,13.378534 C20.8386565,18.6812581 17.3955773,22 12,22 C6.60442351,22 3.16134452,18.6812591 3.00552208,13.3785364 C2.64600073,13.3902316 2.28222573,13.3310651 1.93554783,13.1977274 C0.526322033,12.6557175 -0.176695338,11.0739284 0.365314584,9.6647026 L2.06839392,5.23669633 C2.81929483,3.28435396 4.94761762,2.24024242 6.95116789,2.8413075 L9.05553595,3.47261792 C9.96049676,3.16471309 10.9467136,3 12,3 C13.0532997,3 14.0395281,3.16471724 14.9444983,3.47262957 L17.0489052,2.8413075 C19.0524554,2.24024242 21.1807782,3.28435396 21.9316791,5.23669633 L23.6347585,9.6647026 C24.1767684,11.0739284 23.473751,12.6557175 22.0645252,13.1977274 C21.7178239,13.3310741 21.3540231,13.3902396 20.994478,13.378534 Z M20.8962277,11.3557555 C21.0428537,11.3943561 21.2003736,11.3872645 21.3465671,11.3310362 C21.7248478,11.1855436 21.9135598,10.7609415 21.7680672,10.3826608 L20.0649879,5.95465448 C19.6895375,4.9784833 18.6253761,4.45642753 17.6236009,4.75696007 L17.4190617,4.81832185 C19.3013986,6.307 20.5426308,8.61080997 20.8962277,11.3557555 Z M3.10376971,11.3557754 C3.45736444,8.61081134 4.69860563,6.30698721 6.58095843,4.81830597 L6.37647212,4.75696007 C5.37469698,4.45642753 4.31053559,4.9784833 3.93508513,5.95465448 L2.2320058,10.3826608 C2.08651322,10.7609415 2.27522528,11.1855436 2.65350599,11.3310362 C2.79967435,11.3872548 2.95716523,11.3943537 3.10376971,11.3557754 Z M12,20 C16.418278,20 19,17.418278 19,13 C19,8.32289135 16.1871677,5 12,5 C7.81283228,5 5,8.32289135 5,13 C5,17.418278 7.581722,20 12,20 Z M8,10 C7.44771525,10 7,9.55228475 7,9 C7,8.44771525 7.44771525,8 8,8 C8.55228475,8 9,8.44771525 9,9 C9,9.55228475 8.55228475,10 8,10 Z M16,10 C15.4477153,10 15,9.55228475 15,9 C15,8.44771525 15.4477153,8 16,8 C16.5522847,8 17,8.44771525 17,9 C17,9.55228475 16.5522847,10 16,10 Z" id="shape"></path>
        </g>
    </g>
</svg>