<?xml version="1.0" encoding="UTF-8"?>
<svg width="24px" height="24px" viewBox="0 0 24 24" version="1.1" xmlns="http://www.w3.org/2000/svg" xmlns:xlink="http://www.w3.org/1999/xlink">
    <!-- Generator: Sketch 44.1 (41455) - http://www.bohemiancoding.com/sketch -->
    <title>Bold/SVG/donate</title>
    <desc>Created with Sketch.</desc>
    <defs></defs>
    <g id="Bold-Outline" stroke="none" stroke-width="1" fill="none" fill-rule="evenodd">
        <g id="donate" fill-rule="nonzero" fill="#000000">
            <path d="M2,10.5 L2,17.5 L4,17.5 L4,10.5 L2,10.5 Z M16.4648712,12.5 L17.5707212,12.5 C18.4811914,11.5714096 19,10.3280098 19,9 C19,6.23857625 16.7614237,4 14,4 C11.4042904,4 9.2705586,5.97796222 9.02381421,8.5088771 C9.98737186,8.57316735 10.8986933,8.98447978 11.5857864,9.67157288 L12.4142136,10.5 L13,10.5 C14.4805647,10.5 15.7732524,11.3043973 16.4648712,12.5 Z M17,14.5 L17,15.5 C17,16.0522847 16.5522847,16.5 16,16.5 L10,16.5 C9.44771525,16.5 9,16.0522847 9,15.5 C9,14.9477153 9.44771525,14.5 10,14.5 L15,14.5 C15,13.3954305 14.1045695,12.5 13,12.5 L12,12.5 C11.7347835,12.5 11.4804296,12.3946432 11.2928932,12.2071068 L10.1715729,11.0857864 C9.79650012,10.7107137 9.28779229,10.5 8.75735931,10.5 L6,10.5 L6,17.7457317 L11.4692622,19.3083644 C11.820499,19.4087169 12.192512,19.4109577 12.5449321,19.3148436 L22,16.736203 L22,16.5 C22,15.3954305 21.1045695,14.5 20,14.5 L17,14.5 Z M4.85982416,19.5 L1,19.5 C0.44771525,19.5 0,19.0522847 0,18.5 L0,9.5 C0,8.94771525 0.44771525,8.5 1,8.5 L5,8.5 L7.01758203,8.5 C7.27395527,4.86736221 10.3021235,2 14,2 C17.8659932,2 21,5.13400675 21,9 C21,10.2521157 20.6691337,11.4529571 20.0633354,12.5004913 C22.2432666,12.5343301 24,14.3120115 24,16.5 L24,17.5 C24,17.9509516 23.698178,18.3461116 23.263116,18.4647642 L13.0711642,21.244372 C12.366324,21.4366001 11.6222979,21.4321185 10.9198244,21.2314135 L4.85982416,19.5 Z" id="Combined-Shape"></path>
        </g>
    </g>
</svg>