<?xml version="1.0" encoding="UTF-8"?>
<svg width="24px" height="24px" viewBox="0 0 24 24" version="1.1" xmlns="http://www.w3.org/2000/svg" xmlns:xlink="http://www.w3.org/1999/xlink">
    <!-- Generator: Sketch 44.1 (41455) - http://www.bohemiancoding.com/sketch -->
    <title>Bold/SVG/donut-chart</title>
    <desc>Created with Sketch.</desc>
    <defs></defs>
    <g id="Bold-Outline" stroke="none" stroke-width="1" fill="none" fill-rule="evenodd">
        <g id="donut-chart" fill-rule="nonzero" fill="#000000">
            <path d="M17.6738322,18.9871134 L14.7817714,17.3173813 C13.9329635,17.7622829 12.9833218,18 12,18 C8.6862915,18 6,15.3137085 6,12 C6,9.82204178 7.17142215,7.85861237 9,6.80260501 L9,3.51131326 C5.46734126,4.75733145 3,8.12543442 3,12 C3,16.9705627 7.02943725,21 12,21 C14.1046184,21 16.0913065,20.2747562 17.6738322,18.9871134 Z M20.0719686,19.4729069 C18.0037884,21.7059118 15.1044497,23 12,23 C5.92486775,23 1,18.0751322 1,12 C1,6.74469724 4.7126131,2.25292476 9.80106781,1.22002297 C10.4206507,1.09425429 11,1.56781737 11,2.20003623 L11,7.41604369 C11,7.81351868 10.7645989,8.17325886 10.4003716,8.33239655 C8.95428944,8.96421673 8,10.3945001 8,12 C8,14.209139 9.790861,16 12,16 C12.8028372,16 13.5679701,15.7640636 14.2200113,15.3280279 C14.5366296,15.1162976 14.9460349,15.1028178 15.2758949,15.2932626 L19.8383034,17.9273704 C20.3940571,18.2482349 20.5080306,19.0020926 20.0719686,19.4729069 Z M21,12 C21,8.12543442 18.5326587,4.75733145 15,3.51131326 L15,6.80260501 C16.8285778,7.85861237 18,9.82204178 18,12 C18,12.081657 17.998363,12.1631333 17.9950982,12.2443932 L20.8062374,13.8674052 C20.9345211,13.2590842 21,12.6342852 21,12 Z M20.9163755,16.2403945 L16.4381244,13.654875 C16.0795481,13.4478509 15.8856389,13.0412586 15.9504519,12.6323146 C15.9833402,12.4248028 16,12.2136466 16,12 C16,10.3945001 15.0457106,8.96421673 13.5996284,8.33239655 C13.2354011,8.17325886 13,7.81351868 13,7.41604369 L13,2.20003623 C13,1.56781737 13.5793493,1.09425429 14.1989322,1.22002297 C19.2873869,2.25292476 23,6.74469724 23,12 C23,13.2796122 22.7810303,14.5306866 22.3577437,15.7117502 C22.1473034,16.2989251 21.4565557,16.5522677 20.9163755,16.2403945 Z" id="shape"></path>
        </g>
    </g>
</svg>