<?xml version="1.0" encoding="UTF-8"?>
<svg width="24px" height="24px" viewBox="0 0 24 24" version="1.1" xmlns="http://www.w3.org/2000/svg" xmlns:xlink="http://www.w3.org/1999/xlink">
    <!-- Generator: Sketch 44.1 (41455) - http://www.bohemiancoding.com/sketch -->
    <title>Bold/SVG/dowload-cloud</title>
    <desc>Created with Sketch.</desc>
    <defs></defs>
    <g id="Bold-Outline" stroke="none" stroke-width="1" fill="none" fill-rule="evenodd">
        <g id="dowload-cloud" fill-rule="nonzero" fill="#000000">
            <path d="M10.5,19.5857831 L10.5,12 C10.5,11.4477153 10.9477153,11 11.5,11 C12.0522847,11 12.5,11.4477153 12.5,12 L12.5,19.5857289 L13.6212628,18.4644661 C14.0117871,18.0739418 14.6449521,18.0739418 15.0354764,18.4644661 C15.4260007,18.8549904 15.4260007,19.4881554 15.0354764,19.8786797 L12.9141875,21.9999685 C12.1331329,22.7809655 10.8668453,22.7809695 10.0858056,21.9999616 L7.96454282,19.8788139 C7.57400793,19.4883002 7.57399076,18.8551352 7.96450446,18.4646004 C8.35501815,18.0740655 8.98818313,18.0740483 9.37871802,18.464562 L10.5,19.5857831 Z M17.8503868,7.1100877 C17.9001825,7.10886521 17.9500563,7.1082528 18,7.1082528 C21.3137085,7.1082528 24,9.7945443 24,13.1082528 C24,16.4219613 21.3137085,19.1082528 18,19.1082528 C17.4477153,19.1082528 17,18.6605375 17,18.1082528 C17,17.555968 17.4477153,17.1082528 18,17.1082528 C20.209139,17.1082528 22,15.3173918 22,13.1082528 C22,10.8991138 20.209139,9.1082528 18,9.1082528 C17.7247737,9.1082528 17.4537222,9.13590092 17.1893791,9.19023555 C16.5930682,9.31280479 16.0265197,8.87860862 15.9898575,8.27093618 C15.8153697,5.37882092 13.4121547,3.1082528 10.5,3.1082528 C7.46243388,3.1082528 5,5.57068668 5,8.6082528 C5,9.06480576 5.05541426,9.51323633 5.16384832,9.94706666 C5.301864,10.4992492 4.95182052,11.0551146 4.39421081,11.1692429 C3.01051024,11.4524508 2,12.676957 2,14.1082528 C2,15.765107 3.34314575,17.1082528 5,17.1082528 C5.55228475,17.1082528 6,17.555968 6,18.1082528 C6,18.6605375 5.55228475,19.1082528 5,19.1082528 C2.23857625,19.1082528 0,16.8696765 0,14.1082528 C0,12.0601506 1.24035225,10.2671552 3.05272954,9.50143896 C3.01769289,9.20659912 3,8.90848928 3,8.6082528 C3,4.46611718 6.35786438,1.1082528 10.5,1.1082528 C14.1150484,1.1082528 17.1543752,3.67327987 17.8503868,7.1100877 Z" id="shape"></path>
        </g>
    </g>
</svg>