<?xml version="1.0" encoding="UTF-8"?>
<svg width="24px" height="24px" viewBox="0 0 24 24" version="1.1" xmlns="http://www.w3.org/2000/svg" xmlns:xlink="http://www.w3.org/1999/xlink">
    <!-- Generator: Sketch 44.1 (41455) - http://www.bohemiancoding.com/sketch -->
    <title>Bold/SVG/dowload</title>
    <desc>Created with Sketch.</desc>
    <defs></defs>
    <g id="Bold-Outline" stroke="none" stroke-width="1" fill="none" fill-rule="evenodd">
        <g id="dowload" fill-rule="nonzero" fill="#000000">
            <path d="M7.04468434,9.99995403 L12.0000441,16.371132 L16.9554056,9.99995403 L14.000044,9.99995403 C13.4477592,9.99995403 13.000044,9.55223878 13.000044,8.99995403 L13.000044,3.99995403 C13.000044,3.44766928 12.5523287,2.99995403 12.000044,2.99995403 C11.4477592,2.99995403 11.000044,3.44766928 11.000044,3.99995403 L11.000044,8.99995403 C11.000044,9.55223878 10.5523287,9.99995403 10.000044,9.99995403 L7.04468434,9.99995403 Z M16.9554056,7.99995403 C18.0599751,7.99995403 18.9554056,8.89538453 18.9554056,9.99995403 C18.9554056,10.4447058 18.8071612,10.8767696 18.53411,11.2278354 L13.5787485,17.5990134 C12.9006083,18.4709077 11.6440571,18.6279765 10.7721628,17.9498363 C10.641114,17.8479095 10.5232664,17.7300619 10.4213396,17.5990131 L5.4659798,11.2278351 C4.7878398,10.3559407 4.94490881,9.0993895 5.81680325,8.42124949 C6.16786899,8.14819841 6.59993267,7.99995403 7.04468434,7.99995403 L9.00004399,7.99995403 L9.00004399,3.99995403 C9.00004399,2.34309978 10.3431897,0.999954031 12.000044,0.999954031 C13.6568982,0.999954031 15.000044,2.34309978 15.000044,3.99995403 L15.000044,7.99995403 L16.9554056,7.99995403 Z M19,18 C19,17.4477153 19.4477153,17 20,17 C20.5522847,17 21,17.4477153 21,18 C21,20.209139 19.209139,22 17,22 L7,22 C4.790861,22 3,20.209139 3,18 C3,17.4477153 3.44771525,17 4,17 C4.55228475,17 5,17.4477153 5,18 C5,19.1045695 5.8954305,20 7,20 L17,20 C18.1045695,20 19,19.1045695 19,18 Z" id="shape"></path>
        </g>
    </g>
</svg>