<?xml version="1.0" encoding="UTF-8"?>
<svg width="24px" height="24px" viewBox="0 0 24 24" version="1.1" xmlns="http://www.w3.org/2000/svg" xmlns:xlink="http://www.w3.org/1999/xlink">
    <!-- Generator: Sketch 44.1 (41455) - http://www.bohemiancoding.com/sketch -->
    <title>Bold/SVG/drink</title>
    <desc>Created with Sketch.</desc>
    <defs></defs>
    <g id="Bold-Outline" stroke="none" stroke-width="1" fill="none" fill-rule="evenodd">
        <g id="drink" fill-rule="nonzero" fill="#000000">
            <path d="M11,5 L11,4 C11,2.34314575 12.3431458,1 14,1 L17,1 C17.5522847,1 18,1.44771525 18,2 C18,2.55228475 17.5522847,3 17,3 L14,3 C13.4477153,3 13,3.44771525 13,4 L13,5 L18.5,5 C19.8807119,5 21,6.11928813 21,7.5 C21,8.35159482 20.5742038,9.1037396 19.923895,9.55515071 L18.2568837,19.9739715 C18.0240234,21.4293485 16.7684499,22.5 15.2945618,22.5 L8.70543822,22.5 C7.23155013,22.5 5.97597665,21.4293485 5.74311633,19.9739715 L4.076105,9.55515071 C3.42579621,9.1037396 3,8.35159482 3,7.5 C3,6.11928813 4.11928813,5 5.5,5 L11,5 Z M6.17271911,10 L7.71799759,19.6579905 C7.7956177,20.1431162 8.21414219,20.5 8.70543822,20.5 L15.2945618,20.5 C15.7858578,20.5 16.2043823,20.1431162 16.2820024,19.6579905 L17.8272809,10 L6.17271911,10 Z M5.5,7 C5.22385763,7 5,7.22385763 5,7.5 C5,7.77614237 5.22385763,8 5.5,8 L18.5,8 C18.7761424,8 19,7.77614237 19,7.5 C19,7.22385763 18.7761424,7 18.5,7 L5.5,7 Z" id="shape"></path>
        </g>
    </g>
</svg>