<?xml version="1.0" encoding="UTF-8"?>
<svg width="24px" height="24px" viewBox="0 0 24 24" version="1.1" xmlns="http://www.w3.org/2000/svg" xmlns:xlink="http://www.w3.org/1999/xlink">
    <!-- Generator: Sketch 44.1 (41455) - http://www.bohemiancoding.com/sketch -->
    <title>Bold/SVG/dropper</title>
    <desc>Created with Sketch.</desc>
    <defs></defs>
    <g id="Bold-Outline" stroke="none" stroke-width="1" fill="none" fill-rule="evenodd">
        <g id="dropper" fill-rule="nonzero" fill="#000000">
            <path d="M16.6041213,13.052733 L9.52512627,20.131728 C8.91313888,20.7437154 8.1191669,21.1407014 7.26238457,21.2630988 L6.76740982,21.3338095 C6.33901865,21.3950082 5.94203266,21.5935012 5.63603897,21.8994949 C4.85499039,22.6805435 3.58866043,22.6805435 2.80761184,21.8994949 L2.10050506,21.1923882 C1.31945648,20.4113396 1.31945648,19.1450096 2.10050506,18.363961 C2.40649875,18.0579673 2.60499175,17.6609813 2.66619049,17.2325902 L2.73690117,16.7376154 C2.85929864,15.8808331 3.25628464,15.0868611 3.86827202,14.4748737 L10.947267,7.39587872 C10.0454812,6.3154675 10.1017643,4.70584752 11.1161165,3.69149532 C11.9908952,2.81671666 13.3083959,2.65448844 14.3473807,3.20481067 C14.5361068,2.91648304 14.754607,2.64572967 14.9934187,2.406918 C16.7927641,0.607572637 19.7263695,0.634486448 21.5459415,2.45405845 C23.3655136,4.27363046 23.3924274,7.20723593 21.593082,9.00658129 C21.3542703,9.24539296 21.083517,9.46389319 20.7951893,9.65261926 C21.3455116,10.6916041 21.1832833,12.0091048 20.3085047,12.8838835 C19.2941525,13.8982357 17.6845325,13.9545188 16.6041213,13.052733 Z M5.28248558,15.8890873 C4.97649189,16.195081 4.77799889,16.592067 4.71680015,17.0204581 L4.64608948,17.5154329 C4.523692,18.3722152 4.12670601,19.1661872 3.51471863,19.7781746 L4.22182541,20.4852814 C4.83381279,19.873294 5.62778477,19.476308 6.48456711,19.3539105 L6.97954185,19.2831998 C7.40793302,19.2220011 7.80491901,19.0235081 8.1109127,18.7175144 L15.1819805,11.6464466 L12.3535534,8.81801948 L5.28248558,15.8890873 Z M16.4076323,3.82113156 C16.0606075,4.16815629 15.7778676,4.64535655 15.672056,5.05467025 C15.4784055,5.80377354 14.5438851,6.05860375 13.9967762,5.51149487 L13.5909903,5.10570888 C13.298097,4.81281566 12.8232233,4.81281566 12.5303301,5.10570888 C12.2374369,5.3986021 12.2374369,5.87347584 12.5303301,6.16636906 L17.8336309,11.4696699 C18.1265242,11.7625631 18.6013979,11.7625631 18.8942911,11.4696699 C19.1871843,11.1767767 19.1871843,10.701903 18.8942911,10.4090097 L18.4885051,10.0032238 C17.9413962,9.45611487 18.1962265,8.52159455 18.9453297,8.32794403 C19.3546434,8.22213244 19.8318437,7.93939246 20.1788684,7.59236773 C21.191298,6.5799382 21.1760008,4.91254482 20.131728,3.86827202 C19.0874552,2.82399922 17.4200618,2.80870203 16.4076323,3.82113156 Z" id="shape"></path>
        </g>
    </g>
</svg>