<?xml version="1.0" encoding="UTF-8"?>
<svg width="24px" height="24px" viewBox="0 0 24 24" version="1.1" xmlns="http://www.w3.org/2000/svg" xmlns:xlink="http://www.w3.org/1999/xlink">
    <!-- Generator: Sketch 44.1 (41455) - http://www.bohemiancoding.com/sketch -->
    <title>Bold/SVG/eject</title>
    <desc>Created with Sketch.</desc>
    <defs></defs>
    <g id="Bold-Outline" stroke="none" stroke-width="1" fill="none" fill-rule="evenodd">
        <g id="eject" fill-rule="nonzero" fill="#000000">
            <path d="M6.00943671,13.0000589 C6.00943671,13.5523436 6.45715196,14.0000589 7.00943671,14.0000589 L17.0094278,14.0000589 C17.2251517,14.0000589 17.4350919,13.9302991 17.6079152,13.8011911 C18.0503683,13.4706556 18.1410955,12.8440246 17.81056,12.4015715 L12.830218,5.73491073 C12.7735061,5.65899634 12.7062919,5.59152804 12.630592,5.53452999 C12.1893893,5.20232729 11.5624204,5.29068924 11.2302177,5.73189193 L6.21056858,12.3985527 C6.08003281,12.5719189 6.00943671,12.783044 6.00943671,13.0000589 Z M4.61283231,11.1955403 L9.63248142,4.52887954 C10.6290895,3.20527148 12.5099963,2.94018563 13.8336044,3.93679372 C14.0607039,4.10778786 14.2623465,4.31019278 14.4324825,4.53793593 L19.4128245,11.2045967 C20.4044309,12.531956 20.1322493,14.4118491 18.80489,15.4034555 C18.28642,15.7907796 17.6565994,16.0000589 17.0094278,16.0000589 L7.00943671,16.0000589 C5.35258246,16.0000589 4.00943671,14.6569131 4.00943671,13.0000589 C4.00943671,12.3490144 4.22122502,11.715639 4.61283231,11.1955403 Z M5,20 C4.44771525,20 4,19.5522847 4,19 C4,18.4477153 4.44771525,18 5,18 L19,18 C19.5522847,18 20,18.4477153 20,19 C20,19.5522847 19.5522847,20 19,20 L5,20 Z" id="shape"></path>
        </g>
    </g>
</svg>