<?xml version="1.0" encoding="UTF-8"?>
<svg width="24px" height="24px" viewBox="0 0 24 24" version="1.1" xmlns="http://www.w3.org/2000/svg" xmlns:xlink="http://www.w3.org/1999/xlink">
    <!-- Generator: Sketch 44.1 (41455) - http://www.bohemiancoding.com/sketch -->
    <title>Bold/SVG/fast-forward</title>
    <desc>Created with Sketch.</desc>
    <defs></defs>
    <g id="Bold-Outline" stroke="none" stroke-width="1" fill="none" fill-rule="evenodd">
        <g id="fast-forward" fill-rule="nonzero" fill="#000000">
            <path d="M11.5,9.75452464 L11.5,7.49067955 C11.5,5.8338253 12.8431458,4.49067955 14.5,4.49067955 C15.2411176,4.49067955 15.9560054,4.76500468 16.5068775,5.26078208 L21.5171833,9.76998934 C22.7487216,10.8783572 22.8485711,12.7752259 21.7402032,14.0067643 C21.6698352,14.0849522 21.5954035,14.159385 21.5172167,14.2297542 L16.5069109,18.7390973 C15.2753891,19.8474836 13.3785189,19.7476626 12.2701326,18.5161408 C11.7743366,17.9652647 11.5,17.250363 11.5,16.5092299 L11.5,14.2452494 L6.5069109,18.7390973 C5.27538914,19.8474836 3.37851888,19.7476626 2.27013259,18.5161408 C1.77433658,17.9652647 1.5,17.250363 1.5,16.5092299 L1.5,7.49067955 C1.5,5.8338253 2.84314575,4.49067955 4.5,4.49067955 C5.24111758,4.49067955 5.95600542,4.76500468 6.50687749,5.26078208 L11.5,9.75452464 Z M5.16895916,6.7473804 C4.98533514,6.58212126 4.74703919,6.49067955 4.5,6.49067955 C3.94771525,6.49067955 3.5,6.9383948 3.5,7.49067955 L3.5,16.5092299 C3.5,16.7562743 3.59144553,16.9945748 3.75671086,17.1782002 C4.12617296,17.5887075 4.75846305,17.6219812 5.1689703,17.2525191 L10.1792761,12.7431759 C10.2053384,12.7197195 10.2301489,12.6949086 10.2536049,12.668846 C10.6230609,12.2583332 10.5897777,11.6260436 10.1792649,11.2565877 L5.16895916,6.7473804 Z M15.1689592,6.7473804 C14.9853351,6.58212126 14.7470392,6.49067955 14.5,6.49067955 C13.9477153,6.49067955 13.5,6.9383948 13.5,7.49067955 L13.5,16.5092299 C13.5,16.7562743 13.5914455,16.9945748 13.7567109,17.1782002 C14.126173,17.5887075 14.758463,17.6219812 15.1689703,17.2525191 L20.1792761,12.7431759 C20.2053384,12.7197195 20.2301489,12.6949086 20.2536049,12.668846 C20.6230609,12.2583332 20.5897777,11.6260436 20.1792649,11.2565877 L15.1689592,6.7473804 Z" id="shape"></path>
        </g>
    </g>
</svg>