<?xml version="1.0" encoding="UTF-8"?>
<svg width="24px" height="24px" viewBox="0 0 24 24" version="1.1" xmlns="http://www.w3.org/2000/svg" xmlns:xlink="http://www.w3.org/1999/xlink">
    <!-- Generator: Sketch 44.1 (41455) - http://www.bohemiancoding.com/sketch -->
    <title>Bold/SVG/film</title>
    <desc>Created with Sketch.</desc>
    <defs></defs>
    <g id="Bold-Outline" stroke="none" stroke-width="1" fill="none" fill-rule="evenodd">
        <g id="film" fill-rule="nonzero" fill="#000000">
            <path d="M20,16 L20,13 L17,13 L17,16 L20,16 Z M20,18 L17,18 L17,20 L18,20 C19.1045695,20 20,19.1045695 20,18 Z M20,8 L17,8 L17,11 L20,11 L20,8 Z M20,6 C20,4.8954305 19.1045695,4 18,4 L17,4 L17,6 L20,6 Z M4,16 L7,16 L7,13 L4,13 L4,16 Z M4,18 C4,19.1045695 4.8954305,20 6,20 L7,20 L7,18 L4,18 Z M4,11 L7,11 L7,8 L4,8 L4,11 Z M9,11 L15,11 L15,4 L9,4 L9,11 Z M9,13 L9,20 L15,20 L15,13 L9,13 Z M4,6 L7,6 L7,4 L6,4 C4.8954305,4 4,4.8954305 4,6 Z M6,2 L18,2 C20.209139,2 22,3.790861 22,6 L22,18 C22,20.209139 20.209139,22 18,22 L6,22 C3.790861,22 2,20.209139 2,18 L2,6 C2,3.790861 3.790861,2 6,2 Z" id="shape"></path>
        </g>
    </g>
</svg>