<?xml version="1.0" encoding="UTF-8"?>
<svg width="24px" height="24px" viewBox="0 0 24 24" version="1.1" xmlns="http://www.w3.org/2000/svg" xmlns:xlink="http://www.w3.org/1999/xlink">
    <!-- Generator: Sketch 44.1 (41455) - http://www.bohemiancoding.com/sketch -->
    <title>Bold/SVG/filter</title>
    <desc>Created with Sketch.</desc>
    <defs></defs>
    <g id="Bold-Outline" stroke="none" stroke-width="1" fill="none" fill-rule="evenodd">
        <g id="filter" fill-rule="nonzero" fill="#000000">
            <path d="M3.9554504,5.12022655 C3.9554504,5.70406429 4.21056538,6.25875312 4.65384148,6.63871732 L10.2568312,11.4414475 C10.7000888,11.8213958 10.9552019,12.3760551 10.9552223,12.9598685 L10.9554288,18.8819552 L12.9554504,19.881966 L12.9554504,12.9599349 C12.9554504,12.3760851 13.2105759,11.8213861 13.6538677,11.4414217 L19.2570331,6.63870844 C19.7003249,6.25874404 19.9554504,5.70404501 19.9554504,5.12019523 L19.9554504,5 C19.9554504,4.72385763 19.7315928,4.5 19.4554504,4.5 L4.4554504,4.5 C4.17930803,4.5 3.9554504,4.72385763 3.9554504,5 L3.9554504,5.12022655 Z M1.9554504,5.12022655 L1.9554504,5 C1.9554504,3.61928813 3.07473853,2.5 4.4554504,2.5 L19.4554504,2.5 C20.8361623,2.5 21.9554504,3.61928813 21.9554504,5 L21.9554504,5.12019523 C21.9554504,6.28789478 21.4451995,7.39729285 20.5586159,8.15722164 L14.9554504,12.9599349 L14.9554504,19.881966 C14.9554504,20.9865355 14.0600199,21.881966 12.9554504,21.881966 C12.6449602,21.881966 12.3387341,21.8096758 12.0610232,21.6708204 L10.0610017,20.6708096 C9.38345607,20.3320368 8.95545527,19.639544 8.95542885,18.882025 L8.9552223,12.9599382 L3.35223257,8.1572081 C2.46568035,7.3972797 1.9554504,6.28790202 1.9554504,5.12022655 Z" id="shape"></path>
        </g>
    </g>
</svg>