<?xml version="1.0" encoding="UTF-8"?>
<svg width="24px" height="24px" viewBox="0 0 24 24" version="1.1" xmlns="http://www.w3.org/2000/svg" xmlns:xlink="http://www.w3.org/1999/xlink">
    <!-- Generator: Sketch 44.1 (41455) - http://www.bohemiancoding.com/sketch -->
    <title>Bold/SVG/fire</title>
    <desc>Created with Sketch.</desc>
    <defs></defs>
    <g id="Bold-Outline" stroke="none" stroke-width="1" fill="none" fill-rule="evenodd">
        <g id="fire" fill-rule="nonzero" fill="#000000">
            <path d="M3.92121518,9.39698629 C4.14636814,8.8201029 4.83638716,8.58446406 5.36736711,8.90313096 C6.01807006,9.29364947 6.74501577,9.5 7.5,9.5 C9.96491939,9.5 12,7.27991206 12,4.5 C12,3.82555081 11.8800021,3.17151508 11.6503233,2.56494762 C11.3385564,1.74159087 12.1660254,0.946261253 12.9763924,1.29038382 C17.0501352,3.02029999 21,8.8779131 21,14 C21,19.646355 17.3294269,23 12,23 C6.67057307,23 3,19.646355 3,14 C3,12.4914973 3.32138915,10.9338511 3.92121518,9.39698629 Z M5,14 C5,18.4994574 7.73685032,21 12,21 C16.2631497,21 19,18.4994574 19,14 C19,10.4660045 16.6739729,6.3784239 13.9954818,4.2367976 C13.9984902,4.32429944 14,4.41204495 14,4.5 C14,8.34750493 11.1102129,11.5 7.5,11.5 C6.78881645,11.5 6.09375652,11.3766183 5.43616782,11.1398657 C5.14934068,12.1121873 5,13.0745684 5,14 Z M12,19 C11.4477153,19 11,18.5522847 11,18 C11,17.4477153 11.4477153,17 12,17 C13.6568542,17 15,15.6568542 15,14 C15,13.4477153 15.4477153,13 16,13 C16.5522847,13 17,13.4477153 17,14 C17,16.7614237 14.7614237,19 12,19 Z" id="shape"></path>
        </g>
    </g>
</svg>