<?xml version="1.0" encoding="UTF-8"?>
<svg width="24px" height="24px" viewBox="0 0 24 24" version="1.1" xmlns="http://www.w3.org/2000/svg" xmlns:xlink="http://www.w3.org/1999/xlink">
    <!-- Generator: Sketch 44.1 (41455) - http://www.bohemiancoding.com/sketch -->
    <title>Bold/SVG/fish</title>
    <desc>Created with Sketch.</desc>
    <defs></defs>
    <g id="Bold-Outline" stroke="none" stroke-width="1" fill="none" fill-rule="evenodd">
        <g id="fish" fill-rule="nonzero" fill="#000000">
            <path d="M8.70656895,18.4724303 C7.60969038,17.7643144 6.69406554,16.8376284 6.04624588,15.751521 L4.47974765,17.5418047 C3.98573883,18.1063862 3.21732195,18.3470302 2.48952301,18.1650805 C1.41793319,17.8971831 0.766411805,16.8113141 1.03430926,15.7397243 L1.96922359,12.0000669 L1.03430926,8.26040959 C0.852359525,7.53261065 1.09300353,6.76419377 1.65758504,6.27018495 C2.48885831,5.54282085 3.75238354,5.62705586 4.47974765,6.45832912 L6.04619834,8.24855848 C6.69401853,7.16242054 7.6096577,6.2357088 8.70655898,5.52757622 L7.65570743,4.30158275 C6.93686313,3.46293106 7.0339862,2.2003311 7.87263789,1.4814868 C8.23512411,1.17078432 8.69679809,1 9.17422064,1 L12.3944487,1 C13.7318615,1 14.9807868,1.66840454 15.7226499,2.78119922 L16.7979929,4.39421371 C20.3860216,5.43582207 23,8.4278466 23,12 C23,16.3225881 19.172374,19.7956986 14.422924,19.9913077 L12.5857864,21.8284453 C11.8356409,22.5785908 10.8182253,23.0000181 9.75735931,23.0000181 L9,23.0000181 C8.54170543,23.0000181 8.09852845,22.8360763 7.75056527,22.5378221 C6.94551423,21.8477784 6.8522824,20.6357646 7.54232614,19.8307136 L8.70656895,18.4724303 Z M10.5528768,19.3915859 L9.17422064,21.0000181 L9.75735931,21.0000181 C10.2877923,21.0000181 10.7965001,20.7893044 11.1715729,20.4142317 L11.8223648,19.7634398 C11.3868129,19.6671274 10.9626625,19.5425011 10.5528768,19.3915859 Z M10.552865,4.60841845 C11.62171,4.21478436 12.7882824,4 14,4 C14.0440867,4 14.0881029,4.00028238 14.1320464,4.00084525 L14.0585493,3.89059961 C13.6876178,3.33420227 13.0631551,3 12.3944487,3 L9.17422064,3 L10.552865,4.60841845 Z M7.25915257,13.6214603 C8.09498026,16.1726125 10.8256621,18 14,18 C17.8934883,18 21,15.2818023 21,12 C21,8.71819772 17.8934883,6 14,6 C10.8256253,6 8.09492048,7.82742943 7.25912574,10.3786216 C7.01783287,11.1151475 6.06661636,11.3090779 5.55624656,10.7257981 L2.97459426,7.77533834 L3.9701425,11.7575313 C4.0099525,11.9167713 4.0099525,12.0833626 3.9701425,12.2426026 L2.97459426,16.2247955 L5.55627846,13.2742993 C6.06664348,12.691025 7.01784997,12.8849452 7.25915257,13.6214603 Z M17,11 C16.4477153,11 16,10.5522847 16,10 C16,9.44771525 16.4477153,9 17,9 C17.5522847,9 18,9.44771525 18,10 C18,10.5522847 17.5522847,11 17,11 Z" id="shape"></path>
        </g>
    </g>
</svg>