<?xml version="1.0" encoding="UTF-8"?>
<svg width="24px" height="24px" viewBox="0 0 24 24" version="1.1" xmlns="http://www.w3.org/2000/svg" xmlns:xlink="http://www.w3.org/1999/xlink">
    <!-- Generator: Sketch 44.1 (41455) - http://www.bohemiancoding.com/sketch -->
    <title>Bold/SVG/flash</title>
    <desc>Created with Sketch.</desc>
    <defs></defs>
    <g id="Bold-Outline" stroke="none" stroke-width="1" fill="none" fill-rule="evenodd">
        <g id="flash" fill-rule="nonzero" fill="#000000">
            <path d="M10.2076796,14.5 L6.74074803,14.5 C6.59790452,14.5 6.45547204,14.4846969 6.31588874,14.4543527 C5.23652953,14.2197094 4.55175199,13.1544999 4.7863953,12.0751407 L6.85161269,2.57514071 C7.05147723,1.65576384 7.86511492,1 8.80596542,1 L17,1 C17.7566752,1 18.2392107,1.80786915 17.8804711,2.47409982 L15.1742172,7.5 L17.7009178,7.5 C18.0741033,7.5 18.4398451,7.60441201 18.756786,7.80142935 C19.6948807,8.38456928 19.9826284,9.61777358 19.3994884,10.5558682 L12.313193,21.955561 C11.851219,22.6987366 10.9597533,23.0552935 10.112698,22.8356865 C9.04347814,22.5584814 8.40142336,21.4669883 8.67862851,20.3977684 L10.2076796,14.5 Z M8.80596542,3 L6.74074803,12.5 L11.5,12.5 C12.1541635,12.5 12.6321672,13.1177339 12.4679969,13.7509622 L10.6146223,20.8996927 L17.7009178,9.5 L13.5,9.5 C12.7433248,9.5 12.2607893,8.69213085 12.6195289,8.02590018 L15.3257828,3 L8.80596542,3 Z" id="shape"></path>
        </g>
    </g>
</svg>