<?xml version="1.0" encoding="UTF-8"?>
<svg width="24px" height="24px" viewBox="0 0 24 24" version="1.1" xmlns="http://www.w3.org/2000/svg" xmlns:xlink="http://www.w3.org/1999/xlink">
    <!-- Generator: Sketch 44.1 (41455) - http://www.bohemiancoding.com/sketch -->
    <title>Bold/SVG/flip-vertical</title>
    <desc>Created with Sketch.</desc>
    <defs></defs>
    <g id="Bold-Outline" stroke="none" stroke-width="1" fill="none" fill-rule="evenodd">
        <g id="flip-vertical" fill-rule="nonzero" fill="#000000">
            <path d="M2,13 C1.44771525,13 1,12.5522847 1,12 C1,11.4477153 1.44771525,11 2,11 L22,11 C22.5522847,11 23,11.4477153 23,12 C23,12.5522847 22.5522847,13 22,13 L2,13 Z M6.99989047,9.99989047 C5.89532097,9.99989047 4.99989047,9.10445997 4.99989047,7.99989047 L4.99989047,2.61792446 C4.99989047,1.51335496 5.89532097,0.61792446 6.99989047,0.61792446 C7.31038066,0.61792446 7.61660679,0.690214644 7.89431766,0.829070078 L18.6582497,6.21103609 C19.6462067,6.70501459 20.0466554,7.90636067 19.5526769,8.89431766 C19.2138928,9.57188572 18.5213666,9.99989047 17.7638225,9.99989047 L6.99989047,9.99989047 Z M17.7638225,13.9998905 C18.5213666,13.9998905 19.2138928,14.4278952 19.5526769,15.1054633 C20.0466554,16.0934203 19.6462067,17.2947664 18.6582497,17.7887449 L7.89431766,23.1707109 C7.61660679,23.3095663 7.31038066,23.3818565 6.99989047,23.3818565 C5.89532097,23.3818565 4.99989047,22.486426 4.99989047,21.3818565 L4.99989047,15.9998905 C4.99989047,14.895321 5.89532097,13.9998905 6.99989047,13.9998905 L17.7638225,13.9998905 Z M6.99989047,2.61792446 L6.99989047,7.99989047 L17.7638225,7.99989047 L6.99989047,2.61792446 Z M6.99989047,21.3818565 L17.7638225,15.9998905 L6.99989047,15.9998905 L6.99989047,21.3818565 Z" id="Combined-Shape"></path>
        </g>
    </g>
</svg>