<?xml version="1.0" encoding="UTF-8"?>
<svg width="24px" height="24px" viewBox="0 0 24 24" version="1.1" xmlns="http://www.w3.org/2000/svg" xmlns:xlink="http://www.w3.org/1999/xlink">
    <!-- Generator: Sketch 44.1 (41455) - http://www.bohemiancoding.com/sketch -->
    <title>Bold/SVG/food</title>
    <desc>Created with Sketch.</desc>
    <defs></defs>
    <g id="Bold-Outline" stroke="none" stroke-width="1" fill="none" fill-rule="evenodd">
        <g id="food" fill-rule="nonzero" fill="#000000">
            <path d="M7.5,3 L6.5,3 L6.5,6 C6.5,6.55228475 6.05228475,7 5.5,7 C4.94771525,7 4.5,6.55228475 4.5,6 L4.5,3.26756439 C3.90219863,3.61337381 3.5,4.25971764 3.5,5 L3.5,8.55812546 C3.5,9.1656929 3.77617944,9.7403187 4.2506099,10.1198631 L5.2493901,10.9188872 C5.72382056,11.2984316 6,11.8730574 6,12.4806248 L6,20 C6,20.5522847 6.44771525,21 7,21 C7.55228475,21 8,20.5522847 8,20 L8,12.4806248 C8,11.8730574 8.27617944,11.2984316 8.7506099,10.9188872 L9.7493901,10.1198631 C10.2238206,9.7403187 10.5,9.1656929 10.5,8.55812546 L10.5,5 C10.5,4.25971764 10.0978014,3.61337381 9.5,3.26756439 L9.5,6 C9.5,6.55228475 9.05228475,7 8.5,7 C7.94771525,7 7.5,6.55228475 7.5,6 L7.5,3 Z M16.5,15 C14.8431458,15 13.5,13.6568542 13.5,12 L13.5,8 C13.5,4.13400675 16.6340068,1 20.5,1 L21.5,1 C22.0522847,1 22.5,1.44771525 22.5,2 L22.5,20 C22.5,21.6568542 21.1568542,23 19.5,23 C17.8431458,23 16.5,21.6568542 16.5,20 L16.5,15 Z M15.5,8 L15.5,12 C15.5,12.5522847 15.9477153,13 16.5,13 L17.5,13 C18.0522847,13 18.5,13.4477153 18.5,14 L18.5,20 C18.5,20.5522847 18.9477153,21 19.5,21 C20.0522847,21 20.5,20.5522847 20.5,20 L20.5,3 C17.7385763,3 15.5,5.23857625 15.5,8 Z M5.5,1 L8.5,1 C10.709139,1 12.5,2.790861 12.5,5 L12.5,8.55812546 C12.5,9.77326035 11.9476411,10.9225119 10.9987802,11.6816007 L10,12.4806248 L10,20 C10,21.6568542 8.65685425,23 7,23 C5.34314575,23 4,21.6568542 4,20 L4,12.4806248 L3.00121981,11.6816007 C2.05235888,10.9225119 1.5,9.77326035 1.5,8.55812546 L1.5,5 C1.5,2.790861 3.290861,1 5.5,1 Z" id="shape"></path>
        </g>
    </g>
</svg>