<?xml version="1.0" encoding="UTF-8"?>
<svg width="24px" height="24px" viewBox="0 0 24 24" version="1.1" xmlns="http://www.w3.org/2000/svg" xmlns:xlink="http://www.w3.org/1999/xlink">
    <!-- Generator: Sketch 44.1 (41455) - http://www.bohemiancoding.com/sketch -->
    <title>Bold/SVG/fridge</title>
    <desc>Created with Sketch.</desc>
    <defs></defs>
    <g id="Bold-Outline" stroke="none" stroke-width="1" fill="none" fill-rule="evenodd">
        <g id="fridge" fill-rule="nonzero" fill="#000000">
            <path d="M19,10.5 L19,5 C19,3.8954305 18.1045695,3 17,3 L7,3 C5.8954305,3 5,3.8954305 5,5 L5,10.5 L19,10.5 Z M19,12.5 L5,12.5 L5,19 C5,20.1045695 5.8954305,21 7,21 L17,21 C18.1045695,21 19,20.1045695 19,19 L19,12.5 Z M7,1 L17,1 C19.209139,1 21,2.790861 21,5 L21,19 C21,21.209139 19.209139,23 17,23 L7,23 C4.790861,23 3,21.209139 3,19 L3,5 C3,2.790861 4.790861,1 7,1 Z M7,15 C7,14.4477153 7.44771525,14 8,14 C8.55228475,14 9,14.4477153 9,15 L9,18 C9,18.5522847 8.55228475,19 8,19 C7.44771525,19 7,18.5522847 7,18 L7,15 Z M7,6 C7,5.44771525 7.44771525,5 8,5 C8.55228475,5 9,5.44771525 9,6 L9,8 C9,8.55228475 8.55228475,9 8,9 C7.44771525,9 7,8.55228475 7,8 L7,6 Z" id="shape"></path>
        </g>
    </g>
</svg>