<?xml version="1.0" encoding="UTF-8"?>
<svg width="24px" height="24px" viewBox="0 0 24 24" version="1.1" xmlns="http://www.w3.org/2000/svg" xmlns:xlink="http://www.w3.org/1999/xlink">
    <!-- Generator: Sketch 44.1 (41455) - http://www.bohemiancoding.com/sketch -->
    <title>Bold/SVG/fullscreen</title>
    <desc>Created with Sketch.</desc>
    <defs></defs>
    <g id="Bold-Outline" stroke="none" stroke-width="1" fill="none" fill-rule="evenodd">
        <g id="fullscreen" fill-rule="nonzero" fill="#000000">
            <path d="M2,8.58578644 L2,4 C2,2.8954305 2.8954305,2 4,2 L8.58578644,2 C9.69035594,2 10.5857864,2.8954305 10.5857864,4 C10.5857864,4.53043298 10.3750728,5.03914081 10,5.41421356 L5.41421356,10 C4.63316498,10.7810486 3.36683502,10.7810486 2.58578644,10 C2.21071368,9.62492724 2,9.11621942 2,8.58578644 Z M4,8.58578644 L8.58578644,4 L4,4 L4,8.58578644 Z M15.4142136,2 L20,2 C21.1045695,2 22,2.8954305 22,4 L22,8.58578644 C22,9.69035594 21.1045695,10.5857864 20,10.5857864 C19.469567,10.5857864 18.9608592,10.3750728 18.5857864,10 L14,5.41421356 C13.2189514,4.63316498 13.2189514,3.36683502 14,2.58578644 C14.3750728,2.21071368 14.8837806,2 15.4142136,2 Z M15.4142136,4 L20,8.58578644 L20,4 L15.4142136,4 Z M22,15.4142136 L22,20 C22,21.1045695 21.1045695,22 20,22 L15.4142136,22 C14.3096441,22 13.4142136,21.1045695 13.4142136,20 C13.4142136,19.469567 13.6249272,18.9608592 14,18.5857864 L18.5857864,14 C19.366835,13.2189514 20.633165,13.2189514 21.4142136,14 C21.7892863,14.3750728 22,14.8837806 22,15.4142136 Z M15.4142136,20 L20,20 L20,15.4142136 L15.4142136,20 Z M8.58578644,22 L4,22 C2.8954305,22 2,21.1045695 2,20 L2,15.4142136 C2,14.3096441 2.8954305,13.4142136 4,13.4142136 C4.53043298,13.4142136 5.03914081,13.6249272 5.41421356,14 L10,18.5857864 C10.7810486,19.366835 10.7810486,20.633165 10,21.4142136 C9.62492724,21.7892863 9.11621942,22 8.58578644,22 Z M8.58578644,20 L4,15.4142136 L4,20 L8.58578644,20 Z" id="shape"></path>
        </g>
    </g>
</svg>