<?xml version="1.0" encoding="UTF-8"?>
<svg width="24px" height="24px" viewBox="0 0 24 24" version="1.1" xmlns="http://www.w3.org/2000/svg" xmlns:xlink="http://www.w3.org/1999/xlink">
    <!-- Generator: Sketch 44.1 (41455) - http://www.bohemiancoding.com/sketch -->
    <title>Bold/SVG/fullscreen-exit</title>
    <desc>Created with Sketch.</desc>
    <defs></defs>
    <g id="Bold-Outline" stroke="none" stroke-width="1" fill="none" fill-rule="evenodd">
        <g id="fullscreen-exit" fill-rule="nonzero" fill="#000000">
            <path d="M10,3.41421356 L10,8 C10,9.1045695 9.1045695,10 8,10 L3.41421356,10 C2.30964406,10 1.41421356,9.1045695 1.41421356,8 C1.41421356,7.46956702 1.62492724,6.96085919 2,6.58578644 L6.58578644,2 C7.36683502,1.21895142 8.63316498,1.21895142 9.41421356,2 C9.78928632,2.37507276 10,2.88378058 10,3.41421356 Z M3.41421356,8 L8,8 L8,3.41421356 L3.41421356,8 Z M20.5857864,10 L16,10 C14.8954305,10 14,9.1045695 14,8 L14,3.41421356 C14,2.30964406 14.8954305,1.41421356 16,1.41421356 C16.530433,1.41421356 17.0391408,1.62492724 17.4142136,2 L22,6.58578644 C22.7810486,7.36683502 22.7810486,8.63316498 22,9.41421356 C21.6249272,9.78928632 21.1162194,10 20.5857864,10 Z M16,3.41421356 L16,8 L20.5857864,8 L16,3.41421356 Z M14,20.5857864 L14,16 C14,14.8954305 14.8954305,14 16,14 L20.5857864,14 C21.6903559,14 22.5857864,14.8954305 22.5857864,16 C22.5857864,16.530433 22.3750728,17.0391408 22,17.4142136 L17.4142136,22 C16.633165,22.7810486 15.366835,22.7810486 14.5857864,22 C14.2107137,21.6249272 14,21.1162194 14,20.5857864 Z M20.5857864,16 L16,16 L16,20.5857864 L20.5857864,16 Z M8,14 C9.1045695,14 10,14.8954305 10,16 L10,20.5857864 C10,21.6903559 9.1045695,22.5857864 8,22.5857864 C7.46956702,22.5857864 6.96085919,22.3750728 6.58578644,22 L2,17.4142136 C1.21895142,16.633165 1.21895142,15.366835 2,14.5857864 C2.37507276,14.2107137 2.88378058,14 3.41421356,14 L8,14 Z M3.41421356,16 L8,20.5857864 L8,16 L3.41421356,16 Z" id="shape"></path>
        </g>
    </g>
</svg>