<?xml version="1.0" encoding="UTF-8"?>
<svg width="24px" height="24px" viewBox="0 0 24 24" version="1.1" xmlns="http://www.w3.org/2000/svg" xmlns:xlink="http://www.w3.org/1999/xlink">
    <!-- Generator: Sketch 44.1 (41455) - http://www.bohemiancoding.com/sketch -->
    <title>Bold/SVG/gas-station</title>
    <desc>Created with Sketch.</desc>
    <defs></defs>
    <g id="Bold-Outline" stroke="none" stroke-width="1" fill="none" fill-rule="evenodd">
        <g id="gas-station" fill-rule="nonzero" fill="#000000">
            <path d="M20.955636,6.04142244 C22.1187863,6.25561179 23,7.27489665 23,8.5 L23,9.5 C23,10.5251595 22.3829524,11.4061998 21.5,11.7919782 L21.5,15 C21.5,17.209139 19.709139,19 17.5,19 L16.5,19 L16.5,21.5 C16.5,22.0522847 16.0522847,22.5 15.5,22.5 L2.5,22.5 C1.94771525,22.5 1.5,22.0522847 1.5,21.5 L1.5,5.5 C1.5,3.290861 3.290861,1.5 5.5,1.5 L12.5,1.5 C14.709139,1.5 16.5,3.290861 16.5,5.5 L16.5,17 L17.5,17 C18.6045695,17 19.5,16.1045695 19.5,15 L19.5,11.7919782 C18.6170476,11.4061998 18,10.5251595 18,9.5 L18,8.5 C18,7.78782473 18.2977896,7.14520194 18.7756435,6.68985704 L17.7928932,5.70710678 C17.4023689,5.31658249 17.4023689,4.68341751 17.7928932,4.29289322 C18.1834175,3.90236893 18.8165825,3.90236893 19.2071068,4.29289322 L20.955636,6.04142244 Z M3.5,20.5 L14.5,20.5 L14.5,5.5 C14.5,4.3954305 13.6045695,3.5 12.5,3.5 L5.5,3.5 C4.3954305,3.5 3.5,4.3954305 3.5,5.5 L3.5,20.5 Z M8,5 L10,5 C11.6568542,5 13,6.34314575 13,8 C13,9.65685425 11.6568542,11 10,11 L8,11 C6.34314575,11 5,9.65685425 5,8 C5,6.34314575 6.34314575,5 8,5 Z M8,7 C7.44771525,7 7,7.44771525 7,8 C7,8.55228475 7.44771525,9 8,9 L10,9 C10.5522847,9 11,8.55228475 11,8 C11,7.44771525 10.5522847,7 10,7 L8,7 Z M20.5,8 C20.2238576,8 20,8.22385763 20,8.5 L20,9.5 C20,9.77614237 20.2238576,10 20.5,10 C20.7761424,10 21,9.77614237 21,9.5 L21,8.5 C21,8.22385763 20.7761424,8 20.5,8 Z" id="Combined-Shape"></path>
        </g>
    </g>
</svg>