<?xml version="1.0" encoding="UTF-8"?>
<svg width="24px" height="24px" viewBox="0 0 24 24" version="1.1" xmlns="http://www.w3.org/2000/svg" xmlns:xlink="http://www.w3.org/1999/xlink">
    <!-- Generator: Sketch 44.1 (41455) - http://www.bohemiancoding.com/sketch -->
    <title>Bold/SVG/ghost</title>
    <desc>Created with Sketch.</desc>
    <defs></defs>
    <g id="Bold-Outline" stroke="none" stroke-width="1" fill="none" fill-rule="evenodd">
        <g id="ghost" fill-rule="nonzero" fill="#000000">
            <path d="M21,10 L21,20.6951139 C21,21.8328744 20.0776629,22.7552115 18.9399024,22.7552115 C18.4481339,22.7552115 17.9725871,22.5792953 17.5992086,22.2592566 L17.2881475,21.9926328 C16.7021847,21.4903789 15.8795299,21.370082 15.1742879,21.6835229 L13.7941624,22.296912 C12.6306793,22.8140156 11.2905173,22.7463324 10.1850528,22.1146384 L9.61367238,21.7881353 C8.95593989,21.4122882 8.14230891,21.4403111 7.51199411,21.860521 L6.8047002,22.3320503 C5.68013039,23.0817635 4.16072381,22.7778822 3.41101061,21.6533124 C3.14301096,21.2513129 3,20.7789798 3,20.2958365 L3,10 C3,5.02943725 7.02943725,1 12,1 C16.9705627,1 21,5.02943725 21,10 Z M5,10 L5,20.2958365 C5,20.3841298 5.02613491,20.4704475 5.0751112,20.543912 C5.21211948,20.7494244 5.48978738,20.804958 5.6952998,20.6679497 L6.40259372,20.1964204 C7.66322333,19.3560007 9.29048529,19.2999548 10.6059503,20.051649 L11.1773306,20.3781521 C11.7300629,20.6939991 12.4001439,20.7278407 12.9818855,20.4692889 L14.3620109,19.8558998 C15.7724949,19.2290181 17.4178045,19.4696118 18.5897303,20.4741196 L18.9007914,20.7407434 C18.9730934,20.7552115 19,20.7283049 19,20.6951139 L19,10 C19,6.13400675 15.8659932,3 12,3 C8.13400675,3 5,6.13400675 5,10 Z M8.5,11 C7.94771525,11 7.5,10.5522847 7.5,10 C7.5,9.44771525 7.94771525,9 8.5,9 C9.05228475,9 9.5,9.44771525 9.5,10 C9.5,10.5522847 9.05228475,11 8.5,11 Z M15.5,11 C14.9477153,11 14.5,10.5522847 14.5,10 C14.5,9.44771525 14.9477153,9 15.5,9 C16.0522847,9 16.5,9.44771525 16.5,10 C16.5,10.5522847 16.0522847,11 15.5,11 Z" id="shape"></path>
        </g>
    </g>
</svg>