<?xml version="1.0" encoding="UTF-8"?>
<svg width="24px" height="24px" viewBox="0 0 24 24" version="1.1" xmlns="http://www.w3.org/2000/svg" xmlns:xlink="http://www.w3.org/1999/xlink">
    <!-- Generator: Sketch 44.1 (41455) - http://www.bohemiancoding.com/sketch -->
    <title>Bold/SVG/glass</title>
    <desc>Created with Sketch.</desc>
    <defs></defs>
    <g id="Bold-Outline" stroke="none" stroke-width="1" fill="none" fill-rule="evenodd">
        <g id="glass" fill-rule="nonzero" fill="#000000">
            <path d="M1,13 C0.44771525,13 0,12.5522847 0,12 C0,11.4477153 0.44771525,11 1,11 C1,8.790861 2.790861,7 5,7 L7,7 C9.209139,7 11,8.790861 11,11 L13,11 C13,8.790861 14.790861,7 17,7 L19,7 C21.209139,7 23,8.790861 23,11 C23.5522847,11 24,11.4477153 24,12 C24,12.5522847 23.5522847,13 23,13 C23,15.209139 21.209139,17 19,17 L17,17 C14.790861,17 13,15.209139 13,13 L11,13 C11,15.209139 9.209139,17 7,17 L5,17 C2.790861,17 1,15.209139 1,13 Z M5,9 C3.8954305,9 3,9.8954305 3,11 L3,13 C3,14.1045695 3.8954305,15 5,15 L7,15 C8.1045695,15 9,14.1045695 9,13 L9,11 C9,9.8954305 8.1045695,9 7,9 L5,9 Z M17,9 C15.8954305,9 15,9.8954305 15,11 L15,13 C15,14.1045695 15.8954305,15 17,15 L19,15 C20.1045695,15 21,14.1045695 21,13 L21,11 C21,9.8954305 20.1045695,9 19,9 L17,9 Z" id="shape"></path>
        </g>
    </g>
</svg>