<?xml version="1.0" encoding="UTF-8"?>
<svg width="24px" height="24px" viewBox="0 0 24 24" version="1.1" xmlns="http://www.w3.org/2000/svg" xmlns:xlink="http://www.w3.org/1999/xlink">
    <!-- Generator: Sketch 44.1 (41455) - http://www.bohemiancoding.com/sketch -->
    <title>Bold/SVG/health</title>
    <desc>Created with Sketch.</desc>
    <defs></defs>
    <g id="Bold-Outline" stroke="none" stroke-width="1" fill="none" fill-rule="evenodd">
        <g id="health" fill-rule="nonzero" fill="#000000">
            <path d="M22.6964302,10.5 L23,10.5 C23.5522847,10.5 24,10.9477153 24,11.5 C24,12.0522847 23.5522847,12.5 23,12.5 L21.9307344,12.5 C20.4719279,15.4317312 17.5270552,18.401975 13.1368556,21.4351719 C12.4526605,21.9078836 11.5473393,21.9078836 10.8631443,21.4351719 C6.47294472,18.4019749 3.52807205,15.4317312 2.06926564,12.5 L1,12.5 C0.44771525,12.5 6.96541129e-15,12.0522847 0,11.5 C-6.96541129e-15,10.9477153 0.44771525,10.5 1,10.5 L1.30356975,10.5 C1.10142728,9.74337844 1,8.98897539 1,8.23636364 C1,4.69521141 3.4644662,2 7,2 C9.04864327,2 10.5202044,2.84280641 12,4.45715958 C13.4797956,2.84280641 14.9513567,2 17,2 C20.5355338,2 23,4.69521141 23,8.23636364 C23,8.98897539 22.8985727,9.74337844 22.6964302,10.5 Z M20.6044136,10.5 C20.8685572,9.729109 21,8.974312 21,8.23636364 C21,5.76180755 19.3890261,4 17,4 C15.36819,4 14.2000346,4.84432467 12.7819672,6.62331953 C12.3816226,7.12556016 11.6183774,7.12556016 11.2180328,6.62331953 C9.79996539,4.84432467 8.63181001,4 7,4 C4.61097388,4 3,5.76180755 3,8.23636364 C3,8.974312 3.13144282,9.729109 3.39558638,10.5 L5.92963248,10.5 C6.26398567,10.5 6.576217,10.3328989 6.76168278,10.0547002 L7.66794971,8.6952998 C8.37947246,7.62801568 9.82148034,7.3396141 10.8887645,8.05113685 C11.3185033,8.33762944 11.640489,8.75918923 11.8038149,9.24916694 L13.0935517,13.1183775 C13.1498866,13.287382 13.3325602,13.3787188 13.5015647,13.322384 C13.5696138,13.2997009 13.628161,13.2549829 13.6679497,13.1952998 L14.5742166,11.8358994 C15.130614,11.0013034 16.067308,10.5 17.0703675,10.5 L20.6044136,10.5 Z M19.6425645,12.5 L17.0703675,12.5 C16.7360143,12.5 16.423783,12.6671011 16.2383172,12.9452998 L15.3320503,14.3047002 C15.0455577,14.7344391 14.6239979,15.0564247 14.1340202,15.2197506 C12.9171291,15.625381 11.6018155,14.9677242 11.1961851,13.7508331 L9.90644827,9.88162247 C9.88376521,9.8135733 9.83904715,9.75502616 9.77936408,9.71523744 C9.63113733,9.61641961 9.43086813,9.65647345 9.33205029,9.8047002 L8.42578337,11.1641006 C7.86938603,11.9986966 6.93269205,12.5 5.92963248,12.5 L4.35743552,12.5 C5.77619705,14.8067659 8.31357909,17.2427507 12.0000001,19.7897057 C15.6864209,17.2427507 18.223803,14.8067659 19.6425645,12.5 Z" id="shape"></path>
        </g>
    </g>
</svg>