<?xml version="1.0" encoding="UTF-8"?>
<svg width="24px" height="24px" viewBox="0 0 24 24" version="1.1" xmlns="http://www.w3.org/2000/svg" xmlns:xlink="http://www.w3.org/1999/xlink">
    <!-- Generator: Sketch 44.1 (41455) - http://www.bohemiancoding.com/sketch -->
    <title>Bold/SVG/high-heels</title>
    <desc>Created with Sketch.</desc>
    <defs></defs>
    <g id="Bold-Outline" stroke="none" stroke-width="1" fill="none" fill-rule="evenodd">
        <g id="high-heels" fill-rule="nonzero" fill="#000000">
            <path d="M3,5.05774364 L3,9.75735931 C3,10.2877923 3.21071368,10.7965001 3.58578644,11.1715729 L4.70710678,12.2928932 C4.89464316,12.4804296 5,12.7347835 5,13 L5,18.5 C5,18.7761424 5.22385763,19 5.5,19 C5.77614237,19 6,18.7761424 6,18.5 L6,13.9990234 C6,13.2002224 6.8903549,12.7238525 7.55489418,13.1671025 L16.0478308,18.8319209 C16.2121389,18.941515 16.4052206,19 16.602725,19 L20,19 C21.1045695,19 22,18.1045695 22,17 C22,15.8954305 21.1045695,15 20,15 L16.6887651,15 C16.0164634,15 15.3636469,14.7741758 14.8350482,14.3587568 L3,5.05774364 Z M3,13.4142136 L2.17157288,12.5857864 C1.42142736,11.8356409 1,10.8182253 1,9.75735931 L1,5.05774364 C1,3.95317414 1.8954305,3.05774364 3,3.05774364 C3.44820111,3.05774364 3.8834121,3.2082931 4.23581124,3.48523908 L16.0708594,12.7862523 C16.247059,12.9247253 16.4646645,13 16.6887651,13 L20,13 C22.209139,13 24,14.790861 24,17 C24,19.209139 22.209139,21 20,21 L16.602725,21 C16.0102118,21 15.4309666,20.824545 14.9380425,20.4957628 L8,15.8680642 L8,18.5 C8,19.8807119 6.88071187,21 5.5,21 C4.11928813,21 3,19.8807119 3,18.5 L3,13.4142136 Z" id="Rectangle-123"></path>
        </g>
    </g>
</svg>