<?xml version="1.0" encoding="UTF-8"?>
<svg width="24px" height="24px" viewBox="0 0 24 24" version="1.1" xmlns="http://www.w3.org/2000/svg" xmlns:xlink="http://www.w3.org/1999/xlink">
    <!-- Generator: Sketch 44.1 (41455) - http://www.bohemiancoding.com/sketch -->
    <title>Bold/SVG/hourglass</title>
    <desc>Created with Sketch.</desc>
    <defs></defs>
    <g id="Bold-Outline" stroke="none" stroke-width="1" fill="none" fill-rule="evenodd">
        <g id="hourglass" fill-rule="nonzero" fill="#000000">
            <path d="M14.7981496,15 L13.90755,13.6641006 C13.2357511,12.6564024 13.2357511,11.3435976 13.90755,10.3358994 L17.0950161,5.5547002 C17.2045278,5.39043268 17.2629658,5.19742499 17.2629658,5 C17.2629658,4.44771525 16.8152506,4 16.2629658,4 L7.73703418,4 C7.5396092,4 7.3466015,4.05843803 7.18233399,4.16794971 C6.7228053,4.47430216 6.59863143,5.09517151 6.90498389,5.5547002 L10.09245,10.3358994 C10.7642489,11.3435976 10.7642489,12.6564024 10.09245,13.6641006 L9.20185043,15 L14.7981496,15 Z M16.1262229,16.99211 C16.0848814,16.9973169 16.042754,17 16,17 L8,17 C7.95724597,17 7.9151186,16.9973169 7.87377708,16.99211 L6.90498389,18.4452998 C6.79547221,18.6095673 6.73703418,18.802575 6.73703418,19 C6.73703418,19.5522847 7.18474943,20 7.73703418,20 L16.2629658,20 C16.4603908,20 16.6533985,19.941562 16.817666,19.8320503 C17.2771947,19.5256978 17.4013686,18.9048285 17.0950161,18.4452998 L16.1262229,16.99211 Z M19.0915805,20 L20,20 C20.5522847,20 21,20.4477153 21,21 C21,21.5522847 20.5522847,22 20,22 L4,22 C3.44771525,22 3,21.5522847 3,21 C3,20.4477153 3.44771525,20 4,20 L4.90773989,20 C4.7971884,19.6872211 4.73703418,19.3506354 4.73703418,19 C4.73703418,18.407725 4.91234827,17.828702 5.2408833,17.3358994 L8.42834944,12.5547002 C8.65228238,12.2188008 8.65228238,11.7811992 8.42834944,11.4452998 L5.2408833,6.66410059 C4.69616374,5.84702125 4.60515764,4.85991183 4.90841945,4 L4,4 C3.44771525,4 3,3.55228475 3,3 C3,2.44771525 3.44771525,2 4,2 L20,2 C20.5522847,2 21,2.44771525 21,3 C21,3.55228475 20.5522847,4 20,4 L19.0922601,4 C19.2028116,4.31277893 19.2629658,4.64936458 19.2629658,5 C19.2629658,5.59227496 19.0876517,6.17129804 18.7591167,6.66410059 L15.5716506,11.4452998 C15.3477176,11.7811992 15.3477176,12.2188008 15.5716506,12.5547002 L18.7591167,17.3358994 C19.3038363,18.1529788 19.3948424,19.1400882 19.0915805,20 Z" id="Combined-Shape"></path>
        </g>
    </g>
</svg>