<?xml version="1.0" encoding="UTF-8"?>
<svg width="24px" height="24px" viewBox="0 0 24 24" version="1.1" xmlns="http://www.w3.org/2000/svg" xmlns:xlink="http://www.w3.org/1999/xlink">
    <!-- Generator: Sketch 44.1 (41455) - http://www.bohemiancoding.com/sketch -->
    <title>Bold/SVG/icecream</title>
    <desc>Created with Sketch.</desc>
    <defs></defs>
    <g id="Bold-Outline" stroke="none" stroke-width="1" fill="none" fill-rule="evenodd">
        <g id="icecream" fill-rule="nonzero" fill="#000000">
            <path d="M14.5276464,17.4704149 L4.39983992,22.2541363 C3.40107809,22.7258869 2.20899227,22.2986598 1.73724171,21.299898 C1.48179939,20.7590909 1.48179939,20.1323452 1.73724171,19.5915381 L6.52083945,9.46399357 C6.45833154,9.4108772 6.39768137,9.35499093 6.33907567,9.29638522 L5.91408411,8.87139366 C5.59874097,8.55605053 5.41324273,8.1338338 5.39428809,7.68827426 C5.35250065,6.7059926 6.11492185,5.87582057 7.09720351,5.83403313 L7.43502339,5.81966187 C7.83364109,4.94774364 8.38970977,4.14443379 9.08318367,3.45095989 C12.2476817,0.286461816 17.3783469,0.286461816 20.5428449,3.45095989 C23.707343,6.61545796 23.707343,11.7461231 20.5428449,14.9106211 C19.8455402,15.6079259 19.0469913,16.1567395 18.1675627,16.5529575 L18.1541881,16.893149 C18.1366247,17.3398876 17.9512896,17.7635848 17.6351537,18.0797207 C16.941279,18.7735954 15.8162858,18.7735954 15.1224112,18.0797207 L14.6974196,17.6547292 C14.6380171,17.5953267 14.5814085,17.5338238 14.5276464,17.4704149 Z M13.8069677,15.5989392 C13.8001808,15.3877949 13.8153464,15.1747507 13.8533729,14.9631661 L12.5078707,15.0801663 C12.3165393,15.0968038 12.1241249,15.0968038 11.9327935,15.0801663 C10.1065571,14.9213631 8.75483536,13.3121706 8.91363853,11.4859342 L9.03063872,10.1404319 C8.81787871,10.1786696 8.60364291,10.1937918 8.39134692,10.186722 L3.54565997,20.4457181 L13.8069677,15.5989392 Z M16.1945406,15.8274524 C16.2106342,15.4180982 16.4747789,15.0599632 16.8611188,14.9236863 C17.7169167,14.6218138 18.4787708,14.1462681 19.1286314,13.4964076 C21.5120809,11.1129581 21.5120809,7.24862294 19.1286314,4.86517345 C16.7451819,2.48172396 12.8808467,2.48172396 10.4973972,4.86517345 C9.84849795,5.51407274 9.36022387,6.28810886 9.06024146,7.12788716 C8.92331211,7.51121062 8.56770245,7.77328528 8.16102418,7.79058586 L7.68207836,7.81096079 L7.75328923,7.88217166 C8.01618203,8.14506447 8.39892552,8.24853884 8.75847085,8.15392165 C9.73425768,7.89713564 10.7334554,8.48000097 10.9902414,9.4557878 C11.0436974,9.65892074 11.0617234,9.86975068 11.043527,10.0790099 L10.9061197,11.6591934 C10.843005,12.3850128 11.3802333,13.0245704 12.1060527,13.0876851 C12.1820955,13.0942975 12.2585687,13.0942975 12.3346114,13.0876851 L13.9147949,12.9502779 C14.9200105,12.8628678 15.8057587,13.6068962 15.8931687,14.6121119 C15.9113652,14.8213711 15.8933392,15.032201 15.8398832,15.235334 C15.745266,15.5948793 15.8487404,15.9776228 16.1116332,16.2405156 L16.1757793,16.3046617 L16.1945406,15.8274524 Z" id="shape"></path>
        </g>
    </g>
</svg>