<?xml version="1.0" encoding="UTF-8"?>
<svg width="24px" height="24px" viewBox="0 0 24 24" version="1.1" xmlns="http://www.w3.org/2000/svg" xmlns:xlink="http://www.w3.org/1999/xlink">
    <!-- Generator: Sketch 44.1 (41455) - http://www.bohemiancoding.com/sketch -->
    <title>Bold/SVG/inbox</title>
    <desc>Created with Sketch.</desc>
    <defs></defs>
    <g id="Bold-Outline" stroke="none" stroke-width="1" fill="none" fill-rule="evenodd">
        <g id="inbox" fill-rule="nonzero" fill="#000000">
            <path d="M1.0544764,12.6736108 L3.41404198,5.28338011 C3.94340482,3.62539971 5.48409436,2.5 7.22453225,2.5 L16.8059001,2.5 C18.5518469,2.5 20.0960792,3.63241364 20.6209053,5.29761263 L22.9467388,12.6771534 C22.9760396,12.7631015 22.9939656,12.854315 22.998722,12.9489995 C22.9995695,12.9661341 23,12.9830588 23,13 L23,17.5 C23,19.709139 21.209139,21.5 19,21.5 L5,21.5 C2.790861,21.5 1,19.709139 1,17.5 L1,13 C1,12.9828361 1.00044188,12.9656893 1.00132304,12.9485766 C1.00618545,12.8525823 1.02452582,12.7603909 1.0544764,12.6736108 Z M3.36901541,12 L8.12601749,12 C8.58230091,12 8.98072198,12.3088598 9.09445448,12.7507415 C9.43255428,14.0643514 10.6232623,15 12,15 C13.3767377,15 14.5674457,14.0643514 14.9055455,12.7507415 C15.019278,12.3088598 15.4176991,12 15.8739825,12 L20.6363354,12 L18.7134027,5.89880631 C18.4509897,5.06620682 17.6788735,4.5 16.8059001,4.5 L7.22453225,4.5 C6.3543133,4.5 5.58396853,5.06269985 5.31928711,5.89169006 L3.36901541,12 Z M21,14 L16.584045,14 C15.8039775,15.7887752 14.0229649,17 12,17 C9.97703514,17 8.19602251,15.7887752 7.415955,14 L3,14 L3,17.5 C3,18.6045695 3.8954305,19.5 5,19.5 L19,19.5 C20.1045695,19.5 21,18.6045695 21,17.5 L21,14 Z" id="shape"></path>
        </g>
    </g>
</svg>