<?xml version="1.0" encoding="UTF-8"?>
<svg width="24px" height="24px" viewBox="0 0 24 24" version="1.1" xmlns="http://www.w3.org/2000/svg" xmlns:xlink="http://www.w3.org/1999/xlink">
    <!-- Generator: Sketch 44.1 (41455) - http://www.bohemiancoding.com/sketch -->
    <title>Bold/SVG/info</title>
    <desc>Created with Sketch.</desc>
    <defs></defs>
    <g id="Bold-Outline" stroke="none" stroke-width="1" fill="none" fill-rule="evenodd">
        <g id="info" fill-rule="nonzero" fill="#000000">
            <path d="M12,23 C5.92486775,23 1,18.0751322 1,12 C1,5.92486775 5.92486775,1 12,1 C18.0751322,1 23,5.92486775 23,12 C23,18.0751322 18.0751322,23 12,23 Z M12,21 C16.9705627,21 21,16.9705627 21,12 C21,7.02943725 16.9705627,3 12,3 C7.02943725,3 3,7.02943725 3,12 C3,16.9705627 7.02943725,21 12,21 Z M11.5,17.5 L11.5,12 L10.5,12 C9.94771525,12 9.5,11.5522847 9.5,11 C9.5,10.4477153 9.94771525,10 10.5,10 L12.5,10 C13.0522847,10 13.5,10.4477153 13.5,11 L13.5,17.5 C13.5,18.0522847 13.0522847,18.5 12.5,18.5 C11.9477153,18.5 11.5,18.0522847 11.5,17.5 Z M11,7 C11,6.44771525 11.4477153,6 12,6 C12.5522847,6 13,6.44771525 13,7 C13,7.55228475 12.5522847,8 12,8 C11.4477153,8 11,7.55228475 11,7 Z" id="shape"></path>
        </g>
    </g>
</svg>