<?xml version="1.0" encoding="UTF-8"?>
<svg width="24px" height="24px" viewBox="0 0 24 24" version="1.1" xmlns="http://www.w3.org/2000/svg" xmlns:xlink="http://www.w3.org/1999/xlink">
    <!-- Generator: Sketch 44.1 (41455) - http://www.bohemiancoding.com/sketch -->
    <title>Bold/SVG/keyboard</title>
    <desc>Created with Sketch.</desc>
    <defs></defs>
    <g id="Bold-Outline" stroke="none" stroke-width="1" fill="none" fill-rule="evenodd">
        <g id="keyboard" fill-rule="nonzero" fill="#000000">
            <path d="M5,3 L19,3 C21.209139,3 23,4.790861 23,7 L23,17 C23,19.209139 21.209139,21 19,21 L5,21 C2.790861,21 1,19.209139 1,17 L1,7 C1,4.790861 2.790861,3 5,3 Z M5,5 C3.8954305,5 3,5.8954305 3,7 L3,17 C3,18.1045695 3.8954305,19 5,19 L19,19 C20.1045695,19 21,18.1045695 21,17 L21,7 C21,5.8954305 20.1045695,5 19,5 L5,5 Z M16,15 C16.5522847,15 17,15.4477153 17,16 C17,16.5522847 16.5522847,17 16,17 L8,17 C7.44771525,17 7,16.5522847 7,16 C7,15.4477153 7.44771525,15 8,15 L16,15 Z M6,9 C5.44771525,9 5,8.55228475 5,8 C5,7.44771525 5.44771525,7 6,7 C6.55228475,7 7,7.44771525 7,8 C7,8.55228475 6.55228475,9 6,9 Z M6,13 C5.44771525,13 5,12.5522847 5,12 C5,11.4477153 5.44771525,11 6,11 C6.55228475,11 7,11.4477153 7,12 C7,12.5522847 6.55228475,13 6,13 Z M10,9 C9.44771525,9 9,8.55228475 9,8 C9,7.44771525 9.44771525,7 10,7 C10.5522847,7 11,7.44771525 11,8 C11,8.55228475 10.5522847,9 10,9 Z M10,13 C9.44771525,13 9,12.5522847 9,12 C9,11.4477153 9.44771525,11 10,11 C10.5522847,11 11,11.4477153 11,12 C11,12.5522847 10.5522847,13 10,13 Z M14,9 C13.4477153,9 13,8.55228475 13,8 C13,7.44771525 13.4477153,7 14,7 C14.5522847,7 15,7.44771525 15,8 C15,8.55228475 14.5522847,9 14,9 Z M14,13 C13.4477153,13 13,12.5522847 13,12 C13,11.4477153 13.4477153,11 14,11 C14.5522847,11 15,11.4477153 15,12 C15,12.5522847 14.5522847,13 14,13 Z M18,9 C17.4477153,9 17,8.55228475 17,8 C17,7.44771525 17.4477153,7 18,7 C18.5522847,7 19,7.44771525 19,8 C19,8.55228475 18.5522847,9 18,9 Z M18,13 C17.4477153,13 17,12.5522847 17,12 C17,11.4477153 17.4477153,11 18,11 C18.5522847,11 19,11.4477153 19,12 C19,12.5522847 18.5522847,13 18,13 Z" id="shape"></path>
        </g>
    </g>
</svg>