<?xml version="1.0" encoding="UTF-8"?>
<svg width="24px" height="24px" viewBox="0 0 24 24" version="1.1" xmlns="http://www.w3.org/2000/svg" xmlns:xlink="http://www.w3.org/1999/xlink">
    <!-- Generator: Sketch 44.1 (41455) - http://www.bohemiancoding.com/sketch -->
    <title>Bold/SVG/label</title>
    <desc>Created with Sketch.</desc>
    <defs></defs>
    <g id="Bold-Outline" stroke="none" stroke-width="1" fill="none" fill-rule="evenodd">
        <g id="label" fill-rule="nonzero" fill="#000000">
            <path d="M7.46446609,6.70710678 C7.08939334,7.08217954 6.87867966,7.59088736 6.87867966,8.12132034 L6.87867966,18.8786797 C6.87867966,19.9832492 7.77411016,20.8786797 8.87867966,20.8786797 L14.8786797,20.8786797 C15.9832492,20.8786797 16.8786797,19.9832492 16.8786797,18.8786797 L16.8786797,8.12132034 C16.8786797,7.59088736 16.667966,7.08217954 16.2928932,6.70710678 L13.2928932,3.70710678 C12.5118446,2.9260582 11.2455147,2.9260582 10.4644661,3.70710678 L7.46446609,6.70710678 Z M6.05025253,5.29289322 L9.05025253,2.29289322 C10.6123497,0.730796052 13.1450096,0.730796052 14.7071068,2.29289322 L17.7071068,5.29289322 C18.4572523,6.04303873 18.8786797,7.06045438 18.8786797,8.12132034 L18.8786797,18.8786797 C18.8786797,21.0878187 17.0878187,22.8786797 14.8786797,22.8786797 L8.87867966,22.8786797 C6.66954066,22.8786797 4.87867966,21.0878187 4.87867966,18.8786797 L4.87867966,8.12132034 C4.87867966,7.06045438 5.30010702,6.04303873 6.05025253,5.29289322 Z" id="shape" transform="translate(11.878680, 12.000000) rotate(90.000000) translate(-11.878680, -12.000000) "></path>
        </g>
    </g>
</svg>