<?xml version="1.0" encoding="UTF-8"?>
<svg width="24px" height="24px" viewBox="0 0 24 24" version="1.1" xmlns="http://www.w3.org/2000/svg" xmlns:xlink="http://www.w3.org/1999/xlink">
    <!-- Generator: Sketch 44.1 (41455) - http://www.bohemiancoding.com/sketch -->
    <title>Bold/SVG/layers</title>
    <desc>Created with Sketch.</desc>
    <defs></defs>
    <g id="Bold-Outline" stroke="none" stroke-width="1" fill="none" fill-rule="evenodd">
        <g id="layers" fill-rule="nonzero" fill="#000000">
            <path d="M4.79078786,8.87525777 C4.65895587,8.95679756 4.54788481,9.06786861 4.46634502,9.19970061 C4.17582901,9.66940146 4.32108701,10.285679 4.79078786,10.576195 L10.9479484,14.384478 C11.5926405,14.7832284 12.4073595,14.7832284 13.0520516,14.384478 L19.2092121,10.576195 C19.3410441,10.4946552 19.4521152,10.3835842 19.533655,10.2517522 C19.824171,9.78205132 19.678913,9.16577379 19.2092121,8.87525777 L13.0520516,5.06697477 C12.4073595,4.66822443 11.5926405,4.66822443 10.9479484,5.06697477 L4.79078786,8.87525777 Z M9.89589688,3.36603752 C11.185281,2.56853685 12.814719,2.56853685 14.1041031,3.36603752 L20.2612637,7.17432052 C21.6703662,8.04586857 22.1061403,9.89470118 21.2345922,11.3038037 C20.9899729,11.6992997 20.6567597,12.0325129 20.2612637,12.2771323 L14.1041031,16.0854153 C12.814719,16.8829159 11.185281,16.8829159 9.89589688,16.0854153 L3.7387363,12.2771323 C2.32963375,11.4055842 1.89385973,9.5567516 2.76540778,8.14764905 C3.01002714,7.75215305 3.34324031,7.41893988 3.7387363,7.17432052 L9.89589688,3.36603752 Z M20.4777354,14.5043218 C20.9496904,14.2174823 21.5648149,14.367548 21.8516545,14.8395031 C22.138494,15.3114581 21.9884282,15.9265826 21.5164732,16.2134221 L14.591813,20.4220141 C12.9964274,21.3916396 10.9937351,21.3916826 9.39830781,20.4221256 L2.48066784,16.2182072 C2.0087005,15.931388 1.8586083,15.3162699 2.14542754,14.8443026 C2.43224677,14.3723352 3.04736483,14.222243 3.51933217,14.5090622 L10.4369721,18.7129807 C11.3942285,19.2947148 12.5958439,19.294689 13.5530752,18.7129137 L20.4777354,14.5043218 Z" id="shape"></path>
        </g>
    </g>
</svg>