<?xml version="1.0" encoding="UTF-8"?>
<svg width="24px" height="24px" viewBox="0 0 24 24" version="1.1" xmlns="http://www.w3.org/2000/svg" xmlns:xlink="http://www.w3.org/1999/xlink">
    <!-- Generator: Sketch 44.1 (41455) - http://www.bohemiancoding.com/sketch -->
    <title>Bold/SVG/lightning</title>
    <desc>Created with Sketch.</desc>
    <defs></defs>
    <g id="Bold-Outline" stroke="none" stroke-width="1" fill="none" fill-rule="evenodd">
        <g id="lightning" fill-rule="nonzero" fill="#000000">
            <path d="M5.41589002,15.5 C5.00693563,15.5 4.60781013,15.3746335 4.2723047,15.1407963 C3.36611791,14.5092116 3.14350895,13.2626015 3.77509369,12.3564147 L11.3194302,1.53193192 C11.7811641,0.869444026 12.5959964,0.549623341 13.3850858,0.72116452 C14.464445,0.955807826 15.1492225,2.02101733 14.9145792,3.10037654 L13.740748,8.5 L18.4878641,8.5 C18.9239106,8.5 19.3480103,8.64250569 19.6955795,8.9058157 C20.5760232,9.57281849 20.7490512,10.8272717 20.0820484,11.7077154 L12.1838475,22.1333406 C11.6778185,22.801299 10.8090268,23.0829646 10.00734,22.838973 C8.95062719,22.5173648 8.35470721,21.4000148 8.67631545,20.343302 L10.1503639,15.5 L5.41589002,15.5 Z M5.41589002,13.5 L11.5,13.5 C12.1715266,13.5 12.6521966,14.1487297 12.4566739,14.7911616 L10.5896632,20.9256252 L18.4878641,10.5 L12.5,10.5 C11.8621407,10.5 11.3873234,9.91087135 11.5228236,9.28757036 L12.9602265,2.67551725 L5.41589002,13.5 Z" id="shape"></path>
        </g>
    </g>
</svg>