<?xml version="1.0" encoding="UTF-8"?>
<svg width="24px" height="24px" viewBox="0 0 24 24" version="1.1" xmlns="http://www.w3.org/2000/svg" xmlns:xlink="http://www.w3.org/1999/xlink">
    <!-- Generator: Sketch 44.1 (41455) - http://www.bohemiancoding.com/sketch -->
    <title>Bold/SVG/like</title>
    <desc>Created with Sketch.</desc>
    <defs></defs>
    <g id="Bold-Outline" stroke="none" stroke-width="1" fill="none" fill-rule="evenodd">
        <g id="like" fill-rule="nonzero" fill="#000000">
            <path d="M8,9.16014306 L8,20 L17.5605873,20 C18.5079388,20 19.3253318,19.335347 19.5185482,18.4079085 L20.7685482,12.4079085 C20.7965003,12.2737385 20.8105873,12.1370507 20.8105873,12 C20.8105873,10.8954305 19.9151568,10 18.8105873,10 L15,10 C13.8954305,10 13,9.1045695 13,8 L13,5.5 C13,4.67157288 12.3284271,4 11.5,4 L9.72067597,4 L8,9.16014306 Z M6,20 L6,10 L5,10 C3.8954305,10 3,10.8954305 3,12 L3,18 C3,19.1045695 3.8954305,20 5,20 L6,20 Z M7.82337869,3.36733656 C8.09567076,2.55075864 8.85989582,2 9.72067597,2 L11.5,2 C13.4329966,2 15,3.56700338 15,5.5 L15,8 L18.8105873,8 C21.0197263,8 22.8105873,9.790861 22.8105873,12 C22.8105873,12.2741015 22.7824132,12.547477 22.726509,12.815817 L21.476509,18.815817 C21.0900763,20.6706941 19.4552902,22 17.5605873,22 L5,22 C2.790861,22 1,20.209139 1,18 L1,12 C1,9.790861 2.790861,8 5,8 L6.27859348,8 L7.82337869,3.36733656 Z" id="shape"></path>
        </g>
    </g>
</svg>