<?xml version="1.0" encoding="UTF-8"?>
<svg width="24px" height="24px" viewBox="0 0 24 24" version="1.1" xmlns="http://www.w3.org/2000/svg" xmlns:xlink="http://www.w3.org/1999/xlink">
    <!-- Generator: Sketch 44.1 (41455) - http://www.bohemiancoding.com/sketch -->
    <title>Bold/SVG/line-chart</title>
    <desc>Created with Sketch.</desc>
    <defs></defs>
    <g id="Bold-Outline" stroke="none" stroke-width="1" fill="none" fill-rule="evenodd">
        <g id="line-chart" fill-rule="nonzero" fill="#000000">
            <path d="M2,17.0181657 C1.99975743,17.0054674 1.99975676,16.9927519 2,16.9800261 L2,3.5 C2,2.94771525 2.44771525,2.5 3,2.5 C3.55228475,2.5 4,2.94771525 4,3.5 L4,13.140874 L5.17846526,11.0196365 C5.98310481,9.57128531 7.80951468,9.04945392 9.25786588,9.85409347 C9.82706293,10.1703141 10.2779247,10.6631395 10.5423752,11.2581577 L11.0268983,12.3483431 C11.251201,12.8530279 11.8421621,13.0803225 12.3468469,12.8560199 C12.580473,12.7521869 12.7654575,12.5628163 12.8637884,12.3268216 L14.6395549,8.06496898 C15.2768048,6.53556437 17.0332254,5.81233014 18.56263,6.44958011 C19.1093483,6.6773787 19.5764049,7.06191039 19.9049407,7.55471594 L21.8319902,10.4453013 C22.1383419,10.9048305 22.0141669,11.5256996 21.5546377,11.8320513 C21.0951085,12.1384029 20.4742393,12.014228 20.1678877,11.5546987 L18.2408382,8.6641134 C18.1313262,8.49984489 17.9756407,8.37166766 17.7934013,8.29573479 C17.2835997,8.08331813 16.6981262,8.32439621 16.4857095,8.83419775 L14.7099431,13.0960503 C14.4149506,13.8040345 13.859997,14.3721462 13.1591187,14.6836453 C11.6450642,15.3565532 9.87218089,14.6746693 9.19927294,13.1606148 L8.71474978,12.0704294 C8.62659961,11.87209 8.47631237,11.7078149 8.28658002,11.602408 C7.80379628,11.3341948 7.19499299,11.5081386 6.92677981,11.9909224 L4,17.259126 L4,19.5 L21.5,19.5 C22.0522847,19.5 22.5,19.9477153 22.5,20.5 C22.5,21.0522847 22.0522847,21.5 21.5,21.5 L3,21.5 C2.44771525,21.5 2,21.0522847 2,20.5 L2,17.0181657 Z" id="shape"></path>
        </g>
    </g>
</svg>