<?xml version="1.0" encoding="UTF-8"?>
<svg width="24px" height="24px" viewBox="0 0 24 24" version="1.1" xmlns="http://www.w3.org/2000/svg" xmlns:xlink="http://www.w3.org/1999/xlink">
    <!-- Generator: Sketch 44.1 (41455) - http://www.bohemiancoding.com/sketch -->
    <title>Bold/SVG/link</title>
    <desc>Created with Sketch.</desc>
    <defs></defs>
    <g id="Bold-Outline" stroke="none" stroke-width="1" fill="none" fill-rule="evenodd">
        <g id="link" fill-rule="nonzero" fill="#000000">
            <path d="M13.0606602,10.9393398 C12.6701359,10.5488155 12.6701359,9.91565056 13.0606602,9.52512627 C13.4511845,9.13460197 14.0843494,9.13460197 14.4748737,9.52512627 C16.4274952,11.4777477 16.4274952,14.6435726 14.4748737,16.5961941 L10.9393398,20.131728 C8.98671837,22.0843494 5.82089348,22.0843494 3.86827202,20.131728 C1.91565056,18.1791065 1.91565056,15.0132816 3.86827202,13.0606602 L4.5753788,12.3535534 C4.96590309,11.9630291 5.59906807,11.9630291 5.98959236,12.3535534 C6.38011665,12.7440777 6.38011665,13.3772427 5.98959236,13.767767 L5.28248558,14.4748737 C4.1109127,15.6464466 4.1109127,17.5459415 5.28248558,18.7175144 C6.45405845,19.8890873 8.35355339,19.8890873 9.52512627,18.7175144 L13.0606602,15.1819805 C14.232233,14.0104076 14.232233,12.1109127 13.0606602,10.9393398 Z M10.9393398,13.0606602 C11.3298641,13.4511845 11.3298641,14.0843494 10.9393398,14.4748737 C10.5488155,14.865398 9.91565056,14.865398 9.52512627,14.4748737 C7.57250481,12.5222523 7.57250481,9.35642738 9.52512627,7.40380592 L13.0606602,3.86827202 C15.0132816,1.91565056 18.1791065,1.91565056 20.131728,3.86827202 C22.0843494,5.82089348 22.0843494,8.98671837 20.131728,10.9393398 L19.4246212,11.6464466 C19.0340969,12.0369709 18.4009319,12.0369709 18.0104076,11.6464466 C17.6198833,11.2559223 17.6198833,10.6227573 18.0104076,10.232233 L18.7175144,9.52512627 C19.8890873,8.35355339 19.8890873,6.45405845 18.7175144,5.28248558 C17.5459415,4.1109127 15.6464466,4.1109127 14.4748737,5.28248558 L10.9393398,8.81801948 C9.76776695,9.98959236 9.76776695,11.8890873 10.9393398,13.0606602 Z" id="shape"></path>
        </g>
    </g>
</svg>