<?xml version="1.0" encoding="UTF-8"?>
<svg width="24px" height="24px" viewBox="0 0 24 24" version="1.1" xmlns="http://www.w3.org/2000/svg" xmlns:xlink="http://www.w3.org/1999/xlink">
    <!-- Generator: Sketch 44.1 (41455) - http://www.bohemiancoding.com/sketch -->
    <title>Bold/SVG/list-check</title>
    <desc>Created with Sketch.</desc>
    <defs></defs>
    <g id="Bold-Outline" stroke="none" stroke-width="1" fill="none" fill-rule="evenodd">
        <g id="list-check" fill-rule="nonzero" fill="#000000">
            <path d="M3,7 C2.44771525,7 2,6.55228475 2,6 C2,5.44771525 2.44771525,5 3,5 L17,5 C17.5522847,5 18,5.44771525 18,6 C18,6.55228475 17.5522847,7 17,7 L3,7 Z M3,12 C2.44771525,12 2,11.5522847 2,11 C2,10.4477153 2.44771525,10 3,10 L17,10 C17.5522847,10 18,10.4477153 18,11 C18,11.5522847 17.5522847,12 17,12 L3,12 Z M3,17 C2.44771525,17 2,16.5522847 2,16 C2,15.4477153 2.44771525,15 3,15 L10,15 C10.5522847,15 11,15.4477153 11,16 C11,16.5522847 10.5522847,17 10,17 L3,17 Z M14.5606602,15.5961941 L16.6819805,17.7175144 L20.9246212,13.4748737 C21.3151455,13.0843494 21.9483105,13.0843494 22.3388348,13.4748737 C22.7293591,13.865398 22.7293591,14.498563 22.3388348,14.8890873 L17.3890873,19.8388348 C16.998563,20.2293591 16.365398,20.2293591 15.9748737,19.8388348 L13.1464466,17.0104076 C12.7559223,16.6198833 12.7559223,15.9867184 13.1464466,15.5961941 C13.5369709,15.2056698 14.1701359,15.2056698 14.5606602,15.5961941 Z" id="shape"></path>
        </g>
    </g>
</svg>