<?xml version="1.0" encoding="UTF-8"?>
<svg width="24px" height="24px" viewBox="0 0 24 24" version="1.1" xmlns="http://www.w3.org/2000/svg" xmlns:xlink="http://www.w3.org/1999/xlink">
    <!-- Generator: Sketch 44.1 (41455) - http://www.bohemiancoding.com/sketch -->
    <title>Bold/SVG/magic-wand</title>
    <desc>Created with Sketch.</desc>
    <defs></defs>
    <g id="Bold-Outline" stroke="none" stroke-width="1" fill="none" fill-rule="evenodd">
        <g id="magic-wand" fill-rule="nonzero" fill="#000000">
            <path d="M14.5217913,10.2791506 L22.0459415,17.8033009 C23.2175144,18.9748737 23.2175144,20.8743687 22.0459415,22.0459415 C20.8743687,23.2175144 18.9748737,23.2175144 17.8033009,22.0459415 L10.2795388,14.5221795 C9.82245431,15.1668956 9.0048034,15.5048427 8.18824802,15.3123466 C7.61904526,15.1781619 7.13708829,14.8015706 6.86924747,14.2817065 L5.75194894,12.1130927 L3.57253655,12.4250441 C2.47911119,12.5815522 1.46583997,11.8220306 1.30933193,10.7286052 C1.23187646,10.1874715 1.37929333,9.63821648 1.71729544,9.20858916 L3.29324113,7.20543804 L2.32207335,4.94991798 C1.88524652,3.93539538 2.35356148,2.75884421 3.36808408,2.32201739 C3.87297421,2.10462494 4.44508382,2.10462494 4.94997395,2.32201739 L7.205494,3.29318517 L9.20864513,1.71723948 C10.0767585,1.03426582 11.3341629,1.18435117 12.0171366,2.0524645 C12.3551387,2.48209181 12.5025556,3.03134686 12.4251001,3.57248058 L12.1131487,5.75189298 L14.2817625,6.8691915 C15.263672,7.37508427 15.6495598,8.58118632 15.1436671,9.56309583 C14.9950632,9.85152763 14.7805486,10.0958562 14.5217913,10.2791506 Z M10.9403444,12.3545579 L19.2175144,20.631728 C19.6080387,21.0222523 20.2412037,21.0222523 20.631728,20.631728 C21.0222523,20.2412037 21.0222523,19.6080387 20.631728,19.2175144 L12.3545233,10.9403097 L11.2101435,11.2100876 L10.9403444,12.3545579 Z M9.40541073,10.1492228 C9.49237184,9.78033954 9.7803955,9.49231588 10.1492788,9.40535477 L13.3657626,8.64709595 L10.5643799,7.2037865 C10.1856128,7.00864068 9.97209669,6.59492667 10.032469,6.17314284 L10.4452783,3.28909771 L7.97465297,5.23282095 C7.68655889,5.45947416 7.29754569,5.51033602 6.9608639,5.36536967 L4.15902901,4.15897305 L5.36542563,6.96080794 C5.51039198,7.29748973 5.45953012,7.68650293 5.23287692,7.97459701 L3.28915367,10.4452224 L6.17319881,10.032413 C6.59498264,9.97204073 7.00869664,10.1855568 7.20384246,10.5643239 L8.64715191,13.3657067 L9.40541073,10.1492228 Z" id="shape"></path>
        </g>
    </g>
</svg>