<?xml version="1.0" encoding="UTF-8"?>
<svg width="24px" height="24px" viewBox="0 0 24 24" version="1.1" xmlns="http://www.w3.org/2000/svg" xmlns:xlink="http://www.w3.org/1999/xlink">
    <!-- Generator: Sketch 44.1 (41455) - http://www.bohemiancoding.com/sketch -->
    <title>Bold/SVG/mail-open</title>
    <desc>Created with Sketch.</desc>
    <defs></defs>
    <g id="Bold-Outline" stroke="none" stroke-width="1" fill="none" fill-rule="evenodd">
        <g id="mail-open" fill-rule="nonzero" fill="#000000">
            <path d="M23,10 L23,17 C23,19.209139 21.209139,21 19,21 L5,21 C2.790861,21 1,19.209139 1,17 L1,10 L1,8.23209195 C1,6.46565907 2.15867261,4.90836757 3.85060846,4.40078681 L10.8506085,2.30078681 C11.6003634,2.07586033 12.3996366,2.07586033 13.1493915,2.30078681 L20.1493915,4.40078681 C21.8413274,4.90836757 23,6.46565907 23,8.23209195 L23,10 Z M3,11 L3,17 C3,18.1045695 3.8954305,19 5,19 L19,19 C20.1045695,19 21,18.1045695 21,17 L21,11 L3,11 Z M21,8.23209195 C21,7.34887551 20.4206637,6.57022976 19.5746958,6.31643938 L12.5746958,4.21643938 C12.1998183,4.10397614 11.8001817,4.10397614 11.4253042,4.21643938 L4.42530423,6.31643938 C3.57933631,6.57022976 3,7.34887551 3,8.23209195 L3,9 L21,9 L21,8.23209195 Z" id="shape"></path>
        </g>
    </g>
</svg>