<?xml version="1.0" encoding="UTF-8"?>
<svg width="24px" height="24px" viewBox="0 0 24 24" version="1.1" xmlns="http://www.w3.org/2000/svg" xmlns:xlink="http://www.w3.org/1999/xlink">
    <!-- Generator: Sketch 44.1 (41455) - http://www.bohemiancoding.com/sketch -->
    <title>Bold/SVG/mail-at</title>
    <desc>Created with Sketch.</desc>
    <defs></defs>
    <g id="Bold-Outline" stroke="none" stroke-width="1" fill="none" fill-rule="evenodd">
        <g id="mail-at" fill-rule="nonzero" fill="#000000">
            <path d="M17,12 L17,12.5 C17,13.3284271 17.6715729,14 18.5,14 C19.3284271,14 20,13.3284271 20,12.5 L20,12 C20,7.581722 16.418278,4 12,4 C7.581722,4 4,7.581722 4,12 C4,16.418278 7.581722,20 12,20 C13.9465015,20 15.7826052,19.3036621 17.2254634,18.0577984 C17.6434798,17.6968542 18.2749521,17.7431203 18.6358964,18.1611366 C18.9968407,18.579153 18.9505746,19.2106254 18.5325582,19.5715696 C16.7298088,21.1281882 14.4310157,22 12,22 C6.4771525,22 2,17.5228475 2,12 C2,6.4771525 6.4771525,2 12,2 C17.5228475,2 22,6.4771525 22,12 L22,12.5 C22,14.4329966 20.4329966,16 18.5,16 C17.5317455,16 16.6553222,15.6068242 16.021676,14.9714187 C15.1108726,16.2021075 13.6486152,17 12,17 C9.23857625,17 7,14.7614237 7,12 C7,9.23857625 9.23857625,7 12,7 C14.7614237,7 17,9.23857625 17,12 Z M12,15 C13.6568542,15 15,13.6568542 15,12 C15,10.3431458 13.6568542,9 12,9 C10.3431458,9 9,10.3431458 9,12 C9,13.6568542 10.3431458,15 12,15 Z" id="Combined-Shape"></path>
        </g>
    </g>
</svg>