<?xml version="1.0" encoding="UTF-8"?>
<svg width="24px" height="24px" viewBox="0 0 24 24" version="1.1" xmlns="http://www.w3.org/2000/svg" xmlns:xlink="http://www.w3.org/1999/xlink">
    <!-- Generator: Sketch 44.1 (41455) - http://www.bohemiancoding.com/sketch -->
    <title>Bold/SVG/mail</title>
    <desc>Created with Sketch.</desc>
    <defs></defs>
    <g id="Bold-Outline" stroke="none" stroke-width="1" fill="none" fill-rule="evenodd">
        <g id="mail" fill-rule="nonzero" fill="#000000">
            <path d="M23,8.97753355 C23.000352,8.99280953 23.0003501,9.00804956 23,9.02324321 L23,17 C23,19.209139 21.209139,21 19,21 L5,21 C2.790861,21 1,19.209139 1,17 L1,9.02324648 C0.999649889,9.00804956 0.999648017,8.99280953 1,8.97753355 L1,7 C1,4.790861 2.790861,3 5,3 L19,3 C21.209139,3 23,4.790861 23,7 L23,8.97753136 Z M21,8.25596935 L21,7 C21,5.8954305 20.1045695,5 19,5 L5,5 C3.8954305,5 3,5.8954305 3,7 L3,8.25596935 L11.7126521,10.869765 C11.9000908,10.9259966 12.0999092,10.9259966 12.2873479,10.869765 L21,8.25596935 Z M21,10.3440307 L12.8620437,12.7854176 C12.2997275,12.9541124 11.7002725,12.9541124 11.1379563,12.7854176 L3,10.3440307 L3,17 C3,18.1045695 3.8954305,19 5,19 L19,19 C20.1045695,19 21,18.1045695 21,17 L21,10.3440307 Z" id="shape"></path>
        </g>
    </g>
</svg>