<?xml version="1.0" encoding="UTF-8"?>
<svg width="24px" height="24px" viewBox="0 0 24 24" version="1.1" xmlns="http://www.w3.org/2000/svg" xmlns:xlink="http://www.w3.org/1999/xlink">
    <!-- Generator: Sketch 44.1 (41455) - http://www.bohemiancoding.com/sketch -->
    <title>Bold/SVG/male</title>
    <desc>Created with Sketch.</desc>
    <defs></defs>
    <g id="Bold-Outline" stroke="none" stroke-width="1" fill="none" fill-rule="evenodd">
        <g id="male" fill-rule="nonzero" fill="#000000">
            <path d="M13,5.41421356 L13,10.0829584 C15.8377133,10.5590365 18,13.0270037 18,16 C18,19.3137085 15.3137085,22 12,22 C8.6862915,22 6,19.3137085 6,16 C6,13.0270037 8.16228666,10.5590365 11,10.0829584 L11,5.41421356 L8.46446609,7.94974747 C8.0739418,8.34027176 7.44077682,8.34027176 7.05025253,7.94974747 C6.65972824,7.55922318 6.65972824,6.9260582 7.05025253,6.53553391 L10.5857864,3 C11.366835,2.21895142 12.633165,2.21895142 13.4142136,3 L16.9497475,6.53553391 C17.3402718,6.9260582 17.3402718,7.55922318 16.9497475,7.94974747 C16.5592232,8.34027176 15.9260582,8.34027176 15.5355339,7.94974747 L13,5.41421356 Z M12,20 C14.209139,20 16,18.209139 16,16 C16,13.790861 14.209139,12 12,12 C9.790861,12 8,13.790861 8,16 C8,18.209139 9.790861,20 12,20 Z" id="Combined-Shape"></path>
        </g>
    </g>
</svg>