<?xml version="1.0" encoding="UTF-8"?>
<svg width="24px" height="24px" viewBox="0 0 24 24" version="1.1" xmlns="http://www.w3.org/2000/svg" xmlns:xlink="http://www.w3.org/1999/xlink">
    <!-- Generator: Sketch 44.1 (41455) - http://www.bohemiancoding.com/sketch -->
    <title>Bold/SVG/message-text</title>
    <desc>Created with Sketch.</desc>
    <defs></defs>
    <g id="Bold-Outline" stroke="none" stroke-width="1" fill="none" fill-rule="evenodd">
        <g id="message-text" fill-rule="nonzero" fill="#000000">
            <path d="M16.0193634,21.7029335 C14.7558477,22.2268657 13.3961039,22.5 12,22.5 C6.20101013,22.5 1.5,17.7989899 1.5,12 C1.5,6.20101013 6.20101013,1.5 12,1.5 C17.7989899,1.5 22.5,6.20101013 22.5,12 C22.5,13.3961039 22.2268657,14.7558477 21.7029335,16.0193634 C21.5063991,16.4933261 21.275396,16.951651 21.0121301,17.3909039 L22.4350992,21.1456139 C22.7405244,21.9515226 21.9515226,22.7405244 21.1456139,22.4350992 L17.3909039,21.0121301 C16.951651,21.275396 16.4933261,21.5063991 16.0193634,21.7029335 Z M18.9648981,17.6325471 C18.850244,17.3300155 18.8890366,16.9907077 19.0690156,16.7218611 C19.3786287,16.2593718 19.6421989,15.7676085 19.8554676,15.2532892 C20.2791357,14.2315706 20.5,13.1320423 20.5,12 C20.5,7.30557963 16.6944204,3.5 12,3.5 C7.30557963,3.5 3.5,7.30557963 3.5,12 C3.5,16.6944204 7.30557963,20.5 12,20.5 C13.1320423,20.5 14.2315706,20.2791357 15.2532892,19.8554676 C15.7676085,19.6421989 16.2593718,19.3786287 16.7218611,19.0690156 C16.9907077,18.8890366 17.3300155,18.850244 17.6325471,18.9648981 L19.7779791,19.7779791 L18.9648981,17.6325471 Z M14.5,7 C15.0522847,7 15.5,7.44771525 15.5,8 C15.5,8.55228475 15.0522847,9 14.5,9 L9.5,9 C8.94771525,9 8.5,8.55228475 8.5,8 C8.5,7.44771525 8.94771525,7 9.5,7 L14.5,7 Z M16,11 C16.5522847,11 17,11.4477153 17,12 C17,12.5522847 16.5522847,13 16,13 L8,13 C7.44771525,13 7,12.5522847 7,12 C7,11.4477153 7.44771525,11 8,11 L16,11 Z M14.5,15 C15.0522847,15 15.5,15.4477153 15.5,16 C15.5,16.5522847 15.0522847,17 14.5,17 L9.5,17 C8.94771525,17 8.5,16.5522847 8.5,16 C8.5,15.4477153 8.94771525,15 9.5,15 L14.5,15 Z" id="shape"></path>
        </g>
    </g>
</svg>