<?xml version="1.0" encoding="UTF-8"?>
<svg width="24px" height="24px" viewBox="0 0 24 24" version="1.1" xmlns="http://www.w3.org/2000/svg" xmlns:xlink="http://www.w3.org/1999/xlink">
    <!-- Generator: Sketch 44.1 (41455) - http://www.bohemiancoding.com/sketch -->
    <title>Bold/SVG/microphone</title>
    <desc>Created with Sketch.</desc>
    <defs></defs>
    <g id="Bold-Outline" stroke="none" stroke-width="1" fill="none" fill-rule="evenodd">
        <g id="microphone" fill-rule="nonzero" fill="#000000">
            <path d="M12,3 C10.3431458,3 9,4.34314575 9,6 L9,11 C9,12.6568542 10.3431458,14 12,14 C13.6568542,14 15,12.6568542 15,11 L15,6 C15,4.34314575 13.6568542,3 12,3 Z M13,19.9450712 L13,21.5 C13,22.0522847 12.5522847,22.5 12,22.5 C11.4477153,22.5 11,22.0522847 11,21.5 L11,19.9450712 C6.50004954,19.4476269 3,15.6325537 3,11 C3,10.4477153 3.44771525,10 4,10 C4.55228475,10 5,10.4477153 5,11 C5,14.8659932 8.13400675,18 12,18 C15.8659932,18 19,14.8659932 19,11 C19,10.4477153 19.4477153,10 20,10 C20.5522847,10 21,10.4477153 21,11 C21,15.6325537 17.4999505,19.4476269 13,19.9450712 Z M12,1 C14.7614237,1 17,3.23857625 17,6 L17,11 C17,13.7614237 14.7614237,16 12,16 C9.23857625,16 7,13.7614237 7,11 L7,6 C7,3.23857625 9.23857625,1 12,1 Z" id="shape"></path>
        </g>
    </g>
</svg>