<?xml version="1.0" encoding="UTF-8"?>
<svg width="24px" height="24px" viewBox="0 0 24 24" version="1.1" xmlns="http://www.w3.org/2000/svg" xmlns:xlink="http://www.w3.org/1999/xlink">
    <!-- Generator: Sketch 44.1 (41455) - http://www.bohemiancoding.com/sketch -->
    <title>Bold/SVG/microphone-off</title>
    <desc>Created with Sketch.</desc>
    <defs></defs>
    <g id="Bold-Outline" stroke="none" stroke-width="1" fill="none" fill-rule="evenodd">
        <g id="microphone-off" fill-rule="nonzero" fill="#000000">
            <path d="M8.40578321,17.0084304 C9.47738685,17.6512191 10.7110378,18 12,18 C15.8659932,18 19,14.8659932 19,11 C19,10.4477153 19.4477153,10 20,10 C20.5522847,10 21,10.4477153 21,11 C21,15.6325537 17.4999505,19.4476269 13,19.9450712 L13,21.5 C13,22.0522847 12.5522847,22.5 12,22.5 C11.4477153,22.5 11,22.0522847 11,21.5 L11,19.9449169 C9.54004645,19.7832216 8.15821555,19.269496 6.95801502,18.4561985 L3.51471863,21.8994949 C3.12419433,22.2900192 2.49102936,22.2900192 2.10050506,21.8994949 C1.70998077,21.5089706 1.70998077,20.8758057 2.10050506,20.4852814 L6.15101824,16.4347682 C6.15619493,16.4294762 6.16141862,16.4242529 6.16668809,16.4190983 L8.99656949,13.5892169 C9.00510546,13.5803599 9.01377914,13.5716878 9.02258477,13.5632017 L20.4852814,2.10050506 C20.8758057,1.70998077 21.5089706,1.70998077 21.8994949,2.10050506 C22.2900192,2.49102936 22.2900192,3.12419433 21.8994949,3.51471863 L17,8.41421356 L17,11 C17,13.7614237 14.7614237,16 12,16 C11.2573825,16 10.5378119,15.8371847 9.88325969,15.5309539 L8.40578321,17.0084304 Z M11.4621467,13.9520668 C11.6377379,13.9837701 11.817541,14 12,14 C13.6568542,14 15,12.6568542 15,11 L15,10.4142136 L11.4621467,13.9520668 Z M16.0757893,3.10325746 C16.3960409,3.55321008 16.2908974,4.17758396 15.8409448,4.49783556 C15.3909922,4.81808715 14.7666183,4.71294369 14.4463667,4.26299107 C14.3319236,4.10219874 14.2018254,3.95286789 14.0581638,3.81733509 C13.504596,3.2950898 12.7767419,3 12,3 C10.3431458,3 9,4.34314575 9,6 L9,11 C9,11.5522847 8.55228475,12 8,12 C7.44771525,12 7,11.5522847 7,11 L7,6 C7,3.23857625 9.23857625,1 12,1 C13.2921478,1 14.509467,1.4935309 15.4306206,2.36256289 C15.6693047,2.58774153 15.8854838,2.8358788 16.0757893,3.10325746 Z M3,11 C3,10.4477153 3.44771525,10 4,10 C4.55228475,10 5,10.4477153 5,11 C5,11.7227365 5.10921569,12.4295605 5.32139611,13.1038652 C5.35975442,13.2257671 5.40144757,13.346501 5.44642009,13.4659543 C5.49109653,13.5846212 5.5389981,13.7019945 5.59006383,13.8179605 C5.81263885,14.3234096 5.58332409,14.9135898 5.07787498,15.1361648 C4.57242587,15.3587398 3.9822457,15.129425 3.75967068,14.6239759 C3.69391194,14.4746434 3.63222074,14.3234814 3.57467783,14.1706393 C3.51674484,14.0167612 3.46303299,13.8612238 3.41361604,13.7041778 C3.14049038,12.8361905 3,11.9269624 3,11 Z" id="shape"></path>
        </g>
    </g>
</svg>