<?xml version="1.0" encoding="UTF-8"?>
<svg width="24px" height="24px" viewBox="0 0 24 24" version="1.1" xmlns="http://www.w3.org/2000/svg" xmlns:xlink="http://www.w3.org/1999/xlink">
    <!-- Generator: Sketch 44.1 (41455) - http://www.bohemiancoding.com/sketch -->
    <title>Bold/SVG/money</title>
    <desc>Created with Sketch.</desc>
    <defs></defs>
    <g id="Bold-Outline" stroke="none" stroke-width="1" fill="none" fill-rule="evenodd">
        <g id="money" fill-rule="nonzero" fill="#000000">
            <path d="M13,4 L13,3 C13,2.44771525 12.5522847,2 12,2 C11.4477153,2 11,2.44771525 11,3 L11,4 L10.0001844,4 C7.5148012,4 5.5,6.0148012 5.5,8.50018443 C5.5,10.9855028 7.51474865,13.0002515 10.0000671,13.0002515 L13.9997557,13.0001174 C15.3805562,13.0000711 16.4999537,14.1193935 16.5,15.500194 C16.5,16.8811432 15.3805875,18.0005557 13.9997222,18.0005557 L12.0336554,18.0005557 C12.0224824,18.0001862 12.0112629,18 12,18 C11.9887371,18 11.9775176,18.0001862 11.9663446,18.0005557 L10,18.0005557 C8.8954305,18.0005557 8,17.1051252 8,16.0005557 C8,15.4482709 7.55228475,15.0005557 7,15.0005557 C6.44771525,15.0005557 6,15.4482709 6,16.0005557 C6,18.2096947 7.790861,20.0005557 10,20.0005557 L11,20.0005557 L11,21 C11,21.5522847 11.4477153,22 12,22 C12.5522847,22 13,21.5522847 13,21 L13,20.0005557 L13.9997222,20.0005557 C16.485157,20.0005557 18.5,17.9857127 18.5,15.5002778 C18.4999167,13.0147569 16.4850586,11.000034 13.9996886,11.0001174 L10.0000335,11.0002515 C8.61931815,11.0002515 7.5,9.88093334 7.5,8.50018443 C7.5,7.1193707 8.6193707,6 10.0001844,6 L14,6 C15.1045695,6 16,6.8954305 16,8 C16,8.55228475 16.4477153,9 17,9 C17.5522847,9 18,8.55228475 18,8 C18,5.790861 16.209139,4 14,4 L13,4 Z" id="shape"></path>
        </g>
    </g>
</svg>