<?xml version="1.0" encoding="UTF-8"?>
<svg width="24px" height="24px" viewBox="0 0 24 24" version="1.1" xmlns="http://www.w3.org/2000/svg" xmlns:xlink="http://www.w3.org/1999/xlink">
    <!-- Generator: Sketch 44.1 (41455) - http://www.bohemiancoding.com/sketch -->
    <title>Bold/SVG/more-horizontal</title>
    <desc>Created with Sketch.</desc>
    <defs></defs>
    <g id="Bold-Outline" stroke="none" stroke-width="1" fill="none" fill-rule="evenodd">
        <g id="more-horizontal" fill="#000000">
            <path d="M12,13.5 C11.1715729,13.5 10.5,12.8284271 10.5,12 C10.5,11.1715729 11.1715729,10.5 12,10.5 C12.8284271,10.5 13.5,11.1715729 13.5,12 C13.5,12.8284271 12.8284271,13.5 12,13.5 Z M6,13.5 C5.17157288,13.5 4.5,12.8284271 4.5,12 C4.5,11.1715729 5.17157288,10.5 6,10.5 C6.82842712,10.5 7.5,11.1715729 7.5,12 C7.5,12.8284271 6.82842712,13.5 6,13.5 Z M18,13.5 C17.1715729,13.5 16.5,12.8284271 16.5,12 C16.5,11.1715729 17.1715729,10.5 18,10.5 C18.8284271,10.5 19.5,11.1715729 19.5,12 C19.5,12.8284271 18.8284271,13.5 18,13.5 Z" id="shape"></path>
        </g>
    </g>
</svg>