<?xml version="1.0" encoding="UTF-8"?>
<svg width="24px" height="24px" viewBox="0 0 24 24" version="1.1" xmlns="http://www.w3.org/2000/svg" xmlns:xlink="http://www.w3.org/1999/xlink">
    <!-- Generator: Sketch 44.1 (41455) - http://www.bohemiancoding.com/sketch -->
    <title>Bold/SVG/motorcycle</title>
    <desc>Created with Sketch.</desc>
    <defs></defs>
    <g id="Bold-Outline" stroke="none" stroke-width="1" fill="none" fill-rule="evenodd">
        <g id="motorcycle" fill-rule="nonzero" fill="#000000">
            <path d="M20,7 L20,5.99975586 L19.3028064,5.99975586 L17.8026233,7 L20,7 Z M9.56325949,15.6000004 L11.5794795,15.6000004 C12.0048038,15.6000004 12.3835897,15.3309638 12.5236797,14.9293725 L14.8218599,8.34125571 C14.8637099,8.22128577 14.9162109,8.10723064 14.9780821,8 L12.6568542,8 C11.8612048,8 11.098143,8.31607052 10.5355339,8.87867966 L9,10.4142136 C8.62492724,10.7892863 8.11621942,11 7.58578644,11 L6.77538064,11 L9.56325949,15.6000004 Z M18.3364732,9 L19.2213227,12.0084883 C19.3134929,12.0028569 19.4064128,12 19.5,12 C21.9852814,12 24,14.0147186 24,16.5 C24,18.9852814 21.9852814,21 19.5,21 C17.0147186,21 15,18.9852814 15,16.5 C15,14.8128251 15.9285034,13.3425137 17.3024016,12.5721746 L16.4615006,9.71311104 L14.4120801,15.5881168 C13.9918101,16.7928908 12.8554525,17.6000004 11.5794795,17.6000004 L9,17.6000004 C8.95510243,17.6000004 8.91062358,17.5969892 8.86681247,17.5911071 C8.37915106,19.5491617 6.60900625,21 4.5,21 C2.01471863,21 -6.66133815e-16,18.9852814 -6.66133815e-16,16.5 C-6.66133815e-16,14.0147186 2.01471863,12 4.5,12 C4.69101886,12 4.87925788,12.0119019 5.06401594,12.0350045 L4.14480216,10.5183017 C3.85855203,10.045989 4.00938558,9.43105228 4.48169831,9.14480216 C4.63846841,9.04978998 4.81095153,9.00293173 4.9819128,9 C5.34831826,9.00569329 5.67031521,9.17664194 5.85519784,9.48169831 L6.77538064,11 L1.99975586,11 C1.44747111,11 0.999755859,10.5522847 0.999755859,10 C0.999755859,9.44771525 1.44747111,9 1.99975586,9 L7.58578644,9 L9.12132034,7.46446609 C10.0590022,6.5267842 11.3307718,6 12.6568542,6 L15.6971936,6 L16.1222259,5.71661056 L15.4333333,5.19994115 C15.2602372,5.07011902 15.0497035,4.99994115 14.8333333,4.99994115 L14,4.99994115 C13.4477153,4.99994115 13,4.5522259 13,3.99994115 C13,3.4476564 13.4477153,2.99994115 14,2.99994115 L14.8333333,2.99994115 C15.482444,2.99994115 16.1140448,3.21047476 16.6333333,3.59994115 L17.8868304,4.54006395 L18.1933122,4.33571777 C18.5218669,4.11665462 18.907918,3.99975586 19.3028064,3.99975586 L20,3.99975586 C21.1045695,3.99975586 22,4.89518636 22,5.99975586 L22,7 C22,8.1045695 21.1045695,9 20,9 L18.3364732,9 Z M17.8940922,14.5839225 C17.3474973,15.0425195 17,15.7306786 17,16.5 C17,17.8807119 18.1192881,19 19.5,19 C20.8807119,19 22,17.8807119 22,16.5 C22,15.225209 21.0458564,14.1732702 19.8127598,14.0193742 L20.4593655,16.2178337 C20.6152017,16.7476766 20.3120093,17.3035293 19.7821663,17.4593655 C19.2523234,17.6152017 18.6964707,17.3120093 18.5406345,16.7821663 L17.8940922,14.5839225 Z M6.79197816,15.5 C6.40619985,14.6170476 5.52515952,14 4.5,14 C3.11928813,14 2,15.1192881 2,16.5 C2,17.8807119 3.11928813,19 4.5,19 C5.52515952,19 6.40619985,18.3829524 6.79197816,17.5 L5,17.5 C4.44771525,17.5 4,17.0522847 4,16.5 C4,15.9477153 4.44771525,15.5 5,15.5 L6.79197816,15.5 Z" id="shape"></path>
        </g>
    </g>
</svg>