<?xml version="1.0" encoding="UTF-8"?>
<svg width="24px" height="24px" viewBox="0 0 24 24" version="1.1" xmlns="http://www.w3.org/2000/svg" xmlns:xlink="http://www.w3.org/1999/xlink">
    <!-- Generator: Sketch 44.1 (41455) - http://www.bohemiancoding.com/sketch -->
    <title>Bold/SVG/mousic</title>
    <desc>Created with Sketch.</desc>
    <defs></defs>
    <g id="Bold-Outline" stroke="none" stroke-width="1" fill="none" fill-rule="evenodd">
        <g id="mousic" fill-rule="nonzero" fill="#000000">
            <path d="M9,9.85791896 L9,17 C9,17.1157317 8.98034013,17.2268717 8.94417791,17.3302622 C8.98088824,17.5480356 9,17.7717859 9,18 C9,20.209139 7.209139,22 5,22 C2.790861,22 1,20.209139 1,18 C1,15.790861 2.790861,14 5,14 C5.72857429,14 6.41165327,14.1947886 7,14.5351288 L7,9.01552912 C6.99981188,9.00432338 6.99981274,8.9931473 7,8.98200442 L7,6.57375687 C7,4.59947255 8.44044451,2.9204742 10.3917713,2.62027008 L17.3917713,1.543347 C19.5752217,1.20743155 21.6175713,2.70515459 21.9534868,4.88860506 C21.9844504,5.08986847 22,5.29320249 22,5.49683379 L22,6.98447088 C22.0001881,6.99567662 22.0001873,7.0068527 22,7.01799558 L22,15 C22,15.1157317 21.9803401,15.2268717 21.9441779,15.3302622 C21.9808882,15.5480356 22,15.7717859 22,16 C22,18.209139 20.209139,20 18,20 C15.790861,20 14,18.209139 14,16 C14,13.790861 15.790861,12 18,12 C18.7285743,12 19.4116533,12.1947886 20,12.5351288 L20,8.16561126 L9,9.85791896 Z M9,7.83438874 L20,6.14208104 L20,5.49683379 C20,5.39501814 19.9922252,5.29335113 19.9767434,5.19271942 C19.8087857,4.10099419 18.7876109,3.35213267 17.6958856,3.5200904 L10.6958856,4.59701347 C9.72022226,4.74711553 9,5.58661471 9,6.57375687 L9,7.83438874 Z M5,20 C6.1045695,20 7,19.1045695 7,18 C7,16.8954305 6.1045695,16 5,16 C3.8954305,16 3,16.8954305 3,18 C3,19.1045695 3.8954305,20 5,20 Z M18,18 C19.1045695,18 20,17.1045695 20,16 C20,14.8954305 19.1045695,14 18,14 C16.8954305,14 16,14.8954305 16,16 C16,17.1045695 16.8954305,18 18,18 Z" id="shape"></path>
        </g>
    </g>
</svg>