<?xml version="1.0" encoding="UTF-8"?>
<svg width="24px" height="24px" viewBox="0 0 24 24" version="1.1" xmlns="http://www.w3.org/2000/svg" xmlns:xlink="http://www.w3.org/1999/xlink">
    <!-- Generator: Sketch 44.1 (41455) - http://www.bohemiancoding.com/sketch -->
    <title>Bold/SVG/move-backward</title>
    <desc>Created with Sketch.</desc>
    <defs></defs>
    <g id="Bold-Outline" stroke="none" stroke-width="1" fill="none" fill-rule="evenodd">
        <g id="move-backward" fill-rule="nonzero" fill="#000000">
            <path d="M20,4.99999572 C20,4.44771097 19.5522847,3.99999572 19,3.99999572 L5,3.99999572 C4.44771525,3.99999572 4,4.44771097 4,4.99999572 C4,5.55228047 4.44771525,5.99999572 5,5.99999572 L10,5.99999572 C10.5522847,5.99999572 11,6.44771097 11,6.99999572 L11,14.9999957 C11,15.5522805 10.5522847,15.9999957 10,15.9999957 L7.79321237,15.9999957 L12,20.5303824 L16.2067876,15.9999957 L14,15.9999957 C13.4477153,15.9999957 13,15.5522805 13,14.9999957 L13,6.99999572 C13,6.44771097 13.4477153,5.99999572 14,5.99999572 L19,5.99999572 C19.5522847,5.99999572 20,5.55228047 20,4.99999572 Z M9,10 L9,7.99999572 L5,7.99999572 C3.34314575,7.99999572 2,6.65684997 2,4.99999572 C2,3.34314147 3.34314575,1.99999572 5,1.99999572 L19,1.99999572 C20.6568542,1.99999572 22,3.34314147 22,4.99999572 C22,6.65684997 20.6568542,7.99999572 19,7.99999572 L15,7.99999572 L15,10 L21,10 C21.5522847,10 22,10.4477153 22,11 C22,11.5522847 21.5522847,12 21,12 L15,12 L15,13.9999957 L16.2067876,13.9999957 C17.3113571,13.9999957 18.2067876,14.8954262 18.2067876,15.9999957 C18.2067876,16.5048185 18.0158819,16.990967 17.6723746,17.3608979 L13.465587,21.8912846 C12.7139815,22.7007059 11.4485191,22.7475749 10.6390978,21.9959694 C10.5854634,21.9449189 10.5854634,21.9449189 10.534413,21.8912846 L6.32762539,17.3608979 C5.57601986,16.5514766 5.62288883,15.2860143 6.43231017,14.5344087 C6.80224105,14.1909015 7.28838955,13.9999957 7.79321237,13.9999957 L9,13.9999957 L9,12 L2.99987793,12 C2.44759318,12 1.99987793,11.5522847 1.99987793,11 C1.99987793,10.4477153 2.44759318,10 2.99987793,10 L9,10 Z" id="Combined-Shape"></path>
        </g>
    </g>
</svg>