<?xml version="1.0" encoding="UTF-8"?>
<svg width="24px" height="24px" viewBox="0 0 24 24" version="1.1" xmlns="http://www.w3.org/2000/svg" xmlns:xlink="http://www.w3.org/1999/xlink">
    <!-- Generator: Sketch 44.1 (41455) - http://www.bohemiancoding.com/sketch -->
    <title>Bold/SVG/music-list</title>
    <desc>Created with Sketch.</desc>
    <defs></defs>
    <g id="Bold-Outline" stroke="none" stroke-width="1" fill="none" fill-rule="evenodd">
        <g id="music-list" fill-rule="nonzero" fill="#000000">
            <path d="M8,13.5351288 L8,6 C8,4.34314575 9.34314575,3 11,3 L15,3 C15.5522847,3 16,3.44771525 16,4 L16,6 C16,7.65685425 14.6568542,9 13,9 L10,9 L10,17 C10,19.209139 8.209139,21 6,21 C3.790861,21 2,19.209139 2,17 C2,14.790861 3.790861,13 6,13 C6.72857429,13 7.41165327,13.1947886 8,13.5351288 Z M6,19 C7.1045695,19 8,18.1045695 8,17 C8,15.8954305 7.1045695,15 6,15 C4.8954305,15 4,15.8954305 4,17 C4,18.1045695 4.8954305,19 6,19 Z M13,7 C13.5522847,7 14,6.55228475 14,6 L14,5 L11,5 C10.4477153,5 10,5.44771525 10,6 L10,7 L13,7 Z M17,11 C16.4477153,11 16,10.5522847 16,10 C16,9.44771525 16.4477153,9 17,9 L21,9 C21.5522847,9 22,9.44771525 22,10 C22,10.5522847 21.5522847,11 21,11 L17,11 Z M13,15 C12.4477153,15 12,14.5522847 12,14 C12,13.4477153 12.4477153,13 13,13 L21,13 C21.5522847,13 22,13.4477153 22,14 C22,14.5522847 21.5522847,15 21,15 L13,15 Z M13,19 C12.4477153,19 12,18.5522847 12,18 C12,17.4477153 12.4477153,17 13,17 L21,17 C21.5522847,17 22,17.4477153 22,18 C22,18.5522847 21.5522847,19 21,19 L13,19 Z" id="shape"></path>
        </g>
    </g>
</svg>