<?xml version="1.0" encoding="UTF-8"?>
<svg width="24px" height="24px" viewBox="0 0 24 24" version="1.1" xmlns="http://www.w3.org/2000/svg" xmlns:xlink="http://www.w3.org/1999/xlink">
    <!-- Generator: Sketch 44.1 (41455) - http://www.bohemiancoding.com/sketch -->
    <title>Bold/SVG/notification-time</title>
    <desc>Created with Sketch.</desc>
    <defs></defs>
    <g id="Bold-Outline" stroke="none" stroke-width="1" fill="none" fill-rule="evenodd">
        <g id="notification-time" fill-rule="nonzero" fill="#000000">
            <path d="M15.9690531,19.5 C15.7230041,21.4731558 14.0398088,23 12,23 C9.96019117,23 8.27699592,21.4731558 8.03094688,19.5 L4.03883402,19.5 C2.93426452,19.5 2.03883402,18.6045695 2.03883402,17.5 C2.03883402,17.056781 2.18605984,16.6261174 2.45738661,16.2756536 L3.99997623,14.283142 L3.99997623,9.47213595 C3.99997623,6.35254353 5.76251435,3.50069695 8.55276263,2.10557281 C9.04674113,1.85858356 9.64741417,2.05880791 9.89440342,2.5527864 C10.1413927,3.0467649 9.94116832,3.64743794 9.44718982,3.89442719 C7.33450959,4.95076731 5.99997623,7.11008765 5.99997623,9.47213595 L5.99997623,14.625 C5.99997623,14.8466095 5.92636332,15.0619413 5.79069994,15.2371732 L4.03883402,17.5 L19.9611184,17.5 L18.5842525,15.7215482 C18.2461586,15.2848435 18.3260984,14.6567452 18.762803,14.3186513 C19.1995077,13.9805574 19.827606,14.0604972 20.1656999,14.4972018 L21.5425659,16.2756536 C22.2187537,17.1490629 22.0588741,18.4052596 21.1854648,19.0814474 C20.8350011,19.3527742 20.4043374,19.5 19.9611184,19.5 L15.9690531,19.5 Z M13.9369913,19.5 L10.0630087,19.5 C10.2850301,20.3626136 11.0680803,21 12,21 C12.9319197,21 13.7149699,20.3626136 13.9369913,19.5 Z M16,3.12601749 C14.2747728,3.57006028 13,5.13616057 13,7 C13,9.209139 14.790861,11 17,11 C18.8638394,11 20.4299397,9.72522721 20.8739825,8 L17,8 C16.4477153,8 16,7.55228475 16,7 L16,3.12601749 Z M18,3.12601749 L18,6 L20.8739825,6 C20.5122042,4.59439271 19.4056073,3.4877958 18,3.12601749 Z M17,13 C13.6862915,13 11,10.3137085 11,7 C11,3.6862915 13.6862915,1 17,1 C20.3137085,1 23,3.6862915 23,7 C23,10.3137085 20.3137085,13 17,13 Z" id="Combined-Shape"></path>
        </g>
    </g>
</svg>