<?xml version="1.0" encoding="UTF-8"?>
<svg width="24px" height="24px" viewBox="0 0 24 24" version="1.1" xmlns="http://www.w3.org/2000/svg" xmlns:xlink="http://www.w3.org/1999/xlink">
    <!-- Generator: Sketch 44.1 (41455) - http://www.bohemiancoding.com/sketch -->
    <title>Bold/SVG/notification-ringing</title>
    <desc>Created with Sketch.</desc>
    <defs></defs>
    <g id="Bold-Outline" stroke="none" stroke-width="1" fill="none" fill-rule="evenodd">
        <g id="notification-ringing" fill-rule="nonzero" fill="#000000">
            <path d="M6.99997623,11 L6.99997623,14.625 C6.99997623,14.8466095 6.92636332,15.0619413 6.79069994,15.2371732 L5.03883402,17.5 L18.9611184,17.5 L17.2092525,15.2371732 C17.0735891,15.0619413 16.9999762,14.8466095 16.9999762,14.625 L16.9999762,11 C16.9999762,8.23857625 14.7614,6 11.9999762,6 C9.23855248,6 6.99997623,8.23857625 6.99997623,11 Z M15.9690531,19.5 C15.7230041,21.4731558 14.0398088,23 12,23 C9.96019117,23 8.27699592,21.4731558 8.03094688,19.5 L5.03883402,19.5 C3.93426452,19.5 3.03883402,18.6045695 3.03883402,17.5 C3.03883402,17.056781 3.18605984,16.6261174 3.45738661,16.2756536 L4.99997623,14.283142 L4.99997623,11 C4.99997623,7.13400675 8.13398298,4 11.9999762,4 C15.8659695,4 18.9999762,7.13400675 18.9999762,11 L18.9999762,14.283142 L20.5425659,16.2756536 C21.2187537,17.1490629 21.0588741,18.4052596 20.1854648,19.0814474 C19.8350011,19.3527742 19.4043374,19.5 18.9611184,19.5 L15.9690531,19.5 Z M13.9369913,19.5 L10.0630087,19.5 C10.2850301,20.3626136 11.0680803,21 12,21 C12.9319197,21 13.7149699,20.3626136 13.9369913,19.5 Z M22.6935257,6.54980222 C22.9446797,7.04167628 22.7495376,7.64401957 22.2576635,7.89517362 C21.7657895,8.14632767 21.1634462,7.95118554 20.9122921,7.45931148 C20.6615065,6.96815889 20.370319,6.49857426 20.0420488,6.05529495 C19.2552602,4.99285591 18.2645742,4.09381666 17.1308143,3.41464901 C16.6570335,3.13083532 16.5030348,2.51668365 16.7868485,2.04290286 C17.0706622,1.56912208 17.6848138,1.41512333 18.1585946,1.69893702 C19.5184502,2.51354506 20.705991,3.59122838 21.6493103,4.8650385 C22.0430917,5.3967808 22.392496,5.96024897 22.6935257,6.54980222 Z M5.84140539,1.69893702 C6.31518617,1.41512333 6.92933784,1.56912208 7.21315154,2.04290286 C7.49696524,2.51668365 7.34296648,3.13083532 6.8691857,3.41464901 C5.73542583,4.09381666 4.74473976,4.99285591 3.95795124,6.05529495 C3.62968104,6.49857426 3.33849352,6.96815889 3.08770785,7.45931148 C2.8365538,7.95118554 2.23421051,8.14632767 1.74233645,7.89517362 C1.2504624,7.64401957 1.05532027,7.04167628 1.30647432,6.54980222 C1.60750399,5.96024897 1.95690832,5.3967808 2.35068972,4.8650385 C3.29400896,3.59122838 4.48154982,2.51354506 5.84140539,1.69893702 Z" id="Combined-Shape"></path>
        </g>
    </g>
</svg>