<?xml version="1.0" encoding="UTF-8"?>
<svg width="24px" height="24px" viewBox="0 0 24 24" version="1.1" xmlns="http://www.w3.org/2000/svg" xmlns:xlink="http://www.w3.org/1999/xlink">
    <!-- Generator: Sketch 44.1 (41455) - http://www.bohemiancoding.com/sketch -->
    <title>Bold/SVG/notification</title>
    <desc>Created with Sketch.</desc>
    <defs></defs>
    <g id="Bold-Outline" stroke="none" stroke-width="1" fill="none" fill-rule="evenodd">
        <g id="notification" fill-rule="nonzero" fill="#000000">
            <path d="M15.9690531,19.5 C15.7230041,21.4731558 14.0398088,23 12,23 C9.96019117,23 8.27699592,21.4731558 8.03094688,19.5 L4.03883402,19.5 C2.93426452,19.5 2.03883402,18.6045695 2.03883402,17.5 C2.03883402,17.056781 2.18605984,16.6261174 2.45738661,16.2756536 L3.99997623,14.283142 L3.99997623,9 C3.99997623,4.581722 7.58169823,1 11.9999762,1 C16.4182542,1 19.9999762,4.581722 19.9999762,9 L19.9999762,14.283142 L21.5425659,16.2756536 C22.2187537,17.1490629 22.0588741,18.4052596 21.1854648,19.0814474 C20.8350011,19.3527742 20.4043374,19.5 19.9611184,19.5 L15.9690531,19.5 Z M13.9369913,19.5 L10.0630087,19.5 C10.2850301,20.3626136 11.0680803,21 12,21 C12.9319197,21 13.7149699,20.3626136 13.9369913,19.5 Z M5.99997623,9 L5.99997623,14.625 C5.99997623,14.8466095 5.92636332,15.0619413 5.79069994,15.2371732 L4.03883402,17.5 L19.9611184,17.5 L18.2092525,15.2371732 C18.0735891,15.0619413 17.9999762,14.8466095 17.9999762,14.625 L17.9999762,9 C17.9999762,5.6862915 15.3136847,3 11.9999762,3 C8.68626773,3 5.99997623,5.6862915 5.99997623,9 Z" id="shape"></path>
        </g>
    </g>
</svg>