<?xml version="1.0" encoding="UTF-8"?>
<svg width="24px" height="24px" viewBox="0 0 24 24" version="1.1" xmlns="http://www.w3.org/2000/svg" xmlns:xlink="http://www.w3.org/1999/xlink">
    <!-- Generator: Sketch 44.1 (41455) - http://www.bohemiancoding.com/sketch -->
    <title>Bold/SVG/paper-cup</title>
    <desc>Created with Sketch.</desc>
    <defs></defs>
    <g id="Bold-Outline" stroke="none" stroke-width="1" fill="none" fill-rule="evenodd">
        <g id="paper-cup" fill-rule="nonzero" fill="#000000">
            <path d="M19.8672954,8.5 L18.2352577,19.9242641 C18.0241225,21.4022103 16.7583603,22.5 15.2654092,22.5 L8.7345908,22.5 C7.24163967,22.5 5.9758775,21.4022103 5.76474232,19.9242641 L4.1327046,8.5 L3.75,8.5 C2.78350169,8.5 2,7.71649831 2,6.75 L2,6.5 C2,5.87048539 2.29638831,5.27770876 2.8,4.9 L4,4 L4,3.5 C4,2.3954305 4.8954305,1.5 6,1.5 L18,1.5 C19.1045695,1.5 20,2.3954305 20,3.5 L20,4 L21.2,4.9 C21.7036117,5.27770876 22,5.87048539 22,6.5 L22,6.75 C22,7.71649831 21.2164983,8.5 20.25,8.5 L19.8672954,8.5 Z M7.3672954,17 L16.6327046,17 L17.3469903,12 L6.65300969,12 L7.3672954,17 Z M7.65300969,19 L7.74464131,19.6414214 C7.8150197,20.1340701 8.23694043,20.5 8.7345908,20.5 L15.2654092,20.5 C15.7630596,20.5 16.1849803,20.1340701 16.2553587,19.6414214 L16.3469903,19 L7.65300969,19 Z M6.3672954,10 L17.6327046,10 L17.8469903,8.5 L6.15300969,8.5 L6.3672954,10 Z M3.75,6.5 L4,6.5 L20.25,6.5 C20.1119288,6.5 20,6.61192881 20,6.75 L20,6.5 L18.8,5.6 C18.2963883,5.22229124 18,4.62951461 18,4 L18,3.5 L6,3.5 L6,4 C6,4.62951461 5.70361169,5.22229124 5.2,5.6 L4,6.5 L4,6.75 C4,6.61192881 3.88807119,6.5 3.75,6.5 Z" id="shape"></path>
        </g>
    </g>
</svg>