<?xml version="1.0" encoding="UTF-8"?>
<svg width="24px" height="24px" viewBox="0 0 24 24" version="1.1" xmlns="http://www.w3.org/2000/svg" xmlns:xlink="http://www.w3.org/1999/xlink">
    <!-- Generator: Sketch 44.1 (41455) - http://www.bohemiancoding.com/sketch -->
    <title>Bold/SVG/pause-circle</title>
    <desc>Created with Sketch.</desc>
    <defs></defs>
    <g id="Bold-Outline" stroke="none" stroke-width="1" fill="none" fill-rule="evenodd">
        <g id="pause-circle" fill-rule="nonzero" fill="#000000">
            <path d="M12,23 C5.92486775,23 1,18.0751322 1,12 C1,5.92486775 5.92486775,1 12,1 C18.0751322,1 23,5.92486775 23,12 C23,18.0751322 18.0751322,23 12,23 Z M12,21 C16.9705627,21 21,16.9705627 21,12 C21,7.02943725 16.9705627,3 12,3 C7.02943725,3 3,7.02943725 3,12 C3,16.9705627 7.02943725,21 12,21 Z M10.75,8.5 L10.75,15.5 C10.75,16.8333333 8.75,16.8333333 8.75,15.5 L8.75,8.5 C8.75,7.16666667 10.75,7.16666667 10.75,8.5 Z M15.25,8.5 L15.25,15.5 C15.25,16.8333333 13.25,16.8333333 13.25,15.5 L13.25,8.5 C13.25,7.16666667 15.25,7.16666667 15.25,8.5 Z" id="shape"></path>
        </g>
    </g>
</svg>