<?xml version="1.0" encoding="UTF-8"?>
<svg width="24px" height="24px" viewBox="0 0 24 24" version="1.1" xmlns="http://www.w3.org/2000/svg" xmlns:xlink="http://www.w3.org/1999/xlink">
    <!-- Generator: Sketch 44.1 (41455) - http://www.bohemiancoding.com/sketch -->
    <title>Bold/SVG/pen</title>
    <desc>Created with Sketch.</desc>
    <defs></defs>
    <g id="Bold-Outline" stroke="none" stroke-width="1" fill="none" fill-rule="evenodd">
        <g id="pen" fill-rule="nonzero" fill="#000000">
            <path d="M0.914213562,13 L2.91421356,15 L15.5,15 L15.5,11 L2.91421356,11 L0.914213562,13 Z M2.5,9 L16.5,9 C17.0522847,9 17.5,9.44771525 17.5,10 L17.5,16 C17.5,16.5522847 17.0522847,17 16.5,17 L2.5,17 C2.23478351,17 1.9804296,16.8946432 1.79289322,16.7071068 L-1.20710678,13.7071068 C-1.59763107,13.3165825 -1.59763107,12.6834175 -1.20710678,12.2928932 L1.79289322,9.29289322 C1.9804296,9.10535684 2.23478351,9 2.5,9 Z M17.5,15 L21.5,15 L21.5,11 L17.5,11 L17.5,15 Z M16.5,9 L22.5,9 C23.0522847,9 23.5,9.44771525 23.5,10 L23.5,16 C23.5,16.5522847 23.0522847,17 22.5,17 L16.5,17 C15.9477153,17 15.5,16.5522847 15.5,16 L15.5,10 C15.5,9.44771525 15.9477153,9 16.5,9 Z" id="shape" transform="translate(11.000000, 13.000000) rotate(-45.000000) translate(-11.000000, -13.000000) "></path>
        </g>
    </g>
</svg>