<?xml version="1.0" encoding="UTF-8"?>
<svg width="24px" height="24px" viewBox="0 0 24 24" version="1.1" xmlns="http://www.w3.org/2000/svg" xmlns:xlink="http://www.w3.org/1999/xlink">
    <!-- Generator: Sketch 44.1 (41455) - http://www.bohemiancoding.com/sketch -->
    <title>Bold/SVG/pent</title>
    <desc>Created with Sketch.</desc>
    <defs></defs>
    <g id="Bold-Outline" stroke="none" stroke-width="1" fill="none" fill-rule="evenodd">
        <g id="pent" fill-rule="nonzero" fill="#000000">
            <path d="M11,3 L11,5 L13,5 L13,3 L11,3 Z M9,3 L5,3 L5,5 L9,5 L9,3 Z M15,3 L15,5 L19,5 L19,3 L15,3 Z M19,7 L5,7 L5,19 C5,20.1045695 5.8954305,21 7,21 L11,21 L11,12 C11,11.4477153 11.4477153,11 12,11 C12.5522847,11 13,11.4477153 13,12 L13,21 L17,21 C18.1045695,21 19,20.1045695 19,19 L19,7 Z M5,1 L19,1 C20.1045695,1 21,1.8954305 21,3 L21,19 C21,21.209139 19.209139,23 17,23 L7,23 C4.790861,23 3,21.209139 3,19 L3,3 C3,1.8954305 3.8954305,1 5,1 Z" id="shape"></path>
        </g>
    </g>
</svg>