<?xml version="1.0" encoding="UTF-8"?>
<svg width="24px" height="24px" viewBox="0 0 24 24" version="1.1" xmlns="http://www.w3.org/2000/svg" xmlns:xlink="http://www.w3.org/1999/xlink">
    <!-- Generator: Sketch 44.1 (41455) - http://www.bohemiancoding.com/sketch -->
    <title>Bold/SVG/phone-off</title>
    <desc>Created with Sketch.</desc>
    <defs></defs>
    <g id="Bold-Outline" stroke="none" stroke-width="1" fill="none" fill-rule="evenodd">
        <g id="phone-off" fill-rule="nonzero" fill="#000000">
            <path d="M7.36520992,11.3840957 C5.15286231,8.73607183 4.13020162,6.64674346 4.22339312,5.19972826 C4.24954297,4.79369087 4.51909903,4.44398068 4.90509793,4.31531438 L7.05842226,3.5975396 C7.41775699,3.47776136 7.81392452,3.57128383 8.08175681,3.83911612 L9.91113992,5.66849923 C10.2380973,5.99545657 10.2982606,6.5039359 10.0566344,6.89816807 L9.01757366,8.59347768 C8.7289706,9.06435635 8.87673418,9.68003793 9.34761285,9.96864099 C9.81849152,10.257244 10.4341731,10.1094805 10.7227762,9.63860179 L11.7618369,7.94329218 C12.4867154,6.76059568 12.3062255,5.23515769 11.3253535,4.25428567 L9.49597037,2.42490256 C8.6924735,1.62140569 7.50397091,1.34083828 6.42596673,1.70017301 L4.2726424,2.41794778 C3.1146457,2.80394668 2.30597749,3.85307728 2.22752795,5.07118942 C2.09323821,7.15635046 3.31880123,9.66021476 5.83038229,12.6664 C6.18448083,13.0902309 6.81511728,13.1467602 7.23894822,12.7926617 C7.66277917,12.4385631 7.71930846,11.8079267 7.36520992,11.3840957 Z M10.5895432,14.8246703 C14.3481701,18.4802644 17.2394111,20.212358 19.1152162,20.0915513 C19.5212536,20.0654015 19.8709638,19.7958454 19.9996301,19.4098465 L20.7174049,17.2565222 C20.8371831,16.8971875 20.7436606,16.5010199 20.4758283,16.2331876 L18.6464452,14.4038045 C18.3194879,14.0768472 17.8110086,14.0166839 17.4167764,14.2583101 L15.7214668,15.2973708 C14.5387703,16.0222493 13.0133323,15.8417594 12.0324603,14.8608874 L11.2928932,14.1213203 L10.5895432,14.8246703 Z M12.7071068,12.7071068 L13.4466738,13.4466738 C13.7736312,13.7736312 14.2821105,13.8337945 14.6763427,13.5921683 L16.3716523,12.5531076 C17.5543488,11.8282291 19.0797868,12.008719 20.0606588,12.989591 L21.8900419,14.8189741 C22.6935388,15.622471 22.9741062,16.8109735 22.6147714,17.8889777 L21.8969967,20.042302 C21.5109978,21.2002987 20.4618672,22.0089669 19.2437551,22.0874165 C16.6320606,22.2556164 13.3258398,20.2823368 9.17511738,16.2390962 L3.51471863,21.8994949 C3.12419433,22.2900192 2.49102936,22.2900192 2.10050506,21.8994949 C1.70998077,21.5089706 1.70998077,20.8758057 2.10050506,20.4852814 L20.4852814,2.10050506 C20.8758057,1.70998077 21.5089706,1.70998077 21.8994949,2.10050506 C22.2900192,2.49102936 22.2900192,3.12419433 21.8994949,3.51471863 L12.7071068,12.7071068 Z" id="shape"></path>
        </g>
    </g>
</svg>