<?xml version="1.0" encoding="UTF-8"?>
<svg width="24px" height="24px" viewBox="0 0 24 24" version="1.1" xmlns="http://www.w3.org/2000/svg" xmlns:xlink="http://www.w3.org/1999/xlink">
    <!-- Generator: Sketch 44.1 (41455) - http://www.bohemiancoding.com/sketch -->
    <title>Bold/SVG/phone-incoming</title>
    <desc>Created with Sketch.</desc>
    <defs></defs>
    <g id="Bold-Outline" stroke="none" stroke-width="1" fill="none" fill-rule="evenodd">
        <g id="phone-incoming" fill-rule="nonzero" fill="#000000">
            <path d="M18.1152162,21.0915513 C18.5212536,21.0654015 18.8709638,20.7958454 18.9996301,20.4098465 L19.7174049,18.2565222 C19.8371831,17.8971875 19.7436606,17.5010199 19.4758283,17.2331876 L17.6464452,15.4038045 C17.3194879,15.0768472 16.8110086,15.0166839 16.4167764,15.2583101 L14.7214668,16.2973708 C13.5387703,17.0222493 12.0133323,16.8417594 11.0324603,15.8608874 L8.45405707,13.2824842 C7.47318505,12.3016122 7.29269516,10.7761742 8.01757366,9.59347768 L9.05663439,7.89816807 C9.29826055,7.5039359 9.23809726,6.99545657 8.91113992,6.66849923 L7.08175681,4.83911612 C6.81392452,4.57128383 6.41775699,4.47776136 6.05842226,4.5975396 L3.90509794,5.31531438 C3.51909904,5.44398068 3.24954297,5.79369088 3.22339312,6.19972826 C3.09672305,8.16657617 5.00718028,11.249821 9.03615188,15.2787926 C13.0651235,19.3077642 16.1483683,21.2182214 18.1152162,21.0915513 Z M15.9644661,6.12135754 L20.6212844,1.46444452 C21.0118047,1.07391625 21.6449697,1.07390981 22.0354979,1.46443013 C22.4260262,1.85495045 22.4260326,2.48811543 22.0355123,2.87864369 L17.3787169,7.53553391 L19.9644661,7.53553391 C20.5167508,7.53553391 20.9644661,7.98324916 20.9644661,8.53553391 C20.9644661,9.08781866 20.5167508,9.53553391 19.9644661,9.53553391 L15.9644661,9.53553391 C14.8598966,9.53553391 13.9644661,8.64010341 13.9644661,7.53553391 L13.9644661,3.53553391 C13.9644661,2.98324916 14.4121813,2.53553391 14.9644661,2.53553391 C15.5167508,2.53553391 15.9644661,2.98324916 15.9644661,3.53553391 L15.9644661,6.12135754 Z M18.2437551,23.0874165 C15.5170706,23.263022 12.0333551,21.1044229 7.62193832,16.6930061 C3.2105216,12.2815894 1.05192245,8.79787386 1.22752796,6.07118942 C1.30597749,4.85307728 2.1146457,3.80394668 3.2726424,3.41794778 L5.42596673,2.70017301 C6.50397091,2.34083828 7.6924735,2.62140569 8.49597037,3.42490256 L10.3253535,5.25428567 C11.3062255,6.23515769 11.4867154,7.76059568 10.7618369,8.94329218 L9.72277616,10.6386018 C9.48115,11.032834 9.54131329,11.5413133 9.86827063,11.8682706 L12.4466738,14.4466738 C12.7736312,14.7736312 13.2821105,14.8337945 13.6763427,14.5921683 L15.3716523,13.5531076 C16.5543488,12.8282291 18.0797868,13.008719 19.0606588,13.989591 L20.8900419,15.8189741 C21.6935388,16.622471 21.9741062,17.8109735 21.6147714,18.8889777 L20.8969967,21.042302 C20.5109978,22.2002987 19.4618672,23.0089669 18.2437551,23.0874165 Z" id="shape"></path>
        </g>
    </g>
</svg>