<?xml version="1.0" encoding="UTF-8"?>
<svg width="24px" height="24px" viewBox="0 0 24 24" version="1.1" xmlns="http://www.w3.org/2000/svg" xmlns:xlink="http://www.w3.org/1999/xlink">
    <!-- Generator: Sketch 44.1 (41455) - http://www.bohemiancoding.com/sketch -->
    <title>Bold/SVG/phone-hang-up</title>
    <desc>Created with Sketch.</desc>
    <defs></defs>
    <g id="Bold-Outline" stroke="none" stroke-width="1" fill="none" fill-rule="evenodd">
        <g id="phone-hang-up" fill-rule="nonzero" fill="#000000">
            <path d="M2.30149259,11.7045151 C2.04819073,12.0095483 1.99903033,12.4354269 2.17617485,12.7901478 L3.00348131,14.4467778 C3.17278667,14.7858013 3.5191787,15 3.89812626,15 L6.12738888,15 C6.58978896,15 6.9918875,14.6829758 7.09978404,14.2333402 L7.48453361,12.6299792 C7.80822323,11.2810725 9.01451885,10.3299999 10.4017191,10.3299999 L13.5982809,10.3299999 C14.9854811,10.3299999 16.1917768,11.2810725 16.5154664,12.6299792 L16.900216,14.2333402 C17.0081125,14.6829758 17.410211,15 17.8726111,15 L20.1018737,15 C20.4808213,15 20.8272133,14.7858013 20.9965187,14.4467778 L21.8238251,12.7901478 C22.0009697,12.4354269 21.9518093,12.0095483 21.6985074,11.7045151 C20.2366819,9.9441434 17.0128617,9 12,9 C6.98713828,9 3.76331811,9.94414339 2.30149259,11.7045151 Z M0.762838173,10.4268052 C2.69534146,8.09963001 6.4500777,7 12,7 C17.5499223,7 21.3046586,8.09963001 23.2371618,10.4268052 C23.9970674,11.341905 24.1445486,12.6195406 23.613115,13.6837035 L22.7858086,15.3403335 C22.2778925,16.357404 21.2387164,17 20.1018737,17 L17.8726111,17 C16.4854109,17 15.2791153,16.0489275 14.9554256,14.7000207 L14.5706761,13.0966597 C14.4627795,12.6470241 14.060681,12.3299999 13.5982809,12.3299999 L10.4017191,12.3299999 C9.939319,12.3299999 9.53722046,12.6470241 9.42932392,13.0966597 L9.04457435,14.7000207 C8.72088473,16.0489275 7.51458911,17 6.12738888,17 L3.89812626,17 C2.7612836,17 1.72210751,16.357404 1.21419142,15.3403335 L0.386884956,13.6837035 C-0.144548607,12.6195406 0.00293257857,11.341905 0.762838173,10.4268052 Z" id="shape"></path>
        </g>
    </g>
</svg>