<?xml version="1.0" encoding="UTF-8"?>
<svg width="24px" height="24px" viewBox="0 0 24 24" version="1.1" xmlns="http://www.w3.org/2000/svg" xmlns:xlink="http://www.w3.org/1999/xlink">
    <!-- Generator: Sketch 44.1 (41455) - http://www.bohemiancoding.com/sketch -->
    <title>Bold/SVG/pie-chart</title>
    <desc>Created with Sketch.</desc>
    <defs></defs>
    <g id="Bold-Outline" stroke="none" stroke-width="1" fill="none" fill-rule="evenodd">
        <g id="pie-chart" fill-rule="nonzero" fill="#000000">
            <path d="M8.63396125,1.66940211 C9.15519051,1.48681378 9.7257474,1.76133649 9.90833574,2.28256575 C10.0909241,2.80379502 9.81640136,3.37435191 9.2951721,3.55694025 C9.02154078,3.6527942 8.75337498,3.7622728 8.49151426,3.88491354 C5.46405075,5.30280613 3.5,8.35503714 3.5,11.7844255 C3.5,16.5976623 7.40655755,20.5 12.2260806,20.5 C15.9682238,20.5 19.2661871,18.1030603 20.474697,14.6141694 C20.6554643,14.0923058 21.2250592,13.8157926 21.7469228,13.9965599 C22.2687864,14.1773272 22.5452996,14.7469221 22.3645323,15.2687857 C20.8796137,19.5556508 16.8284666,22.5 12.2260806,22.5 C6.30247164,22.5 1.5,17.702716 1.5,11.7844255 C1.5,7.57475131 3.91675818,3.8189908 7.64325031,2.07371276 C7.96606157,1.92252624 8.29665451,1.78756178 8.63396125,1.66940211 Z M12,2 C12,1.44771525 12.4477153,1 13,1 C18.5228475,1 23,5.4771525 23,11 C23,11.5522847 22.5522847,12 22,12 L13,12 C12.4477153,12 12,11.5522847 12,11 L12,2 Z M14,10 L20.9381062,10 C20.4868586,6.38128266 17.6187173,3.51314142 14,3.06189375 L14,10 Z" id="shape"></path>
        </g>
    </g>
</svg>