<?xml version="1.0" encoding="UTF-8"?>
<svg width="24px" height="24px" viewBox="0 0 24 24" version="1.1" xmlns="http://www.w3.org/2000/svg" xmlns:xlink="http://www.w3.org/1999/xlink">
    <!-- Generator: Sketch 44.1 (41455) - http://www.bohemiancoding.com/sketch -->
    <title>Bold/SVG/play-circle</title>
    <desc>Created with Sketch.</desc>
    <defs></defs>
    <g id="Bold-Outline" stroke="none" stroke-width="1" fill="none" fill-rule="evenodd">
        <g id="play-circle" fill-rule="nonzero" fill="#000000">
            <path d="M12,23 C5.92486775,23 1,18.0751322 1,12 C1,5.92486775 5.92486775,1 12,1 C18.0751322,1 23,5.92486775 23,12 C23,18.0751322 18.0751322,23 12,23 Z M12,21 C16.9705627,21 21,16.9705627 21,12 C21,7.02943725 16.9705627,3 12,3 C7.02943725,3 3,7.02943725 3,12 C3,16.9705627 7.02943725,21 12,21 Z M16.472167,10.3469697 C17.3850708,10.9688061 17.6210275,12.2129588 16.9991911,13.1258626 C16.8580911,13.3330083 16.6793127,13.5117867 16.472167,13.6528867 L11.3759344,17.1242525 C10.4630306,17.7460889 9.21887791,17.5101322 8.59704152,16.5972284 C8.37092901,16.2652779 8.25,15.8729382 8.25,15.4712941 L8.25,8.52856239 C8.25,7.42399289 9.1454305,6.52856239 10.25,6.52856239 C10.6516442,6.52856239 11.0439838,6.6494914 11.3759344,6.87560391 L16.472167,10.3469697 Z M10.25,8.52856239 L10.25,15.4712941 L15.3462326,11.9999282 L10.25,8.52856239 Z" id="shape"></path>
        </g>
    </g>
</svg>