<?xml version="1.0" encoding="UTF-8"?>
<svg width="24px" height="24px" viewBox="0 0 24 24" version="1.1" xmlns="http://www.w3.org/2000/svg" xmlns:xlink="http://www.w3.org/1999/xlink">
    <!-- Generator: Sketch 44.1 (41455) - http://www.bohemiancoding.com/sketch -->
    <title>Bold/SVG/plug</title>
    <desc>Created with Sketch.</desc>
    <defs></defs>
    <g id="Bold-Outline" stroke="none" stroke-width="1" fill="none" fill-rule="evenodd">
        <g id="plug" fill-rule="nonzero" fill="#000000">
            <path d="M13,18 C13,17.4477153 13.4477153,17 14,17 L14.5,17 C16.4329966,17 18,15.4329966 18,13.5 L18,10 L6,10 L6,13.5 C6,15.4329966 7.56700338,17 9.5,17 L10,17 C10.5522847,17 11,17.4477153 11,18 L11,21 L13,21 L13,18 Z M18,8 C19.1045695,8 20,8.8954305 20,10 L20,13.5 C20,16.3690213 17.80325,18.7249641 15,18.9775785 L15,22 C15,22.5522847 14.5522847,23 14,23 L10,23 C9.44771525,23 9,22.5522847 9,22 L9,18.9775785 C6.19674999,18.7249641 4,16.3690213 4,13.5 L4,10 C4,8.8954305 4.8954305,8 6,8 L6,3.5 C6,2.11928813 7.11928813,1 8.5,1 C9.88071187,1 11,2.11928813 11,3.5 L11,8 L13,8 L13,3.5 C13,2.11928813 14.1192881,1 15.5,1 C16.8807119,1 18,2.11928813 18,3.5 L18,8 Z M9,3.5 C9,3.22385763 8.77614237,3 8.5,3 C8.22385763,3 8,3.22385763 8,3.5 L8,8 L9,8 L9,3.5 Z M16,3.5 C16,3.22385763 15.7761424,3 15.5,3 C15.2238576,3 15,3.22385763 15,3.5 L15,8 L16,8 L16,3.5 Z" id="shape"></path>
        </g>
    </g>
</svg>