<?xml version="1.0" encoding="UTF-8"?>
<svg width="24px" height="24px" viewBox="0 0 24 24" version="1.1" xmlns="http://www.w3.org/2000/svg" xmlns:xlink="http://www.w3.org/1999/xlink">
    <!-- Generator: Sketch 44.1 (41455) - http://www.bohemiancoding.com/sketch -->
    <title>Bold/SVG/popsicle</title>
    <desc>Created with Sketch.</desc>
    <defs></defs>
    <g id="Bold-Outline" stroke="none" stroke-width="1" fill="none" fill-rule="evenodd">
        <g id="popsicle" fill-rule="nonzero" fill="#000000">
            <path d="M8.39949494,19.2989899 L6.27817459,21.4203102 C5.10660172,22.5918831 3.20710678,22.5918831 2.03553391,21.4203102 C0.863961031,20.2487373 0.863961031,18.3492424 2.03553391,17.1776695 L4.15685425,15.0563492 L3.44974747,14.3492424 C2.27817459,13.1776695 2.27817459,11.2781746 3.44974747,10.1066017 L10.5208153,3.03553391 C13.2544853,0.301863864 17.6866402,0.301863864 20.4203102,3.03553391 C23.1539803,5.76920395 23.1539803,10.2013588 20.4203102,12.9350288 L13.3492424,20.0060967 C12.1776695,21.1776695 10.2781746,21.1776695 9.10660172,20.0060967 L8.39949494,19.2989899 Z M6.98528137,17.8847763 L5.57106781,16.4705627 L3.44974747,18.5918831 C3.05922318,18.9824074 3.05922318,19.6155724 3.44974747,20.0060967 C3.84027176,20.3966209 4.47343674,20.3966209 4.86396103,20.0060967 L6.98528137,17.8847763 Z M19.0060967,4.44974747 C17.0534752,2.49712601 13.8876503,2.49712601 11.9350288,4.44974747 L4.86396103,11.5208153 C4.47343674,11.9113396 4.47343674,12.5445046 4.86396103,12.9350288 L10.5208153,18.5918831 C10.9113396,18.9824074 11.5445046,18.9824074 11.9350288,18.5918831 L19.0060967,11.5208153 C20.9587181,9.56819382 20.9587181,6.40236893 19.0060967,4.44974747 Z M9.46015511,12.5814755 C9.06963082,12.9719997 8.43646584,12.9719997 8.04594155,12.5814755 C7.65541725,12.1909512 7.65541725,11.5577862 8.04594155,11.1672619 L12.995689,6.21751442 C13.3862133,5.82699013 14.0193783,5.82699013 14.4099026,6.21751442 C14.8004269,6.60803871 14.8004269,7.24120369 14.4099026,7.63172798 L9.46015511,12.5814755 Z M15.8241161,9.04594155 C16.2146404,8.65541725 16.8478054,8.65541725 17.2383297,9.04594155 C17.628854,9.43646584 17.628854,10.0696308 17.2383297,10.4601551 L12.2885822,15.4099026 C11.8980579,15.8004269 11.264893,15.8004269 10.8743687,15.4099026 C10.4838444,15.0193783 10.4838444,14.3862133 10.8743687,13.995689 L15.8241161,9.04594155 Z" id="shape"></path>
        </g>
    </g>
</svg>