<?xml version="1.0" encoding="UTF-8"?>
<svg width="24px" height="24px" viewBox="0 0 24 24" version="1.1" xmlns="http://www.w3.org/2000/svg" xmlns:xlink="http://www.w3.org/1999/xlink">
    <!-- Generator: Sketch 44.1 (41455) - http://www.bohemiancoding.com/sketch -->
    <title>Bold/SVG/post-add</title>
    <desc>Created with Sketch.</desc>
    <defs></defs>
    <g id="Bold-Outline" stroke="none" stroke-width="1" fill="none" fill-rule="evenodd">
        <g id="post-add" fill-rule="nonzero" fill="#000000">
            <path d="M20,19 L20,21 C20,21.5522847 19.5522847,22 19,22 C18.4477153,22 18,21.5522847 18,21 L18,19 L16,19 C15.4477153,19 15,18.5522847 15,18 C15,17.4477153 15.4477153,17 16,17 L18,17 L18,15 C18,14.4477153 18.4477153,14 19,14 C19.5522847,14 20,14.4477153 20,15 L20,17 L22,17 C22.5522847,17 23,17.4477153 23,18 C23,18.5522847 22.5522847,19 22,19 L20,19 Z M7,8.5 C6.44771525,8.5 6,8.05228475 6,7.5 C6,6.94771525 6.44771525,6.5 7,6.5 L17,6.5 C17.5522847,6.5 18,6.94771525 18,7.5 C18,8.05228475 17.5522847,8.5 17,8.5 L7,8.5 Z M7,13 C6.44771525,13 6,12.5522847 6,12 C6,11.4477153 6.44771525,11 7,11 L17,11 C17.5522847,11 18,11.4477153 18,12 C18,12.5522847 17.5522847,13 17,13 L7,13 Z M7,17.5 C6.44771525,17.5 6,17.0522847 6,16.5 C6,15.9477153 6.44771525,15.5 7,15.5 L11,15.5 C11.5522847,15.5 12,15.9477153 12,16.5 C12,17.0522847 11.5522847,17.5 11,17.5 L7,17.5 Z M13,20 C13.5522847,20 14,20.4477153 14,21 C14,21.5522847 13.5522847,22 13,22 L6,22 C3.790861,22 2,20.209139 2,18 L2,6 C2,3.790861 3.790861,2 6,2 L18,2 C20.209139,2 22,3.790861 22,6 L22,12 C22,12.5522847 21.5522847,13 21,13 C20.4477153,13 20,12.5522847 20,12 L20,6 C20,4.8954305 19.1045695,4 18,4 L6,4 C4.8954305,4 4,4.8954305 4,6 L4,18 C4,19.1045695 4.8954305,20 6,20 L13,20 Z" id="shape"></path>
        </g>
    </g>
</svg>