<?xml version="1.0" encoding="UTF-8"?>
<svg width="24px" height="24px" viewBox="0 0 24 24" version="1.1" xmlns="http://www.w3.org/2000/svg" xmlns:xlink="http://www.w3.org/1999/xlink">
    <!-- Generator: Sketch 44.1 (41455) - http://www.bohemiancoding.com/sketch -->
    <title>Bold/SVG/power</title>
    <desc>Created with Sketch.</desc>
    <defs></defs>
    <g id="Bold-Outline" stroke="none" stroke-width="1" fill="none" fill-rule="evenodd">
        <g id="power" fill-rule="nonzero" fill="#000000">
            <path d="M7.5575698,4.03871247 C8.05222036,3.79307194 8.65234486,3.99493446 8.89798538,4.48958502 C9.14362591,4.98423558 8.9417634,5.58436008 8.44711284,5.83000061 C5.7450349,7.17183645 4,9.92929304 4,13 C4,17.418278 7.581722,21 12,21 C16.418278,21 20,17.418278 20,13 C20,9.9315052 18.2574924,7.17570325 15.558416,5.83274887 C15.063956,5.58672499 14.8625587,4.9864442 15.1085826,4.4919842 C15.3546065,3.99752419 15.9548873,3.79612691 16.4493473,4.04215079 C19.8215734,5.72003804 22,9.1652524 22,13 C22,18.5228475 17.5228475,23 12,23 C6.4771525,23 2,18.5228475 2,13 C2,9.16248335 4.18158106,5.71520841 7.5575698,4.03871247 Z M11,2 C11,1.44771525 11.4477153,1 12,1 C12.5522847,1 13,1.44771525 13,2 L13,10 C13,10.5522847 12.5522847,11 12,11 C11.4477153,11 11,10.5522847 11,10 L11,2 Z" id="shape"></path>
        </g>
    </g>
</svg>