<?xml version="1.0" encoding="UTF-8"?>
<svg width="24px" height="24px" viewBox="0 0 24 24" version="1.1" xmlns="http://www.w3.org/2000/svg" xmlns:xlink="http://www.w3.org/1999/xlink">
    <!-- Generator: Sketch 44.1 (41455) - http://www.bohemiancoding.com/sketch -->
    <title>Bold/SVG/public</title>
    <desc>Created with Sketch.</desc>
    <defs></defs>
    <g id="Bold-Outline" stroke="none" stroke-width="1" fill="none" fill-rule="evenodd">
        <g id="public" fill-rule="nonzero" fill="#000000">
            <path d="M17.6576022,18.9997833 C17.3103565,18.9954804 16.9667789,18.9271401 16.6441588,18.7980921 C15.1965878,18.2190637 14.4924949,16.5761803 15.0715233,15.1286093 C15.1104069,15.0314002 15.1303846,14.9276644 15.1303846,14.822967 C15.1303846,14.3684549 14.7619297,14 14.3074176,14 L14,14 C11.790861,14 10,12.209139 10,10 L10,9 C10,6.23857625 12.2385763,4 15,4 L16.1272021,4 C14.8909629,3.3609308 13.4876314,3 12,3 C9.32828163,3 6.92846863,4.16416524 5.28015801,6.0128987 C6.80570515,6.15412392 8.00010914,7.43757796 8.00010914,9 L8.00010914,9.19722436 C8.00010914,10.657852 7.27012498,12.0218399 6.05480934,12.8320503 C5.90857732,12.9295383 5.8690625,13.1271124 5.96655051,13.2733444 C5.98471201,13.3005867 6.00696894,13.324863 6.03253546,13.3453162 L7.12480419,14.2191312 C8.11910822,15.0145744 8.28031676,16.4654512 7.48487353,17.4597553 C7.09740095,17.944096 6.53112003,18.2518865 5.91393949,18.3136045 L5.6155836,18.3434401 C6.17844229,18.9099119 6.81617997,19.4018938 7.5127086,19.8032979 C8.61932294,18.1872694 10.7545148,17.539371 12.6085017,18.3633652 C13.5898627,18.7995256 14.353836,19.5949216 14.7554957,20.5703487 C15.8237495,20.2271598 16.8049717,19.6897846 17.6576022,18.9997833 Z M19.484451,17 C20.4417283,15.569902 21,13.8501466 21,12 C21,9.69493669 20.1334393,7.59226948 18.7083195,6 L15,6 C13.3431458,6 12,7.34314575 12,9 L12,10 C12,11.1045695 12.8954305,12 14,12 L14.3074176,12 C15.8664992,12 17.1303846,13.2638854 17.1303846,14.822967 C17.1303846,15.1821033 17.0618565,15.537941 16.9284767,15.8713907 C16.7596751,16.2933946 16.9649362,16.7723371 17.3869401,16.9411387 C17.4841492,16.9800223 17.587885,17 17.6925824,17 L19.484451,17 Z M4.19020732,16.4760026 L5.71493205,16.3235301 C5.79673012,16.3153503 5.8717822,16.2745573 5.92313591,16.2103652 C6.02856004,16.078585 6.00719426,15.8862929 5.87541409,15.7808688 L4.78314536,14.9070538 C4.59689517,14.7580537 4.43475514,14.5812027 4.30244992,14.3827448 C3.59225699,13.3174554 3.88011955,11.8781426 4.94540895,11.1679497 C5.60432725,10.7286708 6.00010914,9.9891456 6.00010914,9.19722436 L6.00010914,9 C6.00010914,8.44771525 5.55239389,8 5.00010914,8 L3.93551965,8 C3.3367061,9.20495897 3,10.5631585 3,12 C3,13.6293961 3.43299873,15.1576599 4.19020732,16.4760026 Z M9.42098847,20.6250384 C10.2379847,20.8689767 11.1036913,21 12,21 C12.2409995,21 12.4797866,20.9905275 12.7160093,20.9719344 C12.4935728,20.6333001 12.1764635,20.3599832 11.7962248,20.1909883 C10.9671723,19.8225205 10.0293483,20.0233879 9.42098847,20.6250384 Z M12,23 C5.92486775,23 1,18.0751322 1,12 C1,5.92486775 5.92486775,1 12,1 C18.0751322,1 23,5.92486775 23,12 C23,18.0751322 18.0751322,23 12,23 Z" id="shape"></path>
        </g>
    </g>
</svg>