<?xml version="1.0" encoding="UTF-8"?>
<svg width="24px" height="24px" viewBox="0 0 24 24" version="1.1" xmlns="http://www.w3.org/2000/svg" xmlns:xlink="http://www.w3.org/1999/xlink">
    <!-- Generator: Sketch 44.1 (41455) - http://www.bohemiancoding.com/sketch -->
    <title>Bold/SVG/qrcode</title>
    <desc>Created with Sketch.</desc>
    <defs></defs>
    <g id="Bold-Outline" stroke="none" stroke-width="1" fill="none" fill-rule="evenodd">
        <g id="qrcode" fill-rule="nonzero" fill="#000000">
            <path d="M4,2 L9,2 C10.1045695,2 11,2.8954305 11,4 L11,9 C11,10.1045695 10.1045695,11 9,11 L4,11 C2.8954305,11 2,10.1045695 2,9 L2,4 C2,2.8954305 2.8954305,2 4,2 Z M4,4 L4,9 L9,9 L9,4 L4,4 Z M15,2 L20,2 C21.1045695,2 22,2.8954305 22,4 L22,9 C22,10.1045695 21.1045695,11 20,11 L15,11 C13.8954305,11 13,10.1045695 13,9 L13,4 C13,2.8954305 13.8954305,2 15,2 Z M15,4 L15,9 L20,9 L20,4 L15,4 Z M22,17.75 C22,18.3022847 21.5522847,18.75 21,18.75 C20.4477153,18.75 20,18.3022847 20,17.75 L20,15 L18.25,15 L18.25,17.75 C18.25,18.3022847 17.8022847,18.75 17.25,18.75 C16.6977153,18.75 16.25,18.3022847 16.25,17.75 L16.25,15 C16.25,13.8954305 17.1454305,13 18.25,13 L20,13 C21.1045695,13 22,13.8954305 22,15 L22,17.75 Z M20,21 C20,20.4477153 20.4477153,20 21,20 C21.5522847,20 22,20.4477153 22,21 C22,21.5522847 21.5522847,22 21,22 C20.4477153,22 20,21.5522847 20,21 Z M13,14 C13,13.4477153 13.4477153,13 14,13 C14.5522847,13 15,13.4477153 15,14 C15,14.5522847 14.5522847,15 14,15 C13.4477153,15 13,14.5522847 13,14 Z M18,20 C18.5522847,20 19,20.4477153 19,21 C19,21.5522847 18.5522847,22 18,22 L15,22 C13.8954305,22 13,21.1045695 13,20 L13,16.9821656 C13,16.4298808 13.4477153,15.9821656 14,15.9821656 C14.5522847,15.9821656 15,16.4298808 15,16.9821656 L15,20 L18,20 Z M4,13 L9,13 C10.1045695,13 11,13.8954305 11,15 L11,20 C11,21.1045695 10.1045695,22 9,22 L4,22 C2.8954305,22 2,21.1045695 2,20 L2,15 C2,13.8954305 2.8954305,13 4,13 Z M4,15 L4,20 L9,20 L9,15 L4,15 Z M5.5,5.5 L7.5,5.5 L7.5,7.5 L5.5,7.5 L5.5,5.5 Z M5.5,16.5 L7.5,16.5 L7.5,18.5 L5.5,18.5 L5.5,16.5 Z M16.5,5.5 L18.5,5.5 L18.5,7.5 L16.5,7.5 L16.5,5.5 Z" id="shape"></path>
        </g>
    </g>
</svg>