<?xml version="1.0" encoding="UTF-8"?>
<svg width="24px" height="24px" viewBox="0 0 24 24" version="1.1" xmlns="http://www.w3.org/2000/svg" xmlns:xlink="http://www.w3.org/1999/xlink">
    <!-- Generator: Sketch 44.1 (41455) - http://www.bohemiancoding.com/sketch -->
    <title>Bold/SVG/quote</title>
    <desc>Created with Sketch.</desc>
    <defs></defs>
    <g id="Bold-Outline" stroke="none" stroke-width="1" fill="none" fill-rule="evenodd">
        <g id="quote" fill-rule="nonzero" fill="#000000">
            <path d="M15.0309469,10 L18,10 C20.209139,10 22,11.790861 22,14 L22,16 C22,18.209139 20.209139,20 18,20 L17,20 C14.790861,20 13,18.209139 13,16 L13,11 C13,10.9136751 13.0109383,10.829905 13.0315044,10.75 C13.0109383,10.670095 13,10.5863249 13,10.5 C13,7.1862915 15.6862915,4.5 19,4.5 L20,4.5 C20.5522847,4.5 21,4.94771525 21,5.5 C21,6.05228475 20.5522847,6.5 20,6.5 L19,6.5 C16.9601912,6.5 15.2769959,8.02684421 15.0309469,10 Z M4.03094688,10 L7,10 C9.209139,10 11,11.790861 11,14 L11,16 C11,18.209139 9.209139,20 7,20 L6,20 C3.790861,20 2,18.209139 2,16 L2,11 C2,10.9136751 2.01093825,10.829905 2.03150437,10.75 C2.01093825,10.670095 2,10.5863249 2,10.5 C2,7.1862915 4.6862915,4.5 8,4.5 L9,4.5 C9.55228475,4.5 10,4.94771525 10,5.5 C10,6.05228475 9.55228475,6.5 9,6.5 L8,6.5 C5.96019117,6.5 4.27699592,8.02684421 4.03094688,10 Z M4,12 L4,16 C4,17.1045695 4.8954305,18 6,18 L7,18 C8.1045695,18 9,17.1045695 9,16 L9,14 C9,12.8954305 8.1045695,12 7,12 L4,12 Z M15,12 L15,16 C15,17.1045695 15.8954305,18 17,18 L18,18 C19.1045695,18 20,17.1045695 20,16 L20,14 C20,12.8954305 19.1045695,12 18,12 L15,12 Z" id="Combined-Shape"></path>
        </g>
    </g>
</svg>