<?xml version="1.0" encoding="UTF-8"?>
<svg width="24px" height="24px" viewBox="0 0 24 24" version="1.1" xmlns="http://www.w3.org/2000/svg" xmlns:xlink="http://www.w3.org/1999/xlink">
    <!-- Generator: Sketch 44.1 (41455) - http://www.bohemiancoding.com/sketch -->
    <title>Bold/SVG/radio</title>
    <desc>Created with Sketch.</desc>
    <defs></defs>
    <g id="Bold-Outline" stroke="none" stroke-width="1" fill="none" fill-rule="evenodd">
        <g id="radio" fill-rule="nonzero" fill="#000000">
            <path d="M6.74087397,6 L15.5143571,1.12584272 C15.9971408,0.857629539 16.6059441,1.03157334 16.8741573,1.51435707 C17.1423705,1.9971408 16.9684267,2.60594409 16.4856429,2.87415728 L10.859126,6 L19,6 C21.209139,6 23,7.790861 23,10 L23,18 C23,20.209139 21.209139,22 19,22 L5,22 C2.790861,22 1,20.209139 1,18 L1,10 C1,7.790861 2.790861,6 5,6 L6.74087397,6 Z M6.98183434,8 L5,8 C3.8954305,8 3,8.8954305 3,10 L3,18 C3,19.1045695 3.8954305,20 5,20 L19,20 C20.1045695,20 21,19.1045695 21,18 L21,10 C21,8.8954305 20.1045695,8 19,8 L7.0199765,8 C7.00724816,8.00024324 6.99453273,8.00024257 6.98183456,8 Z M15,19 C12.2385763,19 10,16.7614237 10,14 C10,11.2385763 12.2385763,9 15,9 C17.7614237,9 20,11.2385763 20,14 C20,16.7614237 17.7614237,19 15,19 Z M15,17 C16.6568542,17 18,15.6568542 18,14 C18,12.3431458 16.6568542,11 15,11 C13.3431458,11 12,12.3431458 12,14 C12,15.6568542 13.3431458,17 15,17 Z" id="shape"></path>
        </g>
    </g>
</svg>