<?xml version="1.0" encoding="UTF-8"?>
<svg width="24px" height="24px" viewBox="0 0 24 24" version="1.1" xmlns="http://www.w3.org/2000/svg" xmlns:xlink="http://www.w3.org/1999/xlink">
    <!-- Generator: Sketch 44.1 (41455) - http://www.bohemiancoding.com/sketch -->
    <title>Bold/SVG/refresh</title>
    <desc>Created with Sketch.</desc>
    <defs></defs>
    <g id="Bold-Outline" stroke="none" stroke-width="1" fill="none" fill-rule="evenodd">
        <g id="refresh" fill-rule="nonzero" fill="#000000">
            <path d="M18.874504,7 L15,7 C14.4477153,7 14,7.44771525 14,8 C14,8.55228475 14.4477153,9 15,9 L20,9 C21.1045695,9 22,8.1045695 22,7 L22,2 C22,1.44771525 21.5522847,1 21,1 C20.4477153,1 20,1.44771525 20,2 L20,5.19736653 C18.6397207,3.59462466 16.8143478,2.41960072 14.7176,1.85777882 C9.11620589,0.356889802 3.35866785,3.68100594 1.85777882,9.28240003 C0.356889802,14.8837941 3.68100594,20.6413322 9.28240003,22.1422212 C14.8837941,23.6431102 20.6413322,20.3189941 22.1422212,14.7176 C22.285163,14.1841339 21.9685805,13.6357969 21.4351144,13.4928551 C20.9016483,13.3499133 20.3533113,13.6664958 20.2103695,14.1999619 C18.9953641,18.7344238 14.3345,21.4253749 9.80003812,20.2103695 C5.26557624,18.9953641 2.57462508,14.3345 3.78963048,9.80003812 C5.00463587,5.26557624 9.66550001,2.57462508 14.1999619,3.78963048 C16.112815,4.30217792 17.7441094,5.44258247 18.874504,7 Z" id="shape"></path>
        </g>
    </g>
</svg>