<?xml version="1.0" encoding="UTF-8"?>
<svg width="24px" height="24px" viewBox="0 0 24 24" version="1.1" xmlns="http://www.w3.org/2000/svg" xmlns:xlink="http://www.w3.org/1999/xlink">
    <!-- Generator: Sketch 44.1 (41455) - http://www.bohemiancoding.com/sketch -->
    <title>Bold/SVG/repeat-single</title>
    <desc>Created with Sketch.</desc>
    <defs></defs>
    <g id="Bold-Outline" stroke="none" stroke-width="1" fill="none" fill-rule="evenodd">
        <g id="repeat-single" fill-rule="nonzero" fill="#000000">
            <path d="M19.0857864,6 L5.75,6 C4.6454305,6 3.75,6.8954305 3.75,8 L3.75,18 C3.75,19.1045695 4.6454305,20 5.75,20 L18.25,20 C19.3545695,20 20.25,19.1045695 20.25,18 L20.25,13 C20.25,12.4477153 20.6977153,12 21.25,12 C21.8022847,12 22.25,12.4477153 22.25,13 L22.25,18 C22.25,20.209139 20.459139,22 18.25,22 L5.75,22 C3.540861,22 1.75,20.209139 1.75,18 L1.75,8 C1.75,5.790861 3.540861,4 5.75,4 L19.0857864,4 L17.9644661,2.87867966 C17.5739418,2.48815536 17.5739418,1.85499039 17.9644661,1.46446609 C18.3549904,1.0739418 18.9881554,1.0739418 19.3786797,1.46446609 L21.5,3.58578644 C22.2810486,4.36683502 22.2810486,5.63316498 21.5,6.41421356 L19.3786797,8.53553391 C18.9881554,8.9260582 18.3549904,8.9260582 17.9644661,8.53553391 C17.5739418,8.14500961 17.5739418,7.51184464 17.9644661,7.12132034 L19.0857864,6 Z M12,16.9385503 L12,11.9142136 L11.7071068,12.2071068 C11.3165825,12.5976311 10.6834175,12.5976311 10.2928932,12.2071068 C9.90236893,11.8165825 9.90236893,11.1834175 10.2928932,10.7928932 L12.2928932,8.79289322 C12.9228581,8.16292836 14,8.60909515 14,9.5 L14,16.9385503 C14,17.4908351 13.5522847,17.9385503 13,17.9385503 C12.4477153,17.9385503 12,17.4908351 12,16.9385503 Z" id="shape"></path>
        </g>
    </g>
</svg>