<?xml version="1.0" encoding="UTF-8"?>
<svg width="24px" height="24px" viewBox="0 0 24 24" version="1.1" xmlns="http://www.w3.org/2000/svg" xmlns:xlink="http://www.w3.org/1999/xlink">
    <!-- Generator: Sketch 44.1 (41455) - http://www.bohemiancoding.com/sketch -->
    <title>Bold/SVG/repeat</title>
    <desc>Created with Sketch.</desc>
    <defs></defs>
    <g id="Bold-Outline" stroke="none" stroke-width="1" fill="none" fill-rule="evenodd">
        <g id="repeat" fill-rule="nonzero" fill="#000000">
            <path d="M6.44264145,18 L17,18 C18.1045695,18 19,17.1045695 19,16 L19,14 C19,13.4477153 19.4477153,13 20,13 C20.5522847,13 21,13.4477153 21,14 L21,16 C21,18.209139 19.209139,20 17,20 L6.38578567,20 L7.53553391,21.1497482 C7.9260582,21.5402725 7.9260582,22.1734375 7.53553391,22.5639618 C7.14500961,22.9544861 6.51184464,22.9544861 6.12132034,22.5639618 L4,20.4426415 C3.21895142,19.6615929 3.21895142,18.3952629 4,17.6142143 L6.12132034,15.492894 C6.51184464,15.1023697 7.14500961,15.1023697 7.53553391,15.492894 C7.9260582,15.8834183 7.9260582,16.5165833 7.53553391,16.9071075 L6.44264145,18 Z M17.6142136,6 L7,6 C5.8954305,6 5,6.8954305 5,8 L5,10 C5,10.5522847 4.55228475,11 4,11 C3.44771525,11 3,10.5522847 3,10 L3,8 C3,5.790861 4.790861,4 7,4 L17.5573593,4 L16.4644661,2.90710683 C16.0739418,2.51658254 16.0739418,1.88341756 16.4644661,1.49289327 C16.8549904,1.10236897 17.4881554,1.10236897 17.8786797,1.49289327 L20,3.61421361 C20.7810486,4.39526219 20.7810486,5.66159215 20,6.44264073 L17.8786797,8.56396108 C17.4881554,8.95448537 16.8549904,8.95448537 16.4644661,8.56396108 C16.0739418,8.17343679 16.0739418,7.54027181 16.4644661,7.14974752 L17.6142136,6 Z" id="shape"></path>
        </g>
    </g>
</svg>