<?xml version="1.0" encoding="UTF-8"?>
<svg width="24px" height="24px" viewBox="0 0 24 24" version="1.1" xmlns="http://www.w3.org/2000/svg" xmlns:xlink="http://www.w3.org/1999/xlink">
    <!-- Generator: Sketch 44.1 (41455) - http://www.bohemiancoding.com/sketch -->
    <title>Bold/SVG/report</title>
    <desc>Created with Sketch.</desc>
    <defs></defs>
    <g id="Bold-Outline" stroke="none" stroke-width="1" fill="none" fill-rule="evenodd">
        <g id="report" fill-rule="nonzero" fill="#000000">
            <path d="M10.5,15.9651382 L10.5,19.5 C10.5,21.1568542 9.15685425,22.5 7.5,22.5 C5.84314575,22.5 4.5,21.1568542 4.5,19.5 L4.5,15.3739825 C2.77477279,14.9299397 1.5,13.3638394 1.5,11.5 L1.5,10.5 C1.5,8.290861 3.290861,6.5 5.5,6.5 L9.27317295,6.5 L17.7056335,2.46708408 C18.1097575,2.27380739 18.5520356,2.17348675 19,2.17348675 C20.6568542,2.17348675 22,3.5166325 22,5.17348675 L22,16.0697236 C22,16.4437962 21.9300401,16.8145693 21.7937283,17.1629217 C21.1899717,18.7058552 19.4497355,19.4672086 17.906802,18.863452 L10.5,15.9651382 Z M8.5,15.5 L6.5,15.5 L6.5,19.5 C6.5,20.0522847 6.94771525,20.5 7.5,20.5 C8.05228475,20.5 8.5,20.0522847 8.5,19.5 L8.5,15.5 Z M10.5,8.13022163 L10.5,13.8174705 L18.6356007,17.0009664 C19.1499118,17.2022186 19.7299906,16.9484342 19.9312428,16.434123 C19.97668,16.3180055 20,16.1944145 20,16.0697236 L20,5.17348675 C20,4.621202 19.5522847,4.17348675 19,4.17348675 C18.8506785,4.17348675 18.7032525,4.20692696 18.5685445,4.27135252 L10.5,8.13022163 Z M8.5,13.5 L8.5,8.5 L5.5,8.5 C4.3954305,8.5 3.5,9.3954305 3.5,10.5 L3.5,11.5 C3.5,12.6045695 4.3954305,13.5 5.5,13.5 L8.5,13.5 Z" id="shape"></path>
        </g>
    </g>
</svg>