<?xml version="1.0" encoding="UTF-8"?>
<svg width="24px" height="24px" viewBox="0 0 24 24" version="1.1" xmlns="http://www.w3.org/2000/svg" xmlns:xlink="http://www.w3.org/1999/xlink">
    <!-- Generator: Sketch 44.1 (41455) - http://www.bohemiancoding.com/sketch -->
    <title>Bold/SVG/rewind</title>
    <desc>Created with Sketch.</desc>
    <defs></defs>
    <g id="Bold-Outline" stroke="none" stroke-width="1" fill="none" fill-rule="evenodd">
        <g id="rewind" fill-rule="nonzero" fill="#000000">
            <path d="M12.5103316,14.2453228 L12.5103316,16.5093033 C12.5103316,17.2504363 12.235995,17.965338 11.740199,18.5162142 C10.6318127,19.7477359 8.73494244,19.8475569 7.50342068,18.7391707 L2.49311491,14.2298275 C2.41492806,14.1594583 2.34049639,14.0850255 2.27012834,14.0068376 C1.1617605,12.7752993 1.26160995,10.8784305 2.49314832,9.77006266 L7.50345408,5.2608554 C8.05432616,4.765078 8.76921399,4.49075287 9.51033157,4.49075287 C11.1671858,4.49075287 12.5103316,5.83389862 12.5103316,7.49075287 L12.5103316,9.75459796 L17.5034541,5.2608554 C18.0543262,4.765078 18.769214,4.49075287 19.5103316,4.49075287 C21.1671858,4.49075287 22.5103316,5.83389862 22.5103316,7.49075287 L22.5103316,16.5093033 C22.5103316,17.2504363 22.235995,17.965338 21.740199,18.5162142 C20.6318127,19.7477359 18.7349424,19.8475569 17.5034207,18.7391707 L12.5103316,14.2453228 Z M18.8413724,6.74745371 L13.8310666,11.256661 C13.4205539,11.6261169 13.3872707,12.2584065 13.7567266,12.6689193 C13.7801827,12.6949819 13.8049932,12.7197929 13.8310555,12.7432493 L18.8413613,17.2525924 C19.2518685,17.6220545 19.8841586,17.5887808 20.2536207,17.1782736 C20.418886,16.9946482 20.5103316,16.7563476 20.5103316,16.5093033 L20.5103316,7.49075287 C20.5103316,6.93846812 20.0626163,6.49075287 19.5103316,6.49075287 C19.2632924,6.49075287 19.0249964,6.58219458 18.8413724,6.74745371 Z M8.84137241,6.74745371 L3.83106664,11.256661 C3.42055385,11.6261169 3.38727071,12.2584065 3.75672665,12.6689193 C3.78018267,12.6949819 3.80499322,12.7197929 3.83105551,12.7432493 L8.84136127,17.2525924 C9.25186853,17.6220545 9.88415862,17.5887808 10.2536207,17.1782736 C10.418886,16.9946482 10.5103316,16.7563476 10.5103316,16.5093033 L10.5103316,7.49075287 C10.5103316,6.93846812 10.0626163,6.49075287 9.51033157,6.49075287 C9.26329238,6.49075287 9.02499644,6.58219458 8.84137241,6.74745371 Z" id="shape"></path>
        </g>
    </g>
</svg>