<?xml version="1.0" encoding="UTF-8"?>
<svg width="24px" height="24px" viewBox="0 0 24 24" version="1.1" xmlns="http://www.w3.org/2000/svg" xmlns:xlink="http://www.w3.org/1999/xlink">
    <!-- Generator: Sketch 44.1 (41455) - http://www.bohemiancoding.com/sketch -->
    <title>Bold/SVG/ring</title>
    <desc>Created with Sketch.</desc>
    <defs></defs>
    <g id="Bold-Outline" stroke="none" stroke-width="1" fill="none" fill-rule="evenodd">
        <g id="ring" fill-rule="nonzero" fill="#000000">
            <path d="M10.109339,11.67 C9.4207139,12.2290307 9,13.0765061 9,14 C9,15.6568542 10.3431458,17 12,17 C13.6568542,17 15,15.6568542 15,14 C15,13.0019628 14.508289,12.0948519 13.7239318,11.5438344 L13.2677662,12 C12.4867176,12.7810486 11.2203876,12.7810486 10.439339,12 L10.109339,11.67 Z M17.9870408,7.27959682 C19.8774147,8.96326826 21,11.3871965 21,14 C21,18.9705627 16.9705627,23 12,23 C7.02943725,23 3,18.9705627 3,14 C3,11.4611334 4.05965827,9.09857181 5.85922806,7.41988902 L5.75971628,7.32037724 C5.05593237,6.61659333 4.97674939,5.50240428 5.57392984,4.70616368 L7.7535526,1.8 C8.13126137,1.29638831 8.724038,1 9.3535526,1 L14.3535526,1 C14.9830672,1 15.5758438,1.29638831 15.9535526,1.8 L18.1331754,4.70616368 C18.718947,5.48719257 18.6539515,6.57413752 17.9870408,7.27959682 Z M7.27453796,8.83519892 C5.84321828,10.1441734 5,12.000761 5,14 C5,17.8659932 8.13400675,21 12,21 C15.8659932,21 19,17.8659932 19,14 C19,11.9276828 18.0935669,10.0100314 16.5703963,8.69736991 L15.1509088,10.1168574 C16.2953939,11.0461165 17,12.4580426 17,14 C17,16.7614237 14.7614237,19 12,19 C9.23857625,19 7,16.7614237 7,14 C7,12.5334408 7.63740821,11.1812114 8.69056942,10.2512304 L7.27453796,8.83519892 Z M9.3535526,3 L7.17392984,5.90616368 L11.8535526,10.5857864 L16.5331754,5.90616368 L14.3535526,3 L9.3535526,3 Z" id="shape"></path>
        </g>
    </g>
</svg>