<?xml version="1.0" encoding="UTF-8"?>
<svg width="24px" height="24px" viewBox="0 0 24 24" version="1.1" xmlns="http://www.w3.org/2000/svg" xmlns:xlink="http://www.w3.org/1999/xlink">
    <!-- Generator: Sketch 44.1 (41455) - http://www.bohemiancoding.com/sketch -->
    <title>Bold/SVG/roadsign</title>
    <desc>Created with Sketch.</desc>
    <defs></defs>
    <g id="Bold-Outline" stroke="none" stroke-width="1" fill="none" fill-rule="evenodd">
        <g id="roadsign" fill-rule="nonzero" fill="#000000">
            <path d="M10,16 L5,16 C2.790861,16 1,14.209139 1,12 L1,8 C1,5.790861 2.790861,4 5,4 L10,4 L10,2 C10,1.44771525 10.4477153,1 11,1 C11.5522847,1 12,1.44771525 12,2 L12,4 L15.9138502,4 C16.8495962,4 17.7557278,4.32806488 18.4745878,4.92711488 L21.7964533,7.69533616 C23.069284,8.7560284 23.2412562,10.6477225 22.180564,11.9205532 C22.0644063,12.0599424 21.9358425,12.1885062 21.7964533,12.3046638 L18.4745878,15.0728851 C17.7557278,15.6719351 16.8495962,16 15.9138502,16 L12,16 L12,22 C12,22.5522847 11.5522847,23 11,23 C10.4477153,23 10,22.5522847 10,22 L10,16 Z M5,6 C3.8954305,6 3,6.8954305 3,8 L3,12 C3,13.1045695 3.8954305,14 5,14 L15.9138502,14 C16.3817232,14 16.834789,13.8359676 17.194219,13.5364426 L20.5160845,10.7682213 C20.5625476,10.7295021 20.6054022,10.6866475 20.6441214,10.6401844 C20.9976855,10.2159075 20.9403614,9.5853428 20.5160845,9.23177872 L17.194219,6.46355744 C16.834789,6.16403244 16.3817232,6 15.9138502,6 L5,6 Z" id="shape"></path>
        </g>
    </g>
</svg>