<?xml version="1.0" encoding="UTF-8"?>
<svg width="24px" height="24px" viewBox="0 0 24 24" version="1.1" xmlns="http://www.w3.org/2000/svg" xmlns:xlink="http://www.w3.org/1999/xlink">
    <!-- Generator: Sketch 44.1 (41455) - http://www.bohemiancoding.com/sketch -->
    <title>Bold/SVG/rocket</title>
    <desc>Created with Sketch.</desc>
    <defs></defs>
    <g id="Bold-Outline" stroke="none" stroke-width="1" fill="none" fill-rule="evenodd">
        <g id="rocket" fill-rule="nonzero" fill="#000000">
            <path d="M15.7803509,20.6321856 C15.552506,20.9663851 15.3099725,21.270036 15.0540448,21.5398825 C14.8633385,21.7409606 14.5977398,21.8538822 14.3206179,21.8517053 L9.62905074,21.8148523 C9.3541004,21.8126925 9.09217004,21.6974166 8.90485445,21.4961327 C8.66402978,21.2373494 8.43526142,20.9484371 8.21965204,20.6321805 L7.10082248,22.589796 C6.49927669,23.6423204 5.1583879,24.0079107 4.10586353,23.4063649 C3.42201749,23.0155287 3,22.2882547 3,21.500601 L3,18.2434728 C3,17.1828986 3.42119627,16.1657381 4.17097765,15.4156411 L6.05541159,13.5304137 C6.01868329,13.0274042 6,12.5162813 6,12 C6,5.99572853 8.49786427,1 12,1 C15.5021357,1 18,5.99572853 18,12 C18,12.5163229 17.9813109,13.0274645 17.9445809,13.5304625 L19.8289936,15.4156302 C20.5787926,16.1657296 21,17.1829024 21,18.2434907 L21,21.500601 C21,22.2882547 20.5779825,23.0155287 19.8941365,23.4063649 C18.8416121,24.0079107 17.5007233,23.6423204 16.8991775,22.589796 L15.7803509,20.6321856 Z M15.1754574,17.3391326 C15.7077488,15.7931454 16,13.9438559 16,12 C16,6.95857647 14.0207118,3 12,3 C9.97928824,3 8,6.95857647 8,12 C8,13.8926228 8.27699378,15.6961297 8.78368828,17.2184556 C9.13694581,18.2797915 9.59048101,19.1674872 10.1004921,19.8184938 L13.8761086,19.8481519 C14.3756162,19.2197475 14.8225811,18.3640268 15.1754574,17.3391326 Z M12,12.75 C10.3431458,12.75 9,11.4068542 9,9.75 C9,8.09314575 10.3431458,6.75 12,6.75 C13.6568542,6.75 15,8.09314575 15,9.75 C15,11.4068542 13.6568542,12.75 12,12.75 Z M12,10.75 C12.5522847,10.75 13,10.3022847 13,9.75 C13,9.19771525 12.5522847,8.75 12,8.75 C11.4477153,8.75 11,9.19771525 11,9.75 C11,10.3022847 11.4477153,10.75 12,10.75 Z M6.38584258,16.0288662 L5.58548882,16.829557 C5.21059813,17.2046055 5,17.7131857 5,18.2434728 L5,21.500601 C5,21.5705939 5.03750156,21.6352214 5.09826987,21.6699521 C5.19179989,21.723407 5.3109547,21.6909197 5.3644096,21.5973897 L6.94598905,18.8301009 L6.38584258,16.0288662 Z M18.6355904,21.5973897 C18.6890453,21.6909197 18.8082001,21.723407 18.9017301,21.6699521 C18.9624984,21.6352214 19,21.5705939 19,21.500601 L19,18.2434907 C19,17.7131966 18.7893963,17.2046101 18.4144968,16.8295604 L17.6141195,16.0288625 L17.0540076,18.8300951 L18.6355904,21.5973897 Z" id="shape"></path>
        </g>
    </g>
</svg>