<?xml version="1.0" encoding="UTF-8"?>
<svg width="24px" height="24px" viewBox="0 0 24 24" version="1.1" xmlns="http://www.w3.org/2000/svg" xmlns:xlink="http://www.w3.org/1999/xlink">
    <!-- Generator: Sketch 44.1 (41455) - http://www.bohemiancoding.com/sketch -->
    <title>Bold/SVG/rss-feed</title>
    <desc>Created with Sketch.</desc>
    <defs></defs>
    <g id="Bold-Outline" stroke="none" stroke-width="1" fill="none" fill-rule="evenodd">
        <g id="rss-feed" fill-rule="nonzero" fill="#000000">
            <path d="M4,9.73638527 L4,13.7577745 C4.71504902,13.2791358 5.57492668,13 6.5,13 C8.98528137,13 11,15.0147186 11,17.5 C11,18.4250733 10.7208642,19.284951 10.2422255,20 L14.2636155,20 C14.4200047,19.3512685 14.5,18.6814051 14.5,18 C14.5,13.3055796 10.6944204,9.5 6,9.5 C5.31861528,9.5 4.64875773,9.57998938 4,9.73638527 Z M4,7.69042593 C4.65397503,7.56423514 5.32287638,7.5 6,7.5 C11.7989899,7.5 16.5,12.2010101 16.5,18 C16.5,18.6771446 16.4357603,19.3460485 16.3095745,20 L19,20 C19.5522847,20 20,19.5522847 20,19 L20,18.0000001 C20,10.2680135 13.7319865,4 6,4 L5,4 C4.44771525,4 4,4.44771525 4,5 L4,7.69042593 Z M6,2 C14.8365559,2 21.9999999,9.16344386 22,17.9999997 L22,19 C22,20.6568542 20.6568542,22 19,22 L6.5,22 C4.01471863,22 2,19.9852814 2,17.5 L2,5 C2,3.34314575 3.34314575,2 5,2 L6,2 Z M6.5,20 C7.88071187,20 9,18.8807119 9,17.5 C9,16.1192881 7.88071187,15 6.5,15 C5.11928813,15 4,16.1192881 4,17.5 C4,18.8807119 5.11928813,20 6.5,20 Z" id="shape"></path>
        </g>
    </g>
</svg>