<?xml version="1.0" encoding="UTF-8"?>
<svg width="24px" height="24px" viewBox="0 0 24 24" version="1.1" xmlns="http://www.w3.org/2000/svg" xmlns:xlink="http://www.w3.org/1999/xlink">
    <!-- Generator: Sketch 44.1 (41455) - http://www.bohemiancoding.com/sketch -->
    <title>Bold/SVG/ruler</title>
    <desc>Created with Sketch.</desc>
    <defs></defs>
    <g id="Bold-Outline" stroke="none" stroke-width="1" fill="none" fill-rule="evenodd">
        <g id="ruler" fill-rule="nonzero" fill="#000000">
            <path d="M18.5000076,16.5285256 L18.4999922,18.5000078 C18.4999879,19.0522925 18.0522692,19.5000043 17.4999844,19.5 C16.9476997,19.4999957 16.4999879,19.052277 16.4999922,18.4999922 L16.5000076,16.5208055 C15.7673667,16.518244 14.934036,16.5155439 14.0000155,16.5127051 L14,18.5000078 C13.9999957,19.0522925 13.552277,19.5000043 12.9999922,19.5 C12.4477075,19.4999957 11.9999957,19.052277 12,18.4999922 L12.0000155,16.5068492 C11.2203304,16.5046422 10.3869945,16.5023613 9.50000779,16.5000066 L9.49999221,18.5000078 C9.4999879,19.0522925 9.05226917,19.5000043 8.49998442,19.5 C7.94769967,19.4999957 7.4999879,19.052277 7.49999221,18.4999922 L7.50000779,16.5000156 L5.49999221,16.5 C4.94770746,16.4999957 4.4999957,16.052277 4.5,15.4999922 C4.5000043,14.9477075 4.94772304,14.4999957 5.50000779,14.5 L7.49753527,14.5000156 L7.49753527,12.0000156 L5.49999221,12 C4.94770746,11.9999957 4.4999957,11.552277 4.5,10.9999922 C4.5000043,10.4477075 4.94772304,9.9999957 5.50000779,10 L7.49753527,10.0000156 L7.49753527,7.62497384 L5.31646965,7.62495684 C4.7641849,7.62495254 4.31647314,7.1772338 4.31647744,6.62494905 C4.31648175,6.0726643 4.76420049,5.62495254 5.31648524,5.62495684 L7.49753527,5.62497384 L7.49753527,3.5 L3.49753527,3.5 L3.49753527,20.5 L20.5024638,20.5 L20.4981496,16.5432551 C20.4979796,16.5392622 19.8319323,16.5343524 18.5000076,16.5285256 Z M17.4641248,14.5006321 C17.4760391,14.5002118 17.4880065,14.4999999 17.5000234,14.5 C17.5120892,14.5000001 17.5241051,14.5002139 17.5360675,14.5006378 L20.4972307,14.5008727 C21.5812186,14.5008727 22.4639246,15.3632845 22.4963101,16.4396353 C22.4970886,16.4527093 22.4991399,17.8058733 22.502464,20.4991273 C22.5024647,21.6054415 21.6070342,22.500872 20.5024647,22.500872 C20.4930527,22.500872 14.8247429,22.5005813 3.49753527,22.5 C2.39296577,22.5 1.49753527,21.6045695 1.49753527,20.5 L1.49753527,3.5 C1.49753527,2.3954305 2.39296577,1.5 3.49753527,1.5 L7.49753527,1.5 C8.60210477,1.5 9.49753527,2.3954305 9.49753527,3.5 L9.49753527,10.9292637 C9.49916947,10.9526405 9.50000019,10.9762388 9.5,11.0000312 C9.49999981,11.0238182 9.4991691,11.0474112 9.49753527,11.0707828 L9.49753527,14.5 L12.9762942,14.500276 C12.9841843,14.5000923 12.9920969,14.4999999 13.0000312,14.5 C13.0080143,14.5000001 13.0159755,14.5000937 13.0239139,14.5002798 L17.4641248,14.5006321 Z" id="shape"></path>
        </g>
    </g>
</svg>