<?xml version="1.0" encoding="UTF-8"?>
<svg width="24px" height="24px" viewBox="0 0 24 24" version="1.1" xmlns="http://www.w3.org/2000/svg" xmlns:xlink="http://www.w3.org/1999/xlink">
    <!-- Generator: Sketch 44.1 (41455) - http://www.bohemiancoding.com/sketch -->
    <title>Bold/SVG/security-off</title>
    <desc>Created with Sketch.</desc>
    <defs></defs>
    <g id="Bold-Outline" stroke="none" stroke-width="1" fill="none" fill-rule="evenodd">
        <g id="security-off" fill-rule="nonzero" fill="#000000">
            <path d="M20.6962606,4.71795298 C20.8950294,5.12534266 21,5.57469098 21,6.03333064 L21,13 C21,16.0291331 18.3151275,19.1453851 13.079161,22.5010223 C12.4214594,22.9225316 11.5785408,22.9225316 10.9208391,22.5010224 C9.07670923,21.3191526 7.55720351,20.1713222 6.36107076,19.0531428 L3.51471863,21.8994949 C3.12419433,22.2900192 2.49102936,22.2900192 2.10050506,21.8994949 C1.70998077,21.5089706 1.70998077,20.8758057 2.10050506,20.4852814 L20.4852814,2.10050506 C20.8758057,1.70998077 21.5089706,1.70998077 21.8994949,2.10050506 C22.2900192,2.49102936 22.2900192,3.12419433 21.8994949,3.51471863 L20.6962606,4.71795298 Z M19,6.41421356 L7.77617036,17.6380432 C8.86844291,18.6516671 10.2767874,19.7127782 12,20.8171542 C16.7112595,17.7977925 19,15.141319 19,13 L19,6.41421356 Z M5.13592248,13.9321867 C5.28661273,14.4635161 4.97804376,15.0164022 4.4467144,15.1670925 C3.91538504,15.3177827 3.3624989,15.0092138 3.21180864,14.4778844 C3.07117592,13.9820176 3,13.4887082 3,13 L3,6.03333067 C2.99999998,5.03013878 3.50143478,4.09333944 4.33621016,3.53697261 C6.86296753,1.85292202 9.42242387,1 12,1 C13.3318185,1 14.6610956,1.22801592 15.9838896,1.68182364 C16.5062874,1.86104137 16.7844898,2.42981313 16.6052721,2.95221092 C16.4260544,3.47460871 15.8572826,3.75281111 15.3348848,3.57359338 C14.2180874,3.19045642 13.107773,3 12,3 C9.83811398,3 7.65810817,3.72647262 5.44540338,5.2012113 C5.16714492,5.3866669 4.99999999,5.69893334 5,6.03333065 L5,13 C5,13.3006128 5.04473446,13.6106605 5.13592248,13.9321867 Z" id="shape"></path>
        </g>
    </g>
</svg>