<?xml version="1.0" encoding="UTF-8"?>
<svg width="24px" height="24px" viewBox="0 0 24 24" version="1.1" xmlns="http://www.w3.org/2000/svg" xmlns:xlink="http://www.w3.org/1999/xlink">
    <!-- Generator: Sketch 44.1 (41455) - http://www.bohemiancoding.com/sketch -->
    <title>Bold/SVG/sever</title>
    <desc>Created with Sketch.</desc>
    <defs></defs>
    <g id="Bold-Outline" stroke="none" stroke-width="1" fill="none" fill-rule="evenodd">
        <g id="sever" fill-rule="nonzero" fill="#000000">
            <path d="M5,3 L19,3 C21.209139,3 23,4.790861 23,7 C23,9.209139 21.209139,11 19,11 L5,11 C2.790861,11 1,9.209139 1,7 C1,4.790861 2.790861,3 5,3 Z M5,5 C3.8954305,5 3,5.8954305 3,7 C3,8.1045695 3.8954305,9 5,9 L19,9 C20.1045695,9 21,8.1045695 21,7 C21,5.8954305 20.1045695,5 19,5 L5,5 Z M5,13 L19,13 C21.209139,13 23,14.790861 23,17 C23,19.209139 21.209139,21 19,21 L5,21 C2.790861,21 1,19.209139 1,17 C1,14.790861 2.790861,13 5,13 Z M5,15 C3.8954305,15 3,15.8954305 3,17 C3,18.1045695 3.8954305,19 5,19 L19,19 C20.1045695,19 21,18.1045695 21,17 C21,15.8954305 20.1045695,15 19,15 L5,15 Z M6,8 C5.44771525,8 5,7.55228475 5,7 C5,6.44771525 5.44771525,6 6,6 C6.55228475,6 7,6.44771525 7,7 C7,7.55228475 6.55228475,8 6,8 Z M6,18 C5.44771525,18 5,17.5522847 5,17 C5,16.4477153 5.44771525,16 6,16 C6.55228475,16 7,16.4477153 7,17 C7,17.5522847 6.55228475,18 6,18 Z" id="shape"></path>
        </g>
    </g>
</svg>