<?xml version="1.0" encoding="UTF-8"?>
<svg width="24px" height="24px" viewBox="0 0 24 24" version="1.1" xmlns="http://www.w3.org/2000/svg" xmlns:xlink="http://www.w3.org/1999/xlink">
    <!-- Generator: Sketch 44.1 (41455) - http://www.bohemiancoding.com/sketch -->
    <title>Bold/SVG/shapes</title>
    <desc>Created with Sketch.</desc>
    <defs></defs>
    <g id="Bold-Outline" stroke="none" stroke-width="1" fill="none" fill-rule="evenodd">
        <g id="shapes" fill-rule="nonzero" fill="#000000">
            <path d="M7.5,18.5 L10,18.5 C10.5522847,18.5 11,18.0522847 11,17.5 C11,16.9477153 10.5522847,16.5 10,16.5 L7.5,16.5 L7.5,14 C7.5,13.4477153 7.05228475,13 6.5,13 C5.94771525,13 5.5,13.4477153 5.5,14 L5.5,16.5 L3,16.5 C2.44771525,16.5 2,16.9477153 2,17.5 C2,18.0522847 2.44771525,18.5 3,18.5 L5.5,18.5 L5.5,21 C5.5,21.5522847 5.94771525,22 6.5,22 C7.05228475,22 7.5,21.5522847 7.5,21 L7.5,18.5 Z M14.5,2.5 L21.5,2.5 C22.0522847,2.5 22.5,2.94771525 22.5,3.5 L22.5,10.5 C22.5,11.0522847 22.0522847,11.5 21.5,11.5 L14.5,11.5 C13.9477153,11.5 13.5,11.0522847 13.5,10.5 L13.5,3.5 C13.5,2.94771525 13.9477153,2.5 14.5,2.5 Z M15.5,9.5 L20.5,9.5 L20.5,4.5 L15.5,4.5 L15.5,9.5 Z M6.5,12 C3.73857625,12 1.5,9.76142375 1.5,7 C1.5,4.23857625 3.73857625,2 6.5,2 C9.26142375,2 11.5,4.23857625 11.5,7 C11.5,9.76142375 9.26142375,12 6.5,12 Z M6.5,10 C8.15685425,10 9.5,8.65685425 9.5,7 C9.5,5.34314575 8.15685425,4 6.5,4 C4.84314575,4 3.5,5.34314575 3.5,7 C3.5,8.65685425 4.84314575,10 6.5,10 Z M18.8516583,13.4759026 L22.8516583,19.9759026 C23.2616706,20.6421725 22.7823207,21.5 22,21.5 L14,21.5 C13.2176793,21.5 12.7383294,20.6421725 13.1483417,19.9759026 L17.1483417,13.4759026 C17.5388258,12.8413658 18.4611742,12.8413658 18.8516583,13.4759026 Z M15.7895644,19.5 L20.2104356,19.5 L18,15.9080422 L15.7895644,19.5 Z" id="Combined-Shape"></path>
        </g>
    </g>
</svg>