<?xml version="1.0" encoding="UTF-8"?>
<svg width="24px" height="24px" viewBox="0 0 24 24" version="1.1" xmlns="http://www.w3.org/2000/svg" xmlns:xlink="http://www.w3.org/1999/xlink">
    <!-- Generator: Sketch 44.1 (41455) - http://www.bohemiancoding.com/sketch -->
    <title>Bold/SVG/share</title>
    <desc>Created with Sketch.</desc>
    <defs></defs>
    <g id="Bold-Outline" stroke="none" stroke-width="1" fill="none" fill-rule="evenodd">
        <g id="share" fill-rule="nonzero" fill="#000000">
            <path d="M13,5.41421356 L13,16 C13,16.5522847 12.5522847,17 12,17 C11.4477153,17 11,16.5522847 11,16 L11,5.41421356 L7.75735931,8.65685425 C7.36683502,9.04737854 6.73367004,9.04737854 6.34314575,8.65685425 C5.95262146,8.26632996 5.95262146,7.63316498 6.34314575,7.24264069 L10.5857864,3 C11.366835,2.21895142 12.633165,2.21895142 13.4142136,3 L17.6568542,7.24264069 C18.0473785,7.63316498 18.0473785,8.26632996 17.6568542,8.65685425 C17.26633,9.04737854 16.633165,9.04737854 16.2426407,8.65685425 L13,5.41421356 Z M19,12 C19,11.4477153 19.4477153,11 20,11 C20.5522847,11 21,11.4477153 21,12 L21,18 C21,20.209139 19.209139,22 17,22 L7,22 C4.790861,22 3,20.209139 3,18 L3,12 C3,11.4477153 3.44771525,11 4,11 C4.55228475,11 5,11.4477153 5,12 L5,18 C5,19.1045695 5.8954305,20 7,20 L17,20 C18.1045695,20 19,19.1045695 19,18 L19,12 Z" id="shape"></path>
        </g>
    </g>
</svg>