<?xml version="1.0" encoding="UTF-8"?>
<svg width="24px" height="24px" viewBox="0 0 24 24" version="1.1" xmlns="http://www.w3.org/2000/svg" xmlns:xlink="http://www.w3.org/1999/xlink">
    <!-- Generator: Sketch 44.1 (41455) - http://www.bohemiancoding.com/sketch -->
    <title>Bold/SVG/shoes</title>
    <desc>Created with Sketch.</desc>
    <defs></defs>
    <g id="Bold-Outline" stroke="none" stroke-width="1" fill="none" fill-rule="evenodd">
        <g id="shoes" fill-rule="nonzero" fill="#000000">
            <path d="M6.19143485,10.6056484 L2.73352442,13.4348478 C2.70768307,13.4559908 2.68244588,13.4777172 2.65782568,13.5 L22,13.5 L22,8.33597684 C22,8.22849474 21.9826721,8.12171554 21.9486833,8.01974907 C21.7740355,7.49580575 21.2077156,7.21264577 20.6837722,7.38729354 L20.0820911,7.58785392 C18.0496282,8.26534156 15.8226006,8.02087578 13.9855042,6.91861799 L12.6920055,6.14251876 C12.3301279,5.92539218 11.8708961,5.95881651 11.544272,6.22605439 L11.3220698,6.4078562 L13.7071068,8.79289322 C14.0976311,9.18341751 14.0976311,9.81658249 13.7071068,10.2071068 C13.3165825,10.5976311 12.6834175,10.5976311 12.2928932,10.2071068 L9.76643485,7.68064841 L7.74706976,9.3328562 L9.28824561,10.874032 C9.6787699,11.2645563 9.6787699,11.8977213 9.28824561,12.2882456 C8.89772132,12.6787699 8.26455634,12.6787699 7.87403205,12.2882456 L6.19143485,10.6056484 Z M22,15.5 L2,15.5 L2,16.0611251 C2,16.8895522 2.67157288,17.5611251 3.5,17.5611251 L21,17.5611251 C21.5522847,17.5611251 22,17.1134098 22,16.5611251 L22,15.5 Z M15.0144958,5.20363214 C16.350945,6.00550169 17.9710612,6.18334546 19.4496356,5.69048732 L20.0513167,5.48992694 C21.6231467,4.96598363 23.3221066,5.81546359 23.8460499,7.38729354 C23.9480164,7.69319295 24,8.01353055 24,8.33597684 L24,16.5611251 C24,18.2179793 22.6568542,19.5611251 21,19.5611251 L3.5,19.5611251 C1.56700338,19.5611251 -2.27728947e-13,17.9941217 -2.28039809e-13,16.0611251 L-2.28039809e-13,14.9827624 C-2.28779958e-13,13.7830299 0.538507107,12.6466492 1.46704884,11.8869333 L10.2777964,4.67813979 C11.2576686,3.87642614 12.6353641,3.77615317 13.720997,4.42753291 L15.0144958,5.20363214 Z" id="shape"></path>
        </g>
    </g>
</svg>