<?xml version="1.0" encoding="UTF-8"?>
<svg width="24px" height="24px" viewBox="0 0 24 24" version="1.1" xmlns="http://www.w3.org/2000/svg" xmlns:xlink="http://www.w3.org/1999/xlink">
    <!-- Generator: Sketch 44.1 (41455) - http://www.bohemiancoding.com/sketch -->
    <title>Bold/SVG/shopping-basket</title>
    <desc>Created with Sketch.</desc>
    <defs></defs>
    <g id="Bold-Outline" stroke="none" stroke-width="1" fill="none" fill-rule="evenodd">
        <g id="shopping-basket" fill-rule="nonzero" fill="#000000">
            <path d="M4.27924078,8 L5.36754447,4.73508894 C5.91200065,3.10172038 7.44055603,2 9.16227766,2 L14.8377223,2 C16.559444,2 18.0879993,3.10172038 18.6324555,4.73508894 L19.7207592,8 L20.4384472,8 C22.0953014,8 23.4384472,9.34314575 23.4384472,11 C23.4384472,11.2452854 23.4083651,11.4896451 23.3488747,11.7276069 L21.5382408,18.9701425 C21.0930738,20.7508105 19.4931413,22 17.6576708,22 L6.34232922,22 C4.50685865,22 2.90692622,20.7508105 2.46175922,18.9701425 L0.651125312,11.7276069 C0.249279131,10.1202222 1.22656121,8.49141868 2.83394594,8.0895725 C3.07190775,8.03008205 3.31626739,8 3.56155281,8 L4.27924078,8 Z M3.31901719,10.0298575 C2.78322228,10.1638062 2.45746159,10.7067407 2.59141031,11.2425356 L4.40204422,18.4850713 C4.62462772,19.3754053 5.42459394,20 6.34232922,20 L17.6576708,20 C18.5754061,20 19.3753723,19.3754053 19.5979558,18.4850713 L21.4085897,11.2425356 C21.4284198,11.163215 21.4384472,11.0817618 21.4384472,11 C21.4384472,10.4477153 20.9907319,10 20.4384472,10 L3.56155281,10 C3.47979101,10 3.39833779,10.0100273 3.31901719,10.0298575 Z M9,17 C9,17.5522847 8.55228475,18 8,18 C7.44771525,18 7,17.5522847 7,17 L7,13 C7,12.4477153 7.44771525,12 8,12 C8.55228475,12 9,12.4477153 9,13 L9,17 Z M13,17 C13,17.5522847 12.5522847,18 12,18 C11.4477153,18 11,17.5522847 11,17 L11,13 C11,12.4477153 11.4477153,12 12,12 C12.5522847,12 13,12.4477153 13,13 L13,17 Z M17,17 C17,17.5522847 16.5522847,18 16,18 C15.4477153,18 15,17.5522847 15,17 L15,13 C15,12.4477153 15.4477153,12 16,12 C16.5522847,12 17,12.4477153 17,13 L17,17 Z M17.6125741,8 L16.7350889,5.36754447 C16.4628608,4.55086019 15.6985832,4 14.8377223,4 L9.16227766,4 C8.30141684,4 7.53713916,4.55086019 7.26491106,5.36754447 L6.38742589,8 L17.6125741,8 Z" id="shape"></path>
        </g>
    </g>
</svg>