<?xml version="1.0" encoding="UTF-8"?>
<svg width="24px" height="24px" viewBox="0 0 24 24" version="1.1" xmlns="http://www.w3.org/2000/svg" xmlns:xlink="http://www.w3.org/1999/xlink">
    <!-- Generator: Sketch 44.1 (41455) - http://www.bohemiancoding.com/sketch -->
    <title>Bold/SVG/sign-in</title>
    <desc>Created with Sketch.</desc>
    <defs></defs>
    <g id="Bold-Outline" stroke="none" stroke-width="1" fill="none" fill-rule="evenodd">
        <g id="sign-in" fill-rule="nonzero" fill="#000000">
            <path d="M15.5,4 C14.9477153,4 14.5,3.55228475 14.5,3 C14.5,2.44771525 14.9477153,2 15.5,2 L18.5,2 C20.709139,2 22.5,3.790861 22.5,6 L22.5,18 C22.5,20.209139 20.709139,22 18.5,22 L15.5,22 C14.9477153,22 14.5,21.5522847 14.5,21 C14.5,20.4477153 14.9477153,20 15.5,20 L18.5,20 C19.6045695,20 20.5,19.1045695 20.5,18 L20.5,6 C20.5,4.8954305 19.6045695,4 18.5,4 L15.5,4 Z M7.99995403,7.41435886 C7.99995403,6.30978936 8.89538453,5.41435886 9.99995403,5.41435886 C10.4447058,5.41435886 10.8767696,5.56260331 11.2278354,5.83565453 L17.5990134,10.791016 C18.4709077,11.4691562 18.6279765,12.7257074 17.9498363,13.5976017 C17.8479095,13.7286505 17.7300619,13.8464981 17.5990131,13.9484249 L11.2278351,18.9037847 C10.3559407,19.5819247 9.0993895,19.4248557 8.42124949,18.5529612 C8.14819841,18.2018955 7.99995403,17.7698318 7.99995403,17.3250801 L7.99995403,15.3697205 L3.99995403,15.3697205 C2.34309978,15.3697205 0.999954031,14.0265747 0.999954031,12.3697205 C0.999954031,10.7128662 2.34309978,9.36972049 3.99995403,9.36972049 L7.99995403,9.36972049 L7.99995403,7.41435886 Z M9.99995403,17.3250801 L16.371132,12.3697204 L9.99995403,7.41435886 L9.99995403,10.3697205 C9.99995403,10.9220052 9.55223878,11.3697205 8.99995403,11.3697205 L3.99995403,11.3697205 C3.44766928,11.3697205 2.99995403,11.8174357 2.99995403,12.3697205 C2.99995403,12.9220052 3.44766928,13.3697205 3.99995403,13.3697205 L8.99995403,13.3697205 C9.55223878,13.3697205 9.99995403,13.8174357 9.99995403,14.3697205 L9.99995403,17.3250801 Z" id="shape"></path>
        </g>
    </g>
</svg>