<?xml version="1.0" encoding="UTF-8"?>
<svg width="24px" height="24px" viewBox="0 0 24 24" version="1.1" xmlns="http://www.w3.org/2000/svg" xmlns:xlink="http://www.w3.org/1999/xlink">
    <!-- Generator: Sketch 44.1 (41455) - http://www.bohemiancoding.com/sketch -->
    <title>Bold/SVG/skip-back</title>
    <desc>Created with Sketch.</desc>
    <defs></defs>
    <g id="Bold-Outline" stroke="none" stroke-width="1" fill="none" fill-rule="evenodd">
        <g id="skip-back" fill-rule="nonzero" fill="#000000">
            <path d="M17.3854237,18.8243795 C17.561072,18.9612382 17.7773738,19.0355574 18.0000454,19.0355574 C18.5523301,19.0355574 19.0000454,18.5878421 19.0000454,18.0355574 L19.0000454,5.9648045 C19.0000454,5.74213294 18.9257262,5.5258311 18.7888674,5.35018286 C18.4494213,4.91452847 17.8210781,4.83653629 17.3854237,5.17598245 L9.63945818,11.2113589 C9.57443341,11.2620238 9.51592271,11.3205345 9.46525777,11.3855593 C9.12581161,11.8212137 9.20380379,12.4495568 9.63945818,12.789003 L17.3854237,18.8243795 Z M16.1561804,20.4020236 L8.4102149,14.3666471 C7.10325172,13.3483086 6.86927517,11.4632792 7.88761365,10.156316 C8.0396085,9.96124173 8.2151406,9.78570963 8.4102149,9.63371478 L16.1561804,3.59833833 C17.4631436,2.57999985 19.3481731,2.8139764 20.3665115,4.12093958 C20.7770878,4.6478843 21.0000454,5.29678981 21.0000454,5.9648045 L21.0000454,18.0355574 C21.0000454,19.6924116 19.6568996,21.0355574 18.0000454,21.0355574 C17.3320307,21.0355574 16.6831252,20.8125999 16.1561804,20.4020236 Z M5,19.5 C5,20.0522847 4.55228475,20.5 4,20.5 C3.44771525,20.5 3,20.0522847 3,19.5 L3,4.5 C3,3.94771525 3.44771525,3.5 4,3.5 C4.55228475,3.5 5,3.94771525 5,4.5 L5,19.5 Z" id="shape"></path>
        </g>
    </g>
</svg>