<?xml version="1.0" encoding="UTF-8"?>
<svg width="24px" height="24px" viewBox="0 0 24 24" version="1.1" xmlns="http://www.w3.org/2000/svg" xmlns:xlink="http://www.w3.org/1999/xlink">
    <!-- Generator: Sketch 44.1 (41455) - http://www.bohemiancoding.com/sketch -->
    <title>Bold/SVG/slash</title>
    <desc>Created with Sketch.</desc>
    <defs></defs>
    <g id="Bold-Outline" stroke="none" stroke-width="1" fill="none" fill-rule="evenodd">
        <g id="slash" fill-rule="nonzero" fill="#000000">
            <path d="M6.38231419,19.0318994 C7.92198502,20.2635271 9.87498629,21 12,21 C16.9705627,21 21,16.9705627 21,12 C21,9.87498629 20.2635271,7.92198502 19.0318994,6.38231419 L6.38231419,19.0318994 Z M4.96810063,17.6176858 L17.6176858,4.96810063 C16.078015,3.73647287 14.1250137,3 12,3 C7.02943725,3 3,7.02943725 3,12 C3,14.1250137 3.73647287,16.078015 4.96810063,17.6176858 Z M12,23 C5.92486775,23 1,18.0751322 1,12 C1,5.92486775 5.92486775,1 12,1 C18.0751322,1 23,5.92486775 23,12 C23,18.0751322 18.0751322,23 12,23 Z" id="shape"></path>
        </g>
    </g>
</svg>