<?xml version="1.0" encoding="UTF-8"?>
<svg width="24px" height="24px" viewBox="0 0 24 24" version="1.1" xmlns="http://www.w3.org/2000/svg" xmlns:xlink="http://www.w3.org/1999/xlink">
    <!-- Generator: Sketch 44.1 (41455) - http://www.bohemiancoding.com/sketch -->
    <title>Bold/SVG/sound</title>
    <desc>Created with Sketch.</desc>
    <defs></defs>
    <g id="Bold-Outline" stroke="none" stroke-width="1" fill="none" fill-rule="evenodd">
        <g id="sound" fill-rule="nonzero" fill="#000000">
            <path d="M17,6.75 C17,6.19771525 17.4477153,5.75 18,5.75 C18.5522847,5.75 19,6.19771525 19,6.75 L19,16.75 C19,17.3022847 18.5522847,17.75 18,17.75 C17.4477153,17.75 17,17.3022847 17,16.75 L17,6.75 Z M21,10 C21,9.44771525 21.4477153,9 22,9 C22.5522847,9 23,9.44771525 23,10 L23,14 C23,14.5522847 22.5522847,15 22,15 C21.4477153,15 21,14.5522847 21,14 L21,10 Z M13,9.75 C13,9.19771525 13.4477153,8.75 14,8.75 C14.5522847,8.75 15,9.19771525 15,9.75 L15,13.75 C15,14.3022847 14.5522847,14.75 14,14.75 C13.4477153,14.75 13,14.3022847 13,13.75 L13,9.75 Z M5,7 C5,6.44771525 5.44771525,6 6,6 C6.55228475,6 7,6.44771525 7,7 L7,17 C7,17.5522847 6.55228475,18 6,18 C5.44771525,18 5,17.5522847 5,17 L5,7 Z M1,10 C1,9.44771525 1.44771525,9 2,9 C2.55228475,9 3,9.44771525 3,10 L3,14 C3,14.5522847 2.55228475,15 2,15 C1.44771525,15 1,14.5522847 1,14 L1,10 Z M9,4 C9,3.44771525 9.44771525,3 10,3 C10.5522847,3 11,3.44771525 11,4 L11,20 C11,20.5522847 10.5522847,21 10,21 C9.44771525,21 9,20.5522847 9,20 L9,4 Z" id="shape"></path>
        </g>
    </g>
</svg>