<?xml version="1.0" encoding="UTF-8"?>
<svg width="24px" height="24px" viewBox="0 0 24 24" version="1.1" xmlns="http://www.w3.org/2000/svg" xmlns:xlink="http://www.w3.org/1999/xlink">
    <!-- Generator: Sketch 44.1 (41455) - http://www.bohemiancoding.com/sketch -->
    <title>Bold/SVG/stop-circle</title>
    <desc>Created with Sketch.</desc>
    <defs></defs>
    <g id="Bold-Outline" stroke="none" stroke-width="1" fill="none" fill-rule="evenodd">
        <g id="stop-circle" fill-rule="nonzero" fill="#000000">
            <path d="M12,23 C5.92486775,23 1,18.0751322 1,12 C1,5.92486775 5.92486775,1 12,1 C18.0751322,1 23,5.92486775 23,12 C23,18.0751322 18.0751322,23 12,23 Z M12,21 C16.9705627,21 21,16.9705627 21,12 C21,7.02943725 16.9705627,3 12,3 C7.02943725,3 3,7.02943725 3,12 C3,16.9705627 7.02943725,21 12,21 Z M9.5,7.5 L14.5,7.5 C15.6045695,7.5 16.5,8.3954305 16.5,9.5 L16.5,14.5 C16.5,15.6045695 15.6045695,16.5 14.5,16.5 L9.5,16.5 C8.3954305,16.5 7.5,15.6045695 7.5,14.5 L7.5,9.5 C7.5,8.3954305 8.3954305,7.5 9.5,7.5 Z M9.5,9.5 L9.5,14.5 L14.5,14.5 L14.5,9.5 L9.5,9.5 Z" id="shape"></path>
        </g>
    </g>
</svg>