<?xml version="1.0" encoding="UTF-8"?>
<svg width="24px" height="24px" viewBox="0 0 24 24" version="1.1" xmlns="http://www.w3.org/2000/svg" xmlns:xlink="http://www.w3.org/1999/xlink">
    <!-- Generator: Sketch 44.1 (41455) - http://www.bohemiancoding.com/sketch -->
    <title>Bold/SVG/store-2</title>
    <desc>Created with Sketch.</desc>
    <defs></defs>
    <g id="Bold-Outline" stroke="none" stroke-width="1" fill="none" fill-rule="evenodd">
        <g id="store-2" fill-rule="nonzero" fill="#000000">
            <path d="M10,20.5 L14,20.5 L14,15 L10,15 L10,20.5 Z M8,20.5 L8,15 L4,15 L4,18.5 C4,19.6045695 4.8954305,20.5 6,20.5 L8,20.5 Z M2.01212564,14.3438125 C1.02540187,13.5552383 0.609443124,12.1934838 1.0770134,10.9466297 L2.87265836,6.15824314 C2.95686615,5.93368902 3,5.69582016 3,5.45599625 L3,4.5 C3,3.11928813 4.11928813,2 5.5,2 L18.5,2 C19.8807119,2 21,3.11928813 21,4.5 L21,5.45599625 C21,5.69582016 21.0431339,5.93368902 21.1273416,6.15824314 L22.9229866,10.9466297 C23.0492983,11.2834609 23.1139991,11.6402641 23.1139991,12 C23.1139991,12.9479697 22.6743123,13.793245 21.987749,14.3430156 C21.9958129,14.3941589 22,14.4465905 22,14.5 L22,18.5 C22,20.709139 20.209139,22.5 18,22.5 L6,22.5 C3.790861,22.5 2,20.709139 2,18.5 L2,14.5 C2,14.4468678 2.00414372,14.3947035 2.01212564,14.3438125 Z M20,15 L16,15 L16,20.5 L18,20.5 C19.1045695,20.5 20,19.6045695 20,18.5 L20,15 Z M4.31800047,8 L2.94967176,11.6488766 C2.75575164,12.1659969 3.01775717,12.7424091 3.53487749,12.9363292 C3.64715455,12.9784331 3.76608899,13 3.88600094,13 L20.1139991,13 C20.6662838,13 21.1139991,12.5522847 21.1139991,12 C21.1139991,11.880088 21.0924321,11.7611536 21.0503282,11.6488766 L19.6819995,8 L4.31800047,8 Z M4.96283216,6 L19.0371678,6 C19.0124638,5.82006212 19,5.63831165 19,5.45599625 L19,4.5 C19,4.22385763 18.7761424,4 18.5,4 L5.5,4 C5.22385763,4 5,4.22385763 5,4.5 L5,5.45599625 C5,5.63831165 4.98753621,5.82006212 4.96283489,6 Z" id="shape"></path>
        </g>
    </g>
</svg>