<?xml version="1.0" encoding="UTF-8"?>
<svg width="24px" height="24px" viewBox="0 0 24 24" version="1.1" xmlns="http://www.w3.org/2000/svg" xmlns:xlink="http://www.w3.org/1999/xlink">
    <!-- Generator: Sketch 44.1 (41455) - http://www.bohemiancoding.com/sketch -->
    <title>Bold/SVG/swap</title>
    <desc>Created with Sketch.</desc>
    <defs></defs>
    <g id="Bold-Outline" stroke="none" stroke-width="1" fill="none" fill-rule="evenodd">
        <g id="swap" fill-rule="nonzero" fill="#000000">
            <path d="M5.41421356,16 L15,16 C15.5522847,16 16,16.4477153 16,17 C16,17.5522847 15.5522847,18 15,18 L5.41421356,18 L7.94974747,20.5355339 C8.34027176,20.9260582 8.34027176,21.5592232 7.94974747,21.9497475 C7.55922318,22.3402718 6.9260582,22.3402718 6.53553391,21.9497475 L3,18.4142136 C2.21895142,17.633165 2.21895142,16.366835 3,15.5857864 L6.53553391,12.0502525 C6.9260582,11.6597282 7.55922318,11.6597282 7.94974747,12.0502525 C8.34027176,12.4407768 8.34027176,13.0739418 7.94974747,13.4644661 L5.41421356,16 Z M19.0710678,6 L16.5355339,3.46446609 C16.1450096,3.0739418 16.1450096,2.44077682 16.5355339,2.05025253 C16.9260582,1.65972824 17.5592232,1.65972824 17.9497475,2.05025253 L21.4852814,5.58578644 C22.26633,6.36683502 22.26633,7.63316498 21.4852814,8.41421356 L17.9497475,11.9497475 C17.5592232,12.3402718 16.9260582,12.3402718 16.5355339,11.9497475 C16.1450096,11.5592232 16.1450096,10.9260582 16.5355339,10.5355339 L19.0710678,8 L9.5,8 C8.94771525,8 8.5,7.55228475 8.5,7 C8.5,6.44771525 8.94771525,6 9.5,6 L19.0710678,6 Z" id="shape"></path>
        </g>
    </g>
</svg>