<?xml version="1.0" encoding="UTF-8"?>
<svg width="24px" height="24px" viewBox="0 0 24 24" version="1.1" xmlns="http://www.w3.org/2000/svg" xmlns:xlink="http://www.w3.org/1999/xlink">
    <!-- Generator: Sketch 44.1 (41455) - http://www.bohemiancoding.com/sketch -->
    <title>Bold/SVG/sync</title>
    <desc>Created with Sketch.</desc>
    <defs></defs>
    <g id="Bold-Outline" stroke="none" stroke-width="1" fill="none" fill-rule="evenodd">
        <g id="sync" fill-rule="nonzero" fill="#000000">
            <path d="M11.3046871,2.52374007 C15.7660845,2.19138346 19.9759021,5.06129058 21.1762953,9.54121907 C21.8370546,12.0072061 21.4784306,14.5828767 20.2272413,16.75 C19.951099,17.2282926 19.3395086,17.3921678 18.8612159,17.1160254 C18.3829233,16.839883 18.2190482,16.2282926 18.4951905,15.75 C19.4837924,14.0376913 19.7665057,12.0072189 19.2444437,10.0588572 C18.2360479,6.29547265 14.5375992,3.97124789 10.7722108,4.60063795 L12.1213203,5.94974747 C12.5118446,6.34027176 12.5118446,6.97343674 12.1213203,7.36396103 C11.7307961,7.75448532 11.0976311,7.75448532 10.7071068,7.36396103 L8.58578644,5.24264069 C7.80473785,4.4615921 7.80473785,3.19526215 8.58578644,2.41421356 L10.7071068,0.292893219 C11.0976311,-0.0976310729 11.7307961,-0.0976310729 12.1213203,0.292893219 C12.5118446,0.683417511 12.5118446,1.31658249 12.1213203,1.70710678 L11.3046871,2.52374007 Z M12.6953129,21.4762599 C8.23391553,21.8086165 4.02409787,18.9387094 2.82370465,14.4587809 C2.16294541,11.9927939 2.52156943,9.41712332 3.77275866,7.25 C4.04890104,6.77170738 4.66049144,6.60783222 5.13878407,6.8839746 C5.61707669,7.16011697 5.78095185,7.77170738 5.50480947,8.25 C4.51620757,9.96230872 4.23349434,11.9927811 4.7555563,13.9411428 C5.76395214,17.7045274 9.46240081,20.0287521 13.2277892,19.399362 L11.8786797,18.0502525 C11.4881554,17.6597282 11.4881554,17.0265633 11.8786797,16.636039 C12.2692039,16.2455147 12.9023689,16.2455147 13.2928932,16.636039 L15.4142136,18.7573593 C16.1952621,19.5384079 16.1952621,20.8047379 15.4142136,21.5857864 L13.2928932,23.7071068 C12.9023689,24.0976311 12.2692039,24.0976311 11.8786797,23.7071068 C11.4881554,23.3165825 11.4881554,22.6834175 11.8786797,22.2928932 L12.6953129,21.4762599 Z" id="shape"></path>
        </g>
    </g>
</svg>