<?xml version="1.0" encoding="UTF-8"?>
<svg width="24px" height="24px" viewBox="0 0 24 24" version="1.1" xmlns="http://www.w3.org/2000/svg" xmlns:xlink="http://www.w3.org/1999/xlink">
    <!-- Generator: Sketch 44.1 (41455) - http://www.bohemiancoding.com/sketch -->
    <title>Bold/SVG/texture</title>
    <desc>Created with Sketch.</desc>
    <defs></defs>
    <g id="Bold-Outline" stroke="none" stroke-width="1" fill="none" fill-rule="evenodd">
        <g id="texture" fill-rule="nonzero" fill="#000000">
            <path d="M14.664227,13.2524547 C14.8702257,13.4356261 15,13.7026578 15,14 C15,14.5522847 14.5522847,15 14,15 C13.7676185,15 13.5537502,14.9207354 13.3839571,14.7877683 C13.2496667,15.0708732 13.1476439,15.3722594 13.0826396,15.687176 C13.3353769,15.8686616 13.5,16.1651059 13.5,16.5 C13.5,16.8348941 13.3353769,17.1313384 13.0826396,17.312824 C13.1476439,17.6277406 13.2496667,17.9291268 13.3839571,18.2122317 C13.5537502,18.0792646 13.7676185,18 14,18 C14.5522847,18 15,18.4477153 15,19 C15,19.2973422 14.8702257,19.5643739 14.664227,19.7475453 C15.3214163,20.2210563 16.1281328,20.5 17,20.5 C17.8718672,20.5 18.6785837,20.2210563 19.335773,19.7475453 C19.1297743,19.5643739 19,19.2973422 19,19 C19,18.4477153 19.4477153,18 20,18 C20.2323815,18 20.4462498,18.0792646 20.6160429,18.2122317 C20.7503333,17.9291268 20.8523561,17.6277406 20.9173604,17.312824 C20.6646231,17.1313384 20.5,16.8348941 20.5,16.5 C20.5,16.1651059 20.6646231,15.8686616 20.9173604,15.687176 C20.8523561,15.3722594 20.7503333,15.0708732 20.6160429,14.7877683 C20.4462498,14.9207354 20.2323815,15 20,15 C19.4477153,15 19,14.5522847 19,14 C19,13.7026578 19.1297743,13.4356261 19.335773,13.2524547 C18.6785837,12.7789437 17.8718672,12.5 17,12.5 C16.1281328,12.5 15.3214163,12.7789437 14.664227,13.2524547 Z M6.804502,10.5031247 C6.29287309,9.61989885 6,8.59415151 6,7.5 C6,4.1862915 8.6862915,1.5 12,1.5 C15.3137085,1.5 18,4.1862915 18,7.5 C18,8.59415151 17.7071269,9.61989885 17.195498,10.5031247 C20.4187216,10.6063045 23,13.2517073 23,16.5 C23,19.8137085 20.3137085,22.5 17,22.5 C14.9130292,22.5 13.0749215,21.4344907 12,19.8177951 C10.9250785,21.4344907 9.08697075,22.5 7,22.5 C3.6862915,22.5 1,19.8137085 1,16.5 C1,13.2517073 3.58127842,10.6063045 6.804502,10.5031247 Z M7,20.5 C9.209139,20.5 11,18.709139 11,16.5 C11,14.290861 9.209139,12.5 7,12.5 C4.790861,12.5 3,14.290861 3,16.5 C3,18.709139 4.790861,20.5 7,20.5 Z M12,11.5 C14.209139,11.5 16,9.709139 16,7.5 C16,5.290861 14.209139,3.5 12,3.5 C9.790861,3.5 8,5.290861 8,7.5 C8,9.709139 9.790861,11.5 12,11.5 Z M12,10.5 C11.4477153,10.5 11,10.0522847 11,9.5 C11,8.94771525 11.4477153,8.5 12,8.5 C12.5522847,8.5 13,8.94771525 13,9.5 C13,10.0522847 12.5522847,10.5 12,10.5 Z M12,6.5 C11.4477153,6.5 11,6.05228475 11,5.5 C11,4.94771525 11.4477153,4.5 12,4.5 C12.5522847,4.5 13,4.94771525 13,5.5 C13,6.05228475 12.5522847,6.5 12,6.5 Z M14,8.5 C13.4477153,8.5 13,8.05228475 13,7.5 C13,6.94771525 13.4477153,6.5 14,6.5 C14.5522847,6.5 15,6.94771525 15,7.5 C15,8.05228475 14.5522847,8.5 14,8.5 Z M10,8.5 C9.44771525,8.5 9,8.05228475 9,7.5 C9,6.94771525 9.44771525,6.5 10,6.5 C10.5522847,6.5 11,6.94771525 11,7.5 C11,8.05228475 10.5522847,8.5 10,8.5 Z M17,20 C16.4477153,20 16,19.5522847 16,19 C16,18.4477153 16.4477153,18 17,18 C17.5522847,18 18,18.4477153 18,19 C18,19.5522847 17.5522847,20 17,20 Z M17,15 C16.4477153,15 16,14.5522847 16,14 C16,13.4477153 16.4477153,13 17,13 C17.5522847,13 18,13.4477153 18,14 C18,14.5522847 17.5522847,15 17,15 Z M18.5,17.5 C17.9477153,17.5 17.5,17.0522847 17.5,16.5 C17.5,15.9477153 17.9477153,15.5 18.5,15.5 C19.0522847,15.5 19.5,15.9477153 19.5,16.5 C19.5,17.0522847 19.0522847,17.5 18.5,17.5 Z M15.5,17.5 C14.9477153,17.5 14.5,17.0522847 14.5,16.5 C14.5,15.9477153 14.9477153,15.5 15.5,15.5 C16.0522847,15.5 16.5,15.9477153 16.5,16.5 C16.5,17.0522847 16.0522847,17.5 15.5,17.5 Z" id="shape"></path>
        </g>
    </g>
</svg>