<?xml version="1.0" encoding="UTF-8"?>
<svg width="24px" height="24px" viewBox="0 0 24 24" version="1.1" xmlns="http://www.w3.org/2000/svg" xmlns:xlink="http://www.w3.org/1999/xlink">
    <!-- Generator: Sketch 44.1 (41455) - http://www.bohemiancoding.com/sketch -->
    <title>Bold/SVG/thermometer</title>
    <desc>Created with Sketch.</desc>
    <defs></defs>
    <g id="Bold-Outline" stroke="none" stroke-width="1" fill="none" fill-rule="evenodd">
        <g id="thermometer" fill-rule="nonzero" fill="#000000">
            <path d="M13.5,4 L13.5,3.5 C13.5,2.67157288 12.8284271,2 12,2 C11.1715729,2 10.5,2.67157288 10.5,3.5 L10.5,13.668911 C10.5,14.025877 10.3097179,14.3557747 10.000726,14.5345168 C8.77192925,15.2453374 8,16.5548875 8,18 C8,20.209139 9.790861,22 12,22 C14.209139,22 16,20.209139 16,18 C16,16.5548875 15.2280707,15.2453374 13.999274,14.5345168 C13.6902821,14.3557747 13.5,14.025877 13.5,13.668911 L13.5,13 L13,13 C12.4477153,13 12,12.5522847 12,12 C12,11.4477153 12.4477153,11 13,11 L13.5,11 L13.5,9.5 L13,9.5 C12.4477153,9.5 12,9.05228475 12,8.5 C12,7.94771525 12.4477153,7.5 13,7.5 L13.5,7.5 L13.5,6 L13,6 C12.4477153,6 12,5.55228475 12,5 C12,4.44771525 12.4477153,4 13,4 L13.5,4 Z M18,18 C18,21.3137085 15.3137085,24 12,24 C8.6862915,24 6,21.3137085 6,18 C6,16.0367133 6.95158022,14.2383461 8.5,13.1259198 L8.5,3.5 C8.5,1.56700338 10.0670034,3.10862447e-16 12,0 C13.9329966,-3.10862447e-16 15.5,1.56700338 15.5,3.5 L15.5,13.1259198 C17.0484198,14.2383461 18,16.0367133 18,18 Z M12,20 C10.8954305,20 10,19.1045695 10,18 C10,16.8954305 10.8954305,16 12,16 C13.1045695,16 14,16.8954305 14,18 C14,19.1045695 13.1045695,20 12,20 Z" id="shape"></path>
        </g>
    </g>
</svg>