<?xml version="1.0" encoding="UTF-8"?>
<svg width="24px" height="24px" viewBox="0 0 24 24" version="1.1" xmlns="http://www.w3.org/2000/svg" xmlns:xlink="http://www.w3.org/1999/xlink">
    <!-- Generator: Sketch 44.1 (41455) - http://www.bohemiancoding.com/sketch -->
    <title>Bold/SVG/ticket</title>
    <desc>Created with Sketch.</desc>
    <defs></defs>
    <g id="Bold-Outline" stroke="none" stroke-width="1" fill="none" fill-rule="evenodd">
        <g id="ticket" fill-rule="nonzero" fill="#000000">
            <path d="M15,6 L8,6 L8,18 L15,18 L15,6 Z M17,6 L17,18 L21,18 C21.5522847,18 22,17.5522847 22,17 L22,15.8739825 C20.2747728,15.4299397 19,13.8638394 19,12 C19,10.1361606 20.2747728,8.57006028 22,8.12601749 L22,7 C22,6.44771525 21.5522847,6 21,6 L17,6 Z M6,6 L3,6 C2.44771525,6 2,6.44771525 2,7 L2,8.12601749 C3.72522721,8.57006028 5,10.1361606 5,12 C5,13.8638394 3.72522721,15.4299397 2,15.8739825 L2,17 C2,17.5522847 2.44771525,18 3,18 L6,18 L6,6 Z M21,20 L3,20 C1.34314575,20 2.77555756e-15,18.6568542 2.44249065e-15,17 L-6.66133815e-16,15 C-1.55431223e-15,14.4477153 0.44771525,14 1,14 C2.1045695,14 3,13.1045695 3,12 C3,10.8954305 2.1045695,10 1,10 C0.44771525,10 -3.55271368e-15,9.55228475 -3.55271368e-15,9 L-3.55271368e-15,7 C-3.71924713e-15,5.34314575 1.34314575,4 3,4 L21,4 C22.6568542,4 24,5.34314575 24,7 L24,9 C24,9.55228475 23.5522847,10 23,10 C21.8954305,10 21,10.8954305 21,12 C21,13.1045695 21.8954305,14 23,14 C23.5522847,14 24,14.4477153 24,15 L24,17 C24,18.6568542 22.6568542,20 21,20 Z" id="shape"></path>
        </g>
    </g>
</svg>