<?xml version="1.0" encoding="UTF-8"?>
<svg width="24px" height="24px" viewBox="0 0 24 24" version="1.1" xmlns="http://www.w3.org/2000/svg" xmlns:xlink="http://www.w3.org/1999/xlink">
    <!-- Generator: Sketch 44.1 (41455) - http://www.bohemiancoding.com/sketch -->
    <title>Bold/SVG/tool</title>
    <desc>Created with Sketch.</desc>
    <defs></defs>
    <g id="Bold-Outline" stroke="none" stroke-width="1" fill="none" fill-rule="evenodd">
        <g id="tool" fill-rule="nonzero" fill="#000000">
            <path d="M9.5,3.36851709 L7.4452998,4.73831722 C7.16710114,4.923783 7,5.23601433 7,5.57036752 L7,9.42963248 C7,9.76398567 7.16710114,10.076217 7.4452998,10.2616828 L11.0547002,12.6679497 C11.3328989,12.8534155 11.5,13.1656468 11.5,13.5 L11.5,22 C11.5,22.8284271 12.1715729,23.5 13,23.5 C13.8284271,23.5 14.5,22.8284271 14.5,22 L14.5,13.5 C14.5,13.1656468 14.6671011,12.8534155 14.9452998,12.6679497 L18.5547002,10.2616828 C18.8328989,10.076217 19,9.76398567 19,9.42963248 L19,5.57036752 C19,5.23601433 18.8328989,4.923783 18.5547002,4.73831722 L16.5,3.36851709 L16.5,7.5 C16.5,7.80379207 16.3619027,8.09111193 16.1246764,8.28088369 L13.6245544,10.2808837 C13.2593288,10.5730499 12.740376,10.5730375 12.3751643,10.2808539 L9.87528635,8.28085393 C9.63808216,8.09108131 9.5,7.80377537 9.5,7.5 L9.5,3.36851709 Z M9.5,14.0351838 L6.33589941,11.9257834 C5.50130341,11.369386 5,10.432692 5,9.42963248 L5,5.57036752 C5,4.56730795 5.50130341,3.63061397 6.33589941,3.07421663 L9.9452998,0.667949706 C10.6098545,0.224913219 11.5,0.701304616 11.5,1.5 L11.5,7.01938981 L12.9999084,8.21937515 L14.5,7.01936049 L14.5,1.5 C14.5,0.701304616 15.3901455,0.224913219 16.0547002,0.667949706 L19.6641006,3.07421663 C20.4986966,3.63061397 21,4.56730795 21,5.57036752 L21,9.42963248 C21,10.432692 20.4986966,11.369386 19.6641006,11.9257834 L16.5,14.0351838 L16.5,22 C16.5,23.9329966 14.9329966,25.5 13,25.5 C11.0670034,25.5 9.5,23.9329966 9.5,22 L9.5,14.0351838 Z" id="shape" transform="translate(13.000000, 12.999159) rotate(-45.000000) translate(-13.000000, -12.999159) "></path>
        </g>
    </g>
</svg>