<?xml version="1.0" encoding="UTF-8"?>
<svg width="24px" height="24px" viewBox="0 0 24 24" version="1.1" xmlns="http://www.w3.org/2000/svg" xmlns:xlink="http://www.w3.org/1999/xlink">
    <!-- Generator: Sketch 44.1 (41455) - http://www.bohemiancoding.com/sketch -->
    <title>Bold/SVG/transform</title>
    <desc>Created with Sketch.</desc>
    <defs></defs>
    <g id="Bold-Outline" stroke="none" stroke-width="1" fill="none" fill-rule="evenodd">
        <g id="transform" fill-rule="nonzero" fill="#000000">
            <path d="M19,17 L19,7 C17.8954305,7 17,6.1045695 17,5 L7,5 C7,6.1045695 6.1045695,7 5,7 L5,17 C6.1045695,17 7,17.8954305 7,19 L17,19 C17,17.8954305 17.8954305,17 19,17 Z M21,17 C22.1045695,17 23,17.8954305 23,19 L23,21 C23,22.1045695 22.1045695,23 21,23 L19,23 C17.8954305,23 17,22.1045695 17,21 L7,21 C7,22.1045695 6.1045695,23 5,23 L3,23 C1.8954305,23 1,22.1045695 1,21 L1,19 C1,17.8954305 1.8954305,17 3,17 L3,7 C1.8954305,7 1,6.1045695 1,5 L1,3 C1,1.8954305 1.8954305,1 3,1 L5,1 C6.1045695,1 7,1.8954305 7,3 L17,3 C17,1.8954305 17.8954305,1 19,1 L21,1 C22.1045695,1 23,1.8954305 23,3 L23,5 C23,6.1045695 22.1045695,7 21,7 L21,17 Z M19,19 L19,21 L21,21 L21,19 L19,19 Z M3,19 L3,21 L5,21 L5,19 L3,19 Z M19,3 L19,5 L21,5 L21,3 L19,3 Z M3,3 L3,5 L5,5 L5,3 L3,3 Z" id="shape"></path>
        </g>
    </g>
</svg>