<?xml version="1.0" encoding="UTF-8"?>
<svg width="24px" height="24px" viewBox="0 0 24 24" version="1.1" xmlns="http://www.w3.org/2000/svg" xmlns:xlink="http://www.w3.org/1999/xlink">
    <!-- Generator: Sketch 44.1 (41455) - http://www.bohemiancoding.com/sketch -->
    <title>Bold/SVG/Tree</title>
    <desc>Created with Sketch.</desc>
    <defs></defs>
    <g id="Bold-Outline" stroke="none" stroke-width="1" fill="none" fill-rule="evenodd">
        <g id="Tree" fill-rule="nonzero" fill="#000000">
            <path d="M4,8.5 L4,15.5 C4,16.6045695 4.8954305,17.5 6,17.5 L8,17.5 L8,16.5 C8,14.8431458 9.34314575,13.5 11,13.5 L19,13.5 C20.6568542,13.5 22,14.8431458 22,16.5 L22,18.5 C22,20.1568542 20.6568542,21.5 19,21.5 L11,21.5 C9.69378117,21.5 8.58254212,20.6651924 8.17070571,19.5 L6,19.5 C3.790861,19.5 2,17.709139 2,15.5 L2,3.5 C2,2.94771525 2.44771525,2.5 3,2.5 C3.55228475,2.5 4,2.94771525 4,3.5 L4,6.5 L8,6.5 C8,4.84314575 9.34314575,3.5 11,3.5 L19,3.5 C20.6568542,3.5 22,4.84314575 22,6.5 L22,8.5 C22,10.1568542 20.6568542,11.5 19,11.5 L11,11.5 C9.34314575,11.5 8,10.1568542 8,8.5 L4,8.5 Z M11,5.5 C10.4477153,5.5 10,5.94771525 10,6.5 L10,8.5 C10,9.05228475 10.4477153,9.5 11,9.5 L19,9.5 C19.5522847,9.5 20,9.05228475 20,8.5 L20,6.5 C20,5.94771525 19.5522847,5.5 19,5.5 L11,5.5 Z M11,15.5 C10.4477153,15.5 10,15.9477153 10,16.5 L10,18.5 C10,19.0522847 10.4477153,19.5 11,19.5 L19,19.5 C19.5522847,19.5 20,19.0522847 20,18.5 L20,16.5 C20,15.9477153 19.5522847,15.5 19,15.5 L11,15.5 Z" id="Combined-Shape"></path>
        </g>
    </g>
</svg>