<?xml version="1.0" encoding="UTF-8"?>
<svg width="24px" height="24px" viewBox="0 0 24 24" version="1.1" xmlns="http://www.w3.org/2000/svg" xmlns:xlink="http://www.w3.org/1999/xlink">
    <!-- Generator: Sketch 44.1 (41455) - http://www.bohemiancoding.com/sketch -->
    <title>Bold/SVG/tune-vertical</title>
    <desc>Created with Sketch.</desc>
    <defs></defs>
    <g id="Bold-Outline" stroke="none" stroke-width="1" fill="none" fill-rule="evenodd">
        <g id="tune-vertical" fill-rule="nonzero" fill="#000000">
            <path d="M18,15 L18,21 C18,21.5522847 18.4477153,22 19,22 C19.5522847,22 20,21.5522847 20,21 L20,15 L21,15 C21.5522847,15 22,14.5522847 22,14 C22,13.4477153 21.5522847,13 21,13 L17,13 C16.4477153,13 16,13.4477153 16,14 C16,14.5522847 16.4477153,15 17,15 L18,15 Z M11,5 L11,3 C11,2.44771525 11.4477153,2 12,2 C12.5522847,2 13,2.44771525 13,3 L13,5 L14,5 C14.5522847,5 15,5.44771525 15,6 C15,6.55228475 14.5522847,7 14,7 L10,7 C9.44771525,7 9,6.55228475 9,6 C9,5.44771525 9.44771525,5 10,5 L11,5 Z M4,19 L4,21 C4,21.5522847 4.44771525,22 5,22 C5.55228475,22 6,21.5522847 6,21 L6,19 L7,19 C7.55228475,19 8,18.5522847 8,18 C8,17.4477153 7.55228475,17 7,17 L3,17 C2.44771525,17 2,17.4477153 2,18 C2,18.5522847 2.44771525,19 3,19 L4,19 Z M6,14 C6,14.5522847 5.55228475,15 5,15 C4.44771525,15 4,14.5522847 4,14 L4,3 C4,2.44771525 4.44771525,2 5,2 C5.55228475,2 6,2.44771525 6,3 L6,14 Z M13,21 C13,21.5522847 12.5522847,22 12,22 C11.4477153,22 11,21.5522847 11,21 L11,10 C11,9.44771525 11.4477153,9 12,9 C12.5522847,9 13,9.44771525 13,10 L13,21 Z M20,10 C20,10.5522847 19.5522847,11 19,11 C18.4477153,11 18,10.5522847 18,10 L18,3 C18,2.44771525 18.4477153,2 19,2 C19.5522847,2 20,2.44771525 20,3 L20,10 Z" id="shape"></path>
        </g>
    </g>
</svg>