<?xml version="1.0" encoding="UTF-8"?>
<svg width="24px" height="24px" viewBox="0 0 24 24" version="1.1" xmlns="http://www.w3.org/2000/svg" xmlns:xlink="http://www.w3.org/1999/xlink">
    <!-- Generator: Sketch 44.1 (41455) - http://www.bohemiancoding.com/sketch -->
    <title>Bold/SVG/tune-circle</title>
    <desc>Created with Sketch.</desc>
    <defs></defs>
    <g id="Bold-Outline" stroke="none" stroke-width="1" fill="none" fill-rule="evenodd">
        <g id="tune-circle" fill-rule="nonzero" fill="#000000">
            <path d="M15.8292943,20 C15.4174579,21.1651924 14.3062188,22 13,22 C11.6937812,22 10.5825421,21.1651924 10.1707057,20 L3,20 C2.44771525,20 2,19.5522847 2,19 C2,18.4477153 2.44771525,18 3,18 L10.1707057,18 C10.5825421,16.8348076 11.6937812,16 13,16 C14.3062188,16 15.4174579,16.8348076 15.8292943,18 L21,18 C21.5522847,18 22,18.4477153 22,19 C22,19.5522847 21.5522847,20 21,20 L15.8292943,20 Z M9.82929429,13 C9.41745788,14.1651924 8.30621883,15 7,15 C5.69378117,15 4.58254212,14.1651924 4.17070571,13 L3,13 C2.44771525,13 2,12.5522847 2,12 C2,11.4477153 2.44771525,11 3,11 L4.17070571,11 C4.58254212,9.83480763 5.69378117,9 7,9 C8.30621883,9 9.41745788,9.83480763 9.82929429,11 L21,11 C21.5522847,11 22,11.4477153 22,12 C22,12.5522847 21.5522847,13 21,13 L9.82929429,13 Z M19.8292943,6 C19.4174579,7.16519237 18.3062188,8 17,8 C15.6937812,8 14.5825421,7.16519237 14.1707057,6 L3,6 C2.44771525,6 2,5.55228475 2,5 C2,4.44771525 2.44771525,4 3,4 L14.1707057,4 C14.5825421,2.83480763 15.6937812,2 17,2 C18.3062188,2 19.4174579,2.83480763 19.8292943,4 L21,4 C21.5522847,4 22,4.44771525 22,5 C22,5.55228475 21.5522847,6 21,6 L19.8292943,6 Z M17,6 C17.5522847,6 18,5.55228475 18,5 C18,4.44771525 17.5522847,4 17,4 C16.4477153,4 16,4.44771525 16,5 C16,5.55228475 16.4477153,6 17,6 Z M7,13 C7.55228475,13 8,12.5522847 8,12 C8,11.4477153 7.55228475,11 7,11 C6.44771525,11 6,11.4477153 6,12 C6,12.5522847 6.44771525,13 7,13 Z M13,20 C13.5522847,20 14,19.5522847 14,19 C14,18.4477153 13.5522847,18 13,18 C12.4477153,18 12,18.4477153 12,19 C12,19.5522847 12.4477153,20 13,20 Z" id="shape"></path>
        </g>
    </g>
</svg>