<?xml version="1.0" encoding="UTF-8"?>
<svg width="24px" height="24px" viewBox="0 0 24 24" version="1.1" xmlns="http://www.w3.org/2000/svg" xmlns:xlink="http://www.w3.org/1999/xlink">
    <!-- Generator: Sketch 44.1 (41455) - http://www.bohemiancoding.com/sketch -->
    <title>Bold/SVG/tv</title>
    <desc>Created with Sketch.</desc>
    <defs></defs>
    <g id="Bold-Outline" stroke="none" stroke-width="1" fill="none" fill-rule="evenodd">
        <g id="tv" fill-rule="nonzero" fill="#000000">
            <path d="M16,19.5 L16,20.5 C16,21.0522847 15.5522847,21.5 15,21.5 L9,21.5 C8.44771525,21.5 8,21.0522847 8,20.5 L8,19.5 L5,19.5 C2.790861,19.5 1,17.709139 1,15.5 L1,6.5 C1,4.290861 2.790861,2.5 5,2.5 L19,2.5 C21.209139,2.5 23,4.290861 23,6.5 L23,15.5 C23,17.709139 21.209139,19.5 19,19.5 L16,19.5 Z M5,4.5 C3.8954305,4.5 3,5.3954305 3,6.5 L3,15.5 C3,16.6045695 3.8954305,17.5 5,17.5 L19,17.5 C20.1045695,17.5 21,16.6045695 21,15.5 L21,6.5 C21,5.3954305 20.1045695,4.5 19,4.5 L5,4.5 Z" id="shape"></path>
        </g>
    </g>
</svg>