<?xml version="1.0" encoding="UTF-8"?>
<svg width="24px" height="24px" viewBox="0 0 24 24" version="1.1" xmlns="http://www.w3.org/2000/svg" xmlns:xlink="http://www.w3.org/1999/xlink">
    <!-- Generator: Sketch 44.1 (41455) - http://www.bohemiancoding.com/sketch -->
    <title>Bold/SVG/undo</title>
    <desc>Created with Sketch.</desc>
    <defs></defs>
    <g id="Bold-Outline" stroke="none" stroke-width="1" fill="none" fill-rule="evenodd">
        <g id="undo" fill-rule="nonzero" fill="#000000">
            <path d="M18.9178224,14 C18.2514887,12.1758491 16.9708758,10.6272384 15.2420248,9.62908588 C11.2374801,7.31706093 6.1168887,8.68911927 3.80486375,12.693664 C3.43461259,13.3349578 3.15421869,14.0124001 2.96601275,14.7130455 C2.82273814,15.2464223 2.27420378,15.5626626 1.74082696,15.419388 C1.20745014,15.2761134 0.891209814,14.7275791 1.03448442,14.1942022 C1.26782384,13.3255358 1.61518386,12.4863008 2.07281294,11.693664 C4.93712265,6.73253402 11.2808949,5.03272537 16.2420248,7.89703508 C18.2264278,9.04273067 19.7361524,10.7773233 20.603506,12.8244052 L20.603506,9 C20.603506,8.44771525 21.0512212,8 21.603506,8 C22.1557907,8 22.603506,8.44771525 22.603506,9 L22.603506,14 C22.603506,15.1045695 21.7080755,16 20.603506,16 L15.603506,16 C15.0512212,16 14.603506,15.5522847 14.603506,15 C14.603506,14.4477153 15.0512212,14 15.603506,14 L18.9178224,14 Z" id="shape" transform="translate(11.801753, 11.252820) scale(-1, 1) translate(-11.801753, -11.252820) "></path>
        </g>
    </g>
</svg>