<?xml version="1.0" encoding="UTF-8"?>
<svg width="24px" height="24px" viewBox="0 0 24 24" version="1.1" xmlns="http://www.w3.org/2000/svg" xmlns:xlink="http://www.w3.org/1999/xlink">
    <!-- Generator: Sketch 44.1 (41455) - http://www.bohemiancoding.com/sketch -->
    <title>Bold/SVG/update</title>
    <desc>Created with Sketch.</desc>
    <defs></defs>
    <g id="Bold-Outline" stroke="none" stroke-width="1" fill="none" fill-rule="evenodd">
        <g id="update" fill-rule="nonzero" fill="#000000">
            <path d="M4,5.19736653 C5.3602793,3.59462466 7.18565218,2.41960072 9.28240003,1.85777882 C14.8837941,0.356889802 20.6413322,3.68100594 22.1422212,9.28240003 C23.6431102,14.8837941 20.3189941,20.6413322 14.7176,22.1422212 C9.11620589,23.6431102 3.35866785,20.3189941 1.85777882,14.7176 C1.71483701,14.1841339 2.0314195,13.6357969 2.56488561,13.4928551 C3.09835171,13.3499133 3.64668866,13.6664958 3.78963048,14.1999619 C5.00463587,18.7344238 9.66550001,21.4253749 14.1999619,20.2103695 C18.7344238,18.9953641 21.4253749,14.3345 20.2103695,9.80003812 C18.9953641,5.26557624 14.3345,2.57462508 9.80003812,3.78963048 C7.88718501,4.30217792 6.25589056,5.44258247 5.12549595,7 L7,7 C7.55228475,7 8,7.44771525 8,8 C8,8.55228475 7.55228475,9 7,9 L4,9 C2.8954305,9 2,8.1045695 2,7 L2,4 C2,3.44771525 2.44771525,3 3,3 C3.55228475,3 4,3.44771525 4,4 L4,5.19736653 Z M13,6.5 L13,11.4648162 L17.0547002,14.1679497 C17.5142289,14.4743022 17.6384028,15.0951715 17.3320503,15.5547002 C17.0256978,16.0142289 16.4048285,16.1384028 15.9452998,15.8320503 L11.4452998,12.8320503 C11.1671011,12.6465845 11,12.3343532 11,12 L11,6.5 C11,5.94771525 11.4477153,5.5 12,5.5 C12.5522847,5.5 13,5.94771525 13,6.5 Z" id="shape"></path>
        </g>
    </g>
</svg>