<?xml version="1.0" encoding="UTF-8"?>
<svg width="24px" height="24px" viewBox="0 0 24 24" version="1.1" xmlns="http://www.w3.org/2000/svg" xmlns:xlink="http://www.w3.org/1999/xlink">
    <!-- Generator: Sketch 44.1 (41455) - http://www.bohemiancoding.com/sketch -->
    <title>Bold/SVG/usb</title>
    <desc>Created with Sketch.</desc>
    <defs></defs>
    <g id="Bold-Outline" stroke="none" stroke-width="1" fill="none" fill-rule="evenodd">
        <g id="usb" fill-rule="nonzero" fill="#000000">
            <path d="M6,12 L6,15 C6,16.6568542 7.34314575,18 9,18 L15,18 C16.6568542,18 18,16.6568542 18,15 L18,12 L6,12 Z M18,10 C19.1045695,10 20,10.8954305 20,12 L20,15 C20,17.7614237 17.7614237,20 15,20 L13,20 L13,22 C13,22.5522847 12.5522847,23 12,23 C11.4477153,23 11,22.5522847 11,22 L11,20 L9,20 C6.23857625,20 4,17.7614237 4,15 L4,12 C4,10.8954305 4.8954305,10 6,10 L6,4 C6,2.34314575 7.34314575,1 9,1 L15,1 C16.6568542,1 18,2.34314575 18,4 L18,10 Z M16,10 L16,4 C16,3.44771525 15.5522847,3 15,3 L9,3 C8.44771525,3 8,3.44771525 8,4 L8,10 L16,10 Z M9.29289322,6.70710678 C8.90236893,6.31658249 8.90236893,5.68341751 9.29289322,5.29289322 C9.68341751,4.90236893 10.3165825,4.90236893 10.7071068,5.29289322 C11.0976311,5.68341751 11.0976311,6.31658249 10.7071068,6.70710678 C10.3165825,7.09763107 9.68341751,7.09763107 9.29289322,6.70710678 Z M13.2928932,6.70710678 C12.9023689,6.31658249 12.9023689,5.68341751 13.2928932,5.29289322 C13.6834175,4.90236893 14.3165825,4.90236893 14.7071068,5.29289322 C15.0976311,5.68341751 15.0976311,6.31658249 14.7071068,6.70710678 C14.3165825,7.09763107 13.6834175,7.09763107 13.2928932,6.70710678 Z" id="shape"></path>
        </g>
    </g>
</svg>