<?xml version="1.0" encoding="UTF-8"?>
<svg width="24px" height="24px" viewBox="0 0 24 24" version="1.1" xmlns="http://www.w3.org/2000/svg" xmlns:xlink="http://www.w3.org/1999/xlink">
    <!-- Generator: Sketch 44.1 (41455) - http://www.bohemiancoding.com/sketch -->
    <title>Bold/SVG/user-error</title>
    <desc>Created with Sketch.</desc>
    <defs></defs>
    <g id="Bold-Outline" stroke="none" stroke-width="1" fill="none" fill-rule="evenodd">
        <g id="user-error" fill-rule="nonzero" fill="#000000">
            <path d="M19.75,9.58578644 L21.1642136,8.17157288 C21.5547379,7.78104858 22.1879028,7.78104858 22.5784271,8.17157288 C22.9689514,8.56209717 22.9689514,9.19526215 22.5784271,9.58578644 L21.1642136,11 L22.5784271,12.4142136 C22.9689514,12.8047379 22.9689514,13.4379028 22.5784271,13.8284271 C22.1879028,14.2189514 21.5547379,14.2189514 21.1642136,13.8284271 L19.75,12.4142136 L18.3357864,13.8284271 C17.9452621,14.2189514 17.3120972,14.2189514 16.9215729,13.8284271 C16.5310486,13.4379028 16.5310486,12.8047379 16.9215729,12.4142136 L18.3357864,11 L16.9215729,9.58578644 C16.5310486,9.19526215 16.5310486,8.56209717 16.9215729,8.17157288 C17.3120972,7.78104858 17.9452621,7.78104858 18.3357864,8.17157288 L19.75,9.58578644 Z M9,12.5 C6.23857625,12.5 4,10.2614237 4,7.5 C4,4.73857625 6.23857625,2.5 9,2.5 C11.7614237,2.5 14,4.73857625 14,7.5 C14,10.2614237 11.7614237,12.5 9,12.5 Z M9,10.5 C10.6568542,10.5 12,9.15685425 12,7.5 C12,5.84314575 10.6568542,4.5 9,4.5 C7.34314575,4.5 6,5.84314575 6,7.5 C6,9.15685425 7.34314575,10.5 9,10.5 Z M1,19.5 L1,17.5 C1,15.290861 2.790861,13.5 5,13.5 L13,13.5 C15.209139,13.5 17,15.290861 17,17.5 L17,19.5 C17,20.6045695 16.1045695,21.5 15,21.5 L3,21.5 C1.8954305,21.5 1,20.6045695 1,19.5 Z M3,19.5 L15,19.5 L15,17.5 C15,16.3954305 14.1045695,15.5 13,15.5 L5,15.5 C3.8954305,15.5 3,16.3954305 3,17.5 L3,19.5 Z" id="shape"></path>
        </g>
    </g>
</svg>