<?xml version="1.0" encoding="UTF-8"?>
<svg width="24px" height="24px" viewBox="0 0 24 24" version="1.1" xmlns="http://www.w3.org/2000/svg" xmlns:xlink="http://www.w3.org/1999/xlink">
    <!-- Generator: Sketch 44.1 (41455) - http://www.bohemiancoding.com/sketch -->
    <title>Bold/SVG/users</title>
    <desc>Created with Sketch.</desc>
    <defs></defs>
    <g id="Bold-Outline" stroke="none" stroke-width="1" fill="none" fill-rule="evenodd">
        <g id="users" fill-rule="nonzero" fill="#000000">
            <path d="M1.00018816,17.4597826 C1.02054733,15.2846953 2.69058435,13.5 4.78571429,13.5 L12.2142857,13.5 C14.3223145,13.5 16,15.3067382 16,17.5 L16,19.5 C16,20.0522847 15.7761424,20.5522847 15.4142136,20.9142136 C15.0522847,21.2761424 14.5522847,21.5 14,21.5 L3,21.5 C1.8954305,21.5 1,20.6045695 1,19.5 L1,17.5 C1,17.4865792 1.0000661,17.4731738 1.00019798,17.4597842 Z M8.5,12.5 C5.73857625,12.5 3.5,10.2614237 3.5,7.5 C3.5,4.73857625 5.73857625,2.5 8.5,2.5 C11.2614237,2.5 13.5,4.73857625 13.5,7.5 C13.5,10.2614237 11.2614237,12.5 8.5,12.5 Z M8.5,10.5 C10.1568542,10.5 11.5,9.15685425 11.5,7.5 C11.5,5.84314575 10.1568542,4.5 8.5,4.5 C6.84314575,4.5 5.5,5.84314575 5.5,7.5 C5.5,9.15685425 6.84314575,10.5 8.5,10.5 Z M15.8780891,12.4742315 C15.3299238,12.4069019 14.9401294,11.9079447 15.007459,11.3597795 C15.0747885,10.8116142 15.5737457,10.4218198 16.1219109,10.4891494 C16.1806193,10.4963603 16.2400065,10.5 16.3,10.5 C17.214019,10.5 18,9.62668772 18,8.5 C18,7.37331228 17.214019,6.5 16.3,6.5 C16.2400065,6.5 16.1806193,6.50363965 16.1219109,6.51085064 C15.5737457,6.57818019 15.0747885,6.18838581 15.007459,5.64022053 C14.9401294,5.09205525 15.3299238,4.5930981 15.8780891,4.52576855 C16.0176235,4.50862994 16.1584357,4.5 16.3,4.5 C18.3683187,4.5 20,6.31297923 20,8.5 C20,10.6870208 18.3683187,12.5 16.3,12.5 C16.1584357,12.5 16.0176235,12.4913701 15.8780891,12.4742315 Z M18.5001637,15.5 C17.947879,15.5 17.5001637,15.0522847 17.5001637,14.5 C17.5001637,13.9477153 17.947879,13.5 18.5001637,13.5 L19.0001637,13.5 C21.2093027,13.5 23.0001637,15.290861 23.0001637,17.5 L23.0001637,19.5 C23.0001637,20.6045695 22.1047332,21.5 21.0001637,21.5 L19,21.5 C18.4477153,21.5 18,21.0522847 18,20.5 C18,19.9477153 18.4477153,19.5 19,19.5 L21.0001637,19.5 L21.0001637,17.5 C21.0001637,16.3954305 20.1047332,15.5 19.0001637,15.5 L18.5001637,15.5 Z M3,19.5 L14,19.5 L14,17.5 C14,16.3795533 13.183272,15.5 12.2142857,15.5 L4.78571429,15.5 C3.81672802,15.5 3,16.3795533 3,17.5 L3,19.5 Z" id="shape"></path>
        </g>
    </g>
</svg>