<?xml version="1.0" encoding="UTF-8"?>
<svg width="24px" height="24px" viewBox="0 0 24 24" version="1.1" xmlns="http://www.w3.org/2000/svg" xmlns:xlink="http://www.w3.org/1999/xlink">
    <!-- Generator: Sketch 44.1 (41455) - http://www.bohemiancoding.com/sketch -->
    <title>Bold/SVG/user-check</title>
    <desc>Created with Sketch.</desc>
    <defs></defs>
    <g id="Bold-Outline" stroke="none" stroke-width="1" fill="none" fill-rule="evenodd">
        <g id="user-check" fill-rule="nonzero" fill="#000000">
            <path d="M16.8786797,10.5 L18.2928932,11.9142136 L21.1213203,9.08578644 C21.5118446,8.69526215 22.1450096,8.69526215 22.5355339,9.08578644 C22.9260582,9.47631073 22.9260582,10.1094757 22.5355339,10.5 L19,14.0355339 C18.6094757,14.4260582 17.9763107,14.4260582 17.5857864,14.0355339 L15.4644661,11.9142136 C15.0739418,11.5236893 15.0739418,10.8905243 15.4644661,10.5 C15.8549904,10.1094757 16.4881554,10.1094757 16.8786797,10.5 Z M9,12.5 C6.23857625,12.5 4,10.2614237 4,7.5 C4,4.73857625 6.23857625,2.5 9,2.5 C11.7614237,2.5 14,4.73857625 14,7.5 C14,10.2614237 11.7614237,12.5 9,12.5 Z M9,10.5 C10.6568542,10.5 12,9.15685425 12,7.5 C12,5.84314575 10.6568542,4.5 9,4.5 C7.34314575,4.5 6,5.84314575 6,7.5 C6,9.15685425 7.34314575,10.5 9,10.5 Z M1,19.5 L1,17.5 C1,15.290861 2.790861,13.5 5,13.5 L13,13.5 C15.209139,13.5 17,15.290861 17,17.5 L17,19.5 C17,20.6045695 16.1045695,21.5 15,21.5 L3,21.5 C1.8954305,21.5 1,20.6045695 1,19.5 Z M3,19.5 L15,19.5 L15,17.5 C15,16.3954305 14.1045695,15.5 13,15.5 L5,15.5 C3.8954305,15.5 3,16.3954305 3,17.5 L3,19.5 Z" id="shape"></path>
        </g>
    </g>
</svg>