<?xml version="1.0" encoding="UTF-8"?>
<svg width="24px" height="24px" viewBox="0 0 24 24" version="1.1" xmlns="http://www.w3.org/2000/svg" xmlns:xlink="http://www.w3.org/1999/xlink">
    <!-- Generator: Sketch 44.1 (41455) - http://www.bohemiancoding.com/sketch -->
    <title>Bold/SVG/video</title>
    <desc>Created with Sketch.</desc>
    <defs></defs>
    <g id="Bold-Outline" stroke="none" stroke-width="1" fill="none" fill-rule="evenodd">
        <g id="video" fill-rule="nonzero" fill="#000000">
            <path d="M6,2 L18,2 C20.209139,2 22,3.790861 22,6 L22,18 C22,20.209139 20.209139,22 18,22 L6,22 C3.790861,22 2,20.209139 2,18 L2,6 C2,3.790861 3.790861,2 6,2 Z M6,4 C4.8954305,4 4,4.8954305 4,6 L4,18 C4,19.1045695 4.8954305,20 6,20 L18,20 C19.1045695,20 20,19.1045695 20,18 L20,6 C20,4.8954305 19.1045695,4 18,4 L6,4 Z M16.222167,10.3469697 C17.1350708,10.9688061 17.3710275,12.2129588 16.7491911,13.1258626 C16.6080911,13.3330083 16.4293127,13.5117867 16.222167,13.6528867 L11.1259344,17.1242525 C10.2130306,17.7460889 8.96887791,17.5101322 8.34704152,16.5972284 C8.12092901,16.2652779 8,15.8729382 8,15.4712941 L8,8.52856239 C8,7.42399289 8.8954305,6.52856239 10,6.52856239 C10.4016442,6.52856239 10.7939838,6.6494914 11.1259344,6.87560391 L16.222167,10.3469697 Z M10,8.52856239 L10,15.4712941 L15.0962326,11.9999282 L10,8.52856239 Z" id="shape"></path>
        </g>
    </g>
</svg>