<?xml version="1.0" encoding="UTF-8"?>
<svg width="24px" height="24px" viewBox="0 0 24 24" version="1.1" xmlns="http://www.w3.org/2000/svg" xmlns:xlink="http://www.w3.org/1999/xlink">
    <!-- Generator: Sketch 44.1 (41455) - http://www.bohemiancoding.com/sketch -->
    <title>Bold/SVG/volume-up</title>
    <desc>Created with Sketch.</desc>
    <defs></defs>
    <g id="Bold-Outline" stroke="none" stroke-width="1" fill="none" fill-rule="evenodd">
        <g id="volume-up" fill-rule="nonzero" fill="#000000">
            <path d="M9.4814868,3.40167466 C9.86145119,2.95838287 10.4161502,2.70325741 11,2.70325741 C12.1045695,2.70325741 13,3.59868791 13,4.70325741 L13,19.2967426 C13,19.8805924 12.7448745,20.4352914 12.3015827,20.8152558 C11.4629311,21.5341001 10.2003311,21.436977 9.4814868,20.5983253 L5.54006508,16 L5,16 C2.790861,16 1,14.209139 1,12 C1,9.790861 2.790861,8 5,8 L5.54006508,8 L9.4814868,3.40167466 Z M6,10 L5,10 C3.8954305,10 3,10.8954305 3,12 C3,13.1045695 3.8954305,14 5,14 L6,14 C6.29192489,14 6.5692744,14.1275627 6.7592566,14.3492086 L11,19.2967426 L11,4.70325741 L6.7592566,9.65079137 C6.5692744,9.87243727 6.29192489,10 6,10 Z M19.0983574,19.8012293 C18.6558507,20.131693 18.0292344,20.0408642 17.6987707,19.5983574 C17.368307,19.1558507 17.4591358,18.5292344 17.9016426,18.1987707 C19.8362503,16.7540071 21,14.4761733 21,12 C21,9.52382672 19.8362503,7.24599292 17.9016426,5.80122929 C17.4591358,5.47076559 17.368307,4.84414927 17.6987707,4.40164255 C18.0292344,3.95913584 18.6558507,3.86830702 19.0983574,4.19877071 C21.5340307,6.01772976 23,8.88710471 23,12 C23,15.1128953 21.5340307,17.9822702 19.0983574,19.8012293 Z M16.0951282,16.7366791 C15.6512952,17.0653593 15.0250495,16.9720095 14.6963692,16.5281765 C14.367689,16.0843435 14.4610388,15.4580978 14.9048718,15.1294176 C15.9015068,14.3913602 16.5,13.2297195 16.5,11.9665242 C16.5,10.7033288 15.9015068,9.54168813 14.9048718,8.80363076 C14.4610388,8.47495052 14.367689,7.84870479 14.6963692,7.40487178 C15.0250495,6.96103876 15.6512952,6.867689 16.0951282,7.19636924 C17.5957967,8.30768827 18.5,10.0626944 18.5,11.9665242 C18.5,13.8703539 17.5957967,15.62536 16.0951282,16.7366791 Z" id="shape"></path>
        </g>
    </g>
</svg>