<?xml version="1.0" encoding="UTF-8"?>
<svg width="24px" height="24px" viewBox="0 0 24 24" version="1.1" xmlns="http://www.w3.org/2000/svg" xmlns:xlink="http://www.w3.org/1999/xlink">
    <!-- Generator: Sketch 44.1 (41455) - http://www.bohemiancoding.com/sketch -->
    <title>Bold/SVG/volume-down</title>
    <desc>Created with Sketch.</desc>
    <defs></defs>
    <g id="Bold-Outline" stroke="none" stroke-width="1" fill="none" fill-rule="evenodd">
        <g id="volume-down" fill-rule="nonzero" fill="#000000">
            <path d="M7.54006508,8 L11.4814868,3.40167466 C11.8614512,2.95838287 12.4161502,2.70325741 13,2.70325741 C14.1045695,2.70325741 15,3.59868791 15,4.70325741 L15,19.2967426 C15,19.8805924 14.7448745,20.4352914 14.3015827,20.8152558 C13.4629311,21.5341001 12.2003311,21.436977 11.4814868,20.5983253 L7.54006508,16 L7,16 C4.790861,16 3,14.209139 3,12 C3,9.790861 4.790861,8 7,8 L7.54006508,8 Z M8,10 L7,10 C5.8954305,10 5,10.8954305 5,12 C5,13.1045695 5.8954305,14 7,14 L8,14 C8.29192489,14 8.5692744,14.1275627 8.7592566,14.3492086 L13,19.2967426 L13,4.70325741 L8.7592566,9.65079137 C8.5692744,9.87243727 8.29192489,10 8,10 Z M18.0951282,16.7366791 C17.6512952,17.0653593 17.0250495,16.9720095 16.6963692,16.5281765 C16.367689,16.0843435 16.4610388,15.4580978 16.9048718,15.1294176 C17.9015068,14.3913602 18.5,13.2297195 18.5,11.9665242 C18.5,10.7033288 17.9015068,9.54168813 16.9048718,8.80363076 C16.4610388,8.47495052 16.367689,7.84870479 16.6963692,7.40487178 C17.0250495,6.96103876 17.6512952,6.867689 18.0951282,7.19636924 C19.5957967,8.30768827 20.5,10.0626944 20.5,11.9665242 C20.5,13.8703539 19.5957967,15.62536 18.0951282,16.7366791 Z" id="shape"></path>
        </g>
    </g>
</svg>