<?xml version="1.0" encoding="UTF-8"?>
<svg width="24px" height="24px" viewBox="0 0 24 24" version="1.1" xmlns="http://www.w3.org/2000/svg" xmlns:xlink="http://www.w3.org/1999/xlink">
    <!-- Generator: Sketch 44.1 (41455) - http://www.bohemiancoding.com/sketch -->
    <title>Bold/SVG/watch</title>
    <desc>Created with Sketch.</desc>
    <defs></defs>
    <g id="Bold-Outline" stroke="none" stroke-width="1" fill="none" fill-rule="evenodd">
        <g id="watch" fill-rule="nonzero" fill="#000000">
            <path d="M7,18.245371 C5.17107503,16.7792499 4,14.5263846 4,12 C4,9.47361542 5.17107503,7.22075007 7,5.75462905 L7,4 C7,1.790861 8.790861,2.96059473e-16 11,0 L13,0 C15.209139,-4.4408921e-16 17,1.790861 17,4 L17,5.75462905 C18.828925,7.22075007 20,9.47361542 20,12 C20,14.5263846 18.828925,16.7792499 17,18.245371 L17,20 C17,22.209139 15.209139,24 13,24 L11,24 C8.790861,24 7,22.209139 7,20 L7,18.245371 Z M9,19.418483 L9,20 C9,21.1045695 9.8954305,22 11,22 L13,22 C14.1045695,22 15,21.1045695 15,20 L15,19.418483 C14.0735686,19.7934929 13.0609004,20 12,20 C10.9390996,20 9.92643144,19.7934929 9,19.418483 Z M9,4.58151705 C9.92643144,4.20650713 10.9390996,4 12,4 C13.0609004,4 14.0735686,4.20650713 15,4.58151705 L15,4 C15,2.8954305 14.1045695,2 13,2 L11,2 C9.8954305,2 9,2.8954305 9,4 L9,4.58151705 Z M12,18 C15.3137085,18 18,15.3137085 18,12 C18,8.6862915 15.3137085,6 12,6 C8.6862915,6 6,8.6862915 6,12 C6,15.3137085 8.6862915,18 12,18 Z M13,9 L13,11 L14.9997559,11 C15.5520406,11 15.9997559,11.4477153 15.9997559,12 C15.9997559,12.5522847 15.5520406,13 14.9997559,13 L12,13 C11.4477153,13 11,12.5522847 11,12 L11,9 C11,8.44771525 11.4477153,8 12,8 C12.5522847,8 13,8.44771525 13,9 Z" id="shape"></path>
        </g>
    </g>
</svg>