<?xml version="1.0" encoding="UTF-8"?>
<svg width="24px" height="24px" viewBox="0 0 24 24" version="1.1" xmlns="http://www.w3.org/2000/svg" xmlns:xlink="http://www.w3.org/1999/xlink">
    <!-- Generator: Sketch 44.1 (41455) - http://www.bohemiancoding.com/sketch -->
    <title>Bold/SVG/weather-night</title>
    <desc>Created with Sketch.</desc>
    <defs></defs>
    <g id="Bold-Outline" stroke="none" stroke-width="1" fill="none" fill-rule="evenodd">
        <g id="weather-night" fill-rule="nonzero" fill="#000000">
            <path d="M12.1103591,1.00054316 C13.0013141,1.00931643 13.4368089,2.09099192 12.8004841,2.71466539 C11.6557515,3.83663837 11,5.36498609 11,7 C11,10.3137085 13.6862915,13 17,13 C18.6350139,13 20.1633616,12.3442485 21.2853346,11.1995159 C21.9090081,10.5631911 22.9906836,10.9986859 22.9994568,11.8896409 C22.9999093,11.9447813 22.9999093,11.9447813 23,12 C23,18.0751322 18.0751322,23 12,23 C5.92486775,23 1,18.0751322 1,12 C1,5.92486775 5.92486775,1 12,1 C12.0552187,1.00009066 12.0552187,1.00009066 12.1103591,1.00054316 Z M3,12 C3,16.9705627 7.02943725,21 12,21 C16.2611539,21 19.8306507,18.0386638 20.7627445,14.0617372 C19.623366,14.6697236 18.3374477,15 17,15 C12.581722,15 9,11.418278 9,7 C9,5.66255227 9.33027645,4.37663399 9.93826283,3.23725552 C5.96133624,4.16934928 3,7.73884607 3,12 Z" id="shape"></path>
        </g>
    </g>
</svg>