<?xml version="1.0" encoding="UTF-8"?>
<svg width="24px" height="24px" viewBox="0 0 24 24" version="1.1" xmlns="http://www.w3.org/2000/svg" xmlns:xlink="http://www.w3.org/1999/xlink">
    <!-- Generator: Sketch 44.1 (41455) - http://www.bohemiancoding.com/sketch -->
    <title>Bold/SVG/weather-downpour</title>
    <desc>Created with Sketch.</desc>
    <defs></defs>
    <g id="Bold-Outline" stroke="none" stroke-width="1" fill="none" fill-rule="evenodd">
        <g id="weather-downpour" fill-rule="nonzero" fill="#000000">
            <path d="M10.5,1 C14.1150484,1 17.1543752,3.56502707 17.8503868,7.0018349 C17.9001825,7.00061241 17.9500563,7 18,7 C21.3137085,7 24,9.6862915 24,13 C24,15.4647727 22.5227275,17.9625991 20.4099191,18.9121219 C19.9061681,19.138514 19.3142702,18.9136701 19.0878781,18.4099191 C18.861486,17.9061681 19.0863299,17.3142702 19.5900809,17.0878781 C20.9543159,16.4747737 22,14.7066927 22,13 C22,10.790861 20.209139,9 18,9 C17.7247737,9 17.4537222,9.02764812 17.1893791,9.08198275 C16.5930682,9.20455199 16.0265197,8.77035582 15.9898575,8.16268338 C15.8153697,5.27056812 13.4121547,3 10.5,3 C7.46243388,3 5,5.46243388 5,8.5 C5,8.95655297 5.05541426,9.40498353 5.16384832,9.83881386 C5.301864,10.3909964 4.95182052,10.9468618 4.39421081,11.0609901 C3.01051024,11.344198 2,12.5687042 2,14 C2,15.419641 2.96453952,16.7062443 4.24546831,17.0305954 C4.7808557,17.1661638 5.10497302,17.7100809 4.96940462,18.2454683 C4.83383621,18.7808557 4.28991907,19.104973 3.75453169,18.9694046 C1.57132878,18.4165837 0,16.3205816 0,14 C0,11.9518978 1.24035225,10.1589024 3.05272954,9.39318616 C3.01769289,9.09834632 3,8.80023648 3,8.5 C3,4.35786438 6.35786438,1 10.5,1 Z M9.96152395,21.7252789 C10.1132482,22.2563139 9.80575614,22.8097997 9.27472113,22.9615239 C8.74368612,23.1132482 8.19020034,22.8057561 8.03847605,22.2747211 L6.03847605,15.2747211 C5.88675176,14.7436861 6.19424386,14.1902003 6.72527887,14.0384761 C7.25631388,13.8867518 7.80979966,14.1942439 7.96152395,14.7252789 L9.96152395,21.7252789 Z M13.9615239,21.7252789 C14.1132482,22.2563139 13.8057561,22.8097997 13.2747211,22.9615239 C12.7436861,23.1132482 12.1902003,22.8057561 12.0384761,22.2747211 L10.0384761,15.2747211 C9.88675176,14.7436861 10.1942439,14.1902003 10.7252789,14.0384761 C11.2563139,13.8867518 11.8097997,14.1942439 11.9615239,14.7252789 L13.9615239,21.7252789 Z M17.9615239,21.7252789 C18.1132482,22.2563139 17.8057561,22.8097997 17.2747211,22.9615239 C16.7436861,23.1132482 16.1902003,22.8057561 16.0384761,22.2747211 L14.0384761,15.2747211 C13.8867518,14.7436861 14.1942439,14.1902003 14.7252789,14.0384761 C15.2563139,13.8867518 15.8097997,14.1942439 15.9615239,14.7252789 L17.9615239,21.7252789 Z" id="shape"></path>
        </g>
    </g>
</svg>