<?xml version="1.0" encoding="UTF-8"?>
<svg width="24px" height="24px" viewBox="0 0 24 24" version="1.1" xmlns="http://www.w3.org/2000/svg" xmlns:xlink="http://www.w3.org/1999/xlink">
    <!-- Generator: Sketch 44.1 (41455) - http://www.bohemiancoding.com/sketch -->
    <title>Bold/SVG/weather-windy-cloudy</title>
    <desc>Created with Sketch.</desc>
    <defs></defs>
    <g id="Bold-Outline" stroke="none" stroke-width="1" fill="none" fill-rule="evenodd">
        <g id="weather-windy-cloudy" fill-rule="nonzero" fill="#000000">
            <path d="M14.932038,6.87505058 C15.7013568,6.87844216 16.4478355,7.05235658 17.1270062,7.37965786 C17.6245317,7.61942194 17.8334886,8.21711325 17.5937245,8.71463875 C17.3539605,9.21216426 16.7562692,9.42112118 16.2587437,9.1813571 C15.8423028,8.98066876 15.384328,8.875 14.9090909,8.875 C14.695757,8.875 14.4857981,8.89626776 14.2811203,8.93804627 C13.6853485,9.05965429 13.11984,8.62582888 13.0829661,8.01889161 C12.9462847,5.76914591 11.0606906,4 8.77272727,4 C6.38630736,4 4.45454545,5.91834689 4.45454545,8.28125 C4.45454545,8.63628139 4.49791683,8.98481964 4.58277672,9.3219751 C4.72198976,9.87508021 4.37112954,10.4324155 3.81220222,10.5460191 C2.76381383,10.7591071 2,11.6782464 2,12.75 C2,13.8173925 2.73214011,14.7872153 3.69841083,15.0301909 C4.23402161,15.164874 4.55903768,15.7082546 4.42435455,16.2438654 C4.28967142,16.7794762 3.74629085,17.1044922 3.21068008,16.9698091 C1.34266122,16.5000825 0,14.7215384 0,12.75 C0,11.0554506 1.0038045,9.56769426 2.48382146,8.88911604 C2.46435634,8.68799002 2.45454545,8.48519565 2.45454545,8.28125 C2.45454545,4.81064544 5.28484576,2 8.77272727,2 C11.7632805,2 14.2879526,4.07210641 14.932038,6.87505058 Z M17,20 C17.5522847,20 18,19.5522847 18,19 C18,18.4477153 17.5522847,18 17,18 L9,18 C8.44771525,18 8,17.5522847 8,17 C8,16.4477153 8.44771525,16 9,16 L17,16 C18.6568542,16 20,17.3431458 20,19 C20,20.6568542 18.6568542,22 17,22 C16.4477153,22 16,21.5522847 16,21 C16,20.4477153 16.4477153,20 17,20 Z M21,10 C20.4477153,10 20,9.55228475 20,9 C20,8.44771525 20.4477153,8 21,8 C22.6568542,8 24,9.34314575 24,11 C24,12.6568542 22.6568542,14 21,14 L7,14 C6.44771525,14 6,13.5522847 6,13 C6,12.4477153 6.44771525,12 7,12 L21,12 C21.5522847,12 22,11.5522847 22,11 C22,10.4477153 21.5522847,10 21,10 Z" id="shape"></path>
        </g>
    </g>
</svg>