<?xml version="1.0" encoding="UTF-8"?>
<svg width="24px" height="24px" viewBox="0 0 24 24" version="1.1" xmlns="http://www.w3.org/2000/svg" xmlns:xlink="http://www.w3.org/1999/xlink">
    <!-- Generator: Sketch 44.1 (41455) - http://www.bohemiancoding.com/sketch -->
    <title>Bold/SVG/weather-partly-sunny</title>
    <desc>Created with Sketch.</desc>
    <defs></defs>
    <g id="Bold-Outline" stroke="none" stroke-width="1" fill="none" fill-rule="evenodd">
        <g id="weather-partly-sunny" fill-rule="nonzero" fill="#000000">
            <path d="M18,10 C18,7.790861 16.209139,6 14,6 C12.4481036,6 11.0790336,6.89079112 10.4183738,8.2153216 C12.6612695,8.81527916 14.4111108,10.6113456 14.9318714,12.8750498 C15.4693883,12.8774021 15.995857,12.962994 16.496143,13.1261068 C17.4341237,12.376976 18,11.2376605 18,10 Z M8.33617342,8.01476353 C9.16313608,5.65103843 11.4114704,4 14,4 C17.3137085,4 20,6.6862915 20,10 C20,11.5902835 19.3757758,13.0739272 18.3123931,14.1724346 C19.3482869,15.0988891 20,16.4421155 20,17.9375 C20,18.785665 19.7892234,19.6542326 19.4018135,20.443051 C18.8559597,21.5544823 17.9903027,22.4502453 16.9530012,22.9131844 C16.4850488,23.1220276 3.71707615,23.097146 3.21068008,22.9698091 C1.34266122,22.5000825 0,20.7215384 0,18.75 C0,17.0554506 1.0038045,15.5676943 2.48382146,14.889116 C2.46435634,14.68799 2.45454545,14.4851956 2.45454545,14.28125 C2.45454545,10.9566543 5.05171274,8.23765666 8.33617342,8.01476353 Z M15,2 C15,2.55228475 14.5522847,3 14,3 C13.4477153,3 13,2.55228475 13,2 L13,1 C13,0.44771525 13.4477153,0 14,0 C14.5522847,0 15,0.44771525 15,1 L15,2 Z M20.5071055,4.90710707 C20.116581,5.2976311 19.483416,5.29763067 19.092892,4.90710611 C18.7023679,4.51658155 18.7023684,3.88341657 19.0928929,3.49289255 L19.7928937,2.79289274 C20.1834183,2.40236871 20.8165832,2.40236914 21.2071073,2.7928937 C21.5976313,3.18341826 21.5976309,3.81658324 21.2071063,4.20710726 L20.5071055,4.90710707 Z M6.79289322,4.20710678 C6.40236893,3.81658249 6.40236893,3.18341751 6.79289322,2.79289322 C7.18341751,2.40236893 7.81658249,2.40236893 8.20710678,2.79289322 L8.90710659,3.49289303 C9.29763088,3.88341732 9.29763088,4.5165823 8.90710659,4.90710659 C8.5165823,5.29763088 7.88341732,5.29763088 7.49289303,4.90710659 L6.79289322,4.20710678 Z M22,11 C21.4477153,11 21,10.5522847 21,10 C21,9.44771525 21.4477153,9 22,9 L23,9 C23.5522847,9 24,9.44771525 24,10 C24,10.5522847 23.5522847,11 23,11 L22,11 Z M16.1379079,21.0868156 C16.7231152,20.8256424 17.2570988,20.2730879 17.6066329,19.5613896 C17.8621184,19.0411871 18,18.473005 18,17.9375 C18,16.2476939 16.6177068,14.875 14.9090909,14.875 C14.695757,14.875 14.4857981,14.8962678 14.2811203,14.9380463 C13.6853485,15.0596543 13.11984,14.6258289 13.0829661,14.0188916 C12.9462847,11.7691459 11.0606906,10 8.77272727,10 C6.38630736,10 4.45454545,11.9183469 4.45454545,14.28125 C4.45454545,14.6362814 4.49791683,14.9848196 4.58277672,15.3219751 C4.72198976,15.8750802 4.37112954,16.4324155 3.81220222,16.5460191 C2.76381383,16.7591071 2,17.6782464 2,18.75 C2,19.8173925 2.73214011,20.7872153 3.69841083,21.0301909 C3.80985056,21.0582132 16.1481212,21.0822575 16.1379079,21.0868156 Z" id="shape"></path>
        </g>
    </g>
</svg>