<?xml version="1.0" encoding="UTF-8"?>
<svg width="24px" height="24px" viewBox="0 0 24 24" version="1.1" xmlns="http://www.w3.org/2000/svg" xmlns:xlink="http://www.w3.org/1999/xlink">
    <!-- Generator: Sketch 44.1 (41455) - http://www.bohemiancoding.com/sketch -->
    <title>Bold/SVG/wifi-2</title>
    <desc>Created with Sketch.</desc>
    <defs></defs>
    <g id="Bold-Outline" stroke="none" stroke-width="1" fill="none" fill-rule="evenodd">
        <g id="wifi-2" fill-rule="nonzero" fill="#000000">
            <path d="M23.7071068,8.79289322 C24.0976311,9.18341751 24.0976311,9.81658249 23.7071068,10.2071068 C23.3165825,10.5976311 22.6834175,10.5976311 22.2928932,10.2071068 C16.4350288,4.34924241 7.56497116,4.34924241 1.70710678,10.2071068 C1.31658249,10.5976311 0.683417511,10.5976311 0.292893219,10.2071068 C-0.0976310729,9.81658249 -0.0976310729,9.18341751 0.292893219,8.79289322 C6.93180618,2.15398026 17.0681938,2.15398026 23.7071068,8.79289322 Z M19.7071068,11.7928932 C20.0976311,12.1834175 20.0976311,12.8165825 19.7071068,13.2071068 C19.3165825,13.5976311 18.6834175,13.5976311 18.2928932,13.2071068 C14.6361658,9.55037932 9.36383424,9.55037932 5.70710678,13.2071068 C5.31658249,13.5976311 4.68341751,13.5976311 4.29289322,13.2071068 C3.90236893,12.8165825 3.90236893,12.1834175 4.29289322,11.7928932 C8.73066926,7.35511718 15.2693307,7.35511718 19.7071068,11.7928932 Z M16.2071068,14.7928932 C16.5976311,15.1834175 16.5976311,15.8165825 16.2071068,16.2071068 C15.8165825,16.5976311 15.1834175,16.5976311 14.7928932,16.2071068 C13.1597916,14.5740052 10.8402084,14.5740052 9.20710678,16.2071068 C8.81658249,16.5976311 8.18341751,16.5976311 7.79289322,16.2071068 C7.40236893,15.8165825 7.40236893,15.1834175 7.79289322,14.7928932 C10.2070434,12.3787431 13.7929566,12.3787431 16.2071068,14.7928932 Z M12,20.5 C11.1715729,20.5 10.5,19.8284271 10.5,19 C10.5,18.1715729 11.1715729,17.5 12,17.5 C12.8284271,17.5 13.5,18.1715729 13.5,19 C13.5,19.8284271 12.8284271,20.5 12,20.5 Z" id="shape"></path>
        </g>
    </g>
</svg>