<?xml version="1.0" encoding="UTF-8"?>
<svg width="24px" height="24px" viewBox="0 0 24 24" version="1.1" xmlns="http://www.w3.org/2000/svg" xmlns:xlink="http://www.w3.org/1999/xlink">
    <!-- Generator: Sketch 44.1 (41455) - http://www.bohemiancoding.com/sketch -->
    <title>Bold/SVG/wifi</title>
    <desc>Created with Sketch.</desc>
    <defs></defs>
    <g id="Bold-Outline" stroke="none" stroke-width="1" fill="none" fill-rule="evenodd">
        <g id="wifi" fill-rule="nonzero" fill="#000000">
            <path d="M16.9541361,14.1318545 L18.551621,12.5343075 C14.7655082,9.41964503 9.23459374,9.41962365 5.44845698,12.5342434 L7.04597928,14.1317657 C9.91614649,11.9245473 14.0840037,11.9245769 16.9541361,14.1318545 Z M15.5234895,15.5625566 C13.4501242,14.1143489 10.5500693,14.1143133 8.47666339,15.5624498 L12.0001982,19.0859847 L15.5234895,15.5625566 Z M19.9714637,11.1144097 L21.5640168,9.52179483 C15.9665582,4.57768365 8.03345888,4.57767972 2.4359966,9.52178304 L4.02858331,11.1143698 C8.60348076,7.22625626 15.3965815,7.22626958 19.9714637,11.1144097 Z M23.7071068,8.79289322 C24.0976263,9.18341275 24.0976318,9.81656832 23.707119,10.2070946 L13.4143797,20.500189 C12.6333241,21.2812445 11.3669783,21.2812375 10.585964,20.5001776 L0.292893219,10.2071068 C-0.0976310729,9.81658249 -0.0976310729,9.18341751 0.292893219,8.79289322 C6.93180618,2.15398026 17.0681938,2.15398026 23.7071068,8.79289322 Z" id="shape"></path>
        </g>
    </g>
</svg>