<?xml version="1.0" encoding="UTF-8"?>
<svg width="24px" height="24px" viewBox="0 0 24 24" version="1.1" xmlns="http://www.w3.org/2000/svg" xmlns:xlink="http://www.w3.org/1999/xlink">
    <!-- Generator: Sketch 44.1 (41455) - http://www.bohemiancoding.com/sketch -->
    <title>Bold/SVG/zoom-in</title>
    <desc>Created with Sketch.</desc>
    <defs></defs>
    <g id="Bold-Outline" stroke="none" stroke-width="1" fill="none" fill-rule="evenodd">
        <g id="zoom-in" fill-rule="nonzero" fill="#000000">
            <path d="M17.8133072,16.3990936 L22.4105339,20.9963203 C22.8010582,21.3868446 22.8010582,22.0200096 22.4105339,22.4105339 C22.0200096,22.8010582 21.3868446,22.8010582 20.9963203,22.4105339 L16.3990936,17.8133072 C14.8594228,19.044935 12.9064215,19.7814078 10.7814078,19.7814078 C5.81084508,19.7814078 1.78140783,15.7519706 1.78140783,10.7814078 C1.78140783,5.81084508 5.81084508,1.78140783 10.7814078,1.78140783 C15.7519706,1.78140783 19.7814078,5.81084508 19.7814078,10.7814078 C19.7814078,12.9064215 19.044935,14.8594228 17.8133072,16.3990936 L17.8133072,16.3990936 Z M10.7814078,17.7814078 C14.6474011,17.7814078 17.7814078,14.6474011 17.7814078,10.7814078 C17.7814078,6.91541458 14.6474011,3.78140783 10.7814078,3.78140783 C6.91541458,3.78140783 3.78140783,6.91541458 3.78140783,10.7814078 C3.78140783,14.6474011 6.91541458,17.7814078 10.7814078,17.7814078 Z M11.7814078,9.78140783 L14.2814078,9.78140783 C14.8336926,9.78140783 15.2814078,10.2291231 15.2814078,10.7814078 C15.2814078,11.3336926 14.8336926,11.7814078 14.2814078,11.7814078 L11.7814078,11.7814078 L11.7814078,14.2814078 C11.7814078,14.8336926 11.3336926,15.2814078 10.7814078,15.2814078 C10.2291231,15.2814078 9.78140783,14.8336926 9.78140783,14.2814078 L9.78140783,11.7814078 L7.28140783,11.7814078 C6.72912308,11.7814078 6.28140783,11.3336926 6.28140783,10.7814078 C6.28140783,10.2291231 6.72912308,9.78140783 7.28140783,9.78140783 L9.78140783,9.78140783 L9.78140783,7.28140783 C9.78140783,6.72912308 10.2291231,6.28140783 10.7814078,6.28140783 C11.3336926,6.28140783 11.7814078,6.72912308 11.7814078,7.28140783 L11.7814078,9.78140783 Z" id="shape"></path>
        </g>
    </g>
</svg>