<?xml version="1.0" encoding="UTF-8"?>
<svg width="24px" height="24px" viewBox="0 0 24 24" version="1.1" xmlns="http://www.w3.org/2000/svg" xmlns:xlink="http://www.w3.org/1999/xlink">
    <!-- Generator: Sketch 44.1 (41455) - http://www.bohemiancoding.com/sketch -->
    <title>Bold/SVG/activity</title>
    <desc>Created with Sketch.</desc>
    <defs></defs>
    <g id="Bold-Outline" stroke="none" stroke-width="1" fill="none" fill-rule="evenodd">
        <g id="activity" fill-rule="nonzero" fill="#000000">
            <path d="M1,13 L3.49139717,13 C4.83083825,13 6.00799625,12.1120681 6.37596902,10.8241634 L7.96152395,5.27472113 C8.0856109,4.84041678 8.53827649,4.5889359 8.97258084,4.71302285 C9.26315876,4.79604512 9.48427151,5.03254075 9.54759238,5.32803811 L12.4968028,19.0910201 C12.822883,20.6127278 14.3208112,21.5819755 15.842519,21.2558952 C16.8606407,21.0377263 17.6754748,20.2758931 17.9615239,19.2747211 L19.5470789,13.7252789 C19.6697365,13.2959773 20.0621225,13 20.5086028,13 L23,13 C23.5522847,13 24,12.5522847 24,12 C24,11.4477153 23.5522847,11 23,11 L20.5086028,11 C19.1691617,11 17.9920037,11.8879319 17.624031,13.1758366 L16.0384761,18.7252789 C15.9554538,19.0158568 15.7189582,19.2369695 15.4234608,19.3002904 C14.9818037,19.3949312 14.5470484,19.1136189 14.4524076,18.6719619 L11.5031972,4.90897994 C11.2850283,3.89085822 10.5231951,3.07602411 9.5220231,2.78997496 C8.02564872,2.36243942 6.46601159,3.2289045 6.03847605,4.72527887 L4.45292112,10.2747211 C4.33026353,10.7040227 3.93787753,11 3.49139717,11 L1,11 C0.44771525,11 0,11.4477153 0,12 C0,12.5522847 0.44771525,13 1,13 Z" id="shape"></path>
        </g>
    </g>
</svg>