<?xml version="1.0" encoding="UTF-8"?>
<svg width="24px" height="24px" viewBox="0 0 24 24" version="1.1" xmlns="http://www.w3.org/2000/svg" xmlns:xlink="http://www.w3.org/1999/xlink">
    <!-- Generator: Sketch 44.1 (41455) - http://www.bohemiancoding.com/sketch -->
    <title>Bold/SVG/airplane-takeoff</title>
    <desc>Created with Sketch.</desc>
    <defs></defs>
    <g id="Bold-Outline" stroke="none" stroke-width="1" fill="none" fill-rule="evenodd">
        <g id="airplane-takeoff" fill-rule="nonzero" fill="#000000">
            <path d="M10.2592861,10.8567124 C10.7032372,11.4209021 10.4256861,12.2552171 9.73223305,12.4410273 L4.90260392,13.7351225 C4.64642446,13.8037656 4.37346909,13.7678304 4.14378487,13.6352221 L2.56032053,12.7210085 L3.48839035,16.1846123 L20.8750552,11.5258695 C21.4085213,11.3829276 21.7251038,10.8345907 21.582162,10.3011246 C21.4392202,9.76765848 20.8908832,9.451076 20.3574171,9.59401781 L14.5618622,11.1469321 C14.2499154,11.230518 13.9168045,11.1583072 13.6674725,10.953049 L8.218031,6.4668915 C7.73504234,6.06927953 7.09486478,5.92129614 6.48820653,6.06428249 L10.2592861,10.8567124 Z M14.5413068,9.08188751 L19.839779,7.66216615 C21.4401774,7.23334072 23.0851882,8.18308819 23.5140137,9.7834865 C23.9428391,11.3838848 22.9930916,13.0288957 21.3926933,13.4577211 L4.00602844,18.1164639 C2.93909624,18.4023475 1.84242232,17.7691826 1.5565387,16.7022504 L0.628468879,13.2386466 C0.342585256,12.1717144 0.975750235,11.0750405 2.04268244,10.7891569 C2.55504136,10.6518707 3.1009521,10.7237412 3.56032053,10.9889577 L4.7850654,11.6960645 L7.74973076,10.9016848 L3.9780311,6.10846689 C3.53408004,5.54427716 3.81163108,4.70996219 4.50508416,4.524152 L5.91161349,4.1472736 C7.15940074,3.81293002 8.49184415,4.10177311 9.48917232,4.9228061 L14.5413068,9.08188751 Z M3,22 C2.44771525,22 2,21.5522847 2,21 C2,20.4477153 2.44771525,20 3,20 L21,20 C21.5522847,20 22,20.4477153 22,21 C22,21.5522847 21.5522847,22 21,22 L3,22 Z" id="shape"></path>
        </g>
    </g>
</svg>