<?xml version="1.0" encoding="UTF-8"?>
<svg width="24px" height="24px" viewBox="0 0 24 24" version="1.1" xmlns="http://www.w3.org/2000/svg" xmlns:xlink="http://www.w3.org/1999/xlink">
    <!-- Generator: Sketch 44.1 (41455) - http://www.bohemiancoding.com/sketch -->
    <title>Bold/SVG/alert</title>
    <desc>Created with Sketch.</desc>
    <defs></defs>
    <g id="Bold-Outline" stroke="none" stroke-width="1" fill="none" fill-rule="evenodd">
        <g id="alert" fill-rule="nonzero" fill="#000000">
            <path d="M14.6286477,3.70432092 L22.2461053,17.5542438 C23.0445744,19.0060058 22.5149759,20.8301786 21.0632138,21.6286477 C20.6202789,21.8722619 20.1229665,22 19.6174576,22 L4.38254244,22 C2.72568819,22 1.38254244,20.6568542 1.38254244,19 C1.38254244,18.4944911 1.5102805,17.9971787 1.75389472,17.5542438 L9.37135227,3.70432092 C10.1698214,2.25255887 11.9939942,1.72296031 13.4457562,2.52142944 C13.9442354,2.79559297 14.3544842,3.20584177 14.6286477,3.70432092 Z M12.8762159,4.66815842 C12.7848281,4.5019987 12.6480785,4.3652491 12.4819187,4.27386126 C11.9979981,4.00770488 11.3899405,4.18423773 11.1237841,4.66815842 L3.50632653,18.5180813 C3.42512179,18.6657262 3.38254244,18.831497 3.38254244,19 C3.38254244,19.5522847 3.83025769,20 4.38254244,20 L19.6174576,20 C19.7859605,20 19.9517313,19.9574206 20.0993763,19.8762159 C20.583297,19.6100595 20.7598298,19.0020019 20.4936735,18.5180813 L12.8762159,4.66815842 Z M11,9.25 C11,8.69771525 11.4477153,8.25 12,8.25 C12.5522847,8.25 13,8.69771525 13,9.25 L13,13.75 C13,14.3022847 12.5522847,14.75 12,14.75 C11.4477153,14.75 11,14.3022847 11,13.75 L11,9.25 Z M11,17.5 C11,16.9477153 11.4477153,16.5 12,16.5 C12.5522847,16.5 13,16.9477153 13,17.5 C13,18.0522847 12.5522847,18.5 12,18.5 C11.4477153,18.5 11,18.0522847 11,17.5 Z" id="shape"></path>
        </g>
    </g>
</svg>