<?xml version="1.0" encoding="UTF-8"?>
<svg width="24px" height="24px" viewBox="0 0 24 24" version="1.1" xmlns="http://www.w3.org/2000/svg" xmlns:xlink="http://www.w3.org/1999/xlink">
    <!-- Generator: Sketch 44.1 (41455) - http://www.bohemiancoding.com/sketch -->
    <title>Bold/SVG/angle</title>
    <desc>Created with Sketch.</desc>
    <defs></defs>
    <g id="Bold-Outline" stroke="none" stroke-width="1" fill="none" fill-rule="evenodd">
        <g id="angle" fill-rule="nonzero" fill="#000000">
            <path d="M19.109779,9.45552886 C18.8581973,8.96387336 19.0528157,8.36136062 19.5444711,8.10977898 C20.0361266,7.85819734 20.6386394,8.05281565 20.890221,8.54447114 C21.6244528,9.9793496 22,11.4298656 22,13 C22,18.5228475 17.5228475,23 12,23 C6.4771525,23 2,18.5228475 2,13 C2,11.3980743 2.3663808,9.97480233 3.1126825,8.53884096 C3.36737361,8.04878904 3.97110712,7.8579914 4.46115904,8.1126825 C4.95121096,8.36737361 5.1420086,8.97110712 4.8873175,9.46115904 C4.28539597,10.6193181 4,11.7279899 4,13 C4,17.418278 7.581722,21 12,21 C16.418278,21 20,17.418278 20,13 C20,11.7589687 19.7045732,10.6179104 19.109779,9.45552886 Z M6,13 C6,12.4477153 6.44771525,12 7,12 L17,12 C17.5522847,12 18,12.4477153 18,13 C18,16.3137085 15.3137085,19 12,19 C8.6862915,19 6,16.3137085 6,13 Z M12,17 C13.8638394,17 15.4299397,15.7252272 15.8739825,14 L8.12601749,14 C8.57006028,15.7252272 10.1361606,17 12,17 Z M8,11 C7.44771525,11 7,10.5522847 7,10 C7,9.44771525 7.44771525,9 8,9 C8.55228475,9 9,9.44771525 9,10 C9,10.5522847 8.55228475,11 8,11 Z M16,11 C15.4477153,11 15,10.5522847 15,10 C15,9.44771525 15.4477153,9 16,9 C16.5522847,9 17,9.44771525 17,10 C17,10.5522847 16.5522847,11 16,11 Z M12,8 C7.60305509,8 4,6.71319461 4,4.5 C4,2.28680539 7.60305509,1 12,1 C16.3969449,1 20,2.28680539 20,4.5 C20,6.71319461 16.3969449,8 12,8 Z M12,6 C15.3350416,6 18,5.04822914 18,4.5 C18,3.95177086 15.3350416,3 12,3 C8.66495842,3 6,3.95177086 6,4.5 C6,5.04822914 8.66495842,6 12,6 Z" id="shape"></path>
        </g>
    </g>
</svg>