<?xml version="1.0" encoding="UTF-8"?>
<svg width="24px" height="24px" viewBox="0 0 24 24" version="1.1" xmlns="http://www.w3.org/2000/svg" xmlns:xlink="http://www.w3.org/1999/xlink">
    <!-- Generator: Sketch 44.1 (41455) - http://www.bohemiancoding.com/sketch -->
    <title>Bold/SVG/arrow-outline-down</title>
    <desc>Created with Sketch.</desc>
    <defs></defs>
    <g id="Bold-Outline" stroke="none" stroke-width="1" fill="none" fill-rule="evenodd">
        <g id="arrow-outline-down" fill-rule="nonzero" fill="#000000">
            <path d="M10.6996453,5.78030796 L3.30042634,11.6996822 L10.6996453,17.6190583 L10.6996453,14.1996833 C10.6996453,13.6473986 11.1473605,13.1996833 11.6996453,13.1996833 L19.1996453,13.1996833 C20.0280724,13.1996833 20.6996453,12.5281104 20.6996453,11.6996833 C20.6996453,10.8712562 20.0280724,10.1996833 19.1996453,10.1996833 L11.6996453,10.1996833 C11.1473605,10.1996833 10.6996453,9.75196806 10.6996453,9.19968331 L10.6996453,5.78030796 Z M12.6996453,17.6190583 C12.6996453,18.7236278 11.8042148,19.6190583 10.6996453,19.6190583 C10.2455022,19.6190583 9.80488119,19.4644967 9.45025507,19.1807958 L2.05103613,13.2614198 C1.18851231,12.5714006 1.04866966,11.3128158 1.73868882,10.450292 C1.83095235,10.3349626 1.93570695,10.230208 2.05103636,10.1379445 L9.4502553,4.21857025 C10.3127792,3.52855122 11.571364,3.66839406 12.261383,4.53091798 C12.5450838,4.88554406 12.6996453,5.32616502 12.6996453,5.78030796 L12.6996453,8.19968331 L19.1996453,8.19968331 C21.1326419,8.19968331 22.6996453,9.76668669 22.6996453,11.6996833 C22.6996453,13.6326799 21.1326419,15.1996833 19.1996453,15.1996833 L12.6996453,15.1996833 L12.6996453,17.6190583 Z" id="shape" transform="translate(11.999999, 11.699646) rotate(-90.000000) translate(-11.999999, -11.699646) "></path>
        </g>
    </g>
</svg>