<?xml version="1.0" encoding="UTF-8"?>
<svg width="24px" height="24px" viewBox="0 0 24 24" version="1.1" xmlns="http://www.w3.org/2000/svg" xmlns:xlink="http://www.w3.org/1999/xlink">
    <!-- Generator: Sketch 44.1 (41455) - http://www.bohemiancoding.com/sketch -->
    <title>Bold/SVG/arrow-down</title>
    <desc>Created with Sketch.</desc>
    <defs></defs>
    <g id="Bold-Outline" stroke="none" stroke-width="1" fill="none" fill-rule="evenodd">
        <g id="arrow-down" fill-rule="nonzero" fill="#000000">
            <path d="M11,17.5355339 L11,4 C11,3.44771525 11.4477153,3 12,3 C12.5522847,3 13,3.44771525 13,4 L13,17.4350288 L16.1923882,14.2426407 C16.5829124,13.8521164 17.2160774,13.8521164 17.6066017,14.2426407 C17.997126,14.633165 17.997126,15.26633 17.6066017,15.6568542 L13.363961,19.8994949 C12.5829124,20.6805435 11.3165825,20.6805435 10.5355339,19.8994949 L6.29289322,15.6568542 C5.90236893,15.26633 5.90236893,14.633165 6.29289322,14.2426407 C6.68341751,13.8521164 7.31658249,13.8521164 7.70710678,14.2426407 L11,17.5355339 L11,17.5355339 Z" id="shape"></path>
        </g>
    </g>
</svg>