<?xml version="1.0" encoding="UTF-8"?>
<svg width="24px" height="24px" viewBox="0 0 24 24" version="1.1" xmlns="http://www.w3.org/2000/svg" xmlns:xlink="http://www.w3.org/1999/xlink">
    <!-- Generator: Sketch 44.1 (41455) - http://www.bohemiancoding.com/sketch -->
    <title>Bold/SVG/artboard</title>
    <desc>Created with Sketch.</desc>
    <defs></defs>
    <g id="Bold-Outline" stroke="none" stroke-width="1" fill="none" fill-rule="evenodd">
        <g id="artboard" fill-rule="nonzero" fill="#000000">
            <path d="M11.992034,17 C11.9977676,16.9999509 12.0035024,16.9999509 12.009238,17 L20,17 L20,7 C20,5.8954305 19.1045695,5 18,5 L6,5 C4.8954305,5 4,5.8954305 4,7 L4,17 L11.992034,17 Z M14.8507811,19 L17.624695,21.2191312 C18.055957,21.5641407 18.1258784,22.1934331 17.7808688,22.624695 C17.4358593,23.055957 16.8065669,23.1258784 16.375305,22.7808688 L12,19.2806248 L7.62469505,22.7808688 C7.19343311,23.1258784 6.56414074,23.055957 6.21913119,22.624695 C5.87412164,22.1934331 5.94404302,21.5641407 6.37530495,21.2191312 L9.14921894,19 L2,19 C1.44771525,19 1,18.5522847 1,18 C1,17.4477153 1.44771525,17 2,17 L2,7 C2,4.790861 3.790861,3 6,3 L11,3 L11,2 C11,1.44771525 11.4477153,1 12,1 C12.5522847,1 13,1.44771525 13,2 L13,3 L18,3 C20.209139,3 22,4.790861 22,7 L22,17 C22.5522847,17 23,17.4477153 23,18 C23,18.5522847 22.5522847,19 22,19 L14.8507811,19 Z" id="shape"></path>
        </g>
    </g>
</svg>