<?xml version="1.0" encoding="UTF-8"?>
<svg width="24px" height="24px" viewBox="0 0 24 24" version="1.1" xmlns="http://www.w3.org/2000/svg" xmlns:xlink="http://www.w3.org/1999/xlink">
    <!-- Generator: Sketch 44.1 (41455) - http://www.bohemiancoding.com/sketch -->
    <title>Bold/SVG/attachment</title>
    <desc>Created with Sketch.</desc>
    <defs></defs>
    <g id="Bold-Outline" stroke="none" stroke-width="1" fill="none" fill-rule="evenodd">
        <g id="attachment" fill-rule="nonzero" fill="#000000">
            <path d="M17,8 L17,17 C17,19.4852814 14.9852814,21.5 12.5,21.5 C10.0147186,21.5 8,19.4852814 8,17 L8,5.25 C8,3.73121694 9.23121694,2.5 10.75,2.5 C12.2687831,2.5 13.5,3.73121694 13.5,5.25 L13.5,17 C13.5,17.5522847 13.0522847,18 12.5,18 C11.9477153,18 11.5,17.5522847 11.5,17 L11.5,8.01464789 C11.5,7.46236314 11.0522847,7.01464789 10.5,7.01464789 C9.94771525,7.01464789 9.5,7.46236314 9.5,8.01464789 L9.5,17 C9.5,18.6568542 10.8431458,20 12.5,20 C14.1568542,20 15.5,18.6568542 15.5,17 L15.5,5.25 C15.5,2.62664744 13.3733526,0.5 10.75,0.5 C8.12664744,0.5 6,2.62664744 6,5.25 L6,17 C6,20.5898509 8.91014913,23.5 12.5,23.5 C16.0898509,23.5 19,20.5898509 19,17 L19,8 C19,7.44771525 18.5522847,7 18,7 C17.4477153,7 17,7.44771525 17,8 Z" id="shape" transform="translate(12.500000, 12.000000) rotate(-315.000000) translate(-12.500000, -12.000000) "></path>
        </g>
    </g>
</svg>