<?xml version="1.0" encoding="UTF-8"?>
<svg width="24px" height="24px" viewBox="0 0 24 24" version="1.1" xmlns="http://www.w3.org/2000/svg" xmlns:xlink="http://www.w3.org/1999/xlink">
    <!-- Generator: Sketch 44.1 (41455) - http://www.bohemiancoding.com/sketch -->
    <title>Bold/SVG/award</title>
    <desc>Created with Sketch.</desc>
    <defs></defs>
    <g id="Bold-Outline" stroke="none" stroke-width="1" fill="none" fill-rule="evenodd">
        <g id="award" fill-rule="nonzero" fill="#000000">
            <path d="M17.0387294,12.8591467 L17.8077887,20.9342701 C17.912512,22.033864 17.1060099,23.010156 16.006416,23.1148792 C15.5811606,23.1553797 15.1541098,23.0586562 14.7878063,22.8388741 L12,21.1661904 L9.21219373,22.8388741 C8.26503319,23.4071705 7.03651268,23.1000403 6.46821636,22.1528798 C6.24843428,21.7865763 6.15171076,21.3595255 6.19221127,20.9342701 L6.96127064,12.8591467 C5.74691278,11.6001938 5,9.8873223 5,8 C5,4.13400675 8.13400675,1 12,1 C15.8659932,1 19,4.13400675 19,8 C19,9.8873223 18.2530872,11.6001938 17.0387294,12.8591467 Z M8.83815328,14.2469021 L8.18320222,21.1238883 L10.9710085,19.4512045 C11.6043733,19.0711857 12.3956267,19.0711857 13.0289915,19.4512045 L15.8167978,21.1238883 L15.1618467,14.2469021 C14.2121142,14.7285585 13.1377564,15 12,15 C10.8622436,15 9.78788578,14.7285585 8.83815328,14.2469021 Z M12,13 C14.7614237,13 17,10.7614237 17,8 C17,5.23857625 14.7614237,3 12,3 C9.23857625,3 7,5.23857625 7,8 C7,10.7614237 9.23857625,13 12,13 Z" id="shape"></path>
        </g>
    </g>
</svg>