<?xml version="1.0" encoding="UTF-8"?>
<svg width="24px" height="24px" viewBox="0 0 24 24" version="1.1" xmlns="http://www.w3.org/2000/svg" xmlns:xlink="http://www.w3.org/1999/xlink">
    <!-- Generator: Sketch 44.1 (41455) - http://www.bohemiancoding.com/sketch -->
    <title>Bold/SVG/bar-chart</title>
    <desc>Created with Sketch.</desc>
    <defs></defs>
    <g id="Bold-Outline" stroke="none" stroke-width="1" fill="none" fill-rule="evenodd">
        <g id="bar-chart" fill-rule="nonzero" fill="#000000">
            <path d="M18,6.5 C18,5.94771525 18.4477153,5.5 19,5.5 C19.5522847,5.5 20,5.94771525 20,6.5 L20,16.5 C20,17.0522847 19.5522847,17.5 19,17.5 C18.4477153,17.5 18,17.0522847 18,16.5 L18,6.5 Z M14,12.5 C14,11.9477153 14.4477153,11.5 15,11.5 C15.5522847,11.5 16,11.9477153 16,12.5 L16,16.5 C16,17.0522847 15.5522847,17.5 15,17.5 C14.4477153,17.5 14,17.0522847 14,16.5 L14,12.5 Z M6,9.5 C6,8.94771525 6.44771525,8.5 7,8.5 C7.55228475,8.5 8,8.94771525 8,9.5 L8,16.5 C8,17.0522847 7.55228475,17.5 7,17.5 C6.44771525,17.5 6,17.0522847 6,16.5 L6,9.5 Z M10,4.5 C10,3.94771525 10.4477153,3.5 11,3.5 C11.5522847,3.5 12,3.94771525 12,4.5 L12,16.5 C12,17.0522847 11.5522847,17.5 11,17.5 C10.4477153,17.5 10,17.0522847 10,16.5 L10,4.5 Z M4,3.5 L4,19.5 L21.5,19.5 C22.0522847,19.5 22.5,19.9477153 22.5,20.5 C22.5,21.0522847 22.0522847,21.5 21.5,21.5 L3,21.5 C2.44771525,21.5 2,21.0522847 2,20.5 L2,3.5 C2,2.94771525 2.44771525,2.5 3,2.5 C3.55228475,2.5 4,2.94771525 4,3.5 Z" id="shape"></path>
        </g>
    </g>
</svg>