<?xml version="1.0" encoding="UTF-8"?>
<svg width="24px" height="24px" viewBox="0 0 24 24" version="1.1" xmlns="http://www.w3.org/2000/svg" xmlns:xlink="http://www.w3.org/1999/xlink">
    <!-- Generator: Sketch 44.1 (41455) - http://www.bohemiancoding.com/sketch -->
    <title>Bold/SVG/bear</title>
    <desc>Created with Sketch.</desc>
    <defs></defs>
    <g id="Bold-Outline" stroke="none" stroke-width="1" fill="none" fill-rule="evenodd">
        <g id="bear" fill-rule="nonzero" fill="#000000">
            <path d="M9.55009198,12.0004084 C8.90206127,12.6356379 8.5,13.5208657 8.5,14.5 C8.5,16.4329966 10.0670034,18 12,18 C13.9329966,18 15.5,16.4329966 15.5,14.5 C15.5,13.5208657 15.0979387,12.6356379 14.449908,12.0004084 C14.2181151,13.1413251 13.2093347,14 12,14 C10.7906653,14 9.78188492,13.1413251 9.55009198,12.0004084 Z M21.0957885,7.75086704 C21.9888713,9.29508126 22.5,11.0878504 22.5,13 C22.5,18.7989899 17.7989899,23.5 12,23.5 C6.20101013,23.5 1.5,18.7989899 1.5,13 C1.5,11.0884935 2.01078487,9.2962873 2.9033105,7.75242535 C1.80010659,7.02938556 1.16183368,5.71386248 1.35541142,4.33648525 C1.62443256,2.42230041 3.39427068,1.08863173 5.30845552,1.35765286 C6.49864176,1.52492263 7.47820212,2.2784159 7.97305816,3.29992955 C9.21315116,2.78452632 10.5733482,2.5 12,2.5 C13.4255914,2.5 14.784827,2.78410354 16.0241767,3.29878077 C16.5473258,2.21946797 17.609191,1.44731914 18.8704013,1.33697754 C20.7960423,1.16850578 22.4936561,2.59297289 22.6621278,4.51861388 C22.7776396,5.8389198 22.1418495,7.0636143 21.0957885,7.75086704 Z M19.9319385,6.11975658 C20.4190173,5.83503193 20.7216504,5.28628179 20.6697385,4.69292537 C20.5975363,3.86765066 19.8699875,3.25716475 19.0447128,3.32936693 C18.4769824,3.37903691 18.0030742,3.74218729 17.7924556,4.24091585 C18.5883185,4.76828489 19.3081358,5.40122153 19.9319385,6.11975658 Z M4.06700298,6.12097601 C4.69038433,5.40270444 5.40969538,4.76993418 6.20499697,4.2426044 C6.00548308,3.7689841 5.56776009,3.41375089 5.03010932,3.338189 C4.20974439,3.22289423 3.45124233,3.79446652 3.33594756,4.61483145 C3.24909125,5.2328462 3.55350737,5.82232774 4.06700298,6.12097601 Z M12,21.5 C16.6944204,21.5 20.5,17.6944204 20.5,13 C20.5,8.30557963 16.6944204,4.5 12,4.5 C7.30557963,4.5 3.5,8.30557963 3.5,13 C3.5,17.6944204 7.30557963,21.5 12,21.5 Z M12,20 C8.96243388,20 6.5,17.5375661 6.5,14.5 C6.5,11.4624339 8.96243388,9 12,9 C15.0375661,9 17.5,11.4624339 17.5,14.5 C17.5,17.5375661 15.0375661,20 12,20 Z M12,12 C12.2761424,12 12.5,11.7761424 12.5,11.5 C12.5,11.2238576 12.2761424,11 12,11 C11.7238576,11 11.5,11.2238576 11.5,11.5 C11.5,11.7761424 11.7238576,12 12,12 Z M8.5,9 C7.94771525,9 7.5,8.55228475 7.5,8 C7.5,7.44771525 7.94771525,7 8.5,7 C9.05228475,7 9.5,7.44771525 9.5,8 C9.5,8.55228475 9.05228475,9 8.5,9 Z M15.5,9 C14.9477153,9 14.5,8.55228475 14.5,8 C14.5,7.44771525 14.9477153,7 15.5,7 C16.0522847,7 16.5,7.44771525 16.5,8 C16.5,8.55228475 16.0522847,9 15.5,9 Z" id="shape"></path>
        </g>
    </g>
</svg>