<?xml version="1.0" encoding="UTF-8"?>
<svg width="24px" height="24px" viewBox="0 0 24 24" version="1.1" xmlns="http://www.w3.org/2000/svg" xmlns:xlink="http://www.w3.org/1999/xlink">
    <!-- Generator: Sketch 44.1 (41455) - http://www.bohemiancoding.com/sketch -->
    <title>Bold/SVG/bicycle</title>
    <desc>Created with Sketch.</desc>
    <defs></defs>
    <g id="Bold-Outline" stroke="none" stroke-width="1" fill="none" fill-rule="evenodd">
        <g id="bicycle" fill-rule="nonzero" fill="#000000">
            <path d="M18.9894284,8.84812227 L19.6201183,12.0015721 C22.0498747,12.0652424 24,14.0548831 24,16.5 C24,18.9852814 21.9852814,21 19.5,21 C17.0147186,21 15,18.9852814 15,16.5 C15,14.6707236 16.0914954,13.0963797 17.6587392,12.3927153 L17.4402818,11.3004288 L12.7808688,17.124695 C12.5910966,17.3619103 12.3037837,17.5 12,17.5 L8.88849179,17.5 C8.43376262,19.5039887 6.64158739,21 4.5,21 C2.01471863,21 0,18.9852814 0,16.5 C0,14.0147186 2.01471863,12 4.5,12 C5.13569631,12 5.74060574,12.1318143 6.28888702,12.3696018 L8.63618763,9.1687373 L8.26711269,8 L7,8 C6.44771525,8 6,7.55228475 6,7 C6,6.44771525 6.44771525,6 7,6 L9,6 C9.43627985,6 9.82220512,6.28283973 9.95358267,6.69886863 L10.3644663,8 L16.7801961,8 L16.3409729,5.80388386 C16.247488,5.33645967 15.8370732,5 15.3603922,5 L14,5 C13.4477153,5 13,4.55228475 13,4 C13,3.44771525 13.4477153,3 14,3 L15.3603922,3 C16.7904353,3 18.0216797,4.009379 18.3021342,5.41165159 L18.9738598,8.77027964 C18.9800573,8.79598135 18.9852569,8.82194986 18.9894283,8.84812193 Z M7.90104526,13.5532179 C8.37689757,14.1019482 8.72216362,14.7669928 8.88849179,15.5 L10.6355337,15.5 L9.38271908,11.5327536 L7.90104526,13.5532179 Z M5.0489282,14.0604547 C4.87228614,14.0208802 4.68858148,14 4.5,14 C3.11928813,14 2,15.1192881 2,16.5 C2,17.8807119 3.11928813,19 4.5,19 C5.88071187,19 7,17.8807119 7,16.5 C7,16.0418717 6.87677184,15.6125249 6.66165347,15.2432976 L5.306405,17.0913637 C4.97980386,17.5367288 4.35400152,17.6330061 3.90863634,17.306405 C3.46327115,16.9798039 3.36699387,16.3540015 3.693595,15.9086363 L5.0489282,14.0604547 Z M10.9960452,10 L12.3894405,14.4124184 L15.9193752,10 L10.9960452,10 Z M18.0700142,14.4490906 C17.4231388,14.9009628 17,15.6510667 17,16.5 C17,17.8807119 18.1192881,19 19.5,19 C20.8807119,19 22,17.8807119 22,16.5 C22,15.3015373 21.1566947,14.3000391 20.0311102,14.0565314 L20.4805807,16.3038839 C20.5888926,16.8454436 20.2376759,17.3722687 19.6961161,17.4805807 C19.1545564,17.5888926 18.6277313,17.2376759 18.5194193,16.6961161 L18.0700142,14.4490906 Z" id="shape"></path>
        </g>
    </g>
</svg>