<?xml version="1.0" encoding="UTF-8"?>
<svg width="24px" height="24px" viewBox="0 0 24 24" version="1.1" xmlns="http://www.w3.org/2000/svg" xmlns:xlink="http://www.w3.org/1999/xlink">
    <!-- Generator: Sketch 44.1 (41455) - http://www.bohemiancoding.com/sketch -->
    <title>Bold/SVG/bookmark-add</title>
    <desc>Created with Sketch.</desc>
    <defs></defs>
    <g id="Bold-Outline" stroke="none" stroke-width="1" fill="none" fill-rule="evenodd">
        <g id="bookmark-add" fill-rule="nonzero" fill="#000000">
            <path d="M19,12.5 L19,13.5 C19,14.0522847 18.5522847,14.5 18,14.5 C17.4477153,14.5 17,14.0522847 17,13.5 L17,12.5 L16,12.5 C15.4477153,12.5 15,12.0522847 15,11.5 C15,10.9477153 15.4477153,10.5 16,10.5 L17,10.5 L17,9.5 C17,8.94771525 17.4477153,8.5 18,8.5 C18.5522847,8.5 19,8.94771525 19,9.5 L19,10.5 L20,10.5 C20.5522847,10.5 21,10.9477153 21,11.5 C21,12.0522847 20.5522847,12.5 20,12.5 L19,12.5 Z M19,17.2428391 L19,20.8257794 C19,21.9303489 18.1045695,22.8257794 17,22.8257794 C16.5225775,22.8257794 16.0609035,22.654995 15.6984173,22.3442926 L11,18.3170778 L6.30158275,22.3442926 C5.46293106,23.0631369 4.2003311,22.9660138 3.4814868,22.1273621 C3.17078432,21.7648759 3,21.3032019 3,20.8257794 L3,5 C3,2.790861 4.790861,1 7,1 L15,1 C17.209139,1 19,2.790861 19,5 L19,5.40875593 C21.8377133,5.88483403 24,8.3528012 24,11.3257975 C24,14.2987938 21.8377133,16.766761 19,17.2428391 Z M17,5.40875593 L17,5 C17,3.8954305 16.1045695,3 15,3 L7,3 C5.8954305,3 5,3.8954305 5,5 L5,20.8257794 L9.69841725,16.7985646 C10.4473967,16.1565822 11.5526033,16.1565822 12.3015827,16.7985646 L17,20.8257794 L17,17.2428391 C14.1622867,16.766761 12,14.2987938 12,11.3257975 C12,8.3528012 14.1622867,5.88483403 17,5.40875593 Z M18,15.3257975 C20.209139,15.3257975 22,13.5349365 22,11.3257975 C22,9.11665849 20.209139,7.32579749 18,7.32579749 C15.790861,7.32579749 14,9.11665849 14,11.3257975 C14,13.5349365 15.790861,15.3257975 18,15.3257975 Z" id="shape"></path>
        </g>
    </g>
</svg>