<?xml version="1.0" encoding="UTF-8"?>
<svg width="24px" height="24px" viewBox="0 0 24 24" version="1.1" xmlns="http://www.w3.org/2000/svg" xmlns:xlink="http://www.w3.org/1999/xlink">
    <!-- Generator: Sketch 44.1 (41455) - http://www.bohemiancoding.com/sketch -->
    <title>Bold/SVG/bottle</title>
    <desc>Created with Sketch.</desc>
    <defs></defs>
    <g id="Bold-Outline" stroke="none" stroke-width="1" fill="none" fill-rule="evenodd">
        <g id="bottle" fill-rule="nonzero" fill="#000000">
            <path d="M9.96866301,7 C9.83415447,8.06823281 9.27261313,9.04554015 8.4,9.7 L6.8,10.9 C6.29638831,11.2777088 6,11.8704854 6,12.5 L6,19 C6,20.1045695 6.8954305,21 8,21 L16,21 C17.1045695,21 18,20.1045695 18,19 L18,12.5 C18,11.8704854 17.7036117,11.2777088 17.2,10.9 L15.6,9.7 C14.7273869,9.04554015 14.1658455,8.06823281 14.031337,7 L9.96866301,7 Z M10,5 L14,5 L14,3 L10,3 L10,5 Z M5.6,9.3 L7.2,8.1 C7.70361169,7.72229124 8,7.12951461 8,6.5 L8,3 C8,1.8954305 8.8954305,1 10,1 L14,1 C15.1045695,1 16,1.8954305 16,3 L16,6.5 C16,7.12951461 16.2963883,7.72229124 16.8,8.1 L18.4,9.3 C19.4072234,10.0554175 20,11.2409708 20,12.5 L20,19 C20,21.209139 18.209139,23 16,23 L8,23 C5.790861,23 4,21.209139 4,19 L4,12.5 C4,11.2409708 4.59277663,10.0554175 5.6,9.3 Z M8.5,12.5 L15.5,12.5 C16.0522847,12.5 16.5,12.9477153 16.5,13.5 L16.5,18.5 C16.5,19.0522847 16.0522847,19.5 15.5,19.5 L8.5,19.5 C7.94771525,19.5 7.5,19.0522847 7.5,18.5 L7.5,13.5 C7.5,12.9477153 7.94771525,12.5 8.5,12.5 Z M9.5,17.5 L14.5,17.5 L14.5,14.5 L9.5,14.5 L9.5,17.5 Z" id="shape"></path>
        </g>
    </g>
</svg>