<?xml version="1.0" encoding="UTF-8"?>
<svg width="24px" height="24px" viewBox="0 0 24 24" version="1.1" xmlns="http://www.w3.org/2000/svg" xmlns:xlink="http://www.w3.org/1999/xlink">
    <!-- Generator: Sketch 44.1 (41455) - http://www.bohemiancoding.com/sketch -->
    <title>Bold/SVG/bucket</title>
    <desc>Created with Sketch.</desc>
    <defs></defs>
    <g id="Bold-Outline" stroke="none" stroke-width="1" fill="none" fill-rule="evenodd">
        <g id="bucket" fill-rule="nonzero" fill="#000000">
            <path d="M5.5,8.39887971 L5.5,4.5 C5.5,2.56700338 7.06700338,1 9,1 C10.4922705,1 11.7664157,1.93390528 12.2698545,3.24913475 L20.6521879,11.6314681 C20.7351291,11.7144094 20.8028314,11.8112961 20.8521989,11.917698 L22.9336931,16.4039511 C23.6855269,18.0243813 22.9813902,19.9474812 21.36096,20.6993149 C20.9344199,20.8972174 20.4698593,20.9997401 19.9996446,20.9997401 C18.1972014,20.9997401 16.7360325,19.5385712 16.7360325,17.736128 C16.7360325,17.4305194 16.7789535,17.1272118 16.8629196,16.8349499 L12.1669065,21.5309631 C10.6048094,23.0930602 8.07214944,23.0930602 6.51005227,21.5309631 L2.26741159,17.2883224 C0.70531442,15.7262252 0.70531442,13.1935653 2.26741159,11.6314681 L5.5,8.39887971 Z M7.5,6.39887971 L10.2412868,3.65759294 C9.97140431,3.26069344 9.51614626,3 9,3 C8.17157288,3 7.5,3.67157288 7.5,4.5 L7.5,6.39887971 Z M10.5,6.22730684 L3.68162515,13.0456817 C2.90057657,13.8267303 2.90057657,15.0930602 3.68162515,15.8741088 L7.92426584,20.1167495 C8.70531442,20.8977981 9.97164438,20.8977981 10.752693,20.1167495 L18.5308676,12.3385749 L12.5,6.30770735 L12.5,12 C12.5,12.5522847 12.0522847,13 11.5,13 C10.9477153,13 10.5,12.5522847 10.5,12 L10.5,6.22730684 Z M18.847212,17.2178474 C18.773926,17.380804 18.7360325,17.5574503 18.7360325,17.736128 C18.7360325,18.4340017 19.3017709,18.9997401 19.9996446,18.9997401 C20.1791074,18.9997401 20.3564123,18.9606112 20.5192061,18.8850794 C21.1376618,18.5981336 21.4064035,17.8641606 21.1194576,17.2457049 L19.9592614,14.7451292 L18.847212,17.2178474 Z" id="shape"></path>
        </g>
    </g>
</svg>