<?xml version="1.0" encoding="UTF-8"?>
<svg width="24px" height="24px" viewBox="0 0 24 24" version="1.1" xmlns="http://www.w3.org/2000/svg" xmlns:xlink="http://www.w3.org/1999/xlink">
    <!-- Generator: Sketch 44.1 (41455) - http://www.bohemiancoding.com/sketch -->
    <title>Bold/SVG/camera-focus</title>
    <desc>Created with Sketch.</desc>
    <defs></defs>
    <g id="Bold-Outline" stroke="none" stroke-width="1" fill="none" fill-rule="evenodd">
        <g id="camera-focus" fill-rule="nonzero" fill="#000000">
            <path d="M3,9 L3,7 C3,5.8954305 3.8954305,5 5,5 L7,5 C7.55228475,5 8,4.55228475 8,4 C8,3.44771525 7.55228475,3 7,3 L5,3 C2.790861,3 1,4.790861 1,7 L1,9 C1,9.55228475 1.44771525,10 2,10 C2.55228475,10 3,9.55228475 3,9 Z M17,5 L19,5 C20.1045695,5 21,5.8954305 21,7 L21,9 C21,9.55228475 21.4477153,10 22,10 C22.5522847,10 23,9.55228475 23,9 L23,7 C23,4.790861 21.209139,3 19,3 L17,3 C16.4477153,3 16,3.44771525 16,4 C16,4.55228475 16.4477153,5 17,5 Z M21,15 L21,17 C21,18.1045695 20.1045695,19 19,19 L17,19 C16.4477153,19 16,19.4477153 16,20 C16,20.5522847 16.4477153,21 17,21 L19,21 C21.209139,21 23,19.209139 23,17 L23,15 C23,14.4477153 22.5522847,14 22,14 C21.4477153,14 21,14.4477153 21,15 Z M7,19 C7.55228475,19 8,19.4477153 8,20 C8,20.5522847 7.55228475,21 7,21 L5,21 C2.790861,21 1,19.209139 1,17 L1,15 C1,14.4477153 1.44771525,14 2,14 C2.55228475,14 3,14.4477153 3,15 L3,17 C3,18.1045695 3.8954305,19 5,19 L7,19 Z M12,17 C9.23857625,17 7,14.7614237 7,12 C7,9.23857625 9.23857625,7 12,7 C14.7614237,7 17,9.23857625 17,12 C17,14.7614237 14.7614237,17 12,17 Z M12,15 C13.6568542,15 15,13.6568542 15,12 C15,10.3431458 13.6568542,9 12,9 C10.3431458,9 9,10.3431458 9,12 C9,13.6568542 10.3431458,15 12,15 Z" id="shape"></path>
        </g>
    </g>
</svg>