<?xml version="1.0" encoding="UTF-8"?>
<svg width="24px" height="24px" viewBox="0 0 24 24" version="1.1" xmlns="http://www.w3.org/2000/svg" xmlns:xlink="http://www.w3.org/1999/xlink">
    <!-- Generator: Sketch 44.1 (41455) - http://www.bohemiancoding.com/sketch -->
    <title>Bold/SVG/car</title>
    <desc>Created with Sketch.</desc>
    <defs></defs>
    <g id="Bold-Outline" stroke="none" stroke-width="1" fill="none" fill-rule="evenodd">
        <g id="car" fill-rule="nonzero" fill="#000000">
            <path d="M14.1449393,16.5 C14.5752139,15.0542555 15.9144897,14 17.5,14 C19.0855103,14 20.4247861,15.0542555 20.8550607,16.5 L22,16.5 L22,14 C22,13.6852427 21.8518058,13.3888544 21.6,13.2 L20,12 L14,12 C12.3431458,12 11,10.6568542 11,9 L11,6 L9.16227766,6 C8.30141684,6 7.53713916,6.55086019 7.26491106,7.36754447 L6.58113883,9.41886117 C6.06732848,10.9602922 4.62481099,12 3,12 C2.44771525,12 2,12.4477153 2,13 L2,16.5 L3.64493934,16.5 C4.07521393,15.0542555 5.41448968,14 7,14 C8.58551032,14 9.92478607,15.0542555 10.3550607,16.5 L14.1449393,16.5 Z M14.1449393,18.5 L10.3550607,18.5 C9.92478607,19.9457445 8.58551032,21 7,21 C5.41448968,21 4.07521393,19.9457445 3.64493934,18.5 L2,18.5 C0.8954305,18.5 7.10542736e-15,17.6045695 0,16.5 L3.55271368e-15,13 C3.55271368e-15,11.3431458 1.34314575,10 3,10 C3.76395017,10 4.44218998,9.51115241 4.68377223,8.78640564 L5.36754447,6.73508894 C5.91200065,5.10172038 7.44055603,4 9.16227766,4 L14.9689011,4 C16.6045195,4 18.0753545,4.99580378 18.6828079,6.51443729 L19.616045,8.84753016 C19.7522761,9.18810796 19.9795476,9.48466069 20.2729984,9.7047488 L22.8,11.6 C23.5554175,12.1665631 24,13.0557281 24,14 L24,16.5 C24,17.6045695 23.1045695,18.5 22,18.5 L20.8550607,18.5 C20.4247861,19.9457445 19.0855103,21 17.5,21 C15.9144897,21 14.5752139,19.9457445 14.1449393,18.5 Z M13,6 L13,9 C13,9.55228475 13.4477153,10 14,10 L17.9504938,10 C17.8792373,9.86756286 17.8152911,9.73081025 17.7590916,9.59031151 L16.8258545,7.25721865 C16.5221278,6.49790189 15.7867103,6 14.9689011,6 L13,6 Z M17.5,19 C18.3284271,19 19,18.3284271 19,17.5 C19,16.6715729 18.3284271,16 17.5,16 C16.6715729,16 16,16.6715729 16,17.5 C16,18.3284271 16.6715729,19 17.5,19 Z M7,19 C7.82842712,19 8.5,18.3284271 8.5,17.5 C8.5,16.6715729 7.82842712,16 7,16 C6.17157288,16 5.5,16.6715729 5.5,17.5 C5.5,18.3284271 6.17157288,19 7,19 Z" id="shape"></path>
        </g>
    </g>
</svg>