<?xml version="1.0" encoding="UTF-8"?>
<svg width="24px" height="24px" viewBox="0 0 24 24" version="1.1" xmlns="http://www.w3.org/2000/svg" xmlns:xlink="http://www.w3.org/1999/xlink">
    <!-- Generator: Sketch 44.1 (41455) - http://www.bohemiancoding.com/sketch -->
    <title>Bold/SVG/cat-angry</title>
    <desc>Created with Sketch.</desc>
    <defs></defs>
    <g id="Bold-Outline" stroke="none" stroke-width="1" fill="none" fill-rule="evenodd">
        <g id="cat-angry" fill-rule="nonzero" fill="#000000">
            <path d="M11.0076639,12.1244147 C11.0026054,12.0836532 11,12.0421309 11,12 C11,11.4477153 11.4477153,11 12,11 C12.5522847,11 13,11.4477153 13,12 C13,12.0421309 12.9973946,12.0836532 12.9923361,12.1244147 C13.8797961,12.3511248 14.6654007,12.8776598 15.2160888,13.6212809 C15.4785797,13.9757351 15.6812632,14.3716342 15.814682,14.7939168 C15.9810675,15.3205421 15.6890353,15.8823385 15.16241,16.048724 C14.6357846,16.2151095 14.0739882,15.9230774 13.9076027,15.396452 C13.841194,15.1862625 13.7401074,14.9888112 13.6088273,14.8115373 C13.2330585,14.3041184 12.6427824,14 12,14 C11.3572176,14 10.7669415,14.3041184 10.3911727,14.8115373 C10.2598926,14.9888112 10.158806,15.1862625 10.0923973,15.396452 C9.92601178,15.9230774 9.36421544,16.2151095 8.83759005,16.048724 C8.31096465,15.8823385 8.01893253,15.3205421 8.18531805,14.7939168 C8.31873681,14.3716342 8.52142032,13.9757351 8.78391119,13.6212809 C9.33459931,12.8776598 10.1202039,12.3511248 11.0076639,12.1244147 Z M9.17762459,3.40383422 C10.0726971,3.14100439 11.0198819,3 12,3 C12.9800482,3 13.9271677,3.14098425 14.8221837,3.40377793 L17.5861409,1.46900788 C18.4910395,0.83557887 19.7381004,1.05564844 20.3715294,1.96054704 C20.6550148,2.36552609 20.7784738,2.86114406 20.7180876,3.3517819 L20.2299495,7.31790845 C21.3461456,8.93154803 22,10.8894161 22,13 C22,13.8902151 21.883677,14.7532615 21.6654015,15.5747687 L22.9820508,16.3349365 C23.4603434,16.6110789 23.6242186,17.2226693 23.3480762,17.7009619 C23.0719338,18.1792545 22.4603434,18.3431297 21.9820508,18.0669873 L20.9478441,17.4698878 C20.7981367,17.7689906 20.6338735,18.0595416 20.4559831,18.3406122 L21.4820508,18.9330127 C21.9603434,19.2091551 22.1242186,19.8207455 21.8480762,20.2990381 C21.5719338,20.7773307 20.9603434,20.9412059 20.4820508,20.6650635 L19.2092109,19.9301891 C17.3897462,21.8224434 14.8323896,23 12,23 C9.0605353,23 6.41729132,21.7317284 4.58762968,19.7125467 L3.51794919,20.330127 C3.03965657,20.6062694 2.42806616,20.4423942 2.15192379,19.9641016 C1.87578141,19.485809 2.03965657,18.8742186 2.51794919,18.5980762 L3.39241244,18.0932046 C3.22269124,17.8069909 3.06683912,17.5115852 2.92578196,17.2079133 L2.01794919,17.7320508 C1.53965657,18.0081932 0.928066164,17.844318 0.651923789,17.3660254 C0.375781414,16.8877328 0.539656569,16.2761424 1.01794919,16 L2.26155536,15.2820036 C2.09047073,14.5490376 2,13.7850841 2,13 C2,10.8895612 2.65376446,8.93181727 3.7698203,7.31824131 L3.28164063,3.35178244 C3.22125441,2.86114451 3.3447134,2.36552643 3.6281988,1.96054729 C4.26162782,1.0556487 5.50868874,0.83557912 6.41358733,1.46900814 L9.17762459,3.40383422 Z M7.01331867,4.3301312 L5.26666264,3.10747198 L5.54423701,5.36276318 C6.00066545,4.97655463 6.49217899,4.63052432 7.01331867,4.3301312 Z M16.9865321,4.33004518 C17.5076336,4.63040433 17.9991145,4.97639351 18.4555171,5.36255515 L18.7330656,3.10747173 L16.9865321,4.33004518 Z M5.12487586,17.0929664 L5.98205081,16.5980762 C6.46034343,16.3219338 7.07193384,16.485809 7.34807621,16.9641016 C7.62421859,17.4423942 7.46034343,18.0539846 6.98205081,18.330127 L6.36994408,18.683527 C7.8154922,20.1155598 9.80446006,21 12,21 C14.0868193,21 15.9870185,20.200984 17.4113536,18.8921957 L17.0179492,18.6650635 C16.5396566,18.3889211 16.3757814,17.7773307 16.6519238,17.2990381 C16.9280662,16.8207455 17.5396566,16.6568703 18.0179492,16.9330127 L18.7219344,17.3394588 C18.9025422,17.0602681 19.0662294,16.7691097 19.2115448,16.4674349 L18.5179492,16.0669873 C18.0396566,15.7908449 17.8757814,15.1792545 18.1519238,14.7009619 C18.4280662,14.2226693 19.0396566,14.0587941 19.5179492,14.3349365 L19.8540504,14.5289846 C19.9498333,14.0340738 20,13.5228954 20,13 C20,8.581722 16.418278,5 12,5 C7.581722,5 4,8.581722 4,13 C4,13.4163763 4.03180958,13.8253231 4.09313116,14.2245429 L4.48205081,14 C4.96034343,13.7238576 5.57193384,13.8877328 5.84807621,14.3660254 C6.12421859,14.844318 5.96034343,15.4559084 5.48205081,15.7320508 L4.66685266,16.2027057 C4.80125793,16.5100155 4.95441453,16.8072513 5.12487586,17.0929664 Z M15.4472136,10.8944272 C14.9532351,11.1414164 14.3525621,10.9411921 14.1055728,10.4472136 C13.8585836,9.9532351 14.0588079,9.35256206 14.5527864,9.10557281 L15.5527864,8.60557281 C16.0467649,8.35858356 16.6474379,8.55880791 16.8944272,9.0527864 C17.1414164,9.5467649 16.9411921,10.1474379 16.4472136,10.3944272 L15.4472136,10.8944272 Z M7.5527864,10.3944272 C7.05880791,10.1474379 6.85858356,9.5467649 7.10557281,9.0527864 C7.35256206,8.55880791 7.9532351,8.35858356 8.4472136,8.60557281 L9.4472136,9.10557281 C9.94119209,9.35256206 10.1414164,9.9532351 9.89442719,10.4472136 C9.64743794,10.9411921 9.0467649,11.1414164 8.5527864,10.8944272 L7.5527864,10.3944272 Z" id="shape"></path>
        </g>
    </g>
</svg>