<?xml version="1.0" encoding="UTF-8"?>
<svg width="24px" height="24px" viewBox="0 0 24 24" version="1.1" xmlns="http://www.w3.org/2000/svg" xmlns:xlink="http://www.w3.org/1999/xlink">
    <!-- Generator: Sketch 44.1 (41455) - http://www.bohemiancoding.com/sketch -->
    <title>Bold/SVG/chevrons-right</title>
    <desc>Created with Sketch.</desc>
    <defs></defs>
    <g id="Bold-Outline" stroke="none" stroke-width="1" fill="none" fill-rule="evenodd">
        <g id="chevrons-right" fill-rule="nonzero" fill="#000000">
            <path d="M8.33803136,4.749222 L15.659847,11.215065 C16.0740601,11.5808537 16.1130083,12.2128221 15.7468402,12.626606 C15.7208595,12.6559651 15.6931738,12.6837734 15.6639262,12.7098869 L8.33395217,19.2544001 C7.92174157,19.6224393 7.88624307,20.2546105 8.25466406,20.6663939 C8.62308505,21.0781773 9.255912,21.1136391 9.6681226,20.7455999 L16.9980966,14.2010866 C17.0858393,14.1227462 17.1688965,14.0393214 17.2468387,13.9512439 C18.345343,12.7098922 18.2284984,10.813987 16.985859,9.716621 L9.6640434,3.250778 C9.24983027,2.88498934 8.61720627,2.92389716 8.25103816,3.33768105 C7.88487005,3.75146494 7.92381823,4.38343335 8.33803136,4.749222 Z" id="shape"></path>
        </g>
    </g>
</svg>