<?xml version="1.0" encoding="UTF-8"?>
<svg width="24px" height="24px" viewBox="0 0 24 24" version="1.1" xmlns="http://www.w3.org/2000/svg" xmlns:xlink="http://www.w3.org/1999/xlink">
    <!-- Generator: Sketch 44.1 (41455) - http://www.bohemiancoding.com/sketch -->
    <title>Bold/SVG/cloud</title>
    <desc>Created with Sketch.</desc>
    <defs></defs>
    <g id="Bold-Outline" stroke="none" stroke-width="1" fill="none" fill-rule="evenodd">
        <g id="cloud" fill-rule="nonzero" fill="#000000">
            <path d="M5,10.5 C5,10.956553 5.05541426,11.4049835 5.16384832,11.8388139 C5.301864,12.3909964 4.95182052,12.9468618 4.39421081,13.0609901 C3.01051024,13.344198 2,14.5687042 2,16 C2,17.6568542 3.34314575,19 5,19 L18,19 C20.209139,19 22,17.209139 22,15 C22,12.790861 20.209139,11 18,11 C17.7247737,11 17.4537222,11.0276481 17.1893791,11.0819828 C16.5930682,11.204552 16.0265197,10.7703558 15.9898575,10.1626834 C15.8153697,7.27056812 13.4121547,5 10.5,5 C7.46243388,5 5,7.46243388 5,10.5 Z M3,10.5 C3,6.35786438 6.35786438,3 10.5,3 C14.1150484,3 17.1543752,5.56502707 17.8503868,9.0018349 C17.9001825,9.00061241 17.9500563,9 18,9 C21.3137085,9 24,11.6862915 24,15 C24,18.3137085 21.3137085,21 18,21 L5,21 C2.23857625,21 0,18.7614237 0,16 C0,13.9518978 1.24035225,12.1589024 3.05272954,11.3931862 C3.01769289,11.0983463 3,10.8002365 3,10.5 Z" id="shape"></path>
        </g>
    </g>
</svg>