<?xml version="1.0" encoding="UTF-8"?>
<svg width="24px" height="24px" viewBox="0 0 24 24" version="1.1" xmlns="http://www.w3.org/2000/svg" xmlns:xlink="http://www.w3.org/1999/xlink">
    <!-- Generator: Sketch 44.1 (41455) - http://www.bohemiancoding.com/sketch -->
    <title>Bold/SVG/coin</title>
    <desc>Created with Sketch.</desc>
    <defs></defs>
    <g id="Bold-Outline" stroke="none" stroke-width="1" fill="none" fill-rule="evenodd">
        <g id="coin" fill-rule="nonzero" fill="#000000">
            <path d="M13,7 L14.5,7 C15.0522847,7 15.5,7.44771525 15.5,8 C15.5,8.55228475 15.0522847,9 14.5,9 L10.5001844,9 C9.94779782,9 9.5,9.44779782 9.5,10.0001844 C9.5,10.5525128 9.94775063,11.0002635 10.5000263,11.0002635 L13.4996695,11.0001054 C15.156619,11.0000181 16.4999127,12.3431703 16.5,14.0002778 C16.5,15.6572855 15.1567299,17.0005557 13.4997222,17.0005557 L13,17.0005557 L13,18 C13,18.5522847 12.5522847,19 12,19 C11.4477153,19 11,18.5522847 11,18 L11,17.0005557 L9,17.0005557 C8.44771525,17.0005557 8,16.5528404 8,16.0005557 C8,15.4482709 8.44771525,15.0005557 9,15.0005557 L11.9663446,15.0005557 C11.9775176,15.0001862 11.9887371,15 12,15 C12.0112629,15 12.0224824,15.0001862 12.0336554,15.0005557 L13.4997222,15.0005557 C14.0521604,15.0005557 14.5,14.552716 14.5,14.0002251 C14.4999709,13.4478452 14.0521548,13.0000763 13.4997749,13.0001054 L10.500079,13.0002635 C8.84318113,13.0002635 7.5,11.6570823 7.5,10.0001844 C7.5,8.34322832 8.84322832,7 10.5001844,7 L11,7 L11,6 C11,5.44771525 11.4477153,5 12,5 C12.5522847,5 13,5.44771525 13,6 L13,7 Z M12,23 C5.92486775,23 1,18.0751322 1,12 C1,5.92486775 5.92486775,1 12,1 C18.0751322,1 23,5.92486775 23,12 C23,18.0751322 18.0751322,23 12,23 Z M12,21 C16.9705627,21 21,16.9705627 21,12 C21,7.02943725 16.9705627,3 12,3 C7.02943725,3 3,7.02943725 3,12 C3,16.9705627 7.02943725,21 12,21 Z" id="shape"></path>
        </g>
    </g>
</svg>