<?xml version="1.0" encoding="UTF-8"?>
<svg width="24px" height="24px" viewBox="0 0 24 24" version="1.1" xmlns="http://www.w3.org/2000/svg" xmlns:xlink="http://www.w3.org/1999/xlink">
    <!-- Generator: Sketch 44.1 (41455) - http://www.bohemiancoding.com/sketch -->
    <title>Bold/SVG/color</title>
    <desc>Created with Sketch.</desc>
    <defs></defs>
    <g id="Bold-Outline" stroke="none" stroke-width="1" fill="none" fill-rule="evenodd">
        <g id="color" fill-rule="nonzero" fill="#000000">
            <path d="M13,15.3137085 L13,17.4852814 L18.3223946,12.1628868 C18.2125263,11.6035514 18.0515601,11.0407737 17.8391525,10.474556 L13,15.3137085 Z M13,12.4852814 L16.9294907,8.55579068 C16.6779399,8.11598706 16.3959557,7.67416488 16.0833833,7.23032516 L13,10.3137085 L13,12.4852814 Z M13,7.48528137 L14.8422561,5.64302531 C14.2912447,5.0015017 13.6773101,4.35585495 13,3.70608803 L13,7.48528137 Z M11,3.70608803 C7.30893511,7.24705386 5.5,10.6656584 5.5,13.9614225 C5.5,17.2112086 7.88490993,19.9039691 11,20.3849743 L11,19.8994898 C11,19.8994898 11,19.8994898 11,19.8994898 L11,3.70608803 Z M13,20.3849743 C15.816936,19.9500075 18.0367779,17.7064103 18.4359068,14.8778017 L13,20.3137085 L13,20.3849743 Z M12,22.4614225 C7.30557963,22.4614225 3.5,18.6558429 3.5,13.9614225 C3.5,9.94364256 5.67717156,5.93810438 9.95194012,1.94428707 C11.1048692,0.867132133 12.895131,0.867132154 14.0480599,1.94428712 C18.3228285,5.93810442 20.5,9.94364258 20.5,13.9614225 C20.5,18.6558429 16.6944204,22.4614225 12,22.4614225 Z" id="shape"></path>
        </g>
    </g>
</svg>