<?xml version="1.0" encoding="UTF-8"?>
<svg width="24px" height="24px" viewBox="0 0 24 24" version="1.1" xmlns="http://www.w3.org/2000/svg" xmlns:xlink="http://www.w3.org/1999/xlink">
    <!-- Generator: Sketch 44.1 (41455) - http://www.bohemiancoding.com/sketch -->
    <title>Bold/SVG/dresses</title>
    <desc>Created with Sketch.</desc>
    <defs></defs>
    <g id="Bold-Outline" stroke="none" stroke-width="1" fill="none" fill-rule="evenodd">
        <g id="dresses" fill-rule="nonzero" fill="#000000">
            <path d="M14.6095218,10 C14.7029992,9.77956011 14.8238075,9.56825671 14.9715752,9.37123311 L15.8586688,8.18844159 C16.5414746,7.27803389 16.8041736,6.11988731 16.5809915,5.00397705 C16.2261752,3.49395738 16.0326886,2.76038161 16.0005318,2.80324973 C15.0696125,4.04425603 13.6005074,5 12,5 C10.3994926,5 8.84055539,4.04425603 7.90963605,2.80324973 L7.41900849,5.00397705 C7.19582644,6.11988731 7.45852541,7.27803389 8.14133119,8.18844159 L9.02842483,9.37123311 C9.17619253,9.56825671 9.29700078,9.77956011 9.39047821,10 L14.6095218,10 Z M14.4881989,12 L9.5118011,12 C9.45187411,12.2084483 9.36873574,12.4123118 9.26211155,12.6077895 L5.49118881,19.5211479 C5.41106775,19.6680365 5.36908438,19.832681 5.36908438,20 C5.36908438,20.5522847 5.81679963,21 6.36908438,21 L17.6309156,21 C17.7982346,21 17.9628792,20.9580166 18.1097678,20.8778956 C18.5946161,20.6134328 18.7732739,20.0059962 18.5088112,19.5211479 L14.7378884,12.6077895 C14.6312643,12.4123118 14.5481259,12.2084483 14.4881989,12 Z M8.53512878,1 C8.89209483,1 9.22199248,1.19028213 9.40073465,1.49927404 C9.93399737,2.42112628 10.9160358,3 12,3 C13.0839642,3 14.0660026,2.42112628 14.5992654,1.49927404 C14.7780075,1.19028213 15.1079052,1 15.4648712,1 L17,1 C17.476681,1 17.8870958,1.33645967 17.9805807,1.80388386 L18.5421529,4.61174478 C18.8769259,6.28561017 18.4828775,8.02283003 17.4586688,9.38844159 L16.5715752,10.5712331 C16.3365761,10.8845652 16.3061299,11.3062442 16.4936796,11.6500852 L20.2646023,18.5634436 C21.0579905,20.0179886 20.522017,21.8402985 19.067472,22.6336867 C18.6268062,22.8740499 18.1328726,23 17.6309156,23 L6.36908438,23 C4.71223013,23 3.36908438,21.6568542 3.36908438,20 C3.36908438,19.498043 3.4950345,19.0041094 3.73539766,18.5634436 L7.50632041,11.6500852 C7.69387008,11.3062442 7.6634239,10.8845652 7.42842483,10.5712331 L6.54133119,9.38844159 C5.51712252,8.02283003 5.12307406,6.28561017 5.45784714,4.61174478 L6.01941932,1.80388386 C6.11290416,1.33645967 6.52331898,1 7,1 L8.53512878,1 Z" id="Combined-Shape"></path>
        </g>
    </g>
</svg>