<?xml version="1.0" encoding="UTF-8"?>
<svg width="24px" height="24px" viewBox="0 0 24 24" version="1.1" xmlns="http://www.w3.org/2000/svg" xmlns:xlink="http://www.w3.org/1999/xlink">
    <!-- Generator: Sketch 44.1 (41455) - http://www.bohemiancoding.com/sketch -->
    <title>Bold/SVG/drop</title>
    <desc>Created with Sketch.</desc>
    <defs></defs>
    <g id="Bold-Outline" stroke="none" stroke-width="1" fill="none" fill-rule="evenodd">
        <g id="drop" fill-rule="nonzero" fill="#000000">
            <path d="M12,22.4614225 C7.30557963,22.4614225 3.5,18.6558429 3.5,13.9614225 C3.5,9.94364256 5.67717156,5.93810438 9.95194012,1.94428707 C11.1048692,0.867132133 12.895131,0.867132154 14.0480599,1.94428712 C18.3228285,5.93810442 20.5,9.94364258 20.5,13.9614225 C20.5,18.6558429 16.6944204,22.4614225 12,22.4614225 Z M12,20.4614225 C15.5898509,20.4614225 18.5,17.5512734 18.5,13.9614225 C18.5,10.5725566 16.5874204,7.05381202 12.6826866,3.40570963 C12.298377,3.04665798 11.7016231,3.04665797 11.3173134,3.40570962 C7.41257961,7.05381199 5.5,10.5725566 5.5,13.9614225 C5.5,17.5512734 8.41014913,20.4614225 12,20.4614225 Z M7,13.5 C7,12.9477153 7.44771525,12.5 8,12.5 C8.55228475,12.5 9,12.9477153 9,13.5 C9,15.1568542 10.3431458,16.5 12,16.5 C12.5522847,16.5 13,16.9477153 13,17.5 C13,18.0522847 12.5522847,18.5 12,18.5 C9.23857625,18.5 7,16.2614237 7,13.5 Z" id="shape"></path>
        </g>
    </g>
</svg>