<?xml version="1.0" encoding="UTF-8"?>
<svg width="24px" height="24px" viewBox="0 0 24 24" version="1.1" xmlns="http://www.w3.org/2000/svg" xmlns:xlink="http://www.w3.org/1999/xlink">
    <!-- Generator: Sketch 44.1 (41455) - http://www.bohemiancoding.com/sketch -->
    <title>Bold/SVG/factory</title>
    <desc>Created with Sketch.</desc>
    <defs></defs>
    <g id="Bold-Outline" stroke="none" stroke-width="1" fill="none" fill-rule="evenodd">
        <g id="factory" fill-rule="nonzero" fill="#000000">
            <path d="M21.9,1.7 C22.5592363,1.20557281 23.5,1.67595468 23.5,2.5 L23.5,19.5 C23.5,21.1568542 22.1568542,22.5 20.5,22.5 L3.5,22.5 C1.84314575,22.5 0.5,21.1568542 0.5,19.5 L0.5,3.5 C0.5,2.3954305 1.3954305,1.5 2.5,1.5 L5.5,1.5 C6.6045695,1.5 7.5,2.3954305 7.5,3.5 L7.5,6.5 L13.9,1.7 C14.5592363,1.20557281 15.5,1.67595468 15.5,2.5 L15.5,6.5 L21.9,1.7 Z M13.5,4.5 L7.1,9.3 C6.44076375,9.79442719 5.5,9.32404532 5.5,8.5 L5.5,3.5 L2.5,3.5 L2.5,19.5 C2.5,20.0522847 2.94771525,20.5 3.5,20.5 L20.5,20.5 C21.0522847,20.5 21.5,20.0522847 21.5,19.5 L21.5,4.5 L15.1,9.3 C14.4407637,9.79442719 13.5,9.32404532 13.5,8.5 L13.5,4.5 Z M8.5,13.5 L12.5,13.5 C13.0522847,13.5 13.5,13.9477153 13.5,14.5 L13.5,18.5 C13.5,19.0522847 13.0522847,19.5 12.5,19.5 L8.5,19.5 C7.94771525,19.5 7.5,19.0522847 7.5,18.5 L7.5,14.5 C7.5,13.9477153 7.94771525,13.5 8.5,13.5 Z M9.5,17.5 L11.5,17.5 L11.5,15.5 L9.5,15.5 L9.5,17.5 Z M15.5,13.5 L19.5,13.5 C20.0522847,13.5 20.5,13.9477153 20.5,14.5 L20.5,18.5 C20.5,19.0522847 20.0522847,19.5 19.5,19.5 L15.5,19.5 C14.9477153,19.5 14.5,19.0522847 14.5,18.5 L14.5,14.5 C14.5,13.9477153 14.9477153,13.5 15.5,13.5 Z M16.5,17.5 L18.5,17.5 L18.5,15.5 L16.5,15.5 L16.5,17.5 Z" id="Combined-Shape"></path>
        </g>
    </g>
</svg>