<?xml version="1.0" encoding="UTF-8"?>
<svg width="24px" height="24px" viewBox="0 0 24 24" version="1.1" xmlns="http://www.w3.org/2000/svg" xmlns:xlink="http://www.w3.org/1999/xlink">
    <!-- Generator: Sketch 44.1 (41455) - http://www.bohemiancoding.com/sketch -->
    <title>Bold/SVG/favorite-off</title>
    <desc>Created with Sketch.</desc>
    <defs></defs>
    <g id="Bold-Outline" stroke="none" stroke-width="1" fill="none" fill-rule="evenodd">
        <g id="favorite-off" fill-rule="nonzero" fill="#000000">
            <path d="M8.40644252,17.007771 C9.24027331,17.6955075 10.4465128,18.6196824 12.0202808,19.7756866 C18.0514123,15.6046561 21,11.7315104 21,8.23636364 C21,7.11753564 20.6587473,6.11294832 20.0484705,5.36574308 L8.40644252,17.007771 Z M21.4673875,3.94682603 C22.4585154,5.07663193 23,6.59268197 23,8.23636364 C23,12.5457011 19.6746463,16.9137514 13.1578952,21.4206284 C12.4561865,21.9059185 11.5238873,21.8926408 10.8362833,21.3875643 C9.14469404,20.1450151 7.86321108,19.1603122 6.98613778,18.4280758 L3.51471863,21.8994949 C3.12419433,22.2900192 2.49102936,22.2900192 2.10050506,21.8994949 C1.70998077,21.5089706 1.70998077,20.8758057 2.10050506,20.4852814 L20.4852814,2.10050506 C20.8758057,1.70998077 21.5089706,1.70998077 21.8994949,2.10050506 C22.2900192,2.49102936 22.2900192,3.12419433 21.8994949,3.51471863 L21.4673875,3.94682603 Z M14.7745459,2.43200504 C15.2864585,2.22472757 15.8694772,2.47168312 16.0767547,2.98359571 C16.2840322,3.49550829 16.0370766,4.07852703 15.525164,4.2858045 C14.539855,4.68476396 13.7581109,5.39872708 12.7819672,6.62331953 C12.3816226,7.12556016 11.6183774,7.12556016 11.2180328,6.62331953 C9.79996539,4.84432467 8.63181001,4 7,4 C4.61097388,4 3,5.76180755 3,8.23636364 C3,9.85294819 3.62627061,11.5461342 4.91006445,13.3262481 C4.99693614,13.4467048 5.08679152,13.5675094 5.17963395,13.6886576 C5.51557512,14.1270204 5.43254595,14.7547178 4.99418312,15.090659 C4.55582028,15.4266002 3.92812286,15.343571 3.59218169,14.9052082 C3.48761845,14.7687657 3.38619302,14.6324059 3.28790878,14.4961246 C1.7730538,12.3956203 1,10.3055911 1,8.23636364 C1,4.69521141 3.4644662,2 7,2 C9.04811248,2 10.5194418,2.84236973 11.9988498,4.45590494 C12.8661502,3.50742865 13.7050078,2.86506954 14.7745459,2.43200504 Z" id="shape"></path>
        </g>
    </g>
</svg>