<?xml version="1.0" encoding="UTF-8"?>
<svg width="24px" height="24px" viewBox="0 0 24 24" version="1.1" xmlns="http://www.w3.org/2000/svg" xmlns:xlink="http://www.w3.org/1999/xlink">
    <!-- Generator: Sketch 44.1 (41455) - http://www.bohemiancoding.com/sketch -->
    <title>Bold/SVG/file-add</title>
    <desc>Created with Sketch.</desc>
    <defs></defs>
    <g id="Bold-Outline" stroke="none" stroke-width="1" fill="none" fill-rule="evenodd">
        <g id="file-add" fill-rule="nonzero" fill="#000000">
            <path d="M19,20 L19,22 C19,22.5522847 18.5522847,23 18,23 C17.4477153,23 17,22.5522847 17,22 L17,20 L15,20 C14.4477153,20 14,19.5522847 14,19 C14,18.4477153 14.4477153,18 15,18 L17,18 L17,16 C17,15.4477153 17.4477153,15 18,15 C18.5522847,15 19,15.4477153 19,16 L19,18 L21,18 C21.5522847,18 22,18.4477153 22,19 C22,19.5522847 21.5522847,20 21,20 L19,20 Z M13.0117842,1.00006801 C13.1355475,0.998543453 13.2622833,1.02259947 13.3867104,1.077517 C13.5352725,1.13986928 13.6655989,1.23706232 13.7674664,1.35887292 L20.6409609,8.23239464 C20.7629782,8.33439034 20.860308,8.46493575 20.9226808,8.61376118 C20.9774572,8.73803972 21.0014537,8.86461444 20.9999321,8.98822389 C20.9999773,8.99214388 21,8.99606929 21,9 L21,13 C21,13.5522847 20.5522847,14 20,14 C19.4477153,14 19,13.5522847 19,13 L19,10 L15,10 C13.3431458,10 12,8.65685425 12,7 L12,3 L7,3 C5.8954305,3 5,3.8954305 5,5 L5,19 C5,20.1045695 5.8954305,21 7,21 L12,21 C12.5522847,21 13,21.4477153 13,22 C13,22.5522847 12.5522847,23 12,23 L7,23 C4.790861,23 3,21.209139 3,19 L3,5 C3,2.790861 4.790861,1 7,1 L13,1 C13.0039334,1 13.0078616,1.00002271 13.0117842,1.00006801 Z M14,4.40857272 L14,7 C14,7.55228475 14.4477153,8 15,8 L17.591413,8 L14,4.40857272 Z" id="shape"></path>
        </g>
    </g>
</svg>