<?xml version="1.0" encoding="UTF-8"?>
<svg width="24px" height="24px" viewBox="0 0 24 24" version="1.1" xmlns="http://www.w3.org/2000/svg" xmlns:xlink="http://www.w3.org/1999/xlink">
    <!-- Generator: Sketch 44.1 (41455) - http://www.bohemiancoding.com/sketch -->
    <title>Bold/SVG/flag</title>
    <desc>Created with Sketch.</desc>
    <defs></defs>
    <g id="Bold-Outline" stroke="none" stroke-width="1" fill="none" fill-rule="evenodd">
        <g id="flag" fill-rule="nonzero" fill="#000000">
            <path d="M3.29289322,2.29289322 C3.47385763,2.11192881 3.72385763,2 4,2 L9,2 C9.86548085,2 10.7076153,2.28071149 11.4,2.8 L13.8,4.6 C14.1461923,4.85964426 14.5672596,5 15,5 L19,5 C20.1045695,5 21,5.8954305 21,7 L21,17 C21,18.1045695 20.1045695,19 19,19 L15,19 C14.1345191,19 13.2923847,18.7192885 12.6,18.2 L10.2,16.4 C9.85380766,16.1403557 9.43274043,16 9,16 L5,16 L5,21 C5,21.5522847 4.55228475,22 4,22 C3.44771525,22 3,21.5522847 3,21 L3,3 C3,2.72385763 3.11192881,2.47385763 3.29289322,2.29289322 Z M5,4 L5,14 L9,14 C9.86548085,14 10.7076153,14.2807115 11.4,14.8 L13.8,16.6 C14.1461923,16.8596443 14.5672596,17 15,17 L19,17 L19,7 L15,7 C14.1345191,7 13.2923847,6.71928851 12.6,6.2 L10.2,4.4 C9.85380766,4.14035574 9.43274043,4 9,4 L5,4 Z" id="shape"></path>
        </g>
    </g>
</svg>