<?xml version="1.0" encoding="UTF-8"?>
<svg width="24px" height="24px" viewBox="0 0 24 24" version="1.1" xmlns="http://www.w3.org/2000/svg" xmlns:xlink="http://www.w3.org/1999/xlink">
    <!-- Generator: Sketch 44.1 (41455) - http://www.bohemiancoding.com/sketch -->
    <title>Bold/SVG/flash-off</title>
    <desc>Created with Sketch.</desc>
    <defs></defs>
    <g id="Bold-Outline" stroke="none" stroke-width="1" fill="none" fill-rule="evenodd">
        <g id="flash-off" fill-rule="nonzero" fill="#000000">
            <path d="M5.83541884,7.24963241 L2.10050506,3.51471863 C1.70998077,3.12419433 1.70998077,2.49102936 2.10050506,2.10050506 C2.49102936,1.70998077 3.12419433,1.70998077 3.51471863,2.10050506 L7.62397191,6.20975835 C7.63145241,6.21700897 7.63881433,6.2243713 7.6460555,6.23184193 L15.9761445,14.5619309 C15.986323,14.5716863 15.9962621,14.5816278 16.0059601,14.5917465 L21.8994949,20.4852814 C22.2900192,20.8758057 22.2900192,21.5089706 21.8994949,21.8994949 C21.5089706,22.2900192 20.8758057,22.2900192 20.4852814,21.8994949 L15.4673188,16.8815324 L12.313193,21.955561 C11.851219,22.6987366 10.9597533,23.0552935 10.112698,22.8356865 C9.04347814,22.5584814 8.40142336,21.4669883 8.67862851,20.3977684 L10.2076796,14.5 L6.74074803,14.5 C6.59790452,14.5 6.45547204,14.4846969 6.31588874,14.4543527 C5.23652953,14.2197094 4.55175199,13.1544999 4.7863953,12.0751407 L5.83541884,7.24963241 Z M7.51664774,8.9308613 L6.74074803,12.5 L11.0857864,12.5 L7.51664774,8.9308613 Z M12.4409752,13.8551888 L10.6146223,20.8996927 L14.0151174,15.429331 L12.4409752,13.8551888 Z M12.6195289,8.02590018 L15.3257828,3 L8.80579376,3.00007152 C8.52118248,3.4733736 7.9067723,3.62633773 7.43347021,3.34172645 C6.96016813,3.05711517 6.80720401,2.44270499 7.09181529,1.9694029 C7.20731868,1.77732338 7.35416325,1.60637378 7.52578723,1.46339803 C7.88288976,1.16590461 8.33421797,1 8.80596542,1 L17,1 C17.7566752,1 18.2392107,1.80786915 17.8804711,2.47409982 L15.1742172,7.5 L17.7009178,7.5 C18.0741033,7.5 18.4398451,7.60441201 18.756786,7.80142935 C19.6948807,8.38456928 19.9826284,9.61777358 19.3994884,10.5558682 L18.1744123,12.5266429 C17.8828423,12.9956903 17.2662402,13.1395641 16.7971928,12.8479942 C16.3281455,12.5564242 16.1842717,11.939822 16.4758416,11.4707747 L17.7009178,9.5 L13.5,9.5 C12.7433248,9.5 12.2607893,8.69213085 12.6195289,8.02590018 Z" id="shape"></path>
        </g>
    </g>
</svg>