<?xml version="1.0" encoding="UTF-8"?>
<svg width="24px" height="24px" viewBox="0 0 24 24" version="1.1" xmlns="http://www.w3.org/2000/svg" xmlns:xlink="http://www.w3.org/1999/xlink">
    <!-- Generator: Sketch 44.1 (41455) - http://www.bohemiancoding.com/sketch -->
    <title>Bold/SVG/flip-horizontal</title>
    <desc>Created with Sketch.</desc>
    <defs></defs>
    <g id="Bold-Outline" stroke="none" stroke-width="1" fill="none" fill-rule="evenodd">
        <g id="flip-horizontal" fill-rule="nonzero" fill="#000000">
            <path d="M13,22 C13,22.5522847 12.5522847,23 12,23 C11.4477153,23 11,22.5522847 11,22 L11,2 C11,1.44771525 11.4477153,1 12,1 C12.5522847,1 13,1.44771525 13,2 L13,22 Z M10,6.23606798 L10,17 C10,18.1045695 9.1045695,19 8,19 L2.61803399,19 C1.51346449,19 0.618033989,18.1045695 0.618033989,17 C0.618033989,16.6895098 0.690324172,16.3832837 0.829179607,16.1055728 L6.21114562,5.34164079 C6.70512412,4.35368379 7.9064702,3.9532351 8.89442719,4.4472136 C9.57199525,4.78599762 10,5.47852386 10,6.23606798 Z M14,6.23606798 C14,5.47852386 14.4280048,4.78599762 15.1055728,4.4472136 C16.0935298,3.9532351 17.2948759,4.35368379 17.7888544,5.34164079 L23.1708204,16.1055728 C23.3096758,16.3832837 23.381966,16.6895098 23.381966,17 C23.381966,18.1045695 22.4865355,19 21.381966,19 L16,19 C14.8954305,19 14,18.1045695 14,17 L14,6.23606798 Z M2.61803399,17 L8,17 L8,6.23606798 L2.61803399,17 Z M16,6.23606798 L16,17 L21.381966,17 L16,6.23606798 Z" id="Combined-Shape"></path>
        </g>
    </g>
</svg>