<?xml version="1.0" encoding="UTF-8"?>
<svg width="24px" height="24px" viewBox="0 0 24 24" version="1.1" xmlns="http://www.w3.org/2000/svg" xmlns:xlink="http://www.w3.org/1999/xlink">
    <!-- Generator: Sketch 44.1 (41455) - http://www.bohemiancoding.com/sketch -->
    <title>Bold/SVG/floder-add</title>
    <desc>Created with Sketch.</desc>
    <defs></defs>
    <g id="Bold-Outline" stroke="none" stroke-width="1" fill="none" fill-rule="evenodd">
        <g id="floder-add" fill-rule="nonzero" fill="#000000">
            <path d="M21,11 L3,11 L3,18 C3,19.1045695 3.8954305,20 5,20 L14,20 C14.5522847,20 15,20.4477153 15,21 C15,21.5522847 14.5522847,22 14,22 L5,22 C2.790861,22 1,20.209139 1,18 L1,6 C1,3.790861 2.790861,2 5,2 L7.75735931,2 C8.81822527,2 9.83564092,2.42142736 10.5857864,3.17157288 L12.4142136,5 L19,5 C21.209139,5 23,6.790861 23,9 L23,12 C23,12.5522847 22.5522847,13 22,13 C21.4477153,13 21,12.5522847 21,12 L21,11 Z M21,9 C21,7.8954305 20.1045695,7 19,7 L12.4142136,7 C11.8837806,7 11.3750728,6.78928632 11,6.41421356 L9.17157288,4.58578644 C8.79650012,4.21071368 8.28779229,4 7.75735931,4 L5,4 C3.8954305,4 3,4.8954305 3,6 L3,9 L21,9 Z M21,19 L21,21 C21,21.5522847 20.5522847,22 20,22 C19.4477153,22 19,21.5522847 19,21 L19,19 L17,19 C16.4477153,19 16,18.5522847 16,18 C16,17.4477153 16.4477153,17 17,17 L19,17 L19,15 C19,14.4477153 19.4477153,14 20,14 C20.5522847,14 21,14.4477153 21,15 L21,17 L23,17 C23.5522847,17 24,17.4477153 24,18 C24,18.5522847 23.5522847,19 23,19 L21,19 Z" id="shape"></path>
        </g>
    </g>
</svg>