<?xml version="1.0" encoding="UTF-8"?>
<svg width="24px" height="24px" viewBox="0 0 24 24" version="1.1" xmlns="http://www.w3.org/2000/svg" xmlns:xlink="http://www.w3.org/1999/xlink">
    <!-- Generator: Sketch 44.1 (41455) - http://www.bohemiancoding.com/sketch -->
    <title>Bold/SVG/help</title>
    <desc>Created with Sketch.</desc>
    <defs></defs>
    <g id="Bold-Outline" stroke="none" stroke-width="1" fill="none" fill-rule="evenodd">
        <g id="help" fill-rule="nonzero" fill="#000000">
            <path d="M12,23 C5.92486775,23 1,18.0751322 1,12 C1,5.92486775 5.92486775,1 12,1 C18.0751322,1 23,5.92486775 23,12 C23,18.0751322 18.0751322,23 12,23 Z M12,21 C16.9705627,21 21,16.9705627 21,12 C21,7.02943725 16.9705627,3 12,3 C7.02943725,3 3,7.02943725 3,12 C3,16.9705627 7.02943725,21 12,21 Z M16,9.5 C16,11.3638394 14.7252272,12.9299397 13,13.3739825 L13,14 C13,14.5522847 12.5522847,15 12,15 C11.4477153,15 11,14.5522847 11,14 L11,12.5 C11,11.9477153 11.4477153,11.5 12,11.5 C13.1045695,11.5 14,10.6045695 14,9.5 C14,8.3954305 13.1045695,7.5 12,7.5 C10.8954305,7.5 10,8.3954305 10,9.5 C10,10.0522847 9.55228475,10.5 9,10.5 C8.44771525,10.5 8,10.0522847 8,9.5 C8,7.290861 9.790861,5.5 12,5.5 C14.209139,5.5 16,7.290861 16,9.5 Z M11,17.5 C11,16.9477153 11.4477153,16.5 12,16.5 C12.5522847,16.5 13,16.9477153 13,17.5 C13,18.0522847 12.5522847,18.5 12,18.5 C11.4477153,18.5 11,18.0522847 11,17.5 Z" id="shape"></path>
        </g>
    </g>
</svg>