<?xml version="1.0" encoding="UTF-8"?>
<svg width="24px" height="24px" viewBox="0 0 24 24" version="1.1" xmlns="http://www.w3.org/2000/svg" xmlns:xlink="http://www.w3.org/1999/xlink">
    <!-- Generator: Sketch 44.1 (41455) - http://www.bohemiancoding.com/sketch -->
    <title>Bold/SVG/home</title>
    <desc>Created with Sketch.</desc>
    <defs></defs>
    <g id="Bold-Outline" stroke="none" stroke-width="1" fill="none" fill-rule="evenodd">
        <g id="home" fill-rule="nonzero" fill="#000000">
            <path d="M16,20.5 L18,20.5 C19.1045695,20.5 20,19.6045695 20,18.5 L20,9.9078632 C20,9.27037352 19.6960959,8.67107232 19.1818058,8.29437782 L13.1818058,3.89964648 C12.4782094,3.38429365 11.5217906,3.38429365 10.8181942,3.89964648 L4.81819421,8.29437782 C4.30390407,8.67107232 4,9.27037352 4,9.9078632 L4,18.5 C4,19.6045695 4.8954305,20.5 6,20.5 L8,20.5 L8,12.5 C8,11.9477153 8.44771525,11.5 9,11.5 L15,11.5 C15.5522847,11.5 16,11.9477153 16,12.5 L16,20.5 Z M14,20.5 L14,13.5 L10,13.5 L10,20.5 L14,20.5 Z M3.63638841,6.68089244 L9.63638841,2.2861611 C11.0435811,1.25545544 12.9564189,1.25545544 14.3636116,2.2861611 L20.3636116,6.68089244 C21.3921919,7.43428144 22,8.63288385 22,9.9078632 L22,18.5 C22,20.709139 20.209139,22.5 18,22.5 L6,22.5 C3.790861,22.5 2,20.709139 2,18.5 L2,9.9078632 C2,8.63288385 2.60780814,7.43428144 3.63638841,6.68089244 Z" id="shape"></path>
        </g>
    </g>
</svg>