<?xml version="1.0" encoding="UTF-8"?>
<svg width="24px" height="24px" viewBox="0 0 24 24" version="1.1" xmlns="http://www.w3.org/2000/svg" xmlns:xlink="http://www.w3.org/1999/xlink">
    <!-- Generator: Sketch 44.1 (41455) - http://www.bohemiancoding.com/sketch -->
    <title>Bold/SVG/indent-increase</title>
    <desc>Created with Sketch.</desc>
    <defs></defs>
    <g id="Bold-Outline" stroke="none" stroke-width="1" fill="none" fill-rule="evenodd">
        <g id="indent-increase" fill-rule="nonzero" fill="#000000">
            <path d="M21,3.5 C21.5522847,3.5 22,3.94771525 22,4.5 C22,5.05228475 21.5522847,5.5 21,5.5 L3,5.5 C2.44771525,5.5 2,5.05228475 2,4.5 C2,3.94771525 2.44771525,3.5 3,3.5 L21,3.5 Z M21,13.5 C21.5522847,13.5 22,13.9477153 22,14.5 C22,15.0522847 21.5522847,15.5 21,15.5 L12,15.5 C11.4477153,15.5 11,15.0522847 11,14.5 C11,13.9477153 11.4477153,13.5 12,13.5 L21,13.5 Z M21,8.5 C21.5522847,8.5 22,8.94771525 22,9.5 C22,10.0522847 21.5522847,10.5 21,10.5 L12,10.5 C11.4477153,10.5 11,10.0522847 11,9.5 C11,8.94771525 11.4477153,8.5 12,8.5 L21,8.5 Z M21,18.5 C21.5522847,18.5 22,18.9477153 22,19.5 C22,20.0522847 21.5522847,20.5 21,20.5 L3,20.5 C2.44771525,20.5 2,20.0522847 2,19.5 C2,18.9477153 2.44771525,18.5 3,18.5 L21,18.5 Z M5.19707906,7.90231269 L8.53040963,10.3928218 C9.41527282,11.0539503 9.59664562,12.3072242 8.93551711,13.1920874 C8.82208339,13.3439086 8.68764642,13.4788363 8.53623956,13.5928225 L5.20290899,16.1023092 C4.32046062,16.7666575 3.06653417,16.5898524 2.40218588,15.7074041 C2.14116343,15.3606901 2,14.9384804 2,14.5044951 L2,9.50449923 C2,8.39992973 2.8954305,7.50449923 4,7.50449923 C4.43149227,7.50449923 4.85141351,7.64404751 5.19707906,7.90231269 Z M4,9.50449923 L4,14.5044951 L7.33333057,11.9950084 L4,9.50449923 Z" id="shape"></path>
        </g>
    </g>
</svg>