<?xml version="1.0" encoding="UTF-8"?>
<svg width="24px" height="24px" viewBox="0 0 24 24" version="1.1" xmlns="http://www.w3.org/2000/svg" xmlns:xlink="http://www.w3.org/1999/xlink">
    <!-- Generator: Sketch 44.1 (41455) - http://www.bohemiancoding.com/sketch -->
    <title>Bold/SVG/landscape</title>
    <desc>Created with Sketch.</desc>
    <defs></defs>
    <g id="Bold-Outline" stroke="none" stroke-width="1" fill="none" fill-rule="evenodd">
        <g id="landscape" fill-rule="nonzero" fill="#000000">
            <path d="M7.89683766,10.1174556 C7.79692964,9.85769473 7.59328851,9.65132028 7.33488273,9.54795797 C6.82209922,9.34284456 6.24012877,9.59226047 6.03501537,10.105044 L3.02558923,17.6286093 C2.97834112,17.7467296 2.95406592,17.8727806 2.95406592,18 C2.95406592,18.5522847 3.40178117,19 3.95406592,19 L20.264837,19 C20.3677248,19 20.4699963,18.9841217 20.5680407,18.9529258 C21.0943271,18.785471 21.3852176,18.2230827 21.2177628,17.6967963 L17.3952536,5.6831961 C17.2849609,5.33656167 16.9951381,5.07715791 16.638444,5.00581908 C16.0968842,4.89750713 15.5700591,5.24872387 15.4617472,5.79028362 L13.6567743,14.8151482 C13.5223689,15.4871749 13.053226,16.043586 12.4135711,16.2896071 C11.382626,16.6861245 10.225439,16.1718192 9.8289217,15.1408741 L7.89683766,10.1174556 Z M9.76352888,9.39949742 L11.6956129,14.4229159 L13.5005858,5.39805135 C13.8255217,3.77337209 15.405997,2.71972188 17.0306763,3.04465773 C18.1007586,3.2586742 18.9702269,4.0368855 19.3011052,5.07678879 L23.1236144,17.090389 C23.6259786,18.6692482 22.7533071,20.3564131 21.174448,20.8587773 C20.8803148,20.9523652 20.5735003,21 20.264837,21 L3.95406592,21 C2.29721167,21 0.954065923,19.6568542 0.954065923,18 C0.954065923,17.6183417 1.02689152,17.2401888 1.16863585,16.885828 L4.17806199,9.36226263 C4.79340221,7.82391208 6.53931354,7.07566437 8.07766409,7.69100459 C8.85288142,8.00109152 9.46380481,8.62021486 9.76352888,9.39949742 Z" id="shape"></path>
        </g>
    </g>
</svg>