<?xml version="1.0" encoding="UTF-8"?>
<svg width="24px" height="24px" viewBox="0 0 24 24" version="1.1" xmlns="http://www.w3.org/2000/svg" xmlns:xlink="http://www.w3.org/1999/xlink">
    <!-- Generator: Sketch 44.1 (41455) - http://www.bohemiancoding.com/sketch -->
    <title>Bold/SVG/link-2</title>
    <desc>Created with Sketch.</desc>
    <defs></defs>
    <g id="Bold-Outline" stroke="none" stroke-width="1" fill="none" fill-rule="evenodd">
        <g id="link-2" fill-rule="nonzero" fill="#000000">
            <path d="M12.3535534,15.8890873 C12.7440777,15.498563 13.3772427,15.498563 13.767767,15.8890873 C14.1582912,16.2796116 14.1582912,16.9127766 13.767767,17.3033009 L10.9393398,20.131728 C8.98671837,22.0843494 5.82089348,22.0843494 3.86827202,20.131728 C1.91565056,18.1791065 1.91565056,15.0132816 3.86827202,13.0606602 L6.69669914,10.232233 C7.08722343,9.84170876 7.72038841,9.84170876 8.1109127,10.232233 C8.501437,10.6227573 8.501437,11.2559223 8.1109127,11.6464466 L5.28248558,14.4748737 C4.1109127,15.6464466 4.1109127,17.5459415 5.28248558,18.7175144 C6.45405845,19.8890873 8.35355339,19.8890873 9.52512627,18.7175144 L12.3535534,15.8890873 Z M12.3535534,7.40380592 C11.9630291,7.79433021 11.3298641,7.79433021 10.9393398,7.40380592 C10.5488155,7.01328163 10.5488155,6.38011665 10.9393398,5.98959236 L13.0606602,3.86827202 C15.0132816,1.91565056 18.1791065,1.91565056 20.131728,3.86827202 C22.0843494,5.82089348 22.0843494,8.98671837 20.131728,10.9393398 L18.0104076,13.0606602 C17.6198833,13.4511845 16.9867184,13.4511845 16.5961941,13.0606602 C16.2056698,12.6701359 16.2056698,12.0369709 16.5961941,11.6464466 L18.7175144,9.52512627 C19.8890873,8.35355339 19.8890873,6.45405845 18.7175144,5.28248558 C17.5459415,4.1109127 15.6464466,4.1109127 14.4748737,5.28248558 L12.3535534,7.40380592 Z M14.1213203,8.46446609 C14.5118446,8.0739418 15.1450096,8.0739418 15.5355339,8.46446609 C15.9260582,8.85499039 15.9260582,9.48815536 15.5355339,9.87867966 L9.87867966,15.5355339 C9.48815536,15.9260582 8.85499039,15.9260582 8.46446609,15.5355339 C8.0739418,15.1450096 8.0739418,14.5118446 8.46446609,14.1213203 L14.1213203,8.46446609 Z" id="shape"></path>
        </g>
    </g>
</svg>