<?xml version="1.0" encoding="UTF-8"?>
<svg width="24px" height="24px" viewBox="0 0 24 24" version="1.1" xmlns="http://www.w3.org/2000/svg" xmlns:xlink="http://www.w3.org/1999/xlink">
    <!-- Generator: Sketch 44.1 (41455) - http://www.bohemiancoding.com/sketch -->
    <title>Bold/SVG/list-add</title>
    <desc>Created with Sketch.</desc>
    <defs></defs>
    <g id="Bold-Outline" stroke="none" stroke-width="1" fill="none" fill-rule="evenodd">
        <g id="list-add" fill-rule="nonzero" fill="#000000">
            <path d="M3,7 C2.44771525,7 2,6.55228475 2,6 C2,5.44771525 2.44771525,5 3,5 L15,5 C15.5522847,5 16,5.44771525 16,6 C16,6.55228475 15.5522847,7 15,7 L3,7 Z M3,12 C2.44771525,12 2,11.5522847 2,11 C2,10.4477153 2.44771525,10 3,10 L15,10 C15.5522847,10 16,10.4477153 16,11 C16,11.5522847 15.5522847,12 15,12 L3,12 Z M3,17 C2.44771525,17 2,16.5522847 2,16 C2,15.4477153 2.44771525,15 3,15 L11,15 C11.5522847,15 12,15.4477153 12,16 C12,16.5522847 11.5522847,17 11,17 L3,17 Z M18,15 L18,13 C18,11.6666667 20,11.6666667 20,13 L20,15 L22,15 C23.3333333,15 23.3333333,17 22,17 L20,17 L20,19 C20,20.3333333 18,20.3333333 18,19 L18,17 L16,17 C14.6666667,17 14.6666667,15 16,15 L18,15 Z" id="shape"></path>
        </g>
    </g>
</svg>