<?xml version="1.0" encoding="UTF-8"?>
<svg width="24px" height="24px" viewBox="0 0 24 24" version="1.1" xmlns="http://www.w3.org/2000/svg" xmlns:xlink="http://www.w3.org/1999/xlink">
    <!-- Generator: Sketch 44.1 (41455) - http://www.bohemiancoding.com/sketch -->
    <title>Bold/SVG/location</title>
    <desc>Created with Sketch.</desc>
    <defs></defs>
    <g id="Bold-Outline" stroke="none" stroke-width="1" fill="none" fill-rule="evenodd">
        <g id="location" fill-rule="nonzero" fill="#000000">
            <path d="M13.2729298,23.2555492 C12.5338757,23.8654009 11.466124,23.8654008 10.7270701,23.2555491 C5.2769456,18.758223 2.5,14.3495105 2.5,10 C2.5,4.75329488 6.75329488,0.5 12,0.5 C17.2467051,0.5 21.5,4.75329488 21.5,10 C21.5,14.3495105 18.7230544,18.758223 13.2729298,23.2555492 Z M19.5,10 C19.5,5.85786438 16.1421356,2.5 12,2.5 C7.85786438,2.5 4.5,5.85786438 4.5,10 C4.5,13.6443863 6.96541108,17.5585028 12.0000001,21.712938 C17.0345889,17.5585029 19.5,13.6443863 19.5,10 Z M12,13 C9.790861,13 8,11.209139 8,9 C8,6.790861 9.790861,5 12,5 C14.209139,5 16,6.790861 16,9 C16,11.209139 14.209139,13 12,13 Z M12,11 C13.1045695,11 14,10.1045695 14,9 C14,7.8954305 13.1045695,7 12,7 C10.8954305,7 10,7.8954305 10,9 C10,10.1045695 10.8954305,11 12,11 Z" id="shape"></path>
        </g>
    </g>
</svg>