<?xml version="1.0" encoding="UTF-8"?>
<svg width="24px" height="24px" viewBox="0 0 24 24" version="1.1" xmlns="http://www.w3.org/2000/svg" xmlns:xlink="http://www.w3.org/1999/xlink">
    <!-- Generator: Sketch 44.1 (41455) - http://www.bohemiancoding.com/sketch -->
    <title>Bold/SVG/lock</title>
    <desc>Created with Sketch.</desc>
    <defs></defs>
    <g id="Bold-Outline" stroke="none" stroke-width="1" fill="none" fill-rule="evenodd">
        <g id="lock" fill-rule="nonzero" fill="#000000">
            <path d="M17,7.5 C19.209139,7.5 21,9.290861 21,11.5 L21,18.5 C21,20.709139 19.209139,22.5 17,22.5 L7,22.5 C4.790861,22.5 3,20.709139 3,18.5 L3,11.5 C3,9.290861 4.790861,7.5 7,7.5 L7,6.5 C7,3.73857625 9.23857625,1.5 12,1.5 C14.7614237,1.5 17,3.73857625 17,6.5 L17,7.5 Z M7,9.5 C5.8954305,9.5 5,10.3954305 5,11.5 L5,18.5 C5,19.6045695 5.8954305,20.5 7,20.5 L17,20.5 C18.1045695,20.5 19,19.6045695 19,18.5 L19,11.5 C19,10.3954305 18.1045695,9.5 17,9.5 L7,9.5 Z M15,7.5 L15,6.5 C15,4.84314575 13.6568542,3.5 12,3.5 C10.3431458,3.5 9,4.84314575 9,6.5 L9,7.5 L15,7.5 Z M12,18.5 C10.0670034,18.5 8.5,16.9329966 8.5,15 C8.5,13.0670034 10.0670034,11.5 12,11.5 C13.9329966,11.5 15.5,13.0670034 15.5,15 C15.5,16.9329966 13.9329966,18.5 12,18.5 Z M12,16.5 C12.8284271,16.5 13.5,15.8284271 13.5,15 C13.5,14.1715729 12.8284271,13.5 12,13.5 C11.1715729,13.5 10.5,14.1715729 10.5,15 C10.5,15.8284271 11.1715729,16.5 12,16.5 Z" id="shape"></path>
        </g>
    </g>
</svg>