<?xml version="1.0" encoding="UTF-8"?>
<svg width="24px" height="24px" viewBox="0 0 24 24" version="1.1" xmlns="http://www.w3.org/2000/svg" xmlns:xlink="http://www.w3.org/1999/xlink">
    <!-- Generator: Sketch 44.1 (41455) - http://www.bohemiancoding.com/sketch -->
    <title>Bold/SVG/man</title>
    <desc>Created with Sketch.</desc>
    <defs></defs>
    <g id="Bold-Outline" stroke="none" stroke-width="1" fill="none" fill-rule="evenodd">
        <g id="man" fill-rule="nonzero" fill="#000000">
            <path d="M8.00776606,15 L8.7732898,21.1242875 C8.83584252,21.6247171 9.26124391,22.0002547 9.76556792,22.0002547 L14.2344321,22.0002547 C14.7387561,22.0002547 15.1641575,21.6247171 15.2267102,21.1242875 L15.9922339,15 L8.00776606,15 Z M7.75777003,13 L16.24223,13 L16.5862163,10.2480656 C16.5965022,10.1657772 16.6016601,10.0829287 16.6016601,10 C16.6016601,8.8954305 15.7062296,8 14.6016601,8 L9.39833995,8 C9.3154112,8 9.23256274,8.00515788 9.15027437,8.01544376 C8.05423422,8.1524466 7.27678087,9.15202544 7.41378371,10.2480656 L7.75777003,13 Z M8.58473701,6.08340528 C8.21378285,5.47660955 8,4.76327061 8,4 C8,1.790861 9.790861,0 12,0 C14.209139,0 16,1.790861 16,4 C16,4.76304547 15.7863432,5.47618873 15.4155912,6.0828683 C17.2344381,6.45884915 18.6016601,8.06975868 18.6016601,10 C18.6016601,10.1658575 18.5913443,10.3315544 18.5707725,10.4961312 L17.2112664,21.372353 C17.0236083,22.8736421 15.7474041,24.0002547 14.2344321,24.0002547 L9.76556792,24.0002547 C8.25259588,24.0002547 6.97639171,22.8736421 6.78873356,21.372353 L5.42922747,10.4961312 C5.1686466,8.41145104 6.56215459,6.50125229 8.58473701,6.08340528 Z M12,6 C13.1045695,6 14,5.1045695 14,4 C14,2.8954305 13.1045695,2 12,2 C10.8954305,2 10,2.8954305 10,4 C10,5.1045695 10.8954305,6 12,6 Z" id="shape"></path>
        </g>
    </g>
</svg>