<?xml version="1.0" encoding="UTF-8"?>
<svg width="24px" height="24px" viewBox="0 0 24 24" version="1.1" xmlns="http://www.w3.org/2000/svg" xmlns:xlink="http://www.w3.org/1999/xlink">
    <!-- Generator: Sketch 44.1 (41455) - http://www.bohemiancoding.com/sketch -->
    <title>Bold/SVG/milk-carton</title>
    <desc>Created with Sketch.</desc>
    <defs></defs>
    <g id="Bold-Outline" stroke="none" stroke-width="1" fill="none" fill-rule="evenodd">
        <g id="milk-carton" fill-rule="nonzero" fill="#000000">
            <path d="M18,8.44365063 L16.7661904,10.5 L19.2338096,10.5 L18,8.44365063 Z M16.2338096,7.5 L6.56619038,7.5 L4.76619038,10.5 L14.4338096,10.5 L16.2338096,7.5 Z M16,20.5 L19,20.5 C19.5522847,20.5 20,20.0522847 20,19.5 L20,12.5 L16,12.5 L16,20.5 Z M14,20.5 L14,12.5 L4,12.5 L4,19.5 C4,20.0522847 4.44771525,20.5 5,20.5 L14,20.5 Z M17,5.5 L17,3.5 L7,3.5 L7,5.5 L17,5.5 Z M7,1.5 L17,1.5 C18.1045695,1.5 19,2.3954305 19,3.5 L19,5.94603207 C19,6.12727602 19.0492578,6.30511242 19.1425071,6.46052783 L21.5724788,10.5104807 C21.8522265,10.9767269 22,11.5102361 22,12.0539679 L22,19.5 C22,21.1568542 20.6568542,22.5 19,22.5 L5,22.5 C3.34314575,22.5 2,21.1568542 2,19.5 L2,12.0539679 C2,11.5102361 2.1477735,10.9767269 2.42752122,10.5104807 L4.85749293,6.46052783 C4.95074217,6.30511242 5,6.12727602 5,5.94603207 L5,3.5 C5,2.3954305 5.8954305,1.5 7,1.5 Z" id="shape"></path>
        </g>
    </g>
</svg>