<?xml version="1.0" encoding="UTF-8"?>
<svg width="24px" height="24px" viewBox="0 0 24 24" version="1.1" xmlns="http://www.w3.org/2000/svg" xmlns:xlink="http://www.w3.org/1999/xlink">
    <!-- Generator: Sketch 44.1 (41455) - http://www.bohemiancoding.com/sketch -->
    <title>Bold/SVG/navigation</title>
    <desc>Created with Sketch.</desc>
    <defs></defs>
    <g id="Bold-Outline" stroke="none" stroke-width="1" fill="none" fill-rule="evenodd">
        <g id="navigation" fill-rule="nonzero" fill="#000000">
            <path d="M15.7442023,20.226782 C15.2268993,21.6062567 13.6892573,22.3051849 12.3097827,21.7878819 C11.4261978,21.4565376 10.7834213,20.6830232 10.6194255,19.7537134 L9.80206478,15.1220027 C9.72902345,14.7081018 9.40496745,14.3840458 8.99106656,14.3110045 L4.3593559,13.4936438 C2.90849444,13.2376094 1.9398957,11.853897 2.19593008,10.4030355 C2.35992592,9.47372572 3.00270237,8.70021131 3.88628724,8.36886699 L18.739103,2.79906109 C19.7733436,2.41122085 20.926168,2.93523191 21.3140082,3.96947257 C21.4837971,4.42224286 21.4837971,4.92119604 21.3140082,5.37396633 L15.7442023,20.226782 Z M19.4413498,4.67171945 L4.58853413,10.2415253 C4.36740392,10.3244492 4.20653959,10.5180326 4.1654972,10.7506062 C4.1014208,11.1137057 4.34382699,11.4600003 4.70692657,11.5240767 L9.33863723,12.3414374 C10.5803399,12.5605614 11.5525079,13.5327294 11.7716319,14.7744321 L12.5889926,19.4061427 C12.630035,19.6387163 12.7908993,19.8322997 13.0120295,19.9152235 C13.3572635,20.0446863 13.7420812,19.8697691 13.871544,19.5245352 L19.4413498,4.67171945 Z" id="shape"></path>
        </g>
    </g>
</svg>