<?xml version="1.0" encoding="UTF-8"?>
<svg width="24px" height="24px" viewBox="0 0 24 24" version="1.1" xmlns="http://www.w3.org/2000/svg" xmlns:xlink="http://www.w3.org/1999/xlink">
    <!-- Generator: Sketch 44.1 (41455) - http://www.bohemiancoding.com/sketch -->
    <title>Bold/SVG/notification-off</title>
    <desc>Created with Sketch.</desc>
    <defs></defs>
    <g id="Bold-Outline" stroke="none" stroke-width="1" fill="none" fill-rule="evenodd">
        <g id="notification-off" fill-rule="nonzero" fill="#000000">
            <path d="M5.99997623,13.5 L5.99997623,9 C5.99997623,5.6862915 8.68626773,3 11.9999762,3 C13.0324477,3 14.0248829,3.26025457 14.9065536,3.74955362 C15.3894577,4.01754998 15.9981828,3.84333282 16.2661792,3.36042869 C16.5341755,2.87752456 16.3599584,2.26879945 15.8770542,2.00080309 C14.7003253,1.34775612 13.3742183,1 11.9999762,1 C7.58169823,1 3.99997623,4.581722 3.99997623,9 L3.99997623,13.5 C3.99997623,14.0522847 4.44769148,14.5 4.99997623,14.5 C5.55226098,14.5 5.99997623,14.0522847 5.99997623,13.5 Z M19.4170331,5.99718048 C19.8002636,6.94291596 19.9999762,7.95830196 19.9999762,9 L19.9999762,14.283142 L21.5425659,16.2756536 C22.2187537,17.1490629 22.0588741,18.4052596 21.1854648,19.0814474 C20.8350011,19.3527742 20.4043374,19.5 19.9611184,19.5 L15.9690531,19.5 C15.7230041,21.4731558 14.0398088,23 12,23 C9.96019117,23 8.27699592,21.4731558 8.03094688,19.5 L6.20710678,19.5 C6.11752712,19.5 6.0306985,19.4882214 5.94808518,19.4661284 L3.51471863,21.8994949 C3.12419433,22.2900192 2.49102936,22.2900192 2.10050506,21.8994949 C1.70998077,21.5089706 1.70998077,20.8758057 2.10050506,20.4852814 L20.4852814,2.10050506 C20.8758057,1.70998077 21.5089706,1.70998077 21.8994949,2.10050506 C22.2900192,2.49102936 22.2900192,3.12419433 21.8994949,3.51471863 L19.4170361,5.99717747 Z M17.8317935,7.58242007 L7.91421356,17.5 L19.9611184,17.5 L18.2092525,15.2371732 C18.0735891,15.0619413 17.9999762,14.8466095 17.9999762,14.625 L17.9999762,9 C17.9999762,8.51655135 17.9429659,8.04169668 17.8317935,7.58242007 Z M13.9369913,19.5 L10.0630087,19.5 C10.2850301,20.3626136 11.0680803,21 12,21 C12.9319197,21 13.7149699,20.3626136 13.9369913,19.5 Z" id="shape"></path>
        </g>
    </g>
</svg>