<?xml version="1.0" encoding="UTF-8"?>
<svg width="24px" height="24px" viewBox="0 0 24 24" version="1.1" xmlns="http://www.w3.org/2000/svg" xmlns:xlink="http://www.w3.org/1999/xlink">
    <!-- Generator: Sketch 44.1 (41455) - http://www.bohemiancoding.com/sketch -->
    <title>Bold/SVG/phone-talking</title>
    <desc>Created with Sketch.</desc>
    <defs></defs>
    <g id="Bold-Outline" stroke="none" stroke-width="1" fill="none" fill-rule="evenodd">
        <g id="phone-talking" fill-rule="nonzero" fill="#000000">
            <path d="M18.1152162,21.0915513 C18.5212536,21.0654015 18.8709638,20.7958454 18.9996301,20.4098465 L19.7174049,18.2565222 C19.8371831,17.8971875 19.7436606,17.5010199 19.4758283,17.2331876 L17.6464452,15.4038045 C17.3194879,15.0768472 16.8110086,15.0166839 16.4167764,15.2583101 L14.7214668,16.2973708 C13.5387703,17.0222493 12.0133323,16.8417594 11.0324603,15.8608874 L8.45405707,13.2824842 C7.47318505,12.3016122 7.29269516,10.7761742 8.01757366,9.59347768 L9.05663439,7.89816807 C9.29826055,7.5039359 9.23809726,6.99545657 8.91113992,6.66849923 L7.08175681,4.83911612 C6.81392452,4.57128383 6.41775699,4.47776136 6.05842226,4.5975396 L3.90509794,5.31531438 C3.51909904,5.44398068 3.24954297,5.79369088 3.22339312,6.19972826 C3.09672305,8.16657617 5.00718028,11.249821 9.03615188,15.2787926 C13.0651235,19.3077642 16.1483683,21.2182214 18.1152162,21.0915513 Z M18.2437551,23.0874165 C15.5170706,23.263022 12.0333551,21.1044229 7.62193832,16.6930061 C3.2105216,12.2815894 1.05192245,8.79787386 1.22752796,6.07118942 C1.30597749,4.85307728 2.1146457,3.80394668 3.2726424,3.41794778 L5.42596673,2.70017301 C6.50397091,2.34083828 7.6924735,2.62140569 8.49597037,3.42490256 L10.3253535,5.25428567 C11.3062255,6.23515769 11.4867154,7.76059568 10.7618369,8.94329218 L9.72277616,10.6386018 C9.48115,11.032834 9.54131329,11.5413133 9.86827063,11.8682706 L12.4466738,14.4466738 C12.7736312,14.7736312 13.2821105,14.8337945 13.6763427,14.5921683 L15.3716523,13.5531076 C16.5543488,12.8282291 18.0797868,13.008719 19.0606588,13.989591 L20.8900419,15.8189741 C21.6935388,16.622471 21.9741062,17.8109735 21.6147714,18.8889777 L20.8969967,21.042302 C20.5109978,22.2002987 19.4618672,23.0089669 18.2437551,23.0874165 Z M22.2500561,9.97490614 C22.1708297,10.5214788 21.6635194,10.9003377 21.1169467,10.8211114 C20.5703741,10.741885 20.1915151,10.2345746 20.2707415,9.68800203 C20.5053343,8.06957646 19.9718628,6.42159774 18.7855251,5.23526001 C17.5991873,4.04892227 15.9512086,3.51545074 14.332783,3.75004354 C13.7862104,3.82926992 13.2789001,3.45041094 13.1996737,2.90383833 C13.1204473,2.35726571 13.4993063,1.84995539 14.0458789,1.770729 C16.2832075,1.44642544 18.5631704,2.18447826 20.1997386,3.82104644 C21.8363068,5.45761463 22.5743596,7.73757758 22.2500561,9.97490614 Z M18.5791054,10.5511623 C18.4976801,11.0974117 17.9888493,11.4742261 17.4425999,11.3928007 C16.8963505,11.3113754 16.5195362,10.8025446 16.6009615,10.2562952 C16.718353,9.46876348 16.4629781,8.67058195 15.889682,8.09728579 C15.3163858,7.52398963 14.5182043,7.26861481 13.7306725,7.38600628 C13.1844232,7.46743158 12.6755923,7.09061723 12.594167,6.54436787 C12.5127417,5.99811851 12.8895561,5.48928766 13.4358054,5.40786236 C14.8436785,5.19800125 16.2776025,5.65677917 17.3038955,6.68307223 C18.3301886,7.70936528 18.7889665,9.14328924 18.5791054,10.5511623 Z" id="shape"></path>
        </g>
    </g>
</svg>