<?xml version="1.0" encoding="UTF-8"?>
<svg width="24px" height="24px" viewBox="0 0 24 24" version="1.1" xmlns="http://www.w3.org/2000/svg" xmlns:xlink="http://www.w3.org/1999/xlink">
    <!-- Generator: Sketch 44.1 (41455) - http://www.bohemiancoding.com/sketch -->
    <title>Bold/SVG/photo</title>
    <desc>Created with Sketch.</desc>
    <defs></defs>
    <g id="Bold-Outline" stroke="none" stroke-width="1" fill="none" fill-rule="evenodd">
        <g id="photo" fill-rule="nonzero" fill="#000000">
            <path d="M22,14.9898988 C22.0000784,14.9971428 22.0000785,15.0043896 22,15.0116379 L22,18 C22,20.209139 20.209139,22 18,22 L6,22 C3.790861,22 2,20.209139 2,18 L2,6 C2,3.790861 3.790861,2 6,2 L18,2 C20.209139,2 22,3.790861 22,6 L22,14.9898987 Z M20,13 L20,6 C20,4.8954305 19.1045695,4 18,4 L6,4 C4.8954305,4 4,4.8954305 4,6 L4,18 C4,18.4284811 4.1347439,18.8254911 4.36417046,19.1509687 L6.99520524,15.2044165 C7.91426262,13.8258304 9.77687065,13.4533088 11.1554567,14.3723662 C11.2016372,14.4031532 11.2469545,14.4352159 11.2913561,14.4685171 L12.8246095,15.6184571 L15.0081746,12.8890007 C16.0204129,11.6237029 17.8544836,11.3908627 19.1507811,12.3630858 L20,13 Z M20,15.5 L17.9507811,13.9630858 C17.5186819,13.6390114 16.907325,13.7166248 16.5699122,14.1383907 L13.7808688,17.624695 C13.4434561,18.046461 12.8320991,18.1240744 12.4,17.8 L10.0913561,16.0685171 C10.0765556,16.0574167 10.0614498,16.0467291 10.0460563,16.0364668 C9.58652763,15.7301143 8.96565829,15.8542882 8.65930583,16.3138169 L6.20185043,20 L18,20 C19.1045695,20 20,19.1045695 20,18 L20,15.5 Z M8.5,12 C6.56700338,12 5,10.4329966 5,8.5 C5,6.56700338 6.56700338,5 8.5,5 C10.4329966,5 12,6.56700338 12,8.5 C12,10.4329966 10.4329966,12 8.5,12 Z M8.5,10 C9.32842712,10 10,9.32842712 10,8.5 C10,7.67157288 9.32842712,7 8.5,7 C7.67157288,7 7,7.67157288 7,8.5 C7,9.32842712 7.67157288,10 8.5,10 Z" id="shape"></path>
        </g>
    </g>
</svg>