<?xml version="1.0" encoding="UTF-8"?>
<svg width="24px" height="24px" viewBox="0 0 24 24" version="1.1" xmlns="http://www.w3.org/2000/svg" xmlns:xlink="http://www.w3.org/1999/xlink">
    <!-- Generator: Sketch 44.1 (41455) - http://www.bohemiancoding.com/sketch -->
    <title>Bold/SVG/piggy-bank</title>
    <desc>Created with Sketch.</desc>
    <defs></defs>
    <g id="Bold-Outline" stroke="none" stroke-width="1" fill="none" fill-rule="evenodd">
        <g id="piggy-bank" fill-rule="nonzero" fill="#000000">
            <path d="M18.6066118,8.4261894 C19.7014136,8.15407256 20.5,7.16265273 20.5,6 C20.5,4.61928813 19.3807119,3.5 18,3.5 C16.6192881,3.5 15.5,4.61928813 15.5,6 C15.5,6.2360588 15.5324636,6.46672999 15.5955087,6.68772818 L18.6066118,8.4261894 Z M13.515385,5.6252143 C13.7058396,3.31528833 15.6409281,1.5 18,1.5 C20.4852814,1.5 22.5,3.51471863 22.5,6 C22.5,7.48392662 21.7780149,8.81229696 20.6544625,9.63454033 C20.9958915,9.94398421 21.0878306,10.4597333 20.8480762,10.875 C20.5719338,11.3532926 19.9603434,11.5171678 19.4820508,11.2410254 L12.9868603,7.4910254 C12.5085677,7.21488303 12.3446925,6.60329262 12.6208349,6.125 C12.810981,5.79565732 13.1601771,5.61539325 13.515385,5.6252143 Z M4.18236622,7.74862477 C4.42205753,7.32406767 4.69546548,6.91751012 5,6.53239295 L5,3 C5,1.8954305 5.8954305,1 7,1 C7.36248789,1 7.71816071,1.09851567 8.02899151,1.28501415 L10.8735709,2.99176176 C11.3471511,3.27590992 11.5007162,3.89017018 11.216568,4.36375045 C10.9324199,4.83733071 10.3181596,4.99089578 9.84457936,4.70674762 L7,3 L7,6.89077163 C7,7.12941466 6.91465656,7.36019028 6.75938568,7.54141239 C6.295021,8.0833887 5.91292953,8.68272845 5.62509492,9.3224279 C5.42647638,9.76384865 4.94021638,9.99964012 4.47062171,9.88224145 L3,9.51458603 L3,12.6157756 L4.73607423,13.4838127 C4.98982128,13.6106863 5.17773678,13.8393674 5.25301437,14.1128957 C5.51063572,15.0489875 5.96005654,15.9266608 6.57405921,16.7013574 C6.80217143,16.98917 6.85416996,17.3788611 6.70950376,17.7164156 L5.51653902,20.5 L8.34060384,20.5 L8.67852012,19.7115287 C8.89047113,19.2169763 9.45574492,18.9787875 9.95771585,19.1725152 C10.9136475,19.541442 11.9416499,19.7338096 13,19.7338096 C13.8210106,19.7338096 14.6242423,19.6180852 15.3908402,19.3932747 C15.9234164,19.2370928 16.4812991,19.5444919 16.6337706,20.0781422 L16.7543014,20.5 L19.67427,20.5 L18.9474444,17.9561103 C18.8536485,17.6278245 18.9338242,17.2743719 19.1600857,17.0186866 C20.0200791,16.0468568 20.606361,14.8890523 20.85894,13.6439915 C20.9687425,13.102732 21.4965325,12.752967 22.037792,12.8627695 C22.5790515,12.9725719 22.9288166,13.500362 22.8190141,14.0416215 C22.5323563,15.4546702 21.9122498,16.7754351 21.0157937,17.9152232 L21.5973179,19.9505577 C21.9007665,21.0126278 21.2857823,22.1195993 20.2237123,22.4230479 C20.0450293,22.4741002 19.8601031,22.5 19.67427,22.5 L16.7543014,22.5 C16.0420594,22.5 15.3986465,22.1234012 15.042906,21.5352774 C14.3761249,21.6668067 13.6925317,21.7338096 13,21.7338096 C12.0254406,21.7338096 11.06932,21.6010869 10.1540684,21.3434264 C9.82691636,22.0471442 9.12031765,22.5 8.34060384,22.5 L5.51653902,22.5 C4.41196952,22.5 3.51653902,21.6045695 3.51653902,20.5 C3.51653902,20.2291464 3.57155451,19.9611151 3.67824896,19.7121614 L4.64502727,17.4563453 C4.13565428,16.7221827 3.73502098,15.9231384 3.45677739,15.0802323 L2.10557281,14.40463 C1.42800475,14.065846 1,13.3733197 1,12.6157756 L1,9.51458603 C1,8.41001653 1.8954305,7.51458603 3,7.51458603 C3.16352361,7.51458603 3.32643004,7.53464073 3.48507125,7.57430103 L4.18236622,7.74862477 Z M8.5,10.5 C7.94771525,10.5 7.5,10.0522847 7.5,9.5 C7.5,8.94771525 7.94771525,8.5 8.5,8.5 C9.05228475,8.5 9.5,8.94771525 9.5,9.5 C9.5,10.0522847 9.05228475,10.5 8.5,10.5 Z" id="shape"></path>
        </g>
    </g>
</svg>