<?xml version="1.0" encoding="UTF-8"?>
<svg width="24px" height="24px" viewBox="0 0 24 24" version="1.1" xmlns="http://www.w3.org/2000/svg" xmlns:xlink="http://www.w3.org/1999/xlink">
    <!-- Generator: Sketch 44.1 (41455) - http://www.bohemiancoding.com/sketch -->
    <title>Bold/SVG/radar-scan</title>
    <desc>Created with Sketch.</desc>
    <defs></defs>
    <g id="Bold-Outline" stroke="none" stroke-width="1" fill="none" fill-rule="evenodd">
        <g id="radar-scan" fill-rule="nonzero" fill="#000000">
            <path d="M6.38198626,19.0322273 C9.91567798,21.8624266 15.0882509,21.6396711 18.363961,18.363961 C21.8786797,14.8492424 21.8786797,9.15075759 18.363961,5.63603897 C15.0882509,2.36032887 9.91567798,2.13757344 6.38198626,4.9677727 L7.80748531,6.39327174 C10.5493087,4.33766673 14.4561553,4.55666033 16.9497475,7.05025253 C19.6834175,9.78392257 19.6834175,14.2160774 16.9497475,16.9497475 C14.4561553,19.4433397 10.5493087,19.6623333 7.80748531,17.6067283 L6.38198626,19.0322273 L6.38198626,19.0322273 Z M4.9677727,17.6180137 L10.5857864,12 L4.9677727,6.38198626 C2.34407577,9.65784611 2.34407577,14.3421539 4.9677727,17.6180137 L4.9677727,17.6180137 Z M10.8951246,9.48091099 C11.9023089,9.03946093 13.1200633,9.23097605 13.9445436,10.0554564 C15.0184855,11.1293982 15.0184855,12.8706018 13.9445436,13.9445436 C13.1200633,14.7690239 11.9023089,14.9605391 10.8951246,14.519089 L9.24229636,16.1719172 C11.1836656,17.4581232 13.8250724,17.2459954 15.5355339,15.5355339 C17.4881554,13.5829124 17.4881554,10.4170876 15.5355339,8.46446609 C13.8250724,6.75400455 11.1836656,6.54187679 9.24229636,7.8280828 L10.8951246,9.48091099 L10.8951246,9.48091099 Z M19.7781746,4.22182541 C24.0739418,8.51759262 24.0739418,15.4824074 19.7781746,19.7781746 C15.4824074,24.0739418 8.51759262,24.0739418 4.22182541,19.7781746 C-0.0739418023,15.4824074 -0.0739418023,8.51759262 4.22182541,4.22182541 C8.51759262,-0.0739418023 15.4824074,-0.0739418023 19.7781746,4.22182541 Z" id="Combined-Shape"></path>
        </g>
    </g>
</svg>