<?xml version="1.0" encoding="UTF-8"?>
<svg width="24px" height="24px" viewBox="0 0 24 24" version="1.1" xmlns="http://www.w3.org/2000/svg" xmlns:xlink="http://www.w3.org/1999/xlink">
    <!-- Generator: Sketch 44.1 (41455) - http://www.bohemiancoding.com/sketch -->
    <title>Bold/SVG/redo</title>
    <desc>Created with Sketch.</desc>
    <defs></defs>
    <g id="Bold-Outline" stroke="none" stroke-width="1" fill="none" fill-rule="evenodd">
        <g id="redo" fill-rule="nonzero" fill="#000000">
            <path d="M19.3143164,14 C18.6479827,12.1758491 17.3673698,10.6272384 15.6385188,9.62908588 C11.6339742,7.31706093 6.51338272,8.68911927 4.20135777,12.693664 C3.83110661,13.3349578 3.55071271,14.0124001 3.36250676,14.7130455 C3.21923216,15.2464223 2.6706978,15.5626626 2.13732098,15.419388 C1.60394416,15.2761134 1.28770383,14.7275791 1.43097843,14.1942022 C1.66431786,13.3255358 2.01167787,12.4863008 2.46930696,11.693664 C5.33361666,6.73253402 11.6773889,5.03272537 16.6385188,7.89703508 C18.6229218,9.04273067 20.1326464,10.7773233 21,12.8244052 L21,9 C21,8.44771525 21.4477153,8 22,8 C22.5522847,8 23,8.44771525 23,9 L23,14 C23,15.1045695 22.1045695,16 21,16 L16,16 C15.4477153,16 15,15.5522847 15,15 C15,14.4477153 15.4477153,14 16,14 L19.3143164,14 Z" id="shape"></path>
        </g>
    </g>
</svg>