<?xml version="1.0" encoding="UTF-8"?>
<svg width="24px" height="24px" viewBox="0 0 24 24" version="1.1" xmlns="http://www.w3.org/2000/svg" xmlns:xlink="http://www.w3.org/1999/xlink">
    <!-- Generator: Sketch 44.1 (41455) - http://www.bohemiancoding.com/sketch -->
    <title>Bold/SVG/rocket-fly</title>
    <desc>Created with Sketch.</desc>
    <defs></defs>
    <g id="Bold-Outline" stroke="none" stroke-width="1" fill="none" fill-rule="evenodd">
        <g id="rocket-fly" fill-rule="nonzero" fill="#000000">
            <path d="M10.8367176,18.3021687 C10.4393923,18.3773396 10.0532771,18.4205379 9.6815871,18.4303777 C9.40455373,18.4377116 9.1368995,18.3297526 8.942484,18.1322586 L5.65110409,14.7887606 C5.45821203,14.5928141 5.35451162,14.3260891 5.36438874,14.0513077 C5.37708937,13.6979764 5.41962889,13.3318618 5.49081725,12.955714 L3.31516705,13.5489002 C2.14556283,13.8677902 0.938899844,13.1781501 0.620009835,12.0085458 C0.412820645,11.2486307 0.628669544,10.4359589 1.18562484,9.87900364 L3.48876225,7.57586623 C4.23870148,6.82592699 5.25577329,6.40451666 6.31634751,6.40429344 L8.98222957,6.40373236 C9.31191435,6.02211503 9.6600925,5.64751937 10.0251263,5.28248559 C14.2707874,1.03682451 19.5695576,-0.729432246 22.0459416,1.74695168 C24.5223255,4.22333561 22.7560687,9.52210589 18.5104077,13.767767 C18.1452349,14.1329397 17.7705067,14.4812264 17.3887776,14.8109896 L17.3882438,17.4761765 C17.3880314,18.5367648 16.9666202,19.5538532 16.216671,20.3038024 L13.9135463,22.6069272 C13.356591,23.1638825 12.5439192,23.3797314 11.784004,23.1725422 C10.6143998,22.8536522 9.9247597,21.6469892 10.2436497,20.477385 L10.8367176,18.3021687 Z M12.7378176,15.5458506 C14.2073824,14.8290594 15.7216804,13.7280671 17.0961941,12.3535534 C20.6610189,8.78872863 22.060587,4.59002423 20.631728,3.16116524 C19.202869,1.73230625 15.0041646,3.13187438 11.4393398,6.69669915 C10.1010534,8.03498556 9.02164563,9.50612173 8.30348582,10.9408558 C7.8027988,11.9411244 7.49580094,12.8895179 7.39610204,13.7104813 L10.0448946,16.4012168 C10.8424489,16.310073 11.7635868,16.021039 12.7378176,15.5458506 Z M2.70710678,22.7071068 C2.31658249,23.0976311 1.68341751,23.0976311 1.29289322,22.7071068 C0.902368927,22.3165825 0.902368927,21.6834175 1.29289322,21.2928932 L5.29289322,17.2928932 C5.68341751,16.9023689 6.31658249,16.9023689 6.70710678,17.2928932 C7.09763107,17.6834175 7.09763107,18.3165825 6.70710678,18.7071068 L2.70710678,22.7071068 Z M15.8587572,10.934136 C14.201903,10.934136 12.8587572,9.59099026 12.8587572,7.93413601 C12.8587572,6.27728176 14.201903,4.93413601 15.8587572,4.93413601 C17.5156115,4.93413601 18.8587572,6.27728176 18.8587572,7.93413601 C18.8587572,9.59099026 17.5156115,10.934136 15.8587572,10.934136 Z M15.8587572,8.93413601 C16.411042,8.93413601 16.8587572,8.48642076 16.8587572,7.93413601 C16.8587572,7.38185126 16.411042,6.93413601 15.8587572,6.93413601 C15.3064725,6.93413601 14.8587572,7.38185126 14.8587572,7.93413601 C14.8587572,8.48642076 15.3064725,8.93413601 15.8587572,8.93413601 Z M7.44887785,8.40405512 L6.31676844,8.4042934 C5.78648133,8.404405 5.27794543,8.61511017 4.90297581,8.99007979 L2.5998384,11.2932172 C2.55034593,11.3427097 2.53116504,11.4149258 2.5495764,11.4824538 C2.57791379,11.5863878 2.68514096,11.647671 2.78907499,11.6193336 L5.86418918,10.7809105 L7.44887785,8.40405512 Z M12.1732163,21.0034771 C12.1448789,21.1074111 12.2061621,21.2146383 12.3100961,21.2429756 C12.3776241,21.261387 12.4498402,21.2422061 12.4993327,21.1927136 L14.8024575,18.8895889 C15.1774321,18.5146143 15.3881376,18.0060701 15.3882439,17.4757759 L15.3884706,16.3436447 L13.0116411,17.9283564 L12.1732163,21.0034771 Z" id="shape"></path>
        </g>
    </g>
</svg>