<?xml version="1.0" encoding="UTF-8"?>
<svg width="24px" height="24px" viewBox="0 0 24 24" version="1.1" xmlns="http://www.w3.org/2000/svg" xmlns:xlink="http://www.w3.org/1999/xlink">
    <!-- Generator: Sketch 44.1 (41455) - http://www.bohemiancoding.com/sketch -->
    <title>Bold/SVG/rotate</title>
    <desc>Created with Sketch.</desc>
    <defs></defs>
    <g id="Bold-Outline" stroke="none" stroke-width="1" fill="none" fill-rule="evenodd">
        <g id="rotate" fill-rule="nonzero" fill="#000000">
            <path d="M5.11966856,17.0062093 C6.25006987,18.5637515 7.88143468,19.7042483 9.79438751,20.2168224 C14.3288494,21.4318278 18.9897135,18.7408767 20.2047189,14.2064148 C20.399288,13.4802732 20.4962461,12.7422804 20.4967056,12.0057524 C20.4970502,11.4534678 20.9450446,11.0060319 21.4973293,11.0063765 C22.0496139,11.0067211 22.4970498,11.4547156 22.4967052,12.0070002 C22.4961372,12.9175055 22.3763698,13.8291101 22.1365706,14.7240529 C20.6356816,20.325447 14.8781435,23.6495631 9.27674942,22.1486741 C7.18001806,21.5868566 5.35465739,20.4118467 3.99438146,18.8091242 L3.99438146,20.0062093 C3.99438146,20.5584941 3.54666621,21.0062093 2.99438146,21.0062093 C2.44209671,21.0062093 1.99438146,20.5584941 1.99438146,20.0062093 L1.99438146,17.0062093 C1.99438146,15.9016398 2.88981196,15.0062093 3.99438146,15.0062093 L6.99438146,15.0062093 C7.54666621,15.0062093 7.99438146,15.4539246 7.99438146,16.0062093 C7.99438146,16.5584941 7.54666621,17.0062093 6.99438146,17.0062093 L5.11966856,17.0062093 Z M18.8879976,7.00620932 C17.7876028,5.48403749 16.20695,4.35622103 14.3471256,3.82292495 C9.83455907,2.52896733 5.12744124,5.13816535 3.83348362,9.65073184 C3.62627129,10.3733671 3.51644819,11.1095553 3.50313456,11.8459632 C3.49315136,12.3981577 3.03741627,12.8377068 2.48522176,12.8277236 C1.93302725,12.8177404 1.49347813,12.3620053 1.50346134,11.8098108 C1.51991981,10.8994541 1.65557866,9.9900785 1.91096023,9.09945713 C3.50937847,3.52511029 9.32405343,0.301983325 14.8984003,1.90040156 C16.9192713,2.47987699 18.6756014,3.62998773 19.9943815,5.17919194 L19.9943815,4.00620932 C19.9943815,3.45392457 20.4420967,3.00620932 20.9943815,3.00620932 C21.5466662,3.00620932 21.9943815,3.45392457 21.9943815,4.00620932 L21.9943815,7.00620932 C21.9943815,8.11077882 21.098951,9.00620932 19.9943815,9.00620932 L16.9943815,9.00620932 C16.4420967,9.00620932 15.9943815,8.55849407 15.9943815,8.00620932 C15.9943815,7.45392457 16.4420967,7.00620932 16.9943815,7.00620932 L18.8879976,7.00620932 Z M12,16 C9.790861,16 8,14.209139 8,12 C8,9.790861 9.790861,8 12,8 C14.209139,8 16,9.790861 16,12 C16,14.209139 14.209139,16 12,16 Z M12,14 C13.1045695,14 14,13.1045695 14,12 C14,10.8954305 13.1045695,10 12,10 C10.8954305,10 10,10.8954305 10,12 C10,13.1045695 10.8954305,14 12,14 Z" id="shape"></path>
        </g>
    </g>
</svg>