<?xml version="1.0" encoding="UTF-8"?>
<svg width="24px" height="24px" viewBox="0 0 24 24" version="1.1" xmlns="http://www.w3.org/2000/svg" xmlns:xlink="http://www.w3.org/1999/xlink">
    <!-- Generator: Sketch 44.1 (41455) - http://www.bohemiancoding.com/sketch -->
    <title>Bold/SVG/security-danger</title>
    <desc>Created with Sketch.</desc>
    <defs></defs>
    <g id="Bold-Outline" stroke="none" stroke-width="1" fill="none" fill-rule="evenodd">
        <g id="security-danger" fill-rule="nonzero" fill="#000000">
            <path d="M12,9.58578644 L14.1213203,7.46446609 C14.5118446,7.0739418 15.1450096,7.0739418 15.5355339,7.46446609 C15.9260582,7.85499039 15.9260582,8.48815536 15.5355339,8.87867966 L13.4142136,11 L15.5355339,13.1213203 C15.9260582,13.5118446 15.9260582,14.1450096 15.5355339,14.5355339 C15.1450096,14.9260582 14.5118446,14.9260582 14.1213203,14.5355339 L12,12.4142136 L9.87867966,14.5355339 C9.48815536,14.9260582 8.85499039,14.9260582 8.46446609,14.5355339 C8.0739418,14.1450096 8.0739418,13.5118446 8.46446609,13.1213203 L10.5857864,11 L8.46446609,8.87867966 C8.0739418,8.48815536 8.0739418,7.85499039 8.46446609,7.46446609 C8.85499039,7.0739418 9.48815536,7.0739418 9.87867966,7.46446609 L12,9.58578644 Z M21,13 C21,16.0291331 18.3151275,19.1453851 13.079161,22.5010223 C12.4214594,22.9225316 11.5785408,22.9225316 10.9208391,22.5010224 C5.6848725,19.1453852 3,16.0291331 3,13 L3,6.03333067 C2.99999998,5.03013878 3.50143478,4.09333944 4.33621016,3.53697262 C6.86296753,1.85292202 9.42242387,1.00000001 12,1.00000001 C14.5775761,1.00000001 17.1370325,1.85292202 19.6637899,3.53697263 C20.4985652,4.09333946 21,5.03013878 21,6.03333065 L21,13 Z M19,13 L19,6.03333065 C19,5.69893336 18.8328551,5.38666691 18.5545966,5.20121131 C16.3418918,3.72647263 14.161886,3.00000001 12,3.00000001 C9.83811398,3.00000001 7.65810817,3.72647263 5.44540338,5.2012113 C5.16714492,5.38666691 4.99999999,5.69893335 5,6.03333065 L5,13 C5,15.141319 7.28874055,17.7977925 12,20.8171543 C16.7112595,17.7977925 19,15.141319 19,13 Z" id="shape"></path>
        </g>
    </g>
</svg>