<?xml version="1.0" encoding="UTF-8"?>
<svg width="24px" height="24px" viewBox="0 0 24 24" version="1.1" xmlns="http://www.w3.org/2000/svg" xmlns:xlink="http://www.w3.org/1999/xlink">
    <!-- Generator: Sketch 44.1 (41455) - http://www.bohemiancoding.com/sketch -->
    <title>Bold/SVG/security-check</title>
    <desc>Created with Sketch.</desc>
    <defs></defs>
    <g id="Bold-Outline" stroke="none" stroke-width="1" fill="none" fill-rule="evenodd">
        <g id="security-check" fill-rule="nonzero" fill="#000000">
            <path d="M21,13 C21,16.0291331 18.3151275,19.1453851 13.079161,22.5010223 C12.4214594,22.9225316 11.5785408,22.9225316 10.9208391,22.5010224 C5.68487249,19.1453852 2.99999999,16.0291331 2.99999999,13 L2.99999999,6.03333067 C2.99999997,5.03013878 3.50143477,4.09333944 4.33621015,3.53697262 C6.86296751,1.85292202 9.42242385,1.00000001 12,1.00000001 C14.5775761,1.00000001 17.1370325,1.85292202 19.6637898,3.53697263 C20.4985652,4.09333946 21,5.03013878 21,6.03333065 L21,13 Z M19,13 L19,6.03333065 C19,5.69893336 18.8328551,5.38666691 18.5545966,5.20121131 C16.3418918,3.72647263 14.161886,3.00000001 12,3.00000001 C9.83811397,3.00000001 7.65810815,3.72647263 5.44540337,5.2012113 C5.16714491,5.38666691 4.99999998,5.69893335 4.99999999,6.03333065 L4.99999999,13 C4.99999999,15.141319 7.28874054,17.7977925 12,20.8171543 C16.7112595,17.7977925 19,15.141319 19,13 Z M8.46446609,10.7071068 L10.5857864,12.8284271 L15.5355339,7.87867966 C15.9260582,7.48815536 16.5592232,7.48815536 16.9497475,7.87867966 C17.3402718,8.26920395 17.3402718,8.90236893 16.9497475,9.29289322 L11.2928932,14.9497475 C10.9023689,15.3402718 10.2692039,15.3402718 9.87867966,14.9497475 L7.05025253,12.1213203 C6.65972824,11.7307961 6.65972824,11.0976311 7.05025253,10.7071068 C7.44077682,10.3165825 8.0739418,10.3165825 8.46446609,10.7071068 Z" id="shape"></path>
        </g>
    </g>
</svg>