<?xml version="1.0" encoding="UTF-8"?>
<svg width="24px" height="24px" viewBox="0 0 24 24" version="1.1" xmlns="http://www.w3.org/2000/svg" xmlns:xlink="http://www.w3.org/1999/xlink">
    <!-- Generator: Sketch 44.1 (41455) - http://www.bohemiancoding.com/sketch -->
    <title>Bold/SVG/security</title>
    <desc>Created with Sketch.</desc>
    <defs></defs>
    <g id="Bold-Outline" stroke="none" stroke-width="1" fill="none" fill-rule="evenodd">
        <g id="security" fill-rule="nonzero" fill="#000000">
            <path d="M13,20.1570712 C17.0354618,17.4099234 19,14.9838706 19,13 L19,11 L13,11 L13,20.1570712 Z M11,20.1570712 L11,11 L5,11 L4.99999999,13 C4.99999999,14.9838706 6.96453821,17.4099235 11,20.1570712 Z M5,9 L11,9 L11,3.05175252 C9.16598659,3.24146482 7.31739714,3.95355204 5.44540337,5.2012113 C5.16714491,5.38666691 4.99999998,5.69893335 4.99999999,6.03333065 L4.99999999,9 Z M13,3.05175252 L13,9 L19,9 L19,6.03333065 C19,5.69893336 18.8328551,5.38666691 18.5545966,5.20121131 C16.6826028,3.95355205 14.8340134,3.24146482 13,3.05175284 Z M21,13 C21,16.0291331 18.3151275,19.1453851 13.079161,22.5010223 C12.4214594,22.9225316 11.5785408,22.9225316 10.9208391,22.5010224 C5.68487249,19.1453852 2.99999999,16.0291331 2.99999999,13 L2.99999999,6.03333067 C2.99999997,5.03013878 3.50143477,4.09333944 4.33621015,3.53697262 C6.86296751,1.85292202 9.42242385,1.00000001 12,1.00000001 C14.5775761,1.00000001 17.1370325,1.85292202 19.6637898,3.53697263 C20.4985652,4.09333946 21,5.03013878 21,6.03333065 L21,13 Z" id="shape"></path>
        </g>
    </g>
</svg>