<?xml version="1.0" encoding="UTF-8"?>
<svg width="24px" height="24px" viewBox="0 0 24 24" version="1.1" xmlns="http://www.w3.org/2000/svg" xmlns:xlink="http://www.w3.org/1999/xlink">
    <!-- Generator: Sketch 44.1 (41455) - http://www.bohemiancoding.com/sketch -->
    <title>Bold/SVG/send-2</title>
    <desc>Created with Sketch.</desc>
    <defs></defs>
    <g id="Bold-Outline" stroke="none" stroke-width="1" fill="none" fill-rule="evenodd">
        <g id="send-2" fill-rule="nonzero" fill="#000000">
            <path d="M19.6061421,5.80807143 L10.869597,14.5446166 L14.3814304,21.0665928 L19.6061421,5.80807143 Z M9.45543926,13.1303472 L18.1923084,4.39347806 L2.93322117,9.6183836 L9.45543926,13.1303472 Z M1.98502153,11.3793258 C1.01248,10.8556496 0.648602767,9.64272547 1.17227897,8.67018395 C1.41114963,8.22656702 1.80865428,7.889452 2.28532504,7.72623387 L19.694739,1.7650291 C20.7397444,1.40720595 21.8769617,1.96427726 22.2347848,3.0092827 C22.3785852,3.42924478 22.3785852,3.88511288 22.2347848,4.30507496 L16.2735801,21.7144889 C15.9157569,22.7594944 14.7785397,23.3165657 13.7335342,22.9587425 C13.2568635,22.7955244 12.8593588,22.4584094 12.6204882,22.0147924 L8.89807483,15.1017391 L1.98502153,11.3793258 Z" id="shape"></path>
        </g>
    </g>
</svg>