<?xml version="1.0" encoding="UTF-8"?>
<svg width="24px" height="24px" viewBox="0 0 24 24" version="1.1" xmlns="http://www.w3.org/2000/svg" xmlns:xlink="http://www.w3.org/1999/xlink">
    <!-- Generator: Sketch 44.1 (41455) - http://www.bohemiancoding.com/sketch -->
    <title>Bold/SVG/shuffle</title>
    <desc>Created with Sketch.</desc>
    <defs></defs>
    <g id="Bold-Outline" stroke="none" stroke-width="1" fill="none" fill-rule="evenodd">
        <g id="shuffle" fill-rule="nonzero" fill="#000000">
            <path d="M19.4852814,5.92893219 L3.92893219,21.4852814 C3.5384079,21.8758057 2.90524292,21.8758057 2.51471863,21.4852814 C2.12419433,21.0947571 2.12419433,20.4615921 2.51471863,20.0710678 L18.0710678,4.51471863 L16.4852814,4.51471863 C15.9329966,4.51471863 15.4852814,4.06700338 15.4852814,3.51471863 C15.4852814,2.96243388 15.9329966,2.51471863 16.4852814,2.51471863 L19.4852814,2.51471863 C20.5898509,2.51471863 21.4852814,3.41014913 21.4852814,4.51471863 L21.4852814,7.51471863 C21.4852814,8.06700338 21.0375661,8.51471863 20.4852814,8.51471863 C19.9329966,8.51471863 19.4852814,8.06700338 19.4852814,7.51471863 L19.4852814,5.92893219 Z M17.863961,19.4852814 L13.5909903,15.2123106 C13.200466,14.8217863 13.200466,14.1886213 13.5909903,13.798097 C13.9815145,13.4075727 14.6146795,13.4075727 15.0052038,13.798097 L19.4852814,18.2781746 L19.4852814,16.4852814 C19.4852814,15.9329966 19.9329966,15.4852814 20.4852814,15.4852814 C21.0375661,15.4852814 21.4852814,15.9329966 21.4852814,16.4852814 L21.4852814,19.4852814 C21.4852814,20.5898509 20.5898509,21.4852814 19.4852814,21.4852814 L16.4852814,21.4852814 C15.9329966,21.4852814 15.4852814,21.0375661 15.4852814,20.4852814 C15.4852814,19.9329966 15.9329966,19.4852814 16.4852814,19.4852814 L17.863961,19.4852814 Z M9.70190296,8.49479618 C10.0924273,8.88532047 10.0924273,9.51848545 9.70190296,9.90900974 C9.31137867,10.299534 8.67821369,10.299534 8.2876894,9.90900974 L2.45405845,4.0753788 C2.06353416,3.68485451 2.06353416,3.05168953 2.45405845,2.66116524 C2.84458275,2.27064094 3.47774772,2.27064094 3.86827202,2.66116524 L9.70190296,8.49479618 Z" id="shape"></path>
        </g>
    </g>
</svg>