<?xml version="1.0" encoding="UTF-8"?>
<svg width="24px" height="24px" viewBox="0 0 24 24" version="1.1" xmlns="http://www.w3.org/2000/svg" xmlns:xlink="http://www.w3.org/1999/xlink">
    <!-- Generator: Sketch 44.1 (41455) - http://www.bohemiancoding.com/sketch -->
    <title>Bold/SVG/sing-out</title>
    <desc>Created with Sketch.</desc>
    <defs></defs>
    <g id="Bold-Outline" stroke="none" stroke-width="1" fill="none" fill-rule="evenodd">
        <g id="sing-out" fill-rule="nonzero" fill="#000000">
            <path d="M8.5,20 C9.05228475,20 9.5,20.4477153 9.5,21 C9.5,21.5522847 9.05228475,22 8.5,22 L5.5,22 C3.290861,22 1.5,20.209139 1.5,18 L1.5,6 C1.5,3.790861 3.290861,2 5.5,2 L8.5,2 C9.05228475,2 9.5,2.44771525 9.5,3 C9.5,3.55228475 9.05228475,4 8.5,4 L5.5,4 C4.3954305,4 3.5,4.8954305 3.5,6 L3.5,18 C3.5,19.1045695 4.3954305,20 5.5,20 L8.5,20 Z M12.337909,7.04455283 C12.337909,5.93998333 13.2333395,5.04455283 14.337909,5.04455283 C14.7826608,5.04455283 15.2147246,5.19279728 15.5657903,5.46584849 L21.9369683,10.42121 C22.8088626,11.0993501 22.9659314,12.3559013 22.2877913,13.2277957 C22.1858644,13.3588444 22.0680168,13.476692 21.936968,13.5786189 L15.5657901,18.5339786 C14.6938956,19.2121186 13.4373445,19.0550496 12.7592044,18.1831552 C12.4861534,17.8320895 12.337909,17.4000258 12.337909,16.9552741 L12.337909,14.9999145 L8.33790898,14.9999145 C6.68105473,14.9999145 5.33790898,13.6567687 5.33790898,11.9999145 C5.33790898,10.3430602 6.68105473,8.99991445 8.33790898,8.99991445 L12.337909,8.99991445 L12.337909,7.04455283 Z M14.337909,16.9552741 L20.7090869,11.9999143 L14.337909,7.04455283 L14.337909,9.99991445 C14.337909,10.5521992 13.8901937,10.9999145 13.337909,10.9999145 L8.33790898,10.9999145 C7.78562423,10.9999145 7.33790898,11.4476297 7.33790898,11.9999145 C7.33790898,12.5521992 7.78562423,12.9999145 8.33790898,12.9999145 L13.337909,12.9999145 C13.8901937,12.9999145 14.337909,13.4476297 14.337909,13.9999145 L14.337909,16.9552741 Z" id="shape"></path>
        </g>
    </g>
</svg>