<?xml version="1.0" encoding="UTF-8"?>
<svg width="24px" height="24px" viewBox="0 0 24 24" version="1.1" xmlns="http://www.w3.org/2000/svg" xmlns:xlink="http://www.w3.org/1999/xlink">
    <!-- Generator: Sketch 44.1 (41455) - http://www.bohemiancoding.com/sketch -->
    <title>Bold/SVG/skip-forward</title>
    <desc>Created with Sketch.</desc>
    <defs></defs>
    <g id="Bold-Outline" stroke="none" stroke-width="1" fill="none" fill-rule="evenodd">
        <g id="skip-forward" fill-rule="nonzero" fill="#000000">
            <path d="M6,4.96448797 C5.44771525,4.96448797 5,5.41220322 5,5.96448797 L5,18.0352409 C5,18.2579124 5.07431918,18.4742143 5.21117794,18.6498625 C5.5506241,19.0855169 6.17896725,19.1635091 6.61462164,18.8240629 L14.3605872,12.7886865 C14.425612,12.7380215 14.4841227,12.6795108 14.5347876,12.6144861 C14.8742338,12.1788317 14.7962416,11.5504885 14.3605872,11.2110424 L6.61462164,5.17566591 C6.4389734,5.03880715 6.22267156,4.96448797 6,4.96448797 Z M7.84386493,3.5980218 L15.5898305,9.63339825 C16.8967936,10.6517367 17.1307702,12.5367662 16.1124317,13.8437293 C15.9604369,14.0388036 15.7849048,14.2143357 15.5898305,14.3663306 L7.84386493,20.401707 C6.53690175,21.4200455 4.65187231,21.186069 3.63353383,19.8791058 C3.22295754,19.3521611 3,18.7032556 3,18.0352409 L3,5.96448797 C3,4.30763372 4.34314575,2.96448797 6,2.96448797 C6.66801469,2.96448797 7.31692021,3.18744551 7.84386493,3.5980218 Z M21,19.5 C21,20.0522847 20.5522847,20.5 20,20.5 C19.4477153,20.5 19,20.0522847 19,19.5 L19,4.5 C19,3.94771525 19.4477153,3.5 20,3.5 C20.5522847,3.5 21,3.94771525 21,4.5 L21,19.5 Z" id="shape"></path>
        </g>
    </g>
</svg>