<?xml version="1.0" encoding="UTF-8"?>
<svg width="24px" height="24px" viewBox="0 0 24 24" version="1.1" xmlns="http://www.w3.org/2000/svg" xmlns:xlink="http://www.w3.org/1999/xlink">
    <!-- Generator: Sketch 44.1 (41455) - http://www.bohemiancoding.com/sketch -->
    <title>Bold/SVG/snow</title>
    <desc>Created with Sketch.</desc>
    <defs></defs>
    <g id="Bold-Outline" stroke="none" stroke-width="1" fill="none" fill-rule="evenodd">
        <g id="snow" fill-rule="nonzero" fill="#000000">
            <path d="M6.90135448,7.9015951 L11,10.2679492 L11,5.53518376 L8.4452998,3.83205029 C7.98577112,3.52569784 7.86159725,2.90482849 8.16794971,2.4452998 C8.47430216,1.98577112 9.09517151,1.86159725 9.5547002,2.16794971 L11,3.13148291 L11,2 C11,1.44771525 11.4477153,1 12,1 C12.5522847,1 13,1.44771525 13,2 L13,3.13148291 L14.4452998,2.16794971 C14.9048285,1.86159725 15.5256978,1.98577112 15.8320503,2.4452998 C16.1384028,2.90482849 16.0142289,3.52569784 15.5547002,3.83205029 L13,5.53518376 L13,10.2679492 L17.0986455,7.9015951 L17.2962558,4.83753791 C17.3318005,4.28639816 17.8074022,3.86842576 18.3585419,3.90397043 C18.9096817,3.9395151 19.3276541,4.41511679 19.2921094,4.96625653 L19.1803115,6.69974467 L20.160254,6.1339746 C20.6385467,5.85783222 21.2501371,6.02170738 21.5262794,6.5 C21.8024218,6.97829262 21.6385467,7.58988303 21.160254,7.8660254 L20.1803647,8.4317648 L21.7374092,9.20164003 C22.2324826,9.44642732 22.4353795,10.0462029 22.1905922,10.5412762 C21.9458049,11.0363496 21.3460294,11.2392465 20.850956,10.9944593 L18.0986987,9.63361523 L14,12 L18.0985995,14.3663275 L20.850956,13.0054345 C21.3460294,12.7606472 21.9458049,12.9635441 22.1905922,13.4586175 C22.4353795,13.9536908 22.2324826,14.5534664 21.7374092,14.7982537 L20.1802655,15.568178 L21.160254,16.1339746 C21.6385467,16.410117 21.8024218,17.0217074 21.5262794,17.5 C21.2501371,17.9782926 20.6385467,18.1421678 20.160254,17.8660254 L19.1803186,17.3002594 L19.2921094,19.0336372 C19.3276541,19.5847769 18.9096817,20.0603786 18.3585419,20.0959233 C17.8074022,20.131468 17.3318005,19.7134956 17.2962558,19.1623558 L17.0986526,16.098409 L13,13.7320508 L13,18.46471 L15.5547002,20.1678434 C16.0142289,20.4741959 16.1384028,21.0950652 15.8320503,21.5545939 C15.5256978,22.0141226 14.9048285,22.1382965 14.4452998,21.831944 L13,20.8684108 L13,22 C13,22.5522847 12.5522847,23 12,23 C11.4477153,23 11,22.5522847 11,22 L11,20.8684108 L9.5547002,21.831944 C9.09517151,22.1382965 8.47430216,22.0141226 8.16794971,21.5545939 C7.86159725,21.0950652 7.98577112,20.4741959 8.4452998,20.1678434 L11,18.46471 L11,13.7320508 L6.90134736,16.098409 L6.70374417,19.1623558 C6.66819951,19.7134956 6.19259782,20.131468 5.64145807,20.0959233 C5.09031832,20.0603786 4.67234593,19.5847769 4.70789059,19.0336372 L4.81968136,17.3002594 L3.83974596,17.8660254 C3.36145334,18.1421678 2.74986293,17.9782926 2.47372056,17.5 C2.19757818,17.0217074 2.36145334,16.410117 2.83974596,16.1339746 L3.8197345,15.568178 L2.26259079,14.7982537 C1.76751743,14.5534664 1.56462049,13.9536908 1.80940778,13.4586175 C2.05419506,12.9635441 2.65397062,12.7606472 3.14904398,13.0054345 L5.9014005,14.3663275 L10,12 L5.90130134,9.63361523 L3.14904398,10.9944593 C2.65397062,11.2392465 2.05419506,11.0363496 1.80940778,10.5412762 C1.56462049,10.0462029 1.76751743,9.44642732 2.26259079,9.20164003 L3.81963535,8.4317648 L2.83974596,7.8660254 C2.36145334,7.58988303 2.19757818,6.97829262 2.47372056,6.5 C2.74986293,6.02170738 3.36145334,5.85783222 3.83974596,6.1339746 L4.81968848,6.69974467 L4.70789059,4.96625653 C4.67234593,4.41511679 5.09031832,3.9395151 5.64145807,3.90397043 C6.19259782,3.86842576 6.66819951,4.28639816 6.70374417,4.83753791 L6.90135448,7.9015951 Z" id="shape"></path>
        </g>
    </g>
</svg>