<?xml version="1.0" encoding="UTF-8"?>
<svg width="24px" height="24px" viewBox="0 0 24 24" version="1.1" xmlns="http://www.w3.org/2000/svg" xmlns:xlink="http://www.w3.org/1999/xlink">
    <!-- Generator: Sketch 44.1 (41455) - http://www.bohemiancoding.com/sketch -->
    <title>Bold/SVG/sofa</title>
    <desc>Created with Sketch.</desc>
    <defs></defs>
    <g id="Bold-Outline" stroke="none" stroke-width="1" fill="none" fill-rule="evenodd">
        <g id="sofa" fill-rule="nonzero" fill="#000000">
            <path d="M18.0004007,10.9504618 C18.0001342,10.9409654 18,10.9314359 18,10.921875 L18,7 C18,5.8954305 17.1045695,5 16,5 L8,5 C6.8954305,5 6,5.8954305 6,7 L6,10.921875 C6,10.9314359 5.99986583,10.9409654 5.99959926,10.9504618 C5.99986608,10.9669426 6,10.9834556 6,11 L6,13 L18,13 L18,11 C18,10.9834556 18.0001339,10.9669426 18.0004007,10.9504618 Z M20,8.17070571 C20.3127789,8.06015422 20.6493646,8 21,8 C22.6568542,8 24,9.34314575 24,11 L24,18 C24,19.6568542 22.6568542,21 21,21 L3,21 C1.34314575,21 3.33066907e-16,19.6568542 0,18 L2.22044605e-16,11 C1.22124533e-15,9.34314575 1.34314575,8 3,8 C3.35063542,8 3.68722107,8.06015422 4,8.17070571 L4,7 C4,4.790861 5.790861,3 8,3 L16,3 C18.209139,3 20,4.790861 20,7 L20,8.17070571 Z M3,10 C2.44771525,10 2,10.4477153 2,11 L2,18 C2,18.5522847 2.44771525,19 3,19 L21,19 C21.5522847,19 22,18.5522847 22,18 L22,11 C22,10.4477153 21.5522847,10 21,10 C20.4477153,10 20,10.4477153 20,11 L20,14 C20,14.5522847 19.5522847,15 19,15 L5,15 C4.44771525,15 4,14.5522847 4,14 L4,11 C4,10.4477153 3.55228475,10 3,10 Z" id="shape"></path>
        </g>
    </g>
</svg>