<?xml version="1.0" encoding="UTF-8"?>
<svg width="24px" height="24px" viewBox="0 0 24 24" version="1.1" xmlns="http://www.w3.org/2000/svg" xmlns:xlink="http://www.w3.org/1999/xlink">
    <!-- Generator: Sketch 44.1 (41455) - http://www.bohemiancoding.com/sketch -->
    <title>Bold/SVG/star-off</title>
    <desc>Created with Sketch.</desc>
    <defs></defs>
    <g id="Bold-Outline" stroke="none" stroke-width="1" fill="none" fill-rule="evenodd">
        <g id="star-off" fill-rule="nonzero" fill="#000000">
            <path d="M4.80491386,20.6092997 L3.51471863,21.8994949 C3.12419433,22.2900192 2.49102936,22.2900192 2.10050506,21.8994949 C1.70998077,21.5089706 1.70998077,20.8758057 2.10050506,20.4852814 L20.4852814,2.10050506 C20.8758057,1.70998077 21.5089706,1.70998077 21.8994949,2.10050506 C22.2900192,2.49102936 22.2900192,3.12419433 21.8994949,3.51471863 L18.561451,6.85276256 L20.0216791,7.06494613 C21.6613137,7.30319898 22.7973581,8.82552753 22.5591052,10.4651621 C22.4642317,11.1180732 22.1567701,11.7215004 21.6843192,12.1820263 L19.0185838,14.7804761 L19.6478786,18.4495462 C19.9279616,20.0825555 18.8311981,21.6334233 17.1981888,21.9135063 C16.5479159,22.0250369 15.8790117,21.9190928 15.2950302,21.6120756 L12,19.8797757 L8.70496978,21.6120756 C7.3273153,22.3363515 5.64313934,21.8826787 4.80491386,20.6092997 Z M6.24003899,19.1741746 C6.31197726,19.2449533 6.37433808,19.3279119 6.42381498,19.4220225 C6.68081578,19.9108671 7.28544294,20.0988136 7.77428753,19.8418128 L11.5346589,17.8648686 C11.8259829,17.7117105 12.1740171,17.7117105 12.4653411,17.8648686 L16.2257125,19.8418128 C16.420373,19.9441519 16.643341,19.9794665 16.8600987,19.9422897 C17.4044351,19.8489287 17.7700229,19.3319728 17.6766619,18.7876363 L16.9584949,14.6004013 C16.902857,14.2760072 17.0104054,13.945007 17.2460915,13.7152699 L20.2882959,10.7498535 C20.4457795,10.5963449 20.5482667,10.3952025 20.5798912,10.1775655 C20.6593088,9.63102063 20.2806273,9.12357778 19.7340825,9.04416016 L16.7968572,8.61735634 L6.24003899,19.1741746 Z M3.97832088,7.06494613 L7.66227666,6.52963602 L9.30979177,3.19140579 C10.0430586,1.70564481 11.8419362,1.09562781 13.3276971,1.82889469 C13.9193349,2.12088541 14.3982175,2.59976797 14.6902082,3.19140579 L15.0552593,3.93108006 C15.2996816,4.42633372 15.0963426,5.02595955 14.6010889,5.27038185 C14.1058353,5.51480414 13.5062094,5.31146514 13.2617872,4.81621148 L12.8967361,4.07653721 C12.7994058,3.87932461 12.6397783,3.71969709 12.4425657,3.62236685 C11.9473121,3.37794455 11.3476862,3.58128355 11.1032639,4.07653721 L9.22307825,7.8862095 C9.07741624,8.18135297 8.79585065,8.38592234 8.47014049,8.4332508 L4.26591751,9.04416016 C4.04828048,9.07578467 3.84713807,9.17827185 3.69362947,9.33575548 C3.30812825,9.73123906 3.31622056,10.3643523 3.71170414,10.7498535 L5.68422697,12.6725881 C6.07971055,13.0580893 6.08780285,13.6912026 5.70230164,14.0866861 C5.31680043,14.4821697 4.68368716,14.490262 4.28820359,14.1047608 L2.31568076,12.1820263 C1.12923002,11.0255226 1.1049531,9.12618283 2.26145674,7.9397321 C2.72198255,7.4672812 3.32540979,7.15981966 3.97832088,7.06494613 Z" id="shape"></path>
        </g>
    </g>
</svg>