<?xml version="1.0" encoding="UTF-8"?>
<svg width="24px" height="24px" viewBox="0 0 24 24" version="1.1" xmlns="http://www.w3.org/2000/svg" xmlns:xlink="http://www.w3.org/1999/xlink">
    <!-- Generator: Sketch 44.1 (41455) - http://www.bohemiancoding.com/sketch -->
    <title>Bold/SVG/sticker</title>
    <desc>Created with Sketch.</desc>
    <defs></defs>
    <g id="Bold-Outline" stroke="none" stroke-width="1" fill="none" fill-rule="evenodd">
        <g id="sticker" fill-rule="nonzero" fill="#000000">
            <path d="M21.9267767,13.876301 C21.8779612,13.9966796 21.8047379,14.1094757 21.7071068,14.2071068 L14.2071068,21.7071068 C14.1094757,21.8047379 13.9966796,21.8779612 13.876301,21.9267767 C13.7696068,21.9720178 13.6380712,22 13.5,22 L6,22 C3.790861,22 2,20.209139 2,18 L2,6 C2,3.790861 3.790861,2 6,2 L18,2 C20.209139,2 22,3.790861 22,6 L22,13.5 C22,13.6380712 21.9720178,13.7696068 21.921415,13.8892451 Z M18.5857864,14.5 L16.5,14.5 C15.3954305,14.5 14.5,15.3954305 14.5,16.5 L14.5,18.5857864 L18.5857864,14.5 Z M12.5345593,15.9718445 C12.7930333,14.0123385 14.4699039,12.5 16.5,12.5 L20,12.5 L20,6 C20,4.8954305 19.1045695,4 18,4 L6,4 C4.8954305,4 4,4.8954305 4,6 L4,18 C4,19.1045695 4.8954305,20 6,20 L12.5,20 L12.5,17.9823765 C12.3341886,17.9941025 12.1674458,18 12,18 C9.0096496,18 6.37918265,16.1076501 5.39857153,13.3332461 C5.2145248,12.81253 5.48744924,12.2412068 6.00816533,12.0571601 C6.52888142,11.8731134 7.10020457,12.1460378 7.2842513,12.6667539 C7.98452889,14.6480214 9.86385097,16 12,16 C12.179742,16 12.3580862,15.9905559 12.5345593,15.9718445 Z M9,10 C8.44771525,10 8,9.55228475 8,9 C8,8.44771525 8.44771525,8 9,8 C9.55228475,8 10,8.44771525 10,9 C10,9.55228475 9.55228475,10 9,10 Z M15,10 C14.4477153,10 14,9.55228475 14,9 C14,8.44771525 14.4477153,8 15,8 C15.5522847,8 16,8.44771525 16,9 C16,9.55228475 15.5522847,10 15,10 Z" id="shape"></path>
        </g>
    </g>
</svg>