<?xml version="1.0" encoding="UTF-8"?>
<svg width="24px" height="24px" viewBox="0 0 24 24" version="1.1" xmlns="http://www.w3.org/2000/svg" xmlns:xlink="http://www.w3.org/1999/xlink">
    <!-- Generator: Sketch 44.1 (41455) - http://www.bohemiancoding.com/sketch -->
    <title>Bold/SVG/tablet</title>
    <desc>Created with Sketch.</desc>
    <defs></defs>
    <g id="Bold-Outline" stroke="none" stroke-width="1" fill="none" fill-rule="evenodd">
        <g id="tablet" fill-rule="nonzero" fill="#000000">
            <path d="M20,15 L20,5 C20,3.8954305 19.1045695,3 18,3 L6,3 C4.8954305,3 4,3.8954305 4,5 L4,15 L20,15 Z M20,17 L4,17 L4,19 C4,20.1045695 4.8954305,21 6,21 L18,21 C19.1045695,21 20,20.1045695 20,19 L20,17 Z M22,5 L22,19 C22,21.209139 20.209139,23 18,23 L6,23 C3.790861,23 2,21.209139 2,19 L2,5 C2,2.790861 3.790861,1 6,1 L18,1 C20.209139,1 22,2.790861 22,5 Z M12,20.5 C11.1715729,20.5 10.5,19.8284271 10.5,19 C10.5,18.1715729 11.1715729,17.5 12,17.5 C12.8284271,17.5 13.5,18.1715729 13.5,19 C13.5,19.8284271 12.8284271,20.5 12,20.5 Z" id="shape"></path>
        </g>
    </g>
</svg>