<?xml version="1.0" encoding="UTF-8"?>
<svg width="24px" height="24px" viewBox="0 0 24 24" version="1.1" xmlns="http://www.w3.org/2000/svg" xmlns:xlink="http://www.w3.org/1999/xlink">
    <!-- Generator: Sketch 44.1 (41455) - http://www.bohemiancoding.com/sketch -->
    <title>Bold/SVG/tag</title>
    <desc>Created with Sketch.</desc>
    <defs></defs>
    <g id="Bold-Outline" stroke="none" stroke-width="1" fill="none" fill-rule="evenodd">
        <g id="tag" fill-rule="nonzero" fill="#000000">
            <path d="M1.47585571,9.89067225 L1.40218306,5.66996881 C1.36362827,3.46116627 3.12296168,1.6393232 5.33176422,1.6007684 L9.55246766,1.52709575 C10.6414803,1.50808697 11.6911531,1.93398563 12.4590417,2.70642134 L21.7015724,12.0036824 C23.2366262,13.5478261 23.2546683,16.0361404 21.7421672,17.6023811 L17.9667628,21.5119268 C16.4542617,23.0781675 13.9668336,23.1469773 12.370058,21.6667485 L2.75590087,12.7543178 C1.95713677,12.0138546 1.4948645,10.9796849 1.47585571,9.89067225 Z M3.47555111,9.85576744 C3.4850555,10.4002738 3.71619163,10.9173586 4.11557368,11.2875902 L13.7297308,20.2000209 C14.5281186,20.9401353 15.7718327,20.9057304 16.5280832,20.1226101 L20.3034876,16.2130643 C21.0597382,15.429944 21.0507171,14.1857868 20.2831902,13.413715 L11.0406595,4.11645394 C10.6567152,3.73023608 10.1318788,3.51728675 9.58737247,3.52679114 L5.36666903,3.60046379 C4.26226776,3.61974119 3.38260106,4.53066273 3.40187845,5.635064 L3.47555111,9.85576744 Z M8,11 C6.34314575,11 5,9.65685425 5,8 C5,6.34314575 6.34314575,5 8,5 C9.65685425,5 11,6.34314575 11,8 C11,9.65685425 9.65685425,11 8,11 Z M8,9 C8.55228475,9 9,8.55228475 9,8 C9,7.44771525 8.55228475,7 8,7 C7.44771525,7 7,7.44771525 7,8 C7,8.55228475 7.44771525,9 8,9 Z" id="shape"></path>
        </g>
    </g>
</svg>