<?xml version="1.0" encoding="UTF-8"?>
<svg width="24px" height="24px" viewBox="0 0 24 24" version="1.1" xmlns="http://www.w3.org/2000/svg" xmlns:xlink="http://www.w3.org/1999/xlink">
    <!-- Generator: Sketch 44.1 (41455) - http://www.bohemiancoding.com/sketch -->
    <title>Bold/SVG/timer</title>
    <desc>Created with Sketch.</desc>
    <defs></defs>
    <g id="Bold-Outline" stroke="none" stroke-width="1" fill="none" fill-rule="evenodd">
        <g id="timer" fill-rule="nonzero" fill="#000000">
            <path d="M13,11.7675644 C13.5978014,12.1133738 14,12.7597176 14,13.5 C14,14.6045695 13.1045695,15.5 12,15.5 C10.8954305,15.5 10,14.6045695 10,13.5 C10,12.7597176 10.4021986,12.1133738 11,11.7675644 L11,8 C11,7.44771525 11.4477153,7 12,7 C12.5522847,7 13,7.44771525 13,8 L13,11.7675644 Z M19.5857864,5 L19.2928932,4.70710678 C18.9023689,4.31658249 18.9023689,3.68341751 19.2928932,3.29289322 C19.6834175,2.90236893 20.3165825,2.90236893 20.7071068,3.29289322 L22.7071068,5.29289322 C23.0976311,5.68341751 23.0976311,6.31658249 22.7071068,6.70710678 C22.3165825,7.09763107 21.6834175,7.09763107 21.2928932,6.70710678 L21,6.41421356 L19.9634853,7.45072827 C21.2413828,9.13040963 22,11.2266125 22,13.5 C22,19.0228475 17.5228475,23.5 12,23.5 C6.4771525,23.5 2,19.0228475 2,13.5 C2,8.3146519 5.94667731,4.05109967 11,3.54937524 L11,2.5 L10,2.5 C9.44771525,2.5 9,2.05228475 9,1.5 C9,0.94771525 9.44771525,0.5 10,0.5 L14,0.5 C14.5522847,0.5 15,0.94771525 15,1.5 C15,2.05228475 14.5522847,2.5 14,2.5 L13,2.5 L13,3.54937524 C15.1354939,3.76139999 17.0733586,4.64522706 18.599262,5.98652441 L19.5857864,5 Z M12,21.5 C16.418278,21.5 20,17.918278 20,13.5 C20,9.081722 16.418278,5.5 12,5.5 C7.581722,5.5 4,9.081722 4,13.5 C4,17.918278 7.581722,21.5 12,21.5 Z" id="shape"></path>
        </g>
    </g>
</svg>