<?xml version="1.0" encoding="UTF-8"?>
<svg width="24px" height="24px" viewBox="0 0 24 24" version="1.1" xmlns="http://www.w3.org/2000/svg" xmlns:xlink="http://www.w3.org/1999/xlink">
    <!-- Generator: Sketch 44.1 (41455) - http://www.bohemiancoding.com/sketch -->
    <title>Bold/SVG/trending-up</title>
    <desc>Created with Sketch.</desc>
    <defs></defs>
    <g id="Bold-Outline" stroke="none" stroke-width="1" fill="none" fill-rule="evenodd">
        <g id="trending-up" fill-rule="nonzero" fill="#000000">
            <path d="M19.691258,8 L14.3463747,13.9893183 C14.2489349,14.0985065 14.1287174,14.1849774 13.9942072,14.242628 C13.486582,14.4601943 12.8986981,14.2250551 12.6811318,13.7174299 L12.0079032,12.1466545 C11.8823432,11.8536982 11.7109002,11.5826225 11.5000237,11.3436249 C10.4038237,10.1012435 8.50802895,9.98273989 7.26564747,11.0789398 L1.36952395,16.2813114 C0.955396792,16.6467114 0.915895603,17.278643 1.28129558,17.6927701 C1.64669555,18.1068973 2.27862715,18.1463985 2.69275431,17.7809985 L8.58887783,12.5786269 C9.00300499,12.2132269 9.63493659,12.2527281 10.0003366,12.6668553 C10.0706287,12.7465212 10.1277764,12.8368797 10.1696297,12.9345318 L10.8428583,14.5053072 C11.4955572,16.0281828 13.2592089,16.7336004 14.7820845,16.0809015 C15.185615,15.9079498 15.5462675,15.6485369 15.8385869,15.3209724 L21,9.53724538 L21,14 C21,14.5522847 21.4477153,15 22,15 C22.5522847,15 23,14.5522847 23,14 L23,8 C23,6.8954305 22.1045695,6 21,6 L15,6 C14.4477153,6 14,6.44771525 14,7 C14,7.55228475 14.4477153,8 15,8 L19.691258,8 Z" id="shape"></path>
        </g>
    </g>
</svg>