<?xml version="1.0" encoding="UTF-8"?>
<svg width="24px" height="24px" viewBox="0 0 24 24" version="1.1" xmlns="http://www.w3.org/2000/svg" xmlns:xlink="http://www.w3.org/1999/xlink">
    <!-- Generator: Sketch 44.1 (41455) - http://www.bohemiancoding.com/sketch -->
    <title>Bold/SVG/trending-down</title>
    <desc>Created with Sketch.</desc>
    <defs></defs>
    <g id="Bold-Outline" stroke="none" stroke-width="1" fill="none" fill-rule="evenodd">
        <g id="trending-down" fill-rule="nonzero" fill="#000000">
            <path d="M21,14.445489 L16.2937027,9.09394404 C16.1914876,8.9777149 16.0804308,8.86957052 15.9615269,8.77047955 C14.6887196,7.70975929 12.7970217,7.88168984 11.7363014,9.15449718 L9.64007697,11.6698539 C9.61978016,11.694209 9.59833662,11.7175851 9.57581899,11.739903 C9.18355857,12.1286834 8.55039988,12.1258623 8.16161947,11.7336018 L2.74144453,6.26491041 C2.35266412,5.87264999 1.71950543,5.86982889 1.32724501,6.2586093 C0.934984587,6.64738971 0.932163482,7.2805484 1.32094389,7.67280882 L6.74111883,13.1415002 C7.90746006,14.3182815 9.80693614,14.3267448 10.9837174,13.1604036 C11.0512703,13.09345 11.1156009,13.0233218 11.1764913,12.9502566 L13.2727158,10.4348998 C13.6262892,10.0106307 14.2568552,9.95332051 14.6811243,10.3068939 C14.7207589,10.3399242 14.7577779,10.3759724 14.7918496,10.4147154 L19.7037039,16 L15,16 C14.4477153,16 14,16.4477153 14,17 C14,17.5522847 14.4477153,18 15,18 L21,18 C22.1045695,18 23,17.1045695 23,16 L23,10 C23,9.44771525 22.5522847,9 22,9 C21.4477153,9 21,9.44771525 21,10 L21,14.445489 Z" id="shape"></path>
        </g>
    </g>
</svg>