<?xml version="1.0" encoding="UTF-8"?>
<svg width="24px" height="24px" viewBox="0 0 24 24" version="1.1" xmlns="http://www.w3.org/2000/svg" xmlns:xlink="http://www.w3.org/1999/xlink">
    <!-- Generator: Sketch 44.1 (41455) - http://www.bohemiancoding.com/sketch -->
    <title>Bold/SVG/truck</title>
    <desc>Created with Sketch.</desc>
    <defs></defs>
    <g id="Bold-Outline" stroke="none" stroke-width="1" fill="none" fill-rule="evenodd">
        <g id="truck" fill-rule="nonzero" fill="#000000">
            <path d="M15,12 L21.381966,12 L19.6583592,8.5527864 C19.4889672,8.21400238 19.1427041,8 18.763932,8 L15,8 L15,12 Z M15,14 L15,17 L15.6707057,17 C16.0825421,15.8348076 17.1937812,15 18.5,15 C19.8062188,15 20.9174579,15.8348076 21.3292943,17 L22,17 L22,14 L15,14 Z M15,6 L18.763932,6 C19.9002482,6 20.9390376,6.64200713 21.4472136,7.65835921 L23.5777088,11.9193496 C23.8554196,12.4747713 24,13.0872236 24,13.7082039 L24,17 C24,18.1045695 23.1045695,19 22,19 L21.3292943,19 C20.9174579,20.1651924 19.8062188,21 18.5,21 C17.1937812,21 16.0825421,20.1651924 15.6707057,19 L13.9997559,19 L8.32929429,19 C7.91745788,20.1651924 6.80621883,21 5.5,21 C4.19378117,21 3.08254212,20.1651924 2.67070571,19 L1,19 C0.44771525,19 -5.91645679e-31,18.5522847 -5.91645679e-31,18 L-5.91645679e-31,6 C2.29816166e-14,4.34314575 1.34314575,3 3,3 L12,3 C13.6568542,3 15,4.34314575 15,6 Z M13,6.968449 L13,6 C13,5.44771525 12.5522847,5 12,5 L3,5 C2.44771525,5 2,5.44771525 2,6 L2,17 L2.67070571,17 C3.08254212,15.8348076 4.19378117,15 5.5,15 C6.80621883,15 7.91745788,15.8348076 8.32929429,17 L12.9995117,17 L12.9995117,7 C12.9995117,6.989444 12.9996753,6.9789262 13,6.968449 Z M18.5,19 C19.0522847,19 19.5,18.5522847 19.5,18 C19.5,17.4477153 19.0522847,17 18.5,17 C17.9477153,17 17.5,17.4477153 17.5,18 C17.5,18.5522847 17.9477153,19 18.5,19 Z M5.5,19 C6.05228475,19 6.5,18.5522847 6.5,18 C6.5,17.4477153 6.05228475,17 5.5,17 C4.94771525,17 4.5,17.4477153 4.5,18 C4.5,18.5522847 4.94771525,19 5.5,19 Z" id="shape"></path>
        </g>
    </g>
</svg>