<?xml version="1.0" encoding="UTF-8"?>
<svg width="24px" height="24px" viewBox="0 0 24 24" version="1.1" xmlns="http://www.w3.org/2000/svg" xmlns:xlink="http://www.w3.org/1999/xlink">
    <!-- Generator: Sketch 44.1 (41455) - http://www.bohemiancoding.com/sketch -->
    <title>Bold/SVG/tune-vertical-circle</title>
    <desc>Created with Sketch.</desc>
    <defs></defs>
    <g id="Bold-Outline" stroke="none" stroke-width="1" fill="none" fill-rule="evenodd">
        <g id="tune-vertical-circle" fill-rule="nonzero" fill="#000000">
            <path d="M18,13.8292943 C16.8348076,13.4174579 16,12.3062188 16,11 C16,9.69378117 16.8348076,8.58254212 18,8.17070571 L18,3 C18,2.44771525 18.4477153,2 19,2 C19.5522847,2 20,2.44771525 20,3 L20,8.17070571 C21.1651924,8.58254212 22,9.69378117 22,11 C22,12.3062188 21.1651924,13.4174579 20,13.8292943 L20,21 C20,21.5522847 19.5522847,22 19,22 C18.4477153,22 18,21.5522847 18,21 L18,13.8292943 Z M13,14.1707057 C14.1651924,14.5825421 15,15.6937812 15,17 C15,18.3062188 14.1651924,19.4174579 13,19.8292943 L13,21 C13,21.5522847 12.5522847,22 12,22 C11.4477153,22 11,21.5522847 11,21 L11,19.8292943 C9.83480763,19.4174579 9,18.3062188 9,17 C9,15.6937812 9.83480763,14.5825421 11,14.1707057 L11,3 C11,2.44771525 11.4477153,2 12,2 C12.5522847,2 13,2.44771525 13,3 L13,14.1707057 Z M6,4.17070571 C7.16519237,4.58254212 8,5.69378117 8,7 C8,8.30621883 7.16519237,9.41745788 6,9.82929429 L6,21 C6,21.5522847 5.55228475,22 5,22 C4.44771525,22 4,21.5522847 4,21 L4,9.82929429 C2.83480763,9.41745788 2,8.30621883 2,7 C2,5.69378117 2.83480763,4.58254212 4,4.17070571 L4,3 C4,2.44771525 4.44771525,2 5,2 C5.55228475,2 6,2.44771525 6,3 L6,4.17070571 Z M5,8 C5.55228475,8 6,7.55228475 6,7 C6,6.44771525 5.55228475,6 5,6 C4.44771525,6 4,6.44771525 4,7 C4,7.55228475 4.44771525,8 5,8 Z M12,18 C12.5522847,18 13,17.5522847 13,17 C13,16.4477153 12.5522847,16 12,16 C11.4477153,16 11,16.4477153 11,17 C11,17.5522847 11.4477153,18 12,18 Z M19,12 C19.5522847,12 20,11.5522847 20,11 C20,10.4477153 19.5522847,10 19,10 C18.4477153,10 18,10.4477153 18,11 C18,11.5522847 18.4477153,12 19,12 Z" id="shape"></path>
        </g>
    </g>
</svg>