<?xml version="1.0" encoding="UTF-8"?>
<svg width="24px" height="24px" viewBox="0 0 24 24" version="1.1" xmlns="http://www.w3.org/2000/svg" xmlns:xlink="http://www.w3.org/1999/xlink">
    <!-- Generator: Sketch 44.1 (41455) - http://www.bohemiancoding.com/sketch -->
    <title>Bold/SVG/umbrella</title>
    <desc>Created with Sketch.</desc>
    <defs></defs>
    <g id="Bold-Outline" stroke="none" stroke-width="1" fill="none" fill-rule="evenodd">
        <g id="umbrella" fill-rule="nonzero" fill="#000000">
            <path d="M13,13 L13,20 C13,20.5522847 13.4477153,21 14,21 C14.5522847,21 15,20.5522847 15,20 C15,19.4477153 15.4477153,19 16,19 C16.5522847,19 17,19.4477153 17,20 C17,21.6568542 15.6568542,23 14,23 C12.3431458,23 11,21.6568542 11,20 L11,13 L2,13 C1.44771525,13 1,12.5522847 1,12 C1,5.92486775 5.92486775,1 12,1 C18.0751322,1 23,5.92486775 23,12 C23,12.5522847 22.5522847,13 22,13 L13,13 Z M15.3454815,3.642319 C16.288265,5.4623111 16.8728542,8.07397084 16.9815513,11 L20.9450712,11 C20.5745777,7.64846362 18.363735,4.85159048 15.3454815,3.642319 Z M14.9787969,11 C14.7858805,6.46462647 13.3115657,3 12,3 C10.6884343,3 9.21411946,6.46462647 9.02120306,11 L14.9787969,11 Z M7.01844869,11 C7.12714579,8.07397084 7.71173495,5.4623111 8.65451848,3.642319 C5.63626504,4.85159048 3.42542233,7.64846362 3.05492878,11 L7.01844869,11 Z" id="shape"></path>
        </g>
    </g>
</svg>