<?xml version="1.0" encoding="UTF-8"?>
<svg width="24px" height="24px" viewBox="0 0 24 24" version="1.1" xmlns="http://www.w3.org/2000/svg" xmlns:xlink="http://www.w3.org/1999/xlink">
    <!-- Generator: Sketch 44.1 (41455) - http://www.bohemiancoding.com/sketch -->
    <title>Bold/SVG/upload</title>
    <desc>Created with Sketch.</desc>
    <defs></defs>
    <g id="Bold-Outline" stroke="none" stroke-width="1" fill="none" fill-rule="evenodd">
        <g id="upload" fill-rule="nonzero" fill="#000000">
            <path d="M11.9999187,3.62882204 L7.04455724,10 L9.99991887,10 C10.5522036,10 10.9999189,10.4477153 10.9999189,11 L10.9999189,16 C10.9999189,16.5522847 11.4476341,17 11.9999189,17 C12.5522036,17 12.9999189,16.5522847 12.9999189,16 L12.9999189,11 C12.9999189,10.4477153 13.4476341,10 13.9999189,10 L16.9552785,10 L11.9999187,3.62882204 Z M7.04455724,12 C5.93998774,12 5.04455724,11.1045695 5.04455724,10 C5.04455724,9.55524822 5.1928017,9.12318443 5.46585291,8.77211864 L10.4212144,2.40094068 C11.0993545,1.52904635 12.3559058,1.37197755 13.2278001,2.0501177 C13.3588489,2.15204454 13.4766965,2.26989215 13.5786233,2.40094094 L18.5339831,8.7721189 C19.2121231,9.64401334 19.0550541,10.9005645 18.1831596,11.5787045 C17.8320939,11.8517556 17.4000302,12 16.9552785,12 L14.9999189,12 L14.9999189,16 C14.9999189,17.6568542 13.6567731,19 11.9999189,19 C10.3430646,19 8.99991887,17.6568542 8.99991887,16 L8.99991887,12 L7.04455724,12 Z M19,18 C19,17.4477153 19.4477153,17 20,17 C20.5522847,17 21,17.4477153 21,18 C21,20.209139 19.209139,22 17,22 L7,22 C4.790861,22 3,20.209139 3,18 C3,17.4477153 3.44771525,17 4,17 C4.55228475,17 5,17.4477153 5,18 C5,19.1045695 5.8954305,20 7,20 L17,20 C18.1045695,20 19,19.1045695 19,18 Z" id="shape"></path>
        </g>
    </g>
</svg>