<?xml version="1.0" encoding="UTF-8"?>
<svg width="24px" height="24px" viewBox="0 0 24 24" version="1.1" xmlns="http://www.w3.org/2000/svg" xmlns:xlink="http://www.w3.org/1999/xlink">
    <!-- Generator: Sketch 44.1 (41455) - http://www.bohemiancoding.com/sketch -->
    <title>Bold/SVG/user-love</title>
    <desc>Created with Sketch.</desc>
    <defs></defs>
    <g id="Bold-Outline" stroke="none" stroke-width="1" fill="none" fill-rule="evenodd">
        <g id="user-love" fill-rule="nonzero" fill="#000000">
            <path d="M9,12.5 C6.23857625,12.5 4,10.2614237 4,7.5 C4,4.73857625 6.23857625,2.5 9,2.5 C11.7614237,2.5 14,4.73857625 14,7.5 C14,10.2614237 11.7614237,12.5 9,12.5 Z M9,10.5 C10.6568542,10.5 12,9.15685425 12,7.5 C12,5.84314575 10.6568542,4.5 9,4.5 C7.34314575,4.5 6,5.84314575 6,7.5 C6,9.15685425 7.34314575,10.5 9,10.5 Z M20.3799212,8 C21.9130004,8 23,9.18877411 23,10.6966643 C23,12.2617945 21.9409687,13.7495237 19.9466187,15.2197677 C19.2409493,15.7399905 18.2787356,15.7399905 17.5730662,15.2197677 C15.5787162,13.7495237 14.5196849,12.2617945 14.5196849,10.6966643 C14.5196849,9.18877411 15.6066845,8 17.1397637,8 C17.7939473,8 18.3020176,8.19113768 18.7598425,8.54693529 C19.2176673,8.19113768 19.7257376,8 20.3799212,8 Z M17.9778752,10.5953668 C17.6352102,10.1654864 17.4062534,10 17.1397637,10 C16.7531921,10 16.5196849,10.2553703 16.5196849,10.6966643 C16.5196849,11.4875026 17.2251666,12.4785647 18.7598424,13.6099348 C20.2945183,12.4785647 21,11.4875026 21,10.6966643 C21,10.2553703 20.7664928,10 20.3799212,10 C20.1134315,10 19.8844747,10.1654864 19.5418097,10.5953668 C19.1414651,11.0976074 18.3782198,11.0976074 17.9778752,10.5953668 Z M1,19.5 L1,17.5 C1,15.290861 2.790861,13.5 5,13.5 L13,13.5 C15.209139,13.5 17,15.290861 17,17.5 L17,19.5 C17,20.6045695 16.1045695,21.5 15,21.5 L3,21.5 C1.8954305,21.5 1,20.6045695 1,19.5 Z M3,19.5 L15,19.5 L15,17.5 C15,16.3954305 14.1045695,15.5 13,15.5 L5,15.5 C3.8954305,15.5 3,16.3954305 3,17.5 L3,19.5 Z" id="shape"></path>
        </g>
    </g>
</svg>