<?xml version="1.0" encoding="UTF-8"?>
<svg width="24px" height="24px" viewBox="0 0 24 24" version="1.1" xmlns="http://www.w3.org/2000/svg" xmlns:xlink="http://www.w3.org/1999/xlink">
    <!-- Generator: Sketch 44.1 (41455) - http://www.bohemiancoding.com/sketch -->
    <title>Bold/SVG/user</title>
    <desc>Created with Sketch.</desc>
    <defs></defs>
    <g id="Bold-Outline" stroke="none" stroke-width="1" fill="none" fill-rule="evenodd">
        <g id="user" fill-rule="nonzero" fill="#000000">
            <path d="M12,13.5 C8.6862915,13.5 6,10.8137085 6,7.5 C6,4.1862915 8.6862915,1.5 12,1.5 C15.3137085,1.5 18,4.1862915 18,7.5 C18,10.8137085 15.3137085,13.5 12,13.5 Z M12,11.5 C14.209139,11.5 16,9.709139 16,7.5 C16,5.290861 14.209139,3.5 12,3.5 C9.790861,3.5 8,5.290861 8,7.5 C8,9.709139 9.790861,11.5 12,11.5 Z M2,20.5 L2,18.5 C2,16.290861 3.790861,14.5 6,14.5 L18,14.5 C20.209139,14.5 22,16.290861 22,18.5 L22,20.5 C22,21.6045695 21.1045695,22.5 20,22.5 L4,22.5 C2.8954305,22.5 2,21.6045695 2,20.5 Z M4,20.5 L20,20.5 L20,18.5 C20,17.3954305 19.1045695,16.5 18,16.5 L6,16.5 C4.8954305,16.5 4,17.3954305 4,18.5 L4,20.5 Z" id="shape"></path>
        </g>
    </g>
</svg>