<?xml version="1.0" encoding="UTF-8"?>
<svg width="24px" height="24px" viewBox="0 0 24 24" version="1.1" xmlns="http://www.w3.org/2000/svg" xmlns:xlink="http://www.w3.org/1999/xlink">
    <!-- Generator: Sketch 44.1 (41455) - http://www.bohemiancoding.com/sketch -->
    <title>Bold/SVG/users-add</title>
    <desc>Created with Sketch.</desc>
    <defs></defs>
    <g id="Bold-Outline" stroke="none" stroke-width="1" fill="none" fill-rule="evenodd">
        <g id="users-add" fill-rule="nonzero" fill="#000000">
            <path d="M21.5,12.5 L21.5,14 C21.5,14.5522847 21.0522847,15 20.5,15 C19.9477153,15 19.5,14.5522847 19.5,14 L19.5,12.5 L18,12.5 C17.4477153,12.5 17,12.0522847 17,11.5 C17,10.9477153 17.4477153,10.5 18,10.5 L19.5,10.5 L19.5,9 C19.5,8.44771525 19.9477153,8 20.5,8 C21.0522847,8 21.5,8.44771525 21.5,9 L21.5,10.5 L23,10.5 C23.5522847,10.5 24,10.9477153 24,11.5 C24,12.0522847 23.5522847,12.5 23,12.5 L21.5,12.5 Z M6.5,12.5 C4.290861,12.5 2.5,10.709139 2.5,8.5 C2.5,6.290861 4.290861,4.5 6.5,4.5 C8.709139,4.5 10.5,6.290861 10.5,8.5 C10.5,10.709139 8.709139,12.5 6.5,12.5 Z M6.5,10.5 C7.6045695,10.5 8.5,9.6045695 8.5,8.5 C8.5,7.3954305 7.6045695,6.5 6.5,6.5 C5.3954305,6.5 4.5,7.3954305 4.5,8.5 C4.5,9.6045695 5.3954305,10.5 6.5,10.5 Z M12.3780891,12.4742315 C11.8299238,12.4069019 11.4401294,11.9079447 11.507459,11.3597795 C11.5747885,10.8116142 12.0737457,10.4218198 12.6219109,10.4891494 C12.6806193,10.4963603 12.7400065,10.5 12.8,10.5 C13.714019,10.5 14.5,9.62668772 14.5,8.5 C14.5,7.37331228 13.714019,6.5 12.8,6.5 C12.7400065,6.5 12.6806193,6.50363965 12.6219109,6.51085064 C12.0737457,6.57818019 11.5747885,6.18838581 11.507459,5.64022053 C11.4401294,5.09205525 11.8299238,4.5930981 12.3780891,4.52576855 C12.5176235,4.50862994 12.6584357,4.5 12.8,4.5 C14.8683187,4.5 16.5,6.31297923 16.5,8.5 C16.5,10.6870208 14.8683187,12.5 12.8,12.5 C12.6584357,12.5 12.5176235,12.4913701 12.3780891,12.4742315 Z M0,18.5 L0,17 C-3.10862447e-16,15.0670034 1.56700338,13.5 3.5,13.5 L9.5,13.5 C11.4329966,13.5 13,15.0670034 13,17 L13,18.5 C13,19.6045695 12.1045695,20.5 11,20.5 L2,20.5 C0.8954305,20.5 1.33226763e-15,19.6045695 0,18.5 Z M2,18.5 L11,18.5 L11,17 C11,16.1715729 10.3284271,15.5 9.5,15.5 L3.5,15.5 C2.67157288,15.5 2,16.1715729 2,17 L2,18.5 Z M14.5001637,15.5 C13.947879,15.5 13.5001637,15.0522847 13.5001637,14.5 C13.5001637,13.9477153 13.947879,13.5 14.5001637,13.5 L15.5001637,13.5 C17.4331603,13.5 19.0001637,15.0670034 19.0001637,17 L19.0001637,18.5 C19.0001637,19.6045695 18.1047332,20.5 17.0001637,20.5 L15,20.5 C14.4477153,20.5 14,20.0522847 14,19.5 C14,18.9477153 14.4477153,18.5 15,18.5 L17.0001637,18.5 L17.0001637,17 C17.0001637,16.1715729 16.3285908,15.5 15.5001637,15.5 L14.5001637,15.5 Z" id="shape"></path>
        </g>
    </g>
</svg>