<?xml version="1.0" encoding="UTF-8"?>
<svg width="24px" height="24px" viewBox="0 0 24 24" version="1.1" xmlns="http://www.w3.org/2000/svg" xmlns:xlink="http://www.w3.org/1999/xlink">
    <!-- Generator: Sketch 44.1 (41455) - http://www.bohemiancoding.com/sketch -->
    <title>Bold/SVG/user-list</title>
    <desc>Created with Sketch.</desc>
    <defs></defs>
    <g id="Bold-Outline" stroke="none" stroke-width="1" fill="none" fill-rule="evenodd">
        <g id="user-list" fill-rule="nonzero" fill="#000000">
            <path d="M9,12.5 C6.23857625,12.5 4,10.2614237 4,7.5 C4,4.73857625 6.23857625,2.5 9,2.5 C11.7614237,2.5 14,4.73857625 14,7.5 C14,10.2614237 11.7614237,12.5 9,12.5 Z M9,10.5 C10.6568542,10.5 12,9.15685425 12,7.5 C12,5.84314575 10.6568542,4.5 9,4.5 C7.34314575,4.5 6,5.84314575 6,7.5 C6,9.15685425 7.34314575,10.5 9,10.5 Z M1,19.5 L1,17.5 C1,15.290861 2.790861,13.5 5,13.5 L13,13.5 C15.209139,13.5 17,15.290861 17,17.5 L17,19.5 C17,20.6045695 16.1045695,21.5 15,21.5 L3,21.5 C1.8954305,21.5 1,20.6045695 1,19.5 Z M3,19.5 L15,19.5 L15,17.5 C15,16.3954305 14.1045695,15.5 13,15.5 L5,15.5 C3.8954305,15.5 3,16.3954305 3,17.5 L3,19.5 Z M22,10 C22.5522847,10 23,10.4477153 23,11 C23,11.5522847 22.5522847,12 22,12 L17,12 C16.4477153,12 16,11.5522847 16,11 C16,10.4477153 16.4477153,10 17,10 L22,10 Z M22,6 C22.5522847,6 23,6.44771525 23,7 C23,7.55228475 22.5522847,8 22,8 L17,8 C16.4477153,8 16,7.55228475 16,7 C16,6.44771525 16.4477153,6 17,6 L22,6 Z M22,14 C22.5522847,14 23,14.4477153 23,15 C23,15.5522847 22.5522847,16 22,16 L20,16 C19.4477153,16 19,15.5522847 19,15 C19,14.4477153 19.4477153,14 20,14 L22,14 Z" id="shape"></path>
        </g>
    </g>
</svg>