<?xml version="1.0" encoding="UTF-8"?>
<svg width="24px" height="24px" viewBox="0 0 24 24" version="1.1" xmlns="http://www.w3.org/2000/svg" xmlns:xlink="http://www.w3.org/1999/xlink">
    <!-- Generator: Sketch 44.1 (41455) - http://www.bohemiancoding.com/sketch -->
    <title>Bold/SVG/vector</title>
    <desc>Created with Sketch.</desc>
    <defs></defs>
    <g id="Bold-Outline" stroke="none" stroke-width="1" fill="none" fill-rule="evenodd">
        <g id="vector" fill-rule="nonzero" fill="#000000">
            <path d="M6.87815742,15.707629 C6.69073859,15.3159937 6.58578644,14.8773601 6.58578644,14.4142136 C6.58578644,12.7573593 7.92893219,11.4142136 9.58578644,11.4142136 C11.2426407,11.4142136 12.5857864,12.7573593 12.5857864,14.4142136 C12.5857864,16.0710678 11.2426407,17.4142136 9.58578644,17.4142136 C9.1226399,17.4142136 8.68400626,17.3092614 8.29237099,17.1218426 L5.34320089,20.0710127 L11.3875796,19.20753 C11.6692226,19.1672953 11.920395,19.009001 12.0782085,18.7722807 L16.3295476,12.3952722 C16.5939626,11.9986496 16.5416684,11.4705296 16.204604,11.1334652 L12.8665054,7.79536653 C12.529441,7.45830215 12.001321,7.40600797 11.6046984,7.67042302 L5.22768987,11.921762 C4.99096956,12.0795756 4.83267529,12.330748 4.79244057,12.612391 L3.92894809,18.6568383 L6.87815742,15.707629 Z M18.2945862,12.9260329 C18.2169016,13.1259984 18.1167081,13.3200826 17.9936481,13.5046726 L13.7423091,19.8816811 C13.2688685,20.591842 12.5153513,21.0667248 11.6704223,21.187429 L5.29602611,22.098057 C3.65582408,22.3323716 2.13622813,21.1926746 1.90191356,19.5524726 C1.86171153,19.2710584 1.86171153,18.9853586 1.90191356,18.7039445 L2.81254158,12.3295483 C2.93324573,11.4846192 3.40812854,10.7311021 4.11828948,10.2576615 L10.495298,6.00632243 C10.6798924,5.88325949 10.8739815,5.78306421 11.073952,5.70537882 C10.6006182,4.60949472 10.8116698,3.28883523 11.7071068,2.39339828 C12.8786797,1.22182541 14.7781746,1.22182541 15.9497475,2.39339828 L21.6066017,8.05025253 C22.7781746,9.22182541 22.7781746,11.1213203 21.6066017,12.2928932 C20.7111552,13.1883397 19.3904772,13.3993862 18.2945862,12.9260329 Z M17.6311357,9.7316408 L18.7781746,10.8786797 C19.1686989,11.2692039 19.8018639,11.2692039 20.1923882,10.8786797 C20.5829124,10.4881554 20.5829124,9.85499039 20.1923882,9.46446609 L14.5355339,3.80761184 C14.1450096,3.41708755 13.5118446,3.41708755 13.1213203,3.80761184 C12.7307961,4.19813614 12.7307961,4.83130112 13.1213203,5.22182541 L14.2683298,6.36883484 C14.272469,6.37292669 14.2765987,6.37703274 14.2807189,6.38115297 L17.6188176,9.71925163 C17.6229378,9.72337186 17.6270439,9.7275016 17.6311357,9.7316408 Z M9.58578644,15.4142136 C10.1380712,15.4142136 10.5857864,14.9664983 10.5857864,14.4142136 C10.5857864,13.8619288 10.1380712,13.4142136 9.58578644,13.4142136 C9.03350169,13.4142136 8.58578644,13.8619288 8.58578644,14.4142136 C8.58578644,14.9664983 9.03350169,15.4142136 9.58578644,15.4142136 Z" id="shape"></path>
        </g>
    </g>
</svg>