<?xml version="1.0" encoding="UTF-8"?>
<svg width="24px" height="24px" viewBox="0 0 24 24" version="1.1" xmlns="http://www.w3.org/2000/svg" xmlns:xlink="http://www.w3.org/1999/xlink">
    <!-- Generator: Sketch 44.1 (41455) - http://www.bohemiancoding.com/sketch -->
    <title>Bold/SVG/video-cam-off</title>
    <desc>Created with Sketch.</desc>
    <defs></defs>
    <g id="Bold-Outline" stroke="none" stroke-width="1" fill="none" fill-rule="evenodd">
        <g id="video-cam-off" fill="#000000">
            <path d="M5.41421356,20 L3.51471863,21.8994949 C3.12419433,22.2900192 2.49102936,22.2900192 2.10050506,21.8994949 C1.70998077,21.5089706 1.70998077,20.8758057 2.10050506,20.4852814 L20.4852814,2.10050506 C20.8758057,1.70998077 21.5089706,1.70998077 21.8994949,2.10050506 C22.2900192,2.49102936 22.2900192,3.12419433 21.8994949,3.51471863 L17,8.41421356 L17,13.4648162 L21,16.1314829 L21,7.5 C21,6.94771525 21.4477153,6.5 22,6.5 C22.5522847,6.5 23,6.94771525 23,7.5 L23,16.1314829 C23,17.2360524 22.1045695,18.1314829 21,18.1314829 C20.60515,18.1314829 20.2191346,18.0146069 19.8905996,17.7955835 L17,15.8685171 L17,16 C17,18.209139 15.209139,20 13,20 L5.41421356,20 Z M7.41421356,18 L13,18 C14.1045695,18 15,17.1045695 15,16 L15,10.4142136 L7.41421356,18 Z M13.5,4 C14.0522847,4 14.5,4.44771525 14.5,5 C14.5,5.55228475 14.0522847,6 13.5,6 L5,6 C3.8954305,6 3,6.8954305 3,8 L3,16.5 C3,17.0522847 2.55228475,17.5 2,17.5 C1.44771525,17.5 1,17.0522847 1,16.5 L1,8 C1,5.790861 2.790861,4 5,4 L13.5,4 Z" id="Combined-Shape"></path>
        </g>
    </g>
</svg>