<?xml version="1.0" encoding="UTF-8"?>
<svg width="24px" height="24px" viewBox="0 0 24 24" version="1.1" xmlns="http://www.w3.org/2000/svg" xmlns:xlink="http://www.w3.org/1999/xlink">
    <!-- Generator: Sketch 44.1 (41455) - http://www.bohemiancoding.com/sketch -->
    <title>Bold/SVG/volume-off</title>
    <desc>Created with Sketch.</desc>
    <defs></defs>
    <g id="Bold-Outline" stroke="none" stroke-width="1" fill="none" fill-rule="evenodd">
        <g id="volume-off" fill-rule="nonzero" fill="#000000">
            <path d="M13,12.4142136 L13,19.2967426 C13,19.8805924 12.7448745,20.4352914 12.3015827,20.8152558 C11.4629311,21.5341001 10.2003311,21.436977 9.4814868,20.5983253 L7.32813361,18.08608 L3.51471863,21.8994949 C3.12419433,22.2900192 2.49102936,22.2900192 2.10050506,21.8994949 C1.70998077,21.5089706 1.70998077,20.8758057 2.10050506,20.4852814 L6.66975468,15.9160318 C6.67436276,15.9113322 6.67902578,15.9066689 6.68374367,15.9020428 L20.4852814,2.10050506 C20.8758057,1.70998077 21.5089706,1.70998077 21.8994949,2.10050506 C22.2900192,2.49102936 22.2900192,3.12419433 21.8994949,3.51471863 L13,12.4142136 Z M8.74652506,16.6676885 L11,19.2967426 L11,14.4142136 L8.74652506,16.6676885 Z M5,8 L5.54006508,8 L9.4814868,3.40167466 C9.86145119,2.95838287 10.4161502,2.70325741 11,2.70325741 C12.1045695,2.70325741 13,3.59868791 13,4.70325741 L13,6.52744306 C13,7.07972781 12.5522847,7.52744306 12,7.52744306 C11.4477153,7.52744306 11,7.07972781 11,6.52744306 L11,4.70325741 L6.7592566,9.65079137 C6.5692744,9.87243727 6.29192489,10 6,10 L5,10 C3.8954305,10 3,10.8954305 3,12 C3,12.5596724 3.22970242,13.0801903 3.62937106,13.4565063 C3.81598948,13.6322206 4.03428156,13.7707497 4.27235187,13.8637994 C4.78674237,14.0648488 5.04075555,14.6448274 4.83970617,15.1592179 C4.63865679,15.6736084 4.05867818,15.9276216 3.54428767,15.7265722 C3.06687915,15.5399772 2.63053956,15.2630743 2.2583378,14.9126202 C1.46133959,14.1621906 1,13.1167706 1,12 C1,9.790861 2.790861,8 5,8 Z" id="shape"></path>
        </g>
    </g>
</svg>