<?xml version="1.0" encoding="UTF-8"?>
<svg width="24px" height="24px" viewBox="0 0 24 24" version="1.1" xmlns="http://www.w3.org/2000/svg" xmlns:xlink="http://www.w3.org/1999/xlink">
    <!-- Generator: Sketch 44.1 (41455) - http://www.bohemiancoding.com/sketch -->
    <title>Bold/SVG/water</title>
    <desc>Created with Sketch.</desc>
    <defs></defs>
    <g id="Bold-Outline" stroke="none" stroke-width="1" fill="none" fill-rule="evenodd">
        <g id="water" fill-rule="nonzero" fill="#000000">
            <path d="M18.512177,7.081832 L18.8892119,3.5 L5.11078806,3.5 L5.46630141,6.87737677 L6.97489714,6.55410625 C8.79222409,6.16467905 10.685612,6.34872325 12.3939193,7.08085497 C13.7217612,7.64993007 15.1934635,7.7929849 16.6060447,7.49028892 L18.512177,7.081832 Z M18.2919028,9.17443661 L17.0251029,9.44589375 C15.2077759,9.83532095 13.314388,9.65127675 11.6060807,8.91914503 C10.2782388,8.35006993 8.80653655,8.2070151 7.39395531,8.50971108 L5.6768576,8.87766059 L6.71177433,18.7093696 C6.81892101,19.727263 7.67726804,20.5 8.70078524,20.5 L15.2992148,20.5 C16.322732,20.5 17.181079,19.727263 17.2882257,18.7093696 L18.2919028,9.17443661 Z M18.8892119,1.5 C19.9937814,1.5 20.8892119,2.3954305 20.8892119,3.5 C20.8892119,3.56993399 20.8855439,3.63981984 20.8782228,3.70936957 L19.2772366,18.9187391 C19.0629432,20.954526 17.3462492,22.5 15.2992148,22.5 L8.70078524,22.5 C6.65375084,22.5 4.93705678,20.954526 4.72276343,18.9187391 L3.12177716,3.70936957 C3.00614554,2.61086918 3.8029181,1.62662071 4.90141849,1.51098909 C4.97096822,1.50366807 5.04085408,1.5 5.11078806,1.5 L18.8892119,1.5 Z" id="shape"></path>
        </g>
    </g>
</svg>