<?xml version="1.0" encoding="UTF-8"?>
<svg width="24px" height="24px" viewBox="0 0 24 24" version="1.1" xmlns="http://www.w3.org/2000/svg" xmlns:xlink="http://www.w3.org/1999/xlink">
    <!-- Generator: Sketch 44.1 (41455) - http://www.bohemiancoding.com/sketch -->
    <title>Bold/SVG/wc</title>
    <desc>Created with Sketch.</desc>
    <defs></defs>
    <g id="Bold-Outline" stroke="none" stroke-width="1" fill="none" fill-rule="evenodd">
        <g id="wc" fill-rule="nonzero" fill="#000000">
            <path d="M3.17303015,7.22140453 C2.747908,6.5859676 2.5,5.82193481 2.5,5 C2.5,2.790861 4.290861,1 6.5,1 C8.709139,1 10.5,2.790861 10.5,5 C10.5,5.82190411 10.2521105,6.58591053 9.82701748,7.22133333 C10.9221978,7.66836322 11.6939866,8.74405115 11.6939866,10 C11.6939866,10.1419541 11.6839111,10.2837291 11.6638361,10.4242565 L10.1126084,21.2830482 C9.97184837,22.2683862 9.12794818,23.0002612 8.13260681,23.0002105 L4.86719985,23.0000442 C3.87193778,22.9999935 3.02815404,22.2681461 2.88740272,21.2828869 L1.33617089,10.4242641 C1.13739508,9.03283336 1.92744295,7.72819823 3.17303015,7.22140453 Z M14.2929117,7.39092651 C13.7948725,6.72395944 13.5,5.89641531 13.5,5 C13.5,2.790861 15.290861,1 17.5,1 C19.709139,1 21.5,2.790861 21.5,5 C21.5,5.89643308 21.2051158,6.72399227 20.7070587,7.39096619 C21.6137271,7.90705658 22.2251482,8.88212577 22.2251482,10 C22.2251482,10.3224463 22.1731646,10.6427839 22.0711981,10.9486833 L21.1328548,13.7637133 C21.0727133,13.9441377 21.0652692,14.1379711 21.1113956,14.3224767 L22.3488747,19.2723931 C22.7507209,20.8797778 21.7734388,22.5085813 20.1660541,22.9104275 C19.9280923,22.969918 19.6837326,23 19.4384472,23 L15.5615528,23 C13.9046986,23 12.5615528,21.6568542 12.5615528,20 C12.5615528,19.7547146 12.5916349,19.5103549 12.6511253,19.2723931 L13.8886044,14.3224767 C13.9347308,14.1379711 13.9272867,13.9441377 13.8671452,13.7637133 L12.9288019,10.9486833 C12.4676976,9.56537056 13.0703298,8.08359381 14.2929117,7.39092651 Z M17.5,7 C18.6045695,7 19.5,6.1045695 19.5,5 C19.5,3.8954305 18.6045695,3 17.5,3 C16.3954305,3 15.5,3.8954305 15.5,5 C15.5,6.1045695 16.3954305,7 17.5,7 Z M14.5615528,20 C14.5615528,20.5522847 15.0092681,21 15.5615528,21 L19.4384472,21 C19.520209,21 19.6016622,20.9899727 19.6809828,20.9701425 C20.2167777,20.8361938 20.5425384,20.2932593 20.4085897,19.7574644 L19.1711106,14.807548 C19.0327314,14.2540311 19.0550638,13.672531 19.2354882,13.1312578 L20.1738315,10.3162278 C20.2078203,10.2142613 20.2251482,10.1074821 20.2251482,10 C20.2251482,9.44771525 19.777433,9 19.2251482,9 L15.7748518,9 C15.6673697,9 15.5605905,9.01732788 15.458624,9.0513167 C14.9346807,9.22596447 14.6515207,9.79228445 14.8261685,10.3162278 L15.7645118,13.1312578 C15.9449362,13.672531 15.9672686,14.2540311 15.8288894,14.807548 L14.5914103,19.7574644 C14.5715802,19.836785 14.5615528,19.9182382 14.5615528,20 Z M6.5,7 C7.6045695,7 8.5,6.1045695 8.5,5 C8.5,3.8954305 7.6045695,3 6.5,3 C5.3954305,3 4.5,3.8954305 4.5,5 C4.5,6.1045695 5.3954305,7 6.5,7 Z M8.13270868,21.0002105 L9.68393641,10.1414188 C9.69062807,10.0945764 9.69398656,10.047318 9.69398656,10 C9.69398656,9.44771525 9.24627131,9 8.69398656,9 L4.30601937,9 C4.25870051,9 4.21144131,9.00335861 4.16459802,9.01005051 C3.61786401,9.08815536 3.23796502,9.59468735 3.31606988,10.1414214 L4.86730171,21.0000442 L8.13270868,21.0002105 Z" id="shape"></path>
        </g>
    </g>
</svg>