<?xml version="1.0" encoding="UTF-8"?>
<svg width="24px" height="24px" viewBox="0 0 24 24" version="1.1" xmlns="http://www.w3.org/2000/svg" xmlns:xlink="http://www.w3.org/1999/xlink">
    <!-- Generator: Sketch 44.1 (41455) - http://www.bohemiancoding.com/sketch -->
    <title>Bold/SVG/weather-shower</title>
    <desc>Created with Sketch.</desc>
    <defs></defs>
    <g id="Bold-Outline" stroke="none" stroke-width="1" fill="none" fill-rule="evenodd">
        <g id="weather-shower" fill-rule="nonzero" fill="#000000">
            <path d="M10.5,1 C14.1150484,1 17.1543752,3.56502707 17.8503868,7.0018349 C17.9001825,7.00061241 17.9500563,7 18,7 C21.3137085,7 24,9.6862915 24,13 C24,15.8725574 21.9575033,18.4119778 19.2016864,18.9794501 C18.6607511,19.0908385 18.1319382,18.7426218 18.0205499,18.2016864 C17.9091615,17.6607511 18.2573782,17.1319382 18.7983136,17.0205499 C20.6191866,16.6455993 22,14.9288446 22,13 C22,10.790861 20.209139,9 18,9 C17.7247737,9 17.4537222,9.02764812 17.1893791,9.08198275 C16.5930682,9.20455199 16.0265197,8.77035582 15.9898575,8.16268338 C15.8153697,5.27056812 13.4121547,3 10.5,3 C7.46243388,3 5,5.46243388 5,8.5 C5,8.95655297 5.05541426,9.40498353 5.16384832,9.83881386 C5.301864,10.3909964 4.95182052,10.9468618 4.39421081,11.0609901 C3.01051024,11.344198 2,12.5687042 2,14 C2,15.6568542 3.34314575,17 5,17 C5.55228475,17 6,17.4477153 6,18 C6,18.5522847 5.55228475,19 5,19 C2.23857625,19 0,16.7614237 0,14 C0,11.9518978 1.24035225,10.1589024 3.05272954,9.39318616 C3.01769289,9.09834632 3,8.80023648 3,8.5 C3,4.35786438 6.35786438,1 10.5,1 Z M10,22 C10,22.5522847 9.55228475,23 9,23 C8.44771525,23 8,22.5522847 8,22 L8,20 C8,19.4477153 8.44771525,19 9,19 C9.55228475,19 10,19.4477153 10,20 L10,22 Z M16,22 C16,22.5522847 15.5522847,23 15,23 C14.4477153,23 14,22.5522847 14,22 L14,20 C14,19.4477153 14.4477153,19 15,19 C15.5522847,19 16,19.4477153 16,20 L16,22 Z M9,15 C9,15.5522847 8.55228475,16 8,16 C7.44771525,16 7,15.5522847 7,15 L7,13 C7,12.4477153 7.44771525,12 8,12 C8.55228475,12 9,12.4477153 9,13 L9,15 Z M13,18 C13,18.5522847 12.5522847,19 12,19 C11.4477153,19 11,18.5522847 11,18 L11,16 C11,15.4477153 11.4477153,15 12,15 C12.5522847,15 13,15.4477153 13,16 L13,18 Z M17,15 C17,15.5522847 16.5522847,16 16,16 C15.4477153,16 15,15.5522847 15,15 L15,13 C15,12.4477153 15.4477153,12 16,12 C16.5522847,12 17,12.4477153 17,13 L17,15 Z" id="shape"></path>
        </g>
    </g>
</svg>