<?xml version="1.0" encoding="UTF-8"?>
<svg width="24px" height="24px" viewBox="0 0 24 24" version="1.1" xmlns="http://www.w3.org/2000/svg" xmlns:xlink="http://www.w3.org/1999/xlink">
    <!-- Generator: Sketch 44.1 (41455) - http://www.bohemiancoding.com/sketch -->
    <title>Bold/SVG/weather-windy</title>
    <desc>Created with Sketch.</desc>
    <defs></defs>
    <g id="Bold-Outline" stroke="none" stroke-width="1" fill="none" fill-rule="evenodd">
        <g id="weather-windy" fill-rule="nonzero" fill="#000000">
            <path d="M12,4 C11.4477153,4 11,3.55228475 11,3 C11,2.44771525 11.4477153,2 12,2 C13.6568542,2 15,3.34314575 15,5 C15,6.65685425 13.6568542,8 12,8 L3,8 C2.44771525,8 2,7.55228475 2,7 C2,6.44771525 2.44771525,6 3,6 L12,6 C12.5522847,6 13,5.55228475 13,5 C13,4.44771525 12.5522847,4 12,4 Z M15,20 C15.5522847,20 16,19.5522847 16,19 C16,18.4477153 15.5522847,18 15,18 L3,18 C2.44771525,18 2,17.5522847 2,17 C2,16.4477153 2.44771525,16 3,16 L15,16 C16.6568542,16 18,17.3431458 18,19 C18,20.6568542 16.6568542,22 15,22 C14.4477153,22 14,21.5522847 14,21 C14,20.4477153 14.4477153,20 15,20 Z M19,9 C18.4477153,9 18,8.55228475 18,8 C18,7.44771525 18.4477153,7 19,7 C20.6568542,7 22,8.34314575 22,10 C22,11.6568542 20.6568542,13 19,13 L3,13 C2.44771525,13 2,12.5522847 2,12 C2,11.4477153 2.44771525,11 3,11 L19,11 C19.5522847,11 20,10.5522847 20,10 C20,9.44771525 19.5522847,9 19,9 Z" id="shape"></path>
        </g>
    </g>
</svg>