<?xml version="1.0" encoding="UTF-8"?>
<svg width="24px" height="24px" viewBox="0 0 24 24" version="1.1" xmlns="http://www.w3.org/2000/svg" xmlns:xlink="http://www.w3.org/1999/xlink">
    <!-- Generator: Sketch 44.1 (41455) - http://www.bohemiancoding.com/sketch -->
    <title>Bold/SVG/weather-partly-night</title>
    <desc>Created with Sketch.</desc>
    <defs></defs>
    <g id="Bold-Outline" stroke="none" stroke-width="1" fill="none" fill-rule="evenodd">
        <g id="weather-partly-night" fill-rule="nonzero" fill="#000000">
            <path d="M10.0009914,8.11884639 C10.0003308,8.079273 10,8.03965652 10,8 C10,4.13400675 13.1340068,1 17,1 C17.0351006,1.00005763 17.0351006,1.00005763 17.0701541,1.00034529 C17.9611091,1.00911856 18.3966039,2.09079405 17.7602791,2.71446751 C17.1494315,3.31317026 16.8,4.12758357 16.8,5 C16.8,6.7673112 18.2326888,8.2 20,8.2 C20.8724164,8.2 21.6868297,7.85056854 22.2855325,7.23972093 C22.909206,6.60339606 23.9908814,7.03889087 23.9996547,7.92984594 C23.9999424,7.96489938 23.9999424,7.96489938 24,8 C24,11.220615 21.8250195,13.9332361 18.8637629,14.7491588 C19.5741507,15.6193349 20,16.7287051 20,17.9375 C20,20.0127224 18.750318,22.1110568 16.9530012,22.9131844 C16.4850488,23.1220276 3.71707615,23.097146 3.21068008,22.9698091 C1.34266122,22.5000825 5.91645679e-31,20.7215384 5.91645679e-31,18.75 C5.91645679e-31,17.0554506 1.0038045,15.5676943 2.48382146,14.889116 C2.46435634,14.68799 2.45454545,14.4851956 2.45454545,14.28125 C2.45454545,10.8106454 5.28484576,8 8.77272727,8 C9.19263933,8 9.60336618,8.04085316 10.0009914,8.11884639 Z M12.0866643,8.93276372 C13.3967747,9.73639707 14.3919067,11.003066 14.8361139,12.5090719 C15.503695,12.8302169 16.2385915,13 17,13 C19.070899,13 20.8477443,11.7410061 21.6068896,9.94666439 C21.0955205,10.1125832 20.5545127,10.2 20,10.2 C17.1281193,10.2 14.8,7.8718807 14.8,5 C14.8,4.44548728 14.8874168,3.90447952 15.0533356,3.39311039 C13.2589939,4.15225573 12,5.92910097 12,8 C12,8.31613991 12.0292173,8.62793072 12.0866643,8.93276372 Z M16.1379079,21.0868156 C17.1854447,20.6193086 18,19.2515932 18,17.9375 C18,16.2476939 16.6177068,14.875 14.9090909,14.875 C14.695757,14.875 14.4857981,14.8962678 14.2811203,14.9380463 C13.6853485,15.0596543 13.11984,14.6258289 13.0829661,14.0188916 C12.9462847,11.7691459 11.0606906,10 8.77272727,10 C6.38630736,10 4.45454545,11.9183469 4.45454545,14.28125 C4.45454545,14.6362814 4.49791683,14.9848196 4.58277672,15.3219751 C4.72198976,15.8750802 4.37112954,16.4324155 3.81220222,16.5460191 C2.76381383,16.7591071 2,17.6782464 2,18.75 C2,19.8173925 2.73214011,20.7872153 3.69841083,21.0301909 C3.80985056,21.0582132 16.1481212,21.0822575 16.1379079,21.0868156 Z" id="shape"></path>
        </g>
    </g>
</svg>