<?xml version="1.0" encoding="UTF-8"?>
<svg width="24px" height="24px" viewBox="0 0 24 24" version="1.1" xmlns="http://www.w3.org/2000/svg" xmlns:xlink="http://www.w3.org/1999/xlink">
    <!-- Generator: Sketch 44.1 (41455) - http://www.bohemiancoding.com/sketch -->
    <title>Bold/SVG/wheelchair</title>
    <desc>Created with Sketch.</desc>
    <defs></defs>
    <g id="Bold-Outline" stroke="none" stroke-width="1" fill="none" fill-rule="evenodd">
        <g id="wheelchair" fill-rule="nonzero" fill="#000000">
            <path d="M12,10 L18,10 C18.5522847,10 19,10.4477153 19,11 C19,11.5522847 18.5522847,12 18,12 L12,12 L12,14 L15.1437447,14 C16.6588329,14 18.0438854,14.8560095 18.7214535,16.2111456 L20.8922739,20.5527864 C21.1392631,21.0467649 20.9390388,21.6474379 20.4450603,21.8944272 C19.9510818,22.1414164 19.3504087,21.9411921 19.1034195,21.4472136 L16.9325991,17.1055728 C16.5938151,16.4280048 15.9012888,16 15.1437447,16 L12,16 C10.8954305,16 10,15.1045695 10,14 L10,8.87398251 C8.27477279,8.42993972 7,6.86383943 7,5 C7,2.790861 8.790861,1 11,1 C13.209139,1 15,2.790861 15,5 C15,6.86383943 13.7252272,8.42993972 12,8.87398251 L12,10 Z M11,7 C12.1045695,7 13,6.1045695 13,5 C13,3.8954305 12.1045695,3 11,3 C9.8954305,3 9,3.8954305 9,5 C9,6.1045695 9.8954305,7 11,7 Z M6.86379358,11.0735232 C7.3754726,10.8656698 7.95876886,11.1119691 8.16662224,11.6236482 C8.37447563,12.1353272 8.12817628,12.7186234 7.61649727,12.9264768 C7.10999494,13.1322273 6.64837093,13.4359448 6.25767688,13.818706 C5.45776497,14.6023762 5,15.6685426 5,16.8097228 C5,19.1236519 6.87883765,21 9.19716383,21 C10.3266463,21 11.3827821,20.5538841 12.1654758,19.7722276 C12.5553508,19.3828691 12.8655319,18.9209097 13.0764469,18.4129407 C13.2882319,17.9028764 13.8734064,17.6610733 14.3834707,17.8728583 C14.8935349,18.0846433 15.1353381,18.6698178 14.9235531,19.179882 C14.6115773,19.9312462 14.1536616,20.6132301 13.5787514,21.1873784 C12.424711,22.3398897 10.8619641,23 9.19716383,23 C5.77486136,23 3,20.2288155 3,16.8097228 C3,15.1253266 3.67805409,13.5460915 4.85804157,12.390063 C5.4340169,11.8257825 6.11517758,11.3776247 6.86379358,11.0735232 Z" id="shape"></path>
        </g>
    </g>
</svg>