<?xml version="1.0" encoding="UTF-8"?>
<svg width="24px" height="24px" viewBox="0 0 24 24" version="1.1" xmlns="http://www.w3.org/2000/svg" xmlns:xlink="http://www.w3.org/1999/xlink">
    <!-- Generator: Sketch 44.1 (41455) - http://www.bohemiancoding.com/sketch -->
    <title>Bold/SVG/wifi-off</title>
    <desc>Created with Sketch.</desc>
    <defs></defs>
    <g id="Bold-Outline" stroke="none" stroke-width="1" fill="none" fill-rule="evenodd">
        <g id="wifi-off" fill-rule="nonzero" fill="#000000">
            <path d="M8.77213274,6.19322789 C10.252554,5.84091104 11.7729644,5.73325345 13.2814085,5.87292266 C13.831341,5.92384176 14.3184274,5.51931153 14.3693465,4.96937909 C14.4202656,4.41944665 14.0157354,3.93236023 13.4658029,3.88144112 C11.7404693,3.72168978 10.0013701,3.84483234 8.30909616,4.24756679 C5.33819103,4.95459524 2.5811216,6.50466483 0.292893219,8.79289322 C-0.0976310729,9.18341751 -0.0976310729,9.81658249 0.292893219,10.2071068 L4.30087569,14.2150893 C4.69139998,14.6056135 5.32456496,14.6056135 5.71508925,14.2150893 C6.10561354,13.824565 6.10561354,13.1914 5.71508925,12.8008757 L5.08210678,12.1678932 C3.94623419,11.0320206 3.79337611,10.8791625 2.43594872,9.52173516 C4.30636306,7.86965814 6.46884533,6.74137388 8.77213274,6.19322789 Z M18.1679002,7.24631332 L9.16420885,16.2500047 L12.0001539,19.0859876 L21.564034,9.5217776 C20.5166563,8.59656188 19.376428,7.83452143 18.1679002,7.24631332 Z M17.2286896,5.35709682 C17.2393048,5.34597795 17.2501543,5.33513075 17.2612266,5.32455981 L20.4852814,2.10050506 C20.8758057,1.70998077 21.5089706,1.70998077 21.8994949,2.10050506 C22.2900192,2.49102936 22.2900192,3.12419433 21.8994949,3.51471863 L19.6534281,5.76078543 C21.1167099,6.54924022 22.4800604,7.56584679 23.7071068,8.79289322 C24.0976263,9.18341275 24.0976318,9.81656832 23.707119,10.2070946 L13.4143797,20.500189 C12.6333241,21.2812445 11.3669783,21.2812375 10.585964,20.5001776 L7.75,17.6642136 L3.51471863,21.8994949 C3.12419433,22.2900192 2.49102936,22.2900192 2.10050506,21.8994949 C1.70998077,21.5089706 1.70998077,20.8758057 2.10050506,20.4852814 L17.2286896,5.35709682 Z" id="shape"></path>
        </g>
    </g>
</svg>