<?xml version="1.0" encoding="UTF-8"?>
<svg width="24px" height="24px" viewBox="0 0 24 24" version="1.1" xmlns="http://www.w3.org/2000/svg" xmlns:xlink="http://www.w3.org/1999/xlink">
    <!-- Generator: Sketch 44.1 (41455) - http://www.bohemiancoding.com/sketch -->
    <title>Bold/SVG/align-bottom</title>
    <desc>Created with Sketch.</desc>
    <defs></defs>
    <g id="Bold-Outline" stroke="none" stroke-width="1" fill="none" fill-rule="evenodd">
        <g id="align-bottom" fill-rule="nonzero" fill="#000000">
            <path d="M2,22 C1.44771525,22 1,21.5522847 1,21 C1,20.4477153 1.44771525,20 2,20 L22,20 C22.5522847,20 23,20.4477153 23,21 C23,21.5522847 22.5522847,22 22,22 L2,22 Z M6,2 L9,2 C10.1045695,2 11,2.8954305 11,4 L11,16 C11,17.1045695 10.1045695,18 9,18 L6,18 C4.8954305,18 4,17.1045695 4,16 L4,4 C4,2.8954305 4.8954305,2 6,2 Z M15,7 L18,7 C19.1045695,7 20,7.8954305 20,9 L20,16 C20,17.1045695 19.1045695,18 18,18 L15,18 C13.8954305,18 13,17.1045695 13,16 L13,9 C13,7.8954305 13.8954305,7 15,7 Z M6,4 L6,16 L9,16 L9,4 L6,4 Z M15,9 L15,16 L18,16 L18,9 L15,9 Z" id="Combined-Shape"></path>
        </g>
    </g>
</svg>