<?xml version="1.0" encoding="UTF-8"?>
<svg width="24px" height="24px" viewBox="0 0 24 24" version="1.1" xmlns="http://www.w3.org/2000/svg" xmlns:xlink="http://www.w3.org/1999/xlink">
    <!-- Generator: Sketch 44.1 (41455) - http://www.bohemiancoding.com/sketch -->
    <title>Bold/SVG/arrow-outline-right</title>
    <desc>Created with Sketch.</desc>
    <defs></defs>
    <g id="Bold-Outline" stroke="none" stroke-width="1" fill="none" fill-rule="evenodd">
        <g id="arrow-outline-right" fill-rule="nonzero" fill="#000000">
            <path d="M11,6.08058212 C11,4.97601262 11.8954305,4.08058212 13,4.08058212 C13.4541433,4.08058212 13.8947646,4.23514382 14.2493908,4.51884503 L21.6486097,10.4382254 C22.5111333,11.1282449 22.6509755,12.3868297 21.960956,13.2493533 C21.8686924,13.3646826 21.7639378,13.4694372 21.6486084,13.5617006 L14.2493894,19.4810706 C13.3868653,20.1710893 12.1282806,20.031246 11.4382618,19.1687218 C11.1545613,18.8140959 11,18.3734751 11,17.9193324 L11,15.4999561 L4.5,15.4999561 C2.56700338,15.4999561 1,13.9329527 1,11.9999561 C1,10.0669595 2.56700338,8.49995612 4.5,8.49995612 L11,8.49995612 L11,6.08058212 Z M13,17.9193324 L20.3992189,11.9999625 L13,6.08058212 L13,9.49995612 C13,10.0522409 12.5522847,10.4999561 12,10.4999561 L4.5,10.4999561 C3.67157288,10.4999561 3,11.171529 3,11.9999561 C3,12.8283832 3.67157288,13.4999561 4.5,13.4999561 L12,13.4999561 C12.5522847,13.4999561 13,13.9476714 13,14.4999561 L13,17.9193324 Z" id="shape"></path>
        </g>
    </g>
</svg>