<?xml version="1.0" encoding="UTF-8"?>
<svg width="24px" height="24px" viewBox="0 0 24 24" version="1.1" xmlns="http://www.w3.org/2000/svg" xmlns:xlink="http://www.w3.org/1999/xlink">
    <!-- Generator: Sketch 44.1 (41455) - http://www.bohemiancoding.com/sketch -->
    <title>Bold/SVG/arrow-outline-up</title>
    <desc>Created with Sketch.</desc>
    <defs></defs>
    <g id="Bold-Outline" stroke="none" stroke-width="1" fill="none" fill-rule="evenodd">
        <g id="arrow-outline-up" fill-rule="nonzero" fill="#000000">
            <path d="M10.6996453,6.38101538 L3.30042634,12.3003896 L10.6996453,18.2197657 L10.6996453,14.8003907 C10.6996453,14.248106 11.1473605,13.8003907 11.6996453,13.8003907 L19.1996453,13.8003907 C20.0280724,13.8003907 20.6996453,13.1288179 20.6996453,12.3003907 C20.6996453,11.4719636 20.0280724,10.8003907 19.1996453,10.8003907 L11.6996453,10.8003907 C11.1473605,10.8003907 10.6996453,10.3526755 10.6996453,9.80039073 L10.6996453,6.38101538 Z M12.6996453,18.2197657 C12.6996453,19.3243352 11.8042148,20.2197657 10.6996453,20.2197657 C10.2455022,20.2197657 9.80488119,20.0652041 9.45025507,19.7815032 L2.05103613,13.8621272 C1.18851231,13.172108 1.04866966,11.9135232 1.73868882,11.0509994 C1.83095235,10.93567 1.93570695,10.8309154 2.05103636,10.7386519 L9.4502553,4.81927767 C10.3127792,4.12925863 11.571364,4.26910148 12.261383,5.1316254 C12.5450838,5.48625147 12.6996453,5.92687244 12.6996453,6.38101538 L12.6996453,8.80039073 L19.1996453,8.80039073 C21.1326419,8.80039073 22.6996453,10.3673941 22.6996453,12.3003907 C22.6996453,14.2333873 21.1326419,15.8003907 19.1996453,15.8003907 L12.6996453,15.8003907 L12.6996453,18.2197657 Z" id="shape" transform="translate(11.999999, 12.300354) rotate(-270.000000) translate(-11.999999, -12.300354) "></path>
        </g>
    </g>
</svg>