<?xml version="1.0" encoding="UTF-8"?>
<svg width="24px" height="24px" viewBox="0 0 24 24" version="1.1" xmlns="http://www.w3.org/2000/svg" xmlns:xlink="http://www.w3.org/1999/xlink">
    <!-- Generator: Sketch 44.1 (41455) - http://www.bohemiancoding.com/sketch -->
    <title>Bold/SVG/arrow-outline-left</title>
    <desc>Created with Sketch.</desc>
    <defs></defs>
    <g id="Bold-Outline" stroke="none" stroke-width="1" fill="none" fill-rule="evenodd">
        <g id="arrow-outline-left" fill-rule="nonzero" fill="#000000">
            <path d="M13,17.919412 C13,19.0239815 12.1045695,19.919412 11,19.919412 C10.545857,19.919412 10.105236,19.7648505 9.7506099,19.4811496 L2.35139096,13.5617744 C1.48886709,12.8717553 1.34902434,11.6131706 2.03904344,10.7506467 C2.13130696,10.6353173 2.23606156,10.5305627 2.35139096,10.4382992 L9.7506099,4.51892405 C10.6131338,3.82890496 11.8717185,3.96874771 12.5617376,4.83127158 C12.8454385,5.18589767 13,5.62651868 13,6.08066167 L13,8.50003682 L19.5,8.50003682 C21.4329966,8.50003682 23,10.0670402 23,12.0000368 C23,13.9330334 21.4329966,15.5000368 19.5,15.5000368 L13,15.5000368 L13,17.919412 Z M11,6.08066167 L3.60078106,12.0000368 L11,17.919412 L11,14.5000368 C11,13.9477521 11.4477153,13.5000368 12,13.5000368 L19.5,13.5000368 C20.3284271,13.5000368 21,12.8284639 21,12.0000368 C21,11.1716097 20.3284271,10.5000368 19.5,10.5000368 L12,10.5000368 C11.4477153,10.5000368 11,10.0523216 11,9.50003682 L11,6.08066167 Z" id="shape"></path>
        </g>
    </g>
</svg>