<?xml version="1.0" encoding="UTF-8"?>
<svg width="24px" height="24px" viewBox="0 0 24 24" version="1.1" xmlns="http://www.w3.org/2000/svg" xmlns:xlink="http://www.w3.org/1999/xlink">
    <!-- Generator: Sketch 44.1 (41455) - http://www.bohemiancoding.com/sketch -->
    <title>Bold/SVG/badminton</title>
    <desc>Created with Sketch.</desc>
    <defs></defs>
    <g id="Bold-Outline" stroke="none" stroke-width="1" fill="none" fill-rule="evenodd">
        <g id="badminton" fill-rule="nonzero" fill="#000000">
            <path d="M7.2616703,8.67588386 L8.67588386,10.0900974 L10.0900974,8.67588386 L8.67588386,7.2616703 L7.2616703,8.67588386 Z M5.84745674,7.2616703 L7.2616703,5.84745674 L4.85055819,3.43634462 C4.5784953,3.6245259 4.32042578,3.83895378 4.07968978,4.07968978 C3.83895378,4.32042578 3.6245259,4.5784953 3.43634462,4.85055819 L5.84745674,7.2616703 Z M12.1615915,3.7759627 L10.0900974,5.84745674 L11.504311,7.2616703 L13.575805,5.19017627 C13.3782388,4.92701041 13.1591297,4.6738483 12.9185245,4.43324317 C12.6779194,4.19263805 12.4247573,3.97352888 12.1615915,3.7759627 Z M10.3193553,2.78977175 C9.16859465,2.38689538 7.95038593,2.31407594 6.81675402,2.57411334 L8.67588386,4.43324317 L10.3193553,2.78977175 Z M3.7759627,12.1615915 C3.97352888,12.4247573 4.19263805,12.6779194 4.43324317,12.9185245 C4.6738483,13.1591297 4.92701041,13.3782388 5.19017627,13.575805 L7.2616703,11.504311 L5.84745674,10.0900974 L3.7759627,12.1615915 Z M2.78977175,10.3193553 L4.43324317,8.67588386 L2.57411334,6.81675402 C2.31407594,7.95038593 2.38689538,9.16859465 2.78977175,10.3193553 Z M10.0900974,11.504311 L12.5012095,13.9154231 C12.7732724,13.7272418 13.0313419,13.5128139 13.2720779,13.2720779 C13.5128139,13.0313419 13.7272418,12.7732724 13.9154231,12.5012095 L11.504311,10.0900974 L10.0900974,11.504311 Z M14.561996,7.03241243 L12.9185245,8.67588386 L14.7776544,10.5350137 C15.0376918,9.4013818 14.9648723,8.18317307 14.561996,7.03241243 Z M7.03241243,14.561996 C8.18317307,14.9648723 9.4013818,15.0376918 10.5350137,14.7776544 L8.67588386,12.9185245 L7.03241243,14.561996 Z M13.932807,15.3470206 C10.7638502,17.7760181 6.07517593,17.3888844 3.01902961,14.3327381 C-0.289941125,11.0237674 -0.470036919,5.80098936 2.66547622,2.66547622 C5.80098936,-0.470036919 11.0237674,-0.289941125 14.3327381,3.01902961 C17.3888844,6.07517593 17.7760181,10.7638502 15.3470206,13.932807 L17.5147186,16.1005051 L17.868272,15.7469517 C18.2587963,15.3564274 18.8919613,15.3564274 19.2824856,15.7469517 L22.8180195,19.2824856 C23.2085438,19.6730099 23.2085438,20.3061748 22.8180195,20.6966991 L20.6966991,22.8180195 C20.3061748,23.2085438 19.6730099,23.2085438 19.2824856,22.8180195 L15.7469517,19.2824856 C15.3564274,18.8919613 15.3564274,18.2587963 15.7469517,17.868272 L16.1005051,17.5147186 L13.932807,15.3470206 Z M19.9895924,20.6966991 L20.6966991,19.9895924 L18.5753788,17.868272 L17.868272,18.5753788 L19.9895924,20.6966991 Z" id="shape"></path>
        </g>
    </g>
</svg>