<?xml version="1.0" encoding="UTF-8"?>
<svg width="24px" height="24px" viewBox="0 0 24 24" version="1.1" xmlns="http://www.w3.org/2000/svg" xmlns:xlink="http://www.w3.org/1999/xlink">
    <!-- Generator: Sketch 44.1 (41455) - http://www.bohemiancoding.com/sketch -->
    <title>Bold/SVG/bag</title>
    <desc>Created with Sketch.</desc>
    <defs></defs>
    <g id="Bold-Outline" stroke="none" stroke-width="1" fill="none" fill-rule="evenodd">
        <g id="bag" fill-rule="nonzero" fill="#000000">
            <path d="M14.1646982,4.24853818 C13.7322288,3.50209269 12.9247494,3 12,3 C11.0752506,3 10.2677712,3.50209269 9.83530176,4.24853818 C10.5312968,4.08589696 11.2560985,4 12,4 C12.7439015,4 13.4687032,4.08589696 14.1646982,4.24853818 Z M16.4846589,5.12574652 C19.2973053,6.63755303 21.268212,9.53021804 21.4680505,12.927473 L21.8114411,18.7651119 C21.9411662,20.9704388 20.2585585,22.8633724 18.0532317,22.9930975 C17.9750201,22.9976982 17.8966903,23 17.8183436,23 L6.18165642,23 C3.97251742,23 2.18165642,21.209139 2.18165642,19 C2.18165642,18.9216533 2.18395825,18.8433234 2.18855892,18.7651119 L2.53194945,12.927473 C2.73178798,9.53021804 4.70269471,6.63755303 7.51534114,5.12574652 C7.70554234,2.81556717 9.64074695,1 12,1 C14.359253,1 16.2944577,2.81556717 16.4846589,5.12574652 Z M14.5,6.42816443 C13.7171055,6.15070269 12.8753076,6 12,6 C11.1246924,6 10.2828945,6.15070269 9.5,6.42816443 L9.5,8 C9.5,8.55228475 9.05228475,9 8.5,9 C7.94771525,9 7.5,8.55228475 7.5,8 L7.5,7.50361296 C5.80207545,8.78257892 4.66229091,10.7704409 4.5284982,13.044917 L4.18510767,18.882556 C4.18280733,18.9216617 4.18165642,18.9608266 4.18165642,19 C4.18165642,20.1045695 5.07708692,21 6.18165642,21 L17.8183436,21 C17.8575169,21 17.8966819,20.9988491 17.9357876,20.9965487 C19.0384511,20.9316862 19.8797549,19.9852194 19.8148923,18.882556 L19.4715018,13.044917 C19.3377091,10.7704409 18.1979245,8.78257892 16.5,7.50361296 L16.5,8 C16.5,8.55228475 16.0522847,9 15.5,9 C14.9477153,9 14.5,8.55228475 14.5,8 L14.5,6.42816443 Z M9.00004574,12 L15.0000457,12 C16.6569,12 18.0000457,13.3431458 18.0000457,15 L18.0000457,17 C18.0000457,18.6568542 16.6569,20 15.0000457,20 L9.00004574,20 C7.34319149,20 6.00004574,18.6568542 6.00004574,17 L6.00004574,15 C6.00004574,13.3431458 7.34319149,12 9.00004574,12 Z M8.00004574,15 L8.00004574,17 C8.00004574,17.5522847 8.44776099,18 9.00004574,18 L15.0000457,18 C15.5523305,18 16.0000457,17.5522847 16.0000457,17 L16.0000457,15 C16.0000457,14.4477153 15.5523305,14 15.0000457,14 L9.00004574,14 C8.44776099,14 8.00004574,14.4477153 8.00004574,15 Z" id="shape"></path>
        </g>
    </g>
</svg>