<?xml version="1.0" encoding="UTF-8"?>
<svg width="24px" height="24px" viewBox="0 0 24 24" version="1.1" xmlns="http://www.w3.org/2000/svg" xmlns:xlink="http://www.w3.org/1999/xlink">
    <!-- Generator: Sketch 44.1 (41455) - http://www.bohemiancoding.com/sketch -->
    <title>Bold/SVG/basketball</title>
    <desc>Created with Sketch.</desc>
    <defs></defs>
    <g id="Bold-Outline" stroke="none" stroke-width="1" fill="none" fill-rule="evenodd">
        <g id="basketball" fill-rule="nonzero" fill="#000000">
            <path d="M10.8076011,14.6066125 C11.4507496,15.0889429 12.1432398,15.5077409 12.8754922,15.8541428 C14.7032046,13.1425874 17.6531758,11.3634535 20.9504297,11.0497355 C20.7662349,9.29446388 20.0775056,7.68943757 19.0318994,6.38231419 L10.8076011,14.6066125 Z M9.31009888,13.2756876 L17.6176858,4.96810063 C16.3105583,3.92249111 14.7055261,3.23376076 12.950248,3.04956854 C12.623002,6.48783397 10.7023599,9.5421784 7.81071968,11.3420173 C8.2449597,12.0381291 8.74807951,12.6857639 9.31009888,13.2756876 Z M4.96810063,17.6176858 L7.89552945,14.690257 C7.18442402,13.9489706 6.5534157,13.128777 6.01707548,12.2431828 C5.07083004,12.6145778 4.07404764,12.853416 3.04959479,12.9504981 C3.23382617,14.7056785 3.92254077,16.3106204 4.96810063,17.6176858 Z M6.38231419,19.0318994 C7.68938155,20.0774608 9.29432631,20.7661759 11.0495099,20.950406 C11.1595328,19.7895045 11.4515077,18.6648023 11.9111953,17.6098943 C11.010662,17.174296 10.1629124,16.6446446 9.38108998,16.0331236 L6.38231419,19.0318994 Z M23,12 C23,14.3313017 22.2719272,16.5556787 20.9402915,18.4099825 C18.887135,21.2690045 15.5876942,23 12,23 C5.92486775,23 1,18.0751322 1,12 C1,9.00494198 2.20406166,6.19867445 4.30079279,4.14364726 C6.34291112,2.14214662 9.08259478,1 12,1 C18.0751322,1 23,5.92486775 23,12 Z M6.00339861,5.28855337 C6.03838181,6.77225024 6.34294514,8.21227282 6.89429398,9.55483477 C9.12609158,8.10791765 10.6218338,5.7366493 10.9376346,3.06211373 C9.09127021,3.27932287 7.3777517,4.05906541 6.00339861,5.28855337 Z M14.8182166,16.5739123 C15.8444496,16.8553516 16.9118048,17 18,17 C18.5218143,17 19.0391674,16.9667539 19.550004,16.900929 C20.2998842,15.7486745 20.7759776,14.4412363 20.9379933,13.062318 C18.4860782,13.3516486 16.2854491,14.6326565 14.8182166,16.5739123 Z M3.06207791,10.9380781 C3.76304937,10.8557789 4.44631489,10.6921794 5.10138181,10.451694 C4.69758665,9.49755082 4.40113683,8.50017949 4.21816324,7.47450929 C3.60413269,8.52811632 3.2073129,9.70325362 3.06207791,10.9380781 Z M13.7707593,18.3495925 C13.407189,19.1676949 13.1676207,20.0379465 13.0619503,20.9377831 C14.7688086,20.736657 16.3573959,20.0549765 17.663607,18.9960313 C16.3285937,18.9645034 15.021191,18.7454289 13.7707593,18.3495925 Z" id="shape"></path>
        </g>
    </g>
</svg>