<?xml version="1.0" encoding="UTF-8"?>
<svg width="24px" height="24px" viewBox="0 0 24 24" version="1.1" xmlns="http://www.w3.org/2000/svg" xmlns:xlink="http://www.w3.org/1999/xlink">
    <!-- Generator: Sketch 44.1 (41455) - http://www.bohemiancoding.com/sketch -->
    <title>Bold/SVG/battery-off</title>
    <desc>Created with Sketch.</desc>
    <defs></defs>
    <g id="Bold-Outline" stroke="none" stroke-width="1" fill="none" fill-rule="evenodd">
        <g id="battery-off" fill-rule="nonzero" fill="#000000">
            <path d="M13.5,4 L5,4 C2.790861,4 1,5.790861 1,8 L1,16.5 C1,17.0522847 1.44771525,17.5 2,17.5 C2.55228475,17.5 3,17.0522847 3,16.5 L3,8 C3,6.8954305 3.8954305,6 5,6 L13.5,6 C14.0522847,6 14.5,5.55228475 14.5,5 C14.5,4.44771525 14.0522847,4 13.5,4 Z M7.41421356,18 L17,18 C18.1045695,18 19,17.1045695 19,16 L19,8 C19,7.56016502 18.857232,7.14543853 18.6063913,6.8078223 L7.41421356,18 Z M17.8402137,4.74557277 C17.8501049,4.73524615 17.8601884,4.725165 17.8704549,4.71533153 L20.4852814,2.10050506 C20.8758057,1.70998077 21.5089706,1.70998077 21.8994949,2.10050506 C22.2900192,2.49102936 22.2900192,3.12419433 21.8994949,3.51471863 L20.0281963,5.38601729 C20.6432254,6.09811307 21,7.01858515 21,8 L21,16 C21,18.209139 19.209139,20 17,20 L5.41421356,20 L3.51471863,21.8994949 C3.12419433,22.2900192 2.49102936,22.2900192 2.10050506,21.8994949 C1.70998077,21.5089706 1.70998077,20.8758057 2.10050506,20.4852814 L17.8402135,4.74557294 Z M22,10 C22,9.44771525 22.4477153,9 23,9 C23.5522847,9 24,9.44771525 24,10 L24,14 C24,14.5522847 23.5522847,15 23,15 C22.4477153,15 22,14.5522847 22,14 L22,10 Z" id="shape"></path>
        </g>
    </g>
</svg>