<?xml version="1.0" encoding="UTF-8"?>
<svg width="24px" height="24px" viewBox="0 0 24 24" version="1.1" xmlns="http://www.w3.org/2000/svg" xmlns:xlink="http://www.w3.org/1999/xlink">
    <!-- Generator: Sketch 44.1 (41455) - http://www.bohemiancoding.com/sketch -->
    <title>Bold/SVG/beer</title>
    <desc>Created with Sketch.</desc>
    <defs></defs>
    <g id="Bold-Outline" stroke="none" stroke-width="1" fill="none" fill-rule="evenodd">
        <g id="beer" fill-rule="nonzero" fill="#000000">
            <path d="M19,10 L19,16 C20.1045695,16 21,15.1045695 21,14 L21,10 L19,10 Z M19,18 L19,18.5 C19,20.709139 17.209139,22.5 15,22.5 L6,22.5 C3.790861,22.5 2,20.709139 2,18.5 L2,9.46293883 C1.38832464,8.94511245 1,8.17161406 1,7.3074176 L1,5.5 C1,3.290861 2.790861,1.5 5,1.5 L16,1.5 C18.209139,1.5 20,3.290861 20,5.5 L20,6.76393202 C20,7.13372056 19.9139036,7.49843068 19.7485292,7.82917961 C19.7191809,7.8878761 19.6877362,7.94483135 19.6543312,8 L22,8 C22.5522847,8 23,8.44771525 23,9 L23,14 C23,16.209139 21.209139,18 19,18 Z M4,10.1248283 L4,18.5 C4,19.6045695 4.8954305,20.5 6,20.5 L15,20.5 C16.1045695,20.5 17,19.6045695 17,18.5 L17,9.0648067 C16.848416,9.02391927 16.6986485,8.96735822 16.5527864,8.89442719 L15.9989245,8.61749626 C15.5771683,8.40661815 15.0654094,8.51901925 14.7708421,8.8872284 L13.1767687,10.8798202 C13.107624,10.9662511 13.033749,11.048789 12.9554826,11.1270554 C11.7839097,12.2986283 9.88441476,12.2986283 8.71284188,11.1270554 L7.22542021,9.63963377 C6.94255762,9.35677118 6.51833953,9.26969715 6.14692275,9.41826386 L4.87139068,9.92847669 C4.59284074,10.0398967 4.29866787,10.1060615 4,10.1248283 Z M4.12860932,8.07152331 L5.4041414,7.56131048 C6.51839172,7.11561035 7.79104601,7.37683244 8.63963377,8.22542021 L10.1270554,9.71284188 C10.5175797,10.1033662 11.1507447,10.1033662 11.541269,9.71284188 C11.5673578,9.68675307 11.5919828,9.65924042 11.615031,9.63043015 L13.2091045,7.6378383 C14.0928065,6.53321086 15.6280831,6.19600755 16.8933517,6.82864187 L17.4472136,7.10557281 C17.6358966,7.19991431 17.8653333,7.12343541 17.9596748,6.93475242 C17.9861938,6.88171436 18,6.82323037 18,6.76393202 L18,5.5 C18,4.3954305 17.1045695,3.5 16,3.5 L5,3.5 C3.8954305,3.5 3,4.3954305 3,5.5 L3,7.3074176 C3,7.76192974 3.36845489,8.13038464 3.82296704,8.13038464 C3.92766444,8.13038464 4.03140023,8.11040695 4.12860932,8.07152331 Z" id="shape"></path>
        </g>
    </g>
</svg>