<?xml version="1.0" encoding="UTF-8"?>
<svg width="24px" height="24px" viewBox="0 0 24 24" version="1.1" xmlns="http://www.w3.org/2000/svg" xmlns:xlink="http://www.w3.org/1999/xlink">
    <!-- Generator: Sketch 44.1 (41455) - http://www.bohemiancoding.com/sketch -->
    <title>Bold/SVG/bluetooth-off</title>
    <desc>Created with Sketch.</desc>
    <defs></defs>
    <g id="Bold-Outline" stroke="none" stroke-width="1" fill="none" fill-rule="evenodd">
        <g id="bluetooth-off" fill-rule="nonzero" fill="#000000">
            <path d="M13,13.9431893 L13,13.8621099 C13,15.6937028 13,16.6197521 13,20.8257794 L17.37983,17.0716393 L13,13.9431893 Z M19.007297,18.2341157 C18.9134402,18.3655152 18.8040155,18.4850645 18.6814128,18.5901525 L14.3015827,22.3442926 C13.4629311,23.0631369 12.2003311,22.9660138 11.4814868,22.1273621 C11.1707843,21.7648759 11,21.3032019 11,20.8257794 L11,12 C11,11.1866274 11.9193697,10.7135033 12.5812382,11.1862665 L18.5423064,15.4441724 C19.4411316,16.0861904 19.6493149,17.3352906 19.007297,18.2341157 Z M13,7 C13,7.55228475 12.5522847,8 12,8 C11.4477153,8 11,7.55228475 11,7 L11,3.17422064 C11,2.06965114 11.8954305,1.17422064 13,1.17422064 C13.4774225,1.17422064 13.9390965,1.34500496 14.3174823,1.66962971 L15.6353188,2.84841568 C16.0469556,3.2166189 16.0821655,3.84880412 15.7139622,4.2604409 C15.345759,4.67207768 14.7135738,4.70728753 14.301937,4.33908432 L13,3.17422064 L13,7 Z M5.35975841,7.76822448 C4.93547974,7.41466252 4.87815252,6.78409811 5.23171448,6.35981944 C5.58527644,5.93554078 6.21584086,5.87821356 6.64011952,6.23177552 L9.64015004,8.73177552 C10.0644287,9.08533748 10.1217559,9.71590189 9.76819396,10.1401806 C9.41463201,10.5644592 8.78406759,10.6217864 8.35978893,10.2682245 L5.35975841,7.76822448 Z M20.4852814,2.10050506 C20.8758057,1.70998077 21.5089706,1.70998077 21.8994949,2.10050506 C22.2900192,2.49102936 22.2900192,3.12419433 21.8994949,3.51471863 L3.51471863,21.8994949 C3.12419433,22.2900192 2.49102936,22.2900192 2.10050506,21.8994949 C1.70998077,21.5089706 1.70998077,20.8758057 2.10050506,20.4852814 L20.4852814,2.10050506 Z" id="shape"></path>
        </g>
    </g>
</svg>