<?xml version="1.0" encoding="UTF-8"?>
<svg width="24px" height="24px" viewBox="0 0 24 24" version="1.1" xmlns="http://www.w3.org/2000/svg" xmlns:xlink="http://www.w3.org/1999/xlink">
    <!-- Generator: Sketch 44.1 (41455) - http://www.bohemiancoding.com/sketch -->
    <title>Bold/SVG/bra</title>
    <desc>Created with Sketch.</desc>
    <defs></defs>
    <g id="Bold-Outline" stroke="none" stroke-width="1" fill="none" fill-rule="evenodd">
        <g id="bra" fill-rule="nonzero" fill="#000000">
            <path d="M3.5,6 C3.22385763,6 3,6.22385763 3,6.5 L3,15 C3,17.209139 4.790861,19 7,19 L17,19 C19.209139,19 21,17.209139 21,15 L21,6.5 C21,6.22385763 20.7761424,6 20.5,6 C20.2238576,6 20,6.22385763 20,6.5 L20,11 C20,11.5522847 19.5522847,12 19,12 L18.8262379,12 C16.5536056,12 14.4760269,13.2840143 13.4596748,15.3167184 L12.8944272,16.4472136 C12.5259029,17.1842621 11.4740971,17.1842621 11.1055728,16.4472136 L10.5403252,15.3167184 C9.52397314,13.2840143 7.44639443,12 5.17376208,12 L5,12 C4.44771525,12 4,11.5522847 4,11 L4,6.5 C4,6.22385763 3.77614237,6 3.5,6 Z M18,6.5 C18,5.11928813 19.1192881,4 20.5,4 C21.8807119,4 23,5.11928813 23,6.5 L23,15 C23,18.3137085 20.3137085,21 17,21 L7,21 C3.6862915,21 1,18.3137085 1,15 L1,6.5 C1,5.11928813 2.11928813,4 3.5,4 C4.88071187,4 6,5.11928813 6,6.5 L6,10.0426472 C8.47661146,10.2992547 10.6992067,11.6986703 12,13.8281797 C13.3007933,11.6986703 15.5233885,10.2992547 18,10.0426472 L18,6.5 Z" id="Rectangle-125"></path>
        </g>
    </g>
</svg>