<?xml version="1.0" encoding="UTF-8"?>
<svg width="24px" height="24px" viewBox="0 0 24 24" version="1.1" xmlns="http://www.w3.org/2000/svg" xmlns:xlink="http://www.w3.org/1999/xlink">
    <!-- Generator: Sketch 44.1 (41455) - http://www.bohemiancoding.com/sketch -->
    <title>Bold/SVG/briefcase</title>
    <desc>Created with Sketch.</desc>
    <defs></defs>
    <g id="Bold-Outline" stroke="none" stroke-width="1" fill="none" fill-rule="evenodd">
        <g id="briefcase" fill-rule="nonzero" fill="#000000">
            <path d="M6.99999097,6 L6.99999097,5 C6.99999097,3.34314575 8.34313672,2 9.99999097,2 L13.999991,2 C15.6568452,2 16.999991,3.34314575 16.999991,5 L16.999991,6 L19,6 C21.209139,6 23,7.790861 23,10 L23,18 C23,20.209139 21.209139,22 19,22 L5,22 C2.790861,22 1,20.209139 1,18 L1,10 C1,7.790861 2.790861,6 5,6 L6.99999097,6 Z M8.99999097,6 L14.999991,6 L14.999991,5 C14.999991,4.44771525 14.5522757,4 13.999991,4 L9.99999097,4 C9.44770622,4 8.99999097,4.44771525 8.99999097,5 L8.99999097,6 Z M6.99999097,8 L5,8 C3.8954305,8 3,8.8954305 3,10 L3,18 C3,19.1045695 3.8954305,20 5,20 L6.99999097,20 L6.99999097,8 Z M8.99999097,8 L8.99999097,20 L14.999991,20 L14.999991,8 L8.99999097,8 Z M16.999991,8 L16.999991,20 L19,20 C20.1045695,20 21,19.1045695 21,18 L21,10 C21,8.8954305 20.1045695,8 19,8 L16.999991,8 Z" id="shape"></path>
        </g>
    </g>
</svg>