<?xml version="1.0" encoding="UTF-8"?>
<svg width="24px" height="24px" viewBox="0 0 24 24" version="1.1" xmlns="http://www.w3.org/2000/svg" xmlns:xlink="http://www.w3.org/1999/xlink">
    <!-- Generator: Sketch 44.1 (41455) - http://www.bohemiancoding.com/sketch -->
    <title>Bold/SVG/browser</title>
    <desc>Created with Sketch.</desc>
    <defs></defs>
    <g id="Bold-Outline" stroke="none" stroke-width="1" fill="none" fill-rule="evenodd">
        <g id="browser" fill-rule="nonzero" fill="#000000">
            <path d="M20,8 L20,6 C20,4.8954305 19.1045695,4 18,4 L6,4 C4.8954305,4 4,4.8954305 4,6 L4,8 L20,8 Z M20,10 L4,10 L4,18 C4,19.1045695 4.8954305,20 6,20 L18,20 C19.1045695,20 20,19.1045695 20,18 L20,10 Z M6,2 L18,2 C20.209139,2 22,3.790861 22,6 L22,18 C22,20.209139 20.209139,22 18,22 L6,22 C3.790861,22 2,20.209139 2,18 L2,6 C2,3.790861 3.790861,2 6,2 Z M5,6 C5,5.44771525 5.44771525,5 6,5 C6.55228475,5 7,5.44771525 7,6 C7,6.55228475 6.55228475,7 6,7 C5.44771525,7 5,6.55228475 5,6 Z M8,6 C8,5.44771525 8.44771525,5 9,5 C9.55228475,5 10,5.44771525 10,6 C10,6.55228475 9.55228475,7 9,7 C8.44771525,7 8,6.55228475 8,6 Z M11,6 C11,5.44771525 11.4477153,5 12,5 C12.5522847,5 13,5.44771525 13,6 C13,6.55228475 12.5522847,7 12,7 C11.4477153,7 11,6.55228475 11,6 Z" id="shape"></path>
        </g>
    </g>
</svg>