<?xml version="1.0" encoding="UTF-8"?>
<svg width="24px" height="24px" viewBox="0 0 24 24" version="1.1" xmlns="http://www.w3.org/2000/svg" xmlns:xlink="http://www.w3.org/1999/xlink">
    <!-- Generator: Sketch 44.1 (41455) - http://www.bohemiancoding.com/sketch -->
    <title>Bold/SVG/calender-check</title>
    <desc>Created with Sketch.</desc>
    <defs></defs>
    <g id="Bold-Outline" stroke="none" stroke-width="1" fill="none" fill-rule="evenodd">
        <g id="calender-check" fill-rule="nonzero" fill="#000000">
            <path d="M4,9 L20,9 L20,8 C20,6.8954305 19.1045695,6 18,6 L17,6 L17,7 C17,7.55228475 16.5522847,8 16,8 C15.4477153,8 15,7.55228475 15,7 L15,6 L9,6 L9,7 C9,7.55228475 8.55228475,8 8,8 C7.44771525,8 7,7.55228475 7,7 L7,6 L6,6 C4.8954305,6 4,6.8954305 4,8 L4,9 Z M20,11 L4,11 L4,18 C4,19.1045695 4.8954305,20 6,20 L12,20 C12.5522847,20 13,20.4477153 13,21 C13,21.5522847 12.5522847,22 12,22 L6,22 C3.790861,22 2,20.209139 2,18 L2,8 C2,5.790861 3.790861,4 6,4 L7,4 L7,3 C7,2.44771525 7.44771525,2 8,2 C8.55228475,2 9,2.44771525 9,3 L9,4 L15,4 L15,3 C15,2.44771525 15.4477153,2 16,2 C16.5522847,2 17,2.44771525 17,3 L17,4 L18,4 C20.209139,4 22,5.790861 22,8 L22,12 C22,12.5522847 21.5522847,13 21,13 C20.4477153,13 20,12.5522847 20,12 L20,11 Z M15.636039,16.5 L17.7573593,18.6213203 L21.2928932,15.0857864 C21.6834175,14.6952621 22.3165825,14.6952621 22.7071068,15.0857864 C23.0976311,15.4763107 23.0976311,16.1094757 22.7071068,16.5 L18.4644661,20.7426407 C18.0739418,21.133165 17.4407768,21.133165 17.0502525,20.7426407 L14.2218254,17.9142136 C13.8313011,17.5236893 13.8313011,16.8905243 14.2218254,16.5 C14.6123497,16.1094757 15.2455147,16.1094757 15.636039,16.5 Z" id="shape"></path>
        </g>
    </g>
</svg>