<?xml version="1.0" encoding="UTF-8"?>
<svg width="24px" height="24px" viewBox="0 0 24 24" version="1.1" xmlns="http://www.w3.org/2000/svg" xmlns:xlink="http://www.w3.org/1999/xlink">
    <!-- Generator: Sketch 44.1 (41455) - http://www.bohemiancoding.com/sketch -->
    <title>Bold/SVG/camera</title>
    <desc>Created with Sketch.</desc>
    <defs></defs>
    <g id="Bold-Outline" stroke="none" stroke-width="1" fill="none" fill-rule="evenodd">
        <g id="camera" fill-rule="nonzero" fill="#000000">
            <path d="M7.27924078,5 L7.82339262,3.36754447 C8.09562072,2.55086019 8.8598984,2 9.72075922,2 L14.2792408,2 C15.1401016,2 15.9043793,2.55086019 16.1766074,3.36754447 L16.7207592,5 L19,5 C21.209139,5 23,6.790861 23,9 L23,18 C23,20.209139 21.209139,22 19,22 L5,22 C2.790861,22 1,20.209139 1,18 L1,9 C1,6.790861 2.790861,5 5,5 L7.27924078,5 Z M9.17660738,5.63245553 C8.90437928,6.44913981 8.1401016,7 7.27924078,7 L5,7 C3.8954305,7 3,7.8954305 3,9 L3,18 C3,19.1045695 3.8954305,20 5,20 L19,20 C20.1045695,20 21,19.1045695 21,18 L21,9 C21,7.8954305 20.1045695,7 19,7 L16.7207592,7 C15.8598984,7 15.0956207,6.44913981 14.8233926,5.63245553 L14.2792408,4 L9.72075922,4 L9.17660738,5.63245553 Z M12,18 C9.23857625,18 7,15.7614237 7,13 C7,10.2385763 9.23857625,8 12,8 C14.7614237,8 17,10.2385763 17,13 C17,15.7614237 14.7614237,18 12,18 Z M12,16 C13.6568542,16 15,14.6568542 15,13 C15,11.3431458 13.6568542,10 12,10 C10.3431458,10 9,11.3431458 9,13 C9,14.6568542 10.3431458,16 12,16 Z" id="shape"></path>
        </g>
    </g>
</svg>