<?xml version="1.0" encoding="UTF-8"?>
<svg width="24px" height="24px" viewBox="0 0 24 24" version="1.1" xmlns="http://www.w3.org/2000/svg" xmlns:xlink="http://www.w3.org/1999/xlink">
    <!-- Generator: Sketch 44.1 (41455) - http://www.bohemiancoding.com/sketch -->
    <title>Bold/SVG/capsule</title>
    <desc>Created with Sketch.</desc>
    <defs></defs>
    <g id="Bold-Outline" stroke="none" stroke-width="1" fill="none" fill-rule="evenodd">
        <g id="capsule" fill-rule="nonzero" fill="#000000">
            <path d="M7.75735931,9.17157288 L4.92893219,12 C2.97631073,13.9526215 2.97631073,17.1184464 4.92893219,19.0710678 C6.88155365,21.0236893 10.0473785,21.0236893 12,19.0710678 L14.8284271,16.2426407 L7.75735931,9.17157288 Z M9.17157288,7.75735931 L16.2426407,14.8284271 L19.0710678,12 C21.0236893,10.0473785 21.0236893,6.88155365 19.0710678,4.92893219 C17.1184464,2.97631073 13.9526215,2.97631073 12,4.92893219 L9.17157288,7.75735931 Z M3.51471863,10.5857864 L10.5857864,3.51471863 C13.3194565,0.781048584 17.7516113,0.781048584 20.4852814,3.51471863 C23.2189514,6.24838867 23.2189514,10.6805435 20.4852814,13.4142136 L13.4142136,20.4852814 C10.6805435,23.2189514 6.24838867,23.2189514 3.51471863,20.4852814 C0.781048584,17.7516113 0.781048584,13.3194565 3.51471863,10.5857864 Z M18.363961,5.82842712 C18.7544853,6.21895142 18.7544853,6.8521164 18.363961,7.24264069 C17.9734367,7.63316498 17.3402718,7.63316498 16.9497475,7.24264069 C16.1686989,6.4615921 14.9023689,6.4615921 14.1213203,7.24264069 C13.7307961,7.63316498 13.0976311,7.63316498 12.7071068,7.24264069 C12.3165825,6.8521164 12.3165825,6.21895142 12.7071068,5.82842712 C14.2692039,4.26632996 16.8018639,4.26632996 18.363961,5.82842712 Z" id="shape"></path>
        </g>
    </g>
</svg>