<?xml version="1.0" encoding="UTF-8"?>
<svg width="24px" height="24px" viewBox="0 0 24 24" version="1.1" xmlns="http://www.w3.org/2000/svg" xmlns:xlink="http://www.w3.org/1999/xlink">
    <!-- Generator: Sketch 44.1 (41455) - http://www.bohemiancoding.com/sketch -->
    <title>Bold/SVG/check-circle</title>
    <desc>Created with Sketch.</desc>
    <defs></defs>
    <g id="Bold-Outline" stroke="none" stroke-width="1" fill="none" fill-rule="evenodd">
        <g id="check-circle" fill-rule="nonzero" fill="#000000">
            <path d="M12,23 C5.92486775,23 1,18.0751322 1,12 C1,5.92486775 5.92486775,1 12,1 C18.0751322,1 23,5.92486775 23,12 C23,18.0751322 18.0751322,23 12,23 Z M12,21 C16.9705627,21 21,16.9705627 21,12 C21,7.02943725 16.9705627,3 12,3 C7.02943725,3 3,7.02943725 3,12 C3,16.9705627 7.02943725,21 12,21 Z M8.46446609,11.7071068 L10.5857864,13.8284271 L15.5355339,8.87867966 C15.9260582,8.48815536 16.5592232,8.48815536 16.9497475,8.87867966 C17.3402718,9.26920395 17.3402718,9.90236893 16.9497475,10.2928932 L11.2928932,15.9497475 C10.9023689,16.3402718 10.2692039,16.3402718 9.87867966,15.9497475 L7.05025253,13.1213203 C6.65972824,12.7307961 6.65972824,12.0976311 7.05025253,11.7071068 C7.44077682,11.3165825 8.0739418,11.3165825 8.46446609,11.7071068 Z" id="shape"></path>
        </g>
    </g>
</svg>