<?xml version="1.0" encoding="UTF-8"?>
<svg width="24px" height="24px" viewBox="0 0 24 24" version="1.1" xmlns="http://www.w3.org/2000/svg" xmlns:xlink="http://www.w3.org/1999/xlink">
    <!-- Generator: Sketch 44.1 (41455) - http://www.bohemiancoding.com/sketch -->
    <title>Bold/SVG/check-square</title>
    <desc>Created with Sketch.</desc>
    <defs></defs>
    <g id="Bold-Outline" stroke="none" stroke-width="1" fill="none" fill-rule="evenodd">
        <g id="check-square" fill-rule="nonzero" fill="#000000">
            <path d="M6,2 L18,2 C20.209139,2 22,3.790861 22,6 L22,18 C22,20.209139 20.209139,22 18,22 L6,22 C3.790861,22 2,20.209139 2,18 L2,6 C2,3.790861 3.790861,2 6,2 Z M6,4 C4.8954305,4 4,4.8954305 4,6 L4,18 C4,19.1045695 4.8954305,20 6,20 L18,20 C19.1045695,20 20,19.1045695 20,18 L20,6 C20,4.8954305 19.1045695,4 18,4 L6,4 Z M8.46446609,11.7071068 L10.5857864,13.8284271 L15.5355339,8.87867966 C15.9260582,8.48815536 16.5592232,8.48815536 16.9497475,8.87867966 C17.3402718,9.26920395 17.3402718,9.90236893 16.9497475,10.2928932 L11.2928932,15.9497475 C10.9023689,16.3402718 10.2692039,16.3402718 9.87867966,15.9497475 L7.05025253,13.1213203 C6.65972824,12.7307961 6.65972824,12.0976311 7.05025253,11.7071068 C7.44077682,11.3165825 8.0739418,11.3165825 8.46446609,11.7071068 Z" id="shape"></path>
        </g>
    </g>
</svg>