<?xml version="1.0" encoding="UTF-8"?>
<svg width="24px" height="24px" viewBox="0 0 24 24" version="1.1" xmlns="http://www.w3.org/2000/svg" xmlns:xlink="http://www.w3.org/1999/xlink">
    <!-- Generator: Sketch 44.1 (41455) - http://www.bohemiancoding.com/sketch -->
    <title>Bold/SVG/chicken</title>
    <desc>Created with Sketch.</desc>
    <defs></defs>
    <g id="Bold-Outline" stroke="none" stroke-width="1" fill="none" fill-rule="evenodd">
        <g id="chicken" fill-rule="nonzero" fill="#000000">
            <path d="M9.02002937,4.52953842 C9.18596406,2.59163602 10.3678063,1 12,1 C13.6319532,1 14.8136876,2.59116692 14.9798972,4.52868164 C18.2744355,5.74177964 20.6241438,8.90855983 20.6241438,12.6241438 C20.6241438,13.0991691 20.5848967,13.5733823 20.506803,14.0419443 L20.0234545,16.9420357 L20.9710028,20.258455 C21.32381,21.4932802 20.6087932,22.7803105 19.373968,23.1331177 C18.7180401,23.3205257 18.012904,23.2104531 17.4452998,22.8320503 L15.809536,21.7415411 C15.4129134,21.477126 14.8847934,21.5294202 14.547729,21.8664846 L14.1213203,22.2928932 C12.9497475,23.4644661 11.0502525,23.4644661 9.87867966,22.2928932 L9.45227102,21.8664846 C9.11520663,21.5294202 8.58708662,21.477126 8.19046404,21.7415411 L6.5547002,22.8320503 C5.48614994,23.5444171 4.04243139,23.2556734 3.33006456,22.1871232 C2.95166177,21.619519 2.84158919,20.9143829 3.02899717,20.258455 L3.97654553,16.9420357 L3.49319696,14.0419443 C2.80054703,9.88604472 5.20406545,5.92950543 9.02002937,4.52953842 Z M11.1341406,4.043576 C11.4217306,4.01455548 11.7107147,4 12,4 C12.292174,4 12.5809545,4.01452924 12.8656585,4.04290463 C12.6740741,3.40292234 12.3110939,3 12,3 C11.6887974,3 11.325672,3.40320414 11.1341406,4.043576 Z M12,6 C11.6351365,6 11.2708966,6.03014541 10.9109975,6.09012861 C7.30236052,6.6915681 4.86454532,10.1045094 5.46598481,13.7131463 L5.98639392,16.835601 C6.01079479,16.9820062 6.00229934,17.1320072 5.96152395,17.2747211 L4.95204506,20.8078972 C4.92582621,20.8996632 4.94122564,20.9983135 4.99416515,21.0777228 C5.09382706,21.2272156 5.29580693,21.2676116 5.4452998,21.1679497 L7.08106365,20.0774405 C8.2709314,19.2841953 9.85529143,19.4410779 10.8664846,20.452271 L11.2928932,20.8786797 C11.6834175,21.2692039 12.3165825,21.2692039 12.7071068,20.8786797 L13.1335154,20.452271 C14.1447086,19.4410779 15.7290686,19.2841953 16.9189364,20.0774405 L18.5547002,21.1679497 C18.6341095,21.2208892 18.7327598,21.2362886 18.8245257,21.2100698 C18.9972809,21.1607112 19.0973136,20.9806524 19.0479549,20.8078972 L18.0384761,17.2747211 C17.9977007,17.1320072 17.9892052,16.9820062 18.0136061,16.835601 L18.5340152,13.7131463 C18.5939984,13.3532471 18.6241438,12.9890073 18.6241438,12.6241438 C18.6241438,8.9657302 15.6584136,6 12,6 Z M12,19 C10.1930957,19 9,16.9120825 9,14.5 C9,12.2179236 10.149791,11 12,11 C13.850209,11 15,12.2179236 15,14.5 C15,16.9120825 13.8069043,19 12,19 Z M12,17 C12.4022347,17 13,15.9539107 13,14.5 C13,13.2975703 12.7190762,13 12,13 C11.2809238,13 11,13.2975703 11,14.5 C11,15.9539107 11.5977653,17 12,17 Z M9,11 C8.44771525,11 8,10.5522847 8,10 C8,9.44771525 8.44771525,9 9,9 C9.55228475,9 10,9.44771525 10,10 C10,10.5522847 9.55228475,11 9,11 Z M15,11 C14.4477153,11 14,10.5522847 14,10 C14,9.44771525 14.4477153,9 15,9 C15.5522847,9 16,9.44771525 16,10 C16,10.5522847 15.5522847,11 15,11 Z" id="shape"></path>
        </g>
    </g>
</svg>