<?xml version="1.0" encoding="UTF-8"?>
<svg width="24px" height="24px" viewBox="0 0 24 24" version="1.1" xmlns="http://www.w3.org/2000/svg" xmlns:xlink="http://www.w3.org/1999/xlink">
    <!-- Generator: Sketch 44.1 (41455) - http://www.bohemiancoding.com/sketch -->
    <title>Bold/SVG/clipboard</title>
    <desc>Created with Sketch.</desc>
    <defs></defs>
    <g id="Bold-Outline" stroke="none" stroke-width="1" fill="none" fill-rule="evenodd">
        <g id="clipboard" fill-rule="nonzero" fill="#000000">
            <path d="M16.9369913,2.5 L17,2.5 C19.209139,2.5 21,4.290861 21,6.5 L21,19 C21,21.209139 19.209139,23 17,23 L7,23 C4.790861,23 3,21.209139 3,19 L3,6.5 C3,4.290861 4.790861,2.5 7,2.5 L7.06300874,2.5 C7.28503014,1.63738639 8.06808029,1 9,1 L15,1 C15.9319197,1 16.7149699,1.63738639 16.9369913,2.5 Z M7.06300874,4.5 L7,4.5 C5.8954305,4.5 5,5.3954305 5,6.5 L5,19 C5,20.1045695 5.8954305,21 7,21 L17,21 C18.1045695,21 19,20.1045695 19,19 L19,6.5 C19,5.3954305 18.1045695,4.5 17,4.5 L16.9369913,4.5 C16.7149699,5.36261361 15.9319197,6 15,6 L9,6 C8.06808029,6 7.28503014,5.36261361 7.06300874,4.5 Z M8,10.5 C7.44771525,10.5 7,10.0522847 7,9.5 C7,8.94771525 7.44771525,8.5 8,8.5 L16,8.5 C16.5522847,8.5 17,8.94771525 17,9.5 C17,10.0522847 16.5522847,10.5 16,10.5 L8,10.5 Z M8,14.5 C7.44771525,14.5 7,14.0522847 7,13.5 C7,12.9477153 7.44771525,12.5 8,12.5 L16,12.5 C16.5522847,12.5 17,12.9477153 17,13.5 C17,14.0522847 16.5522847,14.5 16,14.5 L8,14.5 Z M8,18.5 C7.44771525,18.5 7,18.0522847 7,17.5 C7,16.9477153 7.44771525,16.5 8,16.5 L14,16.5 C14.5522847,16.5 15,16.9477153 15,17.5 C15,18.0522847 14.5522847,18.5 14,18.5 L8,18.5 Z M9,3 L9,4 L15,4 L15,3 L9,3 Z" id="shape"></path>
        </g>
    </g>
</svg>