<?xml version="1.0" encoding="UTF-8"?>
<svg width="24px" height="24px" viewBox="0 0 24 24" version="1.1" xmlns="http://www.w3.org/2000/svg" xmlns:xlink="http://www.w3.org/1999/xlink">
    <!-- Generator: Sketch 44.1 (41455) - http://www.bohemiancoding.com/sketch -->
    <title>Bold/SVG/close-square</title>
    <desc>Created with Sketch.</desc>
    <defs></defs>
    <g id="Bold-Outline" stroke="none" stroke-width="1" fill="none" fill-rule="evenodd">
        <g id="close-square" fill-rule="nonzero" fill="#000000">
            <path d="M12,10.5857864 L14.1213203,8.46446609 C14.5118446,8.0739418 15.1450096,8.0739418 15.5355339,8.46446609 C15.9260582,8.85499039 15.9260582,9.48815536 15.5355339,9.87867966 L13.4142136,12 L15.5355339,14.1213203 C15.9260582,14.5118446 15.9260582,15.1450096 15.5355339,15.5355339 C15.1450096,15.9260582 14.5118446,15.9260582 14.1213203,15.5355339 L12,13.4142136 L9.87867966,15.5355339 C9.48815536,15.9260582 8.85499039,15.9260582 8.46446609,15.5355339 C8.0739418,15.1450096 8.0739418,14.5118446 8.46446609,14.1213203 L10.5857864,12 L8.46446609,9.87867966 C8.0739418,9.48815536 8.0739418,8.85499039 8.46446609,8.46446609 C8.85499039,8.0739418 9.48815536,8.0739418 9.87867966,8.46446609 L12,10.5857864 Z M6,2 L18,2 C20.209139,2 22,3.790861 22,6 L22,18 C22,20.209139 20.209139,22 18,22 L6,22 C3.790861,22 2,20.209139 2,18 L2,6 C2,3.790861 3.790861,2 6,2 Z M6,4 C4.8954305,4 4,4.8954305 4,6 L4,18 C4,19.1045695 4.8954305,20 6,20 L18,20 C19.1045695,20 20,19.1045695 20,18 L20,6 C20,4.8954305 19.1045695,4 18,4 L6,4 Z" id="shape"></path>
        </g>
    </g>
</svg>