<?xml version="1.0" encoding="UTF-8"?>
<svg width="24px" height="24px" viewBox="0 0 24 24" version="1.1" xmlns="http://www.w3.org/2000/svg" xmlns:xlink="http://www.w3.org/1999/xlink">
    <!-- Generator: Sketch 44.1 (41455) - http://www.bohemiancoding.com/sketch -->
    <title>Bold/SVG/close</title>
    <desc>Created with Sketch.</desc>
    <defs></defs>
    <g id="Bold-Outline" stroke="none" stroke-width="1" fill="none" fill-rule="evenodd">
        <g id="close" fill-rule="nonzero" fill="#000000">
            <path d="M10.5857864,12 L4.22182541,18.363961 C3.83130112,18.7544853 3.83130112,19.3876503 4.22182541,19.7781746 C4.6123497,20.1686989 5.24551468,20.1686989 5.63603897,19.7781746 L12,13.4142136 L18.363961,19.7781746 C18.7544853,20.1686989 19.3876503,20.1686989 19.7781746,19.7781746 C20.1686989,19.3876503 20.1686989,18.7544853 19.7781746,18.363961 L13.4142136,12 L19.7781746,5.63603897 C20.1686989,5.24551468 20.1686989,4.6123497 19.7781746,4.22182541 C19.3876503,3.83130112 18.7544853,3.83130112 18.363961,4.22182541 L12,10.5857864 L5.63603897,4.22182541 C5.24551468,3.83130112 4.6123497,3.83130112 4.22182541,4.22182541 C3.83130112,4.6123497 3.83130112,5.24551468 4.22182541,5.63603897 L10.5857864,12 L10.5857864,12 Z" id="shape"></path>
        </g>
    </g>
</svg>