<?xml version="1.0" encoding="UTF-8"?>
<svg width="24px" height="24px" viewBox="0 0 24 24" version="1.1" xmlns="http://www.w3.org/2000/svg" xmlns:xlink="http://www.w3.org/1999/xlink">
    <!-- Generator: Sketch 44.1 (41455) - http://www.bohemiancoding.com/sketch -->
    <title>Bold/SVG/compass</title>
    <desc>Created with Sketch.</desc>
    <defs></defs>
    <g id="Bold-Outline" stroke="none" stroke-width="1" fill="none" fill-rule="evenodd">
        <g id="compass" fill-rule="nonzero" fill="#000000">
            <path d="M9.52781439,8.9419928 L16.5783568,6.12177584 C17.3946687,5.79525106 18.2047489,6.60533126 17.8782242,7.42164321 L15.0580072,14.4721856 C15.0094317,14.6021046 14.9329051,14.7239492 14.8284271,14.8284271 C14.7239492,14.9329051 14.6021046,15.0094317 14.4721856,15.0580072 L7.42164321,17.8782242 C6.60533126,18.2047489 5.79525106,17.3946687 6.12177584,16.5783568 L8.9419928,9.52781439 C8.99056825,9.39789541 9.06709495,9.27605081 9.17157288,9.17157288 C9.27605081,9.06709495 9.39789541,8.99056825 9.52781439,8.9419928 Z M10.2439279,11.6581415 L8.84530747,15.1546925 L12.3418585,13.7560721 L10.2439279,11.6581415 Z M11.6581415,10.2439279 L13.7560721,12.3418585 L15.1546925,8.84530747 L11.6581415,10.2439279 Z M12,23 C5.92486775,23 1,18.0751322 1,12 C1,5.92486775 5.92486775,1 12,1 C18.0751322,1 23,5.92486775 23,12 C23,18.0751322 18.0751322,23 12,23 Z M12,21 C16.9705627,21 21,16.9705627 21,12 C21,7.02943725 16.9705627,3 12,3 C7.02943725,3 3,7.02943725 3,12 C3,16.9705627 7.02943725,21 12,21 Z" id="shape"></path>
        </g>
    </g>
</svg>