<?xml version="1.0" encoding="UTF-8"?>
<svg width="24px" height="24px" viewBox="0 0 24 24" version="1.1" xmlns="http://www.w3.org/2000/svg" xmlns:xlink="http://www.w3.org/1999/xlink">
    <!-- Generator: Sketch 44.1 (41455) - http://www.bohemiancoding.com/sketch -->
    <title>Bold/SVG/dashboard</title>
    <desc>Created with Sketch.</desc>
    <defs></defs>
    <g id="Bold-Outline" stroke="none" stroke-width="1" fill="none" fill-rule="evenodd">
        <g id="dashboard" fill-rule="nonzero" fill="#000000">
            <path d="M3.05511892,14 C3.31851275,16.3770323 4.51322251,18.5303174 6.36559353,20.0186021 L17.6517646,20.004612 C19.4944732,18.5166006 20.6823449,16.369387 20.9448831,14 L20,14 C19.4477153,14 19,13.5522847 19,13 C19,12.4477153 19.4477153,12 20,12 L20.9450712,12 C20.7531824,10.264147 20.0676219,8.67708178 19.0318994,7.38231419 L18.2071068,8.20710678 C17.8165825,8.59763107 17.1834175,8.59763107 16.7928932,8.20710678 C16.4023689,7.81658249 16.4023689,7.18341751 16.7928932,6.79289322 L17.6176858,5.96810063 C16.3229182,4.93237814 14.735853,4.2468176 13,4.05492878 L13,5 C13,5.55228475 12.5522847,6 12,6 C11.4477153,6 11,5.55228475 11,5 L11,4.05492878 C9.26414698,4.2468176 7.67708178,4.93237814 6.38231419,5.96810063 L7.20710678,6.79289322 C7.59763107,7.18341751 7.59763107,7.81658249 7.20710678,8.20710678 C6.81658249,8.59763107 6.18341751,8.59763107 5.79289322,8.20710678 L4.96810063,7.38231419 C3.93237814,8.67708178 3.2468176,10.264147 3.05492878,12 L4,12 C4.55228475,12 5,12.4477153 5,13 C5,13.5522847 4.55228475,14 4,14 L3.05511892,14 Z M11,14.2675644 L11,9 C11,8.44771525 11.4477153,8 12,8 C12.5522847,8 13,8.44771525 13,9 L13,14.2675644 C13.5978014,14.6133738 14,15.2597176 14,16 C14,17.1045695 13.1045695,18 12,18 C10.8954305,18 10,17.1045695 10,16 C10,15.2597176 10.4021986,14.6133738 11,14.2675644 Z M18.5955175,21.8040973 C18.4227391,21.9337214 18.2126349,22.0039183 17.9966379,22.004186 L6.02567141,22.019025 C5.80967041,22.0192928 5.59938907,21.9496144 5.42628814,21.8204147 C2.66215272,19.7573088 1,16.5160072 1,13 C1,6.92486775 5.92486775,2 12,2 C18.0751322,2 23,6.92486775 23,13 C23,16.5063938 21.3469728,19.739865 18.5955175,21.8040973 Z" id="shape"></path>
        </g>
    </g>
</svg>