<?xml version="1.0" encoding="UTF-8"?>
<svg width="24px" height="24px" viewBox="0 0 24 24" version="1.1" xmlns="http://www.w3.org/2000/svg" xmlns:xlink="http://www.w3.org/1999/xlink">
    <!-- Generator: Sketch 44.1 (41455) - http://www.bohemiancoding.com/sketch -->
    <title>Bold/SVG/delete</title>
    <desc>Created with Sketch.</desc>
    <defs></defs>
    <g id="Bold-Outline" stroke="none" stroke-width="1" fill="none" fill-rule="evenodd">
        <g id="delete" fill-rule="nonzero" fill="#000000">
            <path d="M8,4.5 L8,2.5 C8,1.94771525 8.44771525,1.5 9,1.5 L15,1.5 C15.5522847,1.5 16,1.94771525 16,2.5 L16,4.5 L20,4.5 C20.5522847,4.5 21,4.94771525 21,5.5 C21,6.05228475 20.5522847,6.5 20,6.5 L20,18.5 C20,20.709139 18.209139,22.5 16,22.5 L8,22.5 C5.790861,22.5 4,20.709139 4,18.5 L4,6.5 C3.44771525,6.5 3,6.05228475 3,5.5 C3,4.94771525 3.44771525,4.5 4,4.5 L8,4.5 Z M6,6.5 L6,18.5 C6,19.6045695 6.8954305,20.5 8,20.5 L16,20.5 C17.1045695,20.5 18,19.6045695 18,18.5 L18,6.5 L6,6.5 Z M9,9.5 C9,8.94771525 9.44771525,8.5 10,8.5 C10.5522847,8.5 11,8.94771525 11,9.5 L11,17.5 C11,18.0522847 10.5522847,18.5 10,18.5 C9.44771525,18.5 9,18.0522847 9,17.5 L9,9.5 Z M13,9.5 C13,8.94771525 13.4477153,8.5 14,8.5 C14.5522847,8.5 15,8.94771525 15,9.5 L15,17.5 C15,18.0522847 14.5522847,18.5 14,18.5 C13.4477153,18.5 13,18.0522847 13,17.5 L13,9.5 Z M10,4.5 L14,4.5 L14,3.5 L10,3.5 L10,4.5 Z" id="shape"></path>
        </g>
    </g>
</svg>