<?xml version="1.0" encoding="UTF-8"?>
<svg width="24px" height="24px" viewBox="0 0 24 24" version="1.1" xmlns="http://www.w3.org/2000/svg" xmlns:xlink="http://www.w3.org/1999/xlink">
    <!-- Generator: Sketch 44.1 (41455) - http://www.bohemiancoding.com/sketch -->
    <title>Bold/SVG/devil</title>
    <desc>Created with Sketch.</desc>
    <defs></defs>
    <g id="Bold-Outline" stroke="none" stroke-width="1" fill="none" fill-rule="evenodd">
        <g id="devil" fill-rule="nonzero" fill="#000000">
            <path d="M20.9975593,8.63085432 C21.6397454,9.95087881 22,11.4333684 22,13 C22,18.5228475 17.5228475,23 12,23 C6.4771525,23 2,18.5228475 2,13 C2,11.4353542 2.35934189,9.95463723 3,8.63587473 L3,2.12475586 C3,1.3244175 3.89340511,0.848362889 4.55771303,1.29472202 L8.20485915,3.74529789 C9.37511436,3.26489386 10.6566225,3 12,3 C13.2990786,3 14.540301,3.24771176 15.6790095,3.69847764 L19.4421458,1.16996616 C20.1064537,0.72360703 20.9998588,1.19966164 20.9998588,2 L20.9998588,8.5625 C20.9998588,8.58547395 20.9990841,8.60826696 20.9975593,8.63085432 Z M18.9998588,5.85842879 L18.9998588,3.87668616 L17.67627,4.76602667 C18.148494,5.09218353 18.5912877,5.45791504 18.9998588,5.85842879 Z M5,5.8585672 C5.3822373,5.48385318 5.79442954,5.13958291 6.23265229,4.82968083 L5,4.00144202 L5,5.8585672 Z M12,21 C16.418278,21 20,17.418278 20,13 C20,8.581722 16.418278,5 12,5 C7.581722,5 4,8.581722 4,13 C4,17.418278 7.581722,21 12,21 Z M6,13 C6,12.4477153 6.44771525,12 7,12 L17,12 C17.5522847,12 18,12.4477153 18,13 C18,16.3137085 15.3137085,19 12,19 C8.6862915,19 6,16.3137085 6,13 Z M12,17 C13.8638394,17 15.4299397,15.7252272 15.8739825,14 L8.12601749,14 C8.57006028,15.7252272 10.1361606,17 12,17 Z M15.4472136,10.8944272 C14.9532351,11.1414164 14.3525621,10.9411921 14.1055728,10.4472136 C13.8585836,9.9532351 14.0588079,9.35256206 14.5527864,9.10557281 L15.5527864,8.60557281 C16.0467649,8.35858356 16.6474379,8.55880791 16.8944272,9.0527864 C17.1414164,9.5467649 16.9411921,10.1474379 16.4472136,10.3944272 L15.4472136,10.8944272 Z M7.5527864,10.3944272 C7.05880791,10.1474379 6.85858356,9.5467649 7.10557281,9.0527864 C7.35256206,8.55880791 7.9532351,8.35858356 8.4472136,8.60557281 L9.4472136,9.10557281 C9.94119209,9.35256206 10.1414164,9.9532351 9.89442719,10.4472136 C9.64743794,10.9411921 9.0467649,11.1414164 8.5527864,10.8944272 L7.5527864,10.3944272 Z" id="shape"></path>
        </g>
    </g>
</svg>