<?xml version="1.0" encoding="UTF-8"?>
<svg width="24px" height="24px" viewBox="0 0 24 24" version="1.1" xmlns="http://www.w3.org/2000/svg" xmlns:xlink="http://www.w3.org/1999/xlink">
    <!-- Generator: Sketch 44.1 (41455) - http://www.bohemiancoding.com/sketch -->
    <title>Bold/SVG/diamond</title>
    <desc>Created with Sketch.</desc>
    <defs></defs>
    <g id="Bold-Outline" stroke="none" stroke-width="1" fill="none" fill-rule="evenodd">
        <g id="diamond" fill-rule="nonzero" fill="#000000">
            <path d="M13.3406038,3 L10.6614396,3 L8.535404,8 L15.483461,8 L13.3406038,3 Z M15.516539,3 L17.6593962,8 L21.0568107,8 L17.7844977,3.41876181 C17.5967862,3.15596568 17.2937153,3 16.9707642,3 L15.516539,3 Z M14.2905852,18.4661194 L20.9425362,10 L17.677033,10 L14.2905852,18.4661194 Z M15.522967,10 L8.45722294,10 L11.9979391,18.8125698 L15.522967,10 Z M14.0221065,1 L16.9707642,1 C17.9396175,1 18.8488301,1.46789705 19.4119646,2.25628542 L22.9425875,7.19915749 C23.7170658,8.2834271 23.6835664,9.74859676 22.8603421,10.7963367 L14.358955,21.616284 C13.3353148,22.9190988 11.4493502,23.1454146 10.1465353,22.1217743 C9.95849347,21.9740271 9.78879217,21.8043258 9.64104498,21.616284 L1.13965787,10.7963367 C0.316433608,9.74859676 0.282934176,8.2834271 1.05741247,7.19915749 L4.58803538,2.25628542 C5.15116992,1.46789705 6.06038248,1 7.02923579,1 L9.97781855,1 C9.99287686,0.999657086 10.0079695,0.999655604 10.0230853,1 L13.9769537,1 C13.9920312,0.999657374 14.0070858,0.999658836 14.0221065,1 Z M8.48814616,3 L7.02923579,3 C6.70628469,3 6.40321384,3.15596568 6.21550232,3.41876181 L2.94318932,8 L6.36211056,8 L8.48814616,3 Z M9.69700621,18.4503266 L6.30183218,10 L3.05746384,10 L9.69700621,18.4503266 Z" id="shape"></path>
        </g>
    </g>
</svg>