<?xml version="1.0" encoding="UTF-8"?>
<svg width="24px" height="24px" viewBox="0 0 24 24" version="1.1" xmlns="http://www.w3.org/2000/svg" xmlns:xlink="http://www.w3.org/1999/xlink">
    <!-- Generator: Sketch 44.1 (41455) - http://www.bohemiancoding.com/sketch -->
    <title>Bold/SVG/dog-with-bell</title>
    <desc>Created with Sketch.</desc>
    <defs></defs>
    <g id="Bold-Outline" stroke="none" stroke-width="1" fill="none" fill-rule="evenodd">
        <g id="dog-with-bell" fill-rule="nonzero" fill="#000000">
            <path d="M12.9936969,10.3698334 L12.9914958,10.4959339 L13.5679986,10.931729 C14.0085694,11.2647692 14.6357051,11.1775983 14.9687453,10.7370275 C14.9842669,10.7161195 14.9842669,10.7161195 14.9990534,10.6946854 L15.1719678,10.4393195 C15.4816231,9.98200992 16.1033709,9.86231248 16.5606805,10.1719678 C17.0179901,10.4816231 17.1376875,11.1033709 16.8280322,11.5606805 L16.6551178,11.8160464 C16.6107583,11.8803488 16.6107583,11.8803488 16.5641935,11.9430727 C15.5650729,13.2647852 13.6836659,13.5262977 12.3619534,12.5271772 L11.9976319,12.2517761 L11.6246895,12.5314829 C11.5802878,12.5647841 11.5349706,12.5968468 11.48879,12.6276338 C10.110204,13.5466912 8.24759595,13.1741696 7.32853857,11.7955835 L7.16794971,11.5547002 C6.86159725,11.0951715 6.98577112,10.4743022 7.4452998,10.1679497 C7.90482849,9.86159725 8.52569784,9.98577112 8.83205029,10.4452998 L8.99263916,10.6861831 C9.29899162,11.1457118 9.91986096,11.2698857 10.3793897,10.9635332 C10.3947832,10.9532709 10.4098889,10.9425833 10.4246895,10.9314829 L10.9912899,10.5065326 C10.9912407,10.4985334 10.9912857,10.4905127 10.9914261,10.4824714 L10.9935213,10.3624375 C10.698197,10.1886297 10.5,9.86746053 10.5,9.5 C10.5,8.94771525 10.9477153,8.5 11.5,8.5 L12.5,8.5 C13.0522847,8.5 13.5,8.94771525 13.5,9.5 C13.5,9.87273705 13.2960701,10.1978437 12.9936969,10.3698334 Z M9.14712851,2.41284222 C10.0511727,2.1442275 11.0087433,2 12,2 C12.991191,2 13.9487004,2.14420839 14.8526918,2.41278882 L17.0796258,1.02095508 C18.0162988,0.435534413 19.2501996,0.720280742 19.8356202,1.6569538 C20.0044108,1.92701867 20.1062674,2.23348746 20.1327151,2.55086073 L20.4780053,6.69434292 C21.4423942,8.232111 22,10.0509376 22,12 C22,16.438806 19.0853281,20.2856723 14.948152,21.5582635 C14.710415,21.6313912 14.4686411,21.6960184 14.20795,21.755209 L13.9880048,20.7796968 L14.9820555,20.6707786 C14.9939932,20.7797285 15,20.8895948 15,21 C15,21.1907705 14.9821936,21.3773822 14.948152,21.5582635 C14.6865409,22.948348 13.4660837,24 12,24 C10.5339163,24 9.31345909,22.948348 9.05184795,21.5582635 C9.01780644,21.3773822 9,21.1907705 9,21 C9,20.8895948 9.00600684,20.7797285 9.01794447,20.6707786 C9.07809829,20.1217796 9.57191426,19.7254922 10.1209133,19.785646 C10.1547544,19.789354 10.1880152,19.7947097 10.2206246,19.8016246 C10.7170335,19.9068886 11.0624918,20.3734569 11.0060459,20.8886149 C11.0020309,20.925258 11,20.9624043 11,21 C11,21.5522847 11.4477153,22 12,22 C12.5522847,22 13,21.5522847 13,21 C13,20.9624043 12.9979691,20.925258 12.9939541,20.8886149 C12.9385367,20.3828437 13.2717208,19.9160923 13.7680596,19.8041845 C14.0627993,19.7377306 14.3508751,19.6552593 14.6314167,19.5577889 C17.794639,18.4587705 20,15.4528565 20,12 C20,7.581722 16.418278,4 12,4 C7.581722,4 4,7.581722 4,12 C4,15.4528565 6.20536103,18.4587705 9.36858328,19.5577889 C9.6455336,19.6540115 9.92982647,19.7356167 10.2319404,19.8041845 L9.01794447,20.6707786 C9.06188553,20.2697467 9.18411651,19.8938036 9.36858328,19.5577889 C9.88063478,18.6250636 10.8722333,18 12,18 C13.1277667,18 14.1193652,18.6250636 14.6314167,19.5577889 C14.8158835,19.8938036 14.9381145,20.2697467 14.9820555,20.6707786 C15.0374907,21.1767129 14.7052848,21.635782 14.2231516,21.7517691 C14.1821128,21.7616419 14.1399877,21.7690289 14.0969229,21.7737475 C13.5479239,21.8339013 13.0541079,21.4376139 12.9939541,20.8886149 C12.9388718,20.3859019 12.5110771,20 12,20 C11.4889229,20 11.0611282,20.3859019 11.0060459,20.8886149 C10.9410438,21.4818623 10.3742337,21.8864718 9.79204997,21.755209 C9.54133844,21.698682 9.29449065,21.6329002 9.05184795,21.5582635 C4.9146719,20.2856723 2,16.438806 2,12 C2,10.0511436 2.55748791,8.23249552 3.52168886,6.69483058 L3.86701968,2.55086073 C3.89346745,2.23348746 3.99532405,1.92701867 4.16411459,1.6569538 C4.74953525,0.720280742 5.98343601,0.435534413 6.92010908,1.02095508 L9.14712851,2.41284222 Z M6.92428913,3.38206289 L5.8601112,2.71695168 L5.73615688,4.20440347 C6.11094743,3.90287078 6.50793784,3.62781093 6.92428913,3.38206289 Z M17.0755745,3.3819824 C17.4918702,3.62768875 17.8888109,3.9026988 18.2635589,4.20417481 L18.1396236,2.71695168 L17.0755745,3.3819824 Z M8,9 C7.44771525,9 7,8.55228475 7,8 C7,7.44771525 7.44771525,7 8,7 C8.55228475,7 9,7.44771525 9,8 C9,8.55228475 8.55228475,9 8,9 Z M16,9 C15.4477153,9 15,8.55228475 15,8 C15,7.44771525 15.4477153,7 16,7 C16.5522847,7 17,7.44771525 17,8 C17,8.55228475 16.5522847,9 16,9 Z" id="shape"></path>
        </g>
    </g>
</svg>