<?xml version="1.0" encoding="UTF-8"?>
<svg width="24px" height="24px" viewBox="0 0 24 24" version="1.1" xmlns="http://www.w3.org/2000/svg" xmlns:xlink="http://www.w3.org/1999/xlink">
    <!-- Generator: Sketch 44.1 (41455) - http://www.bohemiancoding.com/sketch -->
    <title>Bold/SVG/dog-husky</title>
    <desc>Created with Sketch.</desc>
    <defs></defs>
    <g id="Bold-Outline" stroke="none" stroke-width="1" fill="none" fill-rule="evenodd">
        <g id="dog-husky" fill-rule="nonzero" fill="#000000">
            <path d="M13.002513,11.8647593 L12.9914958,12.4959339 L13.5679986,12.931729 C14.0085694,13.2647692 14.6357051,13.1775983 14.9687453,12.7370275 C14.9842669,12.7161195 14.9842669,12.7161195 14.9990534,12.6946854 L15.1719678,12.4393195 C15.4816231,11.9820099 16.1033709,11.8623125 16.5606805,12.1719678 C17.0179901,12.4816231 17.1376875,13.1033709 16.8280322,13.5606805 L16.6551178,13.8160464 C16.6107583,13.8803488 16.6107583,13.8803488 16.5641935,13.9430727 C16.1568679,14.4819139 15.6029007,14.8445432 15,15.0173792 L15,16.5 C15,18.1568542 13.6568542,19.5 12,19.5 C10.3431458,19.5 9,18.1568542 9,16.5 L9,15.015967 C8.33926176,14.8274038 7.73954775,14.4120973 7.32853857,13.7955835 L7.16794971,13.5547002 C6.86159725,13.0951715 6.98577112,12.4743022 7.4452998,12.1679497 C7.90482849,11.8615972 8.52569784,11.9857711 8.83205029,12.4452998 L8.99263916,12.6861831 C9.29899162,13.1457118 9.91986096,13.2698857 10.3793897,12.9635332 C10.3947832,12.9532709 10.4098889,12.9425833 10.4246895,12.9314829 L10.9912899,12.5065326 C10.9912407,12.4985334 10.9912857,12.4905127 10.9914261,12.4824714 L11.0021611,11.8674643 C10.702069,11.6948693 10.5,11.3710325 10.5,11 C10.5,10.4477153 10.9477153,10 11.5,10 L12.5,10 C13.0522847,10 13.5,10.4477153 13.5,11 C13.5,11.3691029 13.3000273,11.6914997 13.002513,11.8647593 Z M10.2051949,5.20556974 C6.21281803,6.12260996 3,9.97209441 3,14 C3,18.159117 6.72892069,21 12,21 C17.2710793,21 21,18.159117 21,14 C21,9.97209441 17.787182,6.12260996 13.7948051,5.20556974 L12.9284767,7.37139068 C12.5932184,8.20953644 11.4067816,8.20953644 11.0715233,7.37139068 L10.2051949,5.20556974 Z M11,14.8922565 L11,16.5 C11,17.0522847 11.4477153,17.5 12,17.5 C12.5522847,17.5 13,17.0522847 13,16.5 L13,14.89679 C12.7777243,14.8023804 12.5633418,14.6794125 12.3619534,14.5271772 L11.9976319,14.2517761 L11.6246895,14.5314829 C11.5802878,14.5647841 11.5349706,14.5968468 11.48879,14.6276338 C11.331457,14.7325225 11.1678196,14.8205886 11,14.8922565 Z M9.24623182,3.38685985 C10.1319109,3.13562766 11.0557103,3 12,3 C12.9442297,3 13.8679718,3.13561044 14.7535994,3.38681198 L16.9538222,1.46161709 C17.7850954,0.734252985 19.0486207,0.818488 19.7759848,1.64976126 C20.0310312,1.94124285 20.1959563,2.30050897 20.2507304,2.68392777 L20.9899618,7.85854761 C20.9917442,7.87102455 20.9932881,7.88348056 20.9945969,7.89591101 C22.2508332,9.68696127 23,11.8133104 23,14 C23,19.4005214 18.2753527,23 12,23 C5.7246473,23 1,19.4005214 1,14 C1,11.8134629 1.74906232,9.68725786 3.00514024,7.89628574 C3.00645745,7.88373089 3.00801444,7.87114993 3.00981477,7.85854761 L3.74904618,2.68392777 C3.80382029,2.30050897 3.96874539,1.94124285 4.22379178,1.64976126 C4.95115588,0.818488 6.21468112,0.734252985 7.04595438,1.46161709 L9.24623182,3.38685985 Z M7.16356089,4.22205923 L5.72894517,2.96677048 L5.38429113,5.37934876 C5.9406163,4.94048826 6.53641655,4.55164685 7.16356089,4.22205923 Z M16.8250213,4.21606711 C17.4562581,4.546881 18.0558287,4.93770852 18.6154571,5.37915012 L18.2708314,2.96677048 L16.8250213,4.21606711 Z M8,10 C7.44771525,10 7,9.55228475 7,9 C7,8.44771525 7.44771525,8 8,8 C8.55228475,8 9,8.44771525 9,9 C9,9.55228475 8.55228475,10 8,10 Z M16,10 C15.4477153,10 15,9.55228475 15,9 C15,8.44771525 15.4477153,8 16,8 C16.5522847,8 17,8.44771525 17,9 C17,9.55228475 16.5522847,10 16,10 Z" id="shape"></path>
        </g>
    </g>
</svg>