<?xml version="1.0" encoding="UTF-8"?>
<svg width="24px" height="24px" viewBox="0 0 24 24" version="1.1" xmlns="http://www.w3.org/2000/svg" xmlns:xlink="http://www.w3.org/1999/xlink">
    <!-- Generator: Sketch 44.1 (41455) - http://www.bohemiancoding.com/sketch -->
    <title>Bold/SVG/edit-1</title>
    <desc>Created with Sketch.</desc>
    <defs></defs>
    <g id="Bold-Outline" stroke="none" stroke-width="1" fill="none" fill-rule="evenodd">
        <g id="edit-1" fill-rule="nonzero" fill="#000000">
            <path d="M18.8786797,9.36396103 L11.8076118,16.4350288 C11.6200755,16.6225652 11.3657216,16.7279221 11.1005051,16.7279221 L8.27207794,16.7279221 C7.71979319,16.7279221 7.27207794,16.2802068 7.27207794,15.7279221 L7.27207794,12.8994949 C7.27207794,12.6342784 7.37743478,12.3799245 7.56497116,12.1923882 L14.636039,5.12132034 L17.4644661,2.29289322 C17.8549904,1.90236893 18.4881554,1.90236893 18.8786797,2.29289322 L21.7071068,5.12132034 C22.0976311,5.51184464 22.0976311,6.14500961 21.7071068,6.53553391 L18.8786797,9.36396103 Z M20,14.25 C20,13.6977153 20.4477153,13.25 21,13.25 C21.5522847,13.25 22,13.6977153 22,14.25 L22,18 C22,20.209139 20.209139,22 18,22 L6,22 C3.790861,22 2,20.209139 2,18 L2,6 C2,3.790861 3.790861,2 6,2 L9.75,2 C10.3022847,2 10.75,2.44771525 10.75,3 C10.75,3.55228475 10.3022847,4 9.75,4 L6,4 C4.8954305,4 4,4.8954305 4,6 L4,18 C4,19.1045695 4.8954305,20 6,20 L18,20 C19.1045695,20 20,19.1045695 20,18 L20,14.25 Z M9.27207794,13.3137085 L9.27207794,14.7279221 L10.6862915,14.7279221 L16.7573593,8.65685425 L15.3431458,7.24264069 L9.27207794,13.3137085 Z M16.7573593,5.82842712 L18.1715729,7.24264069 L19.5857864,5.82842712 L18.1715729,4.41421356 L16.7573593,5.82842712 Z" id="shape"></path>
        </g>
    </g>
</svg>