<?xml version="1.0" encoding="UTF-8"?>
<svg width="24px" height="24px" viewBox="0 0 24 24" version="1.1" xmlns="http://www.w3.org/2000/svg" xmlns:xlink="http://www.w3.org/1999/xlink">
    <!-- Generator: Sketch 44.1 (41455) - http://www.bohemiancoding.com/sketch -->
    <title>Bold/SVG/emergency</title>
    <desc>Created with Sketch.</desc>
    <defs></defs>
    <g id="Bold-Outline" stroke="none" stroke-width="1" fill="none" fill-rule="evenodd">
        <g id="emergency" fill-rule="nonzero" fill="#000000">
            <path d="M15.9999565,7.9999697 L20.5,7.9999697 C21.6045695,7.9999697 22.5,8.8954002 22.5,9.9999697 L22.5,13.9999697 C22.5,15.1045392 21.6045695,15.9999697 20.5,15.9999697 L15.9999565,15.9999697 L15.9999565,20.5 C15.9999565,21.6045695 15.104526,22.5 13.9999565,22.5 L9.99995652,22.5 C8.89538702,22.5 7.99995652,21.6045695 7.99995652,20.5 L7.99995652,15.9999697 L3.5,15.9999697 C2.3954305,15.9999697 1.5,15.1045392 1.5,13.9999697 L1.5,9.9999697 C1.5,8.8954002 2.3954305,7.9999697 3.5,7.9999697 L7.99995652,7.9999697 L7.99995652,3.5 C7.99995652,2.3954305 8.89538702,1.5 9.99995652,1.5 L13.9999565,1.5 C15.104526,1.5 15.9999565,2.3954305 15.9999565,3.5 L15.9999565,7.9999697 Z M13.9999565,8.9999697 L13.9999565,3.5 L9.99995652,3.5 L9.99995652,8.9999697 C9.99995652,9.55225445 9.55224127,9.9999697 8.99995652,9.9999697 L3.5,9.9999697 L3.5,13.9999697 L8.99995652,13.9999697 C9.55224127,13.9999697 9.99995652,14.447685 9.99995652,14.9999697 L9.99995652,20.5 L13.9999565,20.5 L13.9999565,14.9999697 C13.9999565,14.447685 14.4476718,13.9999697 14.9999565,13.9999697 L20.5,13.9999697 L20.5,9.9999697 L14.9999565,9.9999697 C14.4476718,9.9999697 13.9999565,9.55225445 13.9999565,8.9999697 Z" id="shape"></path>
        </g>
    </g>
</svg>