<?xml version="1.0" encoding="UTF-8"?>
<svg width="24px" height="24px" viewBox="0 0 24 24" version="1.1" xmlns="http://www.w3.org/2000/svg" xmlns:xlink="http://www.w3.org/1999/xlink">
    <!-- Generator: Sketch 44.1 (41455) - http://www.bohemiancoding.com/sketch -->
    <title>Bold/SVG/emoji</title>
    <desc>Created with Sketch.</desc>
    <defs></defs>
    <g id="Bold-Outline" stroke="none" stroke-width="1" fill="none" fill-rule="evenodd">
        <g id="emoji" fill-rule="nonzero" fill="#000000">
            <path d="M12,23 C5.92486775,23 1,18.0751322 1,12 C1,5.92486775 5.92486775,1 12,1 C18.0751322,1 23,5.92486775 23,12 C23,18.0751322 18.0751322,23 12,23 Z M12,21 C16.9705627,21 21,16.9705627 21,12 C21,7.02943725 16.9705627,3 12,3 C7.02943725,3 3,7.02943725 3,12 C3,16.9705627 7.02943725,21 12,21 Z M16.7157487,12.6667539 C16.8997954,12.1460378 17.4711186,11.8731134 17.9918347,12.0571601 C18.5125508,12.2412068 18.7854752,12.81253 18.6014285,13.3332461 C17.6208173,16.1076501 14.9903504,18 12,18 C9.0096496,18 6.37918265,16.1076501 5.39857153,13.3332461 C5.2145248,12.81253 5.48744924,12.2412068 6.00816533,12.0571601 C6.52888142,11.8731134 7.10020457,12.1460378 7.2842513,12.6667539 C7.98452889,14.6480214 9.86385097,16 12,16 C14.136149,16 16.0154711,14.6480214 16.7157487,12.6667539 Z M9,10 C8.44771525,10 8,9.55228475 8,9 C8,8.44771525 8.44771525,8 9,8 C9.55228475,8 10,8.44771525 10,9 C10,9.55228475 9.55228475,10 9,10 Z M15,10 C14.4477153,10 14,9.55228475 14,9 C14,8.44771525 14.4477153,8 15,8 C15.5522847,8 16,8.44771525 16,9 C16,9.55228475 15.5522847,10 15,10 Z" id="shape"></path>
        </g>
    </g>
</svg>