<?xml version="1.0" encoding="UTF-8"?>
<svg width="24px" height="24px" viewBox="0 0 24 24" version="1.1" xmlns="http://www.w3.org/2000/svg" xmlns:xlink="http://www.w3.org/1999/xlink">
    <!-- Generator: Sketch 44.1 (41455) - http://www.bohemiancoding.com/sketch -->
    <title>Bold/SVG/eye-off</title>
    <desc>Created with Sketch.</desc>
    <defs></defs>
    <g id="Bold-Outline" stroke="none" stroke-width="1" fill="none" fill-rule="evenodd">
        <g id="eye-off" fill-rule="nonzero" fill="#000000">
            <path d="M11.0861923,14.3280213 C11.3724768,14.4403684 11.6812342,14.5 12,14.5 C13.3807119,14.5 14.5,13.3807119 14.5,12 C14.5,11.6812342 14.4403684,11.3724768 14.3280213,11.0861923 L11.0861923,14.3280213 Z M15.8099648,9.60424876 C16.255107,10.3109575 16.5,11.1367327 16.5,12 C16.5,14.4852814 14.4852814,16.5 12,16.5 C11.1367327,16.5 10.3109575,16.255107 9.60424876,15.8099648 L7.60263461,17.811579 C8.98547455,18.5773377 10.4887783,19 12,19 C16.44763,19 21,14.9121236 21,12 C21,10.7007922 19.8433597,8.80658698 18.0764086,7.33780495 L15.8099648,9.60424876 Z M19.4960293,5.91818425 C21.6045649,7.71958754 23,10.0732903 23,12 C23,16.0675428 17.5070819,21 12,21 C9.94775836,21 7.93673646,20.377361 6.14077131,19.2734422 L3.51471863,21.8994949 C3.12419433,22.2900192 2.49102936,22.2900192 2.10050506,21.8994949 C1.70998077,21.5089706 1.70998077,20.8758057 2.10050506,20.4852814 L5.29173569,17.2940507 C5.30003661,17.2854467 5.308467,17.2770178 5.31702158,17.2687649 L17.2704459,5.31534049 C17.2787469,5.30673644 17.2871772,5.29830752 17.2957318,5.29005462 L20.4852814,2.10050506 C20.8758057,1.70998077 21.5089706,1.70998077 21.8994949,2.10050506 C22.2900192,2.49102936 22.2900192,3.12419433 21.8994949,3.51471863 L19.4960293,5.91818425 Z M13.9540524,5.2324019 C13.3076972,5.07880891 12.6544383,5 12,5 C7.55237,5 3,9.08787639 3,12 C3,12.7265627 3.38509904,13.7107909 4.09761936,14.7133545 C4.41755809,15.1635296 4.31198063,15.7878302 3.8618055,16.107769 C3.41163036,16.4277077 2.78732972,16.3221302 2.46739099,15.8719551 C1.53376585,14.5582823 1,13.1940945 1,12 C1,7.9324572 6.49291808,3 12,3 C12.8125021,3 13.6207465,3.09750629 14.4164356,3.28658542 C14.953758,3.41426901 15.2858359,3.95336287 15.1581523,4.49068525 C15.0304687,5.02800764 14.4913748,5.36008549 13.9540524,5.2324019 Z" id="shape"></path>
        </g>
    </g>
</svg>