<?xml version="1.0" encoding="UTF-8"?>
<svg width="24px" height="24px" viewBox="0 0 24 24" version="1.1" xmlns="http://www.w3.org/2000/svg" xmlns:xlink="http://www.w3.org/1999/xlink">
    <!-- Generator: Sketch 44.1 (41455) - http://www.bohemiancoding.com/sketch -->
    <title>Bold/SVG/favorite</title>
    <desc>Created with Sketch.</desc>
    <defs></defs>
    <g id="Bold-Outline" stroke="none" stroke-width="1" fill="none" fill-rule="evenodd">
        <g id="favorite" fill-rule="nonzero" fill="#000000">
            <path d="M12,4.45715958 C13.4797956,2.84280641 14.9513567,2 17,2 C20.5355338,2 23,4.69521141 23,8.23636364 C23,12.5502951 19.6675834,16.9230801 13.1368556,21.4351719 C12.4526605,21.9078836 11.5473393,21.9078836 10.8631443,21.4351719 C4.33241654,16.9230801 1,12.5502951 1,8.23636364 C1,4.69521141 3.4644662,2 7,2 C9.04864327,2 10.5202044,2.84280641 12,4.45715958 Z M11.2180328,6.62331953 C9.79996539,4.84432467 8.63181001,4 7,4 C4.61097388,4 3,5.76180755 3,8.23636364 C3,11.7354784 5.95529821,15.6134101 12.0000001,19.7897057 C18.0447018,15.6134101 21,11.7354784 21,8.23636364 C21,5.76180755 19.3890261,4 17,4 C15.36819,4 14.2000346,4.84432467 12.7819672,6.62331953 C12.3816226,7.12556016 11.6183774,7.12556016 11.2180328,6.62331953 Z" id="shape"></path>
        </g>
    </g>
</svg>