<?xml version="1.0" encoding="UTF-8"?>
<svg width="24px" height="24px" viewBox="0 0 24 24" version="1.1" xmlns="http://www.w3.org/2000/svg" xmlns:xlink="http://www.w3.org/1999/xlink">
    <!-- Generator: Sketch 44.1 (41455) - http://www.bohemiancoding.com/sketch -->
    <title>Bold/SVG/female</title>
    <desc>Created with Sketch.</desc>
    <defs></defs>
    <g id="Bold-Outline" stroke="none" stroke-width="1" fill="none" fill-rule="evenodd">
        <g id="female" fill-rule="nonzero" fill="#000000">
            <path d="M11,13.9170416 C8.16228666,13.4409635 6,10.9729963 6,8 C6,4.6862915 8.6862915,2 12,2 C15.3137085,2 18,4.6862915 18,8 C18,10.9729963 15.8377133,13.4409635 13,13.9170416 L13,16 L15.5,16 C16.0522847,16 16.5,16.4477153 16.5,17 C16.5,17.5522847 16.0522847,18 15.5,18 L13,18 L13,21 C13,21.5522847 12.5522847,22 12,22 C11.4477153,22 11,21.5522847 11,21 L11,18 L8.5,18 C7.94771525,18 7.5,17.5522847 7.5,17 C7.5,16.4477153 7.94771525,16 8.5,16 L11,16 L11,13.9170416 Z M12,12 C14.209139,12 16,10.209139 16,8 C16,5.790861 14.209139,4 12,4 C9.790861,4 8,5.790861 8,8 C8,10.209139 9.790861,12 12,12 Z" id="Combined-Shape"></path>
        </g>
    </g>
</svg>