<?xml version="1.0" encoding="UTF-8"?>
<svg width="24px" height="24px" viewBox="0 0 24 24" version="1.1" xmlns="http://www.w3.org/2000/svg" xmlns:xlink="http://www.w3.org/1999/xlink">
    <!-- Generator: Sketch 44.1 (41455) - http://www.bohemiancoding.com/sketch -->
    <title>Bold/SVG/game</title>
    <desc>Created with Sketch.</desc>
    <defs></defs>
    <g id="Bold-Outline" stroke="none" stroke-width="1" fill="none" fill-rule="evenodd">
        <g id="game" fill-rule="nonzero" fill="#000000">
            <path d="M7,10 L7,8.5 C7,7.94771525 7.44771525,7.5 8,7.5 C8.55228475,7.5 9,7.94771525 9,8.5 L9,10 L10.5,10 C11.0522847,10 11.5,10.4477153 11.5,11 C11.5,11.5522847 11.0522847,12 10.5,12 L9,12 L9,13.5 C9,14.0522847 8.55228475,14.5 8,14.5 C7.44771525,14.5 7,14.0522847 7,13.5 L7,12 L5.5,12 C4.94771525,12 4.5,11.5522847 4.5,11 C4.5,10.4477153 4.94771525,10 5.5,10 L7,10 Z M6.5569983,3 L17.4430017,3 C19.9784324,3 22.1125118,4.89772918 22.4087547,7.41579376 L23.5359369,16.9968423 C23.7367862,18.704061 22.5156324,20.2508557 20.8084137,20.451705 C20.2057632,20.522605 19.5955309,20.4157994 19.0527864,20.1444272 L16.1862233,18.7111456 C15.9085124,18.5722902 15.6022863,18.5 15.2917961,18.5 L8.70820393,18.5 C8.39771374,18.5 8.09148761,18.5722902 7.81377674,18.7111456 L4.9472136,20.1444272 C3.40969972,20.9131841 1.54009782,20.2899835 0.771340881,18.7524696 C0.499968631,18.2097251 0.393163033,17.5994928 0.464063097,16.9968423 L1.59124528,7.41579376 C1.88748817,4.89772918 4.02156755,3 6.5569983,3 Z M6.5569983,5 C5.03573985,5 3.75529222,6.13863751 3.57754649,7.64947626 L2.45036431,17.2305248 C2.42502234,17.4459315 2.4631981,17.6640481 2.56019526,17.8580424 C2.8349737,18.4075993 3.50322952,18.6303513 4.0527864,18.3555728 L6.91934955,16.9222912 C7.47477129,16.6445804 8.08722355,16.5 8.70820393,16.5 L15.2917961,16.5 C15.9127764,16.5 16.5252287,16.6445804 17.0806504,16.9222912 L19.9472136,18.3555728 C20.1412079,18.45257 20.3593246,18.4907457 20.5747312,18.4654038 C21.1849461,18.3936138 21.6214257,17.8407396 21.5496357,17.2305248 L20.4224535,7.64947626 C20.2447078,6.13863751 18.9642601,5 17.4430017,5 L6.5569983,5 Z M15,10.5 C14.1715729,10.5 13.5,9.82842712 13.5,9 C13.5,8.17157288 14.1715729,7.5 15,7.5 C15.8284271,7.5 16.5,8.17157288 16.5,9 C16.5,9.82842712 15.8284271,10.5 15,10.5 Z M18,14.5 C17.1715729,14.5 16.5,13.8284271 16.5,13 C16.5,12.1715729 17.1715729,11.5 18,11.5 C18.8284271,11.5 19.5,12.1715729 19.5,13 C19.5,13.8284271 18.8284271,14.5 18,14.5 Z" id="shape"></path>
        </g>
    </g>
</svg>