<?xml version="1.0" encoding="UTF-8"?>
<svg width="24px" height="24px" viewBox="0 0 24 24" version="1.1" xmlns="http://www.w3.org/2000/svg" xmlns:xlink="http://www.w3.org/1999/xlink">
    <!-- Generator: Sketch 44.1 (41455) - http://www.bohemiancoding.com/sketch -->
    <title>Bold/SVG/gift</title>
    <desc>Created with Sketch.</desc>
    <defs></defs>
    <g id="Bold-Outline" stroke="none" stroke-width="1" fill="none" fill-rule="evenodd">
        <g id="gift" fill-rule="nonzero" fill="#000000">
            <path d="M18.4519379,7.02524828 C20.4483067,7.24973619 22,8.9436594 22,11 L22,18 C22,20.209139 20.209139,22 18,22 L6,22 C3.790861,22 2,20.209139 2,18 L2,11 C2,8.9436594 3.55169334,7.24973619 5.54806212,7.02524828 C4.28961328,5.76048207 3.81065825,4.03724167 4.60288568,2.66506351 C5.61251069,0.916341695 8.14819962,0.670499582 10.25,1.8839746 C10.9696999,2.29949355 11.5666533,2.84462478 12,3.45209432 C12.4333467,2.84462478 13.0303001,2.29949355 13.75,1.8839746 C15.8518004,0.670499582 18.3874893,0.916341695 19.3971143,2.66506351 C20.1893417,4.03724167 19.7103867,5.76048207 18.4519379,7.02524828 Z M4,13.5 L11,13.5 L11,9 L6,9 C4.8954305,9 4,9.8954305 4,11 L4,13.5 Z M4,15.5 L4,18 C4,19.1045695 4.8954305,20 6,20 L11,20 L11,15.5 L4,15.5 Z M20,13.5 L20,11 C20,9.8954305 19.1045695,9 18,9 L13,9 L13,13.5 L20,13.5 Z M20,15.5 L13,15.5 L13,20 L18,20 C19.1045695,20 20,19.1045695 20,18 L20,15.5 Z M7.75,6.21410162 C8.99624799,6.93362323 10.2939766,6.80780481 10.6650635,6.16506351 C11.0361504,5.52232221 10.496248,4.33554701 9.25,3.6160254 C8.00375201,2.89650379 6.70602335,3.02232221 6.33493649,3.66506351 C5.96384963,4.30780481 6.50375201,5.49458001 7.75,6.21410162 Z M16.25,6.21410162 C17.496248,5.49458001 18.0361504,4.30780481 17.6650635,3.66506351 C17.2939766,3.02232221 15.996248,2.89650379 14.75,3.6160254 C13.503752,4.33554701 12.9638496,5.52232221 13.3349365,6.16506351 C13.7060234,6.80780481 15.003752,6.93362323 16.25,6.21410162 Z" id="shape"></path>
        </g>
    </g>
</svg>