<?xml version="1.0" encoding="UTF-8"?>
<svg width="24px" height="24px" viewBox="0 0 24 24" version="1.1" xmlns="http://www.w3.org/2000/svg" xmlns:xlink="http://www.w3.org/1999/xlink">
    <!-- Generator: Sketch 44.1 (41455) - http://www.bohemiancoding.com/sketch -->
    <title>Bold/SVG/google-cast</title>
    <desc>Created with Sketch.</desc>
    <defs></defs>
    <g id="Bold-Outline" stroke="none" stroke-width="1" fill="none" fill-rule="evenodd">
        <g id="google-cast" fill-rule="nonzero" fill="#000000">
            <path d="M3,8 C3,8.55228475 2.55228475,9 2,9 C1.44771525,9 1,8.55228475 1,8 L1,7 C1,4.790861 2.790861,3 5,3 L19,3 C21.209139,3 23,4.790861 23,7 L23,17 C23,19.209139 21.209139,21 19,21 L14,21 C13.4477153,21 13,20.5522847 13,20 C13,19.4477153 13.4477153,19 14,19 L19,19 C20.1045695,19 21,18.1045695 21,17 L21,7 C21,5.8954305 20.1045695,5 19,5 L5,5 C3.8954305,5 3,5.8954305 3,7 L3,8 Z M1,20 C1,19.4477153 1.44771525,19 2,19 C2.55228475,19 3,19.4477153 3,20 C3,20.5522847 2.55228475,21 2,21 C1.44771525,21 1,20.5522847 1,20 Z M7,20 C7,20.5522847 6.55228475,21 6,21 C5.44771525,21 5,20.5522847 5,20 C5,18.3431458 3.65685425,17 2,17 C1.44771525,17 1,16.5522847 1,16 C1,15.4477153 1.44771525,15 2,15 C4.76142375,15 7,17.2385763 7,20 Z M11,20 C11,20.5522847 10.5522847,21 10,21 C9.44771525,21 9,20.5522847 9,20 C9,16.1340068 5.86599325,13 2,13 C1.44771525,13 1,12.5522847 1,12 C1,11.4477153 1.44771525,11 2,11 C6.97056275,11 11,15.0294373 11,20 Z" id="shape"></path>
        </g>
    </g>
</svg>