<?xml version="1.0" encoding="UTF-8"?>
<svg width="24px" height="24px" viewBox="0 0 24 24" version="1.1" xmlns="http://www.w3.org/2000/svg" xmlns:xlink="http://www.w3.org/1999/xlink">
    <!-- Generator: Sketch 44.1 (41455) - http://www.bohemiancoding.com/sketch -->
    <title>Bold/SVG/grave</title>
    <desc>Created with Sketch.</desc>
    <defs></defs>
    <g id="Bold-Outline" stroke="none" stroke-width="1" fill="none" fill-rule="evenodd">
        <g id="grave" fill-rule="nonzero" fill="#000000">
            <path d="M13,8 L16,8 C18.209139,8 20,9.790861 20,12 L20,21 L21,21 C21.5522847,21 22,21.4477153 22,22 C22,22.5522847 21.5522847,23 21,23 L3,23 C2.44771525,23 2,22.5522847 2,22 C2,21.4477153 2.44771525,21 3,21 L4,21 L4,12 C4,9.790861 5.790861,8 8,8 L11,8 L11,5.5 L8,5.5 C7.44771525,5.5 7,5.05228475 7,4.5 C7,3.94771525 7.44771525,3.5 8,3.5 L11,3.5 L11,1 C11,0.44771525 11.4477153,0 12,0 C12.5522847,0 13,0.44771525 13,1 L13,3.5 L16,3.5 C16.5522847,3.5 17,3.94771525 17,4.5 C17,5.05228475 16.5522847,5.5 16,5.5 L13,5.5 L13,8 Z M18,12 C18,10.8954305 17.1045695,10 16,10 L8,10 C6.8954305,10 6,10.8954305 6,12 L6,21 L18,21 L18,12 Z M15,13 C15.5522847,13 16,13.4477153 16,14 C16,14.5522847 15.5522847,15 15,15 L9,15 C8.44771525,15 8,14.5522847 8,14 C8,13.4477153 8.44771525,13 9,13 L15,13 Z M14,17 C14.5522847,17 15,17.4477153 15,18 C15,18.5522847 14.5522847,19 14,19 L10,19 C9.44771525,19 9,18.5522847 9,18 C9,17.4477153 9.44771525,17 10,17 L14,17 Z" id="shape"></path>
        </g>
    </g>
</svg>