<?xml version="1.0" encoding="UTF-8"?>
<svg width="24px" height="24px" viewBox="0 0 24 24" version="1.1" xmlns="http://www.w3.org/2000/svg" xmlns:xlink="http://www.w3.org/1999/xlink">
    <!-- Generator: Sketch 44.1 (41455) - http://www.bohemiancoding.com/sketch -->
    <title>Bold/SVG/grid</title>
    <desc>Created with Sketch.</desc>
    <defs></defs>
    <g id="Bold-Outline" stroke="none" stroke-width="1" fill="none" fill-rule="evenodd">
        <g id="grid" fill-rule="nonzero" fill="#000000">
            <path d="M10,14 L14,14 L14,10 L10,10 L10,14 Z M10,16 L10,20 L14,20 L14,16 L10,16 Z M20,14 L20,10 L16,10 L16,14 L20,14 Z M20,16 L16,16 L16,20 L18,20 C19.1045695,20 20,19.1045695 20,18 L20,16 Z M4,14 L8,14 L8,10 L4,10 L4,14 Z M4,16 L4,18 C4,19.1045695 4.8954305,20 6,20 L8,20 L8,16 L4,16 Z M10,8 L14,8 L14,4 L10,4 L10,8 Z M20,8 L20,6 C20,4.8954305 19.1045695,4 18,4 L16,4 L16,8 L20,8 Z M4,8 L8,8 L8,4 L6,4 C4.8954305,4 4,4.8954305 4,6 L4,8 Z M6,2 L18,2 C20.209139,2 22,3.790861 22,6 L22,18 C22,20.209139 20.209139,22 18,22 L6,22 C3.790861,22 2,20.209139 2,18 L2,6 C2,3.790861 3.790861,2 6,2 Z" id="shape"></path>
        </g>
    </g>
</svg>