<?xml version="1.0" encoding="UTF-8"?>
<svg width="24px" height="24px" viewBox="0 0 24 24" version="1.1" xmlns="http://www.w3.org/2000/svg" xmlns:xlink="http://www.w3.org/1999/xlink">
    <!-- Generator: Sketch 44.1 (41455) - http://www.bohemiancoding.com/sketch -->
    <title>Bold/SVG/headphone</title>
    <desc>Created with Sketch.</desc>
    <defs></defs>
    <g id="Bold-Outline" stroke="none" stroke-width="1" fill="none" fill-rule="evenodd">
        <g id="headphone" fill-rule="nonzero" fill="#000000">
            <path d="M4,19 C4,19.5522847 4.44771525,20 5,20 L5.75,20 C6.71649831,20 7.5,19.2164983 7.5,18.25 L7.5,17 C7.5,15.8954305 6.6045695,15 5.5,15 L4,15 L4,19 Z M18.5,15 C17.3954305,15 16.5,15.8954305 16.5,17 L16.5,18.25 C16.5,19.2164983 17.2835017,20 18.25,20 L19,20 C19.5522847,20 20,19.5522847 20,19 L20,15 L18.5,15 Z M5.5,13 C7.709139,13 9.5,14.790861 9.5,17 L9.5,18.25 C9.5,20.3210678 7.82106781,22 5.75,22 L5,22 C3.34314575,22 2,20.6568542 2,19 L2,12 C2,6.4771525 6.4771525,2 12,2 C17.5228475,2 22,6.4771525 22,12 L22,19 C22,20.6568542 20.6568542,22 19,22 L18.25,22 C16.1789322,22 14.5,20.3210678 14.5,18.25 L14.5,17 C14.5,14.790861 16.290861,13 18.5,13 L20,13 L20,12 C20,7.581722 16.418278,4 12,4 C7.581722,4 4,7.581722 4,12 L4,13 L5.5,13 Z" id="shape"></path>
        </g>
    </g>
</svg>