<?xml version="1.0" encoding="UTF-8"?>
<svg width="24px" height="24px" viewBox="0 0 24 24" version="1.1" xmlns="http://www.w3.org/2000/svg" xmlns:xlink="http://www.w3.org/1999/xlink">
    <!-- Generator: Sketch 44.1 (41455) - http://www.bohemiancoding.com/sketch -->
    <title>Bold/SVG/indent-decrease</title>
    <desc>Created with Sketch.</desc>
    <defs></defs>
    <g id="Bold-Outline" stroke="none" stroke-width="1" fill="none" fill-rule="evenodd">
        <g id="indent-decrease" fill-rule="nonzero" fill="#000000">
            <path d="M21,3.5 C21.5522847,3.5 22,3.94771525 22,4.5 C22,5.05228475 21.5522847,5.5 21,5.5 L3,5.5 C2.44771525,5.5 2,5.05228475 2,4.5 C2,3.94771525 2.44771525,3.5 3,3.5 L21,3.5 Z M21,13.5 C21.5522847,13.5 22,13.9477153 22,14.5 C22,15.0522847 21.5522847,15.5 21,15.5 L12,15.5 C11.4477153,15.5 11,15.0522847 11,14.5 C11,13.9477153 11.4477153,13.5 12,13.5 L21,13.5 Z M21,8.5 C21.5522847,8.5 22,8.94771525 22,9.5 C22,10.0522847 21.5522847,10.5 21,10.5 L12,10.5 C11.4477153,10.5 11,10.0522847 11,9.5 C11,8.94771525 11.4477153,8.5 12,8.5 L21,8.5 Z M21,18.5 C21.5522847,18.5 22,18.9477153 22,19.5 C22,20.0522847 21.5522847,20.5 21,20.5 L3,20.5 C2.44771525,20.5 2,20.0522847 2,19.5 C2,18.9477153 2.44771525,18.5 3,18.5 L21,18.5 Z M5.8029812,7.89326092 C6.14864675,7.63499574 6.568568,7.49544746 7.00006026,7.49544746 C8.10462976,7.49544746 9.00006026,8.39087796 9.00006026,9.49544746 L9.00006026,14.4954433 C9.00006026,14.9294287 8.85889683,15.3516383 8.59787438,15.6983523 C7.93352609,16.5808007 6.67959965,16.7576057 5.79715127,16.0932574 L2.46382071,13.5837707 C2.31241384,13.4697846 2.17797687,13.3348569 2.06454315,13.1830357 C1.40341464,12.2981725 1.58478744,11.0448986 2.46965063,10.3837701 L5.8029812,7.89326092 Z M7.00006026,9.49544746 L3.66672969,11.9859566 L7.00006026,14.4954433 L7.00006026,9.49544746 Z" id="shape"></path>
        </g>
    </g>
</svg>