<?xml version="1.0" encoding="UTF-8"?>
<svg width="24px" height="24px" viewBox="0 0 24 24" version="1.1" xmlns="http://www.w3.org/2000/svg" xmlns:xlink="http://www.w3.org/1999/xlink">
    <!-- Generator: Sketch 44.1 (41455) - http://www.bohemiancoding.com/sketch -->
    <title>Bold/SVG/key</title>
    <desc>Created with Sketch.</desc>
    <defs></defs>
    <g id="Bold-Outline" stroke="none" stroke-width="1" fill="none" fill-rule="evenodd">
        <g id="key" fill-rule="nonzero" fill="#000000">
            <path d="M5.87436867,5.87436867 C5.87436867,3.62750103 6.94150589,1.55661505 8.71285809,0.245229878 C9.90827922,-0.639776242 11.3559304,-1.12563133 12.8743687,-1.12563133 C16.7403619,-1.12563133 19.8743687,2.00837542 19.8743687,5.87436867 C19.8743687,8.61852202 18.2807881,11.0596113 15.8743687,12.2007647 L15.8743687,19.8743687 C15.8743687,22.0835077 14.0835077,23.8743687 11.8743687,23.8743687 L8.87436867,23.8743687 C8.32208392,23.8743687 7.87436867,23.4266534 7.87436867,22.8743687 L7.87436867,14.8743687 C7.87436867,14.3220839 8.32208392,13.8743687 8.87436867,13.8743687 L9.87436867,13.8743687 L9.87436867,12.2007647 C7.46794925,11.0596113 5.87436867,8.61852202 5.87436867,5.87436867 Z M11.8743687,21.8743687 C12.9789382,21.8743687 13.8743687,20.9789382 13.8743687,19.8743687 L13.8743687,11.5329573 C13.8743687,11.1091403 14.1415311,10.7313527 14.5411226,10.5901174 C16.5223901,9.88983978 17.8743687,8.0105177 17.8743687,5.87436867 C17.8743687,3.11294492 15.6357924,0.874368671 12.8743687,0.874368671 C11.7880926,0.874368671 10.7567886,1.22049094 9.90288683,1.85266 C8.63570042,2.79079612 7.87436867,4.26823614 7.87436867,5.87436867 C7.87436867,8.0105177 9.22634722,9.88983978 11.2076148,10.5901174 C11.6072063,10.7313527 11.8743687,11.1091403 11.8743687,11.5329573 L11.8743687,14.8743687 C11.8743687,15.4266534 11.4266534,15.8743687 10.8743687,15.8743687 L9.87436867,15.8743687 L9.87436867,17.8743687 L10.8743687,17.8743687 L10.8743687,19.8743687 L9.87436867,19.8743687 L9.87436867,21.8743687 L11.8743687,21.8743687 Z M12.8743687,8.90685425 C11.1995731,8.90685425 9.84188309,7.54916421 9.84188309,5.87436867 C9.84188309,4.19957313 11.1995731,2.84188309 12.8743687,2.84188309 C14.5491642,2.84188309 15.9068542,4.19957313 15.9068542,5.87436867 C15.9068542,7.54916421 14.5491642,8.90685425 12.8743687,8.90685425 Z M12.8743687,6.90685425 C13.4445947,6.90685425 13.9068542,6.44459471 13.9068542,5.87436867 C13.9068542,5.30414263 13.4445947,4.84188309 12.8743687,4.84188309 C12.3041426,4.84188309 11.8418831,5.30414263 11.8418831,5.87436867 C11.8418831,6.44459471 12.3041426,6.90685425 12.8743687,6.90685425 Z" id="shape" transform="translate(12.874369, 11.374369) rotate(-45.000000) translate(-12.874369, -11.374369) "></path>
        </g>
    </g>
</svg>