<?xml version="1.0" encoding="UTF-8"?>
<svg width="24px" height="24px" viewBox="0 0 24 24" version="1.1" xmlns="http://www.w3.org/2000/svg" xmlns:xlink="http://www.w3.org/1999/xlink">
    <!-- Generator: Sketch 44.1 (41455) - http://www.bohemiancoding.com/sketch -->
    <title>Bold/SVG/language</title>
    <desc>Created with Sketch.</desc>
    <defs></defs>
    <g id="Bold-Outline" stroke="none" stroke-width="1" fill="none" fill-rule="evenodd">
        <g id="language" fill-rule="nonzero" fill="#000000">
            <path d="M11.2857591,22.4978654 C10.904747,22.1090463 10.904747,21.4868846 11.2857591,21.0980656 C13.6519494,18.6833918 15,15.4493525 15,12 C15,8.55064749 13.6519494,5.31660825 11.2857591,2.90193444 C10.904747,2.51311538 10.904747,1.89095368 11.2857591,1.50213462 C11.3564509,1.42999431 11.4278658,1.35856524 11.499992,1.28785907 C11.6917791,1.09984802 11.9511314,0.996884716 12.2196508,1.00215324 C18.2021603,1.11953396 23,6.00679843 23,12 C23,17.9932016 18.2021603,22.880466 12.2196508,22.9978468 C11.9511314,23.0031153 11.6917791,22.900152 11.499992,22.7121409 C11.4278658,22.6414348 11.3564509,22.5700057 11.2857591,22.4978654 Z M12.7142409,21.0980656 C12.7755621,21.1606432 12.8375104,21.2226039 12.9000759,21.2839374 L12.2000339,21.9980392 L12.1804171,20.9982316 C12.876071,20.9845824 13.5521595,20.8920762 14.2001891,20.729324 C18.1110734,19.747108 21,16.206413 21,12 C21,7.79358705 18.1110734,4.25289197 14.2001891,3.27067596 C13.5521595,3.10792377 12.876071,3.01541756 12.1804171,3.00176838 L12.2000339,2.00196081 L12.9000759,2.71606256 C12.8375104,2.77739613 12.7755621,2.83935684 12.7142409,2.90193444 L12,2.20203453 L12.7142409,1.50213462 C13.2569163,2.05592944 13.7532409,2.64729633 14.2001891,3.27067596 C16.0007838,5.78205014 17,8.81298996 17,12 C17,15.18701 16.0007838,18.2179499 14.2001891,20.729324 C13.7532409,21.3527037 13.2569163,21.9440706 12.7142409,22.4978654 L12,21.7979655 L12.7142409,21.0980656 Z M9.62684901,16 C10.2423683,17.9071831 11.2952178,19.6499665 12.7142409,21.0980656 C13.095253,21.4868846 13.095253,22.1090463 12.7142409,22.4978654 C12.6435491,22.5700057 12.5721342,22.6414348 12.500008,22.7121409 C12.3082209,22.900152 12.0488686,23.0031153 11.7803492,22.9978468 C5.79783966,22.880466 1,17.9932016 1,12 C1,6.00679843 5.79783966,1.11953396 11.7803492,1.00215324 C12.0488686,0.996884716 12.3082209,1.09984802 12.500008,1.28785907 C12.5721342,1.35856524 12.6435491,1.42999431 12.7142409,1.50213462 C13.095253,1.89095368 13.095253,2.51311538 12.7142409,2.90193444 C11.2952178,4.35003345 10.2423683,6.09281691 9.62684901,8 L21,8 C21.5522847,8 22,8.44771525 22,9 C22,9.55228475 21.5522847,10 21,10 L9.15305258,10 C9.051847,10.6553481 9,11.3235335 9,12 C9,12.6764665 9.051847,13.3446519 9.15305258,14 L21,14 C21.5522847,14 22,14.4477153 22,15 C22,15.5522847 21.5522847,16 21,16 L9.62684901,16 Z M7.13251661,14 C7.04479823,13.3426309 7,12.674814 7,12 C7,11.325186 7.04479823,10.6573691 7.13251661,10 L3.22316268,10 C3.07710087,10.6433981 3,11.3128156 3,12 C3,12.6871844 3.07710087,13.3566019 3.22316268,14 L7.13251661,14 Z M7.53970199,16 L3.93580025,16 C5.0916013,18.3257402 7.22405961,20.0824258 9.79981093,20.729324 C10.4478405,20.8920762 11.123929,20.9845824 11.8195829,20.9982316 L11.7999661,21.9980392 L11.0999241,21.2839374 C11.1624896,21.2226039 11.2244379,21.1606432 11.2857591,21.0980656 L12,21.7979655 L11.2857591,22.4978654 C10.7430837,21.9440706 10.2467591,21.3527037 9.79981093,20.729324 C8.77432227,19.2990268 8.00877023,17.7002022 7.53970199,16 Z M7.53970199,8 C8.00877023,6.2997978 8.77432227,4.70097324 9.79981093,3.27067596 C10.2467591,2.64729633 10.7430837,2.05592944 11.2857591,1.50213462 L12,2.20203453 L11.2857591,2.90193444 C11.2244379,2.83935684 11.1624896,2.77739613 11.0999241,2.71606256 L11.7999661,2.00196081 L11.8195829,3.00176838 C11.123929,3.01541756 10.4478405,3.10792377 9.79981093,3.27067596 C7.22405961,3.91757419 5.0916013,5.6742598 3.93580025,8 L7.53970199,8 Z" id="shape"></path>
        </g>
    </g>
</svg>