<?xml version="1.0" encoding="UTF-8"?>
<svg width="24px" height="24px" viewBox="0 0 24 24" version="1.1" xmlns="http://www.w3.org/2000/svg" xmlns:xlink="http://www.w3.org/1999/xlink">
    <!-- Generator: Sketch 44.1 (41455) - http://www.bohemiancoding.com/sketch -->
    <title>Bold/SVG/light-2</title>
    <desc>Created with Sketch.</desc>
    <defs></defs>
    <g id="Bold-Outline" stroke="none" stroke-width="1" fill="none" fill-rule="evenodd">
        <g id="light-2" fill-rule="nonzero" fill="#000000">
            <path d="M9.91712956,15.5471107 C10.2723245,15.710133 10.5,16.0651384 10.5,16.4559578 L10.5,19 L13.5,19 L13.5,16.4559578 C13.5,16.0651384 13.7276755,15.710133 14.0828704,15.5471107 C15.8460091,14.7378907 17,12.9739978 17,11 C17,8.23857625 14.7614237,6 12,6 C9.23857625,6 7,8.23857625 7,11 C7,12.9739978 8.15399088,14.7378907 9.91712956,15.5471107 Z M5,11 C5,7.13400675 8.13400675,4 12,4 C15.8659932,4 19,7.13400675 19,11 C19,13.5388442 17.6356627,15.8300883 15.5,17.0635813 L15.5,19 C15.5,20.1045695 14.6045695,21 13.5,21 L10.5,21 C9.3954305,21 8.5,20.1045695 8.5,19 L8.5,17.0635813 C6.36433734,15.8300883 5,13.5388442 5,11 Z M10,24 C9.44771525,24 9,23.5522847 9,23 C9,22.4477153 9.44771525,22 10,22 L14,22 C14.5522847,22 15,22.4477153 15,23 C15,23.5522847 14.5522847,24 14,24 L10,24 Z M13,2 C13,2.55228475 12.5522847,3 12,3 C11.4477153,3 11,2.55228475 11,2 L11,1 C11,0.44771525 11.4477153,0 12,0 C12.5522847,0 13,0.44771525 13,1 L13,2 Z M21.5,12 C20.9477153,12 20.5,11.5522847 20.5,11 C20.5,10.4477153 20.9477153,10 21.5,10 L23,10 C23.5522847,10 24,10.4477153 24,11 C24,11.5522847 23.5522847,12 23,12 L21.5,12 Z M1,12 C0.44771525,12 -5.68434189e-14,11.5522847 -5.68434189e-14,11 C-5.68434189e-14,10.4477153 0.44771525,10 1,10 L2.5,10 C3.05228475,10 3.5,10.4477153 3.5,11 C3.5,11.5522847 3.05228475,12 2.5,12 L1,12 Z M3.19289331,4.60710688 C2.80236902,4.21658258 2.80236902,3.58341761 3.19289331,3.19289331 C3.58341761,2.80236902 4.21658258,2.80236902 4.60710688,3.19289331 L5.60710688,4.19289331 C5.99763117,4.58341761 5.99763117,5.21658258 5.60710688,5.60710688 C5.21658258,5.99763117 4.58341761,5.99763117 4.19289331,5.60710688 L3.19289331,4.60710688 Z M19.3928936,3.19289331 C19.7834179,2.80236902 20.4165829,2.80236902 20.8071072,3.19289331 C21.1976315,3.58341761 21.1976315,4.21658258 20.8071072,4.60710688 L19.8071072,5.60710688 C19.4165829,5.99763117 18.7834179,5.99763117 18.3928936,5.60710688 C18.0023693,5.21658258 18.0023693,4.58341761 18.3928936,4.19289331 L19.3928936,3.19289331 Z" id="Combined-Shape"></path>
        </g>
    </g>
</svg>