<?xml version="1.0" encoding="UTF-8"?>
<svg width="24px" height="24px" viewBox="0 0 24 24" version="1.1" xmlns="http://www.w3.org/2000/svg" xmlns:xlink="http://www.w3.org/1999/xlink">
    <!-- Generator: Sketch 44.1 (41455) - http://www.bohemiancoding.com/sketch -->
    <title>Bold/SVG/light</title>
    <desc>Created with Sketch.</desc>
    <defs></defs>
    <g id="Bold-Outline" stroke="none" stroke-width="1" fill="none" fill-rule="evenodd">
        <g id="light" fill-rule="nonzero" fill="#000000">
            <path d="M14.5,16.5 L14.5,15.1733022 C14.5,14.8176342 14.6889122,14.4887319 14.9961312,14.3095219 C16.8399951,13.2339411 18,11.2494976 18,9.05882353 C18,5.71076311 15.3118266,3 12,3 C8.68817342,3 6,5.71076311 6,9.05882353 C6,11.2494976 7.16000487,13.2339411 9.00386878,14.3095219 C9.31108775,14.4887319 9.5,14.8176342 9.5,15.1733022 L9.5,16.5 L14.5,16.5 Z M14.5,18.5 L9.5,18.5 C9.5,19.8807119 10.6192881,21 12,21 C13.3807119,21 14.5,19.8807119 14.5,18.5 Z M4,9.05882353 C4,4.60992277 7.57984008,1 12,1 C16.4201599,1 20,4.60992277 20,9.05882353 C20,11.7654435 18.6634026,14.2393262 16.5,15.7228659 L16.5,18.5 C16.5,20.9852814 14.4852814,23 12,23 C9.51471863,23 7.5,20.9852814 7.5,18.5 L7.5,15.7228659 C5.33659743,14.2393262 4,11.7654435 4,9.05882353 Z M16,8.55882353 C16,9.11110828 15.5522847,9.55882353 15,9.55882353 C14.4477153,9.55882353 14,9.11110828 14,8.55882353 C14,7.45425403 13.1045695,6.55882353 12,6.55882353 C11.4477153,6.55882353 11,6.11110828 11,5.55882353 C11,5.00653878 11.4477153,4.55882353 12,4.55882353 C14.209139,4.55882353 16,6.34968453 16,8.55882353 Z" id="shape"></path>
        </g>
    </g>
</svg>