<?xml version="1.0" encoding="UTF-8"?>
<svg width="24px" height="24px" viewBox="0 0 24 24" version="1.1" xmlns="http://www.w3.org/2000/svg" xmlns:xlink="http://www.w3.org/1999/xlink">
    <!-- Generator: Sketch 44.1 (41455) - http://www.bohemiancoding.com/sketch -->
    <title>Bold/SVG/link-broken</title>
    <desc>Created with Sketch.</desc>
    <defs></defs>
    <g id="Bold-Outline" stroke="none" stroke-width="1" fill="none" fill-rule="evenodd">
        <g id="link-broken" fill-rule="nonzero" fill="#000000">
            <path d="M18.3660254,21.0262794 L16.9910254,18.6447096 C16.714883,18.166417 16.1032926,18.0025418 15.625,18.2786842 C15.1467074,18.5548266 14.9828322,19.166417 15.2589746,19.6447096 L16.6339746,22.0262794 C16.910117,22.5045721 17.5217074,22.6684472 18,22.3923048 C18.4782926,22.1161625 18.6421678,21.5045721 18.3660254,21.0262794 Z M8.7410254,4.35529042 C9.01716778,4.83358304 8.85329262,5.44517345 8.375,5.72131582 C7.89670738,5.9974582 7.28511697,5.83358304 7.0089746,5.35529042 L5.6339746,2.97372056 C5.35783222,2.49542793 5.52170738,1.88383753 6,1.60769515 C6.47829262,1.33155278 7.08988303,1.49542793 7.3660254,1.97372056 L8.7410254,4.35529042 Z M22.0262794,16.6339746 C22.5045721,16.910117 22.6684472,17.5217074 22.3923048,18 C22.1161625,18.4782926 21.5045721,18.6421678 21.0262794,18.3660254 L18.6447096,16.9910254 C18.166417,16.714883 18.0025418,16.1032926 18.2786842,15.625 C18.5548266,15.1467074 19.166417,14.9828322 19.6447096,15.2589746 L22.0262794,16.6339746 Z M5.35529042,7.0089746 C5.83358304,7.28511697 5.9974582,7.89670738 5.72131582,8.375 C5.44517345,8.85329262 4.83358304,9.01716778 4.35529042,8.7410254 L1.97372056,7.3660254 C1.49542793,7.08988303 1.33155278,6.47829262 1.60769515,6 C1.88383753,5.52170738 2.49542793,5.35783222 2.97372056,5.6339746 L5.35529042,7.0089746 Z M12.3535534,15.8890873 C12.7440777,15.498563 13.3772427,15.498563 13.767767,15.8890873 C14.1582912,16.2796116 14.1582912,16.9127766 13.767767,17.3033009 L10.9393398,20.131728 C8.98671837,22.0843494 5.82089348,22.0843494 3.86827202,20.131728 C1.91565056,18.1791065 1.91565056,15.0132816 3.86827202,13.0606602 L6.69669914,10.232233 C7.08722343,9.84170876 7.72038841,9.84170876 8.1109127,10.232233 C8.501437,10.6227573 8.501437,11.2559223 8.1109127,11.6464466 L5.28248558,14.4748737 C4.1109127,15.6464466 4.1109127,17.5459415 5.28248558,18.7175144 C6.45405845,19.8890873 8.35355339,19.8890873 9.52512627,18.7175144 L12.3535534,15.8890873 Z M11.6464466,8.1109127 C11.2559223,8.501437 10.6227573,8.501437 10.232233,8.1109127 C9.84170876,7.72038841 9.84170876,7.08722343 10.232233,6.69669914 L13.0606602,3.86827202 C15.0132816,1.91565056 18.1791065,1.91565056 20.131728,3.86827202 C22.0843494,5.82089348 22.0843494,8.98671837 20.131728,10.9393398 L17.3033009,13.767767 C16.9127766,14.1582912 16.2796116,14.1582912 15.8890873,13.767767 C15.498563,13.3772427 15.498563,12.7440777 15.8890873,12.3535534 L18.7175144,9.52512627 C19.8890873,8.35355339 19.8890873,6.45405845 18.7175144,5.28248558 C17.5459415,4.1109127 15.6464466,4.1109127 14.4748737,5.28248558 L11.6464466,8.1109127 Z" id="Combined-Shape"></path>
        </g>
    </g>
</svg>