<?xml version="1.0" encoding="UTF-8"?>
<svg width="24px" height="24px" viewBox="0 0 24 24" version="1.1" xmlns="http://www.w3.org/2000/svg" xmlns:xlink="http://www.w3.org/1999/xlink">
    <!-- Generator: Sketch 44.1 (41455) - http://www.bohemiancoding.com/sketch -->
    <title>Bold/SVG/location-off</title>
    <desc>Created with Sketch.</desc>
    <defs></defs>
    <g id="Bold-Outline" stroke="none" stroke-width="1" fill="none" fill-rule="evenodd">
        <g id="location-off" fill-rule="nonzero" fill="#000000">
            <path d="M5.19575041,13.4223055 C4.73034616,12.2569888 4.5,11.1179234 4.5,10 C4.5,5.85786438 7.85786438,2.5 12,2.5 C12.912387,2.5 13.8008793,2.66251667 14.6355871,2.97588166 C14.856847,3.05894677 15.0738848,3.15245873 15.2860547,3.25606011 C15.7823351,3.49839103 16.3810978,3.29252435 16.6234287,2.79624401 C16.8657596,2.29996367 16.6598929,1.70120095 16.1636126,1.45887003 C15.8945386,1.3274827 15.6192308,1.20886482 15.3385214,1.10348124 C14.2799056,0.70605695 13.1533749,0.5 12,0.5 C6.75329488,0.5 2.5,4.75329488 2.5,10 C2.5,11.3787897 2.7810374,12.7685241 3.33840026,14.1640941 C3.54323953,14.6769872 4.12507657,14.9267142 4.63796966,14.7218749 C5.15086274,14.5170356 5.40058969,13.9351986 5.19575041,13.4223055 Z M5.74021763,16.8455688 C5.7472294,16.8383413 5.75436849,16.8312013 5.76163448,16.824152 L18.2066359,4.37915056 C18.2148149,4.37067539 18.2231666,4.36232234 18.2316902,4.35409623 L20.4852814,2.10050506 C20.8758057,1.70998077 21.5089706,1.70998077 21.8994949,2.10050506 C22.2900192,2.49102936 22.2900192,3.12419433 21.8994949,3.51471863 L20.2051509,5.20906263 C21.0464886,6.64680665 21.5,8.29028002 21.5,10 C21.5,14.3410166 18.7338346,18.7410375 13.3049397,23.229111 C12.5421391,23.8597191 11.4328231,23.8375774 10.6957936,23.1770329 C8.69754082,21.386148 7.26649947,20.0092728 6.38769147,19.0265221 L3.51471863,21.8994949 C3.12419433,22.2900192 2.49102936,22.2900192 2.10050506,21.8994949 C1.70998077,21.5089706 1.70998077,20.8758057 2.10050506,20.4852814 L5.74021727,16.8455692 Z M7.80423762,17.6099759 C8.59841484,18.5125427 10.0128986,19.8793246 12.0306142,21.6876525 C17.0446834,17.5425158 19.5,13.6369488 19.5,10 C19.5,8.8303413 19.2322425,7.70236543 18.7296566,6.68455699 L7.80423762,17.6099759 Z" id="shape"></path>
        </g>
    </g>
</svg>