<?xml version="1.0" encoding="UTF-8"?>
<svg width="24px" height="24px" viewBox="0 0 24 24" version="1.1" xmlns="http://www.w3.org/2000/svg" xmlns:xlink="http://www.w3.org/1999/xlink">
    <!-- Generator: Sketch 44.1 (41455) - http://www.bohemiancoding.com/sketch -->
    <title>Bold/SVG/magnet</title>
    <desc>Created with Sketch.</desc>
    <defs></defs>
    <g id="Bold-Outline" stroke="none" stroke-width="1" fill="none" fill-rule="evenodd">
        <g id="magnet" fill-rule="nonzero" fill="#000000">
            <path d="M15.4997559,8 L15.4997559,13.0001221 C15.4997559,14.9330513 13.9328071,16.5 11.9998779,16.5 C10.0669487,16.5 8.5,14.9330513 8.5,13.0001221 L8.5,8 L4.5,8 L4.5,13 C4.5,17.1421356 7.85786438,20.5 12,20.5 C16.1421356,20.5 19.5,17.1421356 19.5,13 L19.5,8 L15.4997559,8 Z M15.4997559,6 L19.5,6 L19.5,3.5 L15.4997559,3.5 L15.4997559,6 Z M8.5,6 L8.5,3.5 L4.5,3.5 L4.5,6 L8.5,6 Z M4.5,1.5 L8.5,1.5 C9.6045695,1.5 10.5,2.3954305 10.5,3.5 L10.5,13.0001221 C10.5,13.8284818 11.1715182,14.5 11.9998779,14.5 C12.8282376,14.5 13.4997559,13.8284818 13.4997559,13.0001221 L13.4997559,3.5 C13.4997559,2.3954305 14.3951864,1.5 15.4997559,1.5 L19.5,1.5 C20.6045695,1.5 21.5,2.3954305 21.5,3.5 L21.5,13 C21.5,18.2467051 17.2467051,22.5 12,22.5 C6.75329488,22.5 2.5,18.2467051 2.5,13 L2.5,3.5 C2.5,2.3954305 3.3954305,1.5 4.5,1.5 Z" id="shape"></path>
        </g>
    </g>
</svg>