<?xml version="1.0" encoding="UTF-8"?>
<svg width="24px" height="24px" viewBox="0 0 24 24" version="1.1" xmlns="http://www.w3.org/2000/svg" xmlns:xlink="http://www.w3.org/1999/xlink">
    <!-- Generator: Sketch 44.1 (41455) - http://www.bohemiancoding.com/sketch -->
    <title>Bold/SVG/mail-add</title>
    <desc>Created with Sketch.</desc>
    <defs></defs>
    <g id="Bold-Outline" stroke="none" stroke-width="1" fill="none" fill-rule="evenodd">
        <g id="mail-add" fill-rule="nonzero" fill="#000000">
            <path d="M21,18 L21,20 C21,20.5522847 20.5522847,21 20,21 C19.4477153,21 19,20.5522847 19,20 L19,18 L17,18 C16.4477153,18 16,17.5522847 16,17 C16,16.4477153 16.4477153,16 17,16 L19,16 L19,14 C19,13.4477153 19.4477153,13 20,13 C20.5522847,13 21,13.4477153 21,14 L21,16 L23,16 C23.5522847,16 24,16.4477153 24,17 C24,17.5522847 23.5522847,18 23,18 L21,18 Z M1,9.02324321 C0.999649889,9.00804956 0.999648017,8.99280953 1,8.97753355 L1,7 C1,4.790861 2.790861,3 5,3 L19,3 C21.209139,3 23,4.790861 23,7 L23,8.97753136 C23.000352,8.99280953 23.0003501,9.00804956 23,9.02324321 L23,11 C23,11.5522847 22.5522847,12 22,12 C21.4477153,12 21,11.5522847 21,11 L21,10.3440307 L12.8620437,12.7854176 C12.2997275,12.9541124 11.7002725,12.9541124 11.1379563,12.7854176 L3,10.3440307 L3,17 C3,18.1045695 3.8954305,19 5,19 L14,19 C14.5522847,19 15,19.4477153 15,20 C15,20.5522847 14.5522847,21 14,21 L5,21 C2.790861,21 1,19.209139 1,17 L1,9.02324648 Z M21,8.25596935 L21,7 C21,5.8954305 20.1045695,5 19,5 L5,5 C3.8954305,5 3,5.8954305 3,7 L3,8.25596935 L11.7126521,10.869765 C11.9000908,10.9259966 12.0999092,10.9259966 12.2873479,10.869765 L21,8.25596935 Z" id="shape"></path>
        </g>
    </g>
</svg>