<?xml version="1.0" encoding="UTF-8"?>
<svg width="24px" height="24px" viewBox="0 0 24 24" version="1.1" xmlns="http://www.w3.org/2000/svg" xmlns:xlink="http://www.w3.org/1999/xlink">
    <!-- Generator: Sketch 44.1 (41455) - http://www.bohemiancoding.com/sketch -->
    <title>Bold/SVG/map</title>
    <desc>Created with Sketch.</desc>
    <defs></defs>
    <g id="Bold-Outline" stroke="none" stroke-width="1" fill="none" fill-rule="evenodd">
        <g id="map" fill-rule="nonzero" fill="#000000">
            <path d="M14.5,6.29031462 C14.288533,6.23571256 14.0804675,6.16350273 13.8779973,6.07368513 L9.5,4.13156603 L9.5,17.8976424 C9.71146701,17.9522444 9.91953251,18.0244543 10.1220027,18.1142719 L14.5,20.056391 L14.5,6.29031462 Z M16.5,6.29031462 L16.5,20.056391 L20.3110014,18.3657964 C21.0339439,18.0450926 21.5,17.3284905 21.5,16.5376069 L21.5,5.66915355 C21.5,5.52947038 21.4707364,5.39133653 21.4140947,5.26365288 C21.1901429,4.75881229 20.5993399,4.53110697 20.0944993,4.75505881 L17.1220027,6.07368513 C16.9195325,6.16350273 16.711467,6.23571256 16.5,6.29031462 Z M7.5,4.13156603 L3.68899865,5.82216061 C2.96605615,6.14286443 2.5,6.85946655 2.5,7.6503501 L2.5,18.5188035 C2.5,18.6584866 2.52926363,18.7966205 2.58590526,18.9243041 C2.8098571,19.4291447 3.40066009,19.65685 3.90550068,19.4328982 L6.8779973,18.1142719 C7.08046749,18.0244543 7.28853299,17.9522444 7.5,17.8976424 L7.5,4.13156603 Z M2.8779973,3.99397112 L6.8779973,2.21953503 C7.91080172,1.76137367 9.08919828,1.76137367 10.1220027,2.21953503 L14.6889986,4.24549564 C15.2054009,4.47457632 15.7945991,4.47457632 16.3110014,4.24549564 L19.283498,2.92686932 C20.7980197,2.2550138 22.5704287,2.93812976 23.2422842,4.45265153 C23.4122091,4.83570249 23.5,5.25010403 23.5,5.66915355 L23.5,16.5376069 C23.5,18.119374 22.5678877,19.5525783 21.1220027,20.1939859 L17.1220027,21.968422 C16.0891983,22.4265833 14.9108017,22.4265833 13.8779973,21.968422 L9.31100135,19.9424614 C8.79459914,19.7133807 8.20540086,19.7133807 7.68899865,19.9424614 L4.71650203,21.2610877 C3.20198027,21.9329432 1.42957129,21.2498272 0.757715767,19.7353055 C0.587790903,19.3522545 0.5,18.937853 0.5,18.5188035 L0.5,7.6503501 C0.5,6.068583 1.4321123,4.63537875 2.8779973,3.99397112 Z" id="shape"></path>
        </g>
    </g>
</svg>