<?xml version="1.0" encoding="UTF-8"?>
<svg width="24px" height="24px" viewBox="0 0 24 24" version="1.1" xmlns="http://www.w3.org/2000/svg" xmlns:xlink="http://www.w3.org/1999/xlink">
    <!-- Generator: Sketch 44.1 (41455) - http://www.bohemiancoding.com/sketch -->
    <title>Bold/SVG/message-outline</title>
    <desc>Created with Sketch.</desc>
    <defs></defs>
    <g id="Bold-Outline" stroke="none" stroke-width="1" fill="none" fill-rule="evenodd">
        <g id="message-outline" fill-rule="nonzero" fill="#000000">
            <path d="M16.0193634,21.7029335 C14.7558477,22.2268657 13.3961039,22.5 12,22.5 C6.20101013,22.5 1.5,17.7989899 1.5,12 C1.5,6.20101013 6.20101013,1.5 12,1.5 C17.7989899,1.5 22.5,6.20101013 22.5,12 C22.5,13.3961039 22.2268657,14.7558477 21.7029335,16.0193634 C21.5063991,16.4933261 21.275396,16.951651 21.0121301,17.3909039 L22.4350992,21.1456139 C22.7405244,21.9515226 21.9515226,22.7405244 21.1456139,22.4350992 L17.3909039,21.0121301 C16.951651,21.275396 16.4933261,21.5063991 16.0193634,21.7029335 Z M18.9648981,17.6325471 C18.850244,17.3300155 18.8890366,16.9907077 19.0690156,16.7218611 C19.3786287,16.2593718 19.6421989,15.7676085 19.8554676,15.2532892 C20.2791357,14.2315706 20.5,13.1320423 20.5,12 C20.5,7.30557963 16.6944204,3.5 12,3.5 C7.30557963,3.5 3.5,7.30557963 3.5,12 C3.5,16.6944204 7.30557963,20.5 12,20.5 C13.1320423,20.5 14.2315706,20.2791357 15.2532892,19.8554676 C15.7676085,19.6421989 16.2593718,19.3786287 16.7218611,19.0690156 C16.9907077,18.8890366 17.3300155,18.850244 17.6325471,18.9648981 L19.7779791,19.7779791 L18.9648981,17.6325471 Z" id="shape"></path>
        </g>
    </g>
</svg>