<?xml version="1.0" encoding="UTF-8"?>
<svg width="24px" height="24px" viewBox="0 0 24 24" version="1.1" xmlns="http://www.w3.org/2000/svg" xmlns:xlink="http://www.w3.org/1999/xlink">
    <!-- Generator: Sketch 44.1 (41455) - http://www.bohemiancoding.com/sketch -->
    <title>Bold/SVG/mouse</title>
    <desc>Created with Sketch.</desc>
    <defs></defs>
    <g id="Bold-Outline" stroke="none" stroke-width="1" fill="none" fill-rule="evenodd">
        <g id="mouse" fill-rule="nonzero" fill="#000000">
            <path d="M18,10 L18,9 C18,5.6862915 15.3137085,3 12,3 C8.6862915,3 6,5.6862915 6,9 L6,10 L18,10 Z M18,12 L6,12 L6,15 C6,18.3137085 8.6862915,21 12,21 C15.3137085,21 18,18.3137085 18,15 L18,12 Z M12,1 C16.418278,1 20,4.581722 20,9 L20,15 C20,19.418278 16.418278,23 12,23 C7.581722,23 4,19.418278 4,15 L4,9 C4,4.581722 7.581722,1 12,1 Z M13,7.99939083 C13,8.55167558 12.5522847,8.99939083 12,8.99939083 C11.4477153,8.99939083 11,8.55167558 11,7.99939083 L11,6.00060917 C11,5.44832442 11.4477153,5.00060917 12,5.00060917 C12.5522847,5.00060917 13,5.44832442 13,6.00060917 L13,7.99939083 Z" id="shape"></path>
        </g>
    </g>
</svg>