<?xml version="1.0" encoding="UTF-8"?>
<svg width="24px" height="24px" viewBox="0 0 24 24" version="1.1" xmlns="http://www.w3.org/2000/svg" xmlns:xlink="http://www.w3.org/1999/xlink">
    <!-- Generator: Sketch 44.1 (41455) - http://www.bohemiancoding.com/sketch -->
    <title>Bold/SVG/move-forward</title>
    <desc>Created with Sketch.</desc>
    <defs></defs>
    <g id="Bold-Outline" stroke="none" stroke-width="1" fill="none" fill-rule="evenodd">
        <g id="move-forward" fill-rule="nonzero" fill="#000000">
            <path d="M5,18 C4.44771525,18 4,18.4477153 4,19 C4,19.5522847 4.44771525,20 5,20 L19,20 C19.5522847,20 20,19.5522847 20,19 C20,18.4477153 19.5522847,18 19,18 L14,18 C13.4477153,18 13,17.5522847 13,17 L13,9 C13,8.44771525 13.4477153,8 14,8 L16.2067876,8 L12,3.46961332 L7.79321237,8 L10,8 C10.5522847,8 11,8.44771525 11,9 L11,17 C11,17.5522847 10.5522847,18 10,18 L5,18 Z M9,12 L9,10 L7.79321237,10 C6.68864287,10 5.79321237,9.1045695 5.79321237,8 C5.79321237,7.49517718 5.98411814,7.00902868 6.32762539,6.6390978 L10.534413,2.10871112 C11.2860185,1.29928978 12.5514809,1.25242081 13.3609022,2.00402634 C13.4145366,2.05507677 13.4145366,2.05507677 13.465587,2.10871112 L17.6723746,6.6390978 C18.4239801,7.44851914 18.3771112,8.71398145 17.5676898,9.46558698 C17.197759,9.80909423 16.7116105,10 16.2067876,10 L15,10 L15,12 L21,12 C21.5522847,12 22,12.4477153 22,13 C22,13.5522847 21.5522847,14 21,14 L15,14 L15,16 L19,16 C20.6568542,16 22,17.3431458 22,19 C22,20.6568542 20.6568542,22 19,22 L5,22 C3.34314575,22 2,20.6568542 2,19 C2,17.3431458 3.34314575,16 5,16 L9,16 L9,14 L2.99987793,14 C2.44759318,14 1.99987793,13.5522847 1.99987793,13 C1.99987793,12.4477153 2.44759318,12 2.99987793,12 L9,12 Z" id="Combined-Shape"></path>
        </g>
    </g>
</svg>