<?xml version="1.0" encoding="UTF-8"?>
<svg width="24px" height="24px" viewBox="0 0 24 24" version="1.1" xmlns="http://www.w3.org/2000/svg" xmlns:xlink="http://www.w3.org/1999/xlink">
    <!-- Generator: Sketch 44.1 (41455) - http://www.bohemiancoding.com/sketch -->
    <title>Bold/SVG/newspaper</title>
    <desc>Created with Sketch.</desc>
    <defs></defs>
    <g id="Bold-Outline" stroke="none" stroke-width="1" fill="none" fill-rule="evenodd">
        <g id="newspaper" fill-rule="nonzero" fill="#000000">
            <path d="M19,7 L19,21 C20.1045695,21 21,20.1045695 21,19 L21,7 L19,7 Z M19,5 L22,5 C22.5522847,5 23,5.44771525 23,6 L23,19 C23,21.209139 21.209139,23 19,23 L17.9996338,23 L5,23 C2.790861,23 1,21.209139 1,19 L1,5 C1,2.790861 2.790861,1 5,1 L15,1 C17.209139,1 19,2.790861 19,5 Z M17,5 C17,3.8954305 16.1045695,3 15,3 L5,3 C3.8954305,3 3,3.8954305 3,5 L3,19 C3,20.1045695 3.8954305,21 5,21 L17,21 L17,5 Z M6,15 C5.44771525,15 5,14.5522847 5,14 C5,13.4477153 5.44771525,13 6,13 L14,13 C14.5522847,13 15,13.4477153 15,14 C15,14.5522847 14.5522847,15 14,15 L6,15 Z M6,19 C5.44771525,19 5,18.5522847 5,18 C5,17.4477153 5.44771525,17 6,17 L14,17 C14.5522847,17 15,17.4477153 15,18 C15,18.5522847 14.5522847,19 14,19 L6,19 Z M6,5 L14,5 C14.5522847,5 15,5.44771525 15,6 L15,10 C15,10.5522847 14.5522847,11 14,11 L6,11 C5.44771525,11 5,10.5522847 5,10 L5,6 C5,5.44771525 5.44771525,5 6,5 Z M7,9 L13,9 L13,7 L7,7 L7,9 Z" id="shape"></path>
        </g>
    </g>
</svg>