<?xml version="1.0" encoding="UTF-8"?>
<svg width="24px" height="24px" viewBox="0 0 24 24" version="1.1" xmlns="http://www.w3.org/2000/svg" xmlns:xlink="http://www.w3.org/1999/xlink">
    <!-- Generator: Sketch 44.1 (41455) - http://www.bohemiancoding.com/sketch -->
    <title>Bold/SVG/nuclear</title>
    <desc>Created with Sketch.</desc>
    <defs></defs>
    <g id="Bold-Outline" stroke="none" stroke-width="1" fill="none" fill-rule="evenodd">
        <g id="nuclear" fill-rule="nonzero" fill="#000000">
            <path d="M8.12601749,11.5 C8.31003226,10.7850525 8.6867422,10.1474632 9.19748239,9.64589711 L6.1339746,4.33974596 L6.13112191,4.33474817 C5.85803126,3.85735883 6.02179223,3.24848442 6.49837733,2.97273486 C8.15719938,2.01294941 10.0423719,1.5 12,1.5 C13.9576419,1.5 15.8428272,2.01295667 17.5016574,2.97275497 C17.9796913,3.24934509 18.1429937,3.86108868 17.8664035,4.33912252 L17.8639916,4.34326854 L14.8025176,9.64589711 C15.3132578,10.1474632 15.6899677,10.7850525 15.8739825,11.5 L22,11.5 C22.2761424,11.5 22.5261424,11.6119288 22.7071068,11.7928932 C22.8880712,11.9738576 23,12.2238576 23,12.5 C23,14.4576253 22.487052,16.3427953 21.5272691,18.0016158 C20.5623869,19.6692495 19.1726192,21.059558 17.5053682,22.025097 C17.0559562,22.2853606 16.4881615,22.1567016 16.1918754,21.7430369 C16.1712466,21.7188177 16.1519036,21.6913079 16.1339746,21.660254 L13.0709898,16.3550088 C12.73012,16.4495033 12.370957,16.5 12,16.5 C11.629043,16.5 11.26988,16.4495033 10.9290102,16.3550088 L7.8660254,21.660254 C7.8615849,21.6679452 7.85705766,21.6755551 7.85244563,21.6830831 L7.85247548,21.6831111 C7.57041252,22.1451849 6.96945568,22.2998299 6.49835651,22.0272531 C4.82948134,21.0616461 3.43836442,19.6705312 2.47275497,18.0016574 C1.51295667,16.3428272 1,14.4576419 1,12.5 C1,12.2238576 1.11192881,11.9738576 1.29289322,11.7928932 C1.47385763,11.6119288 1.72385763,11.5 2,11.5 L8.12601749,11.5 Z M8.12601749,13.5 L3.05486636,13.5 C3.1919781,14.7418232 3.58374075,15.9282619 4.20386863,17.000036 C4.82644423,18.0760405 5.66563484,19.0115166 6.66151068,19.7465347 L6.66151068,19.7465347 L9.19748239,15.3541029 C8.6867422,14.8525368 8.31003226,14.2149475 8.12601749,13.5 Z M13.0709898,8.64499121 L15.6074147,4.25177443 L15.6074147,4.25177443 C14.4831988,3.75923315 13.2612383,3.5 12,3.5 C10.7387618,3.5 9.5168013,3.75923311 8.39258528,4.25177443 L10.9290102,8.64499121 C11.26988,8.55049671 11.629043,8.5 12,8.5 C12.370957,8.5 12.73012,8.55049671 13.0709898,8.64499121 Z M14.8025176,15.3541029 L17.3384893,19.7465348 C18.3343838,19.0115029 19.1735787,18.0760116 19.7961511,17.0000019 C20.4162676,15.9282367 20.8080234,14.7418099 20.9451336,13.5 L20.9451336,13.5 L15.8739825,13.5 C15.6899677,14.2149475 15.3132578,14.8525368 14.8025176,15.3541029 Z M12,14.5 C13.1045695,14.5 14,13.6045695 14,12.5 C14,11.3954305 13.1045695,10.5 12,10.5 C10.8954305,10.5 10,11.3954305 10,12.5 C10,13.6045695 10.8954305,14.5 12,14.5 Z" id="Combined-Shape"></path>
        </g>
    </g>
</svg>