<?xml version="1.0" encoding="UTF-8"?>
<svg width="24px" height="24px" viewBox="0 0 24 24" version="1.1" xmlns="http://www.w3.org/2000/svg" xmlns:xlink="http://www.w3.org/1999/xlink">
    <!-- Generator: Sketch 44.1 (41455) - http://www.bohemiancoding.com/sketch -->
    <title>Bold/SVG/paint-roller</title>
    <desc>Created with Sketch.</desc>
    <defs></defs>
    <g id="Bold-Outline" stroke="none" stroke-width="1" fill="none" fill-rule="evenodd">
        <g id="paint-roller" fill-rule="nonzero" fill="#000000">
            <path d="M20,4 L22,4 C22.5522847,4 23,4.44771525 23,5 L23,9 C23,10.6568542 21.6568542,12 20,12 L13,12 L13,13 L14,13 C14.5522847,13 15,13.4477153 15,14 L15,22 C15,22.5522847 14.5522847,23 14,23 L10,23 C9.44771525,23 9,22.5522847 9,22 L9,14 C9,13.4477153 9.44771525,13 10,13 L11,13 L11,11 C11,10.4477153 11.4477153,10 12,10 L20,10 C20.5522847,10 21,9.55228475 21,9 L21,6 L20,6 C19.9998231,7.65670378 18.6567451,8.99967259 17,8.99967259 L5,8.99967259 C3.34314575,8.99967259 2,7.65652684 2,5.99967259 L2,4 C2,2.34314575 3.34314575,1 5,1 L17,1 C18.6568542,1 20,2.34314575 20,4 Z M5,3 C4.44771525,3 4,3.44771525 4,4 L4,5.99967259 C4,6.55195734 4.44771525,6.99967259 5,6.99967259 L17,6.99967259 C17.5522847,6.99967259 18,6.55195734 18,5.99967259 L18,4 C18,3.44771525 17.5522847,3 17,3 L5,3 Z M11,21 L13,21 L13,15 L11,15 L11,21 Z" id="shape"></path>
        </g>
    </g>
</svg>