<?xml version="1.0" encoding="UTF-8"?>
<svg width="24px" height="24px" viewBox="0 0 24 24" version="1.1" xmlns="http://www.w3.org/2000/svg" xmlns:xlink="http://www.w3.org/1999/xlink">
    <!-- Generator: Sketch 44.1 (41455) - http://www.bohemiancoding.com/sketch -->
    <title>Bold/SVG/pause</title>
    <desc>Created with Sketch.</desc>
    <defs></defs>
    <g id="Bold-Outline" stroke="none" stroke-width="1" fill="none" fill-rule="evenodd">
        <g id="pause" fill-rule="nonzero" fill="#000000">
            <path d="M7.5,4 C6.67157288,4 6,4.67157288 6,5.5 L6,18.5 C6,19.3284271 6.67157288,20 7.5,20 C8.32842712,20 9,19.3284271 9,18.5 L9,5.5 C9,4.67157288 8.32842712,4 7.5,4 Z M7.5,2 C9.43299662,2 11,3.56700338 11,5.5 L11,18.5 C11,20.4329966 9.43299662,22 7.5,22 C5.56700338,22 4,20.4329966 4,18.5 L4,5.5 C4,3.56700338 5.56700338,2 7.5,2 Z M16.5,2 C18.4329966,2 20,3.56700338 20,5.5 L20,18.5 C20,20.4329966 18.4329966,22 16.5,22 C14.5670034,22 13,20.4329966 13,18.5 L13,5.5 C13,3.56700338 14.5670034,2 16.5,2 Z M16.5,4 C15.6715729,4 15,4.67157288 15,5.5 L15,18.5 C15,19.3284271 15.6715729,20 16.5,20 C17.3284271,20 18,19.3284271 18,18.5 L18,5.5 C18,4.67157288 17.3284271,4 16.5,4 Z" id="shape"></path>
        </g>
    </g>
</svg>