<?xml version="1.0" encoding="UTF-8"?>
<svg width="24px" height="24px" viewBox="0 0 24 24" version="1.1" xmlns="http://www.w3.org/2000/svg" xmlns:xlink="http://www.w3.org/1999/xlink">
    <!-- Generator: Sketch 44.1 (41455) - http://www.bohemiancoding.com/sketch -->
    <title>Bold/SVG/pig</title>
    <desc>Created with Sketch.</desc>
    <defs></defs>
    <g id="Bold-Outline" stroke="none" stroke-width="1" fill="none" fill-rule="evenodd">
        <g id="pig" fill-rule="nonzero" fill="#000000">
            <path d="M21.8741916,7.82490331 C22.640089,9.36449772 23.0588235,11.1386257 23.0588235,13.0588235 C23.0588235,19.171047 18.7272852,23 12,23 C5.2727148,23 0.941176471,19.171047 0.941176471,13.0588235 C0.941176471,11.2022377 1.33262703,9.48220405 2.05083639,7.97868254 C1.90053584,7.96133738 1.75148732,7.92684916 1.60663406,7.87504077 C0.566585543,7.50305576 0.0250130657,6.35837641 0.396998081,5.31832788 L0.91621852,3.86661766 C0.966874631,3.72498611 1.02547938,3.58632466 1.09175351,3.45129401 C2.06510046,1.46814227 4.4618162,0.649533739 6.44496794,1.62288069 L8.33020442,2.54817003 C9.45956616,2.19125304 10.6897323,2 12,2 C13.3101527,2 14.5402179,2.19121947 15.6694982,2.54807605 L17.5499395,1.6221975 C19.5318629,0.646351906 21.9296085,1.46193913 22.9054541,3.44386257 C22.9726828,3.58040279 23.032064,3.72066866 23.0833081,3.86397595 L23.5476427,5.16251725 C23.9195544,6.20259199 23.3779012,7.34723316 22.3378265,7.71914485 C22.186626,7.77321138 22.0309721,7.8083733 21.8741916,7.82490331 Z M19.3216781,4.55294047 C19.3774246,4.57194635 19.4322636,4.5961622 19.4855671,4.62576748 L21.6644208,5.83592294 L21.2000862,4.53738164 C21.1744641,4.46572799 21.1447735,4.39559506 21.1111592,4.32732495 C20.6232364,3.33636323 19.4243636,2.92856962 18.4334019,3.41649241 L18.0266959,3.61674348 C18.4852464,3.89676755 18.9176431,4.20974292 19.3216781,4.55294047 Z M4.10099931,5.08293239 C4.66121819,4.52738022 5.28699301,4.03610049 5.97099129,3.61815628 L5.56376767,3.41828763 C4.5721918,2.93161415 3.37383393,3.34091842 2.88716045,4.33249429 C2.85402339,4.40000961 2.82472101,4.46934034 2.79939296,4.54015611 L2.28017252,5.99186634 L4.052594,5.10556945 C4.068622,5.09755467 4.08476234,5.09001073 4.10099931,5.08293239 Z M12,21 C17.673868,21 21.0588235,18.0077985 21.0588235,13.0588235 C21.0588235,7.82369613 17.3972042,4 12,4 C6.60279584,4 2.94117647,7.82369613 2.94117647,13.0588235 C2.94117647,18.0077985 6.32613195,21 12,21 Z M8,9 C7.44771525,9 7,8.55228475 7,8 C7,7.44771525 7.44771525,7 8,7 C8.55228475,7 9,7.44771525 9,8 C9,8.55228475 8.55228475,9 8,9 Z M16,9 C15.4477153,9 15,8.55228475 15,8 C15,7.44771525 15.4477153,7 16,7 C16.5522847,7 17,7.44771525 17,8 C17,8.55228475 16.5522847,9 16,9 Z M12,19 C8.72920151,19 6,16.8166388 6,14 C6,11.1833612 8.72920151,9 12,9 C15.2707985,9 18,11.1833612 18,14 C18,16.8166388 15.2707985,19 12,19 Z M12,17 C14.252049,17 16,15.6016392 16,14 C16,12.3983608 14.252049,11 12,11 C9.747951,11 8,12.3983608 8,14 C8,15.6016392 9.747951,17 12,17 Z M13.5,15 C12.9477153,15 12.5,14.5522847 12.5,14 C12.5,13.4477153 12.9477153,13 13.5,13 C14.0522847,13 14.5,13.4477153 14.5,14 C14.5,14.5522847 14.0522847,15 13.5,15 Z M10.5,15 C9.94771525,15 9.5,14.5522847 9.5,14 C9.5,13.4477153 9.94771525,13 10.5,13 C11.0522847,13 11.5,13.4477153 11.5,14 C11.5,14.5522847 11.0522847,15 10.5,15 Z" id="shape"></path>
        </g>
    </g>
</svg>