<?xml version="1.0" encoding="UTF-8"?>
<svg width="24px" height="24px" viewBox="0 0 24 24" version="1.1" xmlns="http://www.w3.org/2000/svg" xmlns:xlink="http://www.w3.org/1999/xlink">
    <!-- Generator: Sketch 44.1 (41455) - http://www.bohemiancoding.com/sketch -->
    <title>Bold/SVG/pin</title>
    <desc>Created with Sketch.</desc>
    <defs></defs>
    <g id="Bold-Outline" stroke="none" stroke-width="1" fill="none" fill-rule="evenodd">
        <g id="pin" fill-rule="nonzero" fill="#000000">
            <path d="M8.86396103,16.8137085 L3.87867966,21.7989899 C3.48815536,22.1895142 2.85499039,22.1895142 2.46446609,21.7989899 C2.0739418,21.4084656 2.0739418,20.7753006 2.46446609,20.3847763 L7.44974747,15.3994949 L4.65685425,12.6066017 C3.87580567,11.8255531 3.87580567,10.5592232 4.65685425,9.77817459 C4.96284794,9.4721809 5.35983393,9.27368791 5.7882251,9.21248917 L8.42809042,8.83536555 L11.4922198,5.77123617 L11.8693434,3.13137085 C12.0255531,2.03790283 13.0386171,1.27810486 14.1320851,1.43431458 C14.5604763,1.49551331 14.9574623,1.69400631 15.263456,2 L22.3345238,9.07106781 C23.1155724,9.8521164 23.1155724,11.1184464 22.3345238,11.8994949 C22.0285301,12.2054886 21.6315441,12.4039816 21.2031529,12.4651804 L18.5632876,12.842304 L15.4991582,15.9064334 L15.1220346,18.5462987 C14.9658249,19.6397667 13.9527609,20.3995647 12.8592929,20.243355 C12.4309017,20.1821562 12.0339158,19.9836632 11.7279221,19.6776695 L8.86396103,16.8137085 Z M13.8492424,3.41421356 L13.4721188,6.05407888 C13.4109201,6.48247005 13.2124271,6.87945604 12.9064334,7.18544973 L9.84230398,10.2495791 C9.53631029,10.5555728 9.1393243,10.7540658 8.71093313,10.8152645 L6.07106781,11.1923882 L13.1421356,18.263456 L13.5192592,15.6235907 C13.580458,15.1951995 13.778951,14.7982135 14.0849447,14.4922198 L17.1490741,11.4280904 C17.4550677,11.1220967 17.8520537,10.9236037 18.2804449,10.862405 L20.9203102,10.4852814 L13.8492424,3.41421356 Z" id="shape"></path>
        </g>
    </g>
</svg>