<?xml version="1.0" encoding="UTF-8"?>
<svg width="24px" height="24px" viewBox="0 0 24 24" version="1.1" xmlns="http://www.w3.org/2000/svg" xmlns:xlink="http://www.w3.org/1999/xlink">
    <!-- Generator: Sketch 44.1 (41455) - http://www.bohemiancoding.com/sketch -->
    <title>Bold/SVG/pizza</title>
    <desc>Created with Sketch.</desc>
    <defs></defs>
    <g id="Bold-Outline" stroke="none" stroke-width="1" fill="none" fill-rule="evenodd">
        <g id="pizza" fill-rule="nonzero" fill="#000000">
            <path d="M13.6981485,6.0921699 L11.9999325,3.051029 L4.24176684,16.9442407 C4.00513672,17.3679945 4.10694886,17.9004806 4.48321735,18.2070472 C6.53290424,19.8770402 9.02507174,20.711877 11.9999325,20.711877 C14.9747932,20.711877 17.4669607,19.8770402 19.5166476,18.2070472 C19.8929161,17.9004806 19.9947282,17.3679945 19.7580981,16.9442407 L16.9803245,11.9698435 C16.2000452,12.7520633 15.0628382,13.1532367 13.8922314,12.9468271 C11.9886013,12.6111658 10.7175115,10.7958614 11.0531729,8.89223138 C11.3036427,7.47174633 12.3779948,6.403467 13.6981485,6.0921699 Z M14.7778587,8.02569948 C14.7720664,8.02478106 14.7662708,8.02381081 14.7604723,8.02278837 C13.9446308,7.87893351 13.1666432,8.42368628 13.0227884,9.23952773 C12.8789335,10.0553692 13.4236863,10.8333568 14.2395277,10.9772116 C14.9592435,11.1041169 15.6495001,10.695124 15.9009283,10.0368763 L14.7778587,8.02569948 Z M3.21992705,19.7575625 C2.09112157,18.8378624 1.78568518,17.2404042 2.49557553,15.9691428 L10.2537412,2.0759311 C10.434385,1.7524367 10.7013402,1.48548153 11.0248346,1.30483769 C11.9892294,0.766305989 13.2075921,1.11153627 13.7461238,2.0759311 L21.5042894,15.9691428 C22.2141798,17.2404042 21.9087434,18.8378625 20.7799379,19.7575625 C18.3627252,21.726999 15.4226525,22.711877 11.9999325,22.711877 C8.57721245,22.711877 5.63713976,21.726999 3.21992705,19.7575625 Z M16,18 C15.1715729,18 14.5,17.3284271 14.5,16.5 C14.5,15.6715729 15.1715729,15 16,15 C16.8284271,15 17.5,15.6715729 17.5,16.5 C17.5,17.3284271 16.8284271,18 16,18 Z M9.5,19 C7.84314575,19 6.5,17.6568542 6.5,16 C6.5,14.3431458 7.84314575,13 9.5,13 C11.1568542,13 12.5,14.3431458 12.5,16 C12.5,17.6568542 11.1568542,19 9.5,19 Z M9.5,17 C10.0522847,17 10.5,16.5522847 10.5,16 C10.5,15.4477153 10.0522847,15 9.5,15 C8.94771525,15 8.5,15.4477153 8.5,16 C8.5,16.5522847 8.94771525,17 9.5,17 Z" id="shape"></path>
        </g>
    </g>
</svg>