<?xml version="1.0" encoding="UTF-8"?>
<svg width="24px" height="24px" viewBox="0 0 24 24" version="1.1" xmlns="http://www.w3.org/2000/svg" xmlns:xlink="http://www.w3.org/1999/xlink">
    <!-- Generator: Sketch 44.1 (41455) - http://www.bohemiancoding.com/sketch -->
    <title>Bold/SVG/playlist</title>
    <desc>Created with Sketch.</desc>
    <defs></defs>
    <g id="Bold-Outline" stroke="none" stroke-width="1" fill="none" fill-rule="evenodd">
        <g id="playlist" fill-rule="nonzero" fill="#000000">
            <path d="M17,18.087046 L21.0096182,15.5432556 L17,12.9994653 L17,18.087046 Z M22.0810344,13.8544491 C23.0137364,14.4461759 23.2901515,15.6819697 22.6984247,16.6146718 C22.5406091,16.8634267 22.3297892,17.0742466 22.0810344,17.2320622 L18.0714161,19.7758525 C17.1387141,20.3675793 15.9029203,20.0911642 15.3111935,19.1584621 C15.1079313,18.8380725 15,18.4664732 15,18.087046 L15,12.9994653 C15,11.8948958 15.8954305,10.9994653 17,10.9994653 C17.3794272,10.9994653 17.7510266,11.1073966 18.0714161,11.3106588 L22.0810344,13.8544491 Z M3,7 C2.44771525,7 2,6.55228475 2,6 C2,5.44771525 2.44771525,5 3,5 L17,5 C17.5522847,5 18,5.44771525 18,6 C18,6.55228475 17.5522847,7 17,7 L3,7 Z M3,12 C2.44771525,12 2,11.5522847 2,11 C2,10.4477153 2.44771525,10 3,10 L12,10 C12.5522847,10 13,10.4477153 13,11 C13,11.5522847 12.5522847,12 12,12 L3,12 Z M3,17 C2.44771525,17 2,16.5522847 2,16 C2,15.4477153 2.44771525,15 3,15 L11,15 C11.5522847,15 12,15.4477153 12,16 C12,16.5522847 11.5522847,17 11,17 L3,17 Z" id="shape"></path>
        </g>
    </g>
</svg>