<?xml version="1.0" encoding="UTF-8"?>
<svg width="24px" height="24px" viewBox="0 0 24 24" version="1.1" xmlns="http://www.w3.org/2000/svg" xmlns:xlink="http://www.w3.org/1999/xlink">
    <!-- Generator: Sketch 44.1 (41455) - http://www.bohemiancoding.com/sketch -->
    <title>Bold/SVG/play</title>
    <desc>Created with Sketch.</desc>
    <defs></defs>
    <g id="Bold-Outline" stroke="none" stroke-width="1" fill="none" fill-rule="evenodd">
        <g id="play" fill-rule="nonzero" fill="#000000">
            <path d="M9.16160573,4.0683838 C8.82257204,3.82649064 8.41648066,3.69647229 8,3.69647229 C6.8954305,3.69647229 6,4.59190279 6,5.69647229 L6,18.3032565 C6,18.7197372 6.13001835,19.1258286 6.37191151,19.4648623 C7.01344864,20.3640307 8.26243728,20.5728822 9.16160573,19.931345 L17.9963419,13.6279529 C18.1765861,13.4993526 18.3342244,13.3417143 18.4628247,13.1614701 C19.1043618,12.2623017 18.8955104,11.0133131 17.9963419,10.3717759 L9.16160573,4.0683838 Z M10.3232115,2.44029531 L19.1579477,8.74368743 C20.9562846,10.0267617 21.3739874,12.524739 20.0909132,14.3230759 C19.8337126,14.6835642 19.518436,14.9988408 19.1579477,15.2560414 L10.3232115,21.5594335 C8.52487456,22.8425078 6.02689727,22.4248049 4.74382302,20.626468 C4.26003669,19.9484006 4,19.1362179 4,18.3032565 L4,5.69647229 C4,3.4873333 5.790861,1.69647229 8,1.69647229 C8.83296133,1.69647229 9.64514408,1.95650899 10.3232115,2.44029531 Z" id="shape"></path>
        </g>
    </g>
</svg>