<?xml version="1.0" encoding="UTF-8"?>
<svg width="24px" height="24px" viewBox="0 0 24 24" version="1.1" xmlns="http://www.w3.org/2000/svg" xmlns:xlink="http://www.w3.org/1999/xlink">
    <!-- Generator: Sketch 44.1 (41455) - http://www.bohemiancoding.com/sketch -->
    <title>Bold/SVG/position</title>
    <desc>Created with Sketch.</desc>
    <defs></defs>
    <g id="Bold-Outline" stroke="none" stroke-width="1" fill="none" fill-rule="evenodd">
        <g id="position" fill-rule="nonzero" fill="#000000">
            <path d="M13.4000476,18.0448479 C12.6223489,18.8071959 11.3776509,18.8071958 10.5999524,18.0448479 C6.89330719,14.4113668 5,11.0781566 5,8 C5,4.13400675 8.13400675,1 12,1 C15.8659932,1 19,4.13400675 19,8 C19,11.0781566 17.1066928,14.4113669 13.4000476,18.0448479 Z M17,8 C17,5.23857625 14.7614237,3 12,3 C9.23857625,3 7,5.23857625 7,8 C7,10.4356655 8.64001027,13.3229408 12,16.6166089 C15.3599897,13.3229408 17,10.4356655 17,8 Z M12,10.5 C10.3431458,10.5 9,9.15685425 9,7.5 C9,5.84314575 10.3431458,4.5 12,4.5 C13.6568542,4.5 15,5.84314575 15,7.5 C15,9.15685425 13.6568542,10.5 12,10.5 Z M12,8.5 C12.5522847,8.5 13,8.05228475 13,7.5 C13,6.94771525 12.5522847,6.5 12,6.5 C11.4477153,6.5 11,6.94771525 11,7.5 C11,8.05228475 11.4477153,8.5 12,8.5 Z M5.99202231,15.9423505 C6.50914263,15.7484304 7.08555481,16.0104359 7.27947493,16.5275562 C7.47339505,17.0446765 7.21138952,17.6210887 6.69426919,17.8150088 C5.55270838,18.2430941 5,18.7331252 5,19 C5,19.8370203 8.10127922,21 12,21 C15.8987208,21 19,19.8370203 19,19 C19,18.7331252 18.4472916,18.2430941 17.3057308,17.8150088 C16.7886105,17.6210887 16.5266049,17.0446765 16.7205251,16.5275562 C16.9144452,16.0104359 17.4908574,15.7484304 18.0079777,15.9423505 C19.8476338,16.6322215 21,17.6539089 21,19 C21,21.4766882 16.9378352,23 12,23 C7.06216478,23 3,21.4766882 3,19 C3,17.6539089 4.15236618,16.6322215 5.99202231,15.9423505 Z" id="Combined-Shape"></path>
        </g>
    </g>
</svg>