<?xml version="1.0" encoding="UTF-8"?>
<svg width="24px" height="24px" viewBox="0 0 24 24" version="1.1" xmlns="http://www.w3.org/2000/svg" xmlns:xlink="http://www.w3.org/1999/xlink">
    <!-- Generator: Sketch 44.1 (41455) - http://www.bohemiancoding.com/sketch -->
    <title>Bold/SVG/post</title>
    <desc>Created with Sketch.</desc>
    <defs></defs>
    <g id="Bold-Outline" stroke="none" stroke-width="1" fill="none" fill-rule="evenodd">
        <g id="post" fill-rule="nonzero" fill="#000000">
            <path d="M6,2 L18,2 C20.209139,2 22,3.790861 22,6 L22,18 C22,20.209139 20.209139,22 18,22 L6,22 C3.790861,22 2,20.209139 2,18 L2,6 C2,3.790861 3.790861,2 6,2 Z M6,4 C4.8954305,4 4,4.8954305 4,6 L4,18 C4,19.1045695 4.8954305,20 6,20 L18,20 C19.1045695,20 20,19.1045695 20,18 L20,6 C20,4.8954305 19.1045695,4 18,4 L6,4 Z M7,8.5 C6.44771525,8.5 6,8.05228475 6,7.5 C6,6.94771525 6.44771525,6.5 7,6.5 L17,6.5 C17.5522847,6.5 18,6.94771525 18,7.5 C18,8.05228475 17.5522847,8.5 17,8.5 L7,8.5 Z M7,13 C6.44771525,13 6,12.5522847 6,12 C6,11.4477153 6.44771525,11 7,11 L17,11 C17.5522847,11 18,11.4477153 18,12 C18,12.5522847 17.5522847,13 17,13 L7,13 Z M7,17.5 C6.44771525,17.5 6,17.0522847 6,16.5 C6,15.9477153 6.44771525,15.5 7,15.5 L13,15.5 C13.5522847,15.5 14,15.9477153 14,16.5 C14,17.0522847 13.5522847,17.5 13,17.5 L7,17.5 Z" id="shape"></path>
        </g>
    </g>
</svg>