<?xml version="1.0" encoding="UTF-8"?>
<svg width="24px" height="24px" viewBox="0 0 24 24" version="1.1" xmlns="http://www.w3.org/2000/svg" xmlns:xlink="http://www.w3.org/1999/xlink">
    <!-- Generator: Sketch 44.1 (41455) - http://www.bohemiancoding.com/sketch -->
    <title>Bold/SVG/scissor</title>
    <desc>Created with Sketch.</desc>
    <defs></defs>
    <g id="Bold-Outline" stroke="none" stroke-width="1" fill="none" fill-rule="evenodd">
        <g id="scissor" fill-rule="nonzero" fill="#000000">
            <path d="M12.4479613,13.1959372 L10.3304051,15.1370304 C10.7549706,15.8237951 11,16.6332827 11,17.5 C11,19.9852814 8.98528137,22 6.5,22 C4.01471863,22 2,19.9852814 2,17.5 C2,15.0147186 4.01471863,13 6.5,13 C7.39392058,13 8.2269626,13.260652 8.92727038,13.7101004 L11.0965045,11.7216358 L9.43608755,9.91029025 C8.64799977,10.5894087 7.62194925,11 6.5,11 C4.01471863,11 2,8.98528137 2,6.5 C2,4.01471863 4.01471863,2 6.5,2 C8.98528137,2 11,4.01471863 11,6.5 C11,7.12637408 10.8720233,7.7228576 10.640791,8.26472959 L12.5708128,10.3701865 L20.3242754,3.26284586 C20.7313944,2.88965345 21.3639617,2.91715638 21.7371541,3.32427537 C22.1103465,3.73139436 22.0828436,4.36396173 21.6757246,4.73715414 L13.9222695,11.844488 L21.2370897,19.8242106 C21.6102842,20.2313277 21.5827844,20.8638952 21.1756673,21.2370897 C20.7685502,21.6102842 20.1359827,21.5827844 19.7627882,21.1756673 L12.4479613,13.1959372 Z M6.5,9 C7.88071187,9 9,7.88071187 9,6.5 C9,5.11928813 7.88071187,4 6.5,4 C5.11928813,4 4,5.11928813 4,6.5 C4,7.88071187 5.11928813,9 6.5,9 Z M6.5,20 C7.88071187,20 9,18.8807119 9,17.5 C9,16.1192881 7.88071187,15 6.5,15 C5.11928813,15 4,16.1192881 4,17.5 C4,18.8807119 5.11928813,20 6.5,20 Z" id="shape"></path>
        </g>
    </g>
</svg>