<?xml version="1.0" encoding="UTF-8"?>
<svg width="24px" height="24px" viewBox="0 0 24 24" version="1.1" xmlns="http://www.w3.org/2000/svg" xmlns:xlink="http://www.w3.org/1999/xlink">
    <!-- Generator: Sketch 44.1 (41455) - http://www.bohemiancoding.com/sketch -->
    <title>Bold/SVG/send</title>
    <desc>Created with Sketch.</desc>
    <defs></defs>
    <g id="Bold-Outline" stroke="none" stroke-width="1" fill="none" fill-rule="evenodd">
        <g id="send" fill-rule="nonzero" fill="#000000">
            <path d="M15.4830988,19.9266566 L20.2700908,19.9266566 L11.9264545,4.07374762 L3.58281819,19.9266566 L8.36981017,19.9266566 L9.98732713,13.5212894 C10.1673367,12.8084516 10.7239381,12.2518502 11.4367759,12.0718407 C12.5077263,11.8013986 13.5951398,12.4503389 13.8655818,13.5212894 L15.4830988,19.9266566 Z M13.6962909,3.14225475 L22.0399272,18.9951637 C22.5543765,19.9726174 22.1790373,21.1820437 21.2015836,21.696493 C20.9143622,21.8476622 20.5946648,21.9266566 20.2700908,21.9266566 L14.7042323,21.9266566 C14.24625,21.9266566 13.8468006,21.6155389 13.7346686,21.1714959 L11.9264545,14.010968 L10.1182404,21.1714959 C10.0061083,21.6155389 9.60665898,21.9266566 9.14867669,21.9266566 L3.58281819,21.9266566 C2.47824869,21.9266566 1.58281819,21.0312261 1.58281819,19.9266566 C1.58281819,19.6020826 1.66181256,19.2823851 1.81298174,18.9951637 L10.156618,3.14225475 C10.6710673,2.16480107 11.8804937,1.78946187 12.8579473,2.30391117 C13.2157041,2.49220423 13.5079979,2.78449794 13.6962909,3.14225475 Z" id="shape" transform="translate(11.926657, 12.000000) rotate(-270.000000) translate(-11.926657, -12.000000) "></path>
        </g>
    </g>
</svg>