<?xml version="1.0" encoding="UTF-8"?>
<svg width="24px" height="24px" viewBox="0 0 24 24" version="1.1" xmlns="http://www.w3.org/2000/svg" xmlns:xlink="http://www.w3.org/1999/xlink">
    <!-- Generator: Sketch 44.1 (41455) - http://www.bohemiancoding.com/sketch -->
    <title>Bold/SVG/setting</title>
    <desc>Created with Sketch.</desc>
    <defs></defs>
    <g id="Bold-Outline" stroke="none" stroke-width="1" fill="none" fill-rule="evenodd">
        <g id="setting" fill-rule="nonzero" fill="#000000">
            <path d="M7.51430791,20.6674757 L6.56611938,20.6995198 C4.82151574,20.7584789 3.35943928,19.391994 3.3004802,17.6473903 C3.29807569,17.5762407 3.29807569,17.5050302 3.3004802,17.4338806 L3.33252434,16.4856921 C3.3520272,15.908601 3.12116149,15.3512419 2.69930589,14.9569675 L2.00617672,14.3091556 C0.730865291,13.1172249 0.663271854,11.11713 1.85520255,9.84181856 C1.90381267,9.78980795 1.95416611,9.73945451 2.00617672,9.69084439 L2.69930589,9.04303248 C3.12116149,8.64875808 3.3520272,8.09139896 3.33252434,7.51430791 L3.3004802,6.56611938 C3.24152112,4.82151574 4.60800603,3.35943928 6.35260966,3.3004802 C6.42375926,3.29807569 6.49496978,3.29807569 6.56611938,3.3004802 L7.51430791,3.33252434 C8.09139896,3.3520272 8.64875808,3.12116149 9.04303248,2.69930589 L9.69084439,2.00617672 C10.8827751,0.730865291 12.88287,0.663271854 14.1581814,1.85520255 C14.210192,1.90381267 14.2605455,1.95416611 14.3091556,2.00617672 L14.9569675,2.69930589 C15.3512419,3.12116149 15.908601,3.3520272 16.4856921,3.33252434 L17.4338806,3.3004802 C19.1784843,3.24152112 20.6405607,4.60800603 20.6995198,6.35260966 C20.7019243,6.42375926 20.7019243,6.49496978 20.6995198,6.56611938 L20.6674757,7.51430791 C20.6479728,8.09139896 20.8788385,8.64875808 21.3006941,9.04303248 L21.9938233,9.69084439 C23.2691347,10.8827751 23.3367281,12.88287 22.1447974,14.1581814 C22.0961873,14.210192 22.0458339,14.2605455 21.9938233,14.3091556 L21.3006941,14.9569675 C20.8788385,15.3512419 20.6479728,15.908601 20.6674757,16.4856921 L20.6995198,17.4338806 C20.7584789,19.1784843 19.391994,20.6405607 17.6473903,20.6995198 C17.5762407,20.7019243 17.5050302,20.7019243 17.4338806,20.6995198 L16.4856921,20.6674757 C15.908601,20.6479728 15.3512419,20.8788385 14.9569675,21.3006941 L14.3091556,21.9938233 C13.1172249,23.2691347 11.11713,23.3367281 9.84181856,22.1447974 C9.78980795,22.0961873 9.73945451,22.0458339 9.69084439,21.9938233 L9.04303248,21.3006941 C8.64875808,20.8788385 8.09139896,20.6479728 7.51430791,20.6674757 Z M7.44675625,18.6686168 C8.60093835,18.6296111 9.71565659,19.0913425 10.5042054,19.9350537 L11.1520173,20.6281829 C11.1698682,20.6472825 11.1883593,20.6657736 11.207459,20.6836245 C11.6757869,21.1213329 12.4102744,21.0965108 12.8479827,20.6281829 L13.4957946,19.9350537 C14.2843434,19.0913425 15.3990617,18.6296111 16.5532438,18.6686168 L17.5014323,18.7006609 C17.5275603,18.7015439 17.5537107,18.7015439 17.5798387,18.7006609 C18.220503,18.6790096 18.7223123,18.1420967 18.7006609,17.5014323 L18.6686168,16.5532438 C18.6296111,15.3990617 19.0913425,14.2843434 19.9350537,13.4957946 L20.6281829,12.8479827 C20.6472825,12.8301318 20.6657736,12.8116407 20.6836245,12.792541 C21.1213329,12.3242131 21.0965108,11.5897256 20.6281829,11.1520173 L19.9350537,10.5042054 C19.0913425,9.71565659 18.6296111,8.60093835 18.6686168,7.44675625 L18.7006609,6.49856771 C18.7015439,6.47243971 18.7015439,6.44628933 18.7006609,6.42016133 C18.6790096,5.77949696 18.1420967,5.27768774 17.5014323,5.29933907 L16.5532438,5.33138321 C15.3990617,5.37038892 14.2843434,4.90865751 13.4957946,4.06494631 L12.8479827,3.37181714 C12.8301318,3.35271748 12.8116407,3.33422637 12.792541,3.31637545 C12.3242131,2.87866713 11.5897256,2.90348922 11.1520173,3.37181714 L10.5042054,4.06494631 C9.71565659,4.90865751 8.60093835,5.37038892 7.44675625,5.33138321 L6.49856771,5.29933907 C6.47243971,5.29845607 6.44628933,5.29845607 6.42016133,5.29933907 C5.77949696,5.32099039 5.27768774,5.85790335 5.29933907,6.49856771 L5.33138321,7.44675625 C5.37038892,8.60093835 4.90865751,9.71565659 4.06494631,10.5042054 L3.37181714,11.1520173 C3.35271748,11.1698682 3.33422637,11.1883593 3.31637545,11.207459 C2.87866713,11.6757869 2.90348922,12.4102744 3.37181714,12.8479827 L4.06494631,13.4957946 C4.90865751,14.2843434 5.37038892,15.3990617 5.33138321,16.5532438 L5.29933907,17.5014323 C5.29845607,17.5275603 5.29845607,17.5537107 5.29933907,17.5798387 C5.32099039,18.220503 5.85790335,18.7223123 6.49856771,18.7006609 L7.44675625,18.6686168 Z M12,16.5 C9.51471863,16.5 7.5,14.4852814 7.5,12 C7.5,9.51471863 9.51471863,7.5 12,7.5 C14.4852814,7.5 16.5,9.51471863 16.5,12 C16.5,14.4852814 14.4852814,16.5 12,16.5 Z M12,14.5 C13.3807119,14.5 14.5,13.3807119 14.5,12 C14.5,10.6192881 13.3807119,9.5 12,9.5 C10.6192881,9.5 9.5,10.6192881 9.5,12 C9.5,13.3807119 10.6192881,14.5 12,14.5 Z" id="shape"></path>
        </g>
    </g>
</svg>