<?xml version="1.0" encoding="UTF-8"?>
<svg width="24px" height="24px" viewBox="0 0 24 24" version="1.1" xmlns="http://www.w3.org/2000/svg" xmlns:xlink="http://www.w3.org/1999/xlink">
    <!-- Generator: Sketch 44.1 (41455) - http://www.bohemiancoding.com/sketch -->
    <title>Bold/SVG/share-2</title>
    <desc>Created with Sketch.</desc>
    <defs></defs>
    <g id="Bold-Outline" stroke="none" stroke-width="1" fill="none" fill-rule="evenodd">
        <g id="share-2" fill-rule="nonzero" fill="#000000">
            <path d="M14.2586483,13.4180773 C14.0915,12.9773237 14,12.4993473 14,12 C14,11.6096421 14.0559167,11.2323443 14.1601773,10.8756793 L9.709691,7.94240426 C8.99708136,8.59898838 8.04537132,9 7,9 C4.790861,9 3,7.209139 3,5 C3,2.790861 4.790861,1 7,1 C9.209139,1 11,2.790861 11,5 C11,5.44146088 10.9284845,5.86621842 10.7964068,6.26331929 L15.1864599,9.15676335 C15.9091106,8.4416136 16.9029831,8 18,8 C20.209139,8 22,9.790861 22,12 C22,14.209139 20.209139,16 18,16 C17.015166,16 16.1134595,15.6440886 15.4164876,15.0538729 L10.8389773,17.8727916 C10.943781,18.2303076 11,18.6085885 11,19 C11,21.209139 9.209139,23 7,23 C4.790861,23 3,21.209139 3,19 C3,16.790861 4.790861,15 7,15 C8.09660619,15 9.09014522,15.441283 9.81272835,16.1559602 L14.2586483,13.4180773 Z M7,7 C8.1045695,7 9,6.1045695 9,5 C9,3.8954305 8.1045695,3 7,3 C5.8954305,3 5,3.8954305 5,5 C5,6.1045695 5.8954305,7 7,7 Z M18,14 C19.1045695,14 20,13.1045695 20,12 C20,10.8954305 19.1045695,10 18,10 C16.8954305,10 16,10.8954305 16,12 C16,13.1045695 16.8954305,14 18,14 Z M7,21 C8.1045695,21 9,20.1045695 9,19 C9,17.8954305 8.1045695,17 7,17 C5.8954305,17 5,17.8954305 5,19 C5,20.1045695 5.8954305,21 7,21 Z" id="shape"></path>
        </g>
    </g>
</svg>