<?xml version="1.0" encoding="UTF-8"?>
<svg width="24px" height="24px" viewBox="0 0 24 24" version="1.1" xmlns="http://www.w3.org/2000/svg" xmlns:xlink="http://www.w3.org/1999/xlink">
    <!-- Generator: Sketch 44.1 (41455) - http://www.bohemiancoding.com/sketch -->
    <title>Bold/SVG/shopping-cart</title>
    <desc>Created with Sketch.</desc>
    <defs></defs>
    <g id="Bold-Outline" stroke="none" stroke-width="1" fill="none" fill-rule="evenodd">
        <g id="shopping-cart" fill-rule="nonzero" fill="#000000">
            <path d="M19.5927589,8 C19.7109862,8 19.8282769,8.02096528 19.9391833,8.06192211 C20.4572694,8.25324702 20.7221617,8.82833828 20.5308368,9.3464244 L18.3718007,15.1928488 C18.0817188,15.9783576 17.3330048,16.5 16.4956449,16.5 L7.5020277,16.5 C6.3974582,16.5 5.5020277,15.6045695 5.5020277,14.5 L5.5020277,8 L19.5927589,8 Z M3.5020277,7.06420081 L3.5020277,14.5 C3.5020277,16.709139 5.2928887,18.5 7.5020277,18.5 L16.4956449,18.5 C18.1703646,18.5 19.6677927,17.4567151 20.2479565,15.8856976 L22.4069926,10.0392732 C22.9809673,8.48501485 22.1862905,6.75974105 20.6320321,6.18576632 C20.2993128,6.06289583 19.9474409,6 19.5927589,6 L5.5,6 L5.5,3 C5.5,2.44771525 5.05228475,2 4.5,2 L2.5,2 C1.94771525,2 1.5,2.44771525 1.5,3 C1.5,3.55228475 1.94771525,4 2.5,4 L3.5,4 L3.5,7 C3.5,7.02156654 3.50068271,7.04297361 3.5020277,7.06420081 Z M18,19.5 C18.8284271,19.5 19.5,20.1715729 19.5,21 C19.5,21.8284271 18.8284271,22.5 18,22.5 C17.1715729,22.5 16.5,21.8284271 16.5,21 C16.5,20.1715729 17.1715729,19.5 18,19.5 Z M6,19.5 C6.82842712,19.5 7.5,20.1715729 7.5,21 C7.5,21.8284271 6.82842712,22.5 6,22.5 C5.17157288,22.5 4.5,21.8284271 4.5,21 C4.5,20.1715729 5.17157288,19.5 6,19.5 Z" id="shape"></path>
        </g>
    </g>
</svg>