<?xml version="1.0" encoding="UTF-8"?>
<svg width="24px" height="24px" viewBox="0 0 24 24" version="1.1" xmlns="http://www.w3.org/2000/svg" xmlns:xlink="http://www.w3.org/1999/xlink">
    <!-- Generator: Sketch 44.1 (41455) - http://www.bohemiancoding.com/sketch -->
    <title>Bold/SVG/skull</title>
    <desc>Created with Sketch.</desc>
    <defs></defs>
    <g id="Bold-Outline" stroke="none" stroke-width="1" fill="none" fill-rule="evenodd">
        <g id="skull" fill-rule="nonzero" fill="#000000">
            <path d="M13,21 L13,19 C13,18.4477153 13.4477153,18 14,18 C14.5522847,18 15,18.4477153 15,19 L15,21 C16.1045695,21 17,20.1045695 17,19 L17,17 C17,16.4477153 17.4477153,16 18,16 C19.1045695,16 20,15.1045695 20,14 L20,9.5 C20,5.91014913 17.0898509,3 13.5,3 L10.4997559,3 C6.90990499,3 3.99975586,5.91014913 3.99975586,9.5 L3.99975586,13.9997559 C3.99975586,15.1044602 4.89529567,16 6,16 C6.55228475,16 7,16.4477153 7,17 L7,19 C7,20.1045695 7.8954305,21 9,21 L9,19 C9,18.4477153 9.44771525,18 10,18 C10.5522847,18 11,18.4477153 11,19 L11,21 L13,21 Z M5,17.8739905 C3.27463652,17.4299419 1.99975586,15.863731 1.99975586,13.9997559 L1.99975586,9.5 C1.99975586,4.80557963 5.80533549,1 10.4997559,1 L13.5,1 C18.1944204,1 22,4.80557963 22,9.5 L22,14 C22,15.8638394 20.7252272,17.4299397 19,17.8739825 L19,19 C19,21.209139 17.209139,23 15,23 L9,23 C6.790861,23 5,21.209139 5,19 L5,17.8739905 Z M8.5,14 C6.84314575,14 5.5,12.6568542 5.5,11 C5.5,9.34314575 6.84314575,8 8.5,8 C10.1568542,8 11.5,9.34314575 11.5,11 C11.5,12.6568542 10.1568542,14 8.5,14 Z M8.5,12 C9.05228475,12 9.5,11.5522847 9.5,11 C9.5,10.4477153 9.05228475,10 8.5,10 C7.94771525,10 7.5,10.4477153 7.5,11 C7.5,11.5522847 7.94771525,12 8.5,12 Z M15.5,14 C13.8431458,14 12.5,12.6568542 12.5,11 C12.5,9.34314575 13.8431458,8 15.5,8 C17.1568542,8 18.5,9.34314575 18.5,11 C18.5,12.6568542 17.1568542,14 15.5,14 Z M15.5,12 C16.0522847,12 16.5,11.5522847 16.5,11 C16.5,10.4477153 16.0522847,10 15.5,10 C14.9477153,10 14.5,10.4477153 14.5,11 C14.5,11.5522847 14.9477153,12 15.5,12 Z" id="shape"></path>
        </g>
    </g>
</svg>