<?xml version="1.0" encoding="UTF-8"?>
<svg width="24px" height="24px" viewBox="0 0 24 24" version="1.1" xmlns="http://www.w3.org/2000/svg" xmlns:xlink="http://www.w3.org/1999/xlink">
    <!-- Generator: Sketch 44.1 (41455) - http://www.bohemiancoding.com/sketch -->
    <title>Bold/SVG/sox</title>
    <desc>Created with Sketch.</desc>
    <defs></defs>
    <g id="Bold-Outline" stroke="none" stroke-width="1" fill="none" fill-rule="evenodd">
        <g id="sox" fill-rule="nonzero" fill="#000000">
            <path d="M4,8 L4,18 C4,19.1045695 4.8954305,20 6,20 L17,20 C18.6568542,20 20,18.6568542 20,17 C20,15.3431458 18.6568542,14 17,14 L12,14 C11.4477153,14 11,13.5522847 11,13 L11,8 L4,8 Z M4,6 L11,6 L11,5 C11,4.44771525 10.5522847,4 10,4 L5,4 C4.44771525,4 4,4.44771525 4,5 L4,6 Z M13,12 L17,12 C19.7614237,12 22,14.2385763 22,17 C22,19.7614237 19.7614237,22 17,22 L6,22 C3.790861,22 2,20.209139 2,18 L2,5 C2,3.34314575 3.34314575,2 5,2 L10,2 C11.6568542,2 13,3.34314575 13,5 L13,12 Z" id="shape"></path>
        </g>
    </g>
</svg>