<?xml version="1.0" encoding="UTF-8"?>
<svg width="24px" height="24px" viewBox="0 0 24 24" version="1.1" xmlns="http://www.w3.org/2000/svg" xmlns:xlink="http://www.w3.org/1999/xlink">
    <!-- Generator: Sketch 44.1 (41455) - http://www.bohemiancoding.com/sketch -->
    <title>Bold/SVG/speaker</title>
    <desc>Created with Sketch.</desc>
    <defs></defs>
    <g id="Bold-Outline" stroke="none" stroke-width="1" fill="none" fill-rule="evenodd">
        <g id="speaker" fill-rule="nonzero" fill="#000000">
            <path d="M7,1 L17,1 C19.209139,1 21,2.790861 21,5 L21,19 C21,21.209139 19.209139,23 17,23 L7,23 C4.790861,23 3,21.209139 3,19 L3,5 C3,2.790861 4.790861,1 7,1 Z M7,3 C5.8954305,3 5,3.8954305 5,5 L5,19 C5,20.1045695 5.8954305,21 7,21 L17,21 C18.1045695,21 19,20.1045695 19,19 L19,5 C19,3.8954305 18.1045695,3 17,3 L7,3 Z M12,15.5 C8.96243388,15.5 6.5,13.0375661 6.5,10 C6.5,6.96243388 8.96243388,4.5 12,4.5 C15.0375661,4.5 17.5,6.96243388 17.5,10 C17.5,13.0375661 15.0375661,15.5 12,15.5 Z M12,13.5 C13.9329966,13.5 15.5,11.9329966 15.5,10 C15.5,8.06700338 13.9329966,6.5 12,6.5 C10.0670034,6.5 8.5,8.06700338 8.5,10 C8.5,11.9329966 10.0670034,13.5 12,13.5 Z M12,11 C11.4477153,11 11,10.5522847 11,10 C11,9.44771525 11.4477153,9 12,9 C12.5522847,9 13,9.44771525 13,10 C13,10.5522847 12.5522847,11 12,11 Z" id="shape"></path>
        </g>
    </g>
</svg>