<?xml version="1.0" encoding="UTF-8"?>
<svg width="24px" height="24px" viewBox="0 0 24 24" version="1.1" xmlns="http://www.w3.org/2000/svg" xmlns:xlink="http://www.w3.org/1999/xlink">
    <!-- Generator: Sketch 44.1 (41455) - http://www.bohemiancoding.com/sketch -->
    <title>Bold/SVG/star-helf</title>
    <desc>Created with Sketch.</desc>
    <defs></defs>
    <g id="Bold-Outline" stroke="none" stroke-width="1" fill="none" fill-rule="evenodd">
        <g id="star-helf" fill-rule="nonzero" fill="#000000">
            <path d="M7.55829902,6.53356013 L9.45204297,2.69641578 C9.89585028,1.79716394 10.9846148,1.42795321 11.8838667,1.87176052 C12.5036435,2.17763865 12.8960224,2.80885262 12.8960224,3.5 L12.8960224,18.7539241 C12.8960224,19.1253679 12.6901401,19.4662075 12.3613635,19.6390555 L8.60099214,21.6159997 C7.13445838,22.3870022 5.32057691,21.8231626 4.54957449,20.3566289 C4.24255728,19.7726474 4.13661325,19.1037432 4.24814378,18.4534703 L4.87743856,14.7844002 L2.21170311,12.1859504 C1.02525238,11.0294467 1.00097546,9.13010695 2.1574791,7.94365621 C2.61800491,7.47120531 3.22143214,7.16374378 3.87434324,7.06887024 L7.55829902,6.53356013 Z M10.8960224,18.1498795 L10.8960224,4.28969689 L9.11910061,7.89013361 C8.97343859,8.18527708 8.69187301,8.38984646 8.36616285,8.43717491 L4.16193987,9.04808427 C3.94430284,9.07970878 3.74316043,9.18219596 3.58965182,9.33967959 C3.20415061,9.73516317 3.21224292,10.3682764 3.6077265,10.7537776 L6.64993082,13.719194 C6.88561691,13.9489311 6.99316539,14.2799313 6.93752745,14.6043254 L6.21936043,18.7915604 C6.18218359,19.008318 6.21749826,19.2312861 6.31983733,19.4259466 C6.57683814,19.9147912 7.1814653,20.1027377 7.67030988,19.8457369 L10.8960224,18.1498795 Z" id="shape"></path>
        </g>
    </g>
</svg>