<?xml version="1.0" encoding="UTF-8"?>
<svg width="24px" height="24px" viewBox="0 0 24 24" version="1.1" xmlns="http://www.w3.org/2000/svg" xmlns:xlink="http://www.w3.org/1999/xlink">
    <!-- Generator: Sketch 44.1 (41455) - http://www.bohemiancoding.com/sketch -->
    <title>Bold/SVG/star</title>
    <desc>Created with Sketch.</desc>
    <defs></defs>
    <g id="Bold-Outline" stroke="none" stroke-width="1" fill="none" fill-rule="evenodd">
        <g id="star" fill-rule="nonzero" fill="#000000">
            <path d="M12,19.8797757 L8.70496978,21.6120756 C7.23843602,22.3830781 5.42455455,21.8192385 4.65355213,20.3527047 C4.34653492,19.7687233 4.2405909,19.0998191 4.35212143,18.4495462 L4.9814162,14.7804761 L2.31568076,12.1820263 C1.12923002,11.0255226 1.1049531,9.12618283 2.26145674,7.9397321 C2.72198255,7.4672812 3.32540979,7.15981966 3.97832088,7.06494613 L7.66227666,6.52963602 L9.30979177,3.19140579 C10.0430586,1.70564481 11.8419362,1.09562781 13.3276971,1.82889469 C13.9193349,2.12088541 14.3982175,2.59976797 14.6902082,3.19140579 L16.3377233,6.52963602 L20.0216791,7.06494613 C21.6613137,7.30319898 22.7973581,8.82552753 22.5591052,10.4651621 C22.4642317,11.1180732 22.1567701,11.7215004 21.6843192,12.1820263 L19.0185838,14.7804761 L19.6478786,18.4495462 C19.9279616,20.0825555 18.8311981,21.6334233 17.1981888,21.9135063 C16.5479159,22.0250369 15.8790117,21.9190928 15.2950302,21.6120756 L12,19.8797757 Z M11.5346589,17.8648686 C11.8259829,17.7117105 12.1740171,17.7117105 12.4653411,17.8648686 L16.2257125,19.8418128 C16.420373,19.9441519 16.643341,19.9794665 16.8600987,19.9422897 C17.4044351,19.8489287 17.7700229,19.3319728 17.6766619,18.7876363 L16.9584949,14.6004013 C16.902857,14.2760072 17.0104054,13.945007 17.2460915,13.7152699 L20.2882959,10.7498535 C20.4457795,10.5963449 20.5482667,10.3952025 20.5798912,10.1775655 C20.6593088,9.63102063 20.2806273,9.12357778 19.7340825,9.04416016 L15.5298595,8.4332508 C15.2041493,8.38592234 14.9225838,8.18135297 14.7769218,7.8862095 L12.8967361,4.07653721 C12.7994058,3.87932461 12.6397783,3.71969709 12.4425657,3.62236685 C11.9473121,3.37794455 11.3476862,3.58128355 11.1032639,4.07653721 L9.22307825,7.8862095 C9.07741624,8.18135297 8.79585065,8.38592234 8.47014049,8.4332508 L4.26591751,9.04416016 C4.04828048,9.07578467 3.84713807,9.17827185 3.69362947,9.33575548 C3.30812825,9.73123906 3.31622056,10.3643523 3.71170414,10.7498535 L6.75390846,13.7152699 C6.98959455,13.945007 7.09714303,14.2760072 7.0415051,14.6004013 L6.32333807,18.7876363 C6.28616123,19.0043939 6.32147591,19.227362 6.42381498,19.4220225 C6.68081578,19.9108671 7.28544294,20.0988136 7.77428753,19.8418128 L11.5346589,17.8648686 Z" id="shape"></path>
        </g>
    </g>
</svg>