<?xml version="1.0" encoding="UTF-8"?>
<svg width="24px" height="24px" viewBox="0 0 24 24" version="1.1" xmlns="http://www.w3.org/2000/svg" xmlns:xlink="http://www.w3.org/1999/xlink">
    <!-- Generator: Sketch 44.1 (41455) - http://www.bohemiancoding.com/sketch -->
    <title>Bold/SVG/store</title>
    <desc>Created with Sketch.</desc>
    <defs></defs>
    <g id="Bold-Outline" stroke="none" stroke-width="1" fill="none" fill-rule="evenodd">
        <g id="store" fill-rule="nonzero" fill="#000000">
            <path d="M19.7779042,4.81644654 C19.4904939,4.02606817 18.7393303,3.49993267 17.8983174,3.49993267 L6.10088097,3.49993267 C5.25986809,3.49993267 4.50870444,4.02606817 4.22129412,4.81644654 L2.59097833,9.29981498 C2.62891237,9.26903765 2.66760846,9.23917847 2.70703392,9.21026646 C4.04312947,8.23046307 5.9205365,8.51929492 6.9003399,9.85539046 L7.52652751,10.7092827 C7.58682549,10.7915072 7.65934433,10.864026 7.74156884,10.924324 C8.18693402,11.2509251 8.81273637,11.1546478 9.1393375,10.7092827 L9.58038418,10.1078554 C9.76127812,9.86118182 9.97883464,9.64362529 10.2255082,9.46273136 C11.5616037,8.48292796 13.4390108,8.77175981 14.4188142,10.1078554 L14.8598608,10.7092827 C14.9201588,10.7915072 14.9926777,10.864026 15.0749022,10.924324 C15.5202674,11.2509251 16.1460697,11.1546478 16.4726708,10.7092827 L17.0988584,9.85539046 C17.2095943,9.70438706 17.3342249,9.56408318 17.4711187,9.43631565 C18.5796613,8.40167583 20.26373,8.36877243 21.4079765,9.29914518 L19.7779042,4.81644654 Z M20,10.7529611 C19.6315849,10.5503137 19.1598709,10.5959182 18.8357552,10.8984262 C18.7901239,10.9410154 18.7485804,10.9877833 18.7116684,11.0381178 L18.0854808,11.89201 C17.1056774,13.2281055 15.2282704,13.5169374 13.8921748,12.537134 C13.6455013,12.35624 13.4279448,12.1386835 13.2470509,11.89201 L12.8060042,11.2905827 C12.479403,10.8452175 11.8536007,10.7489402 11.4082355,11.0755414 C11.326011,11.1358393 11.2534922,11.2083582 11.1931942,11.2905827 L10.7521475,11.89201 C9.77234409,13.2281055 7.89493706,13.5169374 6.55884151,12.537134 C6.31216797,12.35624 6.09461145,12.1386835 5.91371752,11.89201 L5.28752991,11.0381178 C4.98708743,10.6284235 4.43345257,10.5141371 4,10.7527008 L4,18.5 C4,19.6045695 4.8954305,20.5 6,20.5 L8,20.5 L8,15 C8,14.4477153 8.44771525,14 9,14 L15,14 C15.5522847,14 16,14.4477153 16,15 L16,20.5 L18,20.5 C19.1045695,20.5 20,19.6045695 20,18.5 L20,10.7529611 Z M2,12.21218 C1.52854253,12.2613221 1.03915816,12.1137841 0.665418281,11.7649602 C0.167895114,11.3006053 -0.00410556349,10.5839457 0.228469316,9.9443648 L2.34170727,4.13296042 C2.91652791,2.55220367 4.4188552,1.49993267 6.10088097,1.49993267 L17.8983174,1.49993267 C19.5803431,1.49993267 21.0826704,2.55220367 21.6574911,4.13296042 L23.770729,9.9443648 C24.0910299,10.8251922 23.6366334,11.798899 22.755806,12.1191999 C22.5090387,12.2089334 22.2507973,12.238441 22,12.2122631 L22,18.5 C22,20.709139 20.209139,22.5 18,22.5 L6,22.5 C3.790861,22.5 2,20.709139 2,18.5 L2,12.21218 Z M10,20.5 L14,20.5 L14,16 L10,16 L10,20.5 Z" id="shape"></path>
        </g>
    </g>
</svg>