<?xml version="1.0" encoding="UTF-8"?>
<svg width="24px" height="24px" viewBox="0 0 24 24" version="1.1" xmlns="http://www.w3.org/2000/svg" xmlns:xlink="http://www.w3.org/1999/xlink">
    <!-- Generator: Sketch 44.1 (41455) - http://www.bohemiancoding.com/sketch -->
    <title>Bold/SVG/switch</title>
    <desc>Created with Sketch.</desc>
    <defs></defs>
    <g id="Bold-Outline" stroke="none" stroke-width="1" fill="none" fill-rule="evenodd">
        <g id="switch" fill-rule="nonzero" fill="#000000">
            <path d="M8,4 L16,4 C20.418278,4 24,7.581722 24,12 C24,16.418278 20.418278,20 16,20 L8,20 C3.581722,20 5.07530526e-16,16.418278 0,12 C-5.07530526e-16,7.581722 3.581722,4 8,4 Z M8,6 C4.6862915,6 2,8.6862915 2,12 C2,15.3137085 4.6862915,18 8,18 L16,18 C19.3137085,18 22,15.3137085 22,12 C22,8.6862915 19.3137085,6 16,6 L8,6 Z M8,17 C5.23857625,17 3,14.7614237 3,12 C3,9.23857625 5.23857625,7 8,7 C10.7614237,7 13,9.23857625 13,12 C13,14.7614237 10.7614237,17 8,17 Z M8,15 C9.65685425,15 11,13.6568542 11,12 C11,10.3431458 9.65685425,9 8,9 C6.34314575,9 5,10.3431458 5,12 C5,13.6568542 6.34314575,15 8,15 Z" id="shape"></path>
        </g>
    </g>
</svg>