<?xml version="1.0" encoding="UTF-8"?>
<svg width="24px" height="24px" viewBox="0 0 24 24" version="1.1" xmlns="http://www.w3.org/2000/svg" xmlns:xlink="http://www.w3.org/1999/xlink">
    <!-- Generator: Sketch 44.1 (41455) - http://www.bohemiancoding.com/sketch -->
    <title>Bold/SVG/target</title>
    <desc>Created with Sketch.</desc>
    <defs></defs>
    <g id="Bold-Outline" stroke="none" stroke-width="1" fill="none" fill-rule="evenodd">
        <g id="target" fill-rule="nonzero" fill="#000000">
            <path d="M11,21.9506248 C6.27558355,21.4815561 2.51844387,17.7244165 2.04937524,13 L1,13 C0.44771525,13 0,12.5522847 0,12 C0,11.4477153 0.44771525,11 1,11 L2.04937524,11 C2.51844387,6.27558355 6.27558355,2.51844387 11,2.04937524 L11,1 C11,0.44771525 11.4477153,8.25072942e-16 12,9.26526005e-16 C12.5522847,1.02797907e-15 13,0.44771525 13,1 L13,2.04937524 C17.7244165,2.51844387 21.4815561,6.27558355 21.9506248,11 L23,11 C23.5522847,11 24,11.4477153 24,12 C24,12.5522847 23.5522847,13 23,13 L21.9506248,13 C21.4815561,17.7244165 17.7244165,21.4815561 13,21.9506248 L13,23 C13,23.5522847 12.5522847,24 12,24 C11.4477153,24 11,23.5522847 11,23 L11,21.9506248 Z M12,20 C16.418278,20 20,16.418278 20,12 C20,7.581722 16.418278,4 12,4 C7.581722,4 4,7.581722 4,12 C4,16.418278 7.581722,20 12,20 Z M12,17 C9.23857625,17 7,14.7614237 7,12 C7,9.23857625 9.23857625,7 12,7 C14.7614237,7 17,9.23857625 17,12 C17,14.7614237 14.7614237,17 12,17 Z M12,15 C13.6568542,15 15,13.6568542 15,12 C15,10.3431458 13.6568542,9 12,9 C10.3431458,9 9,10.3431458 9,12 C9,13.6568542 10.3431458,15 12,15 Z" id="shape"></path>
        </g>
    </g>
</svg>