<?xml version="1.0" encoding="UTF-8"?>
<svg width="24px" height="24px" viewBox="0 0 24 24" version="1.1" xmlns="http://www.w3.org/2000/svg" xmlns:xlink="http://www.w3.org/1999/xlink">
    <!-- Generator: Sketch 44.1 (41455) - http://www.bohemiancoding.com/sketch -->
    <title>Bold/SVG/text_format</title>
    <desc>Created with Sketch.</desc>
    <defs></defs>
    <g id="Bold-Outline" stroke="none" stroke-width="1" fill="none" fill-rule="evenodd">
        <g id="text_format" fill-rule="nonzero" fill="#000000">
            <path d="M17.5381551,16 L16.3714884,13 L7.62851155,13 L6.46184488,16 L7,16 C7.55228475,16 8,16.4477153 8,17 C8,17.5522847 7.55228475,18 7,18 L5.02286145,18 C5.00749504,18.0003574 4.99209304,18.0003591 4.97666359,18 L4,18 C3.44771525,18 3,17.5522847 3,17 C3,16.4477153 3.44771525,16 4,16 L4.31593289,16 L9.20398599,3.43072062 C9.80450661,1.88652472 11.5431429,1.12152476 13.0873388,1.72204539 C13.8712396,2.02689572 14.4911637,2.64681977 14.796014,3.43072062 L19.6840671,16 L20,16 C20.5522847,16 21,16.4477153 21,17 C21,17.5522847 20.5522847,18 20,18 L19.0233364,18 C19.007907,18.0003591 18.992505,18.0003574 18.9771419,18 L17,18 C16.4477153,18 16,17.5522847 16,17 C16,16.4477153 16.4477153,16 17,16 L17.5381551,16 Z M8.40628933,11 L15.5937107,11 L12.9320047,4.15561314 C12.8303879,3.89431286 12.6237465,3.68767151 12.3624463,3.58605473 C11.8477143,3.38588119 11.2681689,3.64088118 11.0679953,4.15561314 L8.40628933,11 Z M21,20 C21.5522847,20 22,20.4477153 22,21 C22,21.5522847 21.5522847,22 21,22 L3,22 C2.44771525,22 2,21.5522847 2,21 C2,20.4477153 2.44771525,20 3,20 L21,20 Z" id="shape"></path>
        </g>
    </g>
</svg>