<?xml version="1.0" encoding="UTF-8"?>
<svg width="24px" height="24px" viewBox="0 0 24 24" version="1.1" xmlns="http://www.w3.org/2000/svg" xmlns:xlink="http://www.w3.org/1999/xlink">
    <!-- Generator: Sketch 44.1 (41455) - http://www.bohemiancoding.com/sketch -->
    <title>Bold/SVG/text-align-center</title>
    <desc>Created with Sketch.</desc>
    <defs></defs>
    <g id="Bold-Outline" stroke="none" stroke-width="1" fill="none" fill-rule="evenodd">
        <g id="text-align-center" fill-rule="nonzero" fill="#000000">
            <path d="M21,3.5 C21.5522847,3.5 22,3.94771525 22,4.5 C22,5.05228475 21.5522847,5.5 21,5.5 L3,5.5 C2.44771525,5.5 2,5.05228475 2,4.5 C2,3.94771525 2.44771525,3.5 3,3.5 L21,3.5 Z M21,13.5 C21.5522847,13.5 22,13.9477153 22,14.5 C22,15.0522847 21.5522847,15.5 21,15.5 L3,15.5 C2.44771525,15.5 2,15.0522847 2,14.5 C2,13.9477153 2.44771525,13.5 3,13.5 L21,13.5 Z M18,8.5 C18.5522847,8.5 19,8.94771525 19,9.5 C19,10.0522847 18.5522847,10.5 18,10.5 L6,10.5 C5.44771525,10.5 5,10.0522847 5,9.5 C5,8.94771525 5.44771525,8.5 6,8.5 L18,8.5 Z M18,18.5 C18.5522847,18.5 19,18.9477153 19,19.5 C19,20.0522847 18.5522847,20.5 18,20.5 L6,20.5 C5.44771525,20.5 5,20.0522847 5,19.5 C5,18.9477153 5.44771525,18.5 6,18.5 L18,18.5 Z" id="shape"></path>
        </g>
    </g>
</svg>