<?xml version="1.0" encoding="UTF-8"?>
<svg width="24px" height="24px" viewBox="0 0 24 24" version="1.1" xmlns="http://www.w3.org/2000/svg" xmlns:xlink="http://www.w3.org/1999/xlink">
    <!-- Generator: Sketch 44.1 (41455) - http://www.bohemiancoding.com/sketch -->
    <title>Bold/SVG/time-off</title>
    <desc>Created with Sketch.</desc>
    <defs></defs>
    <g id="Bold-Outline" stroke="none" stroke-width="1" fill="none" fill-rule="evenodd">
        <g id="time-off" fill-rule="nonzero" fill="#000000">
            <path d="M16.2102889,1.8348127 C14.8750538,1.28233904 13.4433545,1 12,1 C9.10236427,1 6.312188,2.13146281 4.22182541,4.22182541 C2.13146281,6.312188 1,9.10236427 1,12 C1,13.4433545 1.28233904,14.8750538 1.8348127,16.2102889 C2.04596755,16.7206144 2.6308429,16.9631401 3.14116836,16.7519852 C3.65149382,16.5408304 3.89401952,15.955955 3.68286467,15.4456295 C3.2310887,14.3537636 3,13.1819472 3,12 C3,9.62753894 3.92460437,7.34747356 5.63603897,5.63603897 C7.34747356,3.92460437 9.62753894,3 12,3 C13.1819472,3 14.3537636,3.2310887 15.4456295,3.68286467 C15.955955,3.89401952 16.5408304,3.65149382 16.7519852,3.14116836 C16.9631401,2.6308429 16.7206144,2.04596755 16.2102889,1.8348127 Z M6.38198626,19.0322273 C9.91567798,21.8624266 15.0882509,21.6396711 18.363961,18.363961 C21.6396711,15.0882509 21.8624266,9.91567798 19.0322273,6.38198626 L13.5081048,11.9061088 L17.1139406,14.7106478 C17.5498878,15.0497178 17.6284223,15.6779934 17.2893522,16.1139406 C16.9502822,16.5498878 16.3220066,16.6284223 15.8860594,16.2893522 L12.0828855,13.3313281 L6.38198626,19.0322273 Z M20.4535726,4.96064099 C24.0607161,9.28228586 23.8355834,15.7207658 19.7781746,19.7781746 C15.7207658,23.8355834 9.28228586,24.0607161 4.96064099,20.4535726 L3.51471863,21.8994949 C3.12419433,22.2900192 2.49102936,22.2900192 2.10050506,21.8994949 C1.70998077,21.5089706 1.70998077,20.8758057 2.10050506,20.4852814 L11.2835139,11.3022725 C11.2902755,11.295312 11.29712,11.2884683 11.3040447,11.2817418 L20.4852814,2.10050506 C20.8758057,1.70998077 21.5089706,1.70998077 21.8994949,2.10050506 C22.2900192,2.49102936 22.2900192,3.12419433 21.8994949,3.51471863 L20.4535726,4.96064099 Z M11,6 C11,5.44771525 11.4477153,5 12,5 C12.5522847,5 13,5.44771525 13,6 L13,6.5 C13,7.05228475 12.5522847,7.5 12,7.5 C11.4477153,7.5 11,7.05228475 11,6.5 L11,6 Z" id="shape"></path>
        </g>
    </g>
</svg>