<?xml version="1.0" encoding="UTF-8"?>
<svg width="24px" height="24px" viewBox="0 0 24 24" version="1.1" xmlns="http://www.w3.org/2000/svg" xmlns:xlink="http://www.w3.org/1999/xlink">
    <!-- Generator: Sketch 44.1 (41455) - http://www.bohemiancoding.com/sketch -->
    <title>Bold/SVG/users-talk</title>
    <desc>Created with Sketch.</desc>
    <defs></defs>
    <g id="Bold-Outline" stroke="none" stroke-width="1" fill="none" fill-rule="evenodd">
        <g id="users-talk" fill-rule="nonzero" fill="#000000">
            <path d="M6.5,13.5 C4.290861,13.5 2.5,11.709139 2.5,9.5 C2.5,7.290861 4.290861,5.5 6.5,5.5 C8.709139,5.5 10.5,7.290861 10.5,9.5 C10.5,11.709139 8.709139,13.5 6.5,13.5 Z M6.5,11.5 C7.6045695,11.5 8.5,10.6045695 8.5,9.5 C8.5,8.3954305 7.6045695,7.5 6.5,7.5 C5.3954305,7.5 4.5,8.3954305 4.5,9.5 C4.5,10.6045695 5.3954305,11.5 6.5,11.5 Z M0,19.5 L0,18 C-3.10862447e-16,16.0670034 1.56700338,14.5 3.5,14.5 L9.5,14.5 C11.4329966,14.5 13,16.0670034 13,18 L13,19.5 C13,20.6045695 12.1045695,21.5 11,21.5 L2,21.5 C0.8954305,21.5 1.33226763e-15,20.6045695 0,19.5 Z M2,19.5 L11,19.5 L11,18 C11,17.1715729 10.3284271,16.5 9.5,16.5 L3.5,16.5 C2.67157288,16.5 2,17.1715729 2,18 L2,19.5 Z M15.7054117,13.5443648 C15.5064063,13.4618448 15.312239,13.3687022 15.1236874,13.2654386 L13.3566909,13.9350992 C12.5507821,14.2405244 11.7617804,13.4515226 12.0672056,12.6456139 L12.7368662,10.8786174 C12.6336026,10.6900658 12.54046,10.4958985 12.45794,10.2968931 C12.1584394,9.57461704 12.0023048,8.79733245 12.0023048,8 C12.0023048,4.6862915 14.6885963,2 18.0023048,2 C21.3160133,2 24.0023048,4.6862915 24.0023048,8 C24.0023048,11.3137085 21.3160133,14 18.0023048,14 C17.2049723,14 16.4276877,13.8438654 15.7054117,13.5443648 Z M14.7795107,11.1323656 L14.7243257,11.2779791 L14.8699392,11.2227941 C15.1724708,11.10814 15.5117786,11.1469326 15.7806252,11.3269117 C15.9982583,11.4726059 16.2295992,11.5965976 16.471486,11.6968989 C16.9519649,11.8961354 17.469034,12 18.0023048,12 C20.2114438,12 22.0023048,10.209139 22.0023048,8 C22.0023048,5.790861 20.2114438,4 18.0023048,4 C15.7931658,4 14.0023048,5.790861 14.0023048,8 C14.0023048,8.53327083 14.1061694,9.05033993 14.3054059,9.53081882 C14.4057071,9.77270557 14.5296989,10.0040465 14.6753931,10.2216796 C14.8553722,10.4905262 14.8941648,10.829834 14.7795107,11.1323656 Z" id="Combined-Shape"></path>
        </g>
    </g>
</svg>