<?xml version="1.0" encoding="UTF-8"?>
<svg width="24px" height="24px" viewBox="0 0 24 24" version="1.1" xmlns="http://www.w3.org/2000/svg" xmlns:xlink="http://www.w3.org/1999/xlink">
    <!-- Generator: Sketch 44.1 (41455) - http://www.bohemiancoding.com/sketch -->
    <title>Bold/SVG/video-cam</title>
    <desc>Created with Sketch.</desc>
    <defs></defs>
    <g id="Bold-Outline" stroke="none" stroke-width="1" fill="none" fill-rule="evenodd">
        <g id="video-cam" fill-rule="nonzero" fill="#000000">
            <path d="M5,6 C3.8954305,6 3,6.8954305 3,8 L3,16 C3,17.1045695 3.8954305,18 5,18 L13,18 C14.1045695,18 15,17.1045695 15,16 L15,8 C15,6.8954305 14.1045695,6 13,6 L5,6 Z M16.9978231,7.86677246 L19.7196312,5.59859905 C20.568185,4.89147089 21.8293144,5.00611902 22.5364426,5.85467281 C22.8359676,6.21410282 23,6.6671686 23,7.13504161 L23,16.8649584 C23,17.9695279 22.1045695,18.8649584 21,18.8649584 C20.532127,18.8649584 20.0790612,18.7009259 19.7196312,18.4014009 L16.9978231,16.1332275 C16.9275458,18.2806934 15.1645557,20 13,20 L5,20 C2.790861,20 1,18.209139 1,16 L1,8 C1,5.790861 2.790861,4 5,4 L13,4 C15.1645557,4 16.9275458,5.71930658 16.9978231,7.86677246 Z M17,10.4683749 L17,13.5316251 L21,16.8649584 L21,7.13504161 L17,10.4683749 Z" id="shape"></path>
        </g>
    </g>
</svg>