<?xml version="1.0" encoding="UTF-8"?>
<svg width="24px" height="24px" viewBox="0 0 24 24" version="1.1" xmlns="http://www.w3.org/2000/svg" xmlns:xlink="http://www.w3.org/1999/xlink">
    <!-- Generator: Sketch 44.1 (41455) - http://www.bohemiancoding.com/sketch -->
    <title>Bold/SVG/weather-stormy</title>
    <desc>Created with Sketch.</desc>
    <defs></defs>
    <g id="Bold-Outline" stroke="none" stroke-width="1" fill="none" fill-rule="evenodd">
        <g id="weather-stormy" fill-rule="nonzero" fill="#000000">
            <path d="M10.5,1 C14.1150484,1 17.1543752,3.56502707 17.8503868,7.0018349 C17.9001825,7.00061241 17.9500563,7 18,7 C21.3137085,7 24,9.6862915 24,13 C24,15.8725574 21.9575033,18.4119778 19.2016864,18.9794501 C18.6607511,19.0908385 18.1319382,18.7426218 18.0205499,18.2016864 C17.9091615,17.6607511 18.2573782,17.1319382 18.7983136,17.0205499 C20.6191866,16.6455993 22,14.9288446 22,13 C22,10.790861 20.209139,9 18,9 C17.7247737,9 17.4537222,9.02764812 17.1893791,9.08198275 C16.5930682,9.20455199 16.0265197,8.77035582 15.9898575,8.16268338 C15.8153697,5.27056812 13.4121547,3 10.5,3 C7.46243388,3 5,5.46243388 5,8.5 C5,8.95655297 5.05541426,9.40498353 5.16384832,9.83881386 C5.301864,10.3909964 4.95182052,10.9468618 4.39421081,11.0609901 C3.01051024,11.344198 2,12.5687042 2,14 C2,15.6568542 3.34314575,17 5,17 C5.55228475,17 6,17.4477153 6,18 C6,18.5522847 5.55228475,19 5,19 C2.23857625,19 0,16.7614237 0,14 C0,11.9518978 1.24035225,10.1589024 3.05272954,9.39318616 C3.01769289,9.09834632 3,8.80023648 3,8.5 C3,4.35786438 6.35786438,1 10.5,1 Z M10.5,18 L8.5,18 C7.9196578,18 7.46119363,17.5076203 7.5025413,16.928753 L8.0025413,9.92875295 C8.03992026,9.40544755 8.47536133,9 9,9 L14,9 C14.6982062,9 15.1814857,9.69737262 14.9363292,10.3511234 L13.9430005,13 L16.5,13 C17.2854355,13 17.7642783,13.8639509 17.3479983,14.5299989 L12.3479983,22.5299989 C11.8155139,23.381974 10.5,23.0046896 10.5,22 L10.5,18 Z M9.57397635,16 L11.5,16 C12.0522847,16 12.5,16.4477153 12.5,17 L12.5,18.5132038 L14.6957524,15 L12.5,15 C11.8017938,15 11.3185143,14.3026274 11.5636708,13.6488766 L12.5569995,11 L9.9311192,11 L9.57397635,16 Z" id="shape"></path>
        </g>
    </g>
</svg>