<?xml version="1.0" encoding="UTF-8"?>
<svg width="24px" height="24px" viewBox="0 0 24 24" version="1.1" xmlns="http://www.w3.org/2000/svg" xmlns:xlink="http://www.w3.org/1999/xlink">
    <!-- Generator: Sketch 44.1 (41455) - http://www.bohemiancoding.com/sketch -->
    <title>Bold/SVG/wine</title>
    <desc>Created with Sketch.</desc>
    <defs></defs>
    <g id="Bold-Outline" stroke="none" stroke-width="1" fill="none" fill-rule="evenodd">
        <g id="wine" fill-rule="nonzero" fill="#000000">
            <path d="M18.382735,6 L18.1049572,3.5 L5.89504279,3.5 L5.61726502,6 L18.382735,6 Z M18.6049572,8 L5.39504279,8 L5.23266736,9.46137893 C5.13760118,10.3169745 5.60069181,11.13741 6.38231847,11.4981608 L10.3381164,13.3239136 C11.0464172,13.6508217 11.5,14.3597305 11.5,15.1398324 L11.5,18.5 C11.5,18.8147573 11.3518058,19.1111456 11.1,19.3 L9.5,20.5 L14.5,20.5 L12.9,19.3 C12.6481942,19.1111456 12.5,18.8147573 12.5,18.5 L12.5,15.1398324 C12.5,14.3597305 12.9535828,13.6508217 13.6618836,13.3239136 L17.6176815,11.4981608 C18.3993082,11.13741 18.8623988,10.3169745 18.7673326,9.46137893 L18.6049572,8 Z M9.5,15.1398324 L5.54420212,13.3140795 C3.9809488,12.592578 3.05476754,10.951707 3.24489989,9.24051588 L4.00611627,2.38956847 C4.06238656,1.88313579 4.49045078,1.5 5,1.5 L19,1.5 C19.5095492,1.5 19.9376134,1.88313579 19.9938837,2.38956847 L20.7551001,9.24051588 C20.9452325,10.951707 20.0190512,12.592578 18.4557979,13.3140795 L14.5,15.1398324 L14.5,18 L18.1,20.7 C18.8688098,21.2766074 18.4610123,22.5 17.5,22.5 L6.5,22.5 C5.53898771,22.5 5.13119017,21.2766074 5.9,20.7 L9.5,18 L9.5,15.1398324 Z" id="shape"></path>
        </g>
    </g>
</svg>