<?xml version="1.0" encoding="UTF-8"?>
<svg width="24px" height="24px" viewBox="0 0 24 24" version="1.1" xmlns="http://www.w3.org/2000/svg" xmlns:xlink="http://www.w3.org/1999/xlink">
    <!-- Generator: Sketch 44.1 (41455) - http://www.bohemiancoding.com/sketch -->
    <title>Bold/SVG/woman</title>
    <desc>Created with Sketch.</desc>
    <defs></defs>
    <g id="Bold-Outline" stroke="none" stroke-width="1" fill="none" fill-rule="evenodd">
        <g id="woman" fill-rule="nonzero" fill="#000000">
            <path d="M8.62555565,6.14875297 C8.22950913,5.52808787 8,4.7908463 8,4 C8,1.790861 9.790861,0 12,0 C14.209139,0 16,1.790861 16,4 C16,4.79051823 15.7706812,5.5274762 15.3749371,6.14798049 C16.7274025,6.56685556 17.7098076,7.82752859 17.7098076,9.31765464 C17.7098076,9.79365919 17.607378,10.2640903 17.4094742,10.6970041 L16.3907806,12.925392 C16.1842871,13.3770958 16.1532505,13.8894725 16.3037115,14.3627984 L18.1246489,20.0911717 C18.6265809,21.6701683 17.7534476,23.3570942 16.174451,23.8590262 C15.8805546,23.9524501 15.5740105,24 15.2656226,24 L8.73437736,24 C7.07752311,24 5.73437736,22.6568542 5.73437736,21 C5.73437736,20.6916121 5.78192724,20.385068 5.87535112,20.0911717 L7.69628854,14.3627984 C7.84674954,13.8894725 7.81571294,13.3770958 7.60921939,12.925392 L6.59052583,10.6970041 C5.82873214,9.03058364 6.56207706,7.06212711 8.22849756,6.30033343 C8.35778763,6.24122928 8.49042396,6.1906407 8.62555565,6.14875297 Z M12,6 C13.1045695,6 14,5.1045695 14,4 C14,2.8954305 13.1045695,2 12,2 C10.8954305,2 10,2.8954305 10,4 C10,5.1045695 10.8954305,6 12,6 Z M7.73437736,21 C7.73437736,21.5522847 8.18209261,22 8.73437736,22 L15.2656226,22 C15.3684186,22 15.4706,21.98415 15.5685654,21.9530087 C16.0948976,21.7856981 16.3859421,21.2233894 16.2186314,20.6970572 L14.397694,14.968684 C14.096772,14.0220322 14.1588452,12.9972787 14.5718323,12.0938712 L15.5905258,9.86548329 C15.6691262,9.69354528 15.7098076,9.50670675 15.7098076,9.31765464 C15.7098076,8.58993408 15.1198735,8 14.392153,8 L9.60784704,8 C9.41879493,8 9.2319564,8.04068139 9.06001839,8.11928177 C8.39817534,8.42183918 8.10691677,9.20364023 8.40947417,9.86548329 L9.42816773,12.0938712 C9.84115484,12.9972787 9.90322804,14.0220322 9.60230603,14.968684 L7.78136861,20.6970572 C7.75022732,20.7950227 7.73437736,20.897204 7.73437736,21 Z" id="shape"></path>
        </g>
    </g>
</svg>